%TF.GenerationSoftware,KiCad,Pcbnew,9.0.7*%
%TF.CreationDate,2026-04-09T10:21:35+02:00*%
%TF.ProjectId,board3-main,626f6172-6433-42d6-9d61-696e2e6b6963,1*%
%TF.SameCoordinates,Original*%
%TF.FileFunction,Soldermask,Bot*%
%TF.FilePolarity,Negative*%
%FSLAX46Y46*%
G04 Gerber Fmt 4.6, Leading zero omitted, Abs format (unit mm)*
G04 Created by KiCad (PCBNEW 9.0.7) date 2026-04-09 10:21:35*
%MOMM*%
%LPD*%
G01*
G04 APERTURE LIST*
G04 Aperture macros list*
%AMRoundRect*
0 Rectangle with rounded corners*
0 $1 Rounding radius*
0 $2 $3 $4 $5 $6 $7 $8 $9 X,Y pos of 4 corners*
0 Add a 4 corners polygon primitive as box body*
4,1,4,$2,$3,$4,$5,$6,$7,$8,$9,$2,$3,0*
0 Add four circle primitives for the rounded corners*
1,1,$1+$1,$2,$3*
1,1,$1+$1,$4,$5*
1,1,$1+$1,$6,$7*
1,1,$1+$1,$8,$9*
0 Add four rect primitives between the rounded corners*
20,1,$1+$1,$2,$3,$4,$5,0*
20,1,$1+$1,$4,$5,$6,$7,0*
20,1,$1+$1,$6,$7,$8,$9,0*
20,1,$1+$1,$8,$9,$2,$3,0*%
G04 Aperture macros list end*
%ADD10R,1.800000X1.800000*%
%ADD11C,2.000000*%
%ADD12C,1.000000*%
%ADD13C,7.000000*%
%ADD14R,1.700000X1.700000*%
%ADD15C,1.700000*%
%ADD16C,1.800000*%
%ADD17RoundRect,0.250000X0.500000X0.250000X-0.500000X0.250000X-0.500000X-0.250000X0.500000X-0.250000X0*%
%ADD18C,3.600000*%
%ADD19R,1.400000X1.400000*%
%ADD20C,1.400000*%
%ADD21C,2.400000*%
%ADD22O,5.900000X2.400000*%
%ADD23RoundRect,0.250000X-0.500000X-0.250000X0.500000X-0.250000X0.500000X0.250000X-0.500000X0.250000X0*%
G04 APERTURE END LIST*
D10*
%TO.C,J9*%
X62020000Y-167410000D03*
D11*
X62020000Y-169950000D03*
X62020000Y-172490000D03*
X59480000Y-172490000D03*
X59480000Y-169950000D03*
X59480000Y-167410000D03*
%TD*%
D12*
%TO.C,H6*%
X57450000Y-200000000D03*
X58196878Y-198196878D03*
X58196878Y-201803122D03*
X60000000Y-197450000D03*
D13*
X60000000Y-200000000D03*
D12*
X60000000Y-202550000D03*
X61803122Y-198196878D03*
X61803122Y-201803122D03*
X62550000Y-200000000D03*
%TD*%
D10*
%TO.C,J11*%
X151980000Y-172490000D03*
D11*
X151980000Y-169950000D03*
X151980000Y-167410000D03*
X154520000Y-167410000D03*
X154520000Y-169950000D03*
X154520000Y-172490000D03*
%TD*%
D10*
%TO.C,J12*%
X151980000Y-182490000D03*
D11*
X151980000Y-179950000D03*
X151980000Y-177410000D03*
X154520000Y-177410000D03*
X154520000Y-179950000D03*
X154520000Y-182490000D03*
%TD*%
D12*
%TO.C,H7*%
X152450000Y-200000000D03*
X153196878Y-198196878D03*
X153196878Y-201803122D03*
X155000000Y-197450000D03*
D13*
X155000000Y-200000000D03*
D12*
X155000000Y-202550000D03*
X156803122Y-198196878D03*
X156803122Y-201803122D03*
X157550000Y-200000000D03*
%TD*%
D10*
%TO.C,J10*%
X62020000Y-177410000D03*
D11*
X62020000Y-179950000D03*
X62020000Y-182490000D03*
X59480000Y-182490000D03*
X59480000Y-179950000D03*
X59480000Y-177410000D03*
%TD*%
D14*
%TO.C,J1*%
X113850000Y-118000000D03*
D15*
X111310000Y-118000000D03*
X108770000Y-118000000D03*
X106230000Y-118000000D03*
X103690000Y-118000000D03*
X101150000Y-118000000D03*
%TD*%
D16*
%TO.C,H4*%
X97250001Y-106700001D03*
X97250000Y-114300000D03*
%TD*%
D17*
%TO.C,D5*%
X70200000Y-190850000D03*
X70200000Y-194150000D03*
X65300000Y-190850000D03*
X65300000Y-194150000D03*
%TD*%
D18*
%TO.C,U1*%
X60000000Y-64940000D03*
X60000000Y-93540000D03*
X155000000Y-64990000D03*
X155000000Y-93490000D03*
D19*
X153730001Y-70600000D03*
D20*
X156270000Y-70600000D03*
X153730000Y-73140000D03*
X156270000Y-73140000D03*
X153730000Y-75680000D03*
X156270000Y-75680000D03*
X153730000Y-78220000D03*
X156270000Y-78220000D03*
X153730000Y-80760000D03*
X156270000Y-80760000D03*
X153730000Y-83300000D03*
X156270000Y-83300000D03*
X153730000Y-85840000D03*
X156270000Y-85840000D03*
X153730000Y-88380000D03*
X156270000Y-88380000D03*
%TD*%
D12*
%TO.C,U5*%
X107250000Y-63220000D03*
D21*
X64250000Y-94350000D03*
D22*
X69250000Y-65000000D03*
X69250000Y-94350000D03*
X107250000Y-94350000D03*
X145250000Y-65000000D03*
X145250000Y-94350000D03*
D21*
X150250000Y-65000000D03*
%TD*%
D23*
%TO.C,D1*%
X94800000Y-112150000D03*
X94800000Y-108850000D03*
X99700000Y-112150000D03*
X99700000Y-108850000D03*
%TD*%
D16*
%TO.C,H2*%
X146750001Y-188700001D03*
X146750000Y-196300000D03*
%TD*%
%TO.C,H5*%
X116250001Y-149950001D03*
X116250000Y-157550000D03*
%TD*%
D17*
%TO.C,D4*%
X149200000Y-190850000D03*
X149200000Y-194150000D03*
X144300000Y-190850000D03*
X144300000Y-194150000D03*
%TD*%
D23*
%TO.C,D3*%
X113800000Y-155400000D03*
X113800000Y-152100000D03*
X118700000Y-155400000D03*
X118700000Y-152100000D03*
%TD*%
D16*
%TO.C,H1*%
X118750001Y-106700001D03*
X118750000Y-114300000D03*
%TD*%
D23*
%TO.C,D2*%
X116300000Y-112150000D03*
X116300000Y-108850000D03*
X121200000Y-112150000D03*
X121200000Y-108850000D03*
%TD*%
D16*
%TO.C,H3*%
X67750001Y-188700001D03*
X67750000Y-196300000D03*
%TD*%
M02*
