%TF.GenerationSoftware,KiCad,Pcbnew,9.0.7*%
%TF.CreationDate,2026-04-09T10:21:35+02:00*%
%TF.ProjectId,board3-main,626f6172-6433-42d6-9d61-696e2e6b6963,1*%
%TF.SameCoordinates,Original*%
%TF.FileFunction,Soldermask,Top*%
%TF.FilePolarity,Negative*%
%FSLAX46Y46*%
G04 Gerber Fmt 4.6, Leading zero omitted, Abs format (unit mm)*
G04 Created by KiCad (PCBNEW 9.0.7) date 2026-04-09 10:21:35*
%MOMM*%
%LPD*%
G01*
G04 APERTURE LIST*
G04 Aperture macros list*
%AMRoundRect*
0 Rectangle with rounded corners*
0 $1 Rounding radius*
0 $2 $3 $4 $5 $6 $7 $8 $9 X,Y pos of 4 corners*
0 Add a 4 corners polygon primitive as box body*
4,1,4,$2,$3,$4,$5,$6,$7,$8,$9,$2,$3,0*
0 Add four circle primitives for the rounded corners*
1,1,$1+$1,$2,$3*
1,1,$1+$1,$4,$5*
1,1,$1+$1,$6,$7*
1,1,$1+$1,$8,$9*
0 Add four rect primitives between the rounded corners*
20,1,$1+$1,$2,$3,$4,$5,0*
20,1,$1+$1,$4,$5,$6,$7,0*
20,1,$1+$1,$6,$7,$8,$9,0*
20,1,$1+$1,$8,$9,$2,$3,0*%
%AMFreePoly0*
4,1,41,1.815532,1.196455,1.890228,1.196455,2.068462,1.168225,2.240086,1.112461,2.400873,1.030536,2.546865,0.924467,2.674467,0.796865,2.780536,0.650873,2.862461,0.490086,2.918225,0.318462,2.946455,0.140228,2.946455,0.022616,2.950000,0.000000,2.950000,-2.100000,2.930194,-2.186777,2.874698,-2.256366,2.794504,-2.294986,2.750000,-2.300000,-2.750000,-2.300000,-2.836777,-2.280194,
-2.906366,-2.224698,-2.944986,-2.144504,-2.947698,-2.120427,-2.948079,-2.119509,-2.950000,-2.100000,-2.950000,0.050000,-2.946455,0.065531,-2.946455,0.140228,-2.918225,0.318462,-2.862461,0.490086,-2.780536,0.650873,-2.674467,0.796865,-2.546865,0.924467,-2.400873,1.030536,-2.240086,1.112461,-2.068462,1.168225,-1.980096,1.182220,-1.976426,1.184822,-1.900000,1.200000,1.800000,1.200000,
1.815532,1.196455,1.815532,1.196455,$1*%
G04 Aperture macros list end*
%ADD10RoundRect,0.250000X-0.450000X0.350000X-0.450000X-0.350000X0.450000X-0.350000X0.450000X0.350000X0*%
%ADD11RoundRect,0.250000X0.337500X0.475000X-0.337500X0.475000X-0.337500X-0.475000X0.337500X-0.475000X0*%
%ADD12RoundRect,0.250000X0.450000X-0.350000X0.450000X0.350000X-0.450000X0.350000X-0.450000X-0.350000X0*%
%ADD13RoundRect,0.250000X-0.350000X-0.450000X0.350000X-0.450000X0.350000X0.450000X-0.350000X0.450000X0*%
%ADD14RoundRect,0.250000X-0.337500X-0.475000X0.337500X-0.475000X0.337500X0.475000X-0.337500X0.475000X0*%
%ADD15C,2.000000*%
%ADD16RoundRect,0.250000X0.350000X0.450000X-0.350000X0.450000X-0.350000X-0.450000X0.350000X-0.450000X0*%
%ADD17RoundRect,0.250001X-0.507499X-0.944999X0.507499X-0.944999X0.507499X0.944999X-0.507499X0.944999X0*%
%ADD18R,1.800000X1.800000*%
%ADD19C,1.000000*%
%ADD20C,7.000000*%
%ADD21RoundRect,0.250001X-0.944999X0.507499X-0.944999X-0.507499X0.944999X-0.507499X0.944999X0.507499X0*%
%ADD22RoundRect,0.150000X0.350000X-1.250000X0.350000X1.250000X-0.350000X1.250000X-0.350000X-1.250000X0*%
%ADD23R,0.850000X2.350000*%
%ADD24RoundRect,0.250000X-0.250000X-0.500000X0.250000X-0.500000X0.250000X0.500000X-0.250000X0.500000X0*%
%ADD25RoundRect,0.354000X-0.531000X-0.771000X0.531000X-0.771000X0.531000X0.771000X-0.531000X0.771000X0*%
%ADD26RoundRect,0.250001X0.944999X-0.507499X0.944999X0.507499X-0.944999X0.507499X-0.944999X-0.507499X0*%
%ADD27RoundRect,0.250000X0.250000X0.250000X-0.250000X0.250000X-0.250000X-0.250000X0.250000X-0.250000X0*%
%ADD28RoundRect,0.250000X-0.475000X0.337500X-0.475000X-0.337500X0.475000X-0.337500X0.475000X0.337500X0*%
%ADD29RoundRect,0.250001X1.044999X-0.872499X1.044999X0.872499X-1.044999X0.872499X-1.044999X-0.872499X0*%
%ADD30RoundRect,0.250000X-0.500000X0.250000X-0.500000X-0.250000X0.500000X-0.250000X0.500000X0.250000X0*%
%ADD31RoundRect,0.354000X-0.771000X0.531000X-0.771000X-0.531000X0.771000X-0.531000X0.771000X0.531000X0*%
%ADD32RoundRect,0.237500X0.237500X-0.300000X0.237500X0.300000X-0.237500X0.300000X-0.237500X-0.300000X0*%
%ADD33RoundRect,0.150000X0.512500X0.150000X-0.512500X0.150000X-0.512500X-0.150000X0.512500X-0.150000X0*%
%ADD34RoundRect,0.237500X0.300000X0.237500X-0.300000X0.237500X-0.300000X-0.237500X0.300000X-0.237500X0*%
%ADD35R,2.750000X1.000000*%
%ADD36RoundRect,0.250000X-0.445000X0.545000X-0.445000X-0.545000X0.445000X-0.545000X0.445000X0.545000X0*%
%ADD37RoundRect,0.150000X0.875000X0.150000X-0.875000X0.150000X-0.875000X-0.150000X0.875000X-0.150000X0*%
%ADD38R,3.510000X2.540000*%
%ADD39RoundRect,0.250000X0.475000X-0.337500X0.475000X0.337500X-0.475000X0.337500X-0.475000X-0.337500X0*%
%ADD40RoundRect,0.250000X0.500000X-0.250000X0.500000X0.250000X-0.500000X0.250000X-0.500000X-0.250000X0*%
%ADD41RoundRect,0.354000X0.771000X-0.531000X0.771000X0.531000X-0.771000X0.531000X-0.771000X-0.531000X0*%
%ADD42R,1.700000X1.700000*%
%ADD43C,1.700000*%
%ADD44RoundRect,0.067500X0.857500X-0.157500X0.857500X0.157500X-0.857500X0.157500X-0.857500X-0.157500X0*%
%ADD45RoundRect,0.237500X-0.237500X0.300000X-0.237500X-0.300000X0.237500X-0.300000X0.237500X0.300000X0*%
%ADD46C,1.800000*%
%ADD47C,3.600000*%
%ADD48R,1.400000X1.400000*%
%ADD49C,1.400000*%
%ADD50R,0.350000X1.500000*%
%ADD51C,2.400000*%
%ADD52O,5.900000X2.400000*%
%ADD53FreePoly0,180.000000*%
%ADD54FreePoly0,0.000000*%
%ADD55R,2.000000X1.700000*%
G04 APERTURE END LIST*
D10*
%TO.C,R14*%
X86000000Y-109000000D03*
X86000000Y-111000000D03*
%TD*%
D11*
%TO.C,C5*%
X101500000Y-110500000D03*
X99425000Y-110500000D03*
%TD*%
D12*
%TO.C,R7*%
X114750000Y-87250000D03*
X114750000Y-85250000D03*
%TD*%
D13*
%TO.C,R2*%
X111600000Y-121500000D03*
X113600000Y-121500000D03*
%TD*%
D14*
%TO.C,C2*%
X63500000Y-192500000D03*
X65575000Y-192500000D03*
%TD*%
D15*
%TO.C,TP4*%
X84500000Y-105000000D03*
%TD*%
D10*
%TO.C,R8*%
X110250000Y-85250000D03*
X110250000Y-87250000D03*
%TD*%
D16*
%TO.C,R10*%
X122500000Y-94500000D03*
X120500000Y-94500000D03*
%TD*%
D14*
%TO.C,C1*%
X142500000Y-192500000D03*
X144575000Y-192500000D03*
%TD*%
D17*
%TO.C,C7*%
X62245000Y-128150000D03*
X65500000Y-128150000D03*
%TD*%
D18*
%TO.C,J9*%
X62020000Y-167410000D03*
D15*
X62020000Y-169950000D03*
X62020000Y-172490000D03*
X59480000Y-172490000D03*
X59480000Y-169950000D03*
X59480000Y-167410000D03*
%TD*%
D19*
%TO.C,H6*%
X57450000Y-200000000D03*
X58196878Y-198196878D03*
X58196878Y-201803122D03*
X60000000Y-197450000D03*
D20*
X60000000Y-200000000D03*
D19*
X60000000Y-202550000D03*
X61803122Y-198196878D03*
X61803122Y-201803122D03*
X62550000Y-200000000D03*
%TD*%
D21*
%TO.C,C12*%
X132000000Y-86622500D03*
X132000000Y-89877500D03*
%TD*%
D15*
%TO.C,TP1*%
X82000000Y-92500000D03*
%TD*%
D10*
%TO.C,R3*%
X151250000Y-72000000D03*
X151250000Y-74000000D03*
%TD*%
D22*
%TO.C,SW1*%
X130500000Y-103300000D03*
X134500000Y-103300000D03*
X130500000Y-97500000D03*
X134500000Y-97500000D03*
%TD*%
D23*
%TO.C,J2*%
X67750000Y-118825000D03*
X65750000Y-121175000D03*
X63750000Y-118825000D03*
X61750000Y-121175000D03*
%TD*%
D24*
%TO.C,J7*%
X119000000Y-191705000D03*
X120500000Y-191705000D03*
X122000000Y-191705000D03*
X123500000Y-191705000D03*
X125000000Y-191705000D03*
D25*
X116135000Y-197375000D03*
X127865000Y-197375000D03*
%TD*%
D10*
%TO.C,R1*%
X92000000Y-104712500D03*
X92000000Y-106712500D03*
%TD*%
D26*
%TO.C,C16*%
X132000000Y-83377500D03*
X132000000Y-80122500D03*
%TD*%
D27*
%TO.C,D7*%
X127250000Y-89500000D03*
X124750000Y-89500000D03*
%TD*%
D16*
%TO.C,R15*%
X64500000Y-115000000D03*
X62500000Y-115000000D03*
%TD*%
D28*
%TO.C,C9*%
X89000000Y-104675000D03*
X89000000Y-106750000D03*
%TD*%
D23*
%TO.C,J8*%
X146500000Y-156175000D03*
X148500000Y-153825000D03*
X150500000Y-156175000D03*
X152500000Y-153825000D03*
%TD*%
D15*
%TO.C,TP2*%
X77000000Y-95000000D03*
%TD*%
D12*
%TO.C,R16*%
X70000000Y-108000000D03*
X70000000Y-106000000D03*
%TD*%
D11*
%TO.C,C4*%
X123000000Y-110500000D03*
X120925000Y-110500000D03*
%TD*%
D29*
%TO.C,C18*%
X91250000Y-89457500D03*
X91250000Y-83042500D03*
%TD*%
D11*
%TO.C,C8*%
X102037500Y-104500000D03*
X99962500Y-104500000D03*
%TD*%
D18*
%TO.C,J11*%
X151980000Y-172490000D03*
D15*
X151980000Y-169950000D03*
X151980000Y-167410000D03*
X154520000Y-167410000D03*
X154520000Y-169950000D03*
X154520000Y-172490000D03*
%TD*%
D28*
%TO.C,C11*%
X136000000Y-86462500D03*
X136000000Y-88537500D03*
%TD*%
D30*
%TO.C,J4*%
X62795000Y-104500000D03*
X62795000Y-106000000D03*
X62795000Y-107500000D03*
X62795000Y-109000000D03*
X62795000Y-110500000D03*
D31*
X57125000Y-101635000D03*
X57125000Y-113365000D03*
%TD*%
D14*
%TO.C,C13*%
X73962500Y-79000000D03*
X76037500Y-79000000D03*
%TD*%
D32*
%TO.C,C20*%
X101500000Y-87362500D03*
X101500000Y-85637500D03*
%TD*%
D33*
%TO.C,U4*%
X76212500Y-83900000D03*
X76212500Y-82950000D03*
X76212500Y-82000000D03*
X73937500Y-82000000D03*
X73937500Y-83900000D03*
%TD*%
D15*
%TO.C,TP3*%
X87000000Y-95000000D03*
%TD*%
D12*
%TO.C,R13*%
X89000000Y-111000000D03*
X89000000Y-109000000D03*
%TD*%
D18*
%TO.C,J12*%
X151980000Y-182490000D03*
D15*
X151980000Y-179950000D03*
X151980000Y-177410000D03*
X154520000Y-177410000D03*
X154520000Y-179950000D03*
X154520000Y-182490000D03*
%TD*%
D24*
%TO.C,J6*%
X104000000Y-191705000D03*
X105500000Y-191705000D03*
X107000000Y-191705000D03*
X108500000Y-191705000D03*
X110000000Y-191705000D03*
D25*
X101135000Y-197375000D03*
X112865000Y-197375000D03*
%TD*%
D34*
%TO.C,C14*%
X82112500Y-87025000D03*
X80387500Y-87025000D03*
%TD*%
D35*
%TO.C,L1*%
X70095000Y-81875000D03*
X70095000Y-84175000D03*
%TD*%
D16*
%TO.C,R12*%
X122500000Y-92000000D03*
X120500000Y-92000000D03*
%TD*%
D36*
%TO.C,C21*%
X99250000Y-85560000D03*
X99250000Y-88440000D03*
%TD*%
D19*
%TO.C,H7*%
X152450000Y-200000000D03*
X153196878Y-198196878D03*
X153196878Y-201803122D03*
X155000000Y-197450000D03*
D20*
X155000000Y-200000000D03*
D19*
X155000000Y-202550000D03*
X156803122Y-198196878D03*
X156803122Y-201803122D03*
X157550000Y-200000000D03*
%TD*%
D10*
%TO.C,R4*%
X116600000Y-137900000D03*
X116600000Y-139900000D03*
%TD*%
D37*
%TO.C,U3*%
X113650000Y-141445000D03*
X113650000Y-140175000D03*
X113650000Y-138905000D03*
X113650000Y-137635000D03*
X113650000Y-136365000D03*
X113650000Y-135095000D03*
X113650000Y-133825000D03*
X113650000Y-132555000D03*
X104350000Y-132555000D03*
X104350000Y-133825000D03*
X104350000Y-135095000D03*
X104350000Y-136365000D03*
X104350000Y-137635000D03*
X104350000Y-138905000D03*
X104350000Y-140175000D03*
X104350000Y-141445000D03*
%TD*%
D38*
%TO.C,BT1*%
X147000000Y-120320000D03*
X147000000Y-149680000D03*
%TD*%
D39*
%TO.C,C10*%
X85095000Y-84062500D03*
X85095000Y-81987500D03*
%TD*%
D11*
%TO.C,C3*%
X120500000Y-153750000D03*
X118425000Y-153750000D03*
%TD*%
D27*
%TO.C,D6*%
X78000000Y-87000000D03*
X75500000Y-87000000D03*
%TD*%
%TO.C,D8*%
X122500000Y-89500000D03*
X120000000Y-89500000D03*
%TD*%
D12*
%TO.C,R5*%
X82095000Y-84025000D03*
X82095000Y-82025000D03*
%TD*%
D18*
%TO.C,J10*%
X62020000Y-177410000D03*
D15*
X62020000Y-179950000D03*
X62020000Y-182490000D03*
X59480000Y-182490000D03*
X59480000Y-179950000D03*
X59480000Y-177410000D03*
%TD*%
D13*
%TO.C,R11*%
X124750000Y-92000000D03*
X126750000Y-92000000D03*
%TD*%
D39*
%TO.C,C15*%
X136000000Y-83537500D03*
X136000000Y-81462500D03*
%TD*%
D17*
%TO.C,C6*%
X62245000Y-132500000D03*
X65500000Y-132500000D03*
%TD*%
D29*
%TO.C,C19*%
X125212500Y-84207500D03*
X125212500Y-77792500D03*
%TD*%
D24*
%TO.C,J5*%
X89000000Y-191705000D03*
X90500000Y-191705000D03*
X92000000Y-191705000D03*
X93500000Y-191705000D03*
X95000000Y-191705000D03*
D25*
X86135000Y-197375000D03*
X97865000Y-197375000D03*
%TD*%
D10*
%TO.C,R6*%
X79095000Y-82025000D03*
X79095000Y-84025000D03*
%TD*%
D40*
%TO.C,J3*%
X151205000Y-110500000D03*
X151205000Y-109000000D03*
X151205000Y-107500000D03*
X151205000Y-106000000D03*
X151205000Y-104500000D03*
D41*
X156875000Y-113365000D03*
X156875000Y-101635000D03*
%TD*%
D33*
%TO.C,U6*%
X94137500Y-111950000D03*
X94137500Y-111000000D03*
X94137500Y-110050000D03*
X91862500Y-110050000D03*
X91862500Y-111950000D03*
%TD*%
D42*
%TO.C,J1*%
X113850000Y-118000000D03*
D43*
X111310000Y-118000000D03*
X108770000Y-118000000D03*
X106230000Y-118000000D03*
X103690000Y-118000000D03*
X101150000Y-118000000D03*
%TD*%
D44*
%TO.C,U2*%
X111750000Y-109225000D03*
X111750000Y-108575000D03*
X111750000Y-107925000D03*
X111750000Y-107275000D03*
X111750000Y-106625000D03*
X111750000Y-105975000D03*
X111750000Y-105325000D03*
X111750000Y-104675000D03*
X111750000Y-104025000D03*
X111750000Y-103375000D03*
X111750000Y-102725000D03*
X111750000Y-102075000D03*
X111750000Y-101425000D03*
X111750000Y-100775000D03*
X104750000Y-100775000D03*
X104750000Y-101425000D03*
X104750000Y-102075000D03*
X104750000Y-102725000D03*
X104750000Y-103375000D03*
X104750000Y-104025000D03*
X104750000Y-104675000D03*
X104750000Y-105325000D03*
X104750000Y-105975000D03*
X104750000Y-106625000D03*
X104750000Y-107275000D03*
X104750000Y-107925000D03*
X104750000Y-108575000D03*
X104750000Y-109225000D03*
%TD*%
D13*
%TO.C,R9*%
X124750000Y-94500000D03*
X126750000Y-94500000D03*
%TD*%
D45*
%TO.C,C17*%
X112500000Y-85250000D03*
X112500000Y-86975000D03*
%TD*%
D46*
%TO.C,H4*%
X97250001Y-106700001D03*
X97250000Y-114300000D03*
%TD*%
D47*
%TO.C,U1*%
X60000000Y-64940000D03*
X60000000Y-93540000D03*
X155000000Y-64990000D03*
X155000000Y-93490000D03*
D48*
X153730001Y-70600000D03*
D49*
X156270000Y-70600000D03*
X153730000Y-73140000D03*
X156270000Y-73140000D03*
X153730000Y-75680000D03*
X156270000Y-75680000D03*
X153730000Y-78220000D03*
X156270000Y-78220000D03*
X153730000Y-80760000D03*
X156270000Y-80760000D03*
X153730000Y-83300000D03*
X156270000Y-83300000D03*
X153730000Y-85840000D03*
X156270000Y-85840000D03*
X153730000Y-88380000D03*
X156270000Y-88380000D03*
%TD*%
D19*
%TO.C,U5*%
X107250000Y-63220000D03*
D50*
X100000000Y-81000000D03*
X100500000Y-81000000D03*
X101000000Y-81000000D03*
X101500000Y-81000000D03*
X102000000Y-81000000D03*
X102500000Y-81000000D03*
X103000000Y-81000000D03*
X103500000Y-81000000D03*
X104000000Y-81000000D03*
X104500000Y-81000000D03*
X105000000Y-81000000D03*
X105500000Y-81000000D03*
X106000000Y-81000000D03*
X106500000Y-81000000D03*
X107000000Y-81000000D03*
X107500000Y-81000000D03*
X108000000Y-81000000D03*
X108500000Y-81000000D03*
X109000000Y-81000000D03*
X109500000Y-81000000D03*
X110000000Y-81000000D03*
X110500000Y-81000000D03*
X111000000Y-81000000D03*
X111500000Y-81000000D03*
X112000000Y-81000000D03*
X112500000Y-81000000D03*
X113000000Y-81000000D03*
X113500000Y-81000000D03*
X114000000Y-81000000D03*
X114500000Y-81000000D03*
D51*
X64250000Y-94350000D03*
D52*
X69250000Y-65000000D03*
D53*
X69250000Y-67200000D03*
D54*
X69250000Y-92250000D03*
D52*
X69250000Y-94350000D03*
D55*
X98300000Y-78400000D03*
D54*
X107250000Y-92200000D03*
D52*
X107250000Y-94350000D03*
D55*
X116200000Y-78400000D03*
D52*
X145250000Y-65000000D03*
D53*
X145250000Y-67200000D03*
D54*
X145250000Y-92200000D03*
D52*
X145250000Y-94350000D03*
D51*
X150250000Y-65000000D03*
%TD*%
D46*
%TO.C,H2*%
X146750001Y-188700001D03*
X146750000Y-196300000D03*
%TD*%
%TO.C,H5*%
X116250001Y-149950001D03*
X116250000Y-157550000D03*
%TD*%
%TO.C,H1*%
X118750001Y-106700001D03*
X118750000Y-114300000D03*
%TD*%
%TO.C,H3*%
X67750001Y-188700001D03*
X67750000Y-196300000D03*
%TD*%
M02*
