M48
; DRILL file {KiCad 9.0.7} date 2026-04-09T10:21:31+0200
; FORMAT={-:-/ absolute / metric / decimal}
; #@! TF.CreationDate,2026-04-09T10:21:31+02:00
; #@! TF.GenerationSoftware,Kicad,Pcbnew,9.0.7
; #@! TF.FileFunction,Plated,1,2,PTH
FMAT,2
METRIC
; #@! TA.AperFunction,Plated,PTH,ViaDrill
T1C0.300
; #@! TA.AperFunction,Plated,PTH,ViaDrill
T2C0.600
; #@! TA.AperFunction,Plated,PTH,ComponentDrill
T3C0.600
; #@! TA.AperFunction,Plated,PTH,ComponentDrill
T4C0.800
; #@! TA.AperFunction,Plated,PTH,ComponentDrill
T5C1.000
; #@! TA.AperFunction,Plated,PTH,ComponentDrill
T6C1.100
; #@! TA.AperFunction,Plated,PTH,ComponentDrill
T7C1.200
; #@! TA.AperFunction,Plated,PTH,ComponentDrill
T8C2.000
; #@! TA.AperFunction,Plated,PTH,ComponentDrill
T9C3.200
%
G90
G05
T1
X57.0Y-107.5
X57.0Y-192.5
X59.0Y-127.5
X59.0Y-132.5
X59.0Y-137.5
X59.0Y-142.5
X59.0Y-147.5
X59.0Y-152.5
X59.0Y-157.5
X59.0Y-162.5
X59.5Y-175.0
X60.4Y-116.5
X62.0Y-137.5
X62.0Y-142.5
X62.0Y-147.5
X62.0Y-152.5
X62.0Y-157.5
X62.0Y-162.5
X62.0Y-175.0
X62.0Y-187.5
X66.78Y-172.49
X67.0Y-77.5
X67.0Y-82.5
X67.0Y-87.5
X67.0Y-102.5
X67.0Y-107.5
X67.0Y-112.5
X67.0Y-167.5
X67.0Y-177.5
X67.0Y-182.5
X67.0Y-202.5
X67.75Y-115.5
X72.0Y-77.5
X72.0Y-87.5
X72.0Y-97.5
X72.0Y-102.5
X72.0Y-107.5
X72.0Y-112.5
X72.0Y-117.5
X72.0Y-167.5
X72.0Y-172.5
X72.0Y-177.5
X72.0Y-182.5
X72.0Y-187.5
X72.0Y-202.5
X74.5Y-115.75
X77.0Y-67.5
X77.0Y-77.5
X77.0Y-92.5
X77.0Y-97.5
X77.0Y-102.5
X77.0Y-107.5
X77.0Y-112.5
X77.0Y-117.5
X77.0Y-122.5
X77.0Y-182.5
X77.0Y-187.5
X77.0Y-192.5
X77.0Y-197.5
X77.0Y-202.5
X82.0Y-67.5
X82.0Y-77.5
X82.0Y-97.5
X82.0Y-102.5
X82.0Y-107.5
X82.0Y-112.5
X82.0Y-117.5
X82.0Y-122.5
X82.0Y-127.5
X82.0Y-182.5
X82.0Y-187.5
X82.0Y-192.5
X82.0Y-197.5
X82.0Y-202.5
X87.0Y-67.5
X87.0Y-77.5
X87.0Y-82.5
X87.0Y-87.5
X87.0Y-102.5
X87.0Y-107.5
X87.0Y-117.5
X87.0Y-122.5
X87.0Y-127.5
X87.0Y-182.5
X87.0Y-187.5
X87.0Y-202.5
X92.0Y-67.5
X92.0Y-77.5
X92.0Y-92.5
X92.0Y-97.5
X92.0Y-102.5
X92.0Y-108.85
X92.0Y-117.5
X92.0Y-122.5
X92.0Y-127.5
X92.0Y-182.5
X92.0Y-197.5
X92.0Y-202.5
X93.5Y-190.0
X96.75Y-84.5
X97.0Y-67.5
X97.0Y-87.5
X97.0Y-92.5
X97.0Y-97.5
X97.0Y-102.5
X97.0Y-117.5
X97.0Y-122.5
X97.0Y-127.5
X97.0Y-132.5
X97.0Y-137.5
X97.0Y-142.5
X97.0Y-182.5
X97.0Y-187.5
X97.0Y-202.5
X98.5Y-101.5
X102.0Y-67.5
X102.0Y-122.5
X102.0Y-127.5
X102.0Y-132.5
X102.0Y-137.5
X102.0Y-142.5
X102.0Y-147.5
X102.0Y-152.5
X102.0Y-157.5
X102.0Y-162.5
X102.0Y-167.5
X102.0Y-172.5
X102.0Y-177.5
X102.0Y-182.5
X102.0Y-187.5
X102.0Y-202.5
X102.5Y-74.75
X103.5Y-73.5
X104.35Y-148.75
X104.5Y-74.25
X105.5Y-73.0
X106.5Y-73.75
X107.0Y-67.5
X107.0Y-86.5
X107.0Y-97.5
X107.0Y-122.5
X107.0Y-127.5
X107.0Y-137.5
X107.0Y-147.5
X107.0Y-152.5
X107.0Y-157.5
X107.0Y-162.5
X107.0Y-167.5
X107.0Y-172.5
X107.0Y-177.5
X107.0Y-182.5
X107.0Y-197.5
X107.0Y-202.5
X107.25Y-107.25
X107.5Y-72.5
X107.5Y-100.5
X108.0Y-85.5
X108.25Y-115.75
X108.5Y-73.25
X108.5Y-190.0
X109.5Y-72.0
X109.5Y-104.025
X110.5Y-72.75
X112.0Y-67.5
X112.0Y-92.5
X112.0Y-97.5
X112.0Y-127.5
X112.0Y-147.5
X112.0Y-152.5
X112.0Y-157.5
X112.0Y-162.5
X112.0Y-182.5
X112.0Y-187.5
X112.0Y-202.5
X117.0Y-67.5
X117.0Y-72.5
X117.0Y-87.5
X117.0Y-92.5
X117.0Y-97.5
X117.0Y-102.5
X117.0Y-127.5
X117.0Y-132.5
X117.0Y-142.5
X117.0Y-147.5
X117.0Y-162.5
X117.0Y-167.5
X117.0Y-182.5
X117.0Y-187.5
X117.0Y-202.5
X120.0Y-121.0
X122.0Y-67.5
X122.0Y-72.5
X122.0Y-84.5
X122.0Y-87.5
X122.0Y-102.5
X122.0Y-122.5
X122.0Y-127.5
X122.0Y-132.5
X122.0Y-137.5
X122.0Y-142.5
X122.0Y-147.5
X122.0Y-157.5
X122.0Y-167.5
X122.0Y-172.5
X122.0Y-177.5
X122.0Y-182.5
X122.0Y-197.5
X122.0Y-202.5
X123.25Y-97.0
X123.5Y-190.0
X124.72Y-169.95
X125.75Y-97.0
X127.0Y-67.5
X127.0Y-72.5
X127.0Y-87.5
X127.0Y-102.5
X127.0Y-107.5
X127.0Y-117.5
X127.0Y-122.5
X127.0Y-137.5
X127.0Y-142.5
X127.0Y-147.5
X127.0Y-152.5
X127.0Y-157.5
X127.0Y-167.5
X127.0Y-172.5
X127.0Y-177.5
X127.0Y-182.5
X127.0Y-187.5
X127.0Y-202.5
X132.0Y-67.5
X132.0Y-72.5
X132.0Y-95.0
X132.0Y-112.5
X132.0Y-117.5
X132.0Y-122.5
X132.0Y-137.5
X132.0Y-142.5
X132.0Y-152.5
X132.0Y-157.5
X132.0Y-167.5
X132.0Y-172.5
X132.0Y-182.5
X132.0Y-187.5
X132.0Y-192.5
X132.0Y-197.5
X132.0Y-202.5
X137.0Y-67.5
X137.0Y-72.5
X137.0Y-90.0
X137.0Y-102.5
X137.0Y-112.5
X137.0Y-117.5
X137.0Y-122.5
X137.0Y-137.5
X137.0Y-142.5
X137.0Y-152.5
X137.0Y-157.5
X137.0Y-167.5
X137.0Y-172.5
X137.0Y-182.5
X137.0Y-187.5
X137.0Y-192.5
X137.0Y-197.5
X137.0Y-202.5
X142.0Y-72.5
X142.0Y-85.0
X142.0Y-102.5
X142.0Y-112.5
X142.0Y-117.5
X142.0Y-122.5
X142.0Y-137.5
X142.0Y-142.5
X142.0Y-152.5
X142.0Y-157.5
X142.0Y-162.5
X142.0Y-167.5
X142.0Y-172.5
X142.0Y-177.5
X142.0Y-182.5
X142.0Y-187.5
X142.0Y-202.5
X147.0Y-72.5
X147.0Y-97.5
X147.0Y-102.5
X147.0Y-112.5
X147.0Y-117.5
X147.0Y-122.5
X147.0Y-137.5
X147.0Y-142.5
X147.0Y-162.5
X147.0Y-167.5
X147.0Y-172.5
X147.0Y-177.5
X147.0Y-202.5
X149.0Y-73.5
X152.0Y-97.5
X152.0Y-117.5
X152.0Y-122.5
X152.0Y-127.5
X152.0Y-132.5
X152.0Y-137.5
X152.0Y-142.5
X152.0Y-147.5
X152.0Y-162.5
X152.0Y-175.0
X152.0Y-187.5
X152.0Y-192.5
X154.5Y-175.0
X155.0Y-117.5
X155.0Y-122.5
X155.0Y-127.5
X155.0Y-132.5
X155.0Y-137.5
X155.0Y-147.5
X155.021Y-142.521
X157.0Y-97.5
X157.0Y-107.5
X157.0Y-192.5
T2
X62.245Y-135.0
X63.5Y-194.15
X64.5Y-104.5
X67.75Y-192.5
X89.0Y-195.0
X97.25Y-110.5
X101.5Y-108.85
X104.0Y-195.0
X116.25Y-153.75
X118.75Y-110.5
X119.0Y-195.0
X120.5Y-152.1
X123.0Y-108.85
X142.5Y-194.15
X146.75Y-192.5
X148.5Y-110.5
T3
X57.45Y-200.0
X58.197Y-198.197
X58.197Y-201.803
X60.0Y-197.45
X60.0Y-202.55
X61.803Y-198.197
X61.803Y-201.803
X62.55Y-200.0
X152.45Y-200.0
X153.197Y-198.197
X153.197Y-201.803
X155.0Y-197.45
X155.0Y-202.55
X156.803Y-198.197
X156.803Y-201.803
X157.55Y-200.0
T4
X153.73Y-73.14
X153.73Y-75.68
X153.73Y-78.22
X153.73Y-80.76
X153.73Y-83.3
X153.73Y-85.84
X153.73Y-88.38
X153.73Y-70.6
X156.27Y-70.6
X156.27Y-73.14
X156.27Y-75.68
X156.27Y-78.22
X156.27Y-80.76
X156.27Y-83.3
X156.27Y-85.84
X156.27Y-88.38
T5
X101.15Y-118.0
X103.69Y-118.0
X106.23Y-118.0
X108.77Y-118.0
X111.31Y-118.0
X113.85Y-118.0
T6
X59.48Y-167.41
X59.48Y-169.95
X59.48Y-172.49
X59.48Y-177.41
X59.48Y-179.95
X59.48Y-182.49
X62.02Y-167.41
X62.02Y-169.95
X62.02Y-172.49
X62.02Y-177.41
X62.02Y-179.95
X62.02Y-182.49
X151.98Y-167.41
X151.98Y-169.95
X151.98Y-172.49
X151.98Y-177.41
X151.98Y-179.95
X151.98Y-182.49
X154.52Y-167.41
X154.52Y-169.95
X154.52Y-172.49
X154.52Y-177.41
X154.52Y-179.95
X154.52Y-182.49
T7
X67.75Y-196.3
X67.75Y-188.7
X97.25Y-114.3
X97.25Y-106.7
X116.25Y-157.55
X116.25Y-149.95
X118.75Y-114.3
X118.75Y-106.7
X146.75Y-196.3
X146.75Y-188.7
T8
X64.25Y-94.35
X150.25Y-65.0
T9
X60.0Y-64.94
X60.0Y-93.54
X60.0Y-200.0
X155.0Y-64.99
X155.0Y-93.49
X155.0Y-200.0
T8
G00X67.5Y-65.0
M15
G01X71.0Y-65.0
M16
G05
G00X67.5Y-94.35
M15
G01X71.0Y-94.35
M16
G05
G00X105.5Y-94.35
M15
G01X109.0Y-94.35
M16
G05
G00X143.5Y-65.0
M15
G01X147.0Y-65.0
M16
G05
G00X143.5Y-94.35
M15
G01X147.0Y-94.35
M16
G05
M30
