%TF.GenerationSoftware,KiCad,Pcbnew,9.0.7*%
%TF.CreationDate,2026-04-09T10:21:35+02:00*%
%TF.ProjectId,board3-main,626f6172-6433-42d6-9d61-696e2e6b6963,1*%
%TF.SameCoordinates,Original*%
%TF.FileFunction,Copper,L2,Bot*%
%TF.FilePolarity,Positive*%
%FSLAX46Y46*%
G04 Gerber Fmt 4.6, Leading zero omitted, Abs format (unit mm)*
G04 Created by KiCad (PCBNEW 9.0.7) date 2026-04-09 10:21:35*
%MOMM*%
%LPD*%
G01*
G04 APERTURE LIST*
G04 Aperture macros list*
%AMRoundRect*
0 Rectangle with rounded corners*
0 $1 Rounding radius*
0 $2 $3 $4 $5 $6 $7 $8 $9 X,Y pos of 4 corners*
0 Add a 4 corners polygon primitive as box body*
4,1,4,$2,$3,$4,$5,$6,$7,$8,$9,$2,$3,0*
0 Add four circle primitives for the rounded corners*
1,1,$1+$1,$2,$3*
1,1,$1+$1,$4,$5*
1,1,$1+$1,$6,$7*
1,1,$1+$1,$8,$9*
0 Add four rect primitives between the rounded corners*
20,1,$1+$1,$2,$3,$4,$5,0*
20,1,$1+$1,$4,$5,$6,$7,0*
20,1,$1+$1,$6,$7,$8,$9,0*
20,1,$1+$1,$8,$9,$2,$3,0*%
G04 Aperture macros list end*
%TA.AperFunction,ComponentPad*%
%ADD10R,1.800000X1.800000*%
%TD*%
%TA.AperFunction,ComponentPad*%
%ADD11C,2.000000*%
%TD*%
%TA.AperFunction,ComponentPad*%
%ADD12C,1.000000*%
%TD*%
%TA.AperFunction,ComponentPad*%
%ADD13C,7.000000*%
%TD*%
%TA.AperFunction,ComponentPad*%
%ADD14R,1.700000X1.700000*%
%TD*%
%TA.AperFunction,ComponentPad*%
%ADD15C,1.700000*%
%TD*%
%TA.AperFunction,ComponentPad*%
%ADD16C,1.800000*%
%TD*%
%TA.AperFunction,SMDPad,CuDef*%
%ADD17RoundRect,0.250000X0.500000X0.250000X-0.500000X0.250000X-0.500000X-0.250000X0.500000X-0.250000X0*%
%TD*%
%TA.AperFunction,CastellatedPad*%
%ADD18C,3.600000*%
%TD*%
%TA.AperFunction,ComponentPad*%
%ADD19R,1.400000X1.400000*%
%TD*%
%TA.AperFunction,ComponentPad*%
%ADD20C,1.400000*%
%TD*%
%TA.AperFunction,ComponentPad*%
%ADD21C,2.400000*%
%TD*%
%TA.AperFunction,ComponentPad*%
%ADD22O,5.900000X2.400000*%
%TD*%
%TA.AperFunction,SMDPad,CuDef*%
%ADD23RoundRect,0.250000X-0.500000X-0.250000X0.500000X-0.250000X0.500000X0.250000X-0.500000X0.250000X0*%
%TD*%
%TA.AperFunction,ViaPad*%
%ADD24C,0.700000*%
%TD*%
%TA.AperFunction,ViaPad*%
%ADD25C,1.000000*%
%TD*%
%TA.AperFunction,ViaPad*%
%ADD26C,0.900000*%
%TD*%
%TA.AperFunction,Conductor*%
%ADD27C,0.250000*%
%TD*%
%TA.AperFunction,Conductor*%
%ADD28C,1.000000*%
%TD*%
G04 APERTURE END LIST*
D10*
%TO.P,J9,1,Pin_1*%
%TO.N,Net-(J10-Pin_1)*%
X62020000Y-167410000D03*
D11*
%TO.P,J9,2,Pin_2*%
%TO.N,Net-(J10-Pin_2)*%
X62020000Y-169950000D03*
%TO.P,J9,3,Pin_3*%
%TO.N,GND*%
X62020000Y-172490000D03*
%TO.P,J9,4,Pin_4*%
%TO.N,unconnected-(J9-Pin_4-Pad4)*%
X59480000Y-172490000D03*
%TO.P,J9,5,Pin_5*%
%TO.N,+5V*%
X59480000Y-169950000D03*
%TO.P,J9,6,Pin_6*%
%TO.N,VDD*%
X59480000Y-167410000D03*
%TD*%
D12*
%TO.P,H6,1,1*%
%TO.N,GND*%
X57450000Y-200000000D03*
X58196878Y-198196878D03*
X58196878Y-201803122D03*
X60000000Y-197450000D03*
D13*
X60000000Y-200000000D03*
D12*
X60000000Y-202550000D03*
X61803122Y-198196878D03*
X61803122Y-201803122D03*
X62550000Y-200000000D03*
%TD*%
D10*
%TO.P,J11,1,Pin_1*%
%TO.N,Net-(J10-Pin_1)*%
X151980000Y-172490000D03*
D11*
%TO.P,J11,2,Pin_2*%
%TO.N,Net-(J10-Pin_2)*%
X151980000Y-169950000D03*
%TO.P,J11,3,Pin_3*%
%TO.N,GND*%
X151980000Y-167410000D03*
%TO.P,J11,4,Pin_4*%
%TO.N,unconnected-(J11-Pin_4-Pad4)*%
X154520000Y-167410000D03*
%TO.P,J11,5,Pin_5*%
%TO.N,+5V*%
X154520000Y-169950000D03*
%TO.P,J11,6,Pin_6*%
%TO.N,VDD*%
X154520000Y-172490000D03*
%TD*%
D10*
%TO.P,J12,1,Pin_1*%
%TO.N,Net-(J10-Pin_1)*%
X151980000Y-182490000D03*
D11*
%TO.P,J12,2,Pin_2*%
%TO.N,Net-(J10-Pin_2)*%
X151980000Y-179950000D03*
%TO.P,J12,3,Pin_3*%
%TO.N,GND*%
X151980000Y-177410000D03*
%TO.P,J12,4,Pin_4*%
%TO.N,unconnected-(J12-Pin_4-Pad4)*%
X154520000Y-177410000D03*
%TO.P,J12,5,Pin_5*%
%TO.N,+5V*%
X154520000Y-179950000D03*
%TO.P,J12,6,Pin_6*%
%TO.N,VDD*%
X154520000Y-182490000D03*
%TD*%
D12*
%TO.P,H7,1,1*%
%TO.N,GND*%
X152450000Y-200000000D03*
X153196878Y-198196878D03*
X153196878Y-201803122D03*
X155000000Y-197450000D03*
D13*
X155000000Y-200000000D03*
D12*
X155000000Y-202550000D03*
X156803122Y-198196878D03*
X156803122Y-201803122D03*
X157550000Y-200000000D03*
%TD*%
D10*
%TO.P,J10,1,Pin_1*%
%TO.N,Net-(J10-Pin_1)*%
X62020000Y-177410000D03*
D11*
%TO.P,J10,2,Pin_2*%
%TO.N,Net-(J10-Pin_2)*%
X62020000Y-179950000D03*
%TO.P,J10,3,Pin_3*%
%TO.N,GND*%
X62020000Y-182490000D03*
%TO.P,J10,4,Pin_4*%
%TO.N,unconnected-(J10-Pin_4-Pad4)*%
X59480000Y-182490000D03*
%TO.P,J10,5,Pin_5*%
%TO.N,+5V*%
X59480000Y-179950000D03*
%TO.P,J10,6,Pin_6*%
%TO.N,VDD*%
X59480000Y-177410000D03*
%TD*%
D14*
%TO.P,J1,1,Pin_1*%
%TO.N,Net-(J1-Pin_1)*%
X113850000Y-118000000D03*
D15*
%TO.P,J1,2,Pin_2*%
%TO.N,VDD*%
X111310000Y-118000000D03*
%TO.P,J1,3,Pin_3*%
%TO.N,GND*%
X108770000Y-118000000D03*
%TO.P,J1,4,Pin_4*%
%TO.N,Net-(J1-Pin_4)*%
X106230000Y-118000000D03*
%TO.P,J1,5,Pin_5*%
%TO.N,Net-(J1-Pin_5)*%
X103690000Y-118000000D03*
%TO.P,J1,6,Pin_6*%
%TO.N,unconnected-(J1-Pin_6-Pad6)*%
X101150000Y-118000000D03*
%TD*%
D16*
%TO.P,H4,1,1*%
%TO.N,GND*%
X97250001Y-106700001D03*
X97250000Y-114300000D03*
%TD*%
D17*
%TO.P,D5,1,VSS*%
%TO.N,GND*%
X70200000Y-190850000D03*
%TO.P,D5,2,DIN*%
%TO.N,Net-(D4-DOUT)*%
X70200000Y-194150000D03*
%TO.P,D5,3,DOUT*%
%TO.N,unconnected-(D5-DOUT-Pad3)*%
X65300000Y-190850000D03*
%TO.P,D5,4,VDD*%
%TO.N,+5V*%
X65300000Y-194150000D03*
%TD*%
D18*
%TO.P,U1,*%
%TO.N,*%
X60000000Y-64940000D03*
X60000000Y-93540000D03*
X155000000Y-64990000D03*
X155000000Y-93490000D03*
D19*
%TO.P,U1,1,GND*%
%TO.N,GND*%
X153730001Y-70600000D03*
D20*
%TO.P,U1,2,V_{CC}*%
%TO.N,VDD*%
X156270000Y-70600000D03*
%TO.P,U1,3*%
%TO.N,N/C*%
X153730000Y-73140000D03*
%TO.P,U1,4,D0*%
%TO.N,/Display_SSD1322/D0*%
X156270000Y-73140000D03*
%TO.P,U1,5,D1*%
%TO.N,/Display_SSD1322/D1*%
X153730000Y-75680000D03*
%TO.P,U1,6,D2*%
%TO.N,/Display_SSD1322/D2*%
X156270000Y-75680000D03*
%TO.P,U1,7,D3*%
%TO.N,/Display_SSD1322/D3*%
X153730000Y-78220000D03*
%TO.P,U1,8,D4*%
%TO.N,/Display_SSD1322/D4*%
X156270000Y-78220000D03*
%TO.P,U1,9,D5*%
%TO.N,/Display_SSD1322/D5*%
X153730000Y-80760000D03*
%TO.P,U1,10,D6*%
%TO.N,/Display_SSD1322/D6*%
X156270000Y-80760000D03*
%TO.P,U1,11,D7*%
%TO.N,/Display_SSD1322/D7*%
X153730000Y-83300000D03*
%TO.P,U1,12,E/~{RD}*%
%TO.N,/Display_SSD1322/E{slash}~{RD}*%
X156270000Y-83300000D03*
%TO.P,U1,13,R/~{W}*%
%TO.N,/Display_SSD1322/R{slash}~{W}*%
X153730000Y-85840000D03*
%TO.P,U1,14,D/~{C}*%
%TO.N,/Display_SSD1322/D{slash}~{C}*%
X156270000Y-85840000D03*
%TO.P,U1,15,~{RES}*%
%TO.N,/Display_SSD1322/~{RES}*%
X153730000Y-88380000D03*
%TO.P,U1,16,~{CS}*%
%TO.N,GND*%
X156270000Y-88380000D03*
%TD*%
D21*
%TO.P,U5,M,M*%
%TO.N,GND*%
X64250000Y-94350000D03*
D22*
X69250000Y-65000000D03*
X69250000Y-94350000D03*
X107250000Y-94350000D03*
X145250000Y-65000000D03*
X145250000Y-94350000D03*
D21*
X150250000Y-65000000D03*
%TD*%
D23*
%TO.P,D1,1,VSS*%
%TO.N,GND*%
X94800000Y-112150000D03*
%TO.P,D1,2,DIN*%
%TO.N,Net-(D1-DIN)*%
X94800000Y-108850000D03*
%TO.P,D1,3,DOUT*%
%TO.N,Net-(D1-DOUT)*%
X99700000Y-112150000D03*
%TO.P,D1,4,VDD*%
%TO.N,+5V*%
X99700000Y-108850000D03*
%TD*%
D16*
%TO.P,H2,1,1*%
%TO.N,GND*%
X146750001Y-188700001D03*
X146750000Y-196300000D03*
%TD*%
%TO.P,H5,1,1*%
%TO.N,GND*%
X116250001Y-149950001D03*
X116250000Y-157550000D03*
%TD*%
D17*
%TO.P,D4,1,VSS*%
%TO.N,GND*%
X149200000Y-190850000D03*
%TO.P,D4,2,DIN*%
%TO.N,Net-(D3-DOUT)*%
X149200000Y-194150000D03*
%TO.P,D4,3,DOUT*%
%TO.N,Net-(D4-DOUT)*%
X144300000Y-190850000D03*
%TO.P,D4,4,VDD*%
%TO.N,+5V*%
X144300000Y-194150000D03*
%TD*%
D23*
%TO.P,D3,1,VSS*%
%TO.N,GND*%
X113800000Y-155400000D03*
%TO.P,D3,2,DIN*%
%TO.N,Net-(D2-DOUT)*%
X113800000Y-152100000D03*
%TO.P,D3,3,DOUT*%
%TO.N,Net-(D3-DOUT)*%
X118700000Y-155400000D03*
%TO.P,D3,4,VDD*%
%TO.N,+5V*%
X118700000Y-152100000D03*
%TD*%
D16*
%TO.P,H1,1,1*%
%TO.N,GND*%
X118750001Y-106700001D03*
X118750000Y-114300000D03*
%TD*%
D23*
%TO.P,D2,1,VSS*%
%TO.N,GND*%
X116300000Y-112150000D03*
%TO.P,D2,2,DIN*%
%TO.N,Net-(D1-DOUT)*%
X116300000Y-108850000D03*
%TO.P,D2,3,DOUT*%
%TO.N,Net-(D2-DOUT)*%
X121200000Y-112150000D03*
%TO.P,D2,4,VDD*%
%TO.N,+5V*%
X121200000Y-108850000D03*
%TD*%
D16*
%TO.P,H3,1,1*%
%TO.N,GND*%
X67750001Y-188700001D03*
X67750000Y-196300000D03*
%TD*%
D24*
%TO.N,GND*%
X77000000Y-117500000D03*
X155000000Y-122500000D03*
X112000000Y-147500000D03*
X77000000Y-197500000D03*
D25*
X118750000Y-110500000D03*
D24*
X127000000Y-142500000D03*
X117000000Y-127500000D03*
X142000000Y-182500000D03*
X97000000Y-127500000D03*
X77000000Y-182500000D03*
X127000000Y-102500000D03*
X107000000Y-157500000D03*
X122000000Y-157500000D03*
X102000000Y-202500000D03*
X59000000Y-132500000D03*
X157000000Y-97500000D03*
X77000000Y-107500000D03*
X117000000Y-67500000D03*
X127000000Y-172500000D03*
X62000000Y-147500000D03*
X127000000Y-87500000D03*
X107000000Y-197500000D03*
X107000000Y-177500000D03*
X82000000Y-187500000D03*
X127000000Y-67500000D03*
X92000000Y-77500000D03*
X112000000Y-187500000D03*
X127000000Y-107500000D03*
X132000000Y-157500000D03*
X77000000Y-77500000D03*
X102000000Y-67500000D03*
X127000000Y-152500000D03*
X59000000Y-142500000D03*
X147000000Y-122500000D03*
X137000000Y-172500000D03*
X72000000Y-167500000D03*
D25*
X67750000Y-192500000D03*
D24*
X59000000Y-147500000D03*
X152000000Y-147500000D03*
X155000000Y-132500000D03*
X72000000Y-182500000D03*
X87000000Y-127500000D03*
X137000000Y-137500000D03*
X82000000Y-192500000D03*
X132000000Y-72500000D03*
X137000000Y-187500000D03*
X127000000Y-122500000D03*
X142000000Y-187500000D03*
X112000000Y-97500000D03*
X107000000Y-182500000D03*
X82000000Y-202500000D03*
X102000000Y-152500000D03*
X122000000Y-132500000D03*
X92000000Y-122500000D03*
X67000000Y-177500000D03*
X117000000Y-132500000D03*
X72000000Y-102500000D03*
X97000000Y-137500000D03*
X117000000Y-92500000D03*
X152000000Y-117500000D03*
X132000000Y-112500000D03*
X127000000Y-147500000D03*
X142000000Y-117500000D03*
X117000000Y-202500000D03*
X66780000Y-172490000D03*
X97000000Y-122500000D03*
X107000000Y-127500000D03*
X112000000Y-202500000D03*
X87000000Y-102500000D03*
X122000000Y-197500000D03*
X67000000Y-102500000D03*
X127000000Y-137500000D03*
X147000000Y-72500000D03*
X107000000Y-122500000D03*
X132000000Y-67500000D03*
X137000000Y-192500000D03*
X142000000Y-167500000D03*
X77000000Y-97500000D03*
X112000000Y-162500000D03*
X107000000Y-97500000D03*
X72000000Y-172500000D03*
X107000000Y-167500000D03*
X59000000Y-162500000D03*
X142000000Y-157500000D03*
X132000000Y-172500000D03*
X122000000Y-72500000D03*
X132000000Y-182500000D03*
X147000000Y-177500000D03*
X67000000Y-182500000D03*
X122000000Y-87500000D03*
X82000000Y-77500000D03*
X132000000Y-117500000D03*
X97000000Y-97500000D03*
X97000000Y-102500000D03*
X117000000Y-187500000D03*
X155020937Y-142520937D03*
X67000000Y-112500000D03*
X155000000Y-137500000D03*
X77000000Y-202500000D03*
X152000000Y-97500000D03*
X102000000Y-132500000D03*
X117000000Y-142500000D03*
X107000000Y-202500000D03*
X102000000Y-177500000D03*
X77000000Y-67500000D03*
X112000000Y-127500000D03*
X137000000Y-122500000D03*
X117000000Y-72500000D03*
X77000000Y-187500000D03*
X72000000Y-77500000D03*
X142000000Y-102500000D03*
X117000000Y-87500000D03*
X97000000Y-187500000D03*
X147000000Y-172500000D03*
X57000000Y-192500000D03*
X107000000Y-152500000D03*
X59000000Y-152500000D03*
X102000000Y-182500000D03*
X97000000Y-92500000D03*
X102000000Y-172500000D03*
X87000000Y-182500000D03*
X132000000Y-152500000D03*
X62000000Y-162500000D03*
D25*
X97250000Y-110500000D03*
D24*
X152000000Y-142500000D03*
X147000000Y-142500000D03*
X77000000Y-122500000D03*
X62000000Y-152500000D03*
X142000000Y-137500000D03*
X152000000Y-187500000D03*
X142000000Y-122500000D03*
X72000000Y-97500000D03*
X107000000Y-172500000D03*
X127000000Y-167500000D03*
X132000000Y-95000000D03*
X87000000Y-77500000D03*
X87000000Y-187500000D03*
X142000000Y-162500000D03*
X147000000Y-162500000D03*
X112000000Y-152500000D03*
X82000000Y-112500000D03*
D25*
X116250000Y-153750000D03*
D24*
X82000000Y-117500000D03*
X147000000Y-137500000D03*
X127000000Y-182500000D03*
X82000000Y-102500000D03*
X122000000Y-67500000D03*
X82000000Y-107500000D03*
X87000000Y-67500000D03*
X137000000Y-152500000D03*
X62000000Y-157500000D03*
X77000000Y-102500000D03*
X155000000Y-147500000D03*
X72000000Y-117500000D03*
X142000000Y-177500000D03*
X72000000Y-112500000D03*
X137000000Y-142500000D03*
X122000000Y-137500000D03*
X102000000Y-187500000D03*
X92000000Y-202500000D03*
X102000000Y-142500000D03*
X77000000Y-92500000D03*
X122000000Y-142500000D03*
X152000000Y-137500000D03*
X82000000Y-67500000D03*
X97000000Y-67500000D03*
X127000000Y-177500000D03*
X97000000Y-142500000D03*
X92000000Y-197500000D03*
X67000000Y-107500000D03*
X132000000Y-167500000D03*
X67000000Y-202500000D03*
X147000000Y-167500000D03*
X82000000Y-182500000D03*
X157000000Y-107500000D03*
X82000000Y-197500000D03*
X62000000Y-175000000D03*
X97000000Y-117500000D03*
X137000000Y-112500000D03*
X137000000Y-72500000D03*
X82000000Y-122500000D03*
X132000000Y-197500000D03*
X142000000Y-85000000D03*
X122000000Y-202500000D03*
X67000000Y-167500000D03*
X112000000Y-157500000D03*
X102000000Y-137500000D03*
X127000000Y-202500000D03*
X154500000Y-175000000D03*
X155000000Y-127500000D03*
X97000000Y-132500000D03*
X92000000Y-117500000D03*
X97000000Y-87500000D03*
X87000000Y-117500000D03*
X132000000Y-187500000D03*
X127000000Y-187500000D03*
X102000000Y-162500000D03*
X87000000Y-122500000D03*
X117000000Y-167500000D03*
X142000000Y-112500000D03*
X107000000Y-67500000D03*
X67000000Y-87500000D03*
X117000000Y-147500000D03*
X137000000Y-90000000D03*
X137000000Y-197500000D03*
X117000000Y-102500000D03*
X112000000Y-67500000D03*
X67000000Y-77500000D03*
X127000000Y-72500000D03*
X117000000Y-182500000D03*
X137000000Y-157500000D03*
X59500000Y-175000000D03*
X142000000Y-72500000D03*
X62000000Y-187500000D03*
X72000000Y-202500000D03*
X92000000Y-92500000D03*
X77000000Y-192500000D03*
X59000000Y-127500000D03*
X147000000Y-97500000D03*
X137000000Y-202500000D03*
X122000000Y-147500000D03*
X122000000Y-122500000D03*
X62000000Y-142500000D03*
X107000000Y-137500000D03*
X87000000Y-202500000D03*
X82000000Y-97500000D03*
X132000000Y-192500000D03*
X127000000Y-157500000D03*
X59000000Y-137500000D03*
X122000000Y-172500000D03*
X117000000Y-97500000D03*
X132000000Y-122500000D03*
X62000000Y-137500000D03*
X147000000Y-112500000D03*
X152000000Y-122500000D03*
X152000000Y-127500000D03*
X102000000Y-157500000D03*
X152000000Y-175000000D03*
X137000000Y-102500000D03*
X87000000Y-82500000D03*
X122000000Y-127500000D03*
X137000000Y-182500000D03*
X142000000Y-202500000D03*
X137000000Y-167500000D03*
X127000000Y-117500000D03*
X147000000Y-102500000D03*
X157000000Y-192500000D03*
X142000000Y-142500000D03*
X97000000Y-202500000D03*
X67000000Y-82500000D03*
X122000000Y-177500000D03*
X92000000Y-102500000D03*
X122000000Y-182500000D03*
X92000000Y-182500000D03*
X92000000Y-127500000D03*
X137000000Y-117500000D03*
X72000000Y-177500000D03*
X72000000Y-107500000D03*
X57000000Y-107500000D03*
X155000000Y-117500000D03*
X152000000Y-132500000D03*
D25*
X146750000Y-192500000D03*
D24*
X112000000Y-182500000D03*
X87000000Y-87500000D03*
X82000000Y-127500000D03*
X142000000Y-152500000D03*
X122000000Y-167500000D03*
X72000000Y-87500000D03*
X97000000Y-182500000D03*
X132000000Y-137500000D03*
X102000000Y-167500000D03*
X87000000Y-107500000D03*
X102000000Y-127500000D03*
X112000000Y-92500000D03*
X92000000Y-97500000D03*
X77000000Y-112500000D03*
X59000000Y-157500000D03*
X102000000Y-147500000D03*
X147000000Y-117500000D03*
X92000000Y-67500000D03*
X107000000Y-147500000D03*
X107000000Y-162500000D03*
X137000000Y-67500000D03*
X152000000Y-192500000D03*
X142000000Y-172500000D03*
X132000000Y-202500000D03*
X122000000Y-102500000D03*
X117000000Y-162500000D03*
X152000000Y-162500000D03*
X102000000Y-122500000D03*
X147000000Y-202500000D03*
X132000000Y-142500000D03*
X72000000Y-187500000D03*
%TO.N,VDD*%
X60400000Y-116500000D03*
%TO.N,Net-(D1-DIN)*%
X92000000Y-108850000D03*
%TO.N,Net-(J2-Pin_1)*%
X109500000Y-104025000D03*
X67750000Y-115500000D03*
D26*
%TO.N,+5V*%
X148500000Y-110500000D03*
D25*
X120500000Y-152100000D03*
X142500000Y-194150000D03*
X63500000Y-194150000D03*
X64500000Y-104500000D03*
X62245000Y-135000000D03*
X123000000Y-108850000D03*
X89000000Y-195000000D03*
X119000000Y-195000000D03*
X104000000Y-195000000D03*
X101500000Y-108850000D03*
D24*
%TO.N,/Display_SSD1322/E{slash}~{RD}*%
X110500000Y-72750000D03*
X149000000Y-73500000D03*
%TO.N,/Display_SSD1322/D4*%
X105500000Y-73000000D03*
%TO.N,/Display_SSD1322/~{RES}*%
X107250000Y-107250000D03*
%TO.N,/Display_SSD1322/D2*%
X107500000Y-72500000D03*
%TO.N,/Display_SSD1322/D3*%
X106500000Y-73750000D03*
%TO.N,/Display_SSD1322/D{slash}~{C}*%
X107500000Y-100500000D03*
%TO.N,/Display_SSD1322/D7*%
X102500000Y-74750000D03*
%TO.N,/Display_SSD1322/R{slash}~{W}*%
X98500000Y-101500000D03*
%TO.N,/Display_SSD1322/D0*%
X109500000Y-72000000D03*
%TO.N,/Display_SSD1322/D5*%
X104500000Y-74250000D03*
%TO.N,/Display_SSD1322/D6*%
X103500000Y-73500000D03*
%TO.N,/Display_SSD1322/D1*%
X108500000Y-73250000D03*
%TO.N,Net-(D6-K)*%
X122000000Y-84500000D03*
X96750000Y-84500000D03*
%TO.N,Net-(U5-BS0)*%
X107000000Y-86500000D03*
X123250000Y-97000000D03*
%TO.N,Net-(U5-BS1)*%
X125750000Y-97000000D03*
X108000000Y-85500000D03*
%TO.N,Net-(J10-Pin_2)*%
X108500000Y-190000000D03*
X124720000Y-169950000D03*
X123500000Y-190000000D03*
X93500000Y-190000000D03*
%TO.N,Net-(J10-Pin_1)*%
X104350000Y-148750000D03*
X120000000Y-121000000D03*
X74500000Y-115750000D03*
X108250000Y-115750000D03*
%TD*%
D27*
%TO.N,Net-(D4-DOUT)*%
X144300000Y-190850000D02*
X73500000Y-190850000D01*
X73500000Y-190850000D02*
X70150000Y-194200000D01*
%TO.N,+5V*%
X142500000Y-198150000D02*
X142500000Y-194150000D01*
D28*
X143000000Y-198150000D02*
X144400000Y-198150000D01*
X143000000Y-198150000D02*
X140100000Y-198150000D01*
X137000000Y-195050000D02*
X77000000Y-195050000D01*
X77000000Y-195050000D02*
X73500000Y-198550000D01*
X140100000Y-198150000D02*
X137000000Y-195050000D01*
X65500000Y-198550000D02*
X62325000Y-195375000D01*
X73500000Y-198550000D02*
X65500000Y-198550000D01*
D27*
%TO.N,GND*%
X66920000Y-172630000D02*
X66780000Y-172490000D01*
%TO.N,VDD*%
X109810000Y-116500000D02*
X111310000Y-118000000D01*
X60400000Y-116500000D02*
X109810000Y-116500000D01*
X111310000Y-118000000D02*
X111310000Y-118050000D01*
X111310000Y-118050000D02*
X111250000Y-118110000D01*
%TO.N,Net-(D1-DIN)*%
X94950000Y-108850000D02*
X95000000Y-108900000D01*
X92050000Y-108850000D02*
X94800000Y-108850000D01*
%TO.N,Net-(D1-DOUT)*%
X113000000Y-112150000D02*
X99700000Y-112150000D01*
X113000000Y-112150000D02*
X116250000Y-108900000D01*
%TO.N,Net-(D2-DOUT)*%
X121200000Y-133100000D02*
X113800000Y-140500000D01*
X113800000Y-140500000D02*
X113800000Y-152100000D01*
X121200000Y-112150000D02*
X121200000Y-133100000D01*
%TO.N,Net-(J2-Pin_1)*%
X79225000Y-104025000D02*
X67750000Y-115500000D01*
X109500000Y-104025000D02*
X79225000Y-104025000D01*
%TO.N,+5V*%
X116000000Y-105050000D02*
X122000000Y-105050000D01*
D28*
X149950000Y-110500000D02*
X127450000Y-110500000D01*
X62240000Y-135000000D02*
X57500000Y-135000000D01*
X148900000Y-198150000D02*
X156500000Y-190550000D01*
X154520000Y-179950000D02*
X156440000Y-179950000D01*
X154520000Y-169950000D02*
X156440000Y-169950000D01*
X123000000Y-108850000D02*
X121200000Y-108850000D01*
X62325000Y-195375000D02*
X57500000Y-190550000D01*
X57640000Y-169950000D02*
X59480000Y-169950000D01*
X57500000Y-170090000D02*
X57640000Y-169950000D01*
D27*
X156500000Y-154550000D02*
X122900000Y-154550000D01*
X62325000Y-195375000D02*
X63500000Y-194200000D01*
D28*
X57500000Y-190550000D02*
X57500000Y-180000000D01*
X127450000Y-110500000D02*
X124425000Y-107475000D01*
X63500000Y-194150000D02*
X65300000Y-194150000D01*
X57500000Y-111500000D02*
X64500000Y-104500000D01*
D27*
X156500000Y-150550000D02*
X156500000Y-154550000D01*
D28*
X156500000Y-117050000D02*
X149950000Y-110500000D01*
X142500000Y-194150000D02*
X144300000Y-194150000D01*
D27*
X101500000Y-108850000D02*
X112200000Y-108850000D01*
D28*
X156500000Y-190550000D02*
X156500000Y-117050000D01*
D27*
X112200000Y-108850000D02*
X116000000Y-105050000D01*
D28*
X57500000Y-135000000D02*
X57500000Y-111500000D01*
X62245000Y-134995000D02*
X62240000Y-135000000D01*
X120500000Y-152100000D02*
X118700000Y-152100000D01*
X156440000Y-169950000D02*
X156500000Y-170010000D01*
D27*
X122900000Y-154550000D02*
X120500000Y-152150000D01*
D28*
X59480000Y-179950000D02*
X57550000Y-179950000D01*
D27*
X123000000Y-108850000D02*
X124375000Y-107475000D01*
X122000000Y-105050000D02*
X124425000Y-107475000D01*
D28*
X99700000Y-108850000D02*
X101500000Y-108850000D01*
X57500000Y-180000000D02*
X57500000Y-135000000D01*
X156440000Y-179950000D02*
X156500000Y-180010000D01*
X144400000Y-198150000D02*
X148900000Y-198150000D01*
D27*
%TO.N,Net-(D3-DOUT)*%
X149200000Y-194150000D02*
X151000000Y-192350000D01*
X144000000Y-156550000D02*
X142850000Y-155400000D01*
X151000000Y-192350000D02*
X151000000Y-186550000D01*
X151000000Y-186550000D02*
X144000000Y-179550000D01*
X144000000Y-179550000D02*
X144000000Y-156550000D01*
X142850000Y-155400000D02*
X118700000Y-155400000D01*
%TO.N,/Display_SSD1322/E{slash}~{RD}*%
X149000000Y-73500000D02*
X111250000Y-73500000D01*
X111250000Y-73500000D02*
X110500000Y-72750000D01*
%TO.N,/Display_SSD1322/D4*%
X154940000Y-79550000D02*
X156270000Y-78220000D01*
X105500000Y-73000000D02*
X105500000Y-74050000D01*
X111000000Y-79550000D02*
X154940000Y-79550000D01*
X105500000Y-74050000D02*
X111000000Y-79550000D01*
%TO.N,/Display_SSD1322/~{RES}*%
X112550000Y-107250000D02*
X115500000Y-104300000D01*
X115500000Y-104300000D02*
X129250000Y-104300000D01*
X145170000Y-88380000D02*
X153730000Y-88380000D01*
X129250000Y-104300000D02*
X145170000Y-88380000D01*
X107250000Y-107250000D02*
X112550000Y-107250000D01*
%TO.N,/Display_SSD1322/D2*%
X107500000Y-72500000D02*
X107500000Y-73550000D01*
X111000000Y-77050000D02*
X154900000Y-77050000D01*
X107500000Y-73550000D02*
X111000000Y-77050000D01*
X154900000Y-77050000D02*
X156270000Y-75680000D01*
%TO.N,/Display_SSD1322/D3*%
X110970000Y-78220000D02*
X153730000Y-78220000D01*
X106500000Y-73750000D02*
X110970000Y-78220000D01*
%TO.N,/Display_SSD1322/D{slash}~{C}*%
X154980000Y-84550000D02*
X156270000Y-85840000D01*
X130050000Y-100500000D02*
X146000000Y-84550000D01*
X107500000Y-100500000D02*
X130050000Y-100500000D01*
X156270000Y-85840000D02*
X156270000Y-85900000D01*
X146000000Y-84550000D02*
X154980000Y-84550000D01*
%TO.N,/Display_SSD1322/D7*%
X111110000Y-83360000D02*
X153730000Y-83360000D01*
X102500000Y-74750000D02*
X111110000Y-83360000D01*
%TO.N,/Display_SSD1322/R{slash}~{W}*%
X130550000Y-101500000D02*
X146210000Y-85840000D01*
X98500000Y-101500000D02*
X130550000Y-101500000D01*
X146210000Y-85840000D02*
X153730000Y-85840000D01*
%TO.N,/Display_SSD1322/D0*%
X109500000Y-73050000D02*
X111000000Y-74550000D01*
X154860000Y-74550000D02*
X156270000Y-73140000D01*
X109500000Y-72000000D02*
X109500000Y-73050000D01*
X111000000Y-74550000D02*
X154860000Y-74550000D01*
%TO.N,/Display_SSD1322/D5*%
X111010000Y-80760000D02*
X153730000Y-80760000D01*
X104500000Y-74250000D02*
X111010000Y-80760000D01*
%TO.N,/Display_SSD1322/D6*%
X103500000Y-74550000D02*
X110950000Y-82000000D01*
X103500000Y-73500000D02*
X103500000Y-74550000D01*
X110950000Y-82000000D02*
X155030000Y-82000000D01*
X155030000Y-82000000D02*
X156270000Y-80760000D01*
%TO.N,/Display_SSD1322/D1*%
X108500000Y-73250000D02*
X110930000Y-75680000D01*
X110930000Y-75680000D02*
X153730000Y-75680000D01*
%TO.N,Net-(D6-K)*%
X122000000Y-84500000D02*
X96750000Y-84500000D01*
%TO.N,Net-(U5-BS0)*%
X107000000Y-86550000D02*
X112800000Y-86550000D01*
X112800000Y-86550000D02*
X123250000Y-97000000D01*
%TO.N,Net-(U5-BS1)*%
X124700000Y-97000000D02*
X125750000Y-97000000D01*
X108000000Y-85550000D02*
X113250000Y-85550000D01*
X113250000Y-85550000D02*
X124700000Y-97000000D01*
%TO.N,Net-(J10-Pin_2)*%
X145000000Y-171050000D02*
X145000000Y-179050000D01*
X145900000Y-179950000D02*
X151980000Y-179950000D01*
X124720000Y-169950000D02*
X124720000Y-188780000D01*
X123500000Y-190000000D02*
X73200000Y-190000000D01*
X145000000Y-179050000D02*
X145900000Y-179950000D01*
X69500000Y-171050000D02*
X69500000Y-180090000D01*
X146100000Y-169950000D02*
X145000000Y-171050000D01*
X73200000Y-190000000D02*
X69500000Y-186300000D01*
X124720000Y-188780000D02*
X123500000Y-190000000D01*
X69500000Y-186300000D02*
X69500000Y-180090000D01*
X151980000Y-169950000D02*
X146100000Y-169950000D01*
X68400000Y-169950000D02*
X69500000Y-171050000D01*
X62020000Y-169950000D02*
X68400000Y-169950000D01*
X69500000Y-179950000D02*
X62020000Y-179950000D01*
%TO.N,Net-(J10-Pin_1)*%
X116200000Y-115750000D02*
X120000000Y-119550000D01*
X120000000Y-119550000D02*
X120000000Y-133100000D01*
X108250000Y-115750000D02*
X74500000Y-115750000D01*
X120000000Y-133100000D02*
X104350000Y-148750000D01*
X108250000Y-115750000D02*
X116200000Y-115750000D01*
%TD*%
%TA.AperFunction,Conductor*%
%TO.N,GND*%
G36*
X60836420Y-180706705D02*
G01*
X60850318Y-180722745D01*
X60951752Y-180862358D01*
X60951756Y-180862363D01*
X61107638Y-181018245D01*
X61162614Y-181058186D01*
X61205280Y-181113515D01*
X61211261Y-181183128D01*
X61178656Y-181244924D01*
X61162616Y-181258822D01*
X61150894Y-181267338D01*
X61150894Y-181267340D01*
X61849766Y-181966212D01*
X61807708Y-181977482D01*
X61682292Y-182049890D01*
X61579890Y-182152292D01*
X61507482Y-182277708D01*
X61496212Y-182319766D01*
X60797340Y-181620894D01*
X60797338Y-181620894D01*
X60788822Y-181632616D01*
X60733492Y-181675282D01*
X60663879Y-181681260D01*
X60602084Y-181648654D01*
X60588186Y-181632614D01*
X60579670Y-181620893D01*
X60549434Y-181579275D01*
X60548245Y-181577638D01*
X60392363Y-181421756D01*
X60392358Y-181421752D01*
X60252745Y-181320318D01*
X60210079Y-181264989D01*
X60204100Y-181195375D01*
X60236705Y-181133580D01*
X60252745Y-181119682D01*
X60392358Y-181018247D01*
X60392356Y-181018247D01*
X60392365Y-181018242D01*
X60548242Y-180862365D01*
X60558804Y-180847826D01*
X60649682Y-180722745D01*
X60705011Y-180680079D01*
X60774625Y-180674100D01*
X60836420Y-180706705D01*
G37*
%TD.AperFunction*%
%TA.AperFunction,Conductor*%
G36*
X68198008Y-170495185D02*
G01*
X68218650Y-170511819D01*
X68938181Y-171231350D01*
X68971666Y-171292673D01*
X68974500Y-171319031D01*
X68974500Y-179300500D01*
X68954815Y-179367539D01*
X68902011Y-179413294D01*
X68850500Y-179424500D01*
X64134906Y-179424500D01*
X64079835Y-179411600D01*
X63064269Y-178908190D01*
X63012946Y-178860779D01*
X62995403Y-178793148D01*
X63017209Y-178726768D01*
X63063043Y-178686607D01*
X63158342Y-178638050D01*
X63248050Y-178548342D01*
X63305646Y-178435304D01*
X63305646Y-178435302D01*
X63305647Y-178435301D01*
X63320499Y-178341524D01*
X63320500Y-178341519D01*
X63320499Y-176478482D01*
X63305646Y-176384696D01*
X63248050Y-176271658D01*
X63248046Y-176271654D01*
X63248045Y-176271652D01*
X63158347Y-176181954D01*
X63158344Y-176181952D01*
X63158342Y-176181950D01*
X63081517Y-176142805D01*
X63045301Y-176124352D01*
X62951524Y-176109500D01*
X61088482Y-176109500D01*
X61007519Y-176122323D01*
X60994696Y-176124354D01*
X60881658Y-176181950D01*
X60881657Y-176181951D01*
X60881652Y-176181954D01*
X60791954Y-176271652D01*
X60791951Y-176271657D01*
X60791950Y-176271658D01*
X60734354Y-176384696D01*
X60734353Y-176384698D01*
X60731534Y-176402494D01*
X60701602Y-176465628D01*
X60642289Y-176502557D01*
X60572426Y-176501557D01*
X60521380Y-176470773D01*
X60392363Y-176341756D01*
X60392358Y-176341752D01*
X60214025Y-176212187D01*
X60214024Y-176212186D01*
X60214022Y-176212185D01*
X60151096Y-176180122D01*
X60017606Y-176112104D01*
X60017603Y-176112103D01*
X59807952Y-176043985D01*
X59699086Y-176026742D01*
X59590222Y-176009500D01*
X59369778Y-176009500D01*
X59304134Y-176019897D01*
X59152047Y-176043985D01*
X58942396Y-176112103D01*
X58942393Y-176112104D01*
X58745978Y-176212184D01*
X58597385Y-176320143D01*
X58531578Y-176343622D01*
X58463524Y-176327796D01*
X58414830Y-176277690D01*
X58400500Y-176219824D01*
X58400500Y-173680175D01*
X58420185Y-173613136D01*
X58472989Y-173567381D01*
X58542147Y-173557437D01*
X58597385Y-173579857D01*
X58664120Y-173628342D01*
X58745978Y-173687815D01*
X58874375Y-173753237D01*
X58942393Y-173787895D01*
X58942396Y-173787896D01*
X59047221Y-173821955D01*
X59152049Y-173856015D01*
X59369778Y-173890500D01*
X59369779Y-173890500D01*
X59590221Y-173890500D01*
X59590222Y-173890500D01*
X59807951Y-173856015D01*
X60017606Y-173787895D01*
X60214022Y-173687815D01*
X60304185Y-173622308D01*
X60382953Y-173565081D01*
X60382954Y-173565080D01*
X60392361Y-173558245D01*
X60392361Y-173558244D01*
X60392365Y-173558242D01*
X60548242Y-173402365D01*
X60588188Y-173347383D01*
X60643514Y-173304719D01*
X60713127Y-173298738D01*
X60774923Y-173331343D01*
X60788823Y-173347384D01*
X60797338Y-173359104D01*
X60797340Y-173359105D01*
X61496212Y-172660233D01*
X61507482Y-172702292D01*
X61579890Y-172827708D01*
X61682292Y-172930110D01*
X61807708Y-173002518D01*
X61849765Y-173013787D01*
X61150893Y-173712658D01*
X61233828Y-173772914D01*
X61444197Y-173880102D01*
X61668752Y-173953065D01*
X61668751Y-173953065D01*
X61901948Y-173990000D01*
X62138052Y-173990000D01*
X62371247Y-173953065D01*
X62595802Y-173880102D01*
X62806163Y-173772918D01*
X62806169Y-173772914D01*
X62889104Y-173712658D01*
X62889105Y-173712658D01*
X62190233Y-173013787D01*
X62232292Y-173002518D01*
X62357708Y-172930110D01*
X62460110Y-172827708D01*
X62532518Y-172702292D01*
X62543787Y-172660234D01*
X63242658Y-173359105D01*
X63242658Y-173359104D01*
X63302914Y-173276169D01*
X63302918Y-173276163D01*
X63410102Y-173065802D01*
X63483065Y-172841247D01*
X63520000Y-172608052D01*
X63520000Y-172371947D01*
X63483065Y-172138752D01*
X63410102Y-171914197D01*
X63302914Y-171703828D01*
X63242658Y-171620894D01*
X63242658Y-171620893D01*
X62543787Y-172319765D01*
X62532518Y-172277708D01*
X62460110Y-172152292D01*
X62357708Y-172049890D01*
X62232292Y-171977482D01*
X62190234Y-171966212D01*
X62889105Y-171267340D01*
X62888537Y-171260124D01*
X62857799Y-171220264D01*
X62851819Y-171150651D01*
X62884425Y-171088856D01*
X62918279Y-171064175D01*
X63039316Y-171004178D01*
X63705206Y-170674100D01*
X64079833Y-170488400D01*
X64134904Y-170475500D01*
X68130969Y-170475500D01*
X68198008Y-170495185D01*
G37*
%TD.AperFunction*%
%TA.AperFunction,Conductor*%
G36*
X149920166Y-170488400D02*
G01*
X150935732Y-170991810D01*
X150987054Y-171039220D01*
X151004597Y-171106851D01*
X150982791Y-171173231D01*
X150936956Y-171213392D01*
X150841658Y-171261950D01*
X150841657Y-171261951D01*
X150841652Y-171261954D01*
X150751954Y-171351652D01*
X150751951Y-171351657D01*
X150694352Y-171464698D01*
X150679500Y-171558475D01*
X150679500Y-173421517D01*
X150690292Y-173489657D01*
X150694354Y-173515304D01*
X150751950Y-173628342D01*
X150751952Y-173628344D01*
X150751954Y-173628347D01*
X150841652Y-173718045D01*
X150841654Y-173718046D01*
X150841658Y-173718050D01*
X150949334Y-173772914D01*
X150954698Y-173775647D01*
X151048475Y-173790499D01*
X151048481Y-173790500D01*
X152911518Y-173790499D01*
X153005304Y-173775646D01*
X153118342Y-173718050D01*
X153208050Y-173628342D01*
X153265646Y-173515304D01*
X153265646Y-173515302D01*
X153265647Y-173515301D01*
X153265647Y-173515300D01*
X153268465Y-173497510D01*
X153298394Y-173434375D01*
X153357705Y-173397443D01*
X153427568Y-173398441D01*
X153478619Y-173429226D01*
X153607636Y-173558243D01*
X153607641Y-173558247D01*
X153763192Y-173671260D01*
X153785978Y-173687815D01*
X153914375Y-173753237D01*
X153982393Y-173787895D01*
X153982396Y-173787896D01*
X154087221Y-173821955D01*
X154192049Y-173856015D01*
X154409778Y-173890500D01*
X154409779Y-173890500D01*
X154630221Y-173890500D01*
X154630222Y-173890500D01*
X154847951Y-173856015D01*
X155057606Y-173787895D01*
X155254022Y-173687815D01*
X155347128Y-173620169D01*
X155402615Y-173579857D01*
X155468421Y-173556377D01*
X155536475Y-173572203D01*
X155585170Y-173622308D01*
X155599500Y-173680175D01*
X155599500Y-176219824D01*
X155579815Y-176286863D01*
X155527011Y-176332618D01*
X155457853Y-176342562D01*
X155402615Y-176320143D01*
X155254021Y-176212184D01*
X155057606Y-176112104D01*
X155057603Y-176112103D01*
X154847952Y-176043985D01*
X154739086Y-176026742D01*
X154630222Y-176009500D01*
X154409778Y-176009500D01*
X154344134Y-176019897D01*
X154192047Y-176043985D01*
X153982396Y-176112103D01*
X153982393Y-176112104D01*
X153785974Y-176212187D01*
X153607641Y-176341752D01*
X153607636Y-176341756D01*
X153451756Y-176497636D01*
X153411811Y-176552616D01*
X153356480Y-176595281D01*
X153286867Y-176601260D01*
X153225072Y-176568654D01*
X153211175Y-176552615D01*
X153202659Y-176540894D01*
X153202658Y-176540893D01*
X152503787Y-177239765D01*
X152492518Y-177197708D01*
X152420110Y-177072292D01*
X152317708Y-176969890D01*
X152192292Y-176897482D01*
X152150234Y-176886212D01*
X152849105Y-176187340D01*
X152849104Y-176187338D01*
X152766174Y-176127087D01*
X152555802Y-176019897D01*
X152331247Y-175946934D01*
X152331248Y-175946934D01*
X152098052Y-175910000D01*
X151861948Y-175910000D01*
X151628752Y-175946934D01*
X151404197Y-176019897D01*
X151193830Y-176127084D01*
X151110894Y-176187340D01*
X151809766Y-176886212D01*
X151767708Y-176897482D01*
X151642292Y-176969890D01*
X151539890Y-177072292D01*
X151467482Y-177197708D01*
X151456212Y-177239765D01*
X150757340Y-176540894D01*
X150697084Y-176623830D01*
X150589897Y-176834197D01*
X150516934Y-177058752D01*
X150480000Y-177291947D01*
X150480000Y-177528052D01*
X150516934Y-177761247D01*
X150589897Y-177985802D01*
X150697087Y-178196174D01*
X150757338Y-178279104D01*
X150757340Y-178279105D01*
X151456212Y-177580233D01*
X151467482Y-177622292D01*
X151539890Y-177747708D01*
X151642292Y-177850110D01*
X151767708Y-177922518D01*
X151809765Y-177933787D01*
X151110893Y-178632658D01*
X151111461Y-178639873D01*
X151142199Y-178679735D01*
X151148178Y-178749348D01*
X151115572Y-178811143D01*
X151081720Y-178835823D01*
X150505318Y-179121542D01*
X149920163Y-179411600D01*
X149865093Y-179424500D01*
X146169031Y-179424500D01*
X146101992Y-179404815D01*
X146081350Y-179388181D01*
X145561819Y-178868650D01*
X145528334Y-178807327D01*
X145525500Y-178780969D01*
X145525500Y-171319031D01*
X145545185Y-171251992D01*
X145561819Y-171231350D01*
X146281350Y-170511819D01*
X146342673Y-170478334D01*
X146369031Y-170475500D01*
X149865095Y-170475500D01*
X149920166Y-170488400D01*
G37*
%TD.AperFunction*%
%TA.AperFunction,Conductor*%
G36*
X153202658Y-178279105D02*
G01*
X153202659Y-178279104D01*
X153211175Y-178267384D01*
X153266505Y-178224718D01*
X153336118Y-178218739D01*
X153397913Y-178251345D01*
X153411811Y-178267384D01*
X153451752Y-178322358D01*
X153451756Y-178322363D01*
X153607636Y-178478243D01*
X153607641Y-178478247D01*
X153747254Y-178579682D01*
X153789920Y-178635012D01*
X153795899Y-178704625D01*
X153763293Y-178766420D01*
X153747254Y-178780318D01*
X153607641Y-178881752D01*
X153607636Y-178881756D01*
X153451756Y-179037636D01*
X153451752Y-179037641D01*
X153350318Y-179177254D01*
X153294988Y-179219920D01*
X153225375Y-179225899D01*
X153163580Y-179193293D01*
X153149682Y-179177254D01*
X153048247Y-179037641D01*
X153048243Y-179037636D01*
X152892363Y-178881756D01*
X152892358Y-178881752D01*
X152837384Y-178841811D01*
X152794718Y-178786481D01*
X152788739Y-178716868D01*
X152821345Y-178655073D01*
X152837384Y-178641175D01*
X152849104Y-178632659D01*
X152849105Y-178632658D01*
X152150233Y-177933787D01*
X152192292Y-177922518D01*
X152317708Y-177850110D01*
X152420110Y-177747708D01*
X152492518Y-177622292D01*
X152503787Y-177580234D01*
X153202658Y-178279105D01*
G37*
%TD.AperFunction*%
%TA.AperFunction,Conductor*%
G36*
X60836420Y-170706705D02*
G01*
X60850318Y-170722745D01*
X60951752Y-170862358D01*
X60951756Y-170862363D01*
X61107638Y-171018245D01*
X61162614Y-171058186D01*
X61205280Y-171113515D01*
X61211261Y-171183128D01*
X61178656Y-171244924D01*
X61162616Y-171258822D01*
X61150894Y-171267338D01*
X61150894Y-171267340D01*
X61849766Y-171966212D01*
X61807708Y-171977482D01*
X61682292Y-172049890D01*
X61579890Y-172152292D01*
X61507482Y-172277708D01*
X61496212Y-172319766D01*
X60797340Y-171620894D01*
X60797338Y-171620894D01*
X60788822Y-171632616D01*
X60733492Y-171675282D01*
X60663879Y-171681260D01*
X60602084Y-171648654D01*
X60588186Y-171632614D01*
X60579670Y-171620893D01*
X60549434Y-171579275D01*
X60548245Y-171577638D01*
X60392363Y-171421756D01*
X60392358Y-171421752D01*
X60252745Y-171320318D01*
X60210079Y-171264989D01*
X60204100Y-171195375D01*
X60236705Y-171133580D01*
X60252745Y-171119682D01*
X60392358Y-171018247D01*
X60392356Y-171018247D01*
X60392365Y-171018242D01*
X60548242Y-170862365D01*
X60578399Y-170820857D01*
X60649682Y-170722745D01*
X60705011Y-170680079D01*
X60774625Y-170674100D01*
X60836420Y-170706705D01*
G37*
%TD.AperFunction*%
%TA.AperFunction,Conductor*%
G36*
X155542539Y-155095185D02*
G01*
X155588294Y-155147989D01*
X155599500Y-155199500D01*
X155599500Y-166219824D01*
X155579815Y-166286863D01*
X155527011Y-166332618D01*
X155457853Y-166342562D01*
X155402615Y-166320143D01*
X155254021Y-166212184D01*
X155057606Y-166112104D01*
X155057603Y-166112103D01*
X154847952Y-166043985D01*
X154739086Y-166026742D01*
X154630222Y-166009500D01*
X154409778Y-166009500D01*
X154344134Y-166019897D01*
X154192047Y-166043985D01*
X153982396Y-166112103D01*
X153982393Y-166112104D01*
X153785974Y-166212187D01*
X153607641Y-166341752D01*
X153607636Y-166341756D01*
X153451756Y-166497636D01*
X153411811Y-166552616D01*
X153356480Y-166595281D01*
X153286867Y-166601260D01*
X153225072Y-166568654D01*
X153211175Y-166552615D01*
X153202659Y-166540894D01*
X153202658Y-166540893D01*
X152503787Y-167239765D01*
X152492518Y-167197708D01*
X152420110Y-167072292D01*
X152317708Y-166969890D01*
X152192292Y-166897482D01*
X152150234Y-166886212D01*
X152849105Y-166187340D01*
X152849104Y-166187338D01*
X152766174Y-166127087D01*
X152555802Y-166019897D01*
X152331247Y-165946934D01*
X152331248Y-165946934D01*
X152098052Y-165910000D01*
X151861948Y-165910000D01*
X151628752Y-165946934D01*
X151404197Y-166019897D01*
X151193830Y-166127084D01*
X151110894Y-166187340D01*
X151809766Y-166886212D01*
X151767708Y-166897482D01*
X151642292Y-166969890D01*
X151539890Y-167072292D01*
X151467482Y-167197708D01*
X151456212Y-167239765D01*
X150757340Y-166540894D01*
X150697084Y-166623830D01*
X150589897Y-166834197D01*
X150516934Y-167058752D01*
X150480000Y-167291947D01*
X150480000Y-167528052D01*
X150516934Y-167761247D01*
X150589897Y-167985802D01*
X150697087Y-168196174D01*
X150757338Y-168279104D01*
X150757340Y-168279105D01*
X151456212Y-167580233D01*
X151467482Y-167622292D01*
X151539890Y-167747708D01*
X151642292Y-167850110D01*
X151767708Y-167922518D01*
X151809765Y-167933787D01*
X151110893Y-168632658D01*
X151111461Y-168639873D01*
X151142199Y-168679735D01*
X151148178Y-168749348D01*
X151115572Y-168811143D01*
X151081720Y-168835823D01*
X150505318Y-169121542D01*
X149920163Y-169411600D01*
X149865093Y-169424500D01*
X146176795Y-169424500D01*
X146176779Y-169424499D01*
X146169183Y-169424499D01*
X146030817Y-169424499D01*
X145925409Y-169452742D01*
X145925408Y-169452743D01*
X145897164Y-169460312D01*
X145827982Y-169500254D01*
X145777336Y-169529494D01*
X145777333Y-169529496D01*
X144737181Y-170569649D01*
X144675858Y-170603134D01*
X144606166Y-170598150D01*
X144550233Y-170556278D01*
X144525816Y-170490814D01*
X144525500Y-170481968D01*
X144525500Y-156629186D01*
X144525501Y-156629173D01*
X144525501Y-156480819D01*
X144525501Y-156480817D01*
X144489689Y-156347165D01*
X144462746Y-156300499D01*
X144420507Y-156227338D01*
X144420502Y-156227332D01*
X143995860Y-155802690D01*
X143480349Y-155287180D01*
X143446865Y-155225858D01*
X143451849Y-155156167D01*
X143493721Y-155100233D01*
X143559185Y-155075816D01*
X143568031Y-155075500D01*
X155475500Y-155075500D01*
X155542539Y-155095185D01*
G37*
%TD.AperFunction*%
%TA.AperFunction,Conductor*%
G36*
X153202658Y-168279105D02*
G01*
X153202659Y-168279104D01*
X153211175Y-168267384D01*
X153266505Y-168224718D01*
X153336118Y-168218739D01*
X153397913Y-168251345D01*
X153411811Y-168267384D01*
X153451752Y-168322358D01*
X153451756Y-168322363D01*
X153607636Y-168478243D01*
X153607641Y-168478247D01*
X153747254Y-168579682D01*
X153789920Y-168635012D01*
X153795899Y-168704625D01*
X153763293Y-168766420D01*
X153747254Y-168780318D01*
X153607641Y-168881752D01*
X153607636Y-168881756D01*
X153451756Y-169037636D01*
X153451752Y-169037641D01*
X153350318Y-169177254D01*
X153294988Y-169219920D01*
X153225375Y-169225899D01*
X153163580Y-169193293D01*
X153149682Y-169177254D01*
X153048247Y-169037641D01*
X153048243Y-169037636D01*
X152892363Y-168881756D01*
X152892358Y-168881752D01*
X152837384Y-168841811D01*
X152794718Y-168786481D01*
X152788739Y-168716868D01*
X152821345Y-168655073D01*
X152837384Y-168641175D01*
X152849104Y-168632659D01*
X152849105Y-168632658D01*
X152150233Y-167933787D01*
X152192292Y-167922518D01*
X152317708Y-167850110D01*
X152420110Y-167747708D01*
X152492518Y-167622292D01*
X152503787Y-167580234D01*
X153202658Y-168279105D01*
G37*
%TD.AperFunction*%
%TA.AperFunction,Conductor*%
G36*
X155035703Y-85710465D02*
G01*
X155070731Y-85760979D01*
X155195872Y-86097701D01*
X155200745Y-86110812D01*
X155202443Y-86115690D01*
X155250128Y-86262449D01*
X155308376Y-86376766D01*
X155328768Y-86416788D01*
X155430586Y-86556928D01*
X155553072Y-86679414D01*
X155693212Y-86781232D01*
X155847555Y-86859873D01*
X156012299Y-86913402D01*
X156012302Y-86913402D01*
X156012303Y-86913403D01*
X156111615Y-86929132D01*
X156162277Y-86937156D01*
X156225412Y-86967085D01*
X156262344Y-87026396D01*
X156261346Y-87096259D01*
X156222737Y-87154492D01*
X156162279Y-87182102D01*
X155988997Y-87209548D01*
X155809362Y-87267914D01*
X155641060Y-87353669D01*
X155615670Y-87372116D01*
X155615669Y-87372116D01*
X156223554Y-87980000D01*
X156217339Y-87980000D01*
X156115606Y-88007259D01*
X156024394Y-88059920D01*
X155949920Y-88134394D01*
X155897259Y-88225606D01*
X155870000Y-88327339D01*
X155870000Y-88333553D01*
X155262116Y-87725669D01*
X155262116Y-87725670D01*
X155243669Y-87751060D01*
X155157914Y-87919362D01*
X155099548Y-88098997D01*
X155072102Y-88272279D01*
X155042172Y-88335413D01*
X154982861Y-88372344D01*
X154912998Y-88371346D01*
X154854766Y-88332736D01*
X154827156Y-88272277D01*
X154803403Y-88122303D01*
X154803402Y-88122302D01*
X154803402Y-88122299D01*
X154749873Y-87957555D01*
X154671232Y-87803212D01*
X154569414Y-87663072D01*
X154446928Y-87540586D01*
X154306788Y-87438768D01*
X154152445Y-87360127D01*
X153987701Y-87306598D01*
X153987699Y-87306597D01*
X153987698Y-87306597D01*
X153856271Y-87285781D01*
X153816611Y-87279500D01*
X153643389Y-87279500D01*
X153603728Y-87285781D01*
X153472302Y-87306597D01*
X153307557Y-87360126D01*
X153307551Y-87360128D01*
X153170087Y-87430168D01*
X153165438Y-87432416D01*
X152268665Y-87843234D01*
X152217021Y-87854500D01*
X145246781Y-87854500D01*
X145239183Y-87854499D01*
X145238018Y-87854499D01*
X145234038Y-87853330D01*
X145231415Y-87853542D01*
X145231407Y-87853541D01*
X145231525Y-87852591D01*
X145201696Y-87843829D01*
X145170993Y-87834814D01*
X145170988Y-87834809D01*
X145170981Y-87834807D01*
X145144705Y-87804476D01*
X145125238Y-87782010D01*
X145125237Y-87782003D01*
X145125232Y-87781998D01*
X145119568Y-87742576D01*
X145115294Y-87712852D01*
X145115297Y-87712845D01*
X145115296Y-87712838D01*
X145130561Y-87679422D01*
X145144319Y-87649296D01*
X145150351Y-87642818D01*
X146391350Y-86401819D01*
X146452673Y-86368334D01*
X146479031Y-86365500D01*
X152217024Y-86365500D01*
X152268667Y-86376765D01*
X153163165Y-86786540D01*
X153163166Y-86786540D01*
X153165425Y-86787575D01*
X153170076Y-86789824D01*
X153307555Y-86859873D01*
X153472299Y-86913402D01*
X153643389Y-86940500D01*
X153643390Y-86940500D01*
X153816610Y-86940500D01*
X153816611Y-86940500D01*
X153987701Y-86913402D01*
X154152445Y-86859873D01*
X154306788Y-86781232D01*
X154446928Y-86679414D01*
X154569414Y-86556928D01*
X154671232Y-86416788D01*
X154749873Y-86262445D01*
X154803402Y-86097701D01*
X154830500Y-85926611D01*
X154830500Y-85804178D01*
X154850185Y-85737139D01*
X154902989Y-85691384D01*
X154972147Y-85681440D01*
X155035703Y-85710465D01*
G37*
%TD.AperFunction*%
%TA.AperFunction,Conductor*%
G36*
X157504043Y-60250765D02*
G01*
X157726790Y-60265364D01*
X157742848Y-60267479D01*
X157928875Y-60304482D01*
X157957771Y-60310230D01*
X157973438Y-60314428D01*
X158126569Y-60366409D01*
X158180944Y-60384867D01*
X158195921Y-60391070D01*
X158386791Y-60485196D01*
X158392460Y-60487992D01*
X158406508Y-60496102D01*
X158588712Y-60617848D01*
X158601573Y-60627716D01*
X158706495Y-60719730D01*
X158766328Y-60772202D01*
X158777797Y-60783671D01*
X158888160Y-60909517D01*
X158922280Y-60948423D01*
X158932154Y-60961291D01*
X159053897Y-61143492D01*
X159062007Y-61157539D01*
X159158926Y-61354071D01*
X159165133Y-61369057D01*
X159235571Y-61576561D01*
X159239769Y-61592228D01*
X159282518Y-61807140D01*
X159284636Y-61823221D01*
X159299235Y-62045956D01*
X159299500Y-62054066D01*
X159299500Y-203045933D01*
X159299235Y-203054043D01*
X159284636Y-203276778D01*
X159282518Y-203292859D01*
X159239769Y-203507771D01*
X159235571Y-203523438D01*
X159165133Y-203730942D01*
X159158926Y-203745928D01*
X159062007Y-203942460D01*
X159053897Y-203956507D01*
X158932154Y-204138708D01*
X158922280Y-204151576D01*
X158777797Y-204316328D01*
X158766328Y-204327797D01*
X158601576Y-204472280D01*
X158588708Y-204482154D01*
X158406507Y-204603897D01*
X158392460Y-204612007D01*
X158195928Y-204708926D01*
X158180942Y-204715133D01*
X157973438Y-204785571D01*
X157957771Y-204789769D01*
X157742859Y-204832518D01*
X157726778Y-204834636D01*
X157504043Y-204849235D01*
X157495933Y-204849500D01*
X56504067Y-204849500D01*
X56495957Y-204849235D01*
X56273221Y-204834636D01*
X56257140Y-204832518D01*
X56042228Y-204789769D01*
X56026561Y-204785571D01*
X55819057Y-204715133D01*
X55804071Y-204708926D01*
X55607539Y-204612007D01*
X55593492Y-204603897D01*
X55411291Y-204482154D01*
X55398423Y-204472280D01*
X55233671Y-204327797D01*
X55222202Y-204316328D01*
X55169730Y-204256495D01*
X55077716Y-204151573D01*
X55067845Y-204138708D01*
X54946102Y-203956507D01*
X54937992Y-203942460D01*
X54935196Y-203936791D01*
X54841070Y-203745921D01*
X54834866Y-203730942D01*
X54764428Y-203523438D01*
X54760230Y-203507771D01*
X54748217Y-203447376D01*
X54717479Y-203292848D01*
X54715364Y-203276790D01*
X54700765Y-203054043D01*
X54700500Y-203045933D01*
X54700500Y-111411308D01*
X56599500Y-111411308D01*
X56599500Y-190638696D01*
X56634103Y-190812658D01*
X56634105Y-190812665D01*
X56634105Y-190812666D01*
X56668046Y-190894606D01*
X56701987Y-190976547D01*
X56737280Y-191029366D01*
X56741147Y-191035153D01*
X56800537Y-191124038D01*
X56800538Y-191124039D01*
X61621195Y-195944694D01*
X61621216Y-195944717D01*
X64925964Y-199249464D01*
X64925966Y-199249466D01*
X64960326Y-199272423D01*
X64985040Y-199288936D01*
X65073453Y-199348013D01*
X65155393Y-199381953D01*
X65161480Y-199384474D01*
X65161485Y-199384477D01*
X65197940Y-199399577D01*
X65237334Y-199415895D01*
X65411303Y-199450499D01*
X65411307Y-199450500D01*
X65411308Y-199450500D01*
X73588693Y-199450500D01*
X73588694Y-199450499D01*
X73762666Y-199415895D01*
X73844606Y-199381953D01*
X73926547Y-199348013D01*
X74014959Y-199288936D01*
X74074036Y-199249464D01*
X77336680Y-195986818D01*
X77398003Y-195953334D01*
X77424361Y-195950500D01*
X136575638Y-195950500D01*
X136642677Y-195970185D01*
X136663319Y-195986819D01*
X139525966Y-198849466D01*
X139554325Y-198868414D01*
X139585040Y-198888936D01*
X139673453Y-198948013D01*
X139742341Y-198976547D01*
X139837334Y-199015895D01*
X140011303Y-199050499D01*
X140011307Y-199050500D01*
X140011308Y-199050500D01*
X148988693Y-199050500D01*
X148988694Y-199050499D01*
X149162666Y-199015895D01*
X149257659Y-198976547D01*
X149326547Y-198948013D01*
X149414959Y-198888936D01*
X149474036Y-198849464D01*
X157199464Y-191124036D01*
X157262720Y-191029366D01*
X157298013Y-190976547D01*
X157331953Y-190894606D01*
X157365895Y-190812666D01*
X157400500Y-190638692D01*
X157400500Y-190461308D01*
X157400500Y-116961309D01*
X157400500Y-116961307D01*
X157396033Y-116938848D01*
X157396033Y-116938847D01*
X157372781Y-116821954D01*
X157365895Y-116787334D01*
X157298013Y-116623454D01*
X157298013Y-116623453D01*
X157248738Y-116549709D01*
X157247718Y-116548183D01*
X157247709Y-116548168D01*
X157199462Y-116475961D01*
X150524038Y-109800537D01*
X150501608Y-109785550D01*
X150442861Y-109746297D01*
X150376547Y-109701987D01*
X150280084Y-109662031D01*
X150275122Y-109659975D01*
X150275119Y-109659974D01*
X150212666Y-109634105D01*
X150212658Y-109634103D01*
X150038696Y-109599500D01*
X150038692Y-109599500D01*
X150038691Y-109599500D01*
X127874362Y-109599500D01*
X127807323Y-109579815D01*
X127786681Y-109563181D01*
X124999041Y-106775540D01*
X124999034Y-106775534D01*
X124851548Y-106676988D01*
X124687666Y-106609105D01*
X124687658Y-106609103D01*
X124513696Y-106574500D01*
X124513692Y-106574500D01*
X124336308Y-106574500D01*
X124336301Y-106574500D01*
X124332175Y-106574906D01*
X124263530Y-106561880D01*
X124232352Y-106539183D01*
X122730350Y-105037181D01*
X122696865Y-104975858D01*
X122701849Y-104906166D01*
X122743721Y-104850233D01*
X122809185Y-104825816D01*
X122818031Y-104825500D01*
X129173205Y-104825500D01*
X129173221Y-104825501D01*
X129180817Y-104825501D01*
X129319181Y-104825501D01*
X129319183Y-104825501D01*
X129389455Y-104806671D01*
X129424592Y-104797256D01*
X129424593Y-104797255D01*
X129452836Y-104789688D01*
X129572665Y-104720505D01*
X129670505Y-104622665D01*
X129670505Y-104622663D01*
X129680709Y-104612460D01*
X129680712Y-104612455D01*
X140947390Y-93345778D01*
X152799500Y-93345778D01*
X152799500Y-93634221D01*
X152799501Y-93634238D01*
X152837149Y-93920206D01*
X152837150Y-93920211D01*
X152837151Y-93920217D01*
X152850549Y-93970219D01*
X152911809Y-94198844D01*
X152911814Y-94198860D01*
X153022191Y-94465336D01*
X153022199Y-94465352D01*
X153166420Y-94715148D01*
X153166431Y-94715164D01*
X153342024Y-94944002D01*
X153342030Y-94944009D01*
X153545990Y-95147969D01*
X153545997Y-95147975D01*
X153708953Y-95273015D01*
X153774844Y-95323575D01*
X153774851Y-95323579D01*
X154024647Y-95467800D01*
X154024663Y-95467808D01*
X154291139Y-95578185D01*
X154291145Y-95578186D01*
X154291155Y-95578191D01*
X154569783Y-95652849D01*
X154855772Y-95690500D01*
X154855779Y-95690500D01*
X155144221Y-95690500D01*
X155144228Y-95690500D01*
X155430217Y-95652849D01*
X155708845Y-95578191D01*
X155708857Y-95578185D01*
X155708860Y-95578185D01*
X155975336Y-95467808D01*
X155975339Y-95467806D01*
X155975345Y-95467804D01*
X156225156Y-95323575D01*
X156454004Y-95147974D01*
X156657974Y-94944004D01*
X156833575Y-94715156D01*
X156977804Y-94465345D01*
X157067475Y-94248860D01*
X157088185Y-94198860D01*
X157088185Y-94198857D01*
X157088191Y-94198845D01*
X157162849Y-93920217D01*
X157200500Y-93634228D01*
X157200500Y-93345772D01*
X157162849Y-93059783D01*
X157088191Y-92781155D01*
X157088186Y-92781145D01*
X157088185Y-92781139D01*
X156977808Y-92514663D01*
X156977800Y-92514647D01*
X156833579Y-92264851D01*
X156833575Y-92264844D01*
X156657974Y-92035996D01*
X156657969Y-92035990D01*
X156454009Y-91832030D01*
X156454002Y-91832024D01*
X156225164Y-91656431D01*
X156225162Y-91656429D01*
X156225156Y-91656425D01*
X156225151Y-91656422D01*
X156225148Y-91656420D01*
X155975352Y-91512199D01*
X155975336Y-91512191D01*
X155708860Y-91401814D01*
X155708848Y-91401810D01*
X155708845Y-91401809D01*
X155430217Y-91327151D01*
X155430211Y-91327150D01*
X155430206Y-91327149D01*
X155144238Y-91289501D01*
X155144233Y-91289500D01*
X155144228Y-91289500D01*
X154855772Y-91289500D01*
X154855766Y-91289500D01*
X154855761Y-91289501D01*
X154569793Y-91327149D01*
X154569786Y-91327150D01*
X154569783Y-91327151D01*
X154291155Y-91401809D01*
X154291139Y-91401814D01*
X154024663Y-91512191D01*
X154024647Y-91512199D01*
X153774851Y-91656420D01*
X153774835Y-91656431D01*
X153545997Y-91832024D01*
X153545990Y-91832030D01*
X153342030Y-92035990D01*
X153342024Y-92035997D01*
X153166431Y-92264835D01*
X153166420Y-92264851D01*
X153022199Y-92514647D01*
X153022191Y-92514663D01*
X152911814Y-92781139D01*
X152911809Y-92781155D01*
X152837152Y-93059780D01*
X152837149Y-93059793D01*
X152799501Y-93345761D01*
X152799500Y-93345778D01*
X140947390Y-93345778D01*
X145351350Y-88941819D01*
X145412673Y-88908334D01*
X145439031Y-88905500D01*
X152217024Y-88905500D01*
X152268667Y-88916765D01*
X153163165Y-89326540D01*
X153163166Y-89326540D01*
X153165425Y-89327575D01*
X153170076Y-89329824D01*
X153307555Y-89399873D01*
X153472299Y-89453402D01*
X153643389Y-89480500D01*
X153643390Y-89480500D01*
X153816610Y-89480500D01*
X153816611Y-89480500D01*
X153987701Y-89453402D01*
X154152445Y-89399873D01*
X154306788Y-89321232D01*
X154446928Y-89219414D01*
X154569414Y-89096928D01*
X154671232Y-88956788D01*
X154749873Y-88802445D01*
X154803402Y-88637701D01*
X154827156Y-88487720D01*
X154857085Y-88424587D01*
X154916396Y-88387655D01*
X154986259Y-88388653D01*
X155044492Y-88427262D01*
X155072102Y-88487720D01*
X155099548Y-88661002D01*
X155157914Y-88840637D01*
X155243666Y-89008933D01*
X155262116Y-89034328D01*
X155870000Y-88426445D01*
X155870000Y-88432661D01*
X155897259Y-88534394D01*
X155949920Y-88625606D01*
X156024394Y-88700080D01*
X156115606Y-88752741D01*
X156217339Y-88780000D01*
X156223554Y-88780000D01*
X155615669Y-89387882D01*
X155615670Y-89387883D01*
X155641059Y-89406329D01*
X155809362Y-89492085D01*
X155988997Y-89550451D01*
X156175553Y-89580000D01*
X156364447Y-89580000D01*
X156551002Y-89550451D01*
X156730637Y-89492085D01*
X156898937Y-89406331D01*
X156924328Y-89387883D01*
X156924328Y-89387882D01*
X156316447Y-88780000D01*
X156322661Y-88780000D01*
X156424394Y-88752741D01*
X156515606Y-88700080D01*
X156590080Y-88625606D01*
X156642741Y-88534394D01*
X156670000Y-88432661D01*
X156670000Y-88426446D01*
X157277882Y-89034328D01*
X157277883Y-89034328D01*
X157296331Y-89008937D01*
X157382085Y-88840637D01*
X157440451Y-88661002D01*
X157470000Y-88474447D01*
X157470000Y-88285552D01*
X157440451Y-88098997D01*
X157382085Y-87919362D01*
X157296329Y-87751059D01*
X157277883Y-87725670D01*
X157277882Y-87725669D01*
X156670000Y-88333552D01*
X156670000Y-88327339D01*
X156642741Y-88225606D01*
X156590080Y-88134394D01*
X156515606Y-88059920D01*
X156424394Y-88007259D01*
X156322661Y-87980000D01*
X156316447Y-87980000D01*
X156924328Y-87372116D01*
X156898933Y-87353666D01*
X156730637Y-87267914D01*
X156551002Y-87209548D01*
X156377720Y-87182102D01*
X156314586Y-87152172D01*
X156277655Y-87092861D01*
X156278653Y-87022998D01*
X156317263Y-86964766D01*
X156377720Y-86937156D01*
X156471306Y-86922334D01*
X156527696Y-86913403D01*
X156527696Y-86913402D01*
X156527701Y-86913402D01*
X156692445Y-86859873D01*
X156846788Y-86781232D01*
X156986928Y-86679414D01*
X157109414Y-86556928D01*
X157211232Y-86416788D01*
X157289873Y-86262445D01*
X157343402Y-86097701D01*
X157370500Y-85926611D01*
X157370500Y-85753389D01*
X157343402Y-85582299D01*
X157289873Y-85417555D01*
X157211232Y-85263212D01*
X157109414Y-85123072D01*
X156986928Y-85000586D01*
X156846788Y-84898768D01*
X156692449Y-84820128D01*
X156545677Y-84772438D01*
X156540799Y-84770740D01*
X156538492Y-84769882D01*
X156538491Y-84769882D01*
X156190981Y-84640732D01*
X156134999Y-84598927D01*
X156110505Y-84533491D01*
X156125277Y-84465201D01*
X156174624Y-84415738D01*
X156234179Y-84400500D01*
X156356610Y-84400500D01*
X156356611Y-84400500D01*
X156527701Y-84373402D01*
X156692445Y-84319873D01*
X156846788Y-84241232D01*
X156986928Y-84139414D01*
X157109414Y-84016928D01*
X157211232Y-83876788D01*
X157289873Y-83722445D01*
X157343402Y-83557701D01*
X157370500Y-83386611D01*
X157370500Y-83213389D01*
X157343402Y-83042299D01*
X157289873Y-82877555D01*
X157211232Y-82723212D01*
X157109414Y-82583072D01*
X156986928Y-82460586D01*
X156846788Y-82358768D01*
X156692445Y-82280127D01*
X156527701Y-82226598D01*
X156527699Y-82226597D01*
X156527698Y-82226597D01*
X156396271Y-82205781D01*
X156356611Y-82199500D01*
X156234176Y-82199500D01*
X156167137Y-82179815D01*
X156121382Y-82127011D01*
X156111438Y-82057853D01*
X156140463Y-81994297D01*
X156190979Y-81959268D01*
X156408092Y-81878578D01*
X156538491Y-81830117D01*
X156538493Y-81830115D01*
X156540804Y-81829257D01*
X156545668Y-81827563D01*
X156692445Y-81779873D01*
X156846788Y-81701232D01*
X156986928Y-81599414D01*
X157109414Y-81476928D01*
X157211232Y-81336788D01*
X157289873Y-81182445D01*
X157343402Y-81017701D01*
X157370500Y-80846611D01*
X157370500Y-80673389D01*
X157343402Y-80502299D01*
X157289873Y-80337555D01*
X157211232Y-80183212D01*
X157109414Y-80043072D01*
X156986928Y-79920586D01*
X156846788Y-79818768D01*
X156692445Y-79740127D01*
X156527701Y-79686598D01*
X156527699Y-79686597D01*
X156527698Y-79686597D01*
X156396271Y-79665781D01*
X156356611Y-79659500D01*
X156234176Y-79659500D01*
X156167137Y-79639815D01*
X156121382Y-79587011D01*
X156111438Y-79517853D01*
X156140463Y-79454297D01*
X156190979Y-79419268D01*
X156408092Y-79338578D01*
X156538491Y-79290117D01*
X156538493Y-79290115D01*
X156540804Y-79289257D01*
X156545668Y-79287563D01*
X156692445Y-79239873D01*
X156846788Y-79161232D01*
X156986928Y-79059414D01*
X157109414Y-78936928D01*
X157211232Y-78796788D01*
X157289873Y-78642445D01*
X157343402Y-78477701D01*
X157370500Y-78306611D01*
X157370500Y-78133389D01*
X157343402Y-77962299D01*
X157289873Y-77797555D01*
X157211232Y-77643212D01*
X157109414Y-77503072D01*
X156986928Y-77380586D01*
X156846788Y-77278768D01*
X156692445Y-77200127D01*
X156527701Y-77146598D01*
X156527699Y-77146597D01*
X156527698Y-77146597D01*
X156396271Y-77125781D01*
X156356611Y-77119500D01*
X156234176Y-77119500D01*
X156167137Y-77099815D01*
X156121382Y-77047011D01*
X156111438Y-76977853D01*
X156140463Y-76914297D01*
X156190979Y-76879268D01*
X156408092Y-76798578D01*
X156538491Y-76750117D01*
X156538493Y-76750115D01*
X156540804Y-76749257D01*
X156545668Y-76747563D01*
X156692445Y-76699873D01*
X156846788Y-76621232D01*
X156986928Y-76519414D01*
X157109414Y-76396928D01*
X157211232Y-76256788D01*
X157289873Y-76102445D01*
X157343402Y-75937701D01*
X157370500Y-75766611D01*
X157370500Y-75593389D01*
X157343402Y-75422299D01*
X157289873Y-75257555D01*
X157211232Y-75103212D01*
X157109414Y-74963072D01*
X156986928Y-74840586D01*
X156846788Y-74738768D01*
X156692445Y-74660127D01*
X156527701Y-74606598D01*
X156527699Y-74606597D01*
X156527698Y-74606597D01*
X156396271Y-74585781D01*
X156356611Y-74579500D01*
X156234176Y-74579500D01*
X156167137Y-74559815D01*
X156121382Y-74507011D01*
X156111438Y-74437853D01*
X156140463Y-74374297D01*
X156190979Y-74339268D01*
X156408092Y-74258578D01*
X156538491Y-74210117D01*
X156538493Y-74210115D01*
X156540804Y-74209257D01*
X156545668Y-74207563D01*
X156692445Y-74159873D01*
X156846788Y-74081232D01*
X156986928Y-73979414D01*
X157109414Y-73856928D01*
X157211232Y-73716788D01*
X157289873Y-73562445D01*
X157343402Y-73397701D01*
X157370500Y-73226611D01*
X157370500Y-73053389D01*
X157343402Y-72882299D01*
X157289873Y-72717555D01*
X157211232Y-72563212D01*
X157109414Y-72423072D01*
X156986928Y-72300586D01*
X156846788Y-72198768D01*
X156784535Y-72167049D01*
X156692447Y-72120128D01*
X156692446Y-72120127D01*
X156692445Y-72120127D01*
X156527701Y-72066598D01*
X156527699Y-72066597D01*
X156527698Y-72066597D01*
X156396271Y-72045781D01*
X156356611Y-72039500D01*
X156183389Y-72039500D01*
X156143728Y-72045781D01*
X156012302Y-72066597D01*
X155847552Y-72120128D01*
X155693211Y-72198768D01*
X155613256Y-72256859D01*
X155553072Y-72300586D01*
X155553070Y-72300588D01*
X155553069Y-72300588D01*
X155430588Y-72423069D01*
X155430588Y-72423070D01*
X155430586Y-72423072D01*
X155425980Y-72429412D01*
X155328768Y-72563211D01*
X155250128Y-72717550D01*
X155202438Y-72864323D01*
X155200740Y-72869201D01*
X155199884Y-72871504D01*
X155199883Y-72871506D01*
X155070770Y-73218917D01*
X155070733Y-73219017D01*
X155028927Y-73275000D01*
X154963491Y-73299494D01*
X154895201Y-73284722D01*
X154845738Y-73235375D01*
X154830500Y-73175820D01*
X154830500Y-73053389D01*
X154803402Y-72882299D01*
X154749873Y-72717555D01*
X154671232Y-72563212D01*
X154569414Y-72423072D01*
X154446928Y-72300586D01*
X154306788Y-72198768D01*
X154244535Y-72167049D01*
X154152447Y-72120128D01*
X154152446Y-72120127D01*
X154152445Y-72120127D01*
X153987701Y-72066598D01*
X153987699Y-72066597D01*
X153987698Y-72066597D01*
X153884830Y-72050304D01*
X153860635Y-72046472D01*
X153797502Y-72016544D01*
X153760570Y-71957233D01*
X153761568Y-71887370D01*
X153800178Y-71829137D01*
X153864141Y-71801023D01*
X153880034Y-71800000D01*
X154477829Y-71800000D01*
X154477845Y-71799999D01*
X154537373Y-71793598D01*
X154537380Y-71793596D01*
X154672087Y-71743354D01*
X154672094Y-71743350D01*
X154787188Y-71657190D01*
X154787191Y-71657187D01*
X154873351Y-71542093D01*
X154873355Y-71542086D01*
X154923597Y-71407379D01*
X154923599Y-71407372D01*
X154930000Y-71347844D01*
X154930001Y-71347827D01*
X154930001Y-70750040D01*
X154949686Y-70683001D01*
X155002490Y-70637246D01*
X155071648Y-70627302D01*
X155135204Y-70656327D01*
X155172978Y-70715105D01*
X155176474Y-70730642D01*
X155196597Y-70857698D01*
X155196598Y-70857701D01*
X155250127Y-71022445D01*
X155328768Y-71176788D01*
X155430586Y-71316928D01*
X155553072Y-71439414D01*
X155693212Y-71541232D01*
X155847555Y-71619873D01*
X156012299Y-71673402D01*
X156183389Y-71700500D01*
X156183390Y-71700500D01*
X156356610Y-71700500D01*
X156356611Y-71700500D01*
X156527701Y-71673402D01*
X156692445Y-71619873D01*
X156846788Y-71541232D01*
X156986928Y-71439414D01*
X157109414Y-71316928D01*
X157211232Y-71176788D01*
X157289873Y-71022445D01*
X157343402Y-70857701D01*
X157370500Y-70686611D01*
X157370500Y-70513389D01*
X157343402Y-70342299D01*
X157289873Y-70177555D01*
X157211232Y-70023212D01*
X157109414Y-69883072D01*
X156986928Y-69760586D01*
X156846788Y-69658768D01*
X156692445Y-69580127D01*
X156527701Y-69526598D01*
X156527699Y-69526597D01*
X156527698Y-69526597D01*
X156396271Y-69505781D01*
X156356611Y-69499500D01*
X156183389Y-69499500D01*
X156143728Y-69505781D01*
X156012302Y-69526597D01*
X155847552Y-69580128D01*
X155693211Y-69658768D01*
X155613256Y-69716859D01*
X155553072Y-69760586D01*
X155553070Y-69760588D01*
X155553069Y-69760588D01*
X155430588Y-69883069D01*
X155430588Y-69883070D01*
X155430586Y-69883072D01*
X155386859Y-69943256D01*
X155328768Y-70023211D01*
X155250128Y-70177552D01*
X155196597Y-70342302D01*
X155176474Y-70469357D01*
X155146545Y-70532492D01*
X155087233Y-70569423D01*
X155017371Y-70568425D01*
X154959138Y-70529815D01*
X154931024Y-70465852D01*
X154930001Y-70449959D01*
X154930001Y-69852172D01*
X154930000Y-69852155D01*
X154923599Y-69792627D01*
X154923597Y-69792620D01*
X154873355Y-69657913D01*
X154873351Y-69657906D01*
X154787191Y-69542812D01*
X154787188Y-69542809D01*
X154672094Y-69456649D01*
X154672087Y-69456645D01*
X154537380Y-69406403D01*
X154537373Y-69406401D01*
X154477845Y-69400000D01*
X153980001Y-69400000D01*
X153980001Y-70284314D01*
X153975607Y-70279920D01*
X153884395Y-70227259D01*
X153782662Y-70200000D01*
X153677340Y-70200000D01*
X153575607Y-70227259D01*
X153484395Y-70279920D01*
X153480001Y-70284314D01*
X153480001Y-69400000D01*
X152982156Y-69400000D01*
X152922628Y-69406401D01*
X152922621Y-69406403D01*
X152787914Y-69456645D01*
X152787907Y-69456649D01*
X152672813Y-69542809D01*
X152672810Y-69542812D01*
X152586650Y-69657906D01*
X152586646Y-69657913D01*
X152536404Y-69792620D01*
X152536402Y-69792627D01*
X152530001Y-69852155D01*
X152530001Y-70350000D01*
X153414315Y-70350000D01*
X153409921Y-70354394D01*
X153357260Y-70445606D01*
X153330001Y-70547339D01*
X153330001Y-70652661D01*
X153357260Y-70754394D01*
X153409921Y-70845606D01*
X153414315Y-70850000D01*
X152530001Y-70850000D01*
X152530001Y-71347844D01*
X152536402Y-71407372D01*
X152536404Y-71407379D01*
X152586646Y-71542086D01*
X152586650Y-71542093D01*
X152672810Y-71657187D01*
X152672813Y-71657190D01*
X152787907Y-71743350D01*
X152787914Y-71743354D01*
X152922621Y-71793596D01*
X152922628Y-71793598D01*
X152982156Y-71799999D01*
X152982173Y-71800000D01*
X153579966Y-71800000D01*
X153647005Y-71819685D01*
X153692760Y-71872489D01*
X153702704Y-71941647D01*
X153673679Y-72005203D01*
X153614901Y-72042977D01*
X153599365Y-72046472D01*
X153575169Y-72050304D01*
X153472302Y-72066597D01*
X153307552Y-72120128D01*
X153153211Y-72198768D01*
X153073256Y-72256859D01*
X153013072Y-72300586D01*
X153013070Y-72300588D01*
X153013069Y-72300588D01*
X152890588Y-72423069D01*
X152890588Y-72423070D01*
X152890586Y-72423072D01*
X152885980Y-72429412D01*
X152788768Y-72563211D01*
X152710128Y-72717552D01*
X152656597Y-72882302D01*
X152629500Y-73053389D01*
X152629500Y-73226610D01*
X152641043Y-73299494D01*
X152656598Y-73397701D01*
X152710127Y-73562445D01*
X152788768Y-73716788D01*
X152869289Y-73827616D01*
X152892769Y-73893420D01*
X152876944Y-73961474D01*
X152826838Y-74010169D01*
X152768971Y-74024500D01*
X149780659Y-74024500D01*
X149713620Y-74004815D01*
X149667865Y-73952011D01*
X149657921Y-73882853D01*
X149666098Y-73853047D01*
X149666500Y-73852075D01*
X149721658Y-73718913D01*
X149739273Y-73630361D01*
X149750500Y-73573920D01*
X149750500Y-73426079D01*
X149721659Y-73281092D01*
X149721658Y-73281091D01*
X149721658Y-73281087D01*
X149705284Y-73241556D01*
X149665087Y-73144511D01*
X149665080Y-73144498D01*
X149582951Y-73021584D01*
X149582948Y-73021580D01*
X149478419Y-72917051D01*
X149478415Y-72917048D01*
X149355501Y-72834919D01*
X149355488Y-72834912D01*
X149218917Y-72778343D01*
X149218907Y-72778340D01*
X149073920Y-72749500D01*
X149073918Y-72749500D01*
X148926082Y-72749500D01*
X148926080Y-72749500D01*
X148781088Y-72778341D01*
X148781085Y-72778342D01*
X148761686Y-72786377D01*
X148755123Y-72788880D01*
X148243488Y-72967566D01*
X148202603Y-72974500D01*
X111521142Y-72974500D01*
X111454103Y-72954815D01*
X111409454Y-72904369D01*
X111398811Y-72882302D01*
X111174469Y-72417163D01*
X111165084Y-72394505D01*
X111158476Y-72384616D01*
X111149166Y-72366891D01*
X111148374Y-72365501D01*
X111115214Y-72316116D01*
X111115213Y-72316115D01*
X111110570Y-72310675D01*
X111111057Y-72310258D01*
X111100535Y-72297901D01*
X111082954Y-72271588D01*
X111082953Y-72271587D01*
X111082951Y-72271584D01*
X110978416Y-72167049D01*
X110978415Y-72167048D01*
X110978414Y-72167047D01*
X110855501Y-72084919D01*
X110855488Y-72084912D01*
X110718917Y-72028343D01*
X110718907Y-72028340D01*
X110573920Y-71999500D01*
X110573918Y-71999500D01*
X110426082Y-71999500D01*
X110426077Y-71999500D01*
X110392847Y-72006110D01*
X110323255Y-71999883D01*
X110268078Y-71957019D01*
X110247039Y-71908684D01*
X110221658Y-71781087D01*
X110177054Y-71673402D01*
X110165087Y-71644511D01*
X110165080Y-71644498D01*
X110082951Y-71521584D01*
X110082948Y-71521580D01*
X109978419Y-71417051D01*
X109978415Y-71417048D01*
X109855501Y-71334919D01*
X109855488Y-71334912D01*
X109718917Y-71278343D01*
X109718907Y-71278340D01*
X109573920Y-71249500D01*
X109573918Y-71249500D01*
X109426082Y-71249500D01*
X109426080Y-71249500D01*
X109281092Y-71278340D01*
X109281082Y-71278343D01*
X109144511Y-71334912D01*
X109144498Y-71334919D01*
X109021584Y-71417048D01*
X109021580Y-71417051D01*
X108917051Y-71521580D01*
X108917048Y-71521584D01*
X108834919Y-71644498D01*
X108834912Y-71644511D01*
X108778343Y-71781082D01*
X108778340Y-71781092D01*
X108749500Y-71926079D01*
X108749500Y-71926082D01*
X108749500Y-72073918D01*
X108749500Y-72073920D01*
X108749499Y-72073920D01*
X108778340Y-72218907D01*
X108778343Y-72218917D01*
X108786375Y-72238308D01*
X108788879Y-72244874D01*
X108828957Y-72359631D01*
X108832477Y-72429412D01*
X108797712Y-72490018D01*
X108735699Y-72522208D01*
X108687700Y-72522132D01*
X108573921Y-72499500D01*
X108573918Y-72499500D01*
X108426082Y-72499500D01*
X108426077Y-72499500D01*
X108392847Y-72506110D01*
X108323255Y-72499883D01*
X108268078Y-72457019D01*
X108247039Y-72408684D01*
X108244219Y-72394505D01*
X108221658Y-72281087D01*
X108205284Y-72241556D01*
X108165087Y-72144511D01*
X108165080Y-72144498D01*
X108082951Y-72021584D01*
X108082948Y-72021580D01*
X107978419Y-71917051D01*
X107978415Y-71917048D01*
X107855501Y-71834919D01*
X107855488Y-71834912D01*
X107718917Y-71778343D01*
X107718907Y-71778340D01*
X107573920Y-71749500D01*
X107573918Y-71749500D01*
X107426082Y-71749500D01*
X107426080Y-71749500D01*
X107281092Y-71778340D01*
X107281082Y-71778343D01*
X107144511Y-71834912D01*
X107144498Y-71834919D01*
X107021584Y-71917048D01*
X107021580Y-71917051D01*
X106917051Y-72021580D01*
X106917048Y-72021584D01*
X106834919Y-72144498D01*
X106834912Y-72144511D01*
X106778343Y-72281082D01*
X106778340Y-72281092D01*
X106749500Y-72426079D01*
X106749500Y-72426082D01*
X106749500Y-72573918D01*
X106749500Y-72573920D01*
X106749499Y-72573920D01*
X106778340Y-72718907D01*
X106778343Y-72718917D01*
X106786375Y-72738308D01*
X106788879Y-72744874D01*
X106828957Y-72859631D01*
X106832477Y-72929412D01*
X106797712Y-72990018D01*
X106735699Y-73022208D01*
X106687700Y-73022132D01*
X106573921Y-72999500D01*
X106573918Y-72999500D01*
X106426082Y-72999500D01*
X106426077Y-72999500D01*
X106392847Y-73006110D01*
X106323255Y-72999883D01*
X106268078Y-72957019D01*
X106247039Y-72908684D01*
X106239644Y-72871506D01*
X106221658Y-72781087D01*
X106205284Y-72741556D01*
X106165087Y-72644511D01*
X106165080Y-72644498D01*
X106082951Y-72521584D01*
X106082948Y-72521580D01*
X105978419Y-72417051D01*
X105978415Y-72417048D01*
X105855501Y-72334919D01*
X105855488Y-72334912D01*
X105718917Y-72278343D01*
X105718907Y-72278340D01*
X105573920Y-72249500D01*
X105573918Y-72249500D01*
X105426082Y-72249500D01*
X105426080Y-72249500D01*
X105281092Y-72278340D01*
X105281082Y-72278343D01*
X105144511Y-72334912D01*
X105144498Y-72334919D01*
X105021584Y-72417048D01*
X105021580Y-72417051D01*
X104917051Y-72521580D01*
X104917048Y-72521584D01*
X104834919Y-72644498D01*
X104834912Y-72644511D01*
X104778343Y-72781082D01*
X104778340Y-72781092D01*
X104749500Y-72926079D01*
X104749500Y-72926082D01*
X104749500Y-73073918D01*
X104749500Y-73073920D01*
X104749499Y-73073920D01*
X104778340Y-73218907D01*
X104778343Y-73218917D01*
X104786375Y-73238308D01*
X104788879Y-73244874D01*
X104828957Y-73359631D01*
X104832477Y-73429412D01*
X104797712Y-73490018D01*
X104735699Y-73522208D01*
X104687700Y-73522132D01*
X104573921Y-73499500D01*
X104573918Y-73499500D01*
X104426082Y-73499500D01*
X104426077Y-73499500D01*
X104392847Y-73506110D01*
X104323255Y-73499883D01*
X104268078Y-73457019D01*
X104247039Y-73408684D01*
X104221658Y-73281087D01*
X104205284Y-73241556D01*
X104165087Y-73144511D01*
X104165080Y-73144498D01*
X104082951Y-73021584D01*
X104082948Y-73021580D01*
X103978419Y-72917051D01*
X103978415Y-72917048D01*
X103855501Y-72834919D01*
X103855488Y-72834912D01*
X103718917Y-72778343D01*
X103718907Y-72778340D01*
X103573920Y-72749500D01*
X103573918Y-72749500D01*
X103426082Y-72749500D01*
X103426080Y-72749500D01*
X103281092Y-72778340D01*
X103281082Y-72778343D01*
X103144511Y-72834912D01*
X103144498Y-72834919D01*
X103021584Y-72917048D01*
X103021580Y-72917051D01*
X102917051Y-73021580D01*
X102917048Y-73021584D01*
X102834919Y-73144498D01*
X102834912Y-73144511D01*
X102778343Y-73281082D01*
X102778340Y-73281092D01*
X102749500Y-73426079D01*
X102749500Y-73426082D01*
X102749500Y-73573918D01*
X102749500Y-73573920D01*
X102749499Y-73573920D01*
X102778340Y-73718907D01*
X102778343Y-73718917D01*
X102786375Y-73738308D01*
X102788879Y-73744874D01*
X102828957Y-73859631D01*
X102832477Y-73929412D01*
X102797712Y-73990018D01*
X102735699Y-74022208D01*
X102687700Y-74022132D01*
X102573921Y-73999500D01*
X102573918Y-73999500D01*
X102426082Y-73999500D01*
X102426080Y-73999500D01*
X102281092Y-74028340D01*
X102281082Y-74028343D01*
X102144511Y-74084912D01*
X102144498Y-74084919D01*
X102021584Y-74167048D01*
X102021580Y-74167051D01*
X101917051Y-74271580D01*
X101917048Y-74271584D01*
X101834919Y-74394498D01*
X101834912Y-74394511D01*
X101778343Y-74531082D01*
X101778340Y-74531092D01*
X101749500Y-74676079D01*
X101749500Y-74676082D01*
X101749500Y-74823918D01*
X101749500Y-74823920D01*
X101749499Y-74823920D01*
X101778340Y-74968907D01*
X101778343Y-74968917D01*
X101834912Y-75105488D01*
X101834919Y-75105501D01*
X101917048Y-75228415D01*
X101917051Y-75228419D01*
X102021580Y-75332948D01*
X102021588Y-75332954D01*
X102144494Y-75415077D01*
X102144496Y-75415078D01*
X102144505Y-75415084D01*
X102151995Y-75418186D01*
X102163926Y-75423129D01*
X102170339Y-75426001D01*
X102658445Y-75661420D01*
X102692258Y-75685427D01*
X110769649Y-83762819D01*
X110803134Y-83824142D01*
X110798150Y-83893834D01*
X110756278Y-83949767D01*
X110690814Y-83974184D01*
X110681968Y-83974500D01*
X97547396Y-83974500D01*
X97506511Y-83967566D01*
X96995529Y-83789108D01*
X96995492Y-83789095D01*
X96991562Y-83787723D01*
X96968913Y-83778342D01*
X96957261Y-83776024D01*
X96949657Y-83773656D01*
X96949649Y-83773654D01*
X96938178Y-83770083D01*
X96936643Y-83769662D01*
X96878180Y-83758170D01*
X96871048Y-83757608D01*
X96871098Y-83756965D01*
X96854937Y-83755670D01*
X96823919Y-83749500D01*
X96823918Y-83749500D01*
X96676082Y-83749500D01*
X96676080Y-83749500D01*
X96531092Y-83778340D01*
X96531082Y-83778343D01*
X96394511Y-83834912D01*
X96394498Y-83834919D01*
X96271584Y-83917048D01*
X96271580Y-83917051D01*
X96167051Y-84021580D01*
X96167048Y-84021584D01*
X96084919Y-84144498D01*
X96084912Y-84144511D01*
X96028343Y-84281082D01*
X96028340Y-84281092D01*
X95999500Y-84426079D01*
X95999500Y-84426082D01*
X95999500Y-84573918D01*
X95999500Y-84573920D01*
X95999499Y-84573920D01*
X96028340Y-84718907D01*
X96028343Y-84718917D01*
X96084912Y-84855488D01*
X96084919Y-84855501D01*
X96167048Y-84978415D01*
X96167051Y-84978419D01*
X96271580Y-85082948D01*
X96271584Y-85082951D01*
X96394498Y-85165080D01*
X96394511Y-85165087D01*
X96531082Y-85221656D01*
X96531087Y-85221658D01*
X96531091Y-85221658D01*
X96531092Y-85221659D01*
X96676079Y-85250500D01*
X96676082Y-85250500D01*
X96823920Y-85250500D01*
X96921462Y-85231096D01*
X96968913Y-85221658D01*
X96988362Y-85213601D01*
X96994862Y-85211122D01*
X97361861Y-85082951D01*
X97506509Y-85032434D01*
X97547393Y-85025500D01*
X107198630Y-85025500D01*
X107265669Y-85045185D01*
X107311424Y-85097989D01*
X107321368Y-85167147D01*
X107313191Y-85196952D01*
X107278343Y-85281082D01*
X107278340Y-85281092D01*
X107249500Y-85426079D01*
X107249500Y-85573922D01*
X107256892Y-85611084D01*
X107250665Y-85680676D01*
X107207802Y-85735853D01*
X107141912Y-85759097D01*
X107111084Y-85756892D01*
X107073922Y-85749500D01*
X107073918Y-85749500D01*
X106926082Y-85749500D01*
X106926080Y-85749500D01*
X106781092Y-85778340D01*
X106781082Y-85778343D01*
X106644511Y-85834912D01*
X106644498Y-85834919D01*
X106521584Y-85917048D01*
X106521580Y-85917051D01*
X106417051Y-86021580D01*
X106417048Y-86021584D01*
X106334919Y-86144498D01*
X106334912Y-86144511D01*
X106278343Y-86281082D01*
X106278340Y-86281092D01*
X106249500Y-86426079D01*
X106249500Y-86426082D01*
X106249500Y-86573918D01*
X106249500Y-86573920D01*
X106249499Y-86573920D01*
X106278340Y-86718907D01*
X106278343Y-86718917D01*
X106334912Y-86855488D01*
X106334919Y-86855501D01*
X106417048Y-86978415D01*
X106417051Y-86978419D01*
X106521580Y-87082948D01*
X106521584Y-87082951D01*
X106644498Y-87165080D01*
X106644511Y-87165087D01*
X106781082Y-87221656D01*
X106781087Y-87221658D01*
X106781091Y-87221658D01*
X106781092Y-87221659D01*
X106926079Y-87250500D01*
X106926082Y-87250500D01*
X107073919Y-87250500D01*
X107086916Y-87247914D01*
X107144265Y-87236506D01*
X107155324Y-87234822D01*
X107185748Y-87231588D01*
X107688377Y-87096259D01*
X107749641Y-87079764D01*
X107781879Y-87075500D01*
X112530969Y-87075500D01*
X112598008Y-87095185D01*
X112618650Y-87111819D01*
X122314571Y-96807741D01*
X122338578Y-96841554D01*
X122573682Y-97329008D01*
X122573712Y-97329070D01*
X122575533Y-97332844D01*
X122584916Y-97355495D01*
X122591520Y-97365379D01*
X122595219Y-97372421D01*
X122595241Y-97372465D01*
X122600827Y-97383098D01*
X122601627Y-97384502D01*
X122634785Y-97433883D01*
X122639429Y-97439324D01*
X122638938Y-97439742D01*
X122649461Y-97452094D01*
X122667047Y-97478414D01*
X122667053Y-97478421D01*
X122771580Y-97582948D01*
X122771584Y-97582951D01*
X122894498Y-97665080D01*
X122894511Y-97665087D01*
X123005042Y-97710870D01*
X123031087Y-97721658D01*
X123031091Y-97721658D01*
X123031092Y-97721659D01*
X123176079Y-97750500D01*
X123176082Y-97750500D01*
X123323920Y-97750500D01*
X123421462Y-97731096D01*
X123468913Y-97721658D01*
X123605495Y-97665084D01*
X123728416Y-97582951D01*
X123832951Y-97478416D01*
X123915084Y-97355495D01*
X123915085Y-97355492D01*
X123915087Y-97355489D01*
X123960415Y-97246055D01*
X123981003Y-97220505D01*
X124000666Y-97194240D01*
X124002814Y-97193438D01*
X124004255Y-97191651D01*
X124035398Y-97181285D01*
X124066130Y-97169823D01*
X124068371Y-97170310D01*
X124070549Y-97169586D01*
X124102342Y-97177700D01*
X124134403Y-97184675D01*
X124136852Y-97186508D01*
X124138249Y-97186865D01*
X124162657Y-97205826D01*
X124275154Y-97318323D01*
X124275164Y-97318334D01*
X124279494Y-97322664D01*
X124279495Y-97322665D01*
X124377335Y-97420505D01*
X124377337Y-97420506D01*
X124377338Y-97420507D01*
X124411167Y-97440038D01*
X124497164Y-97489688D01*
X124563990Y-97507594D01*
X124563989Y-97507594D01*
X124578111Y-97511377D01*
X124630816Y-97525500D01*
X124630817Y-97525500D01*
X124952606Y-97525500D01*
X124993490Y-97532434D01*
X125373301Y-97665080D01*
X125508433Y-97712274D01*
X125531087Y-97721658D01*
X125542745Y-97723977D01*
X125559021Y-97729043D01*
X125561833Y-97729919D01*
X125561837Y-97729920D01*
X125563380Y-97730343D01*
X125563390Y-97730345D01*
X125563398Y-97730347D01*
X125619707Y-97741413D01*
X125621823Y-97741829D01*
X125621828Y-97741828D01*
X125628959Y-97742392D01*
X125628908Y-97743036D01*
X125645066Y-97744330D01*
X125676081Y-97750500D01*
X125676082Y-97750500D01*
X125823920Y-97750500D01*
X125921462Y-97731096D01*
X125968913Y-97721658D01*
X126105495Y-97665084D01*
X126228416Y-97582951D01*
X126332951Y-97478416D01*
X126415084Y-97355495D01*
X126471658Y-97218913D01*
X126500500Y-97073918D01*
X126500500Y-96926082D01*
X126500500Y-96926079D01*
X126471659Y-96781092D01*
X126471658Y-96781091D01*
X126471658Y-96781087D01*
X126471656Y-96781082D01*
X126415087Y-96644511D01*
X126415080Y-96644498D01*
X126332951Y-96521584D01*
X126332948Y-96521580D01*
X126228419Y-96417051D01*
X126228415Y-96417048D01*
X126105501Y-96334919D01*
X126105488Y-96334912D01*
X125968917Y-96278343D01*
X125968907Y-96278340D01*
X125823920Y-96249500D01*
X125823918Y-96249500D01*
X125676082Y-96249500D01*
X125676080Y-96249500D01*
X125531088Y-96278341D01*
X125531085Y-96278342D01*
X125511686Y-96286377D01*
X125505123Y-96288880D01*
X125005663Y-96463313D01*
X124935882Y-96466833D01*
X124877097Y-96433928D01*
X113680350Y-85237181D01*
X113646865Y-85175858D01*
X113651849Y-85106166D01*
X113693721Y-85050233D01*
X113759185Y-85025816D01*
X113768031Y-85025500D01*
X121202606Y-85025500D01*
X121243490Y-85032434D01*
X121611266Y-85160877D01*
X121758433Y-85212274D01*
X121781087Y-85221658D01*
X121792745Y-85223977D01*
X121809021Y-85229043D01*
X121811833Y-85229919D01*
X121811837Y-85229920D01*
X121813380Y-85230343D01*
X121813390Y-85230345D01*
X121813398Y-85230347D01*
X121869707Y-85241413D01*
X121871823Y-85241829D01*
X121871828Y-85241828D01*
X121878959Y-85242392D01*
X121878908Y-85243036D01*
X121895066Y-85244330D01*
X121926081Y-85250500D01*
X121926082Y-85250500D01*
X122073920Y-85250500D01*
X122171462Y-85231096D01*
X122218913Y-85221658D01*
X122329484Y-85175858D01*
X122355488Y-85165087D01*
X122355488Y-85165086D01*
X122355495Y-85165084D01*
X122478416Y-85082951D01*
X122582951Y-84978416D01*
X122665084Y-84855495D01*
X122721658Y-84718913D01*
X122737209Y-84640733D01*
X122750500Y-84573920D01*
X122750500Y-84426079D01*
X122721659Y-84281092D01*
X122721658Y-84281091D01*
X122721658Y-84281087D01*
X122699393Y-84227335D01*
X122665087Y-84144511D01*
X122665077Y-84144493D01*
X122620909Y-84078390D01*
X122600031Y-84011713D01*
X122618516Y-83944333D01*
X122670495Y-83897643D01*
X122724011Y-83885500D01*
X145637172Y-83885500D01*
X145704211Y-83905185D01*
X145749966Y-83957989D01*
X145759910Y-84027147D01*
X145730885Y-84090703D01*
X145699172Y-84116887D01*
X145677338Y-84129492D01*
X145677333Y-84129496D01*
X145579495Y-84227335D01*
X145579493Y-84227337D01*
X137720834Y-92085997D01*
X129868650Y-99938181D01*
X129807327Y-99971666D01*
X129780969Y-99974500D01*
X108297396Y-99974500D01*
X108256511Y-99967566D01*
X107745529Y-99789108D01*
X107745492Y-99789095D01*
X107741562Y-99787723D01*
X107718913Y-99778342D01*
X107707261Y-99776024D01*
X107699657Y-99773656D01*
X107699649Y-99773654D01*
X107688178Y-99770083D01*
X107686643Y-99769662D01*
X107628180Y-99758170D01*
X107621048Y-99757608D01*
X107621098Y-99756965D01*
X107604937Y-99755670D01*
X107573919Y-99749500D01*
X107573918Y-99749500D01*
X107426082Y-99749500D01*
X107426080Y-99749500D01*
X107281092Y-99778340D01*
X107281082Y-99778343D01*
X107144511Y-99834912D01*
X107144498Y-99834919D01*
X107021584Y-99917048D01*
X107021580Y-99917051D01*
X106917051Y-100021580D01*
X106917048Y-100021584D01*
X106834919Y-100144498D01*
X106834912Y-100144511D01*
X106778343Y-100281082D01*
X106778340Y-100281092D01*
X106749500Y-100426079D01*
X106749500Y-100426082D01*
X106749500Y-100573918D01*
X106749500Y-100573920D01*
X106749499Y-100573920D01*
X106778340Y-100718907D01*
X106778343Y-100718917D01*
X106813191Y-100803048D01*
X106820660Y-100872517D01*
X106789384Y-100934996D01*
X106729295Y-100970648D01*
X106698630Y-100974500D01*
X99297396Y-100974500D01*
X99256511Y-100967566D01*
X98745529Y-100789108D01*
X98745492Y-100789095D01*
X98741562Y-100787723D01*
X98718913Y-100778342D01*
X98707261Y-100776024D01*
X98699657Y-100773656D01*
X98699649Y-100773654D01*
X98688178Y-100770083D01*
X98686643Y-100769662D01*
X98628180Y-100758170D01*
X98621048Y-100757608D01*
X98621098Y-100756965D01*
X98604937Y-100755670D01*
X98573919Y-100749500D01*
X98573918Y-100749500D01*
X98426082Y-100749500D01*
X98426080Y-100749500D01*
X98281092Y-100778340D01*
X98281082Y-100778343D01*
X98144511Y-100834912D01*
X98144498Y-100834919D01*
X98021584Y-100917048D01*
X98021580Y-100917051D01*
X97917051Y-101021580D01*
X97917048Y-101021584D01*
X97834919Y-101144498D01*
X97834912Y-101144511D01*
X97778343Y-101281082D01*
X97778340Y-101281092D01*
X97749500Y-101426079D01*
X97749500Y-101426082D01*
X97749500Y-101573918D01*
X97749500Y-101573920D01*
X97749499Y-101573920D01*
X97778340Y-101718907D01*
X97778343Y-101718917D01*
X97834912Y-101855488D01*
X97834919Y-101855501D01*
X97917048Y-101978415D01*
X97917051Y-101978419D01*
X98021580Y-102082948D01*
X98021584Y-102082951D01*
X98144498Y-102165080D01*
X98144511Y-102165087D01*
X98281082Y-102221656D01*
X98281087Y-102221658D01*
X98281091Y-102221658D01*
X98281092Y-102221659D01*
X98426079Y-102250500D01*
X98426082Y-102250500D01*
X98573920Y-102250500D01*
X98673437Y-102230704D01*
X98718913Y-102221658D01*
X98738362Y-102213601D01*
X98744862Y-102211122D01*
X99111861Y-102082951D01*
X99256509Y-102032434D01*
X99297393Y-102025500D01*
X130473219Y-102025500D01*
X130480816Y-102025500D01*
X130480817Y-102025501D01*
X130481982Y-102025501D01*
X130485961Y-102026669D01*
X130488585Y-102026458D01*
X130488593Y-102026459D01*
X130488474Y-102027408D01*
X130518303Y-102036170D01*
X130549007Y-102045186D01*
X130549011Y-102045190D01*
X130549019Y-102045193D01*
X130575294Y-102075523D01*
X130594762Y-102097990D01*
X130594762Y-102097996D01*
X130594768Y-102098002D01*
X130599629Y-102131839D01*
X130604706Y-102167148D01*
X130604702Y-102167154D01*
X130604704Y-102167162D01*
X130590253Y-102198795D01*
X130575681Y-102230704D01*
X130569649Y-102237182D01*
X129068650Y-103738181D01*
X129007327Y-103771666D01*
X128980969Y-103774500D01*
X115576795Y-103774500D01*
X115576779Y-103774499D01*
X115569183Y-103774499D01*
X115430817Y-103774499D01*
X115325409Y-103802742D01*
X115325408Y-103802743D01*
X115297164Y-103810312D01*
X115227982Y-103850254D01*
X115177336Y-103879494D01*
X115177333Y-103879496D01*
X115079493Y-103977337D01*
X112368650Y-106688181D01*
X112307327Y-106721666D01*
X112280969Y-106724500D01*
X108047396Y-106724500D01*
X108006511Y-106717566D01*
X107495529Y-106539108D01*
X107495492Y-106539095D01*
X107491562Y-106537723D01*
X107468913Y-106528342D01*
X107457261Y-106526024D01*
X107449657Y-106523656D01*
X107449649Y-106523654D01*
X107438178Y-106520083D01*
X107436643Y-106519662D01*
X107378180Y-106508170D01*
X107371048Y-106507608D01*
X107371098Y-106506965D01*
X107354937Y-106505670D01*
X107323919Y-106499500D01*
X107323918Y-106499500D01*
X107176082Y-106499500D01*
X107176080Y-106499500D01*
X107031092Y-106528340D01*
X107031082Y-106528343D01*
X106894511Y-106584912D01*
X106894498Y-106584919D01*
X106771584Y-106667048D01*
X106771580Y-106667051D01*
X106667051Y-106771580D01*
X106667048Y-106771584D01*
X106584919Y-106894498D01*
X106584912Y-106894511D01*
X106528343Y-107031082D01*
X106528340Y-107031092D01*
X106499500Y-107176079D01*
X106499500Y-107176082D01*
X106499500Y-107323918D01*
X106499500Y-107323920D01*
X106499499Y-107323920D01*
X106528340Y-107468907D01*
X106528343Y-107468917D01*
X106584912Y-107605488D01*
X106584919Y-107605501D01*
X106667048Y-107728415D01*
X106667051Y-107728419D01*
X106771580Y-107832948D01*
X106771584Y-107832951D01*
X106894498Y-107915080D01*
X106894511Y-107915087D01*
X107031082Y-107971656D01*
X107031087Y-107971658D01*
X107031091Y-107971658D01*
X107031092Y-107971659D01*
X107176079Y-108000500D01*
X107176082Y-108000500D01*
X107323920Y-108000500D01*
X107442942Y-107976824D01*
X107468913Y-107971658D01*
X107488362Y-107963601D01*
X107494862Y-107961122D01*
X107861861Y-107832951D01*
X108006509Y-107782434D01*
X108047393Y-107775500D01*
X112231969Y-107775500D01*
X112299008Y-107795185D01*
X112344763Y-107847989D01*
X112354707Y-107917147D01*
X112325682Y-107980703D01*
X112319650Y-107987181D01*
X112018650Y-108288181D01*
X111957327Y-108321666D01*
X111930969Y-108324500D01*
X102606768Y-108324500D01*
X102559802Y-108315262D01*
X102125981Y-108137723D01*
X101953997Y-108067339D01*
X101932078Y-108055683D01*
X101926547Y-108051987D01*
X101926544Y-108051985D01*
X101926543Y-108051985D01*
X101762670Y-107984107D01*
X101762663Y-107984105D01*
X101737681Y-107979135D01*
X101737681Y-107979136D01*
X101730497Y-107977707D01*
X101728009Y-107976824D01*
X101725889Y-107976183D01*
X101656970Y-107961733D01*
X101651261Y-107961946D01*
X101638341Y-107959376D01*
X101638340Y-107959375D01*
X101588693Y-107949500D01*
X101588691Y-107949500D01*
X100265694Y-107949500D01*
X99134306Y-107949500D01*
X99134298Y-107949500D01*
X99097432Y-107952401D01*
X99097426Y-107952402D01*
X98939606Y-107998254D01*
X98939603Y-107998255D01*
X98798137Y-108081917D01*
X98798129Y-108081923D01*
X98681923Y-108198129D01*
X98681917Y-108198137D01*
X98598255Y-108339603D01*
X98598254Y-108339606D01*
X98552402Y-108497426D01*
X98552401Y-108497432D01*
X98549500Y-108534298D01*
X98549500Y-109165701D01*
X98552401Y-109202567D01*
X98552402Y-109202573D01*
X98598254Y-109360393D01*
X98598255Y-109360396D01*
X98681917Y-109501862D01*
X98681923Y-109501870D01*
X98798129Y-109618076D01*
X98798133Y-109618079D01*
X98798135Y-109618081D01*
X98939602Y-109701744D01*
X98963004Y-109708543D01*
X99097426Y-109747597D01*
X99097429Y-109747597D01*
X99097431Y-109747598D01*
X99134306Y-109750500D01*
X99134314Y-109750500D01*
X101588693Y-109750500D01*
X101588694Y-109750499D01*
X101646682Y-109738964D01*
X101762658Y-109715896D01*
X101762661Y-109715894D01*
X101762666Y-109715894D01*
X101926547Y-109648013D01*
X101932076Y-109644317D01*
X101953996Y-109632658D01*
X102559799Y-109384738D01*
X102606764Y-109375500D01*
X112123205Y-109375500D01*
X112123221Y-109375501D01*
X112130817Y-109375501D01*
X112269181Y-109375501D01*
X112269183Y-109375501D01*
X112339455Y-109356671D01*
X112374592Y-109347256D01*
X112374593Y-109347255D01*
X112402836Y-109339688D01*
X112522665Y-109270505D01*
X112620505Y-109172665D01*
X112620505Y-109172663D01*
X112630709Y-109162460D01*
X112630712Y-109162455D01*
X116181351Y-105611819D01*
X116242674Y-105578334D01*
X116269032Y-105575500D01*
X121730969Y-105575500D01*
X121798008Y-105595185D01*
X121818650Y-105611819D01*
X123489183Y-107282352D01*
X123504064Y-107309605D01*
X123520694Y-107335840D01*
X123521154Y-107340902D01*
X123522668Y-107343675D01*
X123525500Y-107370805D01*
X123525432Y-107381618D01*
X123524500Y-107386308D01*
X123524500Y-107531418D01*
X123524498Y-107531740D01*
X123514530Y-107564921D01*
X123504815Y-107598007D01*
X123504457Y-107598450D01*
X123504396Y-107598656D01*
X123504061Y-107598942D01*
X123488185Y-107618644D01*
X123411016Y-107695814D01*
X123371274Y-107722490D01*
X122852747Y-107939858D01*
X122804808Y-107949500D01*
X120634298Y-107949500D01*
X120597432Y-107952401D01*
X120597426Y-107952402D01*
X120439606Y-107998254D01*
X120439603Y-107998255D01*
X120298137Y-108081917D01*
X120298129Y-108081923D01*
X120181923Y-108198129D01*
X120181917Y-108198137D01*
X120098255Y-108339603D01*
X120098254Y-108339606D01*
X120052402Y-108497426D01*
X120052401Y-108497432D01*
X120049500Y-108534298D01*
X120049500Y-109165701D01*
X120052401Y-109202567D01*
X120052402Y-109202573D01*
X120098254Y-109360393D01*
X120098255Y-109360396D01*
X120181917Y-109501862D01*
X120181923Y-109501870D01*
X120298129Y-109618076D01*
X120298133Y-109618079D01*
X120298135Y-109618081D01*
X120439602Y-109701744D01*
X120463004Y-109708543D01*
X120597426Y-109747597D01*
X120597429Y-109747597D01*
X120597431Y-109747598D01*
X120634306Y-109750500D01*
X120634314Y-109750500D01*
X123088693Y-109750500D01*
X123088694Y-109750499D01*
X123146682Y-109738964D01*
X123262658Y-109715896D01*
X123262661Y-109715894D01*
X123262666Y-109715894D01*
X123426547Y-109648013D01*
X123574035Y-109549464D01*
X123699464Y-109424035D01*
X123798013Y-109276547D01*
X123800517Y-109270503D01*
X123827446Y-109205488D01*
X123865894Y-109112666D01*
X123867192Y-109106136D01*
X123874449Y-109082393D01*
X124064278Y-108629556D01*
X124108348Y-108575341D01*
X124174736Y-108553558D01*
X124242361Y-108571125D01*
X124266316Y-108589816D01*
X126875958Y-111199459D01*
X126875961Y-111199462D01*
X126875964Y-111199464D01*
X126932641Y-111237334D01*
X127023453Y-111298013D01*
X127105393Y-111331953D01*
X127111543Y-111334500D01*
X127111546Y-111334502D01*
X127135721Y-111344515D01*
X127187334Y-111365895D01*
X127361303Y-111400499D01*
X127361307Y-111400500D01*
X127361308Y-111400500D01*
X127361309Y-111400500D01*
X149525638Y-111400500D01*
X149592677Y-111420185D01*
X149613319Y-111436819D01*
X155563181Y-117386681D01*
X155596666Y-117448004D01*
X155599500Y-117474362D01*
X155599500Y-153900500D01*
X155579815Y-153967539D01*
X155527011Y-154013294D01*
X155475500Y-154024500D01*
X123169032Y-154024500D01*
X123101993Y-154004815D01*
X123081351Y-153988181D01*
X121636219Y-152543050D01*
X121607685Y-152498614D01*
X121374270Y-151871347D01*
X121368872Y-151852307D01*
X121365894Y-151837334D01*
X121365891Y-151837326D01*
X121298016Y-151673459D01*
X121298009Y-151673446D01*
X121199464Y-151525965D01*
X121199461Y-151525961D01*
X121074038Y-151400538D01*
X121074034Y-151400535D01*
X120926553Y-151301990D01*
X120926540Y-151301983D01*
X120762667Y-151234106D01*
X120762658Y-151234103D01*
X120588694Y-151199500D01*
X120588691Y-151199500D01*
X119265694Y-151199500D01*
X118134306Y-151199500D01*
X118134298Y-151199500D01*
X118097432Y-151202401D01*
X118097426Y-151202402D01*
X117939606Y-151248254D01*
X117939603Y-151248255D01*
X117798137Y-151331917D01*
X117798129Y-151331923D01*
X117681923Y-151448129D01*
X117681917Y-151448137D01*
X117598255Y-151589603D01*
X117598254Y-151589606D01*
X117552402Y-151747426D01*
X117552401Y-151747432D01*
X117549500Y-151784298D01*
X117549500Y-152415701D01*
X117552401Y-152452567D01*
X117552402Y-152452573D01*
X117598254Y-152610393D01*
X117598255Y-152610396D01*
X117681917Y-152751862D01*
X117681923Y-152751870D01*
X117798129Y-152868076D01*
X117798133Y-152868079D01*
X117798135Y-152868081D01*
X117939602Y-152951744D01*
X117981224Y-152963836D01*
X118097426Y-152997597D01*
X118097429Y-152997597D01*
X118097431Y-152997598D01*
X118134306Y-153000500D01*
X118611309Y-153000500D01*
X120278445Y-153000500D01*
X120330286Y-153011857D01*
X120844436Y-153248483D01*
X120880276Y-153273445D01*
X122269649Y-154662819D01*
X122303134Y-154724142D01*
X122298150Y-154793834D01*
X122256278Y-154849767D01*
X122190814Y-154874184D01*
X122181968Y-154874500D01*
X120093900Y-154874500D01*
X120034643Y-154859425D01*
X119785971Y-154724142D01*
X119496309Y-154566559D01*
X119496306Y-154566557D01*
X119496301Y-154566555D01*
X119496299Y-154566554D01*
X119486505Y-154562409D01*
X119478853Y-154559170D01*
X119460398Y-154548256D01*
X119437000Y-154541458D01*
X119430271Y-154538610D01*
X119430270Y-154538609D01*
X119423332Y-154535674D01*
X119423325Y-154535671D01*
X119418983Y-154534316D01*
X119418934Y-154534307D01*
X119410701Y-154532932D01*
X119396544Y-154529704D01*
X119302573Y-154502402D01*
X119302567Y-154502401D01*
X119265701Y-154499500D01*
X119265694Y-154499500D01*
X118134306Y-154499500D01*
X118134298Y-154499500D01*
X118097432Y-154502401D01*
X118097426Y-154502402D01*
X117939606Y-154548254D01*
X117939603Y-154548255D01*
X117798137Y-154631917D01*
X117798129Y-154631923D01*
X117681923Y-154748129D01*
X117681917Y-154748137D01*
X117598255Y-154889603D01*
X117598254Y-154889606D01*
X117552402Y-155047426D01*
X117552401Y-155047432D01*
X117549500Y-155084298D01*
X117549500Y-155715701D01*
X117552401Y-155752567D01*
X117552402Y-155752573D01*
X117598254Y-155910393D01*
X117598255Y-155910396D01*
X117681917Y-156051862D01*
X117681923Y-156051870D01*
X117798129Y-156168076D01*
X117798133Y-156168079D01*
X117798135Y-156168081D01*
X117939602Y-156251744D01*
X117981224Y-156263836D01*
X118097426Y-156297597D01*
X118097429Y-156297597D01*
X118097431Y-156297598D01*
X118134306Y-156300500D01*
X118134314Y-156300500D01*
X119265686Y-156300500D01*
X119265694Y-156300500D01*
X119302569Y-156297598D01*
X119302571Y-156297597D01*
X119302573Y-156297597D01*
X119344191Y-156285505D01*
X119460398Y-156251744D01*
X119473573Y-156243951D01*
X119495216Y-156233827D01*
X119496308Y-156233440D01*
X120034641Y-155940575D01*
X120093898Y-155925500D01*
X142580969Y-155925500D01*
X142648008Y-155945185D01*
X142668650Y-155961819D01*
X143438181Y-156731350D01*
X143471666Y-156792673D01*
X143474500Y-156819031D01*
X143474500Y-179473204D01*
X143474499Y-179473222D01*
X143474499Y-179480817D01*
X143474499Y-179619183D01*
X143490011Y-179677073D01*
X143490010Y-179677073D01*
X143510310Y-179752831D01*
X143510313Y-179752838D01*
X143579492Y-179872661D01*
X143579496Y-179872666D01*
X143684400Y-179977570D01*
X143684406Y-179977575D01*
X150438181Y-186731350D01*
X150471666Y-186792673D01*
X150474500Y-186819031D01*
X150474500Y-190014477D01*
X150454815Y-190081516D01*
X150402011Y-190127271D01*
X150332853Y-190137215D01*
X150269297Y-190108190D01*
X150262819Y-190102158D01*
X150168345Y-190007684D01*
X150019124Y-189915643D01*
X150019119Y-189915641D01*
X149852697Y-189860494D01*
X149852690Y-189860493D01*
X149749986Y-189850000D01*
X149450000Y-189850000D01*
X149450000Y-191849999D01*
X149749972Y-191849999D01*
X149749986Y-191849998D01*
X149852697Y-191839505D01*
X150019119Y-191784358D01*
X150019124Y-191784356D01*
X150168345Y-191692315D01*
X150262819Y-191597842D01*
X150324142Y-191564357D01*
X150393834Y-191569341D01*
X150449767Y-191611213D01*
X150474184Y-191676677D01*
X150474500Y-191685523D01*
X150474500Y-192080968D01*
X150454815Y-192148007D01*
X150438181Y-192168649D01*
X149759291Y-192847538D01*
X149722922Y-192872742D01*
X148918510Y-193238385D01*
X148867198Y-193249500D01*
X148634298Y-193249500D01*
X148597432Y-193252401D01*
X148597426Y-193252402D01*
X148439606Y-193298254D01*
X148439603Y-193298255D01*
X148298137Y-193381917D01*
X148298129Y-193381923D01*
X148181923Y-193498129D01*
X148181917Y-193498137D01*
X148098255Y-193639603D01*
X148098254Y-193639606D01*
X148052402Y-193797426D01*
X148052401Y-193797432D01*
X148049500Y-193834298D01*
X148049500Y-194465701D01*
X148052401Y-194502567D01*
X148052402Y-194502573D01*
X148098254Y-194660393D01*
X148098255Y-194660396D01*
X148181917Y-194801862D01*
X148181923Y-194801870D01*
X148298129Y-194918076D01*
X148298133Y-194918079D01*
X148298135Y-194918081D01*
X148439602Y-195001744D01*
X148481224Y-195013836D01*
X148597426Y-195047597D01*
X148597429Y-195047597D01*
X148597431Y-195047598D01*
X148634306Y-195050500D01*
X148634314Y-195050500D01*
X149765686Y-195050500D01*
X149765694Y-195050500D01*
X149802569Y-195047598D01*
X149802571Y-195047597D01*
X149802573Y-195047597D01*
X149844191Y-195035505D01*
X149960398Y-195001744D01*
X150101865Y-194918081D01*
X150218081Y-194801865D01*
X150301744Y-194660398D01*
X150347598Y-194502569D01*
X150350500Y-194465694D01*
X150350500Y-194195075D01*
X150354659Y-194163228D01*
X150499809Y-193617030D01*
X150531966Y-193561201D01*
X151312455Y-192780713D01*
X151312460Y-192780709D01*
X151322663Y-192770505D01*
X151322665Y-192770505D01*
X151420505Y-192672665D01*
X151489688Y-192552836D01*
X151525500Y-192419183D01*
X151525500Y-186629185D01*
X151525501Y-186629172D01*
X151525501Y-186480818D01*
X151523832Y-186474591D01*
X151489688Y-186347165D01*
X151489688Y-186347164D01*
X151489688Y-186347163D01*
X151420507Y-186227338D01*
X151420506Y-186227337D01*
X151420505Y-186227335D01*
X151322665Y-186129495D01*
X151322664Y-186129494D01*
X151318334Y-186125164D01*
X151318323Y-186125154D01*
X145880350Y-180687181D01*
X145846865Y-180625858D01*
X145851849Y-180556166D01*
X145893721Y-180500233D01*
X145959185Y-180475816D01*
X145968031Y-180475500D01*
X145969183Y-180475500D01*
X149865095Y-180475500D01*
X149920166Y-180488400D01*
X150935732Y-180991810D01*
X150987054Y-181039220D01*
X151004597Y-181106851D01*
X150982791Y-181173231D01*
X150936956Y-181213392D01*
X150841658Y-181261950D01*
X150841657Y-181261951D01*
X150841652Y-181261954D01*
X150751954Y-181351652D01*
X150751951Y-181351657D01*
X150694352Y-181464698D01*
X150679500Y-181558475D01*
X150679500Y-183421517D01*
X150690292Y-183489657D01*
X150694354Y-183515304D01*
X150751950Y-183628342D01*
X150751952Y-183628344D01*
X150751954Y-183628347D01*
X150841652Y-183718045D01*
X150841654Y-183718046D01*
X150841658Y-183718050D01*
X150949334Y-183772914D01*
X150954698Y-183775647D01*
X151048475Y-183790499D01*
X151048481Y-183790500D01*
X152911518Y-183790499D01*
X153005304Y-183775646D01*
X153118342Y-183718050D01*
X153208050Y-183628342D01*
X153265646Y-183515304D01*
X153265646Y-183515302D01*
X153265647Y-183515301D01*
X153265647Y-183515300D01*
X153268465Y-183497510D01*
X153298394Y-183434375D01*
X153357705Y-183397443D01*
X153427568Y-183398441D01*
X153478619Y-183429226D01*
X153607636Y-183558243D01*
X153607641Y-183558247D01*
X153763192Y-183671260D01*
X153785978Y-183687815D01*
X153914375Y-183753237D01*
X153982393Y-183787895D01*
X153982396Y-183787896D01*
X154087221Y-183821955D01*
X154192049Y-183856015D01*
X154409778Y-183890500D01*
X154409779Y-183890500D01*
X154630221Y-183890500D01*
X154630222Y-183890500D01*
X154847951Y-183856015D01*
X155057606Y-183787895D01*
X155254022Y-183687815D01*
X155347128Y-183620169D01*
X155402615Y-183579857D01*
X155468421Y-183556377D01*
X155536475Y-183572203D01*
X155585170Y-183622308D01*
X155599500Y-183680175D01*
X155599500Y-190125638D01*
X155579815Y-190192677D01*
X155563181Y-190213319D01*
X148563319Y-197213181D01*
X148501996Y-197246666D01*
X148475638Y-197249500D01*
X143149500Y-197249500D01*
X143082461Y-197229815D01*
X143036706Y-197177011D01*
X143025500Y-197125500D01*
X143025500Y-195256766D01*
X143027050Y-195248881D01*
X143026155Y-195244035D01*
X143034738Y-195209800D01*
X143045708Y-195182996D01*
X143068405Y-195127533D01*
X143112015Y-195072945D01*
X143178215Y-195050599D01*
X143183167Y-195050500D01*
X144865686Y-195050500D01*
X144865694Y-195050500D01*
X144902569Y-195047598D01*
X144902571Y-195047597D01*
X144902573Y-195047597D01*
X144944191Y-195035505D01*
X145060398Y-195001744D01*
X145201865Y-194918081D01*
X145318081Y-194801865D01*
X145401744Y-194660398D01*
X145447598Y-194502569D01*
X145450500Y-194465694D01*
X145450500Y-193834306D01*
X145447598Y-193797431D01*
X145401744Y-193639602D01*
X145318081Y-193498135D01*
X145318079Y-193498133D01*
X145318076Y-193498129D01*
X145201870Y-193381923D01*
X145201862Y-193381917D01*
X145060396Y-193298255D01*
X145060393Y-193298254D01*
X144902573Y-193252402D01*
X144902567Y-193252401D01*
X144865701Y-193249500D01*
X144865694Y-193249500D01*
X144388691Y-193249500D01*
X142411309Y-193249500D01*
X142411306Y-193249500D01*
X142237341Y-193284103D01*
X142237332Y-193284106D01*
X142073459Y-193351983D01*
X142073446Y-193351990D01*
X141925965Y-193450535D01*
X141925961Y-193450538D01*
X141800538Y-193575961D01*
X141800535Y-193575965D01*
X141701990Y-193723446D01*
X141701983Y-193723459D01*
X141634106Y-193887332D01*
X141634103Y-193887341D01*
X141599500Y-194061304D01*
X141599500Y-194238695D01*
X141634103Y-194412658D01*
X141634106Y-194412667D01*
X141701983Y-194576539D01*
X141701985Y-194576543D01*
X141701987Y-194576547D01*
X141701990Y-194576552D01*
X141701991Y-194576553D01*
X141705683Y-194582079D01*
X141717341Y-194604001D01*
X141880116Y-195001744D01*
X141954292Y-195182996D01*
X141965262Y-195209800D01*
X141974500Y-195256766D01*
X141974500Y-197125500D01*
X141954815Y-197192539D01*
X141902011Y-197238294D01*
X141850500Y-197249500D01*
X140524362Y-197249500D01*
X140457323Y-197229815D01*
X140436681Y-197213181D01*
X137574041Y-194350540D01*
X137574038Y-194350537D01*
X137499204Y-194300535D01*
X137426544Y-194251985D01*
X137426542Y-194251984D01*
X137344607Y-194218046D01*
X137344606Y-194218046D01*
X137262666Y-194184105D01*
X137262658Y-194184103D01*
X137088696Y-194149500D01*
X137088692Y-194149500D01*
X137088691Y-194149500D01*
X119324495Y-194149500D01*
X119277046Y-194140062D01*
X119262666Y-194134106D01*
X119262662Y-194134105D01*
X119262658Y-194134103D01*
X119088694Y-194099500D01*
X119088691Y-194099500D01*
X118911309Y-194099500D01*
X118911306Y-194099500D01*
X118737341Y-194134103D01*
X118737337Y-194134105D01*
X118737335Y-194134105D01*
X118737334Y-194134106D01*
X118722953Y-194140062D01*
X118675505Y-194149500D01*
X104324495Y-194149500D01*
X104277046Y-194140062D01*
X104262666Y-194134106D01*
X104262662Y-194134105D01*
X104262658Y-194134103D01*
X104088694Y-194099500D01*
X104088691Y-194099500D01*
X103911309Y-194099500D01*
X103911306Y-194099500D01*
X103737341Y-194134103D01*
X103737337Y-194134105D01*
X103737335Y-194134105D01*
X103737334Y-194134106D01*
X103722953Y-194140062D01*
X103675505Y-194149500D01*
X89324495Y-194149500D01*
X89277046Y-194140062D01*
X89262666Y-194134106D01*
X89262662Y-194134105D01*
X89262658Y-194134103D01*
X89088694Y-194099500D01*
X89088691Y-194099500D01*
X88911309Y-194099500D01*
X88911306Y-194099500D01*
X88737341Y-194134103D01*
X88737337Y-194134105D01*
X88737335Y-194134105D01*
X88737334Y-194134106D01*
X88722953Y-194140062D01*
X88675505Y-194149500D01*
X76911306Y-194149500D01*
X76737341Y-194184103D01*
X76737332Y-194184106D01*
X76573457Y-194251984D01*
X76573456Y-194251985D01*
X76573453Y-194251986D01*
X76573453Y-194251987D01*
X76500795Y-194300536D01*
X76457114Y-194329723D01*
X76425963Y-194350536D01*
X76425960Y-194350539D01*
X73163319Y-197613181D01*
X73101996Y-197646666D01*
X73075638Y-197649500D01*
X65924362Y-197649500D01*
X65857323Y-197629815D01*
X65836681Y-197613181D01*
X63532387Y-195308887D01*
X63517764Y-195282108D01*
X63501194Y-195256489D01*
X63501180Y-195251735D01*
X63498902Y-195247564D01*
X63501078Y-195217129D01*
X63500989Y-195186619D01*
X63503546Y-195182613D01*
X63503886Y-195177872D01*
X63522168Y-195153450D01*
X63538591Y-195127731D01*
X63544079Y-195124181D01*
X63545758Y-195121939D01*
X63568227Y-195108563D01*
X63645620Y-195072945D01*
X63669712Y-195061856D01*
X63721553Y-195050500D01*
X65865686Y-195050500D01*
X65865694Y-195050500D01*
X65902569Y-195047598D01*
X65902571Y-195047597D01*
X65902573Y-195047597D01*
X65944191Y-195035505D01*
X66060398Y-195001744D01*
X66201865Y-194918081D01*
X66318081Y-194801865D01*
X66401744Y-194660398D01*
X66447598Y-194502569D01*
X66450500Y-194465694D01*
X66450500Y-193834306D01*
X66447598Y-193797431D01*
X66401744Y-193639602D01*
X66318081Y-193498135D01*
X66318079Y-193498133D01*
X66318076Y-193498129D01*
X66201870Y-193381923D01*
X66201862Y-193381917D01*
X66060396Y-193298255D01*
X66060393Y-193298254D01*
X65902573Y-193252402D01*
X65902567Y-193252401D01*
X65865701Y-193249500D01*
X65865694Y-193249500D01*
X65388691Y-193249500D01*
X63411309Y-193249500D01*
X63411306Y-193249500D01*
X63237341Y-193284103D01*
X63237332Y-193284106D01*
X63073459Y-193351983D01*
X63073446Y-193351990D01*
X62925965Y-193450535D01*
X62925961Y-193450538D01*
X62800538Y-193575961D01*
X62800535Y-193575965D01*
X62701990Y-193723446D01*
X62701983Y-193723459D01*
X62634107Y-193887329D01*
X62634104Y-193887340D01*
X62631126Y-193902307D01*
X62625726Y-193921351D01*
X62562661Y-194090829D01*
X62520832Y-194146794D01*
X62455386Y-194171261D01*
X62387102Y-194156461D01*
X62358765Y-194135265D01*
X58757798Y-190534298D01*
X64149500Y-190534298D01*
X64149500Y-191165701D01*
X64152401Y-191202567D01*
X64152402Y-191202573D01*
X64198254Y-191360393D01*
X64198255Y-191360396D01*
X64281917Y-191501862D01*
X64281923Y-191501870D01*
X64398129Y-191618076D01*
X64398133Y-191618079D01*
X64398135Y-191618081D01*
X64539602Y-191701744D01*
X64563004Y-191708543D01*
X64697426Y-191747597D01*
X64697429Y-191747597D01*
X64697431Y-191747598D01*
X64734306Y-191750500D01*
X64734314Y-191750500D01*
X65865686Y-191750500D01*
X65865694Y-191750500D01*
X65902569Y-191747598D01*
X65902571Y-191747597D01*
X65902573Y-191747597D01*
X65996559Y-191720291D01*
X66060398Y-191701744D01*
X66201865Y-191618081D01*
X66318081Y-191501865D01*
X66401744Y-191360398D01*
X66447598Y-191202569D01*
X66450500Y-191165694D01*
X66450500Y-191149986D01*
X68950001Y-191149986D01*
X68960494Y-191252697D01*
X69015641Y-191419119D01*
X69015643Y-191419124D01*
X69107684Y-191568345D01*
X69231654Y-191692315D01*
X69380875Y-191784356D01*
X69380880Y-191784358D01*
X69547302Y-191839505D01*
X69547309Y-191839506D01*
X69650019Y-191849999D01*
X69949999Y-191849999D01*
X70450000Y-191849999D01*
X70749972Y-191849999D01*
X70749986Y-191849998D01*
X70852697Y-191839505D01*
X71019119Y-191784358D01*
X71019124Y-191784356D01*
X71168345Y-191692315D01*
X71292315Y-191568345D01*
X71384356Y-191419124D01*
X71384358Y-191419119D01*
X71439505Y-191252697D01*
X71439506Y-191252690D01*
X71449999Y-191149986D01*
X71450000Y-191149973D01*
X71450000Y-191100000D01*
X70450000Y-191100000D01*
X70450000Y-191849999D01*
X69949999Y-191849999D01*
X69950000Y-191849998D01*
X69950000Y-191100000D01*
X68950001Y-191100000D01*
X68950001Y-191149986D01*
X66450500Y-191149986D01*
X66450500Y-190550013D01*
X68950000Y-190550013D01*
X68950000Y-190600000D01*
X69950000Y-190600000D01*
X70450000Y-190600000D01*
X71449999Y-190600000D01*
X71449999Y-190550028D01*
X71449998Y-190550013D01*
X71439505Y-190447302D01*
X71384358Y-190280880D01*
X71384356Y-190280875D01*
X71292315Y-190131654D01*
X71168345Y-190007684D01*
X71019124Y-189915643D01*
X71019119Y-189915641D01*
X70852697Y-189860494D01*
X70852690Y-189860493D01*
X70749986Y-189850000D01*
X70450000Y-189850000D01*
X70450000Y-190600000D01*
X69950000Y-190600000D01*
X69950000Y-189850000D01*
X69650028Y-189850000D01*
X69650012Y-189850001D01*
X69547302Y-189860494D01*
X69380880Y-189915641D01*
X69380875Y-189915643D01*
X69231654Y-190007684D01*
X69107684Y-190131654D01*
X69015643Y-190280875D01*
X69015641Y-190280880D01*
X68960494Y-190447302D01*
X68960493Y-190447309D01*
X68950000Y-190550013D01*
X66450500Y-190550013D01*
X66450500Y-190534306D01*
X66447598Y-190497431D01*
X66445348Y-190489688D01*
X66401745Y-190339606D01*
X66401744Y-190339603D01*
X66401744Y-190339602D01*
X66318081Y-190198135D01*
X66318079Y-190198133D01*
X66318076Y-190198129D01*
X66201870Y-190081923D01*
X66201862Y-190081917D01*
X66060396Y-189998255D01*
X66060393Y-189998254D01*
X65902573Y-189952402D01*
X65902567Y-189952401D01*
X65865701Y-189949500D01*
X65865694Y-189949500D01*
X64734306Y-189949500D01*
X64734298Y-189949500D01*
X64697432Y-189952401D01*
X64697426Y-189952402D01*
X64539606Y-189998254D01*
X64539603Y-189998255D01*
X64398137Y-190081917D01*
X64398129Y-190081923D01*
X64281923Y-190198129D01*
X64281917Y-190198137D01*
X64198255Y-190339603D01*
X64198254Y-190339606D01*
X64152402Y-190497426D01*
X64152401Y-190497432D01*
X64149500Y-190534298D01*
X58757798Y-190534298D01*
X58436819Y-190213319D01*
X58403334Y-190151996D01*
X58400500Y-190125638D01*
X58400500Y-183680175D01*
X58420185Y-183613136D01*
X58472989Y-183567381D01*
X58542147Y-183557437D01*
X58597385Y-183579857D01*
X58664120Y-183628342D01*
X58745978Y-183687815D01*
X58874375Y-183753237D01*
X58942393Y-183787895D01*
X58942396Y-183787896D01*
X59047221Y-183821955D01*
X59152049Y-183856015D01*
X59369778Y-183890500D01*
X59369779Y-183890500D01*
X59590221Y-183890500D01*
X59590222Y-183890500D01*
X59807951Y-183856015D01*
X60017606Y-183787895D01*
X60214022Y-183687815D01*
X60304185Y-183622308D01*
X60382953Y-183565081D01*
X60382954Y-183565080D01*
X60392361Y-183558245D01*
X60392361Y-183558244D01*
X60392365Y-183558242D01*
X60548242Y-183402365D01*
X60588188Y-183347383D01*
X60643514Y-183304719D01*
X60713127Y-183298738D01*
X60774923Y-183331343D01*
X60788823Y-183347384D01*
X60797338Y-183359104D01*
X60797340Y-183359105D01*
X61496212Y-182660233D01*
X61507482Y-182702292D01*
X61579890Y-182827708D01*
X61682292Y-182930110D01*
X61807708Y-183002518D01*
X61849765Y-183013787D01*
X61150893Y-183712658D01*
X61233828Y-183772914D01*
X61444197Y-183880102D01*
X61668752Y-183953065D01*
X61668751Y-183953065D01*
X61901948Y-183990000D01*
X62138052Y-183990000D01*
X62371247Y-183953065D01*
X62595802Y-183880102D01*
X62806163Y-183772918D01*
X62806169Y-183772914D01*
X62889104Y-183712658D01*
X62889105Y-183712658D01*
X62190233Y-183013787D01*
X62232292Y-183002518D01*
X62357708Y-182930110D01*
X62460110Y-182827708D01*
X62532518Y-182702292D01*
X62543787Y-182660234D01*
X63242658Y-183359105D01*
X63242658Y-183359104D01*
X63302914Y-183276169D01*
X63302918Y-183276163D01*
X63410102Y-183065802D01*
X63483065Y-182841247D01*
X63520000Y-182608052D01*
X63520000Y-182371947D01*
X63483065Y-182138752D01*
X63410102Y-181914197D01*
X63302914Y-181703828D01*
X63242658Y-181620894D01*
X63242658Y-181620893D01*
X62543787Y-182319765D01*
X62532518Y-182277708D01*
X62460110Y-182152292D01*
X62357708Y-182049890D01*
X62232292Y-181977482D01*
X62190234Y-181966212D01*
X62889105Y-181267340D01*
X62888537Y-181260124D01*
X62857799Y-181220264D01*
X62851819Y-181150651D01*
X62884425Y-181088856D01*
X62918279Y-181064175D01*
X63039316Y-181004178D01*
X63855703Y-180599500D01*
X64079833Y-180488400D01*
X64134904Y-180475500D01*
X68850500Y-180475500D01*
X68917539Y-180495185D01*
X68963294Y-180547989D01*
X68974500Y-180599500D01*
X68974500Y-186223204D01*
X68974499Y-186223222D01*
X68974499Y-186230817D01*
X68974499Y-186369183D01*
X69002743Y-186474591D01*
X69004412Y-186480818D01*
X69010313Y-186502840D01*
X69079492Y-186622661D01*
X69079496Y-186622666D01*
X69184400Y-186727570D01*
X69184406Y-186727575D01*
X72779493Y-190322662D01*
X72779495Y-190322665D01*
X72877335Y-190420505D01*
X72942665Y-190458223D01*
X72950969Y-190465189D01*
X72964562Y-190485613D01*
X72981492Y-190503369D01*
X72983576Y-190514184D01*
X72989680Y-190523355D01*
X72990072Y-190547885D01*
X72994716Y-190571976D01*
X72990621Y-190582202D01*
X72990798Y-190593216D01*
X72977866Y-190614063D01*
X72968748Y-190636841D01*
X72958958Y-190647871D01*
X70759291Y-192847538D01*
X70722922Y-192872742D01*
X69918510Y-193238385D01*
X69867198Y-193249500D01*
X69634298Y-193249500D01*
X69597432Y-193252401D01*
X69597426Y-193252402D01*
X69439606Y-193298254D01*
X69439603Y-193298255D01*
X69298137Y-193381917D01*
X69298129Y-193381923D01*
X69181923Y-193498129D01*
X69181917Y-193498137D01*
X69098255Y-193639603D01*
X69098254Y-193639606D01*
X69052402Y-193797426D01*
X69052401Y-193797432D01*
X69049500Y-193834298D01*
X69049500Y-194465701D01*
X69052401Y-194502567D01*
X69052402Y-194502573D01*
X69098254Y-194660393D01*
X69098255Y-194660396D01*
X69181917Y-194801862D01*
X69181923Y-194801870D01*
X69298129Y-194918076D01*
X69298133Y-194918079D01*
X69298135Y-194918081D01*
X69439602Y-195001744D01*
X69481224Y-195013836D01*
X69597426Y-195047597D01*
X69597429Y-195047597D01*
X69597431Y-195047598D01*
X69634306Y-195050500D01*
X69634314Y-195050500D01*
X70765686Y-195050500D01*
X70765694Y-195050500D01*
X70802569Y-195047598D01*
X70802571Y-195047597D01*
X70802573Y-195047597D01*
X70844191Y-195035505D01*
X70960398Y-195001744D01*
X71101865Y-194918081D01*
X71218081Y-194801865D01*
X71301744Y-194660398D01*
X71347598Y-194502569D01*
X71350500Y-194465694D01*
X71350500Y-194195075D01*
X71354659Y-194163228D01*
X71499809Y-193617030D01*
X71531966Y-193561201D01*
X73681350Y-191411819D01*
X73742673Y-191378334D01*
X73769031Y-191375500D01*
X142906101Y-191375500D01*
X142965358Y-191390575D01*
X143503691Y-191683440D01*
X143521134Y-191690822D01*
X143539602Y-191701744D01*
X143563007Y-191708543D01*
X143576674Y-191714328D01*
X143581016Y-191715683D01*
X143589272Y-191717061D01*
X143603437Y-191720289D01*
X143697431Y-191747598D01*
X143734306Y-191750500D01*
X143734314Y-191750500D01*
X144865686Y-191750500D01*
X144865694Y-191750500D01*
X144902569Y-191747598D01*
X144902571Y-191747597D01*
X144902573Y-191747597D01*
X144996559Y-191720291D01*
X145060398Y-191701744D01*
X145201865Y-191618081D01*
X145318081Y-191501865D01*
X145401744Y-191360398D01*
X145447598Y-191202569D01*
X145450500Y-191165694D01*
X145450500Y-191149986D01*
X147950001Y-191149986D01*
X147960494Y-191252697D01*
X148015641Y-191419119D01*
X148015643Y-191419124D01*
X148107684Y-191568345D01*
X148231654Y-191692315D01*
X148380875Y-191784356D01*
X148380880Y-191784358D01*
X148547302Y-191839505D01*
X148547309Y-191839506D01*
X148650019Y-191849999D01*
X148949999Y-191849999D01*
X148950000Y-191849998D01*
X148950000Y-191100000D01*
X147950001Y-191100000D01*
X147950001Y-191149986D01*
X145450500Y-191149986D01*
X145450500Y-190550013D01*
X147950000Y-190550013D01*
X147950000Y-190600000D01*
X148950000Y-190600000D01*
X148950000Y-189850000D01*
X148650028Y-189850000D01*
X148650012Y-189850001D01*
X148547302Y-189860494D01*
X148380880Y-189915641D01*
X148380875Y-189915643D01*
X148231654Y-190007684D01*
X148107684Y-190131654D01*
X148015643Y-190280875D01*
X148015641Y-190280880D01*
X147960494Y-190447302D01*
X147960493Y-190447309D01*
X147950000Y-190550013D01*
X145450500Y-190550013D01*
X145450500Y-190534306D01*
X145447598Y-190497431D01*
X145445348Y-190489688D01*
X145401745Y-190339606D01*
X145401744Y-190339603D01*
X145401744Y-190339602D01*
X145318081Y-190198135D01*
X145318079Y-190198133D01*
X145318076Y-190198129D01*
X145201870Y-190081923D01*
X145201862Y-190081917D01*
X145060396Y-189998255D01*
X145060393Y-189998254D01*
X144902573Y-189952402D01*
X144902567Y-189952401D01*
X144865701Y-189949500D01*
X144865694Y-189949500D01*
X143734306Y-189949500D01*
X143734298Y-189949500D01*
X143697432Y-189952401D01*
X143697426Y-189952402D01*
X143539607Y-189998254D01*
X143539595Y-189998258D01*
X143526434Y-190006042D01*
X143504825Y-190016154D01*
X143503696Y-190016554D01*
X142965358Y-190309424D01*
X142906100Y-190324500D01*
X124375966Y-190324500D01*
X124308927Y-190304815D01*
X124263172Y-190252011D01*
X124253228Y-190182853D01*
X124264278Y-190146632D01*
X124357957Y-189952401D01*
X124411420Y-189841552D01*
X124435423Y-189807745D01*
X125140505Y-189102665D01*
X125209689Y-188982835D01*
X125245501Y-188849183D01*
X125245501Y-188710816D01*
X125245501Y-188703221D01*
X125245500Y-188703203D01*
X125245500Y-170747394D01*
X125252434Y-170706510D01*
X125432272Y-170191571D01*
X125441658Y-170168913D01*
X125443977Y-170157251D01*
X125449920Y-170138162D01*
X125450343Y-170136619D01*
X125461829Y-170078176D01*
X125461828Y-170078170D01*
X125462392Y-170071040D01*
X125463036Y-170071090D01*
X125464330Y-170054932D01*
X125470500Y-170023918D01*
X125470500Y-169876079D01*
X125441659Y-169731092D01*
X125441658Y-169731091D01*
X125441658Y-169731087D01*
X125401612Y-169634406D01*
X125385087Y-169594511D01*
X125385080Y-169594498D01*
X125302951Y-169471584D01*
X125302948Y-169471580D01*
X125198419Y-169367051D01*
X125198415Y-169367048D01*
X125075501Y-169284919D01*
X125075488Y-169284912D01*
X124938917Y-169228343D01*
X124938907Y-169228340D01*
X124793920Y-169199500D01*
X124793918Y-169199500D01*
X124646082Y-169199500D01*
X124646080Y-169199500D01*
X124501092Y-169228340D01*
X124501082Y-169228343D01*
X124364511Y-169284912D01*
X124364498Y-169284919D01*
X124241584Y-169367048D01*
X124241580Y-169367051D01*
X124137051Y-169471580D01*
X124137048Y-169471584D01*
X124054919Y-169594498D01*
X124054912Y-169594511D01*
X123998343Y-169731082D01*
X123998340Y-169731092D01*
X123969500Y-169876079D01*
X123969500Y-169876082D01*
X123969500Y-170023918D01*
X123969500Y-170023920D01*
X123969499Y-170023920D01*
X123998340Y-170168907D01*
X123998343Y-170168917D01*
X124006375Y-170188308D01*
X124008879Y-170194873D01*
X124187235Y-170705564D01*
X124187566Y-170706510D01*
X124194500Y-170747395D01*
X124194500Y-188510967D01*
X124174815Y-188578006D01*
X124158181Y-188598648D01*
X123692259Y-189064569D01*
X123658446Y-189088576D01*
X123218063Y-189300978D01*
X123205080Y-189306356D01*
X122743488Y-189467566D01*
X122702603Y-189474500D01*
X109087230Y-189474500D01*
X109020191Y-189454815D01*
X108999549Y-189438181D01*
X108978419Y-189417051D01*
X108978415Y-189417048D01*
X108855501Y-189334919D01*
X108855488Y-189334912D01*
X108718917Y-189278343D01*
X108718907Y-189278340D01*
X108573920Y-189249500D01*
X108573918Y-189249500D01*
X108426082Y-189249500D01*
X108426080Y-189249500D01*
X108281092Y-189278340D01*
X108281082Y-189278343D01*
X108144511Y-189334912D01*
X108144498Y-189334919D01*
X108021584Y-189417048D01*
X108021580Y-189417051D01*
X108000451Y-189438181D01*
X107939128Y-189471666D01*
X107912770Y-189474500D01*
X94087230Y-189474500D01*
X94020191Y-189454815D01*
X93999549Y-189438181D01*
X93978419Y-189417051D01*
X93978415Y-189417048D01*
X93855501Y-189334919D01*
X93855488Y-189334912D01*
X93718917Y-189278343D01*
X93718907Y-189278340D01*
X93573920Y-189249500D01*
X93573918Y-189249500D01*
X93426082Y-189249500D01*
X93426080Y-189249500D01*
X93281092Y-189278340D01*
X93281082Y-189278343D01*
X93144511Y-189334912D01*
X93144498Y-189334919D01*
X93021584Y-189417048D01*
X93021580Y-189417051D01*
X93000451Y-189438181D01*
X92939128Y-189471666D01*
X92912770Y-189474500D01*
X73469031Y-189474500D01*
X73401992Y-189454815D01*
X73381350Y-189438181D01*
X70061819Y-186118650D01*
X70028334Y-186057327D01*
X70025500Y-186030969D01*
X70025500Y-171129185D01*
X70025501Y-171129172D01*
X70025501Y-170980818D01*
X69989688Y-170847165D01*
X69989688Y-170847163D01*
X69920507Y-170727338D01*
X69920506Y-170727337D01*
X69920505Y-170727335D01*
X69822665Y-170629495D01*
X69822664Y-170629494D01*
X69818334Y-170625164D01*
X69818323Y-170625154D01*
X68827575Y-169634406D01*
X68827573Y-169634403D01*
X68722666Y-169529496D01*
X68722661Y-169529492D01*
X68602840Y-169460313D01*
X68574592Y-169452743D01*
X68574591Y-169452743D01*
X68469183Y-169424499D01*
X68330817Y-169424499D01*
X68323221Y-169424499D01*
X68323205Y-169424500D01*
X64134906Y-169424500D01*
X64079835Y-169411600D01*
X63064269Y-168908190D01*
X63012946Y-168860779D01*
X62995403Y-168793148D01*
X63017209Y-168726768D01*
X63063043Y-168686607D01*
X63158342Y-168638050D01*
X63248050Y-168548342D01*
X63305646Y-168435304D01*
X63305646Y-168435302D01*
X63305647Y-168435301D01*
X63320499Y-168341524D01*
X63320500Y-168341519D01*
X63320499Y-166478482D01*
X63305646Y-166384696D01*
X63248050Y-166271658D01*
X63248046Y-166271654D01*
X63248045Y-166271652D01*
X63158347Y-166181954D01*
X63158344Y-166181952D01*
X63158342Y-166181950D01*
X63081517Y-166142805D01*
X63045301Y-166124352D01*
X62951524Y-166109500D01*
X61088482Y-166109500D01*
X61007519Y-166122323D01*
X60994696Y-166124354D01*
X60881658Y-166181950D01*
X60881657Y-166181951D01*
X60881652Y-166181954D01*
X60791954Y-166271652D01*
X60791951Y-166271657D01*
X60791950Y-166271658D01*
X60734354Y-166384696D01*
X60734353Y-166384698D01*
X60731534Y-166402494D01*
X60701602Y-166465628D01*
X60642289Y-166502557D01*
X60572426Y-166501557D01*
X60521380Y-166470773D01*
X60392363Y-166341756D01*
X60392358Y-166341752D01*
X60214025Y-166212187D01*
X60214024Y-166212186D01*
X60214022Y-166212185D01*
X60151096Y-166180122D01*
X60017606Y-166112104D01*
X60017603Y-166112103D01*
X59807952Y-166043985D01*
X59699086Y-166026742D01*
X59590222Y-166009500D01*
X59369778Y-166009500D01*
X59304134Y-166019897D01*
X59152047Y-166043985D01*
X58942396Y-166112103D01*
X58942393Y-166112104D01*
X58745978Y-166212184D01*
X58597385Y-166320143D01*
X58531578Y-166343622D01*
X58463524Y-166327796D01*
X58414830Y-166277690D01*
X58400500Y-166219824D01*
X58400500Y-155699986D01*
X112550001Y-155699986D01*
X112560494Y-155802697D01*
X112615641Y-155969119D01*
X112615643Y-155969124D01*
X112707684Y-156118345D01*
X112831654Y-156242315D01*
X112980875Y-156334356D01*
X112980880Y-156334358D01*
X113147302Y-156389505D01*
X113147309Y-156389506D01*
X113250019Y-156399999D01*
X113549999Y-156399999D01*
X114050000Y-156399999D01*
X114349972Y-156399999D01*
X114349986Y-156399998D01*
X114452697Y-156389505D01*
X114619119Y-156334358D01*
X114619124Y-156334356D01*
X114768345Y-156242315D01*
X114892315Y-156118345D01*
X114984356Y-155969124D01*
X114984358Y-155969119D01*
X115039505Y-155802697D01*
X115039506Y-155802690D01*
X115049999Y-155699986D01*
X115050000Y-155699973D01*
X115050000Y-155650000D01*
X114050000Y-155650000D01*
X114050000Y-156399999D01*
X113549999Y-156399999D01*
X113550000Y-156399998D01*
X113550000Y-155650000D01*
X112550001Y-155650000D01*
X112550001Y-155699986D01*
X58400500Y-155699986D01*
X58400500Y-155100013D01*
X112550000Y-155100013D01*
X112550000Y-155150000D01*
X113550000Y-155150000D01*
X114050000Y-155150000D01*
X115049999Y-155150000D01*
X115049999Y-155100028D01*
X115049998Y-155100013D01*
X115039505Y-154997302D01*
X114984358Y-154830880D01*
X114984356Y-154830875D01*
X114892315Y-154681654D01*
X114768345Y-154557684D01*
X114619124Y-154465643D01*
X114619119Y-154465641D01*
X114452697Y-154410494D01*
X114452690Y-154410493D01*
X114349986Y-154400000D01*
X114050000Y-154400000D01*
X114050000Y-155150000D01*
X113550000Y-155150000D01*
X113550000Y-154400000D01*
X113250028Y-154400000D01*
X113250012Y-154400001D01*
X113147302Y-154410494D01*
X112980880Y-154465641D01*
X112980875Y-154465643D01*
X112831654Y-154557684D01*
X112707684Y-154681654D01*
X112615643Y-154830875D01*
X112615641Y-154830880D01*
X112560494Y-154997302D01*
X112560493Y-154997309D01*
X112550000Y-155100013D01*
X58400500Y-155100013D01*
X58400500Y-136024500D01*
X58420185Y-135957461D01*
X58472989Y-135911706D01*
X58524500Y-135900500D01*
X62333693Y-135900500D01*
X62333694Y-135900499D01*
X62391682Y-135888964D01*
X62507658Y-135865896D01*
X62507661Y-135865894D01*
X62507666Y-135865894D01*
X62671547Y-135798013D01*
X62819035Y-135699464D01*
X62944464Y-135574035D01*
X63043013Y-135426547D01*
X63110894Y-135262666D01*
X63145500Y-135088691D01*
X63145500Y-134911309D01*
X63145500Y-134911308D01*
X63145500Y-134906308D01*
X63110895Y-134732334D01*
X63043012Y-134568453D01*
X62944464Y-134420964D01*
X62944459Y-134420958D01*
X62819041Y-134295540D01*
X62819034Y-134295534D01*
X62671548Y-134196988D01*
X62507666Y-134129105D01*
X62507658Y-134129103D01*
X62333696Y-134094500D01*
X62333692Y-134094500D01*
X62156308Y-134094500D01*
X62156307Y-134094500D01*
X62143151Y-134097117D01*
X62118959Y-134099500D01*
X58524500Y-134099500D01*
X58457461Y-134079815D01*
X58411706Y-134027011D01*
X58400500Y-133975500D01*
X58400500Y-116573920D01*
X59649499Y-116573920D01*
X59678340Y-116718907D01*
X59678343Y-116718917D01*
X59734912Y-116855488D01*
X59734919Y-116855501D01*
X59817048Y-116978415D01*
X59817051Y-116978419D01*
X59921580Y-117082948D01*
X59921584Y-117082951D01*
X60044498Y-117165080D01*
X60044511Y-117165087D01*
X60181082Y-117221656D01*
X60181087Y-117221658D01*
X60181091Y-117221658D01*
X60181092Y-117221659D01*
X60326079Y-117250500D01*
X60326082Y-117250500D01*
X60473920Y-117250500D01*
X60571462Y-117231096D01*
X60618913Y-117221658D01*
X60638362Y-117213601D01*
X60644862Y-117211122D01*
X61011861Y-117082951D01*
X61156509Y-117032434D01*
X61197393Y-117025500D01*
X100068949Y-117025500D01*
X100135988Y-117045185D01*
X100181743Y-117097989D01*
X100191687Y-117167147D01*
X100169267Y-117222384D01*
X100137773Y-117265733D01*
X100080476Y-117344594D01*
X99991117Y-117519970D01*
X99930290Y-117707173D01*
X99899500Y-117901577D01*
X99899500Y-118098422D01*
X99930290Y-118292826D01*
X99991117Y-118480029D01*
X100061781Y-118618714D01*
X100080476Y-118655405D01*
X100196172Y-118814646D01*
X100335354Y-118953828D01*
X100494595Y-119069524D01*
X100577455Y-119111743D01*
X100669970Y-119158882D01*
X100669972Y-119158882D01*
X100669975Y-119158884D01*
X100728962Y-119178050D01*
X100857173Y-119219709D01*
X101051578Y-119250500D01*
X101051583Y-119250500D01*
X101248422Y-119250500D01*
X101442826Y-119219709D01*
X101630025Y-119158884D01*
X101805405Y-119069524D01*
X101964646Y-118953828D01*
X102103828Y-118814646D01*
X102219524Y-118655405D01*
X102308884Y-118480025D01*
X102309515Y-118478787D01*
X102357489Y-118427990D01*
X102425310Y-118411195D01*
X102491445Y-118433732D01*
X102530485Y-118478787D01*
X102620474Y-118655403D01*
X102624817Y-118661380D01*
X102736172Y-118814646D01*
X102875354Y-118953828D01*
X103034595Y-119069524D01*
X103117455Y-119111743D01*
X103209970Y-119158882D01*
X103209972Y-119158882D01*
X103209975Y-119158884D01*
X103268962Y-119178050D01*
X103397173Y-119219709D01*
X103591578Y-119250500D01*
X103591583Y-119250500D01*
X103788422Y-119250500D01*
X103982826Y-119219709D01*
X104170025Y-119158884D01*
X104345405Y-119069524D01*
X104504646Y-118953828D01*
X104643828Y-118814646D01*
X104759524Y-118655405D01*
X104848884Y-118480025D01*
X104849515Y-118478787D01*
X104897489Y-118427990D01*
X104965310Y-118411195D01*
X105031445Y-118433732D01*
X105070485Y-118478787D01*
X105160474Y-118655403D01*
X105164817Y-118661380D01*
X105276172Y-118814646D01*
X105415354Y-118953828D01*
X105574595Y-119069524D01*
X105657455Y-119111743D01*
X105749970Y-119158882D01*
X105749972Y-119158882D01*
X105749975Y-119158884D01*
X105808962Y-119178050D01*
X105937173Y-119219709D01*
X106131578Y-119250500D01*
X106131583Y-119250500D01*
X106328422Y-119250500D01*
X106522826Y-119219709D01*
X106710025Y-119158884D01*
X106885405Y-119069524D01*
X107044646Y-118953828D01*
X107183828Y-118814646D01*
X107299524Y-118655405D01*
X107333679Y-118588370D01*
X107381652Y-118537575D01*
X107449473Y-118520779D01*
X107515608Y-118543316D01*
X107554648Y-118588370D01*
X107615370Y-118707542D01*
X107615373Y-118707547D01*
X107654728Y-118761716D01*
X108287036Y-118129407D01*
X108304075Y-118192993D01*
X108369901Y-118307007D01*
X108462993Y-118400099D01*
X108577007Y-118465925D01*
X108640590Y-118482962D01*
X108008282Y-119115269D01*
X108008282Y-119115270D01*
X108062449Y-119154624D01*
X108251782Y-119251095D01*
X108453870Y-119316757D01*
X108663754Y-119350000D01*
X108876246Y-119350000D01*
X109086127Y-119316757D01*
X109086130Y-119316757D01*
X109288217Y-119251095D01*
X109477554Y-119154622D01*
X109531716Y-119115270D01*
X109531717Y-119115270D01*
X108899408Y-118482962D01*
X108962993Y-118465925D01*
X109077007Y-118400099D01*
X109170099Y-118307007D01*
X109235925Y-118192993D01*
X109252962Y-118129409D01*
X109885270Y-118761717D01*
X109885270Y-118761716D01*
X109924622Y-118707554D01*
X109985350Y-118588370D01*
X110033324Y-118537574D01*
X110101145Y-118520779D01*
X110167280Y-118543316D01*
X110206320Y-118588370D01*
X110240476Y-118655405D01*
X110356172Y-118814646D01*
X110495354Y-118953828D01*
X110654595Y-119069524D01*
X110737455Y-119111743D01*
X110829970Y-119158882D01*
X110829972Y-119158882D01*
X110829975Y-119158884D01*
X110888962Y-119178050D01*
X111017173Y-119219709D01*
X111211578Y-119250500D01*
X111211583Y-119250500D01*
X111408422Y-119250500D01*
X111602826Y-119219709D01*
X111790025Y-119158884D01*
X111965405Y-119069524D01*
X112124646Y-118953828D01*
X112263828Y-118814646D01*
X112375184Y-118661378D01*
X112430512Y-118618714D01*
X112500125Y-118612735D01*
X112561920Y-118645341D01*
X112596277Y-118706179D01*
X112599500Y-118734264D01*
X112599500Y-118881517D01*
X112610292Y-118949657D01*
X112614354Y-118975304D01*
X112671950Y-119088342D01*
X112671952Y-119088344D01*
X112671954Y-119088347D01*
X112761652Y-119178045D01*
X112761654Y-119178046D01*
X112761658Y-119178050D01*
X112858379Y-119227332D01*
X112874698Y-119235647D01*
X112968475Y-119250499D01*
X112968481Y-119250500D01*
X114731518Y-119250499D01*
X114825304Y-119235646D01*
X114938342Y-119178050D01*
X115028050Y-119088342D01*
X115085646Y-118975304D01*
X115085646Y-118975302D01*
X115085647Y-118975301D01*
X115100499Y-118881524D01*
X115100500Y-118881519D01*
X115100499Y-117118482D01*
X115085646Y-117024696D01*
X115028050Y-116911658D01*
X115028046Y-116911654D01*
X115028045Y-116911652D01*
X114938347Y-116821954D01*
X114938344Y-116821952D01*
X114938342Y-116821950D01*
X114855813Y-116779899D01*
X114825301Y-116764352D01*
X114731524Y-116749500D01*
X112968482Y-116749500D01*
X112887519Y-116762323D01*
X112874696Y-116764354D01*
X112761658Y-116821950D01*
X112761657Y-116821951D01*
X112761652Y-116821954D01*
X112671954Y-116911652D01*
X112671951Y-116911657D01*
X112671950Y-116911658D01*
X112652751Y-116949337D01*
X112614352Y-117024698D01*
X112599500Y-117118475D01*
X112599500Y-117265733D01*
X112579815Y-117332772D01*
X112527011Y-117378527D01*
X112457853Y-117388471D01*
X112394297Y-117359446D01*
X112375182Y-117338619D01*
X112370934Y-117332772D01*
X112263828Y-117185354D01*
X112124646Y-117046172D01*
X111965405Y-116930476D01*
X111790029Y-116841117D01*
X111602820Y-116780289D01*
X111601196Y-116779899D01*
X111589073Y-116776324D01*
X110971588Y-116559491D01*
X110849146Y-116516495D01*
X110792416Y-116475712D01*
X110766741Y-116410731D01*
X110780272Y-116342184D01*
X110828715Y-116291835D01*
X110890231Y-116275500D01*
X115930969Y-116275500D01*
X115998008Y-116295185D01*
X116018650Y-116311819D01*
X119438181Y-119731350D01*
X119471666Y-119792673D01*
X119474500Y-119819031D01*
X119474500Y-120412770D01*
X119454815Y-120479809D01*
X119438181Y-120500451D01*
X119417051Y-120521580D01*
X119417048Y-120521584D01*
X119334919Y-120644498D01*
X119334912Y-120644511D01*
X119278343Y-120781082D01*
X119278340Y-120781092D01*
X119249500Y-120926079D01*
X119249500Y-120926082D01*
X119249500Y-121073918D01*
X119249500Y-121073920D01*
X119249499Y-121073920D01*
X119278340Y-121218907D01*
X119278343Y-121218917D01*
X119334912Y-121355488D01*
X119334919Y-121355501D01*
X119417047Y-121478414D01*
X119417048Y-121478415D01*
X119417049Y-121478416D01*
X119438181Y-121499548D01*
X119471666Y-121560869D01*
X119474500Y-121587229D01*
X119474500Y-132830968D01*
X119454815Y-132898007D01*
X119438181Y-132918649D01*
X104542260Y-147814569D01*
X104508447Y-147838576D01*
X104020951Y-148073701D01*
X104020863Y-148073744D01*
X104017151Y-148075535D01*
X103994505Y-148084916D01*
X103984613Y-148091525D01*
X103977619Y-148095200D01*
X103977574Y-148095223D01*
X103966737Y-148100919D01*
X103965378Y-148101694D01*
X103965340Y-148101718D01*
X103916116Y-148134784D01*
X103910685Y-148139421D01*
X103910271Y-148138936D01*
X103897915Y-148149453D01*
X103871590Y-148167043D01*
X103871588Y-148167044D01*
X103767047Y-148271585D01*
X103684919Y-148394498D01*
X103684912Y-148394511D01*
X103628343Y-148531082D01*
X103628340Y-148531092D01*
X103599500Y-148676079D01*
X103599500Y-148676082D01*
X103599500Y-148823918D01*
X103599500Y-148823920D01*
X103599499Y-148823920D01*
X103628340Y-148968907D01*
X103628343Y-148968917D01*
X103684912Y-149105488D01*
X103684919Y-149105501D01*
X103767048Y-149228415D01*
X103767051Y-149228419D01*
X103871580Y-149332948D01*
X103871584Y-149332951D01*
X103994498Y-149415080D01*
X103994511Y-149415087D01*
X104131082Y-149471656D01*
X104131087Y-149471658D01*
X104131091Y-149471658D01*
X104131092Y-149471659D01*
X104276079Y-149500500D01*
X104276082Y-149500500D01*
X104423920Y-149500500D01*
X104521462Y-149481096D01*
X104568913Y-149471658D01*
X104705495Y-149415084D01*
X104828416Y-149332951D01*
X104932951Y-149228416D01*
X105015084Y-149105495D01*
X105023133Y-149086059D01*
X105025986Y-149079688D01*
X105261420Y-148591551D01*
X105285423Y-148557744D01*
X113062821Y-140780347D01*
X113124142Y-140746864D01*
X113193834Y-140751848D01*
X113249767Y-140793720D01*
X113274184Y-140859184D01*
X113274500Y-140868030D01*
X113274500Y-150916832D01*
X113254815Y-150983871D01*
X113249700Y-150991232D01*
X113085006Y-151210823D01*
X113045129Y-151242278D01*
X113046316Y-151244285D01*
X112898138Y-151331916D01*
X112898129Y-151331923D01*
X112781923Y-151448129D01*
X112781917Y-151448137D01*
X112698255Y-151589603D01*
X112698254Y-151589606D01*
X112652402Y-151747426D01*
X112652401Y-151747432D01*
X112649500Y-151784298D01*
X112649500Y-152415701D01*
X112652401Y-152452567D01*
X112652402Y-152452573D01*
X112698254Y-152610393D01*
X112698255Y-152610396D01*
X112781917Y-152751862D01*
X112781923Y-152751870D01*
X112898129Y-152868076D01*
X112898133Y-152868079D01*
X112898135Y-152868081D01*
X113039602Y-152951744D01*
X113081224Y-152963836D01*
X113197426Y-152997597D01*
X113197429Y-152997597D01*
X113197431Y-152997598D01*
X113234306Y-153000500D01*
X113234314Y-153000500D01*
X114365686Y-153000500D01*
X114365694Y-153000500D01*
X114402569Y-152997598D01*
X114402571Y-152997597D01*
X114402573Y-152997597D01*
X114444191Y-152985505D01*
X114560398Y-152951744D01*
X114701865Y-152868081D01*
X114818081Y-152751865D01*
X114901744Y-152610398D01*
X114947598Y-152452569D01*
X114950500Y-152415694D01*
X114950500Y-151784306D01*
X114947598Y-151747431D01*
X114901744Y-151589602D01*
X114818081Y-151448135D01*
X114818079Y-151448133D01*
X114818076Y-151448129D01*
X114701870Y-151331923D01*
X114701861Y-151331916D01*
X114553684Y-151244285D01*
X114554871Y-151242276D01*
X114514992Y-151210823D01*
X114417003Y-151080170D01*
X114350300Y-150991232D01*
X114325824Y-150925789D01*
X114325500Y-150916832D01*
X114325500Y-140769030D01*
X114345185Y-140701991D01*
X114361814Y-140681354D01*
X121512455Y-133530712D01*
X121512460Y-133530709D01*
X121522663Y-133520505D01*
X121522665Y-133520505D01*
X121620505Y-133422665D01*
X121689688Y-133302836D01*
X121725500Y-133169183D01*
X121725500Y-113333165D01*
X121745185Y-113266126D01*
X121750299Y-113258766D01*
X121914990Y-113039176D01*
X121954872Y-113007729D01*
X121953682Y-113005716D01*
X122003527Y-112976237D01*
X122101865Y-112918081D01*
X122218081Y-112801865D01*
X122301744Y-112660398D01*
X122347598Y-112502569D01*
X122350500Y-112465694D01*
X122350500Y-111834306D01*
X122347598Y-111797431D01*
X122333034Y-111747303D01*
X122301745Y-111639606D01*
X122301744Y-111639603D01*
X122301744Y-111639602D01*
X122218081Y-111498135D01*
X122218079Y-111498133D01*
X122218076Y-111498129D01*
X122101870Y-111381923D01*
X122101862Y-111381917D01*
X121991338Y-111316554D01*
X121960398Y-111298256D01*
X121960397Y-111298255D01*
X121960396Y-111298255D01*
X121960393Y-111298254D01*
X121802573Y-111252402D01*
X121802567Y-111252401D01*
X121765701Y-111249500D01*
X121765694Y-111249500D01*
X120634306Y-111249500D01*
X120634298Y-111249500D01*
X120597432Y-111252401D01*
X120597426Y-111252402D01*
X120439606Y-111298254D01*
X120439603Y-111298255D01*
X120298137Y-111381917D01*
X120298129Y-111381923D01*
X120181923Y-111498129D01*
X120181917Y-111498137D01*
X120098255Y-111639603D01*
X120098254Y-111639606D01*
X120052402Y-111797426D01*
X120052401Y-111797432D01*
X120049500Y-111834298D01*
X120049500Y-112465701D01*
X120052401Y-112502567D01*
X120052402Y-112502573D01*
X120098254Y-112660393D01*
X120098255Y-112660396D01*
X120181917Y-112801862D01*
X120181923Y-112801870D01*
X120298129Y-112918076D01*
X120298133Y-112918079D01*
X120298135Y-112918081D01*
X120426431Y-112993955D01*
X120446317Y-113005715D01*
X120445130Y-113007721D01*
X120485007Y-113039177D01*
X120649700Y-113258766D01*
X120674176Y-113324208D01*
X120674500Y-113333166D01*
X120674500Y-119204492D01*
X120654815Y-119271531D01*
X120602011Y-119317286D01*
X120532853Y-119327230D01*
X120469297Y-119298205D01*
X120443114Y-119266493D01*
X120420509Y-119227341D01*
X120420506Y-119227338D01*
X120420505Y-119227335D01*
X116627574Y-115434405D01*
X116627573Y-115434403D01*
X116522666Y-115329496D01*
X116522661Y-115329492D01*
X116402840Y-115260313D01*
X116374592Y-115252743D01*
X116374591Y-115252743D01*
X116269183Y-115224499D01*
X116130817Y-115224499D01*
X116123221Y-115224499D01*
X116123205Y-115224500D01*
X109047396Y-115224500D01*
X109006511Y-115217566D01*
X108495529Y-115039108D01*
X108495492Y-115039095D01*
X108491562Y-115037723D01*
X108468913Y-115028342D01*
X108457261Y-115026024D01*
X108449657Y-115023656D01*
X108449649Y-115023654D01*
X108438178Y-115020083D01*
X108436643Y-115019662D01*
X108378180Y-115008170D01*
X108371048Y-115007608D01*
X108371098Y-115006965D01*
X108354937Y-115005670D01*
X108323919Y-114999500D01*
X108323918Y-114999500D01*
X108176082Y-114999500D01*
X108176080Y-114999500D01*
X108031088Y-115028341D01*
X108031085Y-115028342D01*
X108011686Y-115036377D01*
X108005123Y-115038880D01*
X107493488Y-115217566D01*
X107452603Y-115224500D01*
X75297396Y-115224500D01*
X75256511Y-115217566D01*
X74745529Y-115039108D01*
X74745492Y-115039095D01*
X74741562Y-115037723D01*
X74718913Y-115028342D01*
X74707261Y-115026024D01*
X74699657Y-115023656D01*
X74699649Y-115023654D01*
X74688178Y-115020083D01*
X74686643Y-115019662D01*
X74628180Y-115008170D01*
X74621048Y-115007608D01*
X74621098Y-115006965D01*
X74604937Y-115005670D01*
X74573919Y-114999500D01*
X74573918Y-114999500D01*
X74426082Y-114999500D01*
X74426080Y-114999500D01*
X74281092Y-115028340D01*
X74281082Y-115028343D01*
X74144511Y-115084912D01*
X74144498Y-115084919D01*
X74021584Y-115167048D01*
X74021580Y-115167051D01*
X73917051Y-115271580D01*
X73917048Y-115271584D01*
X73834919Y-115394498D01*
X73834912Y-115394511D01*
X73778343Y-115531082D01*
X73778340Y-115531092D01*
X73749500Y-115676079D01*
X73749500Y-115823919D01*
X73749975Y-115826307D01*
X73749860Y-115827583D01*
X73750097Y-115829983D01*
X73749642Y-115830027D01*
X73743748Y-115895899D01*
X73700886Y-115951077D01*
X73634996Y-115974322D01*
X73628358Y-115974500D01*
X68553618Y-115974500D01*
X68486579Y-115954815D01*
X68440824Y-115902011D01*
X68430880Y-115832853D01*
X68441930Y-115796632D01*
X68450751Y-115778343D01*
X68661420Y-115341551D01*
X68685423Y-115307744D01*
X71543182Y-112449986D01*
X93550001Y-112449986D01*
X93560494Y-112552697D01*
X93615641Y-112719119D01*
X93615643Y-112719124D01*
X93707684Y-112868345D01*
X93831654Y-112992315D01*
X93980875Y-113084356D01*
X93980880Y-113084358D01*
X94147302Y-113139505D01*
X94147309Y-113139506D01*
X94250019Y-113149999D01*
X94549999Y-113149999D01*
X95050000Y-113149999D01*
X95349972Y-113149999D01*
X95349986Y-113149998D01*
X95452697Y-113139505D01*
X95619119Y-113084358D01*
X95619124Y-113084356D01*
X95768345Y-112992315D01*
X95892315Y-112868345D01*
X95984356Y-112719124D01*
X95984358Y-112719119D01*
X96039505Y-112552697D01*
X96039506Y-112552690D01*
X96049999Y-112449986D01*
X96050000Y-112449973D01*
X96050000Y-112400000D01*
X95050000Y-112400000D01*
X95050000Y-113149999D01*
X94549999Y-113149999D01*
X94550000Y-113149998D01*
X94550000Y-112400000D01*
X93550001Y-112400000D01*
X93550001Y-112449986D01*
X71543182Y-112449986D01*
X72143155Y-111850013D01*
X93550000Y-111850013D01*
X93550000Y-111900000D01*
X94550000Y-111900000D01*
X95050000Y-111900000D01*
X96049999Y-111900000D01*
X96049999Y-111850028D01*
X96049998Y-111850021D01*
X96049432Y-111844476D01*
X96049432Y-111844472D01*
X96048393Y-111834298D01*
X98549500Y-111834298D01*
X98549500Y-112465701D01*
X98552401Y-112502567D01*
X98552402Y-112502573D01*
X98598254Y-112660393D01*
X98598255Y-112660396D01*
X98681917Y-112801862D01*
X98681923Y-112801870D01*
X98798129Y-112918076D01*
X98798133Y-112918079D01*
X98798135Y-112918081D01*
X98939602Y-113001744D01*
X98961762Y-113008182D01*
X99097426Y-113047597D01*
X99097429Y-113047597D01*
X99097431Y-113047598D01*
X99134306Y-113050500D01*
X99134314Y-113050500D01*
X100265686Y-113050500D01*
X100265694Y-113050500D01*
X100302569Y-113047598D01*
X100302571Y-113047597D01*
X100302573Y-113047597D01*
X100344191Y-113035505D01*
X100460398Y-113001744D01*
X100473573Y-112993951D01*
X100495216Y-112983827D01*
X100496308Y-112983440D01*
X101034641Y-112690575D01*
X101093898Y-112675500D01*
X112923205Y-112675500D01*
X112923221Y-112675501D01*
X112930817Y-112675501D01*
X113069181Y-112675501D01*
X113069183Y-112675501D01*
X113139455Y-112656671D01*
X113174592Y-112647256D01*
X113174593Y-112647255D01*
X113202836Y-112639688D01*
X113322665Y-112570505D01*
X113420505Y-112472665D01*
X113420505Y-112472663D01*
X113430709Y-112462460D01*
X113430713Y-112462455D01*
X113443182Y-112449986D01*
X115050001Y-112449986D01*
X115060494Y-112552697D01*
X115115641Y-112719119D01*
X115115643Y-112719124D01*
X115207684Y-112868345D01*
X115331654Y-112992315D01*
X115480875Y-113084356D01*
X115480880Y-113084358D01*
X115647302Y-113139505D01*
X115647309Y-113139506D01*
X115750019Y-113149999D01*
X116049999Y-113149999D01*
X116550000Y-113149999D01*
X116849972Y-113149999D01*
X116849986Y-113149998D01*
X116952697Y-113139505D01*
X117119119Y-113084358D01*
X117119124Y-113084356D01*
X117268345Y-112992315D01*
X117392315Y-112868345D01*
X117484356Y-112719124D01*
X117484358Y-112719119D01*
X117539505Y-112552697D01*
X117539506Y-112552690D01*
X117549999Y-112449986D01*
X117550000Y-112449973D01*
X117550000Y-112400000D01*
X116550000Y-112400000D01*
X116550000Y-113149999D01*
X116049999Y-113149999D01*
X116050000Y-113149998D01*
X116050000Y-112400000D01*
X115050001Y-112400000D01*
X115050001Y-112449986D01*
X113443182Y-112449986D01*
X114043155Y-111850013D01*
X115050000Y-111850013D01*
X115050000Y-111900000D01*
X116050000Y-111900000D01*
X116550000Y-111900000D01*
X117549999Y-111900000D01*
X117549999Y-111850028D01*
X117549998Y-111850013D01*
X117539505Y-111747302D01*
X117484358Y-111580880D01*
X117484356Y-111580875D01*
X117392315Y-111431654D01*
X117268345Y-111307684D01*
X117119124Y-111215643D01*
X117119119Y-111215641D01*
X116952697Y-111160494D01*
X116952690Y-111160493D01*
X116849986Y-111150000D01*
X116550000Y-111150000D01*
X116550000Y-111900000D01*
X116050000Y-111900000D01*
X116050000Y-111150000D01*
X115750028Y-111150000D01*
X115750012Y-111150001D01*
X115647302Y-111160494D01*
X115480880Y-111215641D01*
X115480875Y-111215643D01*
X115331654Y-111307684D01*
X115207684Y-111431654D01*
X115115643Y-111580875D01*
X115115641Y-111580880D01*
X115060494Y-111747302D01*
X115060493Y-111747309D01*
X115050000Y-111850013D01*
X114043155Y-111850013D01*
X115740711Y-110152456D01*
X115777071Y-110127258D01*
X116581491Y-109761613D01*
X116632800Y-109750500D01*
X116865686Y-109750500D01*
X116865694Y-109750500D01*
X116902569Y-109747598D01*
X116902571Y-109747597D01*
X116902573Y-109747597D01*
X116996559Y-109720291D01*
X117060398Y-109701744D01*
X117201865Y-109618081D01*
X117318081Y-109501865D01*
X117401744Y-109360398D01*
X117447598Y-109202569D01*
X117450500Y-109165694D01*
X117450500Y-108534306D01*
X117447598Y-108497431D01*
X117401744Y-108339602D01*
X117318081Y-108198135D01*
X117318079Y-108198133D01*
X117318076Y-108198129D01*
X117201870Y-108081923D01*
X117201862Y-108081917D01*
X117060396Y-107998255D01*
X117060393Y-107998254D01*
X116902573Y-107952402D01*
X116902567Y-107952401D01*
X116865701Y-107949500D01*
X116865694Y-107949500D01*
X115734306Y-107949500D01*
X115734298Y-107949500D01*
X115697432Y-107952401D01*
X115697426Y-107952402D01*
X115539606Y-107998254D01*
X115539603Y-107998255D01*
X115398137Y-108081917D01*
X115398129Y-108081923D01*
X115281923Y-108198129D01*
X115281917Y-108198137D01*
X115198255Y-108339603D01*
X115198254Y-108339606D01*
X115152402Y-108497426D01*
X115152401Y-108497432D01*
X115149500Y-108534298D01*
X115149500Y-108804918D01*
X115145340Y-108836765D01*
X115000188Y-109382966D01*
X114968029Y-109438800D01*
X112818650Y-111588181D01*
X112757327Y-111621666D01*
X112730969Y-111624500D01*
X101093900Y-111624500D01*
X101034643Y-111609425D01*
X100717366Y-111436819D01*
X100496309Y-111316559D01*
X100496306Y-111316557D01*
X100496301Y-111316555D01*
X100496299Y-111316554D01*
X100486505Y-111312409D01*
X100478853Y-111309170D01*
X100460398Y-111298256D01*
X100437000Y-111291458D01*
X100430271Y-111288610D01*
X100430270Y-111288609D01*
X100423332Y-111285674D01*
X100423325Y-111285671D01*
X100418983Y-111284316D01*
X100418934Y-111284307D01*
X100410701Y-111282932D01*
X100396544Y-111279704D01*
X100302573Y-111252402D01*
X100302567Y-111252401D01*
X100265701Y-111249500D01*
X100265694Y-111249500D01*
X99134306Y-111249500D01*
X99134298Y-111249500D01*
X99097432Y-111252401D01*
X99097426Y-111252402D01*
X98939606Y-111298254D01*
X98939603Y-111298255D01*
X98798137Y-111381917D01*
X98798129Y-111381923D01*
X98681923Y-111498129D01*
X98681917Y-111498137D01*
X98598255Y-111639603D01*
X98598254Y-111639606D01*
X98552402Y-111797426D01*
X98552401Y-111797432D01*
X98549500Y-111834298D01*
X96048393Y-111834298D01*
X96039506Y-111747303D01*
X95984358Y-111580880D01*
X95984356Y-111580875D01*
X95892315Y-111431654D01*
X95768345Y-111307684D01*
X95619124Y-111215643D01*
X95619119Y-111215641D01*
X95452697Y-111160494D01*
X95452690Y-111160493D01*
X95349986Y-111150000D01*
X95050000Y-111150000D01*
X95050000Y-111900000D01*
X94550000Y-111900000D01*
X94550000Y-111150000D01*
X94250028Y-111150000D01*
X94250012Y-111150001D01*
X94147302Y-111160494D01*
X93980880Y-111215641D01*
X93980875Y-111215643D01*
X93831654Y-111307684D01*
X93707684Y-111431654D01*
X93615643Y-111580875D01*
X93615641Y-111580880D01*
X93560494Y-111747302D01*
X93560493Y-111747309D01*
X93550000Y-111850013D01*
X72143155Y-111850013D01*
X75069249Y-108923920D01*
X91249499Y-108923920D01*
X91278340Y-109068907D01*
X91278343Y-109068917D01*
X91334912Y-109205488D01*
X91334919Y-109205501D01*
X91417048Y-109328415D01*
X91417051Y-109328419D01*
X91521580Y-109432948D01*
X91521584Y-109432951D01*
X91644498Y-109515080D01*
X91644511Y-109515087D01*
X91781082Y-109571656D01*
X91781087Y-109571658D01*
X91781091Y-109571658D01*
X91781092Y-109571659D01*
X91926079Y-109600500D01*
X91926082Y-109600500D01*
X92073920Y-109600500D01*
X92177906Y-109579815D01*
X92218913Y-109571658D01*
X92238362Y-109563601D01*
X92244862Y-109561122D01*
X92611861Y-109432951D01*
X92756509Y-109382434D01*
X92797393Y-109375500D01*
X93406101Y-109375500D01*
X93465358Y-109390575D01*
X94003691Y-109683440D01*
X94021134Y-109690822D01*
X94039602Y-109701744D01*
X94063007Y-109708543D01*
X94076674Y-109714328D01*
X94081016Y-109715683D01*
X94089272Y-109717061D01*
X94103437Y-109720289D01*
X94197431Y-109747598D01*
X94234306Y-109750500D01*
X94234314Y-109750500D01*
X95365686Y-109750500D01*
X95365694Y-109750500D01*
X95402569Y-109747598D01*
X95402571Y-109747597D01*
X95402573Y-109747597D01*
X95496559Y-109720291D01*
X95560398Y-109701744D01*
X95701865Y-109618081D01*
X95818081Y-109501865D01*
X95901744Y-109360398D01*
X95947598Y-109202569D01*
X95950500Y-109165694D01*
X95950500Y-108534306D01*
X95947598Y-108497431D01*
X95901744Y-108339602D01*
X95818081Y-108198135D01*
X95818079Y-108198133D01*
X95818076Y-108198129D01*
X95701870Y-108081923D01*
X95701862Y-108081917D01*
X95560396Y-107998255D01*
X95560393Y-107998254D01*
X95402573Y-107952402D01*
X95402567Y-107952401D01*
X95365701Y-107949500D01*
X95365694Y-107949500D01*
X94234306Y-107949500D01*
X94234298Y-107949500D01*
X94197432Y-107952401D01*
X94197426Y-107952402D01*
X94039607Y-107998254D01*
X94039595Y-107998258D01*
X94026434Y-108006042D01*
X94004825Y-108016154D01*
X94003696Y-108016554D01*
X93465358Y-108309424D01*
X93406100Y-108324500D01*
X92797396Y-108324500D01*
X92756511Y-108317566D01*
X92245529Y-108139108D01*
X92245492Y-108139095D01*
X92241562Y-108137723D01*
X92218913Y-108128342D01*
X92207261Y-108126024D01*
X92199657Y-108123656D01*
X92199649Y-108123654D01*
X92188178Y-108120083D01*
X92186643Y-108119662D01*
X92128180Y-108108170D01*
X92121048Y-108107608D01*
X92121098Y-108106965D01*
X92104937Y-108105670D01*
X92073919Y-108099500D01*
X92073918Y-108099500D01*
X91926082Y-108099500D01*
X91926080Y-108099500D01*
X91781092Y-108128340D01*
X91781082Y-108128343D01*
X91644511Y-108184912D01*
X91644498Y-108184919D01*
X91521584Y-108267048D01*
X91521580Y-108267051D01*
X91417051Y-108371580D01*
X91417048Y-108371584D01*
X91334919Y-108494498D01*
X91334912Y-108494511D01*
X91278343Y-108631082D01*
X91278340Y-108631092D01*
X91249500Y-108776079D01*
X91249500Y-108776082D01*
X91249500Y-108923918D01*
X91249500Y-108923920D01*
X91249499Y-108923920D01*
X75069249Y-108923920D01*
X79406351Y-104586819D01*
X79467674Y-104553334D01*
X79494032Y-104550500D01*
X108702606Y-104550500D01*
X108743490Y-104557434D01*
X108930269Y-104622665D01*
X109258433Y-104737274D01*
X109281087Y-104746658D01*
X109292745Y-104748977D01*
X109309021Y-104754043D01*
X109311833Y-104754919D01*
X109311837Y-104754920D01*
X109313380Y-104755343D01*
X109313390Y-104755345D01*
X109313398Y-104755347D01*
X109369707Y-104766413D01*
X109371823Y-104766829D01*
X109371828Y-104766828D01*
X109378959Y-104767392D01*
X109378908Y-104768036D01*
X109395066Y-104769330D01*
X109426081Y-104775500D01*
X109426082Y-104775500D01*
X109573920Y-104775500D01*
X109671462Y-104756096D01*
X109718913Y-104746658D01*
X109855495Y-104690084D01*
X109978416Y-104607951D01*
X110082951Y-104503416D01*
X110165084Y-104380495D01*
X110221658Y-104243913D01*
X110247046Y-104116282D01*
X110250500Y-104098920D01*
X110250500Y-103951079D01*
X110221659Y-103806092D01*
X110221658Y-103806091D01*
X110221658Y-103806087D01*
X110220273Y-103802743D01*
X110165087Y-103669511D01*
X110165080Y-103669498D01*
X110082951Y-103546584D01*
X110082948Y-103546580D01*
X109978419Y-103442051D01*
X109978415Y-103442048D01*
X109855501Y-103359919D01*
X109855488Y-103359912D01*
X109718917Y-103303343D01*
X109718907Y-103303340D01*
X109573920Y-103274500D01*
X109573918Y-103274500D01*
X109426082Y-103274500D01*
X109426080Y-103274500D01*
X109281088Y-103303341D01*
X109281085Y-103303342D01*
X109261686Y-103311377D01*
X109255123Y-103313880D01*
X108743488Y-103492566D01*
X108702603Y-103499500D01*
X79301796Y-103499500D01*
X79301780Y-103499499D01*
X79294184Y-103499499D01*
X79155817Y-103499499D01*
X79037952Y-103531080D01*
X79022161Y-103535312D01*
X78902338Y-103604492D01*
X78902332Y-103604497D01*
X67942260Y-114564569D01*
X67908447Y-114588576D01*
X67420951Y-114823701D01*
X67420863Y-114823744D01*
X67417151Y-114825535D01*
X67394505Y-114834916D01*
X67384613Y-114841525D01*
X67377619Y-114845200D01*
X67377574Y-114845223D01*
X67366737Y-114850919D01*
X67365378Y-114851694D01*
X67365340Y-114851718D01*
X67316116Y-114884784D01*
X67310685Y-114889421D01*
X67310271Y-114888936D01*
X67297915Y-114899453D01*
X67271590Y-114917043D01*
X67271588Y-114917044D01*
X67167047Y-115021585D01*
X67084919Y-115144498D01*
X67084912Y-115144511D01*
X67028343Y-115281082D01*
X67028340Y-115281092D01*
X66999500Y-115426079D01*
X66999500Y-115426082D01*
X66999500Y-115573918D01*
X66999500Y-115573920D01*
X66999499Y-115573920D01*
X67028340Y-115718907D01*
X67028343Y-115718917D01*
X67063191Y-115803048D01*
X67070660Y-115872517D01*
X67039384Y-115934996D01*
X66979295Y-115970648D01*
X66948630Y-115974500D01*
X61197396Y-115974500D01*
X61156511Y-115967566D01*
X60645529Y-115789108D01*
X60645492Y-115789095D01*
X60641562Y-115787723D01*
X60618913Y-115778342D01*
X60607261Y-115776024D01*
X60599657Y-115773656D01*
X60599649Y-115773654D01*
X60588178Y-115770083D01*
X60586643Y-115769662D01*
X60528180Y-115758170D01*
X60521048Y-115757608D01*
X60521098Y-115756965D01*
X60504937Y-115755670D01*
X60473919Y-115749500D01*
X60473918Y-115749500D01*
X60326082Y-115749500D01*
X60326080Y-115749500D01*
X60181092Y-115778340D01*
X60181082Y-115778343D01*
X60044511Y-115834912D01*
X60044498Y-115834919D01*
X59921584Y-115917048D01*
X59921580Y-115917051D01*
X59817051Y-116021580D01*
X59817048Y-116021584D01*
X59734919Y-116144498D01*
X59734912Y-116144511D01*
X59678343Y-116281082D01*
X59678340Y-116281092D01*
X59649500Y-116426079D01*
X59649500Y-116426082D01*
X59649500Y-116573918D01*
X59649500Y-116573920D01*
X59649499Y-116573920D01*
X58400500Y-116573920D01*
X58400500Y-111924362D01*
X58420185Y-111857323D01*
X58436819Y-111836681D01*
X61814306Y-108459194D01*
X65199464Y-105074036D01*
X65238936Y-105014959D01*
X65298013Y-104926547D01*
X65339868Y-104825500D01*
X65365895Y-104762666D01*
X65400500Y-104588692D01*
X65400500Y-104411308D01*
X65365895Y-104237334D01*
X65312131Y-104107538D01*
X65298013Y-104073453D01*
X65210488Y-103942463D01*
X65199464Y-103925964D01*
X65074036Y-103800536D01*
X65003074Y-103753121D01*
X64926547Y-103701987D01*
X64844606Y-103668046D01*
X64838891Y-103665678D01*
X64838886Y-103665676D01*
X64762666Y-103634105D01*
X64762658Y-103634103D01*
X64588696Y-103599500D01*
X64588692Y-103599500D01*
X64411308Y-103599500D01*
X64411303Y-103599500D01*
X64237341Y-103634103D01*
X64237329Y-103634106D01*
X64155392Y-103668045D01*
X64155393Y-103668046D01*
X64073455Y-103701985D01*
X63996926Y-103753121D01*
X63996925Y-103753122D01*
X63925961Y-103800537D01*
X56800537Y-110925961D01*
X56763419Y-110981513D01*
X56763415Y-110981519D01*
X56761063Y-110985040D01*
X56701987Y-111073453D01*
X56682386Y-111120775D01*
X56679345Y-111128115D01*
X56679344Y-111128118D01*
X56634105Y-111237333D01*
X56634103Y-111237341D01*
X56608532Y-111365892D01*
X56608533Y-111365893D01*
X56599500Y-111411308D01*
X54700500Y-111411308D01*
X54700500Y-93395778D01*
X57799500Y-93395778D01*
X57799500Y-93684221D01*
X57799501Y-93684238D01*
X57837149Y-93970206D01*
X57837150Y-93970211D01*
X57837151Y-93970217D01*
X57898412Y-94198845D01*
X57911809Y-94248844D01*
X57911814Y-94248860D01*
X58022191Y-94515336D01*
X58022199Y-94515352D01*
X58166420Y-94765148D01*
X58166431Y-94765164D01*
X58342024Y-94994002D01*
X58342030Y-94994009D01*
X58545990Y-95197969D01*
X58545996Y-95197974D01*
X58774844Y-95373575D01*
X58774851Y-95373579D01*
X59024647Y-95517800D01*
X59024663Y-95517808D01*
X59291139Y-95628185D01*
X59291145Y-95628186D01*
X59291155Y-95628191D01*
X59569783Y-95702849D01*
X59855772Y-95740500D01*
X59855779Y-95740500D01*
X60144221Y-95740500D01*
X60144228Y-95740500D01*
X60430217Y-95702849D01*
X60708845Y-95628191D01*
X60708857Y-95628185D01*
X60708860Y-95628185D01*
X60975336Y-95517808D01*
X60975339Y-95517806D01*
X60975345Y-95517804D01*
X61225156Y-95373575D01*
X61454004Y-95197974D01*
X61657974Y-94994004D01*
X61833575Y-94765156D01*
X61977804Y-94515345D01*
X62088191Y-94248845D01*
X62162849Y-93970217D01*
X62200500Y-93684228D01*
X62200500Y-93395772D01*
X62162849Y-93109783D01*
X62088191Y-92831155D01*
X62088186Y-92831145D01*
X62088185Y-92831139D01*
X61977808Y-92564663D01*
X61977800Y-92564647D01*
X61833579Y-92314851D01*
X61833575Y-92314844D01*
X61657974Y-92085996D01*
X61657969Y-92085990D01*
X61454009Y-91882030D01*
X61454002Y-91882024D01*
X61225164Y-91706431D01*
X61225162Y-91706429D01*
X61225156Y-91706425D01*
X61225151Y-91706422D01*
X61225148Y-91706420D01*
X60975352Y-91562199D01*
X60975336Y-91562191D01*
X60708860Y-91451814D01*
X60708848Y-91451810D01*
X60708845Y-91451809D01*
X60430217Y-91377151D01*
X60430211Y-91377150D01*
X60430206Y-91377149D01*
X60144238Y-91339501D01*
X60144233Y-91339500D01*
X60144228Y-91339500D01*
X59855772Y-91339500D01*
X59855766Y-91339500D01*
X59855761Y-91339501D01*
X59569793Y-91377149D01*
X59569786Y-91377150D01*
X59569783Y-91377151D01*
X59291155Y-91451809D01*
X59291139Y-91451814D01*
X59024663Y-91562191D01*
X59024647Y-91562199D01*
X58774851Y-91706420D01*
X58774835Y-91706431D01*
X58545997Y-91882024D01*
X58545990Y-91882030D01*
X58342030Y-92085990D01*
X58342024Y-92085997D01*
X58166431Y-92314835D01*
X58166420Y-92314851D01*
X58022199Y-92564647D01*
X58022191Y-92564663D01*
X57911814Y-92831139D01*
X57911809Y-92831155D01*
X57850549Y-93059783D01*
X57837152Y-93109780D01*
X57837149Y-93109793D01*
X57799501Y-93395761D01*
X57799500Y-93395778D01*
X54700500Y-93395778D01*
X54700500Y-64795778D01*
X57799500Y-64795778D01*
X57799500Y-65084221D01*
X57799501Y-65084238D01*
X57837149Y-65370206D01*
X57837150Y-65370211D01*
X57837151Y-65370217D01*
X57850549Y-65420219D01*
X57911809Y-65648844D01*
X57911814Y-65648860D01*
X58022191Y-65915336D01*
X58022199Y-65915352D01*
X58166420Y-66165148D01*
X58166431Y-66165164D01*
X58342024Y-66394002D01*
X58342030Y-66394009D01*
X58545990Y-66597969D01*
X58545997Y-66597975D01*
X58708953Y-66723015D01*
X58774844Y-66773575D01*
X58774851Y-66773579D01*
X59024647Y-66917800D01*
X59024663Y-66917808D01*
X59291139Y-67028185D01*
X59291145Y-67028186D01*
X59291155Y-67028191D01*
X59569783Y-67102849D01*
X59855772Y-67140500D01*
X59855779Y-67140500D01*
X60144221Y-67140500D01*
X60144228Y-67140500D01*
X60430217Y-67102849D01*
X60708845Y-67028191D01*
X60708857Y-67028185D01*
X60708860Y-67028185D01*
X60975336Y-66917808D01*
X60975339Y-66917806D01*
X60975345Y-66917804D01*
X61225156Y-66773575D01*
X61454004Y-66597974D01*
X61657974Y-66394004D01*
X61833575Y-66165156D01*
X61977804Y-65915345D01*
X62067475Y-65698860D01*
X62088185Y-65648860D01*
X62088185Y-65648857D01*
X62088191Y-65648845D01*
X62162849Y-65370217D01*
X62200500Y-65084228D01*
X62200500Y-64845778D01*
X152799500Y-64845778D01*
X152799500Y-65134221D01*
X152799501Y-65134238D01*
X152837149Y-65420206D01*
X152837150Y-65420211D01*
X152837151Y-65420217D01*
X152898412Y-65648845D01*
X152911809Y-65698844D01*
X152911814Y-65698860D01*
X153022191Y-65965336D01*
X153022199Y-65965352D01*
X153166420Y-66215148D01*
X153166431Y-66215164D01*
X153342024Y-66444002D01*
X153342030Y-66444009D01*
X153545990Y-66647969D01*
X153545996Y-66647974D01*
X153774844Y-66823575D01*
X153774851Y-66823579D01*
X154024647Y-66967800D01*
X154024663Y-66967808D01*
X154291139Y-67078185D01*
X154291145Y-67078186D01*
X154291155Y-67078191D01*
X154569783Y-67152849D01*
X154855772Y-67190500D01*
X154855779Y-67190500D01*
X155144221Y-67190500D01*
X155144228Y-67190500D01*
X155430217Y-67152849D01*
X155708845Y-67078191D01*
X155708857Y-67078185D01*
X155708860Y-67078185D01*
X155975336Y-66967808D01*
X155975339Y-66967806D01*
X155975345Y-66967804D01*
X156225156Y-66823575D01*
X156454004Y-66647974D01*
X156657974Y-66444004D01*
X156833575Y-66215156D01*
X156977804Y-65965345D01*
X157088191Y-65698845D01*
X157162849Y-65420217D01*
X157200500Y-65134228D01*
X157200500Y-64845772D01*
X157162849Y-64559783D01*
X157088191Y-64281155D01*
X157088186Y-64281145D01*
X157088185Y-64281139D01*
X156977808Y-64014663D01*
X156977800Y-64014647D01*
X156833579Y-63764851D01*
X156833575Y-63764844D01*
X156657974Y-63535996D01*
X156657969Y-63535990D01*
X156454009Y-63332030D01*
X156454002Y-63332024D01*
X156225164Y-63156431D01*
X156225162Y-63156429D01*
X156225156Y-63156425D01*
X156225151Y-63156422D01*
X156225148Y-63156420D01*
X155975352Y-63012199D01*
X155975336Y-63012191D01*
X155708860Y-62901814D01*
X155708848Y-62901810D01*
X155708845Y-62901809D01*
X155430217Y-62827151D01*
X155430211Y-62827150D01*
X155430206Y-62827149D01*
X155144238Y-62789501D01*
X155144233Y-62789500D01*
X155144228Y-62789500D01*
X154855772Y-62789500D01*
X154855766Y-62789500D01*
X154855761Y-62789501D01*
X154569793Y-62827149D01*
X154569786Y-62827150D01*
X154569783Y-62827151D01*
X154291155Y-62901809D01*
X154291139Y-62901814D01*
X154024663Y-63012191D01*
X154024647Y-63012199D01*
X153774851Y-63156420D01*
X153774835Y-63156431D01*
X153545997Y-63332024D01*
X153545990Y-63332030D01*
X153342030Y-63535990D01*
X153342024Y-63535997D01*
X153166431Y-63764835D01*
X153166420Y-63764851D01*
X153022199Y-64014647D01*
X153022191Y-64014663D01*
X152911814Y-64281139D01*
X152911809Y-64281155D01*
X152850549Y-64509783D01*
X152837152Y-64559780D01*
X152837149Y-64559793D01*
X152799501Y-64845761D01*
X152799500Y-64845778D01*
X62200500Y-64845778D01*
X62200500Y-64795772D01*
X62162849Y-64509783D01*
X62088191Y-64231155D01*
X62088186Y-64231145D01*
X62088185Y-64231139D01*
X61977808Y-63964663D01*
X61977800Y-63964647D01*
X61833579Y-63714851D01*
X61833575Y-63714844D01*
X61696336Y-63535990D01*
X61657975Y-63485997D01*
X61657969Y-63485990D01*
X61454009Y-63282030D01*
X61454002Y-63282024D01*
X61366768Y-63215087D01*
X61244903Y-63121577D01*
X74999500Y-63121577D01*
X74999500Y-63318422D01*
X75030290Y-63512826D01*
X75091117Y-63700029D01*
X75124146Y-63764851D01*
X75180476Y-63875405D01*
X75296172Y-64034646D01*
X75435354Y-64173828D01*
X75594595Y-64289524D01*
X75677455Y-64331743D01*
X75769970Y-64378882D01*
X75769972Y-64378882D01*
X75769975Y-64378884D01*
X75870317Y-64411487D01*
X75957173Y-64439709D01*
X76151578Y-64470500D01*
X76151583Y-64470500D01*
X138348422Y-64470500D01*
X138542826Y-64439709D01*
X138730025Y-64378884D01*
X138905405Y-64289524D01*
X139064646Y-64173828D01*
X139203828Y-64034646D01*
X139319524Y-63875405D01*
X139408884Y-63700025D01*
X139469709Y-63512826D01*
X139473958Y-63485997D01*
X139500500Y-63318422D01*
X139500500Y-63121577D01*
X139469709Y-62927173D01*
X139424976Y-62789500D01*
X139408884Y-62739975D01*
X139408882Y-62739972D01*
X139408882Y-62739970D01*
X139319523Y-62564594D01*
X139203828Y-62405354D01*
X139064646Y-62266172D01*
X138905405Y-62150476D01*
X138730029Y-62061117D01*
X138542826Y-62000290D01*
X138348422Y-61969500D01*
X138348417Y-61969500D01*
X76151583Y-61969500D01*
X76151578Y-61969500D01*
X75957173Y-62000290D01*
X75769970Y-62061117D01*
X75594594Y-62150476D01*
X75503741Y-62216485D01*
X75435354Y-62266172D01*
X75435352Y-62266174D01*
X75435351Y-62266174D01*
X75296174Y-62405351D01*
X75296174Y-62405352D01*
X75296172Y-62405354D01*
X75246485Y-62473741D01*
X75180476Y-62564594D01*
X75091117Y-62739970D01*
X75030290Y-62927173D01*
X74999500Y-63121577D01*
X61244903Y-63121577D01*
X61225164Y-63106431D01*
X61225162Y-63106429D01*
X61225156Y-63106425D01*
X61225151Y-63106422D01*
X61225148Y-63106420D01*
X60975352Y-62962199D01*
X60975336Y-62962191D01*
X60708860Y-62851814D01*
X60708848Y-62851810D01*
X60708845Y-62851809D01*
X60430217Y-62777151D01*
X60430211Y-62777150D01*
X60430206Y-62777149D01*
X60144238Y-62739501D01*
X60144233Y-62739500D01*
X60144228Y-62739500D01*
X59855772Y-62739500D01*
X59855766Y-62739500D01*
X59855761Y-62739501D01*
X59569793Y-62777149D01*
X59569786Y-62777150D01*
X59569783Y-62777151D01*
X59291155Y-62851809D01*
X59291139Y-62851814D01*
X59024663Y-62962191D01*
X59024647Y-62962199D01*
X58774851Y-63106420D01*
X58774835Y-63106431D01*
X58545997Y-63282024D01*
X58545990Y-63282030D01*
X58342030Y-63485990D01*
X58342024Y-63485997D01*
X58166431Y-63714835D01*
X58166420Y-63714851D01*
X58022199Y-63964647D01*
X58022191Y-63964663D01*
X57911814Y-64231139D01*
X57911809Y-64231155D01*
X57837152Y-64509780D01*
X57837149Y-64509793D01*
X57799501Y-64795761D01*
X57799500Y-64795778D01*
X54700500Y-64795778D01*
X54700500Y-62054066D01*
X54700765Y-62045956D01*
X54709224Y-61916894D01*
X54715364Y-61823207D01*
X54717479Y-61807153D01*
X54760230Y-61592226D01*
X54764428Y-61576561D01*
X54826349Y-61394148D01*
X54834868Y-61369049D01*
X54841067Y-61354083D01*
X54937995Y-61157533D01*
X54946098Y-61143498D01*
X55067853Y-60961279D01*
X55077710Y-60948433D01*
X55222207Y-60783665D01*
X55233665Y-60772207D01*
X55398433Y-60627710D01*
X55411279Y-60617853D01*
X55593498Y-60496098D01*
X55607533Y-60487995D01*
X55804083Y-60391067D01*
X55819049Y-60384868D01*
X56025945Y-60314637D01*
X56026561Y-60314428D01*
X56042228Y-60310230D01*
X56257153Y-60267479D01*
X56273209Y-60265364D01*
X56478058Y-60251938D01*
X56495958Y-60250765D01*
X56504067Y-60250500D01*
X56539882Y-60250500D01*
X157460118Y-60250500D01*
X157495933Y-60250500D01*
X157504043Y-60250765D01*
G37*
%TD.AperFunction*%
%TD*%
%TA.AperFunction,Conductor*%
%TO.N,Net-(D4-DOUT)*%
G36*
X143710406Y-190373929D02*
G01*
X144289699Y-190840891D01*
X144293989Y-190848751D01*
X144291465Y-190857343D01*
X144289699Y-190859109D01*
X143710406Y-191326070D01*
X143701814Y-191328594D01*
X143697472Y-191327239D01*
X143056109Y-190978323D01*
X143050479Y-190971359D01*
X143050000Y-190968045D01*
X143050000Y-190731954D01*
X143053427Y-190723681D01*
X143056106Y-190721678D01*
X143697472Y-190372759D01*
X143706377Y-190371817D01*
X143710406Y-190373929D01*
G37*
%TD.AperFunction*%
%TD*%
%TA.AperFunction,Conductor*%
%TO.N,Net-(D4-DOUT)*%
G36*
X70970897Y-193213791D02*
G01*
X71137175Y-193380069D01*
X71140602Y-193388342D01*
X71140210Y-193391347D01*
X70952174Y-194098922D01*
X70946737Y-194106037D01*
X70941544Y-194107597D01*
X70207612Y-194150223D01*
X70199154Y-194147282D01*
X70196117Y-194143002D01*
X69997196Y-193660437D01*
X69997211Y-193651482D01*
X70003169Y-193645329D01*
X70957786Y-193211412D01*
X70966732Y-193211109D01*
X70970897Y-193213791D01*
G37*
%TD.AperFunction*%
%TD*%
%TA.AperFunction,Conductor*%
%TO.N,+5V*%
G36*
X142954248Y-194240281D02*
G01*
X142976504Y-194244754D01*
X142983940Y-194249744D01*
X142985670Y-194258530D01*
X142985027Y-194260656D01*
X142627975Y-195133124D01*
X142621670Y-195139483D01*
X142617147Y-195140393D01*
X142382853Y-195140393D01*
X142374580Y-195136966D01*
X142372025Y-195133124D01*
X142014972Y-194260654D01*
X142015010Y-194251702D01*
X142021369Y-194245397D01*
X142023493Y-194244754D01*
X142497696Y-194149463D01*
X142502304Y-194149463D01*
X142954248Y-194240281D01*
G37*
%TD.AperFunction*%
%TD*%
%TA.AperFunction,Conductor*%
%TO.N,VDD*%
G36*
X110214797Y-116723516D02*
G01*
X111466257Y-117162972D01*
X111472928Y-117168946D01*
X111473858Y-117176282D01*
X111312227Y-117993021D01*
X111307260Y-118000472D01*
X111303021Y-118002227D01*
X110486282Y-118163858D01*
X110477501Y-118162103D01*
X110472972Y-118156257D01*
X110418267Y-118000472D01*
X110033517Y-116904798D01*
X110034009Y-116895859D01*
X110036280Y-116892654D01*
X110202652Y-116726282D01*
X110210924Y-116722856D01*
X110214797Y-116723516D01*
G37*
%TD.AperFunction*%
%TD*%
%TA.AperFunction,Conductor*%
%TO.N,VDD*%
G36*
X60480949Y-116161149D02*
G01*
X61085433Y-116372261D01*
X61092113Y-116378224D01*
X61093275Y-116383307D01*
X61093275Y-116616692D01*
X61089848Y-116624965D01*
X61085433Y-116627738D01*
X60480953Y-116838849D01*
X60472012Y-116838341D01*
X60466049Y-116831661D01*
X60465628Y-116830125D01*
X60399467Y-116502313D01*
X60399467Y-116497685D01*
X60465627Y-116169879D01*
X60470622Y-116162450D01*
X60479410Y-116160727D01*
X60480949Y-116161149D01*
G37*
%TD.AperFunction*%
%TD*%
%TA.AperFunction,Conductor*%
%TO.N,Net-(D1-DIN)*%
G36*
X94210406Y-108373929D02*
G01*
X94789699Y-108840891D01*
X94793989Y-108848751D01*
X94791465Y-108857343D01*
X94789699Y-108859109D01*
X94210406Y-109326070D01*
X94201814Y-109328594D01*
X94197472Y-109327239D01*
X93556109Y-108978323D01*
X93550479Y-108971359D01*
X93550000Y-108968045D01*
X93550000Y-108731954D01*
X93553427Y-108723681D01*
X93556106Y-108721678D01*
X94197472Y-108372759D01*
X94206377Y-108371817D01*
X94210406Y-108373929D01*
G37*
%TD.AperFunction*%
%TD*%
%TA.AperFunction,Conductor*%
%TO.N,Net-(D1-DIN)*%
G36*
X92080949Y-108511149D02*
G01*
X92685433Y-108722261D01*
X92692113Y-108728224D01*
X92693275Y-108733307D01*
X92693275Y-108966692D01*
X92689848Y-108974965D01*
X92685433Y-108977738D01*
X92080953Y-109188849D01*
X92072012Y-109188341D01*
X92066049Y-109181661D01*
X92065628Y-109180125D01*
X91999467Y-108852313D01*
X91999467Y-108847685D01*
X92065627Y-108519879D01*
X92070622Y-108512450D01*
X92079410Y-108510727D01*
X92080949Y-108511149D01*
G37*
%TD.AperFunction*%
%TD*%
%TA.AperFunction,Conductor*%
%TO.N,Net-(D1-DOUT)*%
G36*
X100302527Y-111672760D02*
G01*
X100943891Y-112021677D01*
X100949521Y-112028640D01*
X100950000Y-112031954D01*
X100950000Y-112268045D01*
X100946573Y-112276318D01*
X100943891Y-112278323D01*
X100302527Y-112627239D01*
X100293622Y-112628182D01*
X100289593Y-112626070D01*
X99710300Y-112159109D01*
X99706010Y-112151249D01*
X99708534Y-112142657D01*
X99710300Y-112140891D01*
X99849554Y-112028640D01*
X100289593Y-111673928D01*
X100298185Y-111671405D01*
X100302527Y-111672760D01*
G37*
%TD.AperFunction*%
%TD*%
%TA.AperFunction,Conductor*%
%TO.N,Net-(D1-DOUT)*%
G36*
X116300845Y-108852717D02*
G01*
X116303882Y-108856997D01*
X116502803Y-109339562D01*
X116502788Y-109348517D01*
X116496827Y-109354672D01*
X115542216Y-109788586D01*
X115533267Y-109788890D01*
X115529102Y-109786208D01*
X115362824Y-109619930D01*
X115359397Y-109611657D01*
X115359788Y-109608657D01*
X115547825Y-108901076D01*
X115553262Y-108893962D01*
X115558451Y-108892403D01*
X116292387Y-108849776D01*
X116300845Y-108852717D01*
G37*
%TD.AperFunction*%
%TD*%
%TA.AperFunction,Conductor*%
%TO.N,Net-(D2-DOUT)*%
G36*
X113927423Y-151103427D02*
G01*
X113928510Y-151104680D01*
X114293917Y-151591890D01*
X114296139Y-151600565D01*
X114292838Y-151607175D01*
X113808281Y-152092702D01*
X113800012Y-152096137D01*
X113791735Y-152092718D01*
X113791719Y-152092702D01*
X113307161Y-151607175D01*
X113303742Y-151598898D01*
X113306082Y-151591890D01*
X113671490Y-151104680D01*
X113679195Y-151100118D01*
X113680850Y-151100000D01*
X113919150Y-151100000D01*
X113927423Y-151103427D01*
G37*
%TD.AperFunction*%
%TD*%
%TA.AperFunction,Conductor*%
%TO.N,Net-(D2-DOUT)*%
G36*
X121208264Y-112157280D02*
G01*
X121515641Y-112465272D01*
X121692838Y-112642824D01*
X121696257Y-112651101D01*
X121693917Y-112658109D01*
X121328510Y-113145320D01*
X121320805Y-113149882D01*
X121319150Y-113150000D01*
X121080850Y-113150000D01*
X121072577Y-113146573D01*
X121071490Y-113145320D01*
X120706082Y-112658109D01*
X120703860Y-112649434D01*
X120707160Y-112642825D01*
X121191719Y-112157296D01*
X121199988Y-112153862D01*
X121208264Y-112157280D01*
G37*
%TD.AperFunction*%
%TD*%
%TA.AperFunction,Conductor*%
%TO.N,Net-(J2-Pin_1)*%
G36*
X68157704Y-114927266D02*
G01*
X68322733Y-115092295D01*
X68326160Y-115100568D01*
X68324998Y-115105651D01*
X68046844Y-115682361D01*
X68040164Y-115688324D01*
X68031223Y-115687816D01*
X68029833Y-115687024D01*
X67751259Y-115502013D01*
X67747987Y-115498741D01*
X67562974Y-115220165D01*
X67561252Y-115211378D01*
X67566248Y-115203947D01*
X67567628Y-115203160D01*
X68144350Y-114925000D01*
X68153289Y-114924493D01*
X68157704Y-114927266D01*
G37*
%TD.AperFunction*%
%TD*%
%TA.AperFunction,Conductor*%
%TO.N,Net-(J2-Pin_1)*%
G36*
X109427987Y-103686658D02*
G01*
X109433950Y-103693338D01*
X109434373Y-103694881D01*
X109500532Y-104022685D01*
X109500532Y-104027315D01*
X109434373Y-104355118D01*
X109429377Y-104362549D01*
X109420589Y-104364272D01*
X109419046Y-104363849D01*
X108814567Y-104152738D01*
X108807887Y-104146775D01*
X108806725Y-104141692D01*
X108806725Y-103908307D01*
X108810152Y-103900034D01*
X108814566Y-103897261D01*
X109419047Y-103686150D01*
X109427987Y-103686658D01*
G37*
%TD.AperFunction*%
%TD*%
%TA.AperFunction,Conductor*%
%TO.N,+5V*%
G36*
X154727524Y-178973143D02*
G01*
X156818162Y-179633624D01*
X156825017Y-179639383D01*
X156825792Y-179648305D01*
X156822909Y-179653053D01*
X156131079Y-180344883D01*
X156127273Y-180347424D01*
X154728246Y-180925350D01*
X154719291Y-180925341D01*
X154712965Y-180919003D01*
X154712305Y-180916825D01*
X154519749Y-179951578D01*
X154519749Y-179947005D01*
X154712534Y-178982006D01*
X154717514Y-178974567D01*
X154726298Y-178972828D01*
X154727524Y-178973143D01*
G37*
%TD.AperFunction*%
%TD*%
%TA.AperFunction,Conductor*%
%TO.N,+5V*%
G36*
X154727524Y-168973143D02*
G01*
X156818162Y-169633624D01*
X156825017Y-169639383D01*
X156825792Y-169648305D01*
X156822909Y-169653053D01*
X156131079Y-170344883D01*
X156127273Y-170347424D01*
X154728246Y-170925350D01*
X154719291Y-170925341D01*
X154712965Y-170919003D01*
X154712305Y-170916825D01*
X154519749Y-169951578D01*
X154519749Y-169947005D01*
X154712534Y-168982006D01*
X154717514Y-168974567D01*
X154726298Y-168972828D01*
X154727524Y-168973143D01*
G37*
%TD.AperFunction*%
%TD*%
%TA.AperFunction,Conductor*%
%TO.N,+5V*%
G36*
X59281173Y-168974135D02*
G01*
X59287119Y-168980830D01*
X59287537Y-168982368D01*
X59480249Y-169947001D01*
X59480250Y-169951582D01*
X59287613Y-170917233D01*
X59282634Y-170924676D01*
X59273850Y-170926418D01*
X59271989Y-170925883D01*
X57896350Y-170403993D01*
X57892227Y-170401327D01*
X57200109Y-169709209D01*
X57196682Y-169700936D01*
X57200109Y-169692663D01*
X57204552Y-169689881D01*
X59272236Y-168973605D01*
X59281173Y-168974135D01*
G37*
%TD.AperFunction*%
%TD*%
%TA.AperFunction,Conductor*%
%TO.N,+5V*%
G36*
X63495927Y-194148350D02*
G01*
X63503381Y-194153313D01*
X63503405Y-194153348D01*
X63770206Y-194554345D01*
X63771936Y-194563131D01*
X63766946Y-194570567D01*
X63765357Y-194571454D01*
X62920477Y-194960293D01*
X62911528Y-194960639D01*
X62907312Y-194957938D01*
X62741611Y-194792237D01*
X62738184Y-194783964D01*
X62738919Y-194779884D01*
X62819576Y-194563131D01*
X63006138Y-194061776D01*
X63012234Y-194055219D01*
X63019364Y-194054379D01*
X63495927Y-194148350D01*
G37*
%TD.AperFunction*%
%TD*%
%TA.AperFunction,Conductor*%
%TO.N,+5V*%
G36*
X101610650Y-108364970D02*
G01*
X102483124Y-108722025D01*
X102489483Y-108728330D01*
X102490393Y-108732853D01*
X102490393Y-108967146D01*
X102486966Y-108975419D01*
X102483124Y-108977974D01*
X101610656Y-109335027D01*
X101601702Y-109334989D01*
X101595397Y-109328630D01*
X101594754Y-109326504D01*
X101590281Y-109304248D01*
X101499463Y-108852304D01*
X101499463Y-108847695D01*
X101594754Y-108373495D01*
X101599744Y-108366059D01*
X101608530Y-108364329D01*
X101610650Y-108364970D01*
G37*
%TD.AperFunction*%
%TD*%
%TA.AperFunction,Conductor*%
%TO.N,+5V*%
G36*
X120989413Y-152006141D02*
G01*
X120993862Y-152011778D01*
X121261080Y-152729884D01*
X121260754Y-152738832D01*
X121258388Y-152742237D01*
X121092687Y-152907938D01*
X121084414Y-152911365D01*
X121079522Y-152910293D01*
X120234642Y-152521454D01*
X120228560Y-152514883D01*
X120228906Y-152505934D01*
X120229793Y-152504345D01*
X120496595Y-152103346D01*
X120504028Y-152098359D01*
X120980634Y-152004379D01*
X120989413Y-152006141D01*
G37*
%TD.AperFunction*%
%TD*%
%TA.AperFunction,Conductor*%
%TO.N,+5V*%
G36*
X59281667Y-178973669D02*
G01*
X59287179Y-178980726D01*
X59287377Y-178981557D01*
X59480541Y-179947706D01*
X59480541Y-179952294D01*
X59287377Y-180918442D01*
X59282395Y-180925883D01*
X59273610Y-180927621D01*
X59272779Y-180927423D01*
X57558575Y-180452376D01*
X57551518Y-180446864D01*
X57550000Y-180441101D01*
X57550000Y-179458898D01*
X57553427Y-179450625D01*
X57558572Y-179447624D01*
X59272780Y-178972576D01*
X59281667Y-178973669D01*
G37*
%TD.AperFunction*%
%TD*%
%TA.AperFunction,Conductor*%
%TO.N,+5V*%
G36*
X123617478Y-108066852D02*
G01*
X123783147Y-108232521D01*
X123786574Y-108240794D01*
X123785664Y-108245317D01*
X123421211Y-109114719D01*
X123414852Y-109121024D01*
X123405898Y-109120986D01*
X123403940Y-109119937D01*
X123001250Y-108852009D01*
X122997990Y-108848749D01*
X122730062Y-108446059D01*
X122728332Y-108437273D01*
X122733322Y-108429837D01*
X122735280Y-108428788D01*
X123172950Y-108245317D01*
X123604682Y-108064334D01*
X123613636Y-108064297D01*
X123617478Y-108066852D01*
G37*
%TD.AperFunction*%
%TD*%
%TA.AperFunction,Conductor*%
%TO.N,Net-(D3-DOUT)*%
G36*
X149970897Y-193213791D02*
G01*
X150137175Y-193380069D01*
X150140602Y-193388342D01*
X150140210Y-193391347D01*
X149952174Y-194098922D01*
X149946737Y-194106037D01*
X149941544Y-194107597D01*
X149207612Y-194150223D01*
X149199154Y-194147282D01*
X149196117Y-194143002D01*
X148997196Y-193660437D01*
X148997211Y-193651482D01*
X149003169Y-193645329D01*
X149957786Y-193211412D01*
X149966732Y-193211109D01*
X149970897Y-193213791D01*
G37*
%TD.AperFunction*%
%TD*%
%TA.AperFunction,Conductor*%
%TO.N,Net-(D3-DOUT)*%
G36*
X119302527Y-154922760D02*
G01*
X119943891Y-155271677D01*
X119949521Y-155278640D01*
X119950000Y-155281954D01*
X119950000Y-155518045D01*
X119946573Y-155526318D01*
X119943891Y-155528323D01*
X119302527Y-155877239D01*
X119293622Y-155878182D01*
X119289593Y-155876070D01*
X118710300Y-155409109D01*
X118706010Y-155401249D01*
X118708534Y-155392657D01*
X118710300Y-155390891D01*
X118849554Y-155278640D01*
X119289593Y-154923928D01*
X119298185Y-154921405D01*
X119302527Y-154922760D01*
G37*
%TD.AperFunction*%
%TD*%
%TA.AperFunction,Conductor*%
%TO.N,/Display_SSD1322/E{slash}~{RD}*%
G36*
X148927987Y-73161658D02*
G01*
X148933950Y-73168338D01*
X148934373Y-73169881D01*
X149000532Y-73497685D01*
X149000532Y-73502315D01*
X148934373Y-73830118D01*
X148929377Y-73837549D01*
X148920589Y-73839272D01*
X148919046Y-73838849D01*
X148314567Y-73627738D01*
X148307887Y-73621775D01*
X148306725Y-73616692D01*
X148306725Y-73383307D01*
X148310152Y-73375034D01*
X148314566Y-73372261D01*
X148919047Y-73161150D01*
X148927987Y-73161658D01*
G37*
%TD.AperFunction*%
%TD*%
%TA.AperFunction,Conductor*%
%TO.N,/Display_SSD1322/E{slash}~{RD}*%
G36*
X110796052Y-72566248D02*
G01*
X110796844Y-72567638D01*
X111074998Y-73144348D01*
X111075506Y-73153289D01*
X111072733Y-73157704D01*
X110907704Y-73322733D01*
X110899431Y-73326160D01*
X110894348Y-73324998D01*
X110317638Y-73046844D01*
X110311675Y-73040164D01*
X110312183Y-73031223D01*
X110312970Y-73029840D01*
X110497989Y-72751255D01*
X110501255Y-72747989D01*
X110779834Y-72562974D01*
X110788621Y-72561252D01*
X110796052Y-72566248D01*
G37*
%TD.AperFunction*%
%TD*%
%TA.AperFunction,Conductor*%
%TO.N,/Display_SSD1322/D4*%
G36*
X156149442Y-78195321D02*
G01*
X156263017Y-78217773D01*
X156270468Y-78222739D01*
X156272226Y-78226982D01*
X156404632Y-78896782D01*
X156402874Y-78905563D01*
X156397230Y-78910018D01*
X155384989Y-79286211D01*
X155376040Y-79285881D01*
X155372640Y-79283517D01*
X155206482Y-79117359D01*
X155203055Y-79109086D01*
X155203786Y-79105017D01*
X155579982Y-78092767D01*
X155586075Y-78086208D01*
X155593214Y-78085367D01*
X156149442Y-78195321D01*
G37*
%TD.AperFunction*%
%TD*%
%TA.AperFunction,Conductor*%
%TO.N,/Display_SSD1322/D4*%
G36*
X105830119Y-73065626D02*
G01*
X105837549Y-73070622D01*
X105839272Y-73079410D01*
X105838849Y-73080953D01*
X105627739Y-73685433D01*
X105621776Y-73692113D01*
X105616693Y-73693275D01*
X105383307Y-73693275D01*
X105375034Y-73689848D01*
X105372261Y-73685433D01*
X105161150Y-73080953D01*
X105161658Y-73072012D01*
X105168338Y-73066049D01*
X105169870Y-73065628D01*
X105497686Y-72999467D01*
X105502314Y-72999467D01*
X105830119Y-73065626D01*
G37*
%TD.AperFunction*%
%TD*%
%TA.AperFunction,Conductor*%
%TO.N,/Display_SSD1322/~{RES}*%
G36*
X153346642Y-87806242D02*
G01*
X153726637Y-88373488D01*
X153728395Y-88382269D01*
X153726637Y-88386512D01*
X153346642Y-88953757D01*
X153339191Y-88958723D01*
X153332049Y-88957882D01*
X152350277Y-88508127D01*
X152344183Y-88501566D01*
X152343450Y-88497490D01*
X152343450Y-88262509D01*
X152346877Y-88254236D01*
X152350274Y-88251873D01*
X153332050Y-87802116D01*
X153340998Y-87801787D01*
X153346642Y-87806242D01*
G37*
%TD.AperFunction*%
%TD*%
%TA.AperFunction,Conductor*%
%TO.N,/Display_SSD1322/~{RES}*%
G36*
X107330949Y-106911149D02*
G01*
X107935433Y-107122261D01*
X107942113Y-107128224D01*
X107943275Y-107133307D01*
X107943275Y-107366692D01*
X107939848Y-107374965D01*
X107935433Y-107377738D01*
X107330953Y-107588849D01*
X107322012Y-107588341D01*
X107316049Y-107581661D01*
X107315628Y-107580125D01*
X107249467Y-107252313D01*
X107249467Y-107247685D01*
X107315627Y-106919879D01*
X107320622Y-106912450D01*
X107329410Y-106910727D01*
X107330949Y-106911149D01*
G37*
%TD.AperFunction*%
%TD*%
%TA.AperFunction,Conductor*%
%TO.N,/Display_SSD1322/D2*%
G36*
X107830119Y-72565626D02*
G01*
X107837549Y-72570622D01*
X107839272Y-72579410D01*
X107838849Y-72580953D01*
X107627739Y-73185433D01*
X107621776Y-73192113D01*
X107616693Y-73193275D01*
X107383307Y-73193275D01*
X107375034Y-73189848D01*
X107372261Y-73185433D01*
X107161150Y-72580953D01*
X107161658Y-72572012D01*
X107168338Y-72566049D01*
X107169870Y-72565628D01*
X107497686Y-72499467D01*
X107502314Y-72499467D01*
X107830119Y-72565626D01*
G37*
%TD.AperFunction*%
%TD*%
%TA.AperFunction,Conductor*%
%TO.N,/Display_SSD1322/D2*%
G36*
X156149442Y-75655321D02*
G01*
X156263017Y-75677773D01*
X156270468Y-75682739D01*
X156272226Y-75686982D01*
X156404632Y-76356782D01*
X156402874Y-76365563D01*
X156397230Y-76370018D01*
X155384989Y-76746211D01*
X155376040Y-76745881D01*
X155372640Y-76743517D01*
X155206482Y-76577359D01*
X155203055Y-76569086D01*
X155203786Y-76565017D01*
X155579982Y-75552767D01*
X155586075Y-75546208D01*
X155593214Y-75545367D01*
X156149442Y-75655321D01*
G37*
%TD.AperFunction*%
%TD*%
%TA.AperFunction,Conductor*%
%TO.N,/Display_SSD1322/D3*%
G36*
X153346642Y-77646242D02*
G01*
X153726637Y-78213488D01*
X153728395Y-78222269D01*
X153726637Y-78226512D01*
X153346642Y-78793757D01*
X153339191Y-78798723D01*
X153332049Y-78797882D01*
X152350277Y-78348127D01*
X152344183Y-78341566D01*
X152343450Y-78337490D01*
X152343450Y-78102509D01*
X152346877Y-78094236D01*
X152350274Y-78091873D01*
X153332050Y-77642116D01*
X153340998Y-77641787D01*
X153346642Y-77646242D01*
G37*
%TD.AperFunction*%
%TD*%
%TA.AperFunction,Conductor*%
%TO.N,/Display_SSD1322/D3*%
G36*
X106796052Y-73566248D02*
G01*
X106796844Y-73567638D01*
X107074998Y-74144348D01*
X107075506Y-74153289D01*
X107072733Y-74157704D01*
X106907704Y-74322733D01*
X106899431Y-74326160D01*
X106894348Y-74324998D01*
X106317638Y-74046844D01*
X106311675Y-74040164D01*
X106312183Y-74031223D01*
X106312970Y-74029840D01*
X106497989Y-73751255D01*
X106501255Y-73747989D01*
X106779834Y-73562974D01*
X106788621Y-73561252D01*
X106796052Y-73566248D01*
G37*
%TD.AperFunction*%
%TD*%
%TA.AperFunction,Conductor*%
%TO.N,/Display_SSD1322/D{slash}~{C}*%
G36*
X155384983Y-84773787D02*
G01*
X156397230Y-85149981D01*
X156403791Y-85156075D01*
X156404632Y-85163217D01*
X156272226Y-85833017D01*
X156267260Y-85840468D01*
X156263017Y-85842226D01*
X155593217Y-85974632D01*
X155584436Y-85972874D01*
X155579981Y-85967230D01*
X155203788Y-84954986D01*
X155204118Y-84946040D01*
X155206479Y-84942643D01*
X155372641Y-84776481D01*
X155380913Y-84773055D01*
X155384983Y-84773787D01*
G37*
%TD.AperFunction*%
%TD*%
%TA.AperFunction,Conductor*%
%TO.N,/Display_SSD1322/D{slash}~{C}*%
G36*
X107580949Y-100161149D02*
G01*
X108185433Y-100372261D01*
X108192113Y-100378224D01*
X108193275Y-100383307D01*
X108193275Y-100616692D01*
X108189848Y-100624965D01*
X108185433Y-100627738D01*
X107580953Y-100838849D01*
X107572012Y-100838341D01*
X107566049Y-100831661D01*
X107565628Y-100830125D01*
X107499467Y-100502313D01*
X107499467Y-100497685D01*
X107565627Y-100169879D01*
X107570622Y-100162450D01*
X107579410Y-100160727D01*
X107580949Y-100161149D01*
G37*
%TD.AperFunction*%
%TD*%
%TA.AperFunction,Conductor*%
%TO.N,/Display_SSD1322/D7*%
G36*
X153346920Y-82726658D02*
G01*
X153728292Y-83295958D01*
X153730050Y-83304739D01*
X153730044Y-83304769D01*
X153596202Y-83972748D01*
X153591217Y-83980186D01*
X153582431Y-83981921D01*
X153580373Y-83981308D01*
X152350793Y-83487946D01*
X152344391Y-83481684D01*
X152343450Y-83477087D01*
X152343450Y-83242114D01*
X152346877Y-83233841D01*
X152349767Y-83231726D01*
X153331817Y-82722781D01*
X153340739Y-82722018D01*
X153346920Y-82726658D01*
G37*
%TD.AperFunction*%
%TD*%
%TA.AperFunction,Conductor*%
%TO.N,/Display_SSD1322/D7*%
G36*
X102796052Y-74566248D02*
G01*
X102796844Y-74567638D01*
X103074998Y-75144348D01*
X103075506Y-75153289D01*
X103072733Y-75157704D01*
X102907704Y-75322733D01*
X102899431Y-75326160D01*
X102894348Y-75324998D01*
X102317638Y-75046844D01*
X102311675Y-75040164D01*
X102312183Y-75031223D01*
X102312970Y-75029840D01*
X102497989Y-74751255D01*
X102501255Y-74747989D01*
X102779834Y-74562974D01*
X102788621Y-74561252D01*
X102796052Y-74566248D01*
G37*
%TD.AperFunction*%
%TD*%
%TA.AperFunction,Conductor*%
%TO.N,/Display_SSD1322/R{slash}~{W}*%
G36*
X98580949Y-101161149D02*
G01*
X99185433Y-101372261D01*
X99192113Y-101378224D01*
X99193275Y-101383307D01*
X99193275Y-101616692D01*
X99189848Y-101624965D01*
X99185433Y-101627738D01*
X98580953Y-101838849D01*
X98572012Y-101838341D01*
X98566049Y-101831661D01*
X98565628Y-101830125D01*
X98499467Y-101502313D01*
X98499467Y-101497685D01*
X98565627Y-101169879D01*
X98570622Y-101162450D01*
X98579410Y-101160727D01*
X98580949Y-101161149D01*
G37*
%TD.AperFunction*%
%TD*%
%TA.AperFunction,Conductor*%
%TO.N,/Display_SSD1322/R{slash}~{W}*%
G36*
X153346642Y-85266242D02*
G01*
X153726637Y-85833488D01*
X153728395Y-85842269D01*
X153726637Y-85846512D01*
X153346642Y-86413757D01*
X153339191Y-86418723D01*
X153332049Y-86417882D01*
X152350277Y-85968127D01*
X152344183Y-85961566D01*
X152343450Y-85957490D01*
X152343450Y-85722509D01*
X152346877Y-85714236D01*
X152350274Y-85711873D01*
X153332050Y-85262116D01*
X153340998Y-85261787D01*
X153346642Y-85266242D01*
G37*
%TD.AperFunction*%
%TD*%
%TA.AperFunction,Conductor*%
%TO.N,/Display_SSD1322/D0*%
G36*
X156149442Y-73115321D02*
G01*
X156263017Y-73137773D01*
X156270468Y-73142739D01*
X156272226Y-73146982D01*
X156404632Y-73816782D01*
X156402874Y-73825563D01*
X156397230Y-73830018D01*
X155384989Y-74206211D01*
X155376040Y-74205881D01*
X155372640Y-74203517D01*
X155206482Y-74037359D01*
X155203055Y-74029086D01*
X155203786Y-74025017D01*
X155579982Y-73012767D01*
X155586075Y-73006208D01*
X155593214Y-73005367D01*
X156149442Y-73115321D01*
G37*
%TD.AperFunction*%
%TD*%
%TA.AperFunction,Conductor*%
%TO.N,/Display_SSD1322/D0*%
G36*
X109830119Y-72065626D02*
G01*
X109837549Y-72070622D01*
X109839272Y-72079410D01*
X109838849Y-72080953D01*
X109627739Y-72685433D01*
X109621776Y-72692113D01*
X109616693Y-72693275D01*
X109383307Y-72693275D01*
X109375034Y-72689848D01*
X109372261Y-72685433D01*
X109161150Y-72080953D01*
X109161658Y-72072012D01*
X109168338Y-72066049D01*
X109169870Y-72065628D01*
X109497686Y-71999467D01*
X109502314Y-71999467D01*
X109830119Y-72065626D01*
G37*
%TD.AperFunction*%
%TD*%
%TA.AperFunction,Conductor*%
%TO.N,/Display_SSD1322/D5*%
G36*
X153346642Y-80186242D02*
G01*
X153726637Y-80753488D01*
X153728395Y-80762269D01*
X153726637Y-80766512D01*
X153346642Y-81333757D01*
X153339191Y-81338723D01*
X153332049Y-81337882D01*
X152350277Y-80888127D01*
X152344183Y-80881566D01*
X152343450Y-80877490D01*
X152343450Y-80642509D01*
X152346877Y-80634236D01*
X152350274Y-80631873D01*
X153332050Y-80182116D01*
X153340998Y-80181787D01*
X153346642Y-80186242D01*
G37*
%TD.AperFunction*%
%TD*%
%TA.AperFunction,Conductor*%
%TO.N,/Display_SSD1322/D5*%
G36*
X104796052Y-74066248D02*
G01*
X104796844Y-74067638D01*
X105074998Y-74644348D01*
X105075506Y-74653289D01*
X105072733Y-74657704D01*
X104907704Y-74822733D01*
X104899431Y-74826160D01*
X104894348Y-74824998D01*
X104317638Y-74546844D01*
X104311675Y-74540164D01*
X104312183Y-74531223D01*
X104312970Y-74529840D01*
X104497989Y-74251255D01*
X104501255Y-74247989D01*
X104779834Y-74062974D01*
X104788621Y-74061252D01*
X104796052Y-74066248D01*
G37*
%TD.AperFunction*%
%TD*%
%TA.AperFunction,Conductor*%
%TO.N,/Display_SSD1322/D6*%
G36*
X103830119Y-73565626D02*
G01*
X103837549Y-73570622D01*
X103839272Y-73579410D01*
X103838849Y-73580953D01*
X103627739Y-74185433D01*
X103621776Y-74192113D01*
X103616693Y-74193275D01*
X103383307Y-74193275D01*
X103375034Y-74189848D01*
X103372261Y-74185433D01*
X103161150Y-73580953D01*
X103161658Y-73572012D01*
X103168338Y-73566049D01*
X103169870Y-73565628D01*
X103497686Y-73499467D01*
X103502314Y-73499467D01*
X103830119Y-73565626D01*
G37*
%TD.AperFunction*%
%TD*%
%TA.AperFunction,Conductor*%
%TO.N,/Display_SSD1322/D6*%
G36*
X156149442Y-80735321D02*
G01*
X156263017Y-80757773D01*
X156270468Y-80762739D01*
X156272226Y-80766982D01*
X156404632Y-81436782D01*
X156402874Y-81445563D01*
X156397230Y-81450018D01*
X155384989Y-81826211D01*
X155376040Y-81825881D01*
X155372640Y-81823517D01*
X155206482Y-81657359D01*
X155203055Y-81649086D01*
X155203786Y-81645017D01*
X155579982Y-80632767D01*
X155586075Y-80626208D01*
X155593214Y-80625367D01*
X156149442Y-80735321D01*
G37*
%TD.AperFunction*%
%TD*%
%TA.AperFunction,Conductor*%
%TO.N,/Display_SSD1322/D1*%
G36*
X108796052Y-73066248D02*
G01*
X108796844Y-73067638D01*
X109074998Y-73644348D01*
X109075506Y-73653289D01*
X109072733Y-73657704D01*
X108907704Y-73822733D01*
X108899431Y-73826160D01*
X108894348Y-73824998D01*
X108317638Y-73546844D01*
X108311675Y-73540164D01*
X108312183Y-73531223D01*
X108312970Y-73529840D01*
X108497989Y-73251255D01*
X108501255Y-73247989D01*
X108779834Y-73062974D01*
X108788621Y-73061252D01*
X108796052Y-73066248D01*
G37*
%TD.AperFunction*%
%TD*%
%TA.AperFunction,Conductor*%
%TO.N,/Display_SSD1322/D1*%
G36*
X153346642Y-75106242D02*
G01*
X153726637Y-75673488D01*
X153728395Y-75682269D01*
X153726637Y-75686512D01*
X153346642Y-76253757D01*
X153339191Y-76258723D01*
X153332049Y-76257882D01*
X152350277Y-75808127D01*
X152344183Y-75801566D01*
X152343450Y-75797490D01*
X152343450Y-75562509D01*
X152346877Y-75554236D01*
X152350274Y-75551873D01*
X153332050Y-75102116D01*
X153340998Y-75101787D01*
X153346642Y-75106242D01*
G37*
%TD.AperFunction*%
%TD*%
%TA.AperFunction,Conductor*%
%TO.N,Net-(D6-K)*%
G36*
X96830949Y-84161149D02*
G01*
X97435433Y-84372261D01*
X97442113Y-84378224D01*
X97443275Y-84383307D01*
X97443275Y-84616692D01*
X97439848Y-84624965D01*
X97435433Y-84627738D01*
X96830953Y-84838849D01*
X96822012Y-84838341D01*
X96816049Y-84831661D01*
X96815628Y-84830125D01*
X96749467Y-84502313D01*
X96749467Y-84497685D01*
X96815627Y-84169879D01*
X96820622Y-84162450D01*
X96829410Y-84160727D01*
X96830949Y-84161149D01*
G37*
%TD.AperFunction*%
%TD*%
%TA.AperFunction,Conductor*%
%TO.N,Net-(D6-K)*%
G36*
X121927987Y-84161658D02*
G01*
X121933950Y-84168338D01*
X121934373Y-84169881D01*
X122000532Y-84497685D01*
X122000532Y-84502315D01*
X121934373Y-84830118D01*
X121929377Y-84837549D01*
X121920589Y-84839272D01*
X121919046Y-84838849D01*
X121314567Y-84627738D01*
X121307887Y-84621775D01*
X121306725Y-84616692D01*
X121306725Y-84383307D01*
X121310152Y-84375034D01*
X121314566Y-84372261D01*
X121919047Y-84161150D01*
X121927987Y-84161658D01*
G37*
%TD.AperFunction*%
%TD*%
%TA.AperFunction,Conductor*%
%TO.N,Net-(U5-BS0)*%
G36*
X107203381Y-86212853D02*
G01*
X107686224Y-86421947D01*
X107692454Y-86428379D01*
X107693275Y-86432683D01*
X107693275Y-86666033D01*
X107689848Y-86674306D01*
X107684617Y-86677331D01*
X107080325Y-86840032D01*
X107071445Y-86838874D01*
X107065985Y-86831776D01*
X107065814Y-86831049D01*
X107034790Y-86677331D01*
X106999965Y-86504783D01*
X107001688Y-86495997D01*
X107189022Y-86217066D01*
X107196479Y-86212110D01*
X107203381Y-86212853D01*
G37*
%TD.AperFunction*%
%TD*%
%TA.AperFunction,Conductor*%
%TO.N,Net-(U5-BS0)*%
G36*
X122855648Y-96425000D02*
G01*
X123432361Y-96703155D01*
X123438324Y-96709835D01*
X123437816Y-96718776D01*
X123437024Y-96720166D01*
X123252013Y-96998740D01*
X123248740Y-97002013D01*
X122970166Y-97187024D01*
X122961378Y-97188747D01*
X122953947Y-97183751D01*
X122953155Y-97182361D01*
X122866171Y-97002013D01*
X122675000Y-96605649D01*
X122674493Y-96596710D01*
X122677264Y-96592297D01*
X122842296Y-96427265D01*
X122850568Y-96423839D01*
X122855648Y-96425000D01*
G37*
%TD.AperFunction*%
%TD*%
%TA.AperFunction,Conductor*%
%TO.N,Net-(U5-BS1)*%
G36*
X125677987Y-96661658D02*
G01*
X125683950Y-96668338D01*
X125684373Y-96669881D01*
X125750532Y-96997685D01*
X125750532Y-97002315D01*
X125684373Y-97330118D01*
X125679377Y-97337549D01*
X125670589Y-97339272D01*
X125669046Y-97338849D01*
X125064567Y-97127738D01*
X125057887Y-97121775D01*
X125056725Y-97116692D01*
X125056725Y-96883307D01*
X125060152Y-96875034D01*
X125064566Y-96872261D01*
X125669047Y-96661150D01*
X125677987Y-96661658D01*
G37*
%TD.AperFunction*%
%TD*%
%TA.AperFunction,Conductor*%
%TO.N,Net-(U5-BS1)*%
G36*
X108203381Y-85212853D02*
G01*
X108686224Y-85421947D01*
X108692454Y-85428379D01*
X108693275Y-85432683D01*
X108693275Y-85666033D01*
X108689848Y-85674306D01*
X108684617Y-85677331D01*
X108080325Y-85840032D01*
X108071445Y-85838874D01*
X108065985Y-85831776D01*
X108065814Y-85831049D01*
X108034790Y-85677331D01*
X107999965Y-85504783D01*
X108001688Y-85495997D01*
X108189022Y-85217066D01*
X108196479Y-85212110D01*
X108203381Y-85212853D01*
G37*
%TD.AperFunction*%
%TD*%
%TA.AperFunction,Conductor*%
%TO.N,Net-(J10-Pin_2)*%
G36*
X151430144Y-179127067D02*
G01*
X151976643Y-179943492D01*
X151978397Y-179952273D01*
X151976643Y-179956508D01*
X151430144Y-180772932D01*
X151422694Y-180777901D01*
X151415225Y-180776907D01*
X150005719Y-180078223D01*
X149999828Y-180071478D01*
X149999215Y-180067740D01*
X149999215Y-179832259D01*
X150002642Y-179823986D01*
X150005719Y-179821776D01*
X151415227Y-179123091D01*
X151424159Y-179122488D01*
X151430144Y-179127067D01*
G37*
%TD.AperFunction*%
%TD*%
%TA.AperFunction,Conductor*%
%TO.N,Net-(J10-Pin_2)*%
G36*
X125050119Y-170015626D02*
G01*
X125057549Y-170020622D01*
X125059272Y-170029410D01*
X125058849Y-170030953D01*
X124847739Y-170635433D01*
X124841776Y-170642113D01*
X124836693Y-170643275D01*
X124603307Y-170643275D01*
X124595034Y-170639848D01*
X124592261Y-170635433D01*
X124381150Y-170030953D01*
X124381658Y-170022012D01*
X124388338Y-170016049D01*
X124389870Y-170015628D01*
X124717686Y-169949467D01*
X124722314Y-169949467D01*
X125050119Y-170015626D01*
G37*
%TD.AperFunction*%
%TD*%
%TA.AperFunction,Conductor*%
%TO.N,Net-(J10-Pin_2)*%
G36*
X108505267Y-189889170D02*
G01*
X108506725Y-189894826D01*
X108506725Y-190111251D01*
X108503298Y-190119524D01*
X108495025Y-190122951D01*
X108493153Y-190122800D01*
X108190157Y-190073699D01*
X108182539Y-190068993D01*
X108180480Y-190060278D01*
X108185186Y-190052660D01*
X108186356Y-190051918D01*
X108489370Y-189884583D01*
X108498268Y-189883584D01*
X108505267Y-189889170D01*
G37*
%TD.AperFunction*%
%TD*%
%TA.AperFunction,Conductor*%
%TO.N,Net-(J10-Pin_2)*%
G36*
X93505267Y-189889170D02*
G01*
X93506725Y-189894826D01*
X93506725Y-190111251D01*
X93503298Y-190119524D01*
X93495025Y-190122951D01*
X93493153Y-190122800D01*
X93190157Y-190073699D01*
X93182539Y-190068993D01*
X93180480Y-190060278D01*
X93185186Y-190052660D01*
X93186356Y-190051918D01*
X93489370Y-189884583D01*
X93498268Y-189883584D01*
X93505267Y-189889170D01*
G37*
%TD.AperFunction*%
%TD*%
%TA.AperFunction,Conductor*%
%TO.N,Net-(J10-Pin_2)*%
G36*
X123427987Y-189661658D02*
G01*
X123433950Y-189668338D01*
X123434373Y-189669881D01*
X123500532Y-189997685D01*
X123500532Y-190002315D01*
X123434373Y-190330118D01*
X123429377Y-190337549D01*
X123420589Y-190339272D01*
X123419046Y-190338849D01*
X122814567Y-190127738D01*
X122807887Y-190121775D01*
X122806725Y-190116692D01*
X122806725Y-189883307D01*
X122810152Y-189875034D01*
X122814566Y-189872261D01*
X123419047Y-189661150D01*
X123427987Y-189661658D01*
G37*
%TD.AperFunction*%
%TD*%
%TA.AperFunction,Conductor*%
%TO.N,Net-(J10-Pin_2)*%
G36*
X123907704Y-189427266D02*
G01*
X124072733Y-189592295D01*
X124076160Y-189600568D01*
X124074998Y-189605651D01*
X123796844Y-190182361D01*
X123790164Y-190188324D01*
X123781223Y-190187816D01*
X123779833Y-190187024D01*
X123501259Y-190002013D01*
X123497987Y-189998741D01*
X123312974Y-189720165D01*
X123311252Y-189711378D01*
X123316248Y-189703947D01*
X123317628Y-189703160D01*
X123894350Y-189425000D01*
X123903289Y-189424493D01*
X123907704Y-189427266D01*
G37*
%TD.AperFunction*%
%TD*%
%TA.AperFunction,Conductor*%
%TO.N,Net-(J10-Pin_2)*%
G36*
X151430144Y-169127067D02*
G01*
X151976643Y-169943492D01*
X151978397Y-169952273D01*
X151976643Y-169956508D01*
X151430144Y-170772932D01*
X151422694Y-170777901D01*
X151415225Y-170776907D01*
X150005719Y-170078223D01*
X149999828Y-170071478D01*
X149999215Y-170067740D01*
X149999215Y-169832259D01*
X150002642Y-169823986D01*
X150005719Y-169821776D01*
X151415227Y-169123091D01*
X151424159Y-169122488D01*
X151430144Y-169127067D01*
G37*
%TD.AperFunction*%
%TD*%
%TA.AperFunction,Conductor*%
%TO.N,Net-(J10-Pin_2)*%
G36*
X62584772Y-169123091D02*
G01*
X63994281Y-169821776D01*
X64000172Y-169828521D01*
X64000785Y-169832259D01*
X64000785Y-170067740D01*
X63997358Y-170076013D01*
X63994281Y-170078223D01*
X62584774Y-170776907D01*
X62575840Y-170777511D01*
X62569855Y-170772932D01*
X62104830Y-170078223D01*
X62023355Y-169956507D01*
X62021602Y-169947727D01*
X62023356Y-169943492D01*
X62569855Y-169127066D01*
X62577305Y-169122098D01*
X62584772Y-169123091D01*
G37*
%TD.AperFunction*%
%TD*%
%TA.AperFunction,Conductor*%
%TO.N,Net-(J10-Pin_2)*%
G36*
X62584772Y-179123091D02*
G01*
X63994281Y-179821776D01*
X64000172Y-179828521D01*
X64000785Y-179832259D01*
X64000785Y-180067740D01*
X63997358Y-180076013D01*
X63994281Y-180078223D01*
X62584774Y-180776907D01*
X62575840Y-180777511D01*
X62569855Y-180772932D01*
X62104830Y-180078223D01*
X62023355Y-179956507D01*
X62021602Y-179947727D01*
X62023356Y-179943492D01*
X62569855Y-179127066D01*
X62577305Y-179122098D01*
X62584772Y-179123091D01*
G37*
%TD.AperFunction*%
%TD*%
%TA.AperFunction,Conductor*%
%TO.N,Net-(J10-Pin_1)*%
G36*
X119986253Y-120996702D02*
G01*
X119989680Y-121004975D01*
X119986253Y-121013248D01*
X119979830Y-121016528D01*
X119790598Y-121046838D01*
X119781887Y-121044762D01*
X119777195Y-121037135D01*
X119779271Y-121028424D01*
X119784944Y-121024221D01*
X119873152Y-120993909D01*
X119876954Y-120993275D01*
X119977980Y-120993275D01*
X119986253Y-120996702D01*
G37*
%TD.AperFunction*%
%TD*%
%TA.AperFunction,Conductor*%
%TO.N,Net-(J10-Pin_1)*%
G36*
X108177987Y-115411658D02*
G01*
X108183950Y-115418338D01*
X108184373Y-115419881D01*
X108250532Y-115747685D01*
X108250532Y-115752315D01*
X108184373Y-116080118D01*
X108179377Y-116087549D01*
X108170589Y-116089272D01*
X108169046Y-116088849D01*
X107564567Y-115877738D01*
X107557887Y-115871775D01*
X107556725Y-115866692D01*
X107556725Y-115633307D01*
X107560152Y-115625034D01*
X107564566Y-115622261D01*
X108169047Y-115411150D01*
X108177987Y-115411658D01*
G37*
%TD.AperFunction*%
%TD*%
%TA.AperFunction,Conductor*%
%TO.N,Net-(J10-Pin_1)*%
G36*
X74580949Y-115411149D02*
G01*
X75185433Y-115622261D01*
X75192113Y-115628224D01*
X75193275Y-115633307D01*
X75193275Y-115866692D01*
X75189848Y-115874965D01*
X75185433Y-115877738D01*
X74580953Y-116088849D01*
X74572012Y-116088341D01*
X74566049Y-116081661D01*
X74565628Y-116080125D01*
X74499467Y-115752313D01*
X74499467Y-115747685D01*
X74565627Y-115419879D01*
X74570622Y-115412450D01*
X74579410Y-115410727D01*
X74580949Y-115411149D01*
G37*
%TD.AperFunction*%
%TD*%
%TA.AperFunction,Conductor*%
%TO.N,Net-(J10-Pin_1)*%
G36*
X104757704Y-148177266D02*
G01*
X104922733Y-148342295D01*
X104926160Y-148350568D01*
X104924998Y-148355651D01*
X104646844Y-148932361D01*
X104640164Y-148938324D01*
X104631223Y-148937816D01*
X104629833Y-148937024D01*
X104351259Y-148752013D01*
X104347987Y-148748741D01*
X104162974Y-148470165D01*
X104161252Y-148461378D01*
X104166248Y-148453947D01*
X104167628Y-148453160D01*
X104744350Y-148175000D01*
X104753289Y-148174493D01*
X104757704Y-148177266D01*
G37*
%TD.AperFunction*%
%TD*%
%TA.AperFunction,Conductor*%
%TO.N,Net-(J10-Pin_1)*%
G36*
X108330949Y-115411149D02*
G01*
X108935433Y-115622261D01*
X108942113Y-115628224D01*
X108943275Y-115633307D01*
X108943275Y-115866692D01*
X108939848Y-115874965D01*
X108935433Y-115877738D01*
X108330953Y-116088849D01*
X108322012Y-116088341D01*
X108316049Y-116081661D01*
X108315628Y-116080125D01*
X108249467Y-115752313D01*
X108249467Y-115747685D01*
X108315627Y-115419879D01*
X108320622Y-115412450D01*
X108329410Y-115410727D01*
X108330949Y-115411149D01*
G37*
%TD.AperFunction*%
%TD*%
M02*
