%TF.GenerationSoftware,KiCad,Pcbnew,9.0.7*%
%TF.CreationDate,2026-04-09T10:21:35+02:00*%
%TF.ProjectId,board3-main,626f6172-6433-42d6-9d61-696e2e6b6963,1*%
%TF.SameCoordinates,Original*%
%TF.FileFunction,AssemblyDrawing,Bot*%
%FSLAX46Y46*%
G04 Gerber Fmt 4.6, Leading zero omitted, Abs format (unit mm)*
G04 Created by KiCad (PCBNEW 9.0.7) date 2026-04-09 10:21:35*
%MOMM*%
%LPD*%
G01*
G04 APERTURE LIST*
%ADD10C,0.150000*%
%ADD11C,0.120000*%
%ADD12C,0.160000*%
%ADD13C,0.100000*%
G04 APERTURE END LIST*
D10*
X98011904Y-111054819D02*
X98011904Y-110054819D01*
X98011904Y-110531009D02*
X97440476Y-110531009D01*
X97440476Y-111054819D02*
X97440476Y-110054819D01*
X96535714Y-110388152D02*
X96535714Y-111054819D01*
X96773809Y-110007200D02*
X97011904Y-110721485D01*
X97011904Y-110721485D02*
X96392857Y-110721485D01*
X74392857Y-196454819D02*
X74869047Y-196454819D01*
X74869047Y-196454819D02*
X74869047Y-195454819D01*
X74059523Y-196454819D02*
X74059523Y-195788152D01*
X74059523Y-195454819D02*
X74107142Y-195502438D01*
X74107142Y-195502438D02*
X74059523Y-195550057D01*
X74059523Y-195550057D02*
X74011904Y-195502438D01*
X74011904Y-195502438D02*
X74059523Y-195454819D01*
X74059523Y-195454819D02*
X74059523Y-195550057D01*
X73726190Y-195788152D02*
X73345238Y-195788152D01*
X73583333Y-195454819D02*
X73583333Y-196311961D01*
X73583333Y-196311961D02*
X73535714Y-196407200D01*
X73535714Y-196407200D02*
X73440476Y-196454819D01*
X73440476Y-196454819D02*
X73345238Y-196454819D01*
X72630952Y-196407200D02*
X72726190Y-196454819D01*
X72726190Y-196454819D02*
X72916666Y-196454819D01*
X72916666Y-196454819D02*
X73011904Y-196407200D01*
X73011904Y-196407200D02*
X73059523Y-196311961D01*
X73059523Y-196311961D02*
X73059523Y-195931009D01*
X73059523Y-195931009D02*
X73011904Y-195835771D01*
X73011904Y-195835771D02*
X72916666Y-195788152D01*
X72916666Y-195788152D02*
X72726190Y-195788152D01*
X72726190Y-195788152D02*
X72630952Y-195835771D01*
X72630952Y-195835771D02*
X72583333Y-195931009D01*
X72583333Y-195931009D02*
X72583333Y-196026247D01*
X72583333Y-196026247D02*
X73059523Y-196121485D01*
X71964285Y-195454819D02*
X71773809Y-195454819D01*
X71773809Y-195454819D02*
X71678571Y-195502438D01*
X71678571Y-195502438D02*
X71583333Y-195597676D01*
X71583333Y-195597676D02*
X71535714Y-195788152D01*
X71535714Y-195788152D02*
X71535714Y-196121485D01*
X71535714Y-196121485D02*
X71583333Y-196311961D01*
X71583333Y-196311961D02*
X71678571Y-196407200D01*
X71678571Y-196407200D02*
X71773809Y-196454819D01*
X71773809Y-196454819D02*
X71964285Y-196454819D01*
X71964285Y-196454819D02*
X72059523Y-196407200D01*
X72059523Y-196407200D02*
X72154761Y-196311961D01*
X72154761Y-196311961D02*
X72202380Y-196121485D01*
X72202380Y-196121485D02*
X72202380Y-195788152D01*
X72202380Y-195788152D02*
X72154761Y-195597676D01*
X72154761Y-195597676D02*
X72059523Y-195502438D01*
X72059523Y-195502438D02*
X71964285Y-195454819D01*
X71107142Y-195788152D02*
X71107142Y-196454819D01*
X71107142Y-195883390D02*
X71059523Y-195835771D01*
X71059523Y-195835771D02*
X70964285Y-195788152D01*
X70964285Y-195788152D02*
X70821428Y-195788152D01*
X70821428Y-195788152D02*
X70726190Y-195835771D01*
X70726190Y-195835771D02*
X70678571Y-195931009D01*
X70678571Y-195931009D02*
X70678571Y-196454819D01*
X70440476Y-196550057D02*
X69678571Y-196550057D01*
X68964285Y-196454819D02*
X69440475Y-196454819D01*
X69440475Y-196454819D02*
X69440475Y-195454819D01*
X68773808Y-195454819D02*
X68202380Y-195454819D01*
X68488094Y-196454819D02*
X68488094Y-195454819D01*
X67916665Y-196407200D02*
X67773808Y-196454819D01*
X67773808Y-196454819D02*
X67535713Y-196454819D01*
X67535713Y-196454819D02*
X67440475Y-196407200D01*
X67440475Y-196407200D02*
X67392856Y-196359580D01*
X67392856Y-196359580D02*
X67345237Y-196264342D01*
X67345237Y-196264342D02*
X67345237Y-196169104D01*
X67345237Y-196169104D02*
X67392856Y-196073866D01*
X67392856Y-196073866D02*
X67440475Y-196026247D01*
X67440475Y-196026247D02*
X67535713Y-195978628D01*
X67535713Y-195978628D02*
X67726189Y-195931009D01*
X67726189Y-195931009D02*
X67821427Y-195883390D01*
X67821427Y-195883390D02*
X67869046Y-195835771D01*
X67869046Y-195835771D02*
X67916665Y-195740533D01*
X67916665Y-195740533D02*
X67916665Y-195645295D01*
X67916665Y-195645295D02*
X67869046Y-195550057D01*
X67869046Y-195550057D02*
X67821427Y-195502438D01*
X67821427Y-195502438D02*
X67726189Y-195454819D01*
X67726189Y-195454819D02*
X67488094Y-195454819D01*
X67488094Y-195454819D02*
X67345237Y-195502438D01*
X67059522Y-195454819D02*
X66488094Y-195454819D01*
X66773808Y-196454819D02*
X66773808Y-195454819D01*
X66154760Y-196073866D02*
X65392856Y-196073866D01*
X64916665Y-195931009D02*
X64583332Y-195931009D01*
X64440475Y-196454819D02*
X64916665Y-196454819D01*
X64916665Y-196454819D02*
X64916665Y-195454819D01*
X64916665Y-195454819D02*
X64440475Y-195454819D01*
X63535713Y-195454819D02*
X64011903Y-195454819D01*
X64011903Y-195454819D02*
X64059522Y-195931009D01*
X64059522Y-195931009D02*
X64011903Y-195883390D01*
X64011903Y-195883390D02*
X63916665Y-195835771D01*
X63916665Y-195835771D02*
X63678570Y-195835771D01*
X63678570Y-195835771D02*
X63583332Y-195883390D01*
X63583332Y-195883390D02*
X63535713Y-195931009D01*
X63535713Y-195931009D02*
X63488094Y-196026247D01*
X63488094Y-196026247D02*
X63488094Y-196264342D01*
X63488094Y-196264342D02*
X63535713Y-196359580D01*
X63535713Y-196359580D02*
X63583332Y-196407200D01*
X63583332Y-196407200D02*
X63678570Y-196454819D01*
X63678570Y-196454819D02*
X63916665Y-196454819D01*
X63916665Y-196454819D02*
X64011903Y-196407200D01*
X64011903Y-196407200D02*
X64059522Y-196359580D01*
X62630951Y-195454819D02*
X62821427Y-195454819D01*
X62821427Y-195454819D02*
X62916665Y-195502438D01*
X62916665Y-195502438D02*
X62964284Y-195550057D01*
X62964284Y-195550057D02*
X63059522Y-195692914D01*
X63059522Y-195692914D02*
X63107141Y-195883390D01*
X63107141Y-195883390D02*
X63107141Y-196264342D01*
X63107141Y-196264342D02*
X63059522Y-196359580D01*
X63059522Y-196359580D02*
X63011903Y-196407200D01*
X63011903Y-196407200D02*
X62916665Y-196454819D01*
X62916665Y-196454819D02*
X62726189Y-196454819D01*
X62726189Y-196454819D02*
X62630951Y-196407200D01*
X62630951Y-196407200D02*
X62583332Y-196359580D01*
X62583332Y-196359580D02*
X62535713Y-196264342D01*
X62535713Y-196264342D02*
X62535713Y-196026247D01*
X62535713Y-196026247D02*
X62583332Y-195931009D01*
X62583332Y-195931009D02*
X62630951Y-195883390D01*
X62630951Y-195883390D02*
X62726189Y-195835771D01*
X62726189Y-195835771D02*
X62916665Y-195835771D01*
X62916665Y-195835771D02*
X63011903Y-195883390D01*
X63011903Y-195883390D02*
X63059522Y-195931009D01*
X63059522Y-195931009D02*
X63107141Y-196026247D01*
X62202379Y-195454819D02*
X61583332Y-195454819D01*
X61583332Y-195454819D02*
X61916665Y-195835771D01*
X61916665Y-195835771D02*
X61773808Y-195835771D01*
X61773808Y-195835771D02*
X61678570Y-195883390D01*
X61678570Y-195883390D02*
X61630951Y-195931009D01*
X61630951Y-195931009D02*
X61583332Y-196026247D01*
X61583332Y-196026247D02*
X61583332Y-196264342D01*
X61583332Y-196264342D02*
X61630951Y-196359580D01*
X61630951Y-196359580D02*
X61678570Y-196407200D01*
X61678570Y-196407200D02*
X61773808Y-196454819D01*
X61773808Y-196454819D02*
X62059522Y-196454819D01*
X62059522Y-196454819D02*
X62154760Y-196407200D01*
X62154760Y-196407200D02*
X62202379Y-196359580D01*
X60583332Y-196359580D02*
X60630951Y-196407200D01*
X60630951Y-196407200D02*
X60773808Y-196454819D01*
X60773808Y-196454819D02*
X60869046Y-196454819D01*
X60869046Y-196454819D02*
X61011903Y-196407200D01*
X61011903Y-196407200D02*
X61107141Y-196311961D01*
X61107141Y-196311961D02*
X61154760Y-196216723D01*
X61154760Y-196216723D02*
X61202379Y-196026247D01*
X61202379Y-196026247D02*
X61202379Y-195883390D01*
X61202379Y-195883390D02*
X61154760Y-195692914D01*
X61154760Y-195692914D02*
X61107141Y-195597676D01*
X61107141Y-195597676D02*
X61011903Y-195502438D01*
X61011903Y-195502438D02*
X60869046Y-195454819D01*
X60869046Y-195454819D02*
X60773808Y-195454819D01*
X60773808Y-195454819D02*
X60630951Y-195502438D01*
X60630951Y-195502438D02*
X60583332Y-195550057D01*
D11*
X68340475Y-192863855D02*
X68340475Y-192063855D01*
X68340475Y-192063855D02*
X68149999Y-192063855D01*
X68149999Y-192063855D02*
X68035713Y-192101950D01*
X68035713Y-192101950D02*
X67959523Y-192178140D01*
X67959523Y-192178140D02*
X67921428Y-192254331D01*
X67921428Y-192254331D02*
X67883332Y-192406712D01*
X67883332Y-192406712D02*
X67883332Y-192520998D01*
X67883332Y-192520998D02*
X67921428Y-192673379D01*
X67921428Y-192673379D02*
X67959523Y-192749569D01*
X67959523Y-192749569D02*
X68035713Y-192825760D01*
X68035713Y-192825760D02*
X68149999Y-192863855D01*
X68149999Y-192863855D02*
X68340475Y-192863855D01*
X67159523Y-192063855D02*
X67540475Y-192063855D01*
X67540475Y-192063855D02*
X67578571Y-192444807D01*
X67578571Y-192444807D02*
X67540475Y-192406712D01*
X67540475Y-192406712D02*
X67464285Y-192368617D01*
X67464285Y-192368617D02*
X67273809Y-192368617D01*
X67273809Y-192368617D02*
X67197618Y-192406712D01*
X67197618Y-192406712D02*
X67159523Y-192444807D01*
X67159523Y-192444807D02*
X67121428Y-192520998D01*
X67121428Y-192520998D02*
X67121428Y-192711474D01*
X67121428Y-192711474D02*
X67159523Y-192787664D01*
X67159523Y-192787664D02*
X67197618Y-192825760D01*
X67197618Y-192825760D02*
X67273809Y-192863855D01*
X67273809Y-192863855D02*
X67464285Y-192863855D01*
X67464285Y-192863855D02*
X67540475Y-192825760D01*
X67540475Y-192825760D02*
X67578571Y-192787664D01*
D12*
X100933333Y-102893320D02*
X101076190Y-102845700D01*
X101076190Y-102845700D02*
X101314285Y-102845700D01*
X101314285Y-102845700D02*
X101409523Y-102893320D01*
X101409523Y-102893320D02*
X101457142Y-102940939D01*
X101457142Y-102940939D02*
X101504761Y-103036177D01*
X101504761Y-103036177D02*
X101504761Y-103131415D01*
X101504761Y-103131415D02*
X101457142Y-103226653D01*
X101457142Y-103226653D02*
X101409523Y-103274272D01*
X101409523Y-103274272D02*
X101314285Y-103321891D01*
X101314285Y-103321891D02*
X101123809Y-103369510D01*
X101123809Y-103369510D02*
X101028571Y-103417129D01*
X101028571Y-103417129D02*
X100980952Y-103464748D01*
X100980952Y-103464748D02*
X100933333Y-103559986D01*
X100933333Y-103559986D02*
X100933333Y-103655224D01*
X100933333Y-103655224D02*
X100980952Y-103750462D01*
X100980952Y-103750462D02*
X101028571Y-103798081D01*
X101028571Y-103798081D02*
X101123809Y-103845700D01*
X101123809Y-103845700D02*
X101361904Y-103845700D01*
X101361904Y-103845700D02*
X101504761Y-103798081D01*
X101885714Y-102893320D02*
X102028571Y-102845700D01*
X102028571Y-102845700D02*
X102266666Y-102845700D01*
X102266666Y-102845700D02*
X102361904Y-102893320D01*
X102361904Y-102893320D02*
X102409523Y-102940939D01*
X102409523Y-102940939D02*
X102457142Y-103036177D01*
X102457142Y-103036177D02*
X102457142Y-103131415D01*
X102457142Y-103131415D02*
X102409523Y-103226653D01*
X102409523Y-103226653D02*
X102361904Y-103274272D01*
X102361904Y-103274272D02*
X102266666Y-103321891D01*
X102266666Y-103321891D02*
X102076190Y-103369510D01*
X102076190Y-103369510D02*
X101980952Y-103417129D01*
X101980952Y-103417129D02*
X101933333Y-103464748D01*
X101933333Y-103464748D02*
X101885714Y-103559986D01*
X101885714Y-103559986D02*
X101885714Y-103655224D01*
X101885714Y-103655224D02*
X101933333Y-103750462D01*
X101933333Y-103750462D02*
X101980952Y-103798081D01*
X101980952Y-103798081D02*
X102076190Y-103845700D01*
X102076190Y-103845700D02*
X102314285Y-103845700D01*
X102314285Y-103845700D02*
X102457142Y-103798081D01*
X102885714Y-102845700D02*
X102885714Y-103845700D01*
X102885714Y-103845700D02*
X103123809Y-103845700D01*
X103123809Y-103845700D02*
X103266666Y-103798081D01*
X103266666Y-103798081D02*
X103361904Y-103702843D01*
X103361904Y-103702843D02*
X103409523Y-103607605D01*
X103409523Y-103607605D02*
X103457142Y-103417129D01*
X103457142Y-103417129D02*
X103457142Y-103274272D01*
X103457142Y-103274272D02*
X103409523Y-103083796D01*
X103409523Y-103083796D02*
X103361904Y-102988558D01*
X103361904Y-102988558D02*
X103266666Y-102893320D01*
X103266666Y-102893320D02*
X103123809Y-102845700D01*
X103123809Y-102845700D02*
X102885714Y-102845700D01*
X104409523Y-102845700D02*
X103838095Y-102845700D01*
X104123809Y-102845700D02*
X104123809Y-103845700D01*
X104123809Y-103845700D02*
X104028571Y-103702843D01*
X104028571Y-103702843D02*
X103933333Y-103607605D01*
X103933333Y-103607605D02*
X103838095Y-103559986D01*
X104742857Y-103845700D02*
X105361904Y-103845700D01*
X105361904Y-103845700D02*
X105028571Y-103464748D01*
X105028571Y-103464748D02*
X105171428Y-103464748D01*
X105171428Y-103464748D02*
X105266666Y-103417129D01*
X105266666Y-103417129D02*
X105314285Y-103369510D01*
X105314285Y-103369510D02*
X105361904Y-103274272D01*
X105361904Y-103274272D02*
X105361904Y-103036177D01*
X105361904Y-103036177D02*
X105314285Y-102940939D01*
X105314285Y-102940939D02*
X105266666Y-102893320D01*
X105266666Y-102893320D02*
X105171428Y-102845700D01*
X105171428Y-102845700D02*
X104885714Y-102845700D01*
X104885714Y-102845700D02*
X104790476Y-102893320D01*
X104790476Y-102893320D02*
X104742857Y-102940939D01*
X105742857Y-103750462D02*
X105790476Y-103798081D01*
X105790476Y-103798081D02*
X105885714Y-103845700D01*
X105885714Y-103845700D02*
X106123809Y-103845700D01*
X106123809Y-103845700D02*
X106219047Y-103798081D01*
X106219047Y-103798081D02*
X106266666Y-103750462D01*
X106266666Y-103750462D02*
X106314285Y-103655224D01*
X106314285Y-103655224D02*
X106314285Y-103559986D01*
X106314285Y-103559986D02*
X106266666Y-103417129D01*
X106266666Y-103417129D02*
X105695238Y-102845700D01*
X105695238Y-102845700D02*
X106314285Y-102845700D01*
X106695238Y-103750462D02*
X106742857Y-103798081D01*
X106742857Y-103798081D02*
X106838095Y-103845700D01*
X106838095Y-103845700D02*
X107076190Y-103845700D01*
X107076190Y-103845700D02*
X107171428Y-103798081D01*
X107171428Y-103798081D02*
X107219047Y-103750462D01*
X107219047Y-103750462D02*
X107266666Y-103655224D01*
X107266666Y-103655224D02*
X107266666Y-103559986D01*
X107266666Y-103559986D02*
X107219047Y-103417129D01*
X107219047Y-103417129D02*
X106647619Y-102845700D01*
X106647619Y-102845700D02*
X107266666Y-102845700D01*
D10*
X103338095Y-102345180D02*
X103338095Y-101535657D01*
X103338095Y-101535657D02*
X103385714Y-101440419D01*
X103385714Y-101440419D02*
X103433333Y-101392800D01*
X103433333Y-101392800D02*
X103528571Y-101345180D01*
X103528571Y-101345180D02*
X103719047Y-101345180D01*
X103719047Y-101345180D02*
X103814285Y-101392800D01*
X103814285Y-101392800D02*
X103861904Y-101440419D01*
X103861904Y-101440419D02*
X103909523Y-101535657D01*
X103909523Y-101535657D02*
X103909523Y-102345180D01*
X104909523Y-101345180D02*
X104338095Y-101345180D01*
X104623809Y-101345180D02*
X104623809Y-102345180D01*
X104623809Y-102345180D02*
X104528571Y-102202323D01*
X104528571Y-102202323D02*
X104433333Y-102107085D01*
X104433333Y-102107085D02*
X104338095Y-102059466D01*
X105128814Y-101844467D02*
X103113095Y-101844467D01*
D12*
X104083333Y-98843320D02*
X104226190Y-98795700D01*
X104226190Y-98795700D02*
X104464285Y-98795700D01*
X104464285Y-98795700D02*
X104559523Y-98843320D01*
X104559523Y-98843320D02*
X104607142Y-98890939D01*
X104607142Y-98890939D02*
X104654761Y-98986177D01*
X104654761Y-98986177D02*
X104654761Y-99081415D01*
X104654761Y-99081415D02*
X104607142Y-99176653D01*
X104607142Y-99176653D02*
X104559523Y-99224272D01*
X104559523Y-99224272D02*
X104464285Y-99271891D01*
X104464285Y-99271891D02*
X104273809Y-99319510D01*
X104273809Y-99319510D02*
X104178571Y-99367129D01*
X104178571Y-99367129D02*
X104130952Y-99414748D01*
X104130952Y-99414748D02*
X104083333Y-99509986D01*
X104083333Y-99509986D02*
X104083333Y-99605224D01*
X104083333Y-99605224D02*
X104130952Y-99700462D01*
X104130952Y-99700462D02*
X104178571Y-99748081D01*
X104178571Y-99748081D02*
X104273809Y-99795700D01*
X104273809Y-99795700D02*
X104511904Y-99795700D01*
X104511904Y-99795700D02*
X104654761Y-99748081D01*
X105035714Y-98843320D02*
X105178571Y-98795700D01*
X105178571Y-98795700D02*
X105416666Y-98795700D01*
X105416666Y-98795700D02*
X105511904Y-98843320D01*
X105511904Y-98843320D02*
X105559523Y-98890939D01*
X105559523Y-98890939D02*
X105607142Y-98986177D01*
X105607142Y-98986177D02*
X105607142Y-99081415D01*
X105607142Y-99081415D02*
X105559523Y-99176653D01*
X105559523Y-99176653D02*
X105511904Y-99224272D01*
X105511904Y-99224272D02*
X105416666Y-99271891D01*
X105416666Y-99271891D02*
X105226190Y-99319510D01*
X105226190Y-99319510D02*
X105130952Y-99367129D01*
X105130952Y-99367129D02*
X105083333Y-99414748D01*
X105083333Y-99414748D02*
X105035714Y-99509986D01*
X105035714Y-99509986D02*
X105035714Y-99605224D01*
X105035714Y-99605224D02*
X105083333Y-99700462D01*
X105083333Y-99700462D02*
X105130952Y-99748081D01*
X105130952Y-99748081D02*
X105226190Y-99795700D01*
X105226190Y-99795700D02*
X105464285Y-99795700D01*
X105464285Y-99795700D02*
X105607142Y-99748081D01*
X106035714Y-98795700D02*
X106035714Y-99795700D01*
X106035714Y-99795700D02*
X106273809Y-99795700D01*
X106273809Y-99795700D02*
X106416666Y-99748081D01*
X106416666Y-99748081D02*
X106511904Y-99652843D01*
X106511904Y-99652843D02*
X106559523Y-99557605D01*
X106559523Y-99557605D02*
X106607142Y-99367129D01*
X106607142Y-99367129D02*
X106607142Y-99224272D01*
X106607142Y-99224272D02*
X106559523Y-99033796D01*
X106559523Y-99033796D02*
X106511904Y-98938558D01*
X106511904Y-98938558D02*
X106416666Y-98843320D01*
X106416666Y-98843320D02*
X106273809Y-98795700D01*
X106273809Y-98795700D02*
X106035714Y-98795700D01*
X107559523Y-98795700D02*
X106988095Y-98795700D01*
X107273809Y-98795700D02*
X107273809Y-99795700D01*
X107273809Y-99795700D02*
X107178571Y-99652843D01*
X107178571Y-99652843D02*
X107083333Y-99557605D01*
X107083333Y-99557605D02*
X106988095Y-99509986D01*
X107892857Y-99795700D02*
X108511904Y-99795700D01*
X108511904Y-99795700D02*
X108178571Y-99414748D01*
X108178571Y-99414748D02*
X108321428Y-99414748D01*
X108321428Y-99414748D02*
X108416666Y-99367129D01*
X108416666Y-99367129D02*
X108464285Y-99319510D01*
X108464285Y-99319510D02*
X108511904Y-99224272D01*
X108511904Y-99224272D02*
X108511904Y-98986177D01*
X108511904Y-98986177D02*
X108464285Y-98890939D01*
X108464285Y-98890939D02*
X108416666Y-98843320D01*
X108416666Y-98843320D02*
X108321428Y-98795700D01*
X108321428Y-98795700D02*
X108035714Y-98795700D01*
X108035714Y-98795700D02*
X107940476Y-98843320D01*
X107940476Y-98843320D02*
X107892857Y-98890939D01*
X108892857Y-99700462D02*
X108940476Y-99748081D01*
X108940476Y-99748081D02*
X109035714Y-99795700D01*
X109035714Y-99795700D02*
X109273809Y-99795700D01*
X109273809Y-99795700D02*
X109369047Y-99748081D01*
X109369047Y-99748081D02*
X109416666Y-99700462D01*
X109416666Y-99700462D02*
X109464285Y-99605224D01*
X109464285Y-99605224D02*
X109464285Y-99509986D01*
X109464285Y-99509986D02*
X109416666Y-99367129D01*
X109416666Y-99367129D02*
X108845238Y-98795700D01*
X108845238Y-98795700D02*
X109464285Y-98795700D01*
X109845238Y-99700462D02*
X109892857Y-99748081D01*
X109892857Y-99748081D02*
X109988095Y-99795700D01*
X109988095Y-99795700D02*
X110226190Y-99795700D01*
X110226190Y-99795700D02*
X110321428Y-99748081D01*
X110321428Y-99748081D02*
X110369047Y-99700462D01*
X110369047Y-99700462D02*
X110416666Y-99605224D01*
X110416666Y-99605224D02*
X110416666Y-99509986D01*
X110416666Y-99509986D02*
X110369047Y-99367129D01*
X110369047Y-99367129D02*
X109797619Y-98795700D01*
X109797619Y-98795700D02*
X110416666Y-98795700D01*
D10*
X106488095Y-98295180D02*
X106488095Y-97485657D01*
X106488095Y-97485657D02*
X106535714Y-97390419D01*
X106535714Y-97390419D02*
X106583333Y-97342800D01*
X106583333Y-97342800D02*
X106678571Y-97295180D01*
X106678571Y-97295180D02*
X106869047Y-97295180D01*
X106869047Y-97295180D02*
X106964285Y-97342800D01*
X106964285Y-97342800D02*
X107011904Y-97390419D01*
X107011904Y-97390419D02*
X107059523Y-97485657D01*
X107059523Y-97485657D02*
X107059523Y-98295180D01*
X108011904Y-98295180D02*
X107535714Y-98295180D01*
X107535714Y-98295180D02*
X107488095Y-97818990D01*
X107488095Y-97818990D02*
X107535714Y-97866609D01*
X107535714Y-97866609D02*
X107630952Y-97914228D01*
X107630952Y-97914228D02*
X107869047Y-97914228D01*
X107869047Y-97914228D02*
X107964285Y-97866609D01*
X107964285Y-97866609D02*
X108011904Y-97818990D01*
X108011904Y-97818990D02*
X108059523Y-97723752D01*
X108059523Y-97723752D02*
X108059523Y-97485657D01*
X108059523Y-97485657D02*
X108011904Y-97390419D01*
X108011904Y-97390419D02*
X107964285Y-97342800D01*
X107964285Y-97342800D02*
X107869047Y-97295180D01*
X107869047Y-97295180D02*
X107630952Y-97295180D01*
X107630952Y-97295180D02*
X107535714Y-97342800D01*
X107535714Y-97342800D02*
X107488095Y-97390419D01*
X103892857Y-107454819D02*
X104369047Y-107454819D01*
X104369047Y-107454819D02*
X104369047Y-106454819D01*
X103559523Y-107454819D02*
X103559523Y-106788152D01*
X103559523Y-106454819D02*
X103607142Y-106502438D01*
X103607142Y-106502438D02*
X103559523Y-106550057D01*
X103559523Y-106550057D02*
X103511904Y-106502438D01*
X103511904Y-106502438D02*
X103559523Y-106454819D01*
X103559523Y-106454819D02*
X103559523Y-106550057D01*
X103226190Y-106788152D02*
X102845238Y-106788152D01*
X103083333Y-106454819D02*
X103083333Y-107311961D01*
X103083333Y-107311961D02*
X103035714Y-107407200D01*
X103035714Y-107407200D02*
X102940476Y-107454819D01*
X102940476Y-107454819D02*
X102845238Y-107454819D01*
X102130952Y-107407200D02*
X102226190Y-107454819D01*
X102226190Y-107454819D02*
X102416666Y-107454819D01*
X102416666Y-107454819D02*
X102511904Y-107407200D01*
X102511904Y-107407200D02*
X102559523Y-107311961D01*
X102559523Y-107311961D02*
X102559523Y-106931009D01*
X102559523Y-106931009D02*
X102511904Y-106835771D01*
X102511904Y-106835771D02*
X102416666Y-106788152D01*
X102416666Y-106788152D02*
X102226190Y-106788152D01*
X102226190Y-106788152D02*
X102130952Y-106835771D01*
X102130952Y-106835771D02*
X102083333Y-106931009D01*
X102083333Y-106931009D02*
X102083333Y-107026247D01*
X102083333Y-107026247D02*
X102559523Y-107121485D01*
X101464285Y-106454819D02*
X101273809Y-106454819D01*
X101273809Y-106454819D02*
X101178571Y-106502438D01*
X101178571Y-106502438D02*
X101083333Y-106597676D01*
X101083333Y-106597676D02*
X101035714Y-106788152D01*
X101035714Y-106788152D02*
X101035714Y-107121485D01*
X101035714Y-107121485D02*
X101083333Y-107311961D01*
X101083333Y-107311961D02*
X101178571Y-107407200D01*
X101178571Y-107407200D02*
X101273809Y-107454819D01*
X101273809Y-107454819D02*
X101464285Y-107454819D01*
X101464285Y-107454819D02*
X101559523Y-107407200D01*
X101559523Y-107407200D02*
X101654761Y-107311961D01*
X101654761Y-107311961D02*
X101702380Y-107121485D01*
X101702380Y-107121485D02*
X101702380Y-106788152D01*
X101702380Y-106788152D02*
X101654761Y-106597676D01*
X101654761Y-106597676D02*
X101559523Y-106502438D01*
X101559523Y-106502438D02*
X101464285Y-106454819D01*
X100607142Y-106788152D02*
X100607142Y-107454819D01*
X100607142Y-106883390D02*
X100559523Y-106835771D01*
X100559523Y-106835771D02*
X100464285Y-106788152D01*
X100464285Y-106788152D02*
X100321428Y-106788152D01*
X100321428Y-106788152D02*
X100226190Y-106835771D01*
X100226190Y-106835771D02*
X100178571Y-106931009D01*
X100178571Y-106931009D02*
X100178571Y-107454819D01*
X99940476Y-107550057D02*
X99178571Y-107550057D01*
X98464285Y-107454819D02*
X98940475Y-107454819D01*
X98940475Y-107454819D02*
X98940475Y-106454819D01*
X98273808Y-106454819D02*
X97702380Y-106454819D01*
X97988094Y-107454819D02*
X97988094Y-106454819D01*
X97416665Y-107407200D02*
X97273808Y-107454819D01*
X97273808Y-107454819D02*
X97035713Y-107454819D01*
X97035713Y-107454819D02*
X96940475Y-107407200D01*
X96940475Y-107407200D02*
X96892856Y-107359580D01*
X96892856Y-107359580D02*
X96845237Y-107264342D01*
X96845237Y-107264342D02*
X96845237Y-107169104D01*
X96845237Y-107169104D02*
X96892856Y-107073866D01*
X96892856Y-107073866D02*
X96940475Y-107026247D01*
X96940475Y-107026247D02*
X97035713Y-106978628D01*
X97035713Y-106978628D02*
X97226189Y-106931009D01*
X97226189Y-106931009D02*
X97321427Y-106883390D01*
X97321427Y-106883390D02*
X97369046Y-106835771D01*
X97369046Y-106835771D02*
X97416665Y-106740533D01*
X97416665Y-106740533D02*
X97416665Y-106645295D01*
X97416665Y-106645295D02*
X97369046Y-106550057D01*
X97369046Y-106550057D02*
X97321427Y-106502438D01*
X97321427Y-106502438D02*
X97226189Y-106454819D01*
X97226189Y-106454819D02*
X96988094Y-106454819D01*
X96988094Y-106454819D02*
X96845237Y-106502438D01*
X96559522Y-106454819D02*
X95988094Y-106454819D01*
X96273808Y-107454819D02*
X96273808Y-106454819D01*
X95654760Y-107073866D02*
X94892856Y-107073866D01*
X94416665Y-106931009D02*
X94083332Y-106931009D01*
X93940475Y-107454819D02*
X94416665Y-107454819D01*
X94416665Y-107454819D02*
X94416665Y-106454819D01*
X94416665Y-106454819D02*
X93940475Y-106454819D01*
X93035713Y-106454819D02*
X93511903Y-106454819D01*
X93511903Y-106454819D02*
X93559522Y-106931009D01*
X93559522Y-106931009D02*
X93511903Y-106883390D01*
X93511903Y-106883390D02*
X93416665Y-106835771D01*
X93416665Y-106835771D02*
X93178570Y-106835771D01*
X93178570Y-106835771D02*
X93083332Y-106883390D01*
X93083332Y-106883390D02*
X93035713Y-106931009D01*
X93035713Y-106931009D02*
X92988094Y-107026247D01*
X92988094Y-107026247D02*
X92988094Y-107264342D01*
X92988094Y-107264342D02*
X93035713Y-107359580D01*
X93035713Y-107359580D02*
X93083332Y-107407200D01*
X93083332Y-107407200D02*
X93178570Y-107454819D01*
X93178570Y-107454819D02*
X93416665Y-107454819D01*
X93416665Y-107454819D02*
X93511903Y-107407200D01*
X93511903Y-107407200D02*
X93559522Y-107359580D01*
X92130951Y-106454819D02*
X92321427Y-106454819D01*
X92321427Y-106454819D02*
X92416665Y-106502438D01*
X92416665Y-106502438D02*
X92464284Y-106550057D01*
X92464284Y-106550057D02*
X92559522Y-106692914D01*
X92559522Y-106692914D02*
X92607141Y-106883390D01*
X92607141Y-106883390D02*
X92607141Y-107264342D01*
X92607141Y-107264342D02*
X92559522Y-107359580D01*
X92559522Y-107359580D02*
X92511903Y-107407200D01*
X92511903Y-107407200D02*
X92416665Y-107454819D01*
X92416665Y-107454819D02*
X92226189Y-107454819D01*
X92226189Y-107454819D02*
X92130951Y-107407200D01*
X92130951Y-107407200D02*
X92083332Y-107359580D01*
X92083332Y-107359580D02*
X92035713Y-107264342D01*
X92035713Y-107264342D02*
X92035713Y-107026247D01*
X92035713Y-107026247D02*
X92083332Y-106931009D01*
X92083332Y-106931009D02*
X92130951Y-106883390D01*
X92130951Y-106883390D02*
X92226189Y-106835771D01*
X92226189Y-106835771D02*
X92416665Y-106835771D01*
X92416665Y-106835771D02*
X92511903Y-106883390D01*
X92511903Y-106883390D02*
X92559522Y-106931009D01*
X92559522Y-106931009D02*
X92607141Y-107026247D01*
X91702379Y-106454819D02*
X91083332Y-106454819D01*
X91083332Y-106454819D02*
X91416665Y-106835771D01*
X91416665Y-106835771D02*
X91273808Y-106835771D01*
X91273808Y-106835771D02*
X91178570Y-106883390D01*
X91178570Y-106883390D02*
X91130951Y-106931009D01*
X91130951Y-106931009D02*
X91083332Y-107026247D01*
X91083332Y-107026247D02*
X91083332Y-107264342D01*
X91083332Y-107264342D02*
X91130951Y-107359580D01*
X91130951Y-107359580D02*
X91178570Y-107407200D01*
X91178570Y-107407200D02*
X91273808Y-107454819D01*
X91273808Y-107454819D02*
X91559522Y-107454819D01*
X91559522Y-107454819D02*
X91654760Y-107407200D01*
X91654760Y-107407200D02*
X91702379Y-107359580D01*
X90083332Y-107359580D02*
X90130951Y-107407200D01*
X90130951Y-107407200D02*
X90273808Y-107454819D01*
X90273808Y-107454819D02*
X90369046Y-107454819D01*
X90369046Y-107454819D02*
X90511903Y-107407200D01*
X90511903Y-107407200D02*
X90607141Y-107311961D01*
X90607141Y-107311961D02*
X90654760Y-107216723D01*
X90654760Y-107216723D02*
X90702379Y-107026247D01*
X90702379Y-107026247D02*
X90702379Y-106883390D01*
X90702379Y-106883390D02*
X90654760Y-106692914D01*
X90654760Y-106692914D02*
X90607141Y-106597676D01*
X90607141Y-106597676D02*
X90511903Y-106502438D01*
X90511903Y-106502438D02*
X90369046Y-106454819D01*
X90369046Y-106454819D02*
X90273808Y-106454819D01*
X90273808Y-106454819D02*
X90130951Y-106502438D01*
X90130951Y-106502438D02*
X90083332Y-106550057D01*
D11*
X97840475Y-110863855D02*
X97840475Y-110063855D01*
X97840475Y-110063855D02*
X97649999Y-110063855D01*
X97649999Y-110063855D02*
X97535713Y-110101950D01*
X97535713Y-110101950D02*
X97459523Y-110178140D01*
X97459523Y-110178140D02*
X97421428Y-110254331D01*
X97421428Y-110254331D02*
X97383332Y-110406712D01*
X97383332Y-110406712D02*
X97383332Y-110520998D01*
X97383332Y-110520998D02*
X97421428Y-110673379D01*
X97421428Y-110673379D02*
X97459523Y-110749569D01*
X97459523Y-110749569D02*
X97535713Y-110825760D01*
X97535713Y-110825760D02*
X97649999Y-110863855D01*
X97649999Y-110863855D02*
X97840475Y-110863855D01*
X96621428Y-110863855D02*
X97078571Y-110863855D01*
X96849999Y-110863855D02*
X96849999Y-110063855D01*
X96849999Y-110063855D02*
X96926190Y-110178140D01*
X96926190Y-110178140D02*
X97002380Y-110254331D01*
X97002380Y-110254331D02*
X97078571Y-110292426D01*
D10*
X147511904Y-193054819D02*
X147511904Y-192054819D01*
X147511904Y-192531009D02*
X146940476Y-192531009D01*
X146940476Y-193054819D02*
X146940476Y-192054819D01*
X146511904Y-192150057D02*
X146464285Y-192102438D01*
X146464285Y-192102438D02*
X146369047Y-192054819D01*
X146369047Y-192054819D02*
X146130952Y-192054819D01*
X146130952Y-192054819D02*
X146035714Y-192102438D01*
X146035714Y-192102438D02*
X145988095Y-192150057D01*
X145988095Y-192150057D02*
X145940476Y-192245295D01*
X145940476Y-192245295D02*
X145940476Y-192340533D01*
X145940476Y-192340533D02*
X145988095Y-192483390D01*
X145988095Y-192483390D02*
X146559523Y-193054819D01*
X146559523Y-193054819D02*
X145940476Y-193054819D01*
X117011904Y-154304819D02*
X117011904Y-153304819D01*
X117011904Y-153781009D02*
X116440476Y-153781009D01*
X116440476Y-154304819D02*
X116440476Y-153304819D01*
X115488095Y-153304819D02*
X115964285Y-153304819D01*
X115964285Y-153304819D02*
X116011904Y-153781009D01*
X116011904Y-153781009D02*
X115964285Y-153733390D01*
X115964285Y-153733390D02*
X115869047Y-153685771D01*
X115869047Y-153685771D02*
X115630952Y-153685771D01*
X115630952Y-153685771D02*
X115535714Y-153733390D01*
X115535714Y-153733390D02*
X115488095Y-153781009D01*
X115488095Y-153781009D02*
X115440476Y-153876247D01*
X115440476Y-153876247D02*
X115440476Y-154114342D01*
X115440476Y-154114342D02*
X115488095Y-154209580D01*
X115488095Y-154209580D02*
X115535714Y-154257200D01*
X115535714Y-154257200D02*
X115630952Y-154304819D01*
X115630952Y-154304819D02*
X115869047Y-154304819D01*
X115869047Y-154304819D02*
X115964285Y-154257200D01*
X115964285Y-154257200D02*
X116011904Y-154209580D01*
X153392857Y-196454819D02*
X153869047Y-196454819D01*
X153869047Y-196454819D02*
X153869047Y-195454819D01*
X153059523Y-196454819D02*
X153059523Y-195788152D01*
X153059523Y-195454819D02*
X153107142Y-195502438D01*
X153107142Y-195502438D02*
X153059523Y-195550057D01*
X153059523Y-195550057D02*
X153011904Y-195502438D01*
X153011904Y-195502438D02*
X153059523Y-195454819D01*
X153059523Y-195454819D02*
X153059523Y-195550057D01*
X152726190Y-195788152D02*
X152345238Y-195788152D01*
X152583333Y-195454819D02*
X152583333Y-196311961D01*
X152583333Y-196311961D02*
X152535714Y-196407200D01*
X152535714Y-196407200D02*
X152440476Y-196454819D01*
X152440476Y-196454819D02*
X152345238Y-196454819D01*
X151630952Y-196407200D02*
X151726190Y-196454819D01*
X151726190Y-196454819D02*
X151916666Y-196454819D01*
X151916666Y-196454819D02*
X152011904Y-196407200D01*
X152011904Y-196407200D02*
X152059523Y-196311961D01*
X152059523Y-196311961D02*
X152059523Y-195931009D01*
X152059523Y-195931009D02*
X152011904Y-195835771D01*
X152011904Y-195835771D02*
X151916666Y-195788152D01*
X151916666Y-195788152D02*
X151726190Y-195788152D01*
X151726190Y-195788152D02*
X151630952Y-195835771D01*
X151630952Y-195835771D02*
X151583333Y-195931009D01*
X151583333Y-195931009D02*
X151583333Y-196026247D01*
X151583333Y-196026247D02*
X152059523Y-196121485D01*
X150964285Y-195454819D02*
X150773809Y-195454819D01*
X150773809Y-195454819D02*
X150678571Y-195502438D01*
X150678571Y-195502438D02*
X150583333Y-195597676D01*
X150583333Y-195597676D02*
X150535714Y-195788152D01*
X150535714Y-195788152D02*
X150535714Y-196121485D01*
X150535714Y-196121485D02*
X150583333Y-196311961D01*
X150583333Y-196311961D02*
X150678571Y-196407200D01*
X150678571Y-196407200D02*
X150773809Y-196454819D01*
X150773809Y-196454819D02*
X150964285Y-196454819D01*
X150964285Y-196454819D02*
X151059523Y-196407200D01*
X151059523Y-196407200D02*
X151154761Y-196311961D01*
X151154761Y-196311961D02*
X151202380Y-196121485D01*
X151202380Y-196121485D02*
X151202380Y-195788152D01*
X151202380Y-195788152D02*
X151154761Y-195597676D01*
X151154761Y-195597676D02*
X151059523Y-195502438D01*
X151059523Y-195502438D02*
X150964285Y-195454819D01*
X150107142Y-195788152D02*
X150107142Y-196454819D01*
X150107142Y-195883390D02*
X150059523Y-195835771D01*
X150059523Y-195835771D02*
X149964285Y-195788152D01*
X149964285Y-195788152D02*
X149821428Y-195788152D01*
X149821428Y-195788152D02*
X149726190Y-195835771D01*
X149726190Y-195835771D02*
X149678571Y-195931009D01*
X149678571Y-195931009D02*
X149678571Y-196454819D01*
X149440476Y-196550057D02*
X148678571Y-196550057D01*
X147964285Y-196454819D02*
X148440475Y-196454819D01*
X148440475Y-196454819D02*
X148440475Y-195454819D01*
X147773808Y-195454819D02*
X147202380Y-195454819D01*
X147488094Y-196454819D02*
X147488094Y-195454819D01*
X146916665Y-196407200D02*
X146773808Y-196454819D01*
X146773808Y-196454819D02*
X146535713Y-196454819D01*
X146535713Y-196454819D02*
X146440475Y-196407200D01*
X146440475Y-196407200D02*
X146392856Y-196359580D01*
X146392856Y-196359580D02*
X146345237Y-196264342D01*
X146345237Y-196264342D02*
X146345237Y-196169104D01*
X146345237Y-196169104D02*
X146392856Y-196073866D01*
X146392856Y-196073866D02*
X146440475Y-196026247D01*
X146440475Y-196026247D02*
X146535713Y-195978628D01*
X146535713Y-195978628D02*
X146726189Y-195931009D01*
X146726189Y-195931009D02*
X146821427Y-195883390D01*
X146821427Y-195883390D02*
X146869046Y-195835771D01*
X146869046Y-195835771D02*
X146916665Y-195740533D01*
X146916665Y-195740533D02*
X146916665Y-195645295D01*
X146916665Y-195645295D02*
X146869046Y-195550057D01*
X146869046Y-195550057D02*
X146821427Y-195502438D01*
X146821427Y-195502438D02*
X146726189Y-195454819D01*
X146726189Y-195454819D02*
X146488094Y-195454819D01*
X146488094Y-195454819D02*
X146345237Y-195502438D01*
X146059522Y-195454819D02*
X145488094Y-195454819D01*
X145773808Y-196454819D02*
X145773808Y-195454819D01*
X145154760Y-196073866D02*
X144392856Y-196073866D01*
X143916665Y-195931009D02*
X143583332Y-195931009D01*
X143440475Y-196454819D02*
X143916665Y-196454819D01*
X143916665Y-196454819D02*
X143916665Y-195454819D01*
X143916665Y-195454819D02*
X143440475Y-195454819D01*
X142535713Y-195454819D02*
X143011903Y-195454819D01*
X143011903Y-195454819D02*
X143059522Y-195931009D01*
X143059522Y-195931009D02*
X143011903Y-195883390D01*
X143011903Y-195883390D02*
X142916665Y-195835771D01*
X142916665Y-195835771D02*
X142678570Y-195835771D01*
X142678570Y-195835771D02*
X142583332Y-195883390D01*
X142583332Y-195883390D02*
X142535713Y-195931009D01*
X142535713Y-195931009D02*
X142488094Y-196026247D01*
X142488094Y-196026247D02*
X142488094Y-196264342D01*
X142488094Y-196264342D02*
X142535713Y-196359580D01*
X142535713Y-196359580D02*
X142583332Y-196407200D01*
X142583332Y-196407200D02*
X142678570Y-196454819D01*
X142678570Y-196454819D02*
X142916665Y-196454819D01*
X142916665Y-196454819D02*
X143011903Y-196407200D01*
X143011903Y-196407200D02*
X143059522Y-196359580D01*
X141630951Y-195454819D02*
X141821427Y-195454819D01*
X141821427Y-195454819D02*
X141916665Y-195502438D01*
X141916665Y-195502438D02*
X141964284Y-195550057D01*
X141964284Y-195550057D02*
X142059522Y-195692914D01*
X142059522Y-195692914D02*
X142107141Y-195883390D01*
X142107141Y-195883390D02*
X142107141Y-196264342D01*
X142107141Y-196264342D02*
X142059522Y-196359580D01*
X142059522Y-196359580D02*
X142011903Y-196407200D01*
X142011903Y-196407200D02*
X141916665Y-196454819D01*
X141916665Y-196454819D02*
X141726189Y-196454819D01*
X141726189Y-196454819D02*
X141630951Y-196407200D01*
X141630951Y-196407200D02*
X141583332Y-196359580D01*
X141583332Y-196359580D02*
X141535713Y-196264342D01*
X141535713Y-196264342D02*
X141535713Y-196026247D01*
X141535713Y-196026247D02*
X141583332Y-195931009D01*
X141583332Y-195931009D02*
X141630951Y-195883390D01*
X141630951Y-195883390D02*
X141726189Y-195835771D01*
X141726189Y-195835771D02*
X141916665Y-195835771D01*
X141916665Y-195835771D02*
X142011903Y-195883390D01*
X142011903Y-195883390D02*
X142059522Y-195931009D01*
X142059522Y-195931009D02*
X142107141Y-196026247D01*
X141202379Y-195454819D02*
X140583332Y-195454819D01*
X140583332Y-195454819D02*
X140916665Y-195835771D01*
X140916665Y-195835771D02*
X140773808Y-195835771D01*
X140773808Y-195835771D02*
X140678570Y-195883390D01*
X140678570Y-195883390D02*
X140630951Y-195931009D01*
X140630951Y-195931009D02*
X140583332Y-196026247D01*
X140583332Y-196026247D02*
X140583332Y-196264342D01*
X140583332Y-196264342D02*
X140630951Y-196359580D01*
X140630951Y-196359580D02*
X140678570Y-196407200D01*
X140678570Y-196407200D02*
X140773808Y-196454819D01*
X140773808Y-196454819D02*
X141059522Y-196454819D01*
X141059522Y-196454819D02*
X141154760Y-196407200D01*
X141154760Y-196407200D02*
X141202379Y-196359580D01*
X139583332Y-196359580D02*
X139630951Y-196407200D01*
X139630951Y-196407200D02*
X139773808Y-196454819D01*
X139773808Y-196454819D02*
X139869046Y-196454819D01*
X139869046Y-196454819D02*
X140011903Y-196407200D01*
X140011903Y-196407200D02*
X140107141Y-196311961D01*
X140107141Y-196311961D02*
X140154760Y-196216723D01*
X140154760Y-196216723D02*
X140202379Y-196026247D01*
X140202379Y-196026247D02*
X140202379Y-195883390D01*
X140202379Y-195883390D02*
X140154760Y-195692914D01*
X140154760Y-195692914D02*
X140107141Y-195597676D01*
X140107141Y-195597676D02*
X140011903Y-195502438D01*
X140011903Y-195502438D02*
X139869046Y-195454819D01*
X139869046Y-195454819D02*
X139773808Y-195454819D01*
X139773808Y-195454819D02*
X139630951Y-195502438D01*
X139630951Y-195502438D02*
X139583332Y-195550057D01*
D11*
X147340475Y-192863855D02*
X147340475Y-192063855D01*
X147340475Y-192063855D02*
X147149999Y-192063855D01*
X147149999Y-192063855D02*
X147035713Y-192101950D01*
X147035713Y-192101950D02*
X146959523Y-192178140D01*
X146959523Y-192178140D02*
X146921428Y-192254331D01*
X146921428Y-192254331D02*
X146883332Y-192406712D01*
X146883332Y-192406712D02*
X146883332Y-192520998D01*
X146883332Y-192520998D02*
X146921428Y-192673379D01*
X146921428Y-192673379D02*
X146959523Y-192749569D01*
X146959523Y-192749569D02*
X147035713Y-192825760D01*
X147035713Y-192825760D02*
X147149999Y-192863855D01*
X147149999Y-192863855D02*
X147340475Y-192863855D01*
X146197618Y-192330521D02*
X146197618Y-192863855D01*
X146388094Y-192025760D02*
X146578571Y-192597188D01*
X146578571Y-192597188D02*
X146083332Y-192597188D01*
D10*
X122892857Y-150704819D02*
X123369047Y-150704819D01*
X123369047Y-150704819D02*
X123369047Y-149704819D01*
X122559523Y-150704819D02*
X122559523Y-150038152D01*
X122559523Y-149704819D02*
X122607142Y-149752438D01*
X122607142Y-149752438D02*
X122559523Y-149800057D01*
X122559523Y-149800057D02*
X122511904Y-149752438D01*
X122511904Y-149752438D02*
X122559523Y-149704819D01*
X122559523Y-149704819D02*
X122559523Y-149800057D01*
X122226190Y-150038152D02*
X121845238Y-150038152D01*
X122083333Y-149704819D02*
X122083333Y-150561961D01*
X122083333Y-150561961D02*
X122035714Y-150657200D01*
X122035714Y-150657200D02*
X121940476Y-150704819D01*
X121940476Y-150704819D02*
X121845238Y-150704819D01*
X121130952Y-150657200D02*
X121226190Y-150704819D01*
X121226190Y-150704819D02*
X121416666Y-150704819D01*
X121416666Y-150704819D02*
X121511904Y-150657200D01*
X121511904Y-150657200D02*
X121559523Y-150561961D01*
X121559523Y-150561961D02*
X121559523Y-150181009D01*
X121559523Y-150181009D02*
X121511904Y-150085771D01*
X121511904Y-150085771D02*
X121416666Y-150038152D01*
X121416666Y-150038152D02*
X121226190Y-150038152D01*
X121226190Y-150038152D02*
X121130952Y-150085771D01*
X121130952Y-150085771D02*
X121083333Y-150181009D01*
X121083333Y-150181009D02*
X121083333Y-150276247D01*
X121083333Y-150276247D02*
X121559523Y-150371485D01*
X120464285Y-149704819D02*
X120273809Y-149704819D01*
X120273809Y-149704819D02*
X120178571Y-149752438D01*
X120178571Y-149752438D02*
X120083333Y-149847676D01*
X120083333Y-149847676D02*
X120035714Y-150038152D01*
X120035714Y-150038152D02*
X120035714Y-150371485D01*
X120035714Y-150371485D02*
X120083333Y-150561961D01*
X120083333Y-150561961D02*
X120178571Y-150657200D01*
X120178571Y-150657200D02*
X120273809Y-150704819D01*
X120273809Y-150704819D02*
X120464285Y-150704819D01*
X120464285Y-150704819D02*
X120559523Y-150657200D01*
X120559523Y-150657200D02*
X120654761Y-150561961D01*
X120654761Y-150561961D02*
X120702380Y-150371485D01*
X120702380Y-150371485D02*
X120702380Y-150038152D01*
X120702380Y-150038152D02*
X120654761Y-149847676D01*
X120654761Y-149847676D02*
X120559523Y-149752438D01*
X120559523Y-149752438D02*
X120464285Y-149704819D01*
X119607142Y-150038152D02*
X119607142Y-150704819D01*
X119607142Y-150133390D02*
X119559523Y-150085771D01*
X119559523Y-150085771D02*
X119464285Y-150038152D01*
X119464285Y-150038152D02*
X119321428Y-150038152D01*
X119321428Y-150038152D02*
X119226190Y-150085771D01*
X119226190Y-150085771D02*
X119178571Y-150181009D01*
X119178571Y-150181009D02*
X119178571Y-150704819D01*
X118940476Y-150800057D02*
X118178571Y-150800057D01*
X117464285Y-150704819D02*
X117940475Y-150704819D01*
X117940475Y-150704819D02*
X117940475Y-149704819D01*
X117273808Y-149704819D02*
X116702380Y-149704819D01*
X116988094Y-150704819D02*
X116988094Y-149704819D01*
X116416665Y-150657200D02*
X116273808Y-150704819D01*
X116273808Y-150704819D02*
X116035713Y-150704819D01*
X116035713Y-150704819D02*
X115940475Y-150657200D01*
X115940475Y-150657200D02*
X115892856Y-150609580D01*
X115892856Y-150609580D02*
X115845237Y-150514342D01*
X115845237Y-150514342D02*
X115845237Y-150419104D01*
X115845237Y-150419104D02*
X115892856Y-150323866D01*
X115892856Y-150323866D02*
X115940475Y-150276247D01*
X115940475Y-150276247D02*
X116035713Y-150228628D01*
X116035713Y-150228628D02*
X116226189Y-150181009D01*
X116226189Y-150181009D02*
X116321427Y-150133390D01*
X116321427Y-150133390D02*
X116369046Y-150085771D01*
X116369046Y-150085771D02*
X116416665Y-149990533D01*
X116416665Y-149990533D02*
X116416665Y-149895295D01*
X116416665Y-149895295D02*
X116369046Y-149800057D01*
X116369046Y-149800057D02*
X116321427Y-149752438D01*
X116321427Y-149752438D02*
X116226189Y-149704819D01*
X116226189Y-149704819D02*
X115988094Y-149704819D01*
X115988094Y-149704819D02*
X115845237Y-149752438D01*
X115559522Y-149704819D02*
X114988094Y-149704819D01*
X115273808Y-150704819D02*
X115273808Y-149704819D01*
X114654760Y-150323866D02*
X113892856Y-150323866D01*
X113416665Y-150181009D02*
X113083332Y-150181009D01*
X112940475Y-150704819D02*
X113416665Y-150704819D01*
X113416665Y-150704819D02*
X113416665Y-149704819D01*
X113416665Y-149704819D02*
X112940475Y-149704819D01*
X112035713Y-149704819D02*
X112511903Y-149704819D01*
X112511903Y-149704819D02*
X112559522Y-150181009D01*
X112559522Y-150181009D02*
X112511903Y-150133390D01*
X112511903Y-150133390D02*
X112416665Y-150085771D01*
X112416665Y-150085771D02*
X112178570Y-150085771D01*
X112178570Y-150085771D02*
X112083332Y-150133390D01*
X112083332Y-150133390D02*
X112035713Y-150181009D01*
X112035713Y-150181009D02*
X111988094Y-150276247D01*
X111988094Y-150276247D02*
X111988094Y-150514342D01*
X111988094Y-150514342D02*
X112035713Y-150609580D01*
X112035713Y-150609580D02*
X112083332Y-150657200D01*
X112083332Y-150657200D02*
X112178570Y-150704819D01*
X112178570Y-150704819D02*
X112416665Y-150704819D01*
X112416665Y-150704819D02*
X112511903Y-150657200D01*
X112511903Y-150657200D02*
X112559522Y-150609580D01*
X111130951Y-149704819D02*
X111321427Y-149704819D01*
X111321427Y-149704819D02*
X111416665Y-149752438D01*
X111416665Y-149752438D02*
X111464284Y-149800057D01*
X111464284Y-149800057D02*
X111559522Y-149942914D01*
X111559522Y-149942914D02*
X111607141Y-150133390D01*
X111607141Y-150133390D02*
X111607141Y-150514342D01*
X111607141Y-150514342D02*
X111559522Y-150609580D01*
X111559522Y-150609580D02*
X111511903Y-150657200D01*
X111511903Y-150657200D02*
X111416665Y-150704819D01*
X111416665Y-150704819D02*
X111226189Y-150704819D01*
X111226189Y-150704819D02*
X111130951Y-150657200D01*
X111130951Y-150657200D02*
X111083332Y-150609580D01*
X111083332Y-150609580D02*
X111035713Y-150514342D01*
X111035713Y-150514342D02*
X111035713Y-150276247D01*
X111035713Y-150276247D02*
X111083332Y-150181009D01*
X111083332Y-150181009D02*
X111130951Y-150133390D01*
X111130951Y-150133390D02*
X111226189Y-150085771D01*
X111226189Y-150085771D02*
X111416665Y-150085771D01*
X111416665Y-150085771D02*
X111511903Y-150133390D01*
X111511903Y-150133390D02*
X111559522Y-150181009D01*
X111559522Y-150181009D02*
X111607141Y-150276247D01*
X110702379Y-149704819D02*
X110083332Y-149704819D01*
X110083332Y-149704819D02*
X110416665Y-150085771D01*
X110416665Y-150085771D02*
X110273808Y-150085771D01*
X110273808Y-150085771D02*
X110178570Y-150133390D01*
X110178570Y-150133390D02*
X110130951Y-150181009D01*
X110130951Y-150181009D02*
X110083332Y-150276247D01*
X110083332Y-150276247D02*
X110083332Y-150514342D01*
X110083332Y-150514342D02*
X110130951Y-150609580D01*
X110130951Y-150609580D02*
X110178570Y-150657200D01*
X110178570Y-150657200D02*
X110273808Y-150704819D01*
X110273808Y-150704819D02*
X110559522Y-150704819D01*
X110559522Y-150704819D02*
X110654760Y-150657200D01*
X110654760Y-150657200D02*
X110702379Y-150609580D01*
X109083332Y-150609580D02*
X109130951Y-150657200D01*
X109130951Y-150657200D02*
X109273808Y-150704819D01*
X109273808Y-150704819D02*
X109369046Y-150704819D01*
X109369046Y-150704819D02*
X109511903Y-150657200D01*
X109511903Y-150657200D02*
X109607141Y-150561961D01*
X109607141Y-150561961D02*
X109654760Y-150466723D01*
X109654760Y-150466723D02*
X109702379Y-150276247D01*
X109702379Y-150276247D02*
X109702379Y-150133390D01*
X109702379Y-150133390D02*
X109654760Y-149942914D01*
X109654760Y-149942914D02*
X109607141Y-149847676D01*
X109607141Y-149847676D02*
X109511903Y-149752438D01*
X109511903Y-149752438D02*
X109369046Y-149704819D01*
X109369046Y-149704819D02*
X109273808Y-149704819D01*
X109273808Y-149704819D02*
X109130951Y-149752438D01*
X109130951Y-149752438D02*
X109083332Y-149800057D01*
D11*
X116840475Y-154113855D02*
X116840475Y-153313855D01*
X116840475Y-153313855D02*
X116649999Y-153313855D01*
X116649999Y-153313855D02*
X116535713Y-153351950D01*
X116535713Y-153351950D02*
X116459523Y-153428140D01*
X116459523Y-153428140D02*
X116421428Y-153504331D01*
X116421428Y-153504331D02*
X116383332Y-153656712D01*
X116383332Y-153656712D02*
X116383332Y-153770998D01*
X116383332Y-153770998D02*
X116421428Y-153923379D01*
X116421428Y-153923379D02*
X116459523Y-153999569D01*
X116459523Y-153999569D02*
X116535713Y-154075760D01*
X116535713Y-154075760D02*
X116649999Y-154113855D01*
X116649999Y-154113855D02*
X116840475Y-154113855D01*
X116116666Y-153313855D02*
X115621428Y-153313855D01*
X115621428Y-153313855D02*
X115888094Y-153618617D01*
X115888094Y-153618617D02*
X115773809Y-153618617D01*
X115773809Y-153618617D02*
X115697618Y-153656712D01*
X115697618Y-153656712D02*
X115659523Y-153694807D01*
X115659523Y-153694807D02*
X115621428Y-153770998D01*
X115621428Y-153770998D02*
X115621428Y-153961474D01*
X115621428Y-153961474D02*
X115659523Y-154037664D01*
X115659523Y-154037664D02*
X115697618Y-154075760D01*
X115697618Y-154075760D02*
X115773809Y-154113855D01*
X115773809Y-154113855D02*
X116002380Y-154113855D01*
X116002380Y-154113855D02*
X116078571Y-154075760D01*
X116078571Y-154075760D02*
X116116666Y-154037664D01*
D10*
X119511904Y-111054819D02*
X119511904Y-110054819D01*
X119511904Y-110531009D02*
X118940476Y-110531009D01*
X118940476Y-111054819D02*
X118940476Y-110054819D01*
X117940476Y-111054819D02*
X118511904Y-111054819D01*
X118226190Y-111054819D02*
X118226190Y-110054819D01*
X118226190Y-110054819D02*
X118321428Y-110197676D01*
X118321428Y-110197676D02*
X118416666Y-110292914D01*
X118416666Y-110292914D02*
X118511904Y-110340533D01*
X125392857Y-107454819D02*
X125869047Y-107454819D01*
X125869047Y-107454819D02*
X125869047Y-106454819D01*
X125059523Y-107454819D02*
X125059523Y-106788152D01*
X125059523Y-106454819D02*
X125107142Y-106502438D01*
X125107142Y-106502438D02*
X125059523Y-106550057D01*
X125059523Y-106550057D02*
X125011904Y-106502438D01*
X125011904Y-106502438D02*
X125059523Y-106454819D01*
X125059523Y-106454819D02*
X125059523Y-106550057D01*
X124726190Y-106788152D02*
X124345238Y-106788152D01*
X124583333Y-106454819D02*
X124583333Y-107311961D01*
X124583333Y-107311961D02*
X124535714Y-107407200D01*
X124535714Y-107407200D02*
X124440476Y-107454819D01*
X124440476Y-107454819D02*
X124345238Y-107454819D01*
X123630952Y-107407200D02*
X123726190Y-107454819D01*
X123726190Y-107454819D02*
X123916666Y-107454819D01*
X123916666Y-107454819D02*
X124011904Y-107407200D01*
X124011904Y-107407200D02*
X124059523Y-107311961D01*
X124059523Y-107311961D02*
X124059523Y-106931009D01*
X124059523Y-106931009D02*
X124011904Y-106835771D01*
X124011904Y-106835771D02*
X123916666Y-106788152D01*
X123916666Y-106788152D02*
X123726190Y-106788152D01*
X123726190Y-106788152D02*
X123630952Y-106835771D01*
X123630952Y-106835771D02*
X123583333Y-106931009D01*
X123583333Y-106931009D02*
X123583333Y-107026247D01*
X123583333Y-107026247D02*
X124059523Y-107121485D01*
X122964285Y-106454819D02*
X122773809Y-106454819D01*
X122773809Y-106454819D02*
X122678571Y-106502438D01*
X122678571Y-106502438D02*
X122583333Y-106597676D01*
X122583333Y-106597676D02*
X122535714Y-106788152D01*
X122535714Y-106788152D02*
X122535714Y-107121485D01*
X122535714Y-107121485D02*
X122583333Y-107311961D01*
X122583333Y-107311961D02*
X122678571Y-107407200D01*
X122678571Y-107407200D02*
X122773809Y-107454819D01*
X122773809Y-107454819D02*
X122964285Y-107454819D01*
X122964285Y-107454819D02*
X123059523Y-107407200D01*
X123059523Y-107407200D02*
X123154761Y-107311961D01*
X123154761Y-107311961D02*
X123202380Y-107121485D01*
X123202380Y-107121485D02*
X123202380Y-106788152D01*
X123202380Y-106788152D02*
X123154761Y-106597676D01*
X123154761Y-106597676D02*
X123059523Y-106502438D01*
X123059523Y-106502438D02*
X122964285Y-106454819D01*
X122107142Y-106788152D02*
X122107142Y-107454819D01*
X122107142Y-106883390D02*
X122059523Y-106835771D01*
X122059523Y-106835771D02*
X121964285Y-106788152D01*
X121964285Y-106788152D02*
X121821428Y-106788152D01*
X121821428Y-106788152D02*
X121726190Y-106835771D01*
X121726190Y-106835771D02*
X121678571Y-106931009D01*
X121678571Y-106931009D02*
X121678571Y-107454819D01*
X121440476Y-107550057D02*
X120678571Y-107550057D01*
X119964285Y-107454819D02*
X120440475Y-107454819D01*
X120440475Y-107454819D02*
X120440475Y-106454819D01*
X119773808Y-106454819D02*
X119202380Y-106454819D01*
X119488094Y-107454819D02*
X119488094Y-106454819D01*
X118916665Y-107407200D02*
X118773808Y-107454819D01*
X118773808Y-107454819D02*
X118535713Y-107454819D01*
X118535713Y-107454819D02*
X118440475Y-107407200D01*
X118440475Y-107407200D02*
X118392856Y-107359580D01*
X118392856Y-107359580D02*
X118345237Y-107264342D01*
X118345237Y-107264342D02*
X118345237Y-107169104D01*
X118345237Y-107169104D02*
X118392856Y-107073866D01*
X118392856Y-107073866D02*
X118440475Y-107026247D01*
X118440475Y-107026247D02*
X118535713Y-106978628D01*
X118535713Y-106978628D02*
X118726189Y-106931009D01*
X118726189Y-106931009D02*
X118821427Y-106883390D01*
X118821427Y-106883390D02*
X118869046Y-106835771D01*
X118869046Y-106835771D02*
X118916665Y-106740533D01*
X118916665Y-106740533D02*
X118916665Y-106645295D01*
X118916665Y-106645295D02*
X118869046Y-106550057D01*
X118869046Y-106550057D02*
X118821427Y-106502438D01*
X118821427Y-106502438D02*
X118726189Y-106454819D01*
X118726189Y-106454819D02*
X118488094Y-106454819D01*
X118488094Y-106454819D02*
X118345237Y-106502438D01*
X118059522Y-106454819D02*
X117488094Y-106454819D01*
X117773808Y-107454819D02*
X117773808Y-106454819D01*
X117154760Y-107073866D02*
X116392856Y-107073866D01*
X115916665Y-106931009D02*
X115583332Y-106931009D01*
X115440475Y-107454819D02*
X115916665Y-107454819D01*
X115916665Y-107454819D02*
X115916665Y-106454819D01*
X115916665Y-106454819D02*
X115440475Y-106454819D01*
X114535713Y-106454819D02*
X115011903Y-106454819D01*
X115011903Y-106454819D02*
X115059522Y-106931009D01*
X115059522Y-106931009D02*
X115011903Y-106883390D01*
X115011903Y-106883390D02*
X114916665Y-106835771D01*
X114916665Y-106835771D02*
X114678570Y-106835771D01*
X114678570Y-106835771D02*
X114583332Y-106883390D01*
X114583332Y-106883390D02*
X114535713Y-106931009D01*
X114535713Y-106931009D02*
X114488094Y-107026247D01*
X114488094Y-107026247D02*
X114488094Y-107264342D01*
X114488094Y-107264342D02*
X114535713Y-107359580D01*
X114535713Y-107359580D02*
X114583332Y-107407200D01*
X114583332Y-107407200D02*
X114678570Y-107454819D01*
X114678570Y-107454819D02*
X114916665Y-107454819D01*
X114916665Y-107454819D02*
X115011903Y-107407200D01*
X115011903Y-107407200D02*
X115059522Y-107359580D01*
X113630951Y-106454819D02*
X113821427Y-106454819D01*
X113821427Y-106454819D02*
X113916665Y-106502438D01*
X113916665Y-106502438D02*
X113964284Y-106550057D01*
X113964284Y-106550057D02*
X114059522Y-106692914D01*
X114059522Y-106692914D02*
X114107141Y-106883390D01*
X114107141Y-106883390D02*
X114107141Y-107264342D01*
X114107141Y-107264342D02*
X114059522Y-107359580D01*
X114059522Y-107359580D02*
X114011903Y-107407200D01*
X114011903Y-107407200D02*
X113916665Y-107454819D01*
X113916665Y-107454819D02*
X113726189Y-107454819D01*
X113726189Y-107454819D02*
X113630951Y-107407200D01*
X113630951Y-107407200D02*
X113583332Y-107359580D01*
X113583332Y-107359580D02*
X113535713Y-107264342D01*
X113535713Y-107264342D02*
X113535713Y-107026247D01*
X113535713Y-107026247D02*
X113583332Y-106931009D01*
X113583332Y-106931009D02*
X113630951Y-106883390D01*
X113630951Y-106883390D02*
X113726189Y-106835771D01*
X113726189Y-106835771D02*
X113916665Y-106835771D01*
X113916665Y-106835771D02*
X114011903Y-106883390D01*
X114011903Y-106883390D02*
X114059522Y-106931009D01*
X114059522Y-106931009D02*
X114107141Y-107026247D01*
X113202379Y-106454819D02*
X112583332Y-106454819D01*
X112583332Y-106454819D02*
X112916665Y-106835771D01*
X112916665Y-106835771D02*
X112773808Y-106835771D01*
X112773808Y-106835771D02*
X112678570Y-106883390D01*
X112678570Y-106883390D02*
X112630951Y-106931009D01*
X112630951Y-106931009D02*
X112583332Y-107026247D01*
X112583332Y-107026247D02*
X112583332Y-107264342D01*
X112583332Y-107264342D02*
X112630951Y-107359580D01*
X112630951Y-107359580D02*
X112678570Y-107407200D01*
X112678570Y-107407200D02*
X112773808Y-107454819D01*
X112773808Y-107454819D02*
X113059522Y-107454819D01*
X113059522Y-107454819D02*
X113154760Y-107407200D01*
X113154760Y-107407200D02*
X113202379Y-107359580D01*
X111583332Y-107359580D02*
X111630951Y-107407200D01*
X111630951Y-107407200D02*
X111773808Y-107454819D01*
X111773808Y-107454819D02*
X111869046Y-107454819D01*
X111869046Y-107454819D02*
X112011903Y-107407200D01*
X112011903Y-107407200D02*
X112107141Y-107311961D01*
X112107141Y-107311961D02*
X112154760Y-107216723D01*
X112154760Y-107216723D02*
X112202379Y-107026247D01*
X112202379Y-107026247D02*
X112202379Y-106883390D01*
X112202379Y-106883390D02*
X112154760Y-106692914D01*
X112154760Y-106692914D02*
X112107141Y-106597676D01*
X112107141Y-106597676D02*
X112011903Y-106502438D01*
X112011903Y-106502438D02*
X111869046Y-106454819D01*
X111869046Y-106454819D02*
X111773808Y-106454819D01*
X111773808Y-106454819D02*
X111630951Y-106502438D01*
X111630951Y-106502438D02*
X111583332Y-106550057D01*
D11*
X119340475Y-110863855D02*
X119340475Y-110063855D01*
X119340475Y-110063855D02*
X119149999Y-110063855D01*
X119149999Y-110063855D02*
X119035713Y-110101950D01*
X119035713Y-110101950D02*
X118959523Y-110178140D01*
X118959523Y-110178140D02*
X118921428Y-110254331D01*
X118921428Y-110254331D02*
X118883332Y-110406712D01*
X118883332Y-110406712D02*
X118883332Y-110520998D01*
X118883332Y-110520998D02*
X118921428Y-110673379D01*
X118921428Y-110673379D02*
X118959523Y-110749569D01*
X118959523Y-110749569D02*
X119035713Y-110825760D01*
X119035713Y-110825760D02*
X119149999Y-110863855D01*
X119149999Y-110863855D02*
X119340475Y-110863855D01*
X118578571Y-110140045D02*
X118540475Y-110101950D01*
X118540475Y-110101950D02*
X118464285Y-110063855D01*
X118464285Y-110063855D02*
X118273809Y-110063855D01*
X118273809Y-110063855D02*
X118197618Y-110101950D01*
X118197618Y-110101950D02*
X118159523Y-110140045D01*
X118159523Y-110140045D02*
X118121428Y-110216236D01*
X118121428Y-110216236D02*
X118121428Y-110292426D01*
X118121428Y-110292426D02*
X118159523Y-110406712D01*
X118159523Y-110406712D02*
X118616666Y-110863855D01*
X118616666Y-110863855D02*
X118121428Y-110863855D01*
D10*
X68511904Y-193054819D02*
X68511904Y-192054819D01*
X68511904Y-192531009D02*
X67940476Y-192531009D01*
X67940476Y-193054819D02*
X67940476Y-192054819D01*
X67559523Y-192054819D02*
X66940476Y-192054819D01*
X66940476Y-192054819D02*
X67273809Y-192435771D01*
X67273809Y-192435771D02*
X67130952Y-192435771D01*
X67130952Y-192435771D02*
X67035714Y-192483390D01*
X67035714Y-192483390D02*
X66988095Y-192531009D01*
X66988095Y-192531009D02*
X66940476Y-192626247D01*
X66940476Y-192626247D02*
X66940476Y-192864342D01*
X66940476Y-192864342D02*
X66988095Y-192959580D01*
X66988095Y-192959580D02*
X67035714Y-193007200D01*
X67035714Y-193007200D02*
X67130952Y-193054819D01*
X67130952Y-193054819D02*
X67416666Y-193054819D01*
X67416666Y-193054819D02*
X67511904Y-193007200D01*
X67511904Y-193007200D02*
X67559523Y-192959580D01*
%TO.C,H4*%
D13*
X99850000Y-107900000D02*
X94650000Y-107900000D01*
X94650000Y-113100000D01*
X99850000Y-113100000D01*
X99850000Y-107900000D01*
%TO.C,D5*%
X65250000Y-190000000D02*
X70250000Y-190000000D01*
X65250000Y-195000000D02*
X65250000Y-190000000D01*
X70250000Y-190000000D02*
X70250000Y-195000000D01*
X70250000Y-191000000D02*
X69250000Y-190000000D01*
X70250000Y-195000000D02*
X65250000Y-195000000D01*
X69750000Y-192500000D02*
G75*
G02*
X65750000Y-192500000I-2000000J0D01*
G01*
X65750000Y-192500000D02*
G75*
G02*
X69750000Y-192500000I2000000J0D01*
G01*
X57800000Y-95990000D02*
X57800000Y-62490000D01*
X57700000Y-62490000D02*
G75*
G02*
X57800000Y-62490000I50000J0D01*
G01*
X57700000Y-62490000D02*
X57700000Y-95990000D01*
X57700000Y-95990000D02*
G75*
G03*
X57800000Y-95990000I50000J0D01*
G01*
X57750000Y-96040000D02*
X158250000Y-96040000D01*
X158250000Y-95940000D02*
G75*
G02*
X158250000Y-96040000I0J-50000D01*
G01*
X158250000Y-95940000D02*
X57750000Y-95940000D01*
X57750000Y-95940000D02*
G75*
G03*
X57750000Y-96040000I0J-50000D01*
G01*
X68650000Y-91590000D02*
X68650000Y-70410000D01*
X68550000Y-70410000D02*
G75*
G02*
X68650000Y-70410000I50000J0D01*
G01*
X68550000Y-70410000D02*
X68550000Y-91590000D01*
X68550000Y-91590000D02*
G75*
G03*
X68650000Y-91590000I50000J0D01*
G01*
X68600000Y-91640000D02*
X147400000Y-91640000D01*
X147400000Y-91540000D02*
G75*
G02*
X147400000Y-91640000I0J-50000D01*
G01*
X147400000Y-91540000D02*
X68600000Y-91540000D01*
X68600000Y-91540000D02*
G75*
G03*
X68600000Y-91640000I0J-50000D01*
G01*
X147400000Y-70360000D02*
X68600000Y-70360000D01*
X68600000Y-70460000D02*
G75*
G02*
X68600000Y-70360000I0J50000D01*
G01*
X68600000Y-70460000D02*
X147400000Y-70460000D01*
X147400000Y-70460000D02*
G75*
G03*
X147400000Y-70360000I0J50000D01*
G01*
X147450000Y-91590000D02*
X147450000Y-70410000D01*
X147350000Y-70410000D02*
G75*
G02*
X147450000Y-70410000I50000J0D01*
G01*
X147350000Y-70410000D02*
X147350000Y-91590000D01*
X147350000Y-91590000D02*
G75*
G03*
X147450000Y-91590000I50000J0D01*
G01*
X158250000Y-62440000D02*
X57750000Y-62440000D01*
X57750000Y-62540000D02*
G75*
G02*
X57750000Y-62440000I0J50000D01*
G01*
X57750000Y-62540000D02*
X158250000Y-62540000D01*
X158250000Y-62540000D02*
G75*
G03*
X158250000Y-62440000I0J50000D01*
G01*
X158300000Y-95990000D02*
X158300000Y-62490000D01*
X158200000Y-62490000D02*
G75*
G02*
X158300000Y-62490000I50000J0D01*
G01*
X158200000Y-62490000D02*
X158200000Y-95990000D01*
X158200000Y-95990000D02*
G75*
G03*
X158300000Y-95990000I50000J0D01*
G01*
%TO.C,U5*%
X97550000Y-75400000D02*
X116950000Y-75400000D01*
X97550000Y-80550000D02*
X97550000Y-75400000D01*
X97550000Y-80550000D02*
X116950000Y-80550000D01*
X116950000Y-78800000D02*
X97550000Y-78800000D01*
X116950000Y-80550000D02*
X116950000Y-75400000D01*
X63550000Y-93940000D02*
X150950000Y-93940000D01*
X150950000Y-65440000D01*
X63550000Y-65440000D01*
X63550000Y-93940000D01*
X115500000Y-78900000D02*
X116900000Y-78900000D01*
X116900000Y-77900000D01*
X115500000Y-77900000D01*
X115500000Y-78900000D01*
%TO.C,D1*%
X94750000Y-108000000D02*
X99750000Y-108000000D01*
X94750000Y-112000000D02*
X95750000Y-113000000D01*
X94750000Y-113000000D02*
X94750000Y-108000000D01*
X99750000Y-108000000D02*
X99750000Y-113000000D01*
X99750000Y-113000000D02*
X94750000Y-113000000D01*
X99250000Y-110500000D02*
G75*
G02*
X95250000Y-110500000I-2000000J0D01*
G01*
X95250000Y-110500000D02*
G75*
G02*
X99250000Y-110500000I2000000J0D01*
G01*
%TO.C,H2*%
X149350000Y-189900000D02*
X144150000Y-189900000D01*
X144150000Y-195100000D01*
X149350000Y-195100000D01*
X149350000Y-189900000D01*
%TO.C,H5*%
X118850000Y-151150000D02*
X113650000Y-151150000D01*
X113650000Y-156350000D01*
X118850000Y-156350000D01*
X118850000Y-151150000D01*
%TO.C,D4*%
X144250000Y-190000000D02*
X149250000Y-190000000D01*
X144250000Y-195000000D02*
X144250000Y-190000000D01*
X149250000Y-190000000D02*
X149250000Y-195000000D01*
X149250000Y-191000000D02*
X148250000Y-190000000D01*
X149250000Y-195000000D02*
X144250000Y-195000000D01*
X148750000Y-192500000D02*
G75*
G02*
X144750000Y-192500000I-2000000J0D01*
G01*
X144750000Y-192500000D02*
G75*
G02*
X148750000Y-192500000I2000000J0D01*
G01*
%TO.C,D3*%
X113750000Y-151250000D02*
X118750000Y-151250000D01*
X113750000Y-155250000D02*
X114750000Y-156250000D01*
X113750000Y-156250000D02*
X113750000Y-151250000D01*
X118750000Y-151250000D02*
X118750000Y-156250000D01*
X118750000Y-156250000D02*
X113750000Y-156250000D01*
X118250000Y-153750000D02*
G75*
G02*
X114250000Y-153750000I-2000000J0D01*
G01*
X114250000Y-153750000D02*
G75*
G02*
X118250000Y-153750000I2000000J0D01*
G01*
%TO.C,H1*%
X121350000Y-107900000D02*
X116150000Y-107900000D01*
X116150000Y-113100000D01*
X121350000Y-113100000D01*
X121350000Y-107900000D01*
%TO.C,D2*%
X116250000Y-108000000D02*
X121250000Y-108000000D01*
X116250000Y-112000000D02*
X117250000Y-113000000D01*
X116250000Y-113000000D02*
X116250000Y-108000000D01*
X121250000Y-108000000D02*
X121250000Y-113000000D01*
X121250000Y-113000000D02*
X116250000Y-113000000D01*
X120750000Y-110500000D02*
G75*
G02*
X116750000Y-110500000I-2000000J0D01*
G01*
X116750000Y-110500000D02*
G75*
G02*
X120750000Y-110500000I2000000J0D01*
G01*
%TO.C,H3*%
X70350000Y-189900000D02*
X65150000Y-189900000D01*
X65150000Y-195100000D01*
X70350000Y-195100000D01*
X70350000Y-189900000D01*
%TD*%
X152415000Y-69285000D02*
X157585000Y-89695000D01*
X152415000Y-89695000D02*
X157585000Y-69285000D01*
M02*
