%TF.GenerationSoftware,KiCad,Pcbnew,9.0.7*%
%TF.CreationDate,2026-03-02T19:26:42+01:00*%
%TF.ProjectId,board0,626f6172-6430-42e6-9b69-6361645f7063,1*%
%TF.SameCoordinates,Original*%
%TF.FileFunction,Copper,L1,Top*%
%TF.FilePolarity,Positive*%
%FSLAX46Y46*%
G04 Gerber Fmt 4.6, Leading zero omitted, Abs format (unit mm)*
G04 Created by KiCad (PCBNEW 9.0.7) date 2026-03-02 19:26:42*
%MOMM*%
%LPD*%
G01*
G04 APERTURE LIST*
G04 Aperture macros list*
%AMRoundRect*
0 Rectangle with rounded corners*
0 $1 Rounding radius*
0 $2 $3 $4 $5 $6 $7 $8 $9 X,Y pos of 4 corners*
0 Add a 4 corners polygon primitive as box body*
4,1,4,$2,$3,$4,$5,$6,$7,$8,$9,$2,$3,0*
0 Add four circle primitives for the rounded corners*
1,1,$1+$1,$2,$3*
1,1,$1+$1,$4,$5*
1,1,$1+$1,$6,$7*
1,1,$1+$1,$8,$9*
0 Add four rect primitives between the rounded corners*
20,1,$1+$1,$2,$3,$4,$5,0*
20,1,$1+$1,$4,$5,$6,$7,0*
20,1,$1+$1,$6,$7,$8,$9,0*
20,1,$1+$1,$8,$9,$2,$3,0*%
G04 Aperture macros list end*
%TA.AperFunction,SMDPad,CuDef*%
%ADD10RoundRect,0.250000X0.250000X0.250000X-0.250000X0.250000X-0.250000X-0.250000X0.250000X-0.250000X0*%
%TD*%
%TA.AperFunction,ComponentPad*%
%ADD11C,1.000000*%
%TD*%
%TA.AperFunction,ComponentPad*%
%ADD12C,7.000000*%
%TD*%
%TA.AperFunction,ComponentPad*%
%ADD13C,1.600000*%
%TD*%
%TA.AperFunction,SMDPad,CuDef*%
%ADD14RoundRect,0.100000X0.100000X-0.112500X0.100000X0.112500X-0.100000X0.112500X-0.100000X-0.112500X0*%
%TD*%
%TA.AperFunction,SMDPad,CuDef*%
%ADD15RoundRect,0.250000X0.250000X0.500000X-0.250000X0.500000X-0.250000X-0.500000X0.250000X-0.500000X0*%
%TD*%
%TA.AperFunction,SMDPad,CuDef*%
%ADD16RoundRect,0.354000X0.531000X0.771000X-0.531000X0.771000X-0.531000X-0.771000X0.531000X-0.771000X0*%
%TD*%
%TA.AperFunction,SMDPad,CuDef*%
%ADD17RoundRect,0.250000X-0.450000X0.350000X-0.450000X-0.350000X0.450000X-0.350000X0.450000X0.350000X0*%
%TD*%
%TA.AperFunction,SMDPad,CuDef*%
%ADD18RoundRect,0.250000X-0.650000X1.000000X-0.650000X-1.000000X0.650000X-1.000000X0.650000X1.000000X0*%
%TD*%
%TA.AperFunction,ComponentPad*%
%ADD19R,1.700000X1.700000*%
%TD*%
%TA.AperFunction,ComponentPad*%
%ADD20C,1.700000*%
%TD*%
%TA.AperFunction,SMDPad,CuDef*%
%ADD21RoundRect,0.225000X-0.375000X0.225000X-0.375000X-0.225000X0.375000X-0.225000X0.375000X0.225000X0*%
%TD*%
%TA.AperFunction,SMDPad,CuDef*%
%ADD22RoundRect,0.250000X-0.337500X-0.475000X0.337500X-0.475000X0.337500X0.475000X-0.337500X0.475000X0*%
%TD*%
%TA.AperFunction,ComponentPad*%
%ADD23R,1.800000X1.800000*%
%TD*%
%TA.AperFunction,ComponentPad*%
%ADD24C,2.000000*%
%TD*%
%TA.AperFunction,SMDPad,CuDef*%
%ADD25RoundRect,0.250000X2.050000X0.300000X-2.050000X0.300000X-2.050000X-0.300000X2.050000X-0.300000X0*%
%TD*%
%TA.AperFunction,SMDPad,CuDef*%
%ADD26RoundRect,0.250002X4.449998X5.149998X-4.449998X5.149998X-4.449998X-5.149998X4.449998X-5.149998X0*%
%TD*%
%TA.AperFunction,SMDPad,CuDef*%
%ADD27RoundRect,0.150000X0.825000X0.150000X-0.825000X0.150000X-0.825000X-0.150000X0.825000X-0.150000X0*%
%TD*%
%TA.AperFunction,SMDPad,CuDef*%
%ADD28RoundRect,0.250000X0.337500X0.475000X-0.337500X0.475000X-0.337500X-0.475000X0.337500X-0.475000X0*%
%TD*%
%TA.AperFunction,SMDPad,CuDef*%
%ADD29RoundRect,0.250000X-0.350000X-0.450000X0.350000X-0.450000X0.350000X0.450000X-0.350000X0.450000X0*%
%TD*%
%TA.AperFunction,SMDPad,CuDef*%
%ADD30RoundRect,0.250000X0.250000X-0.250000X0.250000X0.250000X-0.250000X0.250000X-0.250000X-0.250000X0*%
%TD*%
%TA.AperFunction,SMDPad,CuDef*%
%ADD31RoundRect,0.250000X0.450000X-0.350000X0.450000X0.350000X-0.450000X0.350000X-0.450000X-0.350000X0*%
%TD*%
%TA.AperFunction,SMDPad,CuDef*%
%ADD32RoundRect,0.250000X-0.475000X0.337500X-0.475000X-0.337500X0.475000X-0.337500X0.475000X0.337500X0*%
%TD*%
%TA.AperFunction,SMDPad,CuDef*%
%ADD33RoundRect,0.100000X-0.950000X-0.400000X0.950000X-0.400000X0.950000X0.400000X-0.950000X0.400000X0*%
%TD*%
%TA.AperFunction,ComponentPad*%
%ADD34C,1.800000*%
%TD*%
%TA.AperFunction,SMDPad,CuDef*%
%ADD35RoundRect,0.250000X-0.445000X0.545000X-0.445000X-0.545000X0.445000X-0.545000X0.445000X0.545000X0*%
%TD*%
%TA.AperFunction,SMDPad,CuDef*%
%ADD36RoundRect,0.237500X-0.237500X0.250000X-0.237500X-0.250000X0.237500X-0.250000X0.237500X0.250000X0*%
%TD*%
%TA.AperFunction,SMDPad,CuDef*%
%ADD37RoundRect,0.150000X0.150000X-0.825000X0.150000X0.825000X-0.150000X0.825000X-0.150000X-0.825000X0*%
%TD*%
%TA.AperFunction,SMDPad,CuDef*%
%ADD38R,3.500000X3.550000*%
%TD*%
%TA.AperFunction,SMDPad,CuDef*%
%ADD39RoundRect,0.250000X0.650000X-1.000000X0.650000X1.000000X-0.650000X1.000000X-0.650000X-1.000000X0*%
%TD*%
%TA.AperFunction,SMDPad,CuDef*%
%ADD40RoundRect,0.250000X0.475000X-0.337500X0.475000X0.337500X-0.475000X0.337500X-0.475000X-0.337500X0*%
%TD*%
%TA.AperFunction,SMDPad,CuDef*%
%ADD41RoundRect,0.250000X-1.000000X1.400000X-1.000000X-1.400000X1.000000X-1.400000X1.000000X1.400000X0*%
%TD*%
%TA.AperFunction,SMDPad,CuDef*%
%ADD42RoundRect,0.067500X-0.157500X-0.857500X0.157500X-0.857500X0.157500X0.857500X-0.157500X0.857500X0*%
%TD*%
%TA.AperFunction,SMDPad,CuDef*%
%ADD43RoundRect,0.250000X-0.550000X1.137500X-0.550000X-1.137500X0.550000X-1.137500X0.550000X1.137500X0*%
%TD*%
%TA.AperFunction,SMDPad,CuDef*%
%ADD44RoundRect,0.375000X-0.375000X0.625000X-0.375000X-0.625000X0.375000X-0.625000X0.375000X0.625000X0*%
%TD*%
%TA.AperFunction,SMDPad,CuDef*%
%ADD45RoundRect,0.500000X-1.400000X0.500000X-1.400000X-0.500000X1.400000X-0.500000X1.400000X0.500000X0*%
%TD*%
%TA.AperFunction,SMDPad,CuDef*%
%ADD46RoundRect,0.250000X-0.545000X-0.445000X0.545000X-0.445000X0.545000X0.445000X-0.545000X0.445000X0*%
%TD*%
%TA.AperFunction,ViaPad*%
%ADD47C,0.800000*%
%TD*%
%TA.AperFunction,Conductor*%
%ADD48C,0.250000*%
%TD*%
%TA.AperFunction,Conductor*%
%ADD49C,0.500000*%
%TD*%
%TA.AperFunction,Conductor*%
%ADD50C,0.200000*%
%TD*%
%TA.AperFunction,Conductor*%
%ADD51C,1.000000*%
%TD*%
G04 APERTURE END LIST*
D10*
%TO.P,D8,1,K*%
%TO.N,Net-(D14-A2)*%
X83165000Y-106680000D03*
%TO.P,D8,2,A*%
%TO.N,Net-(D8-A)*%
X80665000Y-106680000D03*
%TD*%
D11*
%TO.P,H3,1,1*%
%TO.N,GND*%
X178886000Y-133380000D03*
X179632878Y-131576878D03*
X179632878Y-135183122D03*
X181436000Y-130830000D03*
D12*
X181436000Y-133380000D03*
D11*
X181436000Y-135930000D03*
X183239122Y-131576878D03*
X183239122Y-135183122D03*
X183986000Y-133380000D03*
%TD*%
D13*
%TO.P,R33,1*%
%TO.N,Net-(J6-Pin_1)*%
X76800000Y-126120000D03*
%TO.P,R33,2*%
%TO.N,Net-(D14-A2)*%
X76800000Y-136280000D03*
%TD*%
D14*
%TO.P,D2,1,K*%
%TO.N,Net-(D2-K)*%
X109855000Y-112177500D03*
%TO.P,D2,2,A*%
%TO.N,GND*%
X109855000Y-113152500D03*
%TD*%
D15*
%TO.P,J8,1,Pin_1*%
%TO.N,+5V*%
X95075000Y-63620000D03*
%TO.P,J8,2,Pin_2*%
%TO.N,VDD*%
X93575000Y-63620000D03*
%TO.P,J8,3,Pin_3*%
%TO.N,Net-(J8-Pin_3)*%
X92075000Y-63620000D03*
%TO.P,J8,4,Pin_4*%
%TO.N,Net-(J8-Pin_4)*%
X90575000Y-63620000D03*
%TO.P,J8,5,Pin_5*%
%TO.N,GND*%
X89075000Y-63620000D03*
D16*
%TO.P,J8,MP*%
%TO.N,N/C*%
X97940000Y-57950000D03*
X86210000Y-57950000D03*
%TD*%
D14*
%TO.P,D17,1,K*%
%TO.N,Net-(D17-K)*%
X109855000Y-98572500D03*
%TO.P,D17,2,A*%
%TO.N,GND*%
X109855000Y-99547500D03*
%TD*%
D17*
%TO.P,R34,1*%
%TO.N,Net-(D14-A2)*%
X86360000Y-106475000D03*
%TO.P,R34,2*%
%TO.N,Net-(D13-K)*%
X86360000Y-108475000D03*
%TD*%
D13*
%TO.P,R29,1*%
%TO.N,Net-(D9-A)*%
X176530000Y-81915000D03*
%TO.P,R29,2*%
%TO.N,Net-(U5-Q_{H})*%
X166370000Y-81915000D03*
%TD*%
D18*
%TO.P,D7,1,A1*%
%TO.N,GND*%
X86360000Y-89440000D03*
%TO.P,D7,2,A2*%
%TO.N,Net-(D3-K)*%
X86360000Y-93440000D03*
%TD*%
D19*
%TO.P,J1,1,Pin_1*%
%TO.N,Net-(J1-Pin_1)*%
X132080000Y-93980000D03*
D20*
%TO.P,J1,2,Pin_2*%
%TO.N,VDD*%
X132080000Y-91440000D03*
%TO.P,J1,3,Pin_3*%
%TO.N,GND*%
X132080000Y-88900000D03*
%TO.P,J1,4,Pin_4*%
%TO.N,Net-(J1-Pin_4)*%
X132080000Y-86360000D03*
%TO.P,J1,5,Pin_5*%
%TO.N,Net-(J1-Pin_5)*%
X132080000Y-83820000D03*
%TO.P,J1,6,Pin_6*%
%TO.N,unconnected-(J1-Pin_6-Pad6)*%
X132080000Y-81280000D03*
%TD*%
D21*
%TO.P,D13,1,K*%
%TO.N,Net-(D13-K)*%
X86360000Y-110745000D03*
%TO.P,D13,2,A*%
%TO.N,GND*%
X86360000Y-114045000D03*
%TD*%
D22*
%TO.P,C11,1*%
%TO.N,VDD*%
X149062500Y-77470000D03*
%TO.P,C11,2*%
%TO.N,GND*%
X151137500Y-77470000D03*
%TD*%
D23*
%TO.P,J9,1,Pin_1*%
%TO.N,Net-(J8-Pin_3)*%
X66675000Y-85090000D03*
D24*
%TO.P,J9,2,Pin_2*%
%TO.N,Net-(J8-Pin_4)*%
X66675000Y-82550000D03*
%TO.P,J9,3,Pin_3*%
%TO.N,GND*%
X66675000Y-80010000D03*
%TO.P,J9,4,Pin_4*%
%TO.N,unconnected-(J9-Pin_4-Pad4)*%
X69215000Y-80010000D03*
%TO.P,J9,5,Pin_5*%
%TO.N,+5V*%
X69215000Y-82550000D03*
%TO.P,J9,6,Pin_6*%
%TO.N,VDD*%
X69215000Y-85090000D03*
%TD*%
D25*
%TO.P,U8,1,IN*%
%TO.N,+12V*%
X144175000Y-122145000D03*
%TO.P,U8,2,OUT*%
%TO.N,Net-(D21-K)*%
X144175000Y-120445000D03*
%TO.P,U8,3,GND*%
%TO.N,GND*%
X144175000Y-118745000D03*
D26*
X135025000Y-118745000D03*
D25*
%TO.P,U8,4,FB*%
%TO.N,+5V*%
X144175000Y-117045000D03*
%TO.P,U8,5,SD*%
%TO.N,GND*%
X144175000Y-115345000D03*
%TD*%
D27*
%TO.P,U5,1,Q_{B}*%
%TO.N,Net-(U5-Q_{B})*%
X160475000Y-92445000D03*
%TO.P,U5,2,Q_{C}*%
%TO.N,Net-(U5-Q_{C})*%
X160475000Y-91175000D03*
%TO.P,U5,3,Q_{D}*%
%TO.N,unconnected-(U5-Q_{D}-Pad3)*%
X160475000Y-89905000D03*
%TO.P,U5,4,Q_{E}*%
%TO.N,unconnected-(U5-Q_{E}-Pad4)*%
X160475000Y-88635000D03*
%TO.P,U5,5,Q_{F}*%
%TO.N,unconnected-(U5-Q_{F}-Pad5)*%
X160475000Y-87365000D03*
%TO.P,U5,6,Q_{G}*%
%TO.N,unconnected-(U5-Q_{G}-Pad6)*%
X160475000Y-86095000D03*
%TO.P,U5,7,Q_{H}*%
%TO.N,Net-(U5-Q_{H})*%
X160475000Y-84825000D03*
%TO.P,U5,8,GND*%
%TO.N,GND*%
X160475000Y-83555000D03*
%TO.P,U5,9,SQ_{H}*%
%TO.N,unconnected-(U5-SQ_{H}-Pad9)*%
X155525000Y-83555000D03*
%TO.P,U5,10,~{RST}*%
%TO.N,Net-(U4-RB0)*%
X155525000Y-84825000D03*
%TO.P,U5,11,SHIFT_CLK*%
%TO.N,Net-(U4-RB1)*%
X155525000Y-86095000D03*
%TO.P,U5,12,LATCH_CLK*%
%TO.N,Net-(U4-RB2)*%
X155525000Y-87365000D03*
%TO.P,U5,13,~{OUT_EN}*%
%TO.N,GND*%
X155525000Y-88635000D03*
%TO.P,U5,14,A*%
%TO.N,Net-(U4-RB5)*%
X155525000Y-89905000D03*
%TO.P,U5,15,Q_{A}*%
%TO.N,Net-(U5-Q_{A})*%
X155525000Y-91175000D03*
%TO.P,U5,16,V_{CC}*%
%TO.N,VDD*%
X155525000Y-92445000D03*
%TD*%
D28*
%TO.P,C9,1*%
%TO.N,+5V*%
X175027500Y-71755000D03*
%TO.P,C9,2*%
%TO.N,GND*%
X172952500Y-71755000D03*
%TD*%
D29*
%TO.P,R47,1*%
%TO.N,Net-(J14-Pin_3)*%
X149100000Y-74930000D03*
%TO.P,R47,2*%
%TO.N,GND*%
X151100000Y-74930000D03*
%TD*%
%TO.P,R8,1*%
%TO.N,Net-(R8-Pad1)*%
X79645000Y-90170000D03*
%TO.P,R8,2*%
%TO.N,Net-(D3-A)*%
X81645000Y-90170000D03*
%TD*%
D14*
%TO.P,D1,1,K*%
%TO.N,Net-(D1-K)*%
X109855000Y-107732500D03*
%TO.P,D1,2,A*%
%TO.N,GND*%
X109855000Y-108707500D03*
%TD*%
D30*
%TO.P,D22,1,K*%
%TO.N,Net-(D22-K)*%
X70485000Y-114280000D03*
%TO.P,D22,2,A*%
%TO.N,Net-(D22-A)*%
X70485000Y-111780000D03*
%TD*%
D19*
%TO.P,J14,1,Pin_1*%
%TO.N,VDD*%
X146050000Y-77470000D03*
D20*
%TO.P,J14,2,Pin_2*%
%TO.N,Net-(J14-Pin_2)*%
X143510000Y-77470000D03*
%TO.P,J14,3,Pin_3*%
%TO.N,Net-(J14-Pin_3)*%
X146050000Y-74930000D03*
%TO.P,J14,4,Pin_4*%
%TO.N,Net-(J14-Pin_2)*%
X143510000Y-74930000D03*
%TO.P,J14,5,Pin_5*%
%TO.N,GND*%
X146050000Y-72390000D03*
%TO.P,J14,6,Pin_6*%
%TO.N,Net-(J14-Pin_2)*%
X143510000Y-72390000D03*
%TD*%
D31*
%TO.P,R35,1*%
%TO.N,fuel_tank*%
X95885000Y-113395000D03*
%TO.P,R35,2*%
%TO.N,Net-(U2A--)*%
X95885000Y-111395000D03*
%TD*%
D13*
%TO.P,R30,1*%
%TO.N,Net-(D10-A)*%
X176530000Y-86360000D03*
%TO.P,R30,2*%
%TO.N,Net-(U5-Q_{C})*%
X166370000Y-86360000D03*
%TD*%
D29*
%TO.P,R25,1*%
%TO.N,Net-(R25-Pad1)*%
X79645000Y-118110000D03*
%TO.P,R25,2*%
%TO.N,Net-(D8-A)*%
X81645000Y-118110000D03*
%TD*%
D14*
%TO.P,D6,1,K*%
%TO.N,Net-(D6-K)*%
X109855000Y-103287500D03*
%TO.P,D6,2,A*%
%TO.N,GND*%
X109855000Y-104262500D03*
%TD*%
D13*
%TO.P,R32,1*%
%TO.N,Net-(D14-A2)*%
X79280000Y-103395000D03*
%TO.P,R32,2*%
%TO.N,Net-(D13-K)*%
X89440000Y-103395000D03*
%TD*%
D17*
%TO.P,R6,1*%
%TO.N,Net-(D2-K)*%
X114935000Y-112300000D03*
%TO.P,R6,2*%
%TO.N,Net-(U3-Y1)*%
X114935000Y-114300000D03*
%TD*%
%TO.P,R11,1*%
%TO.N,Net-(D4-K)*%
X114935000Y-116745000D03*
%TO.P,R11,2*%
%TO.N,Net-(U3-Y2)*%
X114935000Y-118745000D03*
%TD*%
%TO.P,R17,1*%
%TO.N,GND*%
X120015000Y-103410000D03*
%TO.P,R17,2*%
%TO.N,Net-(U3-Y3)*%
X120015000Y-105410000D03*
%TD*%
D32*
%TO.P,C6,1*%
%TO.N,GND*%
X117475000Y-103372500D03*
%TO.P,C6,2*%
%TO.N,Net-(U3-Y3)*%
X117475000Y-105447500D03*
%TD*%
D19*
%TO.P,J5,1,Pin_1*%
%TO.N,GND*%
X150000000Y-100965000D03*
D20*
%TO.P,J5,2,Pin_2*%
%TO.N,Net-(J5-Pin_2)*%
X152540000Y-100965000D03*
%TO.P,J5,3,Pin_3*%
%TO.N,GND*%
X150000000Y-103505000D03*
%TO.P,J5,4,Pin_4*%
%TO.N,Net-(J5-Pin_4)*%
X152540000Y-103505000D03*
%TO.P,J5,5,Pin_5*%
%TO.N,GND*%
X150000000Y-106045000D03*
%TO.P,J5,6,Pin_6*%
%TO.N,Net-(J5-Pin_6)*%
X152540000Y-106045000D03*
%TO.P,J5,7,Pin_7*%
%TO.N,GND*%
X150000000Y-108585000D03*
%TO.P,J5,8,Pin_8*%
%TO.N,Net-(J5-Pin_8)*%
X152540000Y-108585000D03*
%TD*%
D17*
%TO.P,R7,1*%
%TO.N,GND*%
X120015000Y-112300000D03*
%TO.P,R7,2*%
%TO.N,Net-(U3-Y1)*%
X120015000Y-114300000D03*
%TD*%
D21*
%TO.P,D5,1,K*%
%TO.N,Net-(D5-K)*%
X86360000Y-82805000D03*
%TO.P,D5,2,A*%
%TO.N,GND*%
X86360000Y-86105000D03*
%TD*%
D33*
%TO.P,D16,1,VSS*%
%TO.N,GND*%
X161715000Y-75185000D03*
%TO.P,D16,2,DIN*%
%TO.N,Net-(D16-DIN)*%
X161715000Y-78485000D03*
%TO.P,D16,3,DOUT*%
%TO.N,Net-(D15-DIN)*%
X167215000Y-75185000D03*
%TO.P,D16,4,VDD*%
%TO.N,+5V*%
X167215000Y-78485000D03*
%TD*%
D23*
%TO.P,D10,1,K*%
%TO.N,+5V*%
X181610000Y-86360000D03*
D34*
%TO.P,D10,2,A*%
%TO.N,Net-(D10-A)*%
X179070000Y-86360000D03*
%TD*%
D13*
%TO.P,R23,1*%
%TO.N,VDD*%
X167000000Y-102870000D03*
%TO.P,R23,2*%
%TO.N,Net-(J5-Pin_4)*%
X156840000Y-102870000D03*
%TD*%
D32*
%TO.P,C4,1*%
%TO.N,GND*%
X117475000Y-116707500D03*
%TO.P,C4,2*%
%TO.N,Net-(U3-Y2)*%
X117475000Y-118782500D03*
%TD*%
D22*
%TO.P,C13,1*%
%TO.N,Net-(J12-Pin_1)*%
X140567500Y-64135000D03*
%TO.P,C13,2*%
%TO.N,GND*%
X142642500Y-64135000D03*
%TD*%
D31*
%TO.P,R45,1*%
%TO.N,Net-(J12-Pin_1)*%
X139065000Y-68945000D03*
%TO.P,R45,2*%
%TO.N,Net-(U7-Vref)*%
X139065000Y-66945000D03*
%TD*%
D13*
%TO.P,R22,1*%
%TO.N,VDD*%
X167000000Y-99695000D03*
%TO.P,R22,2*%
%TO.N,Net-(J5-Pin_2)*%
X156840000Y-99695000D03*
%TD*%
D32*
%TO.P,C16,1*%
%TO.N,sensor2*%
X73660000Y-98657500D03*
%TO.P,C16,2*%
%TO.N,GND*%
X73660000Y-100732500D03*
%TD*%
D35*
%TO.P,C18,1*%
%TO.N,+5V*%
X172742165Y-110490000D03*
%TO.P,C18,2*%
%TO.N,GND*%
X172742165Y-113370000D03*
%TD*%
D36*
%TO.P,R37,1*%
%TO.N,Net-(U2A--)*%
X92075000Y-111482500D03*
%TO.P,R37,2*%
%TO.N,GND*%
X92075000Y-113307500D03*
%TD*%
D23*
%TO.P,D12,1,K*%
%TO.N,+5V*%
X181610000Y-95250000D03*
D34*
%TO.P,D12,2,A*%
%TO.N,Net-(D12-A)*%
X179070000Y-95250000D03*
%TD*%
D32*
%TO.P,C7,1*%
%TO.N,Net-(D13-K)*%
X88900000Y-111357500D03*
%TO.P,C7,2*%
%TO.N,GND*%
X88900000Y-113432500D03*
%TD*%
D27*
%TO.P,U3,1,Y4*%
%TO.N,Net-(J5-Pin_8)*%
X144080000Y-109220000D03*
%TO.P,U3,2,Y6*%
%TO.N,Net-(J5-Pin_6)*%
X144080000Y-107950000D03*
%TO.P,U3,3,COM*%
%TO.N,Net-(U3-COM)*%
X144080000Y-106680000D03*
%TO.P,U3,4,Y7*%
%TO.N,Net-(J5-Pin_4)*%
X144080000Y-105410000D03*
%TO.P,U3,5,Y5*%
%TO.N,Net-(J5-Pin_2)*%
X144080000Y-104140000D03*
%TO.P,U3,6,~{INH}*%
%TO.N,GND*%
X144080000Y-102870000D03*
%TO.P,U3,7,GND*%
X144080000Y-101600000D03*
%TO.P,U3,8,GND*%
X144080000Y-100330000D03*
%TO.P,U3,9,C*%
%TO.N,Net-(U3-C)*%
X139130000Y-100330000D03*
%TO.P,U3,10,B*%
%TO.N,Net-(U3-B)*%
X139130000Y-101600000D03*
%TO.P,U3,11,A*%
%TO.N,Net-(U3-A)*%
X139130000Y-102870000D03*
%TO.P,U3,12,Y3*%
%TO.N,Net-(U3-Y3)*%
X139130000Y-104140000D03*
%TO.P,U3,13,Y0*%
%TO.N,Net-(U3-Y0)*%
X139130000Y-105410000D03*
%TO.P,U3,14,Y1*%
%TO.N,Net-(U3-Y1)*%
X139130000Y-106680000D03*
%TO.P,U3,15,Y2*%
%TO.N,Net-(U3-Y2)*%
X139130000Y-107950000D03*
%TO.P,U3,16,V_{CC}*%
%TO.N,VDD*%
X139130000Y-109220000D03*
%TD*%
D13*
%TO.P,R31,1*%
%TO.N,Net-(D11-A)*%
X176530000Y-90805000D03*
%TO.P,R31,2*%
%TO.N,Net-(U5-Q_{B})*%
X166370000Y-90805000D03*
%TD*%
D17*
%TO.P,R43,1*%
%TO.N,GND*%
X120015000Y-98695000D03*
%TO.P,R43,2*%
%TO.N,voltage*%
X120015000Y-100695000D03*
%TD*%
D19*
%TO.P,J2,1,Pin_1*%
%TO.N,Net-(J2-Pin_1)*%
X73865000Y-67620000D03*
D20*
%TO.P,J2,2,Pin_2*%
X73865000Y-70160000D03*
%TO.P,J2,3,Pin_3*%
%TO.N,GND*%
X73865000Y-72700000D03*
%TD*%
D13*
%TO.P,R24,1*%
%TO.N,VDD*%
X167005000Y-106045000D03*
%TO.P,R24,2*%
%TO.N,Net-(J5-Pin_6)*%
X156845000Y-106045000D03*
%TD*%
D11*
%TO.P,H1,1,1*%
%TO.N,GND*%
X178886000Y-60880000D03*
X179632878Y-59076878D03*
X179632878Y-62683122D03*
X181436000Y-58330000D03*
D12*
X181436000Y-60880000D03*
D11*
X181436000Y-63430000D03*
X183239122Y-59076878D03*
X183239122Y-62683122D03*
X183986000Y-60880000D03*
%TD*%
D37*
%TO.P,U7,1,D*%
%TO.N,can_tx*%
X135890000Y-76770000D03*
%TO.P,U7,2,GND*%
%TO.N,GND*%
X137160000Y-76770000D03*
%TO.P,U7,3,VCC*%
%TO.N,VDD*%
X138430000Y-76770000D03*
%TO.P,U7,4,R*%
%TO.N,can_rx*%
X139700000Y-76770000D03*
%TO.P,U7,5,Vref*%
%TO.N,Net-(U7-Vref)*%
X139700000Y-71820000D03*
%TO.P,U7,6,CANL*%
%TO.N,Net-(J12-Pin_1)*%
X138430000Y-71820000D03*
%TO.P,U7,7,CANH*%
%TO.N,Net-(J11-Pin_1)*%
X137160000Y-71820000D03*
%TO.P,U7,8,Rs*%
%TO.N,Net-(J14-Pin_2)*%
X135890000Y-71820000D03*
%TD*%
D32*
%TO.P,C1,1*%
%TO.N,GND*%
X117475000Y-107817500D03*
%TO.P,C1,2*%
%TO.N,Net-(U3-Y0)*%
X117475000Y-109892500D03*
%TD*%
D29*
%TO.P,R42,1*%
%TO.N,Net-(J12-Pin_1)*%
X142510000Y-67945000D03*
%TO.P,R42,2*%
%TO.N,Net-(J11-Pin_2)*%
X144510000Y-67945000D03*
%TD*%
D32*
%TO.P,C5,1*%
%TO.N,Net-(D5-K)*%
X88900000Y-83417500D03*
%TO.P,C5,2*%
%TO.N,GND*%
X88900000Y-85492500D03*
%TD*%
%TO.P,C2,1*%
%TO.N,GND*%
X117475000Y-112262500D03*
%TO.P,C2,2*%
%TO.N,Net-(U3-Y1)*%
X117475000Y-114337500D03*
%TD*%
D33*
%TO.P,D15,1,VSS*%
%TO.N,GND*%
X171240000Y-75185000D03*
%TO.P,D15,2,DIN*%
%TO.N,Net-(D15-DIN)*%
X171240000Y-78485000D03*
%TO.P,D15,3,DOUT*%
%TO.N,unconnected-(D15-DOUT-Pad3)*%
X176740000Y-75185000D03*
%TO.P,D15,4,VDD*%
%TO.N,+5V*%
X176740000Y-78485000D03*
%TD*%
D13*
%TO.P,R21,1*%
%TO.N,GND*%
X92075000Y-89550108D03*
%TO.P,R21,2*%
%TO.N,Net-(U2B--)*%
X92075000Y-79390108D03*
%TD*%
%TO.P,R39,1*%
%TO.N,GND*%
X92075000Y-117475000D03*
%TO.P,R39,2*%
%TO.N,Net-(U2A--)*%
X92075000Y-107315000D03*
%TD*%
D30*
%TO.P,D19,1,K*%
%TO.N,sensor2*%
X73660000Y-95865000D03*
%TO.P,D19,2,A*%
%TO.N,Net-(D18-A)*%
X73660000Y-93365000D03*
%TD*%
D11*
%TO.P,H4,1,1*%
%TO.N,GND*%
X63886000Y-133380000D03*
X64632878Y-131576878D03*
X64632878Y-135183122D03*
X66436000Y-130830000D03*
D12*
X66436000Y-133380000D03*
D11*
X66436000Y-135930000D03*
X68239122Y-131576878D03*
X68239122Y-135183122D03*
X68986000Y-133380000D03*
%TD*%
D31*
%TO.P,R40,1*%
%TO.N,+12V*%
X112395000Y-100695000D03*
%TO.P,R40,2*%
%TO.N,Net-(D17-K)*%
X112395000Y-98695000D03*
%TD*%
D23*
%TO.P,D9,1,K*%
%TO.N,+5V*%
X181610000Y-81915000D03*
D34*
%TO.P,D9,2,A*%
%TO.N,Net-(D9-A)*%
X179070000Y-81915000D03*
%TD*%
D31*
%TO.P,R5,1*%
%TO.N,Net-(J4-Pin_6)*%
X112395000Y-114300000D03*
%TO.P,R5,2*%
%TO.N,Net-(D2-K)*%
X112395000Y-112300000D03*
%TD*%
%TO.P,R1,1*%
%TO.N,Net-(J4-Pin_4)*%
X112395000Y-109855000D03*
%TO.P,R1,2*%
%TO.N,Net-(D1-K)*%
X112395000Y-107855000D03*
%TD*%
D19*
%TO.P,J16,1,Pin_1*%
%TO.N,GND*%
X171455000Y-121920000D03*
D20*
%TO.P,J16,2,Pin_2*%
X168915000Y-121920000D03*
%TD*%
D30*
%TO.P,D23,1,K*%
%TO.N,sensor1*%
X73660000Y-114280000D03*
%TO.P,D23,2,A*%
%TO.N,Net-(D22-A)*%
X73660000Y-111780000D03*
%TD*%
D38*
%TO.P,L1,1,1*%
%TO.N,Net-(D21-K)*%
X153670000Y-123220000D03*
%TO.P,L1,2,2*%
%TO.N,+5V*%
X153670000Y-114270000D03*
%TD*%
D39*
%TO.P,D20,1,A1*%
%TO.N,GND*%
X70485000Y-102965000D03*
%TO.P,D20,2,A2*%
%TO.N,Net-(D18-K)*%
X70485000Y-98965000D03*
%TD*%
D31*
%TO.P,R38,1*%
%TO.N,Net-(D16-DIN)*%
X155575000Y-77835000D03*
%TO.P,R38,2*%
%TO.N,Net-(U4-CCP1{slash}RC2)*%
X155575000Y-75835000D03*
%TD*%
D32*
%TO.P,C12,1*%
%TO.N,GND*%
X117475000Y-98657500D03*
%TO.P,C12,2*%
%TO.N,voltage*%
X117475000Y-100732500D03*
%TD*%
D28*
%TO.P,C8,1*%
%TO.N,+5V*%
X165502500Y-71755000D03*
%TO.P,C8,2*%
%TO.N,GND*%
X163427500Y-71755000D03*
%TD*%
D40*
%TO.P,C15,1*%
%TO.N,Net-(U7-Vref)*%
X137795000Y-64537500D03*
%TO.P,C15,2*%
%TO.N,GND*%
X137795000Y-62462500D03*
%TD*%
D41*
%TO.P,D21,1,K*%
%TO.N,Net-(D21-K)*%
X157070000Y-129540000D03*
%TO.P,D21,2,A*%
%TO.N,GND*%
X150270000Y-129540000D03*
%TD*%
D42*
%TO.P,U4,1,~{MCLR}/RE3*%
%TO.N,Net-(J1-Pin_1)*%
X138015000Y-93670000D03*
%TO.P,U4,2,RA0*%
%TO.N,voltage*%
X138665000Y-93670000D03*
%TO.P,U4,3,RA1*%
%TO.N,Net-(U3-A)*%
X139315000Y-93670000D03*
%TO.P,U4,4,RA2/Vref-*%
%TO.N,Net-(U3-B)*%
X139965000Y-93670000D03*
%TO.P,U4,5,RA3/Vref+*%
%TO.N,Net-(U3-C)*%
X140615000Y-93670000D03*
%TO.P,U4,6,RA4*%
%TO.N,water_tank*%
X141265000Y-93670000D03*
%TO.P,U4,7,RA5*%
%TO.N,fuel_tank*%
X141915000Y-93670000D03*
%TO.P,U4,8,Vss*%
%TO.N,GND*%
X142565000Y-93670000D03*
%TO.P,U4,9,RA7*%
%TO.N,unconnected-(U4-RA7-Pad9)*%
X143215000Y-93670000D03*
%TO.P,U4,10,RA6*%
%TO.N,Net-(U3-COM)*%
X143865000Y-93670000D03*
%TO.P,U4,11,RC0*%
%TO.N,unconnected-(U4-RC0-Pad11)*%
X144515000Y-93670000D03*
%TO.P,U4,12,CCP2/RC1*%
%TO.N,unconnected-(U4-CCP2{slash}RC1-Pad12)*%
X145165000Y-93670000D03*
%TO.P,U4,13,CCP1/RC2*%
%TO.N,Net-(U4-CCP1{slash}RC2)*%
X145815000Y-93670000D03*
%TO.P,U4,14,SCL/SCK/RC3*%
%TO.N,Net-(J8-Pin_3)*%
X146465000Y-93670000D03*
%TO.P,U4,15,SDA/SDI/RC4*%
%TO.N,Net-(J8-Pin_4)*%
X146465000Y-86670000D03*
%TO.P,U4,16,RC5*%
%TO.N,unconnected-(U4-RC5-Pad16)*%
X145815000Y-86670000D03*
%TO.P,U4,17,RC6*%
%TO.N,sensor2*%
X145165000Y-86670000D03*
%TO.P,U4,18,RC7*%
%TO.N,sensor1*%
X144515000Y-86670000D03*
%TO.P,U4,19,Vss*%
%TO.N,GND*%
X143865000Y-86670000D03*
%TO.P,U4,20,Vdd*%
%TO.N,VDD*%
X143215000Y-86670000D03*
%TO.P,U4,21,RB0*%
%TO.N,Net-(U4-RB0)*%
X142565000Y-86670000D03*
%TO.P,U4,22,RB1*%
%TO.N,Net-(U4-RB1)*%
X141915000Y-86670000D03*
%TO.P,U4,23,RB2*%
%TO.N,Net-(U4-RB2)*%
X141265000Y-86670000D03*
%TO.P,U4,24,RB3*%
%TO.N,can_rx*%
X140615000Y-86670000D03*
%TO.P,U4,25,RB4*%
%TO.N,can_tx*%
X139965000Y-86670000D03*
%TO.P,U4,26,RB5*%
%TO.N,Net-(U4-RB5)*%
X139315000Y-86670000D03*
%TO.P,U4,27,ICSPCLK/RB6*%
%TO.N,Net-(J1-Pin_5)*%
X138665000Y-86670000D03*
%TO.P,U4,28,ICSPDAT/RB7*%
%TO.N,Net-(J1-Pin_4)*%
X138015000Y-86670000D03*
%TD*%
D17*
%TO.P,R14,1*%
%TO.N,Net-(D3-K)*%
X86360000Y-78375000D03*
%TO.P,R14,2*%
%TO.N,Net-(D5-K)*%
X86360000Y-80375000D03*
%TD*%
D36*
%TO.P,R20,1*%
%TO.N,Net-(U2B--)*%
X92075000Y-83542500D03*
%TO.P,R20,2*%
%TO.N,GND*%
X92075000Y-85367500D03*
%TD*%
D17*
%TO.P,R4,1*%
%TO.N,VDD*%
X128270000Y-91710000D03*
%TO.P,R4,2*%
%TO.N,Net-(J1-Pin_1)*%
X128270000Y-93710000D03*
%TD*%
%TO.P,R48,1*%
%TO.N,VDD*%
X73660000Y-107585000D03*
%TO.P,R48,2*%
%TO.N,Net-(D22-A)*%
X73660000Y-109585000D03*
%TD*%
D11*
%TO.P,H2,1,1*%
%TO.N,GND*%
X63886000Y-60880000D03*
X64632878Y-59076878D03*
X64632878Y-62683122D03*
X66436000Y-58330000D03*
D12*
X66436000Y-60880000D03*
D11*
X66436000Y-63430000D03*
X68239122Y-59076878D03*
X68239122Y-62683122D03*
X68986000Y-60880000D03*
%TD*%
D23*
%TO.P,D11,1,K*%
%TO.N,+5V*%
X181610000Y-90805000D03*
D34*
%TO.P,D11,2,A*%
%TO.N,Net-(D11-A)*%
X179070000Y-90805000D03*
%TD*%
D17*
%TO.P,R12,1*%
%TO.N,GND*%
X120015000Y-116745000D03*
%TO.P,R12,2*%
%TO.N,Net-(U3-Y2)*%
X120015000Y-118745000D03*
%TD*%
D19*
%TO.P,J12,1,Pin_1*%
%TO.N,Net-(J12-Pin_1)*%
X139070000Y-59055000D03*
D20*
%TO.P,J12,2,Pin_2*%
%TO.N,Net-(J11-Pin_1)*%
X136530000Y-59055000D03*
%TD*%
D19*
%TO.P,J17,1,Pin_1*%
%TO.N,VDD*%
X164841000Y-67056000D03*
D20*
%TO.P,J17,2,Pin_2*%
X167381000Y-67056000D03*
%TD*%
D30*
%TO.P,D18,1,K*%
%TO.N,Net-(D18-K)*%
X70485000Y-95865000D03*
%TO.P,D18,2,A*%
%TO.N,Net-(D18-A)*%
X70485000Y-93365000D03*
%TD*%
D17*
%TO.P,R2,1*%
%TO.N,Net-(D1-K)*%
X114935000Y-107855000D03*
%TO.P,R2,2*%
%TO.N,Net-(U3-Y0)*%
X114935000Y-109855000D03*
%TD*%
D37*
%TO.P,U6,1*%
%TO.N,Net-(R25-Pad1)*%
X79375000Y-114870000D03*
%TO.P,U6,2*%
%TO.N,Net-(D8-A)*%
X80645000Y-114870000D03*
%TO.P,U6,3*%
X81915000Y-114870000D03*
%TO.P,U6,4*%
%TO.N,+5V*%
X83185000Y-114870000D03*
%TO.P,U6,5*%
%TO.N,N/C*%
X83185000Y-109920000D03*
%TO.P,U6,6*%
%TO.N,Net-(D8-A)*%
X81915000Y-109920000D03*
%TO.P,U6,7*%
X80645000Y-109920000D03*
%TO.P,U6,8*%
%TO.N,N/C*%
X79375000Y-109920000D03*
%TD*%
D10*
%TO.P,D3,1,K*%
%TO.N,Net-(D3-K)*%
X83165000Y-78740000D03*
%TO.P,D3,2,A*%
%TO.N,Net-(D3-A)*%
X80665000Y-78740000D03*
%TD*%
D19*
%TO.P,J15,1,Pin_1*%
%TO.N,Net-(D22-K)*%
X65405000Y-117470000D03*
D20*
%TO.P,J15,2,Pin_2*%
%TO.N,GND*%
X65405000Y-120010000D03*
%TD*%
D17*
%TO.P,R46,1*%
%TO.N,VDD*%
X73660000Y-89170000D03*
%TO.P,R46,2*%
%TO.N,Net-(D18-A)*%
X73660000Y-91170000D03*
%TD*%
%TO.P,R41,1*%
%TO.N,Net-(D17-K)*%
X114935000Y-98695000D03*
%TO.P,R41,2*%
%TO.N,voltage*%
X114935000Y-100695000D03*
%TD*%
D32*
%TO.P,C10,1*%
%TO.N,GND*%
X158115000Y-75797500D03*
%TO.P,C10,2*%
%TO.N,Net-(D16-DIN)*%
X158115000Y-77872500D03*
%TD*%
D34*
%TO.P,RV1,1,1*%
%TO.N,Net-(J2-Pin_1)*%
X81365000Y-66430000D03*
%TO.P,RV1,2,2*%
X78365000Y-66430000D03*
%TO.P,RV1,3,3*%
%TO.N,GND*%
X126365000Y-66430000D03*
%TO.P,RV1,3a,3*%
X101365000Y-66430000D03*
%TO.P,RV1,3b,3*%
X106365000Y-66430000D03*
%TO.P,RV1,3c,3*%
X111365000Y-66430000D03*
%TO.P,RV1,3d,3*%
X116365000Y-66430000D03*
%TO.P,RV1,3e,3*%
X121365000Y-66430000D03*
%TO.P,RV1,N1*%
%TO.N,N/C*%
X81365000Y-74930000D03*
%TO.P,RV1,N2*%
X101365000Y-74930000D03*
%TO.P,RV1,N3*%
X106365000Y-74930000D03*
%TO.P,RV1,N4*%
X111365000Y-74930000D03*
%TO.P,RV1,N5*%
X116365000Y-74930000D03*
%TO.P,RV1,N6*%
X121365000Y-74930000D03*
%TO.P,RV1,N7*%
X126365000Y-74930000D03*
%TD*%
D19*
%TO.P,J7,1,Pin_1*%
%TO.N,Net-(D14-A2)*%
X71720000Y-127259000D03*
D20*
%TO.P,J7,2,Pin_2*%
%TO.N,GND*%
X71720000Y-124719000D03*
%TD*%
D22*
%TO.P,C20,1*%
%TO.N,+5V*%
X175895000Y-104165791D03*
%TO.P,C20,2*%
%TO.N,GND*%
X177970000Y-104165791D03*
%TD*%
D31*
%TO.P,R44,1*%
%TO.N,Net-(J11-Pin_1)*%
X136525000Y-68945000D03*
%TO.P,R44,2*%
%TO.N,Net-(U7-Vref)*%
X136525000Y-66945000D03*
%TD*%
D19*
%TO.P,J18,1,Pin_1*%
%TO.N,+5V*%
X173228000Y-67056000D03*
D20*
%TO.P,J18,2,Pin_2*%
X175768000Y-67056000D03*
%TD*%
D19*
%TO.P,J13,1,Pin_1*%
%TO.N,Net-(D18-K)*%
X65530000Y-99690000D03*
D20*
%TO.P,J13,2,Pin_2*%
%TO.N,GND*%
X65530000Y-102230000D03*
%TD*%
D28*
%TO.P,C14,1*%
%TO.N,Net-(J11-Pin_1)*%
X135022500Y-64135000D03*
%TO.P,C14,2*%
%TO.N,GND*%
X132947500Y-64135000D03*
%TD*%
D13*
%TO.P,R27,1*%
%TO.N,VDD*%
X167005000Y-109220000D03*
%TO.P,R27,2*%
%TO.N,Net-(J5-Pin_8)*%
X156845000Y-109220000D03*
%TD*%
%TO.P,R13,1*%
%TO.N,Net-(J2-Pin_1)*%
X69215000Y-65405000D03*
%TO.P,R13,2*%
%TO.N,Net-(D3-K)*%
X69215000Y-75565000D03*
%TD*%
D31*
%TO.P,R10,1*%
%TO.N,Net-(J4-Pin_8)*%
X112395000Y-118745000D03*
%TO.P,R10,2*%
%TO.N,Net-(D4-K)*%
X112395000Y-116745000D03*
%TD*%
D17*
%TO.P,R16,1*%
%TO.N,Net-(D6-K)*%
X114935000Y-103410000D03*
%TO.P,R16,2*%
%TO.N,Net-(U3-Y3)*%
X114935000Y-105410000D03*
%TD*%
D43*
%TO.P,C17,1*%
%TO.N,+12V*%
X144145000Y-127477500D03*
%TO.P,C17,2*%
%TO.N,GND*%
X144145000Y-131602500D03*
%TD*%
D34*
%TO.P,RV2,1,1*%
%TO.N,Net-(J6-Pin_1)*%
X89220000Y-126120000D03*
%TO.P,RV2,2,2*%
X86220000Y-126120000D03*
%TO.P,RV2,3,3*%
%TO.N,GND*%
X134220000Y-126120000D03*
%TO.P,RV2,3a,3*%
X109220000Y-126120000D03*
%TO.P,RV2,3b,3*%
X114220000Y-126120000D03*
%TO.P,RV2,3c,3*%
X119220000Y-126120000D03*
%TO.P,RV2,3d,3*%
X124220000Y-126120000D03*
%TO.P,RV2,3e,3*%
X129220000Y-126120000D03*
%TO.P,RV2,N1*%
%TO.N,N/C*%
X89220000Y-134620000D03*
%TO.P,RV2,N2*%
X109220000Y-134620000D03*
%TO.P,RV2,N3*%
X114220000Y-134620000D03*
%TO.P,RV2,N4*%
X119220000Y-134620000D03*
%TO.P,RV2,N5*%
X124220000Y-134620000D03*
%TO.P,RV2,N6*%
X129220000Y-134620000D03*
%TO.P,RV2,N7*%
X134220000Y-134620000D03*
%TD*%
D39*
%TO.P,D24,1,A1*%
%TO.N,GND*%
X70485000Y-120745000D03*
%TO.P,D24,2,A2*%
%TO.N,Net-(D22-K)*%
X70485000Y-116745000D03*
%TD*%
D19*
%TO.P,J4,1,Pin_1*%
%TO.N,+12V*%
X103500000Y-110125000D03*
D20*
%TO.P,J4,2,Pin_2*%
%TO.N,Net-(J4-Pin_2)*%
X106040000Y-110125000D03*
%TO.P,J4,3,Pin_3*%
%TO.N,+12V*%
X103500000Y-112665000D03*
%TO.P,J4,4,Pin_4*%
%TO.N,Net-(J4-Pin_4)*%
X106040000Y-112665000D03*
%TO.P,J4,5,Pin_5*%
%TO.N,+12V*%
X103500000Y-115205000D03*
%TO.P,J4,6,Pin_6*%
%TO.N,Net-(J4-Pin_6)*%
X106040000Y-115205000D03*
%TO.P,J4,7,Pin_7*%
%TO.N,+12V*%
X103500000Y-117745000D03*
%TO.P,J4,8,Pin_8*%
%TO.N,Net-(J4-Pin_8)*%
X106040000Y-117745000D03*
%TD*%
D37*
%TO.P,U1,1*%
%TO.N,Net-(R8-Pad1)*%
X79375000Y-86930000D03*
%TO.P,U1,2*%
%TO.N,Net-(D3-A)*%
X80645000Y-86930000D03*
%TO.P,U1,3*%
X81915000Y-86930000D03*
%TO.P,U1,4*%
%TO.N,+5V*%
X83185000Y-86930000D03*
%TO.P,U1,5*%
%TO.N,N/C*%
X83185000Y-81980000D03*
%TO.P,U1,6*%
%TO.N,Net-(D3-A)*%
X81915000Y-81980000D03*
%TO.P,U1,7*%
X80645000Y-81980000D03*
%TO.P,U1,8*%
%TO.N,N/C*%
X79375000Y-81980000D03*
%TD*%
D31*
%TO.P,R18,1*%
%TO.N,water_tank*%
X95885000Y-85470108D03*
%TO.P,R18,2*%
%TO.N,Net-(U2B--)*%
X95885000Y-83470108D03*
%TD*%
D13*
%TO.P,R28,1*%
%TO.N,Net-(D12-A)*%
X176530000Y-95250000D03*
%TO.P,R28,2*%
%TO.N,Net-(U5-Q_{A})*%
X166370000Y-95250000D03*
%TD*%
D19*
%TO.P,J6,1,Pin_1*%
%TO.N,Net-(J6-Pin_1)*%
X81720000Y-128620000D03*
D20*
%TO.P,J6,2,Pin_2*%
X81720000Y-131160000D03*
%TO.P,J6,3,Pin_3*%
%TO.N,GND*%
X81720000Y-133700000D03*
%TD*%
D19*
%TO.P,J19,1,Pin_1*%
%TO.N,+12V*%
X163830000Y-121920000D03*
D20*
%TO.P,J19,2,Pin_2*%
X161290000Y-121920000D03*
%TD*%
D29*
%TO.P,R26,1*%
%TO.N,Net-(R25-Pad1)*%
X79645000Y-120650000D03*
%TO.P,R26,2*%
%TO.N,Net-(D14-A2)*%
X81645000Y-120650000D03*
%TD*%
D44*
%TO.P,U9,1,GND*%
%TO.N,GND*%
X180735000Y-110490000D03*
%TO.P,U9,2,VO*%
%TO.N,VDD*%
X178435000Y-110490000D03*
D45*
X178435000Y-116790000D03*
D44*
%TO.P,U9,3,VI*%
%TO.N,+5V*%
X176135000Y-110490000D03*
%TD*%
D19*
%TO.P,J11,1,Pin_1*%
%TO.N,Net-(J11-Pin_1)*%
X153035000Y-67945000D03*
D20*
%TO.P,J11,2,Pin_2*%
%TO.N,Net-(J11-Pin_2)*%
X150495000Y-67945000D03*
%TO.P,J11,3,Pin_3*%
X147955000Y-67945000D03*
%TD*%
D14*
%TO.P,D4,1,K*%
%TO.N,Net-(D4-K)*%
X109855000Y-116622500D03*
%TO.P,D4,2,A*%
%TO.N,GND*%
X109855000Y-117597500D03*
%TD*%
D29*
%TO.P,R9,1*%
%TO.N,Net-(R8-Pad1)*%
X79645000Y-92710000D03*
%TO.P,R9,2*%
%TO.N,Net-(D3-K)*%
X81645000Y-92710000D03*
%TD*%
D19*
%TO.P,J3,1,Pin_1*%
%TO.N,Net-(D3-K)*%
X65532000Y-68575000D03*
D20*
%TO.P,J3,2,Pin_2*%
%TO.N,GND*%
X65532000Y-71115000D03*
%TD*%
D22*
%TO.P,C3,1*%
%TO.N,VDD*%
X141837500Y-83820000D03*
%TO.P,C3,2*%
%TO.N,GND*%
X143912500Y-83820000D03*
%TD*%
D18*
%TO.P,D14,1,A1*%
%TO.N,GND*%
X86360000Y-117380000D03*
%TO.P,D14,2,A2*%
%TO.N,Net-(D14-A2)*%
X86360000Y-121380000D03*
%TD*%
D19*
%TO.P,J10,1,Pin_1*%
%TO.N,can_rx*%
X120015000Y-82550000D03*
D20*
%TO.P,J10,2,Pin_2*%
%TO.N,can_tx*%
X117475000Y-82550000D03*
%TD*%
D13*
%TO.P,R36,1*%
%TO.N,Net-(U2A--)*%
X95885000Y-107315000D03*
%TO.P,R36,2*%
%TO.N,fuel_tank*%
X95885000Y-117475000D03*
%TD*%
%TO.P,R19,1*%
%TO.N,Net-(U2B--)*%
X95885000Y-79390108D03*
%TO.P,R19,2*%
%TO.N,water_tank*%
X95885000Y-89550108D03*
%TD*%
D46*
%TO.P,C21,1*%
%TO.N,VDD*%
X177800000Y-107165791D03*
%TO.P,C21,2*%
%TO.N,GND*%
X180680000Y-107165791D03*
%TD*%
D17*
%TO.P,R3,1*%
%TO.N,GND*%
X120015000Y-107855000D03*
%TO.P,R3,2*%
%TO.N,Net-(U3-Y0)*%
X120015000Y-109855000D03*
%TD*%
D31*
%TO.P,R15,1*%
%TO.N,Net-(J4-Pin_2)*%
X112395000Y-105410000D03*
%TO.P,R15,2*%
%TO.N,Net-(D6-K)*%
X112395000Y-103410000D03*
%TD*%
D32*
%TO.P,C19,1*%
%TO.N,sensor1*%
X73660000Y-116437500D03*
%TO.P,C19,2*%
%TO.N,GND*%
X73660000Y-118512500D03*
%TD*%
D37*
%TO.P,U2,1*%
%TO.N,fuel_tank*%
X92710000Y-100900000D03*
%TO.P,U2,2,-*%
%TO.N,Net-(U2A--)*%
X93980000Y-100900000D03*
%TO.P,U2,3,+*%
%TO.N,Net-(D13-K)*%
X95250000Y-100900000D03*
%TO.P,U2,4,V-*%
%TO.N,GND*%
X96520000Y-100900000D03*
%TO.P,U2,5,+*%
%TO.N,Net-(D5-K)*%
X96520000Y-95950000D03*
%TO.P,U2,6,-*%
%TO.N,Net-(U2B--)*%
X95250000Y-95950000D03*
%TO.P,U2,7*%
%TO.N,water_tank*%
X93980000Y-95950000D03*
%TO.P,U2,8,V+*%
%TO.N,VDD*%
X92710000Y-95950000D03*
%TD*%
D47*
%TO.N,GND*%
X122555000Y-107315000D03*
X122555000Y-99060000D03*
X153230153Y-89095153D03*
X122555000Y-102870000D03*
X180022500Y-104457500D03*
X122555000Y-116205000D03*
X122555000Y-111760000D03*
X137795000Y-60960000D03*
X96520000Y-98425000D03*
X131445000Y-64135000D03*
X144145000Y-64135000D03*
X133985000Y-78105000D03*
%TO.N,VDD*%
X99060000Y-91440000D03*
X178435000Y-119380000D03*
%TO.N,sensor2*%
X148590000Y-83185000D03*
X70485000Y-88900000D03*
%TO.N,+5V*%
X95075000Y-71755000D03*
%TO.N,sensor1*%
X71755000Y-89535000D03*
X146050000Y-83316514D03*
%TO.N,water_tank*%
X125730000Y-90170000D03*
%TO.N,fuel_tank*%
X140970000Y-99060000D03*
%TO.N,Net-(J8-Pin_3)*%
X88900000Y-69215000D03*
X151765000Y-92710000D03*
%TO.N,Net-(J8-Pin_4)*%
X149860000Y-85725000D03*
X85725000Y-70485000D03*
%TD*%
D48*
%TO.N,Net-(U3-Y0)*%
X120015000Y-109855000D02*
X114935000Y-109855000D01*
X120015000Y-109855000D02*
X122555000Y-109855000D01*
X127000000Y-105410000D02*
X138920000Y-105410000D01*
X122555000Y-109855000D02*
X127000000Y-105410000D01*
D49*
%TO.N,GND*%
X163427500Y-73462500D02*
X163432500Y-73467500D01*
D50*
X117475000Y-98657500D02*
X119977500Y-98657500D01*
D51*
X180680000Y-105115000D02*
X180680000Y-107165791D01*
D50*
X116536500Y-113201000D02*
X117475000Y-112262500D01*
D48*
X120015000Y-107855000D02*
X122015000Y-107855000D01*
X120015000Y-116745000D02*
X122015000Y-116745000D01*
D51*
X180735000Y-107220791D02*
X180680000Y-107165791D01*
X138662500Y-126120000D02*
X134220000Y-126120000D01*
D48*
X149217500Y-79375000D02*
X146685000Y-79375000D01*
D50*
X113665000Y-104311000D02*
X116536500Y-104311000D01*
D49*
X148560000Y-72390000D02*
X146050000Y-72390000D01*
D48*
X143865000Y-83867500D02*
X143912500Y-83820000D01*
D49*
X151100000Y-74930000D02*
X151344999Y-74685001D01*
D50*
X116511500Y-99621000D02*
X117475000Y-98657500D01*
D49*
X68040000Y-120745000D02*
X67310000Y-120015000D01*
D48*
X117512500Y-103410000D02*
X117475000Y-103372500D01*
D49*
X89075000Y-63620000D02*
X79995000Y-72700000D01*
D51*
X138425000Y-115345000D02*
X135025000Y-118745000D01*
D49*
X70485000Y-102965000D02*
X66265000Y-102965000D01*
D48*
X146685000Y-79375000D02*
X143912500Y-82147500D01*
D49*
X88900000Y-113432500D02*
X86972500Y-113432500D01*
D50*
X109855000Y-99547500D02*
X109928500Y-99621000D01*
D48*
X149365000Y-100330000D02*
X150000000Y-100965000D01*
X155525000Y-88635000D02*
X153690306Y-88635000D01*
D50*
X109903500Y-108756000D02*
X113665000Y-108756000D01*
D48*
X120015000Y-103410000D02*
X117512500Y-103410000D01*
D49*
X72717500Y-118512500D02*
X70485000Y-120745000D01*
X163432500Y-73467500D02*
X171240000Y-73467500D01*
X66265000Y-102965000D02*
X65530000Y-102230000D01*
X72717500Y-100732500D02*
X70485000Y-102965000D01*
D48*
X153690306Y-88635000D02*
X153230153Y-89095153D01*
D50*
X122190000Y-98695000D02*
X122555000Y-99060000D01*
D48*
X122015000Y-107855000D02*
X122555000Y-107315000D01*
X137160000Y-76770000D02*
X137160000Y-77744999D01*
D50*
X109855000Y-113152500D02*
X109903500Y-113201000D01*
D49*
X161715000Y-75185000D02*
X163432500Y-73467500D01*
D51*
X172742165Y-120632835D02*
X171455000Y-121920000D01*
D49*
X161102500Y-75797500D02*
X161715000Y-75185000D01*
D48*
X132947500Y-64135000D02*
X131445000Y-64135000D01*
D50*
X120015000Y-98695000D02*
X122190000Y-98695000D01*
D51*
X179730791Y-104165791D02*
X180680000Y-105115000D01*
D50*
X109855000Y-104262500D02*
X109903500Y-104311000D01*
X109903500Y-104311000D02*
X113665000Y-104311000D01*
X109855000Y-108707500D02*
X109903500Y-108756000D01*
X113665000Y-113201000D02*
X116536500Y-113201000D01*
D48*
X143912500Y-82147500D02*
X143912500Y-83820000D01*
X120015000Y-112300000D02*
X122015000Y-112300000D01*
D49*
X101365000Y-66430000D02*
X126365000Y-66430000D01*
D51*
X180735000Y-110490000D02*
X180735000Y-107220791D01*
D49*
X171240000Y-75185000D02*
X171240000Y-73467500D01*
D48*
X120015000Y-116745000D02*
X119977500Y-116707500D01*
D49*
X151137500Y-74967500D02*
X151100000Y-74930000D01*
D48*
X136799999Y-78105000D02*
X133985000Y-78105000D01*
D49*
X171240000Y-73467500D02*
X172952500Y-71755000D01*
X151344999Y-74685001D02*
X157002501Y-74685001D01*
D48*
X120015000Y-116745000D02*
X120015000Y-116840000D01*
X120015000Y-103410000D02*
X122015000Y-103410000D01*
D49*
X79995000Y-72700000D02*
X73865000Y-72700000D01*
D50*
X119977500Y-98657500D02*
X120015000Y-98695000D01*
D48*
X122015000Y-112300000D02*
X122555000Y-111760000D01*
D51*
X177970000Y-104165791D02*
X179730791Y-104165791D01*
D49*
X157002501Y-74685001D02*
X158115000Y-75797500D01*
D50*
X109903500Y-113201000D02*
X113665000Y-113201000D01*
D48*
X151122500Y-77470000D02*
X149217500Y-79375000D01*
D49*
X92075000Y-113307500D02*
X89025000Y-113307500D01*
D48*
X139700000Y-88900000D02*
X142565000Y-91765000D01*
D49*
X86360000Y-86105000D02*
X88287500Y-86105000D01*
D50*
X116536500Y-117646000D02*
X117475000Y-116707500D01*
D51*
X146207500Y-129540000D02*
X144145000Y-131602500D01*
D49*
X73660000Y-100732500D02*
X72717500Y-100732500D01*
X151100000Y-74930000D02*
X148560000Y-72390000D01*
X67310000Y-120015000D02*
X65410000Y-120015000D01*
D51*
X150270000Y-129540000D02*
X146207500Y-129540000D01*
X134220000Y-119550000D02*
X135025000Y-118745000D01*
X144175000Y-115345000D02*
X138425000Y-115345000D01*
D49*
X70485000Y-120745000D02*
X68040000Y-120745000D01*
D48*
X142565000Y-91765000D02*
X142565000Y-93670000D01*
X117512500Y-112300000D02*
X117475000Y-112262500D01*
X120015000Y-112300000D02*
X117512500Y-112300000D01*
D49*
X158115000Y-75797500D02*
X161102500Y-75797500D01*
D48*
X119977500Y-116707500D02*
X117475000Y-116707500D01*
D50*
X109928500Y-99621000D02*
X113665000Y-99621000D01*
D51*
X168915000Y-121920000D02*
X171455000Y-121920000D01*
D48*
X137160000Y-77744999D02*
X136799999Y-78105000D01*
X120015000Y-107855000D02*
X117512500Y-107855000D01*
D51*
X65532000Y-78867000D02*
X66675000Y-80010000D01*
D49*
X92075000Y-117475000D02*
X92075000Y-113307500D01*
X151137500Y-77470000D02*
X151137500Y-74967500D01*
D48*
X163195000Y-76665000D02*
X161715000Y-75185000D01*
X151137500Y-77470000D02*
X151122500Y-77470000D01*
D51*
X144145000Y-131602500D02*
X138662500Y-126120000D01*
D48*
X137795000Y-60960000D02*
X137795000Y-62462500D01*
D50*
X109903500Y-117646000D02*
X116536500Y-117646000D01*
D51*
X65532000Y-71115000D02*
X65532000Y-78867000D01*
X144175000Y-118745000D02*
X135025000Y-118745000D01*
D49*
X163427500Y-71755000D02*
X163427500Y-73462500D01*
D48*
X132080000Y-88900000D02*
X139700000Y-88900000D01*
X143865000Y-86670000D02*
X143865000Y-83867500D01*
X163195000Y-80835000D02*
X163195000Y-76665000D01*
X117512500Y-107855000D02*
X117475000Y-107817500D01*
D49*
X86360000Y-114045000D02*
X86360000Y-117380000D01*
X89025000Y-113307500D02*
X88900000Y-113432500D01*
D50*
X113665000Y-99621000D02*
X116511500Y-99621000D01*
D48*
X144080000Y-102870000D02*
X144080000Y-100330000D01*
D51*
X134220000Y-126120000D02*
X134220000Y-119550000D01*
D49*
X92075000Y-85367500D02*
X89025000Y-85367500D01*
X73660000Y-118512500D02*
X72717500Y-118512500D01*
D50*
X109855000Y-117597500D02*
X109903500Y-117646000D01*
D48*
X122015000Y-116745000D02*
X122555000Y-116205000D01*
X142642500Y-64135000D02*
X144145000Y-64135000D01*
D50*
X116536500Y-104311000D02*
X117475000Y-103372500D01*
D51*
X172742165Y-113370000D02*
X172742165Y-120632835D01*
D49*
X65410000Y-120015000D02*
X65405000Y-120010000D01*
X88287500Y-86105000D02*
X88900000Y-85492500D01*
X86972500Y-113432500D02*
X86360000Y-114045000D01*
X89025000Y-85367500D02*
X88900000Y-85492500D01*
X86360000Y-86105000D02*
X86360000Y-89440000D01*
D50*
X113665000Y-108756000D02*
X116536500Y-108756000D01*
D48*
X160475000Y-83555000D02*
X163195000Y-80835000D01*
D49*
X92075000Y-89550108D02*
X92075000Y-85367500D01*
D48*
X122015000Y-103410000D02*
X122555000Y-102870000D01*
D51*
X109220000Y-126120000D02*
X134220000Y-126120000D01*
D48*
X144080000Y-100330000D02*
X149365000Y-100330000D01*
D50*
X116536500Y-108756000D02*
X117475000Y-107817500D01*
D49*
X96520000Y-100900000D02*
X96520000Y-98425000D01*
D51*
X179730791Y-104165791D02*
X180022500Y-104457500D01*
D48*
%TO.N,Net-(U3-Y1)*%
X120015000Y-114300000D02*
X122555000Y-114300000D01*
X120015000Y-114300000D02*
X114935000Y-114300000D01*
X130175000Y-106680000D02*
X138920000Y-106680000D01*
X122555000Y-114300000D02*
X130175000Y-106680000D01*
D49*
%TO.N,VDD*%
X76835000Y-102935000D02*
X73660000Y-106110000D01*
D51*
X178435000Y-110490000D02*
X178435000Y-107800791D01*
D49*
X76835000Y-90805000D02*
X75200000Y-89170000D01*
D48*
X131810000Y-91710000D02*
X132080000Y-91440000D01*
D49*
X99060000Y-78105000D02*
X93575000Y-72620000D01*
D48*
X143215000Y-85197500D02*
X143215000Y-86670000D01*
X139065000Y-74930000D02*
X138430000Y-75565000D01*
D49*
X76835000Y-95950000D02*
X76835000Y-102935000D01*
D48*
X140970000Y-75565000D02*
X140335000Y-74930000D01*
D49*
X93575000Y-72620000D02*
X93575000Y-63620000D01*
X146050000Y-77470000D02*
X149062500Y-77470000D01*
X140631000Y-110721000D02*
X165504000Y-110721000D01*
X76835000Y-95885000D02*
X76835000Y-90805000D01*
D48*
X140335000Y-74930000D02*
X139065000Y-74930000D01*
X141837500Y-83820000D02*
X141837500Y-79375000D01*
D51*
X178435000Y-107800791D02*
X177800000Y-107165791D01*
X69215000Y-85090000D02*
X69580000Y-85090000D01*
D49*
X75200000Y-89170000D02*
X73660000Y-89170000D01*
X76900000Y-95950000D02*
X76835000Y-95885000D01*
D48*
X155525000Y-92445000D02*
X162775000Y-99695000D01*
D49*
X165504000Y-110721000D02*
X167005000Y-109220000D01*
X73660000Y-106110000D02*
X73660000Y-107585000D01*
X139130000Y-109220000D02*
X140631000Y-110721000D01*
D48*
X162775000Y-99695000D02*
X167000000Y-99695000D01*
D51*
X178435000Y-116790000D02*
X178435000Y-119380000D01*
X178435000Y-116790000D02*
X178435000Y-110490000D01*
X69580000Y-85090000D02*
X73660000Y-89170000D01*
D48*
X141837500Y-79375000D02*
X144145000Y-79375000D01*
X128270000Y-91710000D02*
X131810000Y-91710000D01*
D49*
X92710000Y-95950000D02*
X76900000Y-95950000D01*
D48*
X141837500Y-83820000D02*
X143215000Y-85197500D01*
X138430000Y-75565000D02*
X138430000Y-76770000D01*
D49*
X99060000Y-91440000D02*
X99060000Y-78105000D01*
D48*
X144145000Y-79375000D02*
X146050000Y-77470000D01*
X140970000Y-78507500D02*
X140970000Y-75565000D01*
X141837500Y-79375000D02*
X140970000Y-78507500D01*
D50*
%TO.N,Net-(D4-K)*%
X109855000Y-116622500D02*
X112272500Y-116622500D01*
X112272500Y-116622500D02*
X112395000Y-116745000D01*
D48*
X112395000Y-116745000D02*
X114935000Y-116745000D01*
%TO.N,Net-(U3-Y2)*%
X114935000Y-118745000D02*
X120015000Y-118745000D01*
X120015000Y-118745000D02*
X122555000Y-118745000D01*
X133350000Y-107950000D02*
X138920000Y-107950000D01*
X122555000Y-118745000D02*
X133350000Y-107950000D01*
%TO.N,Net-(U3-Y3)*%
X120015000Y-105410000D02*
X122555000Y-105410000D01*
X122555000Y-105410000D02*
X123825000Y-104140000D01*
X123825000Y-104140000D02*
X138920000Y-104140000D01*
X120015000Y-105410000D02*
X114935000Y-105410000D01*
%TO.N,voltage*%
X138665000Y-94595000D02*
X132565000Y-100695000D01*
X114935000Y-100695000D02*
X120015000Y-100695000D01*
X132565000Y-100695000D02*
X120015000Y-100695000D01*
X138665000Y-93670000D02*
X138665000Y-94595000D01*
D49*
%TO.N,Net-(D13-K)*%
X95250000Y-100900000D02*
X95250000Y-100203637D01*
X88900000Y-108585000D02*
X89440000Y-108045000D01*
X86360000Y-108475000D02*
X88790000Y-108475000D01*
X88790000Y-108475000D02*
X88900000Y-108585000D01*
X95250000Y-100203637D02*
X93819363Y-98773000D01*
X86360000Y-110745000D02*
X86360000Y-108475000D01*
X89440000Y-108045000D02*
X89440000Y-103395000D01*
X88900000Y-111357500D02*
X88900000Y-108585000D01*
X92016536Y-98773000D02*
X89440000Y-101349536D01*
X93819363Y-98773000D02*
X92016536Y-98773000D01*
X89440000Y-101349536D02*
X89440000Y-103395000D01*
%TO.N,sensor2*%
X69215000Y-90170000D02*
X69215000Y-93980000D01*
X70485000Y-88900000D02*
X69215000Y-90170000D01*
D48*
X148590000Y-83185000D02*
X147320000Y-84455000D01*
D49*
X73660000Y-95865000D02*
X73660000Y-98657500D01*
D48*
X147320000Y-84455000D02*
X146050000Y-84455000D01*
D49*
X72390000Y-94615000D02*
X73640000Y-95865000D01*
X73640000Y-95865000D02*
X73660000Y-95865000D01*
X69850000Y-94615000D02*
X72390000Y-94615000D01*
X69215000Y-93980000D02*
X69850000Y-94615000D01*
D48*
X145165000Y-85340000D02*
X145165000Y-86670000D01*
X146050000Y-84455000D02*
X145165000Y-85340000D01*
D51*
%TO.N,+12V*%
X144175000Y-127447500D02*
X144145000Y-127477500D01*
X159131000Y-133985000D02*
X140970000Y-133985000D01*
X150495000Y-126365000D02*
X152400000Y-126365000D01*
X153670000Y-127635000D02*
X153670000Y-133985000D01*
X144175000Y-124460000D02*
X144175000Y-127447500D01*
X148590000Y-124460000D02*
X150495000Y-126365000D01*
D48*
X103500000Y-104145000D02*
X106950000Y-100695000D01*
D51*
X140970000Y-133985000D02*
X136525000Y-129540000D01*
D48*
X106950000Y-100695000D02*
X112395000Y-100695000D01*
D51*
X144175000Y-122145000D02*
X144175000Y-124460000D01*
X152400000Y-126365000D02*
X153670000Y-127635000D01*
X136525000Y-129540000D02*
X108585000Y-129540000D01*
X163830000Y-121920000D02*
X161544000Y-121920000D01*
D49*
X103500000Y-117745000D02*
X103500000Y-110125000D01*
D51*
X108585000Y-129540000D02*
X103500000Y-124455000D01*
X161544000Y-131572000D02*
X159131000Y-133985000D01*
D48*
X103500000Y-110125000D02*
X103500000Y-104145000D01*
D51*
X103500000Y-124455000D02*
X103500000Y-117745000D01*
X144175000Y-124460000D02*
X148590000Y-124460000D01*
X161544000Y-121920000D02*
X161544000Y-131572000D01*
D49*
%TO.N,+5V*%
X95075000Y-71755000D02*
X95075000Y-63620000D01*
X139700000Y-135255000D02*
X159893000Y-135255000D01*
X100330000Y-92710000D02*
X100330000Y-77010000D01*
D51*
X144175000Y-117045000D02*
X150895000Y-117045000D01*
D49*
X82550000Y-80010000D02*
X81915000Y-79375000D01*
D51*
X172742165Y-110490000D02*
X176135000Y-110490000D01*
D49*
X107950000Y-131445000D02*
X135890000Y-131445000D01*
X99060000Y-122555000D02*
X107950000Y-131445000D01*
D51*
X170180000Y-110490000D02*
X166400000Y-114270000D01*
D49*
X181610000Y-74295000D02*
X181610000Y-81915000D01*
X83185000Y-80010000D02*
X82550000Y-80010000D01*
X166243000Y-128905000D02*
X166243000Y-114427000D01*
D51*
X166400000Y-114270000D02*
X153670000Y-114270000D01*
D49*
X174961000Y-80264000D02*
X176740000Y-78485000D01*
X135890000Y-131445000D02*
X139700000Y-135255000D01*
X81915000Y-79375000D02*
X81915000Y-78171000D01*
X99060000Y-93980000D02*
X100330000Y-92710000D01*
X181610000Y-81915000D02*
X181610000Y-95250000D01*
D51*
X181610000Y-97472500D02*
X181610000Y-95250000D01*
D49*
X166243000Y-114427000D02*
X166400000Y-114270000D01*
D51*
X175895000Y-103187500D02*
X181610000Y-97472500D01*
D49*
X165502500Y-71755000D02*
X166772500Y-70485000D01*
D51*
X150895000Y-117045000D02*
X153670000Y-114270000D01*
D49*
X173228000Y-70485000D02*
X173757500Y-70485000D01*
X83936000Y-86179000D02*
X83936000Y-80761000D01*
X99060000Y-119380000D02*
X99060000Y-93980000D01*
X83185000Y-118110000D02*
X84455000Y-119380000D01*
X81280000Y-77536000D02*
X74229000Y-77536000D01*
D51*
X175895000Y-110250000D02*
X176135000Y-110490000D01*
D49*
X83185000Y-86930000D02*
X83936000Y-86179000D01*
X176740000Y-78485000D02*
X181610000Y-78485000D01*
X83185000Y-114870000D02*
X83185000Y-118110000D01*
X168994000Y-80264000D02*
X174961000Y-80264000D01*
X175027500Y-71755000D02*
X179070000Y-71755000D01*
X74229000Y-77536000D02*
X69215000Y-82550000D01*
X166772500Y-70485000D02*
X173228000Y-70485000D01*
X83936000Y-80761000D02*
X83185000Y-80010000D01*
X100330000Y-77010000D02*
X95075000Y-71755000D01*
D51*
X175895000Y-104165791D02*
X175895000Y-110250000D01*
D49*
X167215000Y-78485000D02*
X168994000Y-80264000D01*
D51*
X172742165Y-110490000D02*
X170180000Y-110490000D01*
D49*
X159893000Y-135255000D02*
X166243000Y-128905000D01*
X179070000Y-71755000D02*
X181610000Y-74295000D01*
X84455000Y-119380000D02*
X99060000Y-119380000D01*
X173228000Y-70485000D02*
X173228000Y-67056000D01*
X173757500Y-70485000D02*
X175027500Y-71755000D01*
D51*
X175895000Y-104165791D02*
X175895000Y-103187500D01*
D49*
X81915000Y-78171000D02*
X81280000Y-77536000D01*
X99060000Y-119380000D02*
X99060000Y-122555000D01*
D48*
%TO.N,sensor1*%
X72890486Y-108585000D02*
X74295000Y-108585000D01*
X72390000Y-108084514D02*
X72890486Y-108585000D01*
X72390000Y-106045000D02*
X72390000Y-108084514D01*
X75565000Y-102870000D02*
X72390000Y-106045000D01*
X74930000Y-90170000D02*
X75565000Y-90805000D01*
D49*
X73660000Y-116437500D02*
X73660000Y-114280000D01*
D48*
X144515000Y-84851514D02*
X144515000Y-86670000D01*
X74295000Y-108585000D02*
X74930000Y-109220000D01*
X71755000Y-89535000D02*
X72390000Y-90170000D01*
X74930000Y-109220000D02*
X74930000Y-113010000D01*
X74930000Y-113010000D02*
X73660000Y-114280000D01*
X72390000Y-90170000D02*
X74930000Y-90170000D01*
X75565000Y-90805000D02*
X75565000Y-102870000D01*
X146050000Y-83316514D02*
X144515000Y-84851514D01*
D49*
%TO.N,Net-(D16-DIN)*%
X161715000Y-78485000D02*
X158727500Y-78485000D01*
X155575000Y-77835000D02*
X158077500Y-77835000D01*
X158727500Y-78485000D02*
X158115000Y-77872500D01*
X158077500Y-77835000D02*
X158115000Y-77872500D01*
D50*
%TO.N,Net-(D2-K)*%
X112272500Y-112177500D02*
X112395000Y-112300000D01*
X109855000Y-112177500D02*
X112272500Y-112177500D01*
D48*
X114935000Y-112300000D02*
X112395000Y-112300000D01*
D49*
%TO.N,Net-(D11-A)*%
X176530000Y-90805000D02*
X179070000Y-90805000D01*
%TO.N,Net-(J12-Pin_1)*%
X138430000Y-71820000D02*
X138430000Y-69580000D01*
X141070000Y-67945000D02*
X140567500Y-67442500D01*
X139065000Y-68945000D02*
X140567500Y-67442500D01*
X139070000Y-59060000D02*
X140567500Y-60557500D01*
X140567500Y-60557500D02*
X140567500Y-64135000D01*
X139070000Y-59055000D02*
X139070000Y-59060000D01*
X140567500Y-67442500D02*
X140567500Y-64135000D01*
X138430000Y-69580000D02*
X139065000Y-68945000D01*
X142510000Y-67945000D02*
X141070000Y-67945000D01*
%TO.N,Net-(J11-Pin_1)*%
X136530000Y-59055000D02*
X135022500Y-60562500D01*
D48*
X150495000Y-70485000D02*
X143416160Y-70485000D01*
D49*
X135022500Y-64135000D02*
X135022500Y-67442500D01*
D48*
X143416160Y-70485000D02*
X140241160Y-73660000D01*
D49*
X137160000Y-69580000D02*
X136525000Y-68945000D01*
X135022500Y-67442500D02*
X136525000Y-68945000D01*
D48*
X137160000Y-72858132D02*
X137160000Y-71820000D01*
D49*
X137160000Y-71820000D02*
X137160000Y-69580000D01*
D48*
X137961868Y-73660000D02*
X137160000Y-72858132D01*
D49*
X135022500Y-60562500D02*
X135022500Y-64135000D01*
D48*
X153035000Y-67945000D02*
X150495000Y-70485000D01*
X140241160Y-73660000D02*
X137961868Y-73660000D01*
%TO.N,Net-(U7-Vref)*%
X139700000Y-72794999D02*
X139373999Y-73121000D01*
D49*
X137795000Y-66945000D02*
X137795000Y-64537500D01*
D48*
X139700000Y-71820000D02*
X139700000Y-72794999D01*
X137795000Y-72855322D02*
X137795000Y-66945000D01*
D49*
X136525000Y-66945000D02*
X137795000Y-66945000D01*
D48*
X138060678Y-73121000D02*
X137795000Y-72855322D01*
D49*
X137795000Y-66945000D02*
X139065000Y-66945000D01*
D48*
X139373999Y-73121000D02*
X138060678Y-73121000D01*
D49*
%TO.N,Net-(D3-A)*%
X81915000Y-89900000D02*
X81645000Y-90170000D01*
X81915000Y-86930000D02*
X81915000Y-81980000D01*
X80645000Y-81980000D02*
X80645000Y-78760000D01*
X81915000Y-86930000D02*
X80645000Y-86930000D01*
X81915000Y-86930000D02*
X81915000Y-89900000D01*
X80645000Y-78760000D02*
X80665000Y-78740000D01*
X81915000Y-81980000D02*
X80645000Y-81980000D01*
D48*
%TO.N,Net-(D6-K)*%
X114935000Y-103410000D02*
X112395000Y-103410000D01*
D50*
X109855000Y-103287500D02*
X112272500Y-103287500D01*
X112272500Y-103287500D02*
X112395000Y-103410000D01*
D49*
%TO.N,Net-(D8-A)*%
X81915000Y-109920000D02*
X81915000Y-114870000D01*
X80645000Y-109920000D02*
X80645000Y-106700000D01*
X81915000Y-117840000D02*
X81645000Y-118110000D01*
X80645000Y-109920000D02*
X81915000Y-109920000D01*
X81915000Y-114870000D02*
X81915000Y-117840000D01*
X80645000Y-106700000D02*
X80665000Y-106680000D01*
X81915000Y-114870000D02*
X80645000Y-114870000D01*
D48*
%TO.N,Net-(J1-Pin_1)*%
X128270000Y-93710000D02*
X131810000Y-93710000D01*
X138015000Y-93670000D02*
X137705000Y-93980000D01*
X137705000Y-93980000D02*
X132080000Y-93980000D01*
X131810000Y-93710000D02*
X132080000Y-93980000D01*
%TO.N,Net-(J1-Pin_4)*%
X132080000Y-86360000D02*
X137705000Y-86360000D01*
X137705000Y-86360000D02*
X138015000Y-86670000D01*
%TO.N,Net-(J1-Pin_5)*%
X132080000Y-83820000D02*
X137267500Y-83820000D01*
X137267500Y-83820000D02*
X138665000Y-85217500D01*
X138665000Y-85217500D02*
X138665000Y-86670000D01*
D49*
%TO.N,Net-(J2-Pin_1)*%
X73865000Y-67620000D02*
X73865000Y-67515000D01*
X78365000Y-66430000D02*
X75055000Y-66430000D01*
X78365000Y-66430000D02*
X81365000Y-66430000D01*
X71755000Y-65405000D02*
X69215000Y-65405000D01*
X73865000Y-67515000D02*
X71755000Y-65405000D01*
X73865000Y-70160000D02*
X73865000Y-67620000D01*
X75055000Y-66430000D02*
X73865000Y-67620000D01*
%TO.N,Net-(D14-A2)*%
X79280000Y-103395000D02*
X77470000Y-105205000D01*
D51*
X83430000Y-136280000D02*
X76800000Y-136280000D01*
X91440000Y-128270000D02*
X83430000Y-136280000D01*
D49*
X84455000Y-106680000D02*
X86155000Y-106680000D01*
D51*
X76800000Y-131156000D02*
X72903000Y-127259000D01*
D49*
X82565000Y-106680000D02*
X83165000Y-106680000D01*
X77470000Y-105205000D02*
X77470000Y-121920000D01*
D51*
X91440000Y-123825000D02*
X91440000Y-128270000D01*
D49*
X86155000Y-106680000D02*
X86360000Y-106475000D01*
D51*
X76800000Y-136280000D02*
X76550000Y-136280000D01*
D49*
X81645000Y-120650000D02*
X81645000Y-122555000D01*
X79280000Y-103395000D02*
X82565000Y-106680000D01*
X85185000Y-122555000D02*
X86360000Y-121380000D01*
D51*
X86360000Y-121380000D02*
X88995000Y-121380000D01*
X88995000Y-121380000D02*
X91440000Y-123825000D01*
D49*
X78105000Y-122555000D02*
X85185000Y-122555000D01*
D51*
X76800000Y-136280000D02*
X76800000Y-131156000D01*
D49*
X83165000Y-106680000D02*
X84455000Y-106680000D01*
X77470000Y-121920000D02*
X78105000Y-122555000D01*
D51*
X72903000Y-127259000D02*
X71720000Y-127259000D01*
D50*
%TO.N,Net-(D1-K)*%
X112272500Y-107732500D02*
X112395000Y-107855000D01*
D48*
X114935000Y-107855000D02*
X112395000Y-107855000D01*
D50*
X109855000Y-107732500D02*
X112272500Y-107732500D01*
D49*
%TO.N,Net-(D9-A)*%
X176530000Y-81915000D02*
X179070000Y-81915000D01*
%TO.N,Net-(D3-K)*%
X84637000Y-76835000D02*
X85816000Y-76835000D01*
X83185000Y-76835000D02*
X84637000Y-76835000D01*
X86360000Y-77379000D02*
X86360000Y-78375000D01*
X83165000Y-76855000D02*
X83185000Y-76835000D01*
X84637000Y-92710000D02*
X84637000Y-76835000D01*
X84455000Y-92710000D02*
X85630000Y-92710000D01*
X83165000Y-78740000D02*
X83165000Y-76855000D01*
D51*
X65532000Y-68575000D02*
X67305000Y-68575000D01*
X69215000Y-70485000D02*
X69215000Y-75565000D01*
D49*
X81645000Y-92710000D02*
X84455000Y-92710000D01*
X85630000Y-92710000D02*
X86360000Y-93440000D01*
D51*
X67305000Y-68575000D02*
X69215000Y-70485000D01*
D49*
X70485000Y-76835000D02*
X83185000Y-76835000D01*
X85816000Y-76835000D02*
X86360000Y-77379000D01*
X69215000Y-75565000D02*
X70485000Y-76835000D01*
%TO.N,Net-(D5-K)*%
X89265000Y-77470000D02*
X86360000Y-80375000D01*
X86360000Y-82805000D02*
X88287500Y-82805000D01*
X88287500Y-82805000D02*
X88900000Y-83417500D01*
X97856000Y-78806000D02*
X96520000Y-77470000D01*
X96520000Y-77470000D02*
X89265000Y-77470000D01*
X86360000Y-80375000D02*
X86360000Y-82805000D01*
X96520000Y-95950000D02*
X97856000Y-94614000D01*
X97856000Y-94614000D02*
X97856000Y-78806000D01*
D48*
%TO.N,water_tank*%
X125730000Y-90170000D02*
X139700000Y-90170000D01*
D49*
X93980000Y-91455108D02*
X93980000Y-95950000D01*
X95885000Y-85470108D02*
X95885000Y-89550108D01*
D48*
X139700000Y-90170000D02*
X141265000Y-91735000D01*
X141265000Y-91735000D02*
X141265000Y-93670000D01*
D49*
X95885000Y-89550108D02*
X93980000Y-91455108D01*
%TO.N,Net-(D10-A)*%
X176530000Y-86360000D02*
X179070000Y-86360000D01*
%TO.N,Net-(D12-A)*%
X176530000Y-95250000D02*
X179070000Y-95250000D01*
%TO.N,Net-(D15-DIN)*%
X170515000Y-78485000D02*
X171240000Y-78485000D01*
X167215000Y-75185000D02*
X170515000Y-78485000D01*
D48*
%TO.N,fuel_tank*%
X141915000Y-98115000D02*
X141915000Y-93670000D01*
X140970000Y-99060000D02*
X141915000Y-98115000D01*
D49*
X95885000Y-117475000D02*
X95885000Y-113395000D01*
X97155000Y-106319999D02*
X97155000Y-112125000D01*
X97155000Y-112125000D02*
X95885000Y-113395000D01*
X92710000Y-100900000D02*
X92710000Y-101874999D01*
X92710000Y-101874999D02*
X97155000Y-106319999D01*
D48*
%TO.N,Net-(D17-K)*%
X112395000Y-98695000D02*
X114935000Y-98695000D01*
X109855000Y-98572500D02*
X112272500Y-98572500D01*
X112272500Y-98572500D02*
X112395000Y-98695000D01*
%TO.N,Net-(U3-C)*%
X139130000Y-97725000D02*
X140615000Y-96240000D01*
X139130000Y-100330000D02*
X139130000Y-97725000D01*
X140615000Y-96240000D02*
X140615000Y-93670000D01*
%TO.N,Net-(U3-B)*%
X137160000Y-100604999D02*
X138155001Y-101600000D01*
X138155001Y-101600000D02*
X139130000Y-101600000D01*
X137160000Y-98425000D02*
X137160000Y-100604999D01*
X139965000Y-95620000D02*
X137160000Y-98425000D01*
X139965000Y-93670000D02*
X139965000Y-95620000D01*
%TO.N,Net-(U3-A)*%
X138155001Y-102870000D02*
X139130000Y-102870000D01*
X136525000Y-97790000D02*
X136525000Y-101239999D01*
X136525000Y-101239999D02*
X138155001Y-102870000D01*
X139315000Y-93670000D02*
X139315000Y-95000000D01*
X139315000Y-95000000D02*
X136525000Y-97790000D01*
%TO.N,Net-(U3-COM)*%
X143632678Y-106825000D02*
X144015000Y-106825000D01*
X142714000Y-105906322D02*
X143632678Y-106825000D01*
X143865000Y-94593364D02*
X142714000Y-95744364D01*
X143865000Y-93670000D02*
X143865000Y-94593364D01*
X142714000Y-95744364D02*
X142714000Y-105906322D01*
D49*
%TO.N,Net-(D18-A)*%
X73660000Y-93365000D02*
X73660000Y-91170000D01*
X70485000Y-93365000D02*
X73660000Y-93365000D01*
%TO.N,Net-(D18-K)*%
X70485000Y-98965000D02*
X70485000Y-95865000D01*
X70485000Y-98965000D02*
X66255000Y-98965000D01*
X66255000Y-98965000D02*
X65530000Y-99690000D01*
D51*
%TO.N,Net-(D21-K)*%
X157070000Y-126620000D02*
X153670000Y-123220000D01*
X157070000Y-129540000D02*
X157070000Y-126620000D01*
X150895000Y-120445000D02*
X153670000Y-123220000D01*
X144175000Y-120445000D02*
X150895000Y-120445000D01*
D49*
%TO.N,Net-(D22-K)*%
X67310000Y-117475000D02*
X65410000Y-117475000D01*
X68040000Y-116745000D02*
X67310000Y-117475000D01*
X70485000Y-116745000D02*
X70485000Y-114280000D01*
X65410000Y-117475000D02*
X65405000Y-117470000D01*
X70485000Y-116745000D02*
X68040000Y-116745000D01*
D48*
%TO.N,Net-(U4-CCP1{slash}RC2)*%
X154305000Y-77105000D02*
X154305000Y-80010000D01*
X156533322Y-90549000D02*
X153927405Y-90549000D01*
X154305000Y-80010000D02*
X157480000Y-83185000D01*
X153036405Y-91440000D02*
X147120000Y-91440000D01*
X145815000Y-92745000D02*
X145815000Y-93670000D01*
X157480000Y-83185000D02*
X157480000Y-89602322D01*
X155575000Y-75835000D02*
X154305000Y-77105000D01*
X153927405Y-90549000D02*
X153036405Y-91440000D01*
X157480000Y-89602322D02*
X156533322Y-90549000D01*
X147120000Y-91440000D02*
X145815000Y-92745000D01*
D49*
%TO.N,Net-(D22-A)*%
X73660000Y-111780000D02*
X70485000Y-111780000D01*
X73660000Y-109585000D02*
X73660000Y-111780000D01*
D48*
%TO.N,Net-(J4-Pin_8)*%
X107040000Y-118745000D02*
X112395000Y-118745000D01*
X106040000Y-117745000D02*
X107040000Y-118745000D01*
%TO.N,Net-(J4-Pin_6)*%
X106945000Y-114300000D02*
X112395000Y-114300000D01*
X106040000Y-115205000D02*
X106945000Y-114300000D01*
%TO.N,Net-(J4-Pin_4)*%
X108850000Y-109855000D02*
X112395000Y-109855000D01*
X106040000Y-112665000D02*
X108850000Y-109855000D01*
%TO.N,Net-(J4-Pin_2)*%
X110755000Y-105410000D02*
X112395000Y-105410000D01*
X106040000Y-110125000D02*
X110755000Y-105410000D01*
%TO.N,Net-(J5-Pin_2)*%
X146050000Y-104140000D02*
X147955000Y-102235000D01*
X144080000Y-104140000D02*
X146050000Y-104140000D01*
X151270000Y-102235000D02*
X152540000Y-100965000D01*
X147955000Y-102235000D02*
X151270000Y-102235000D01*
X152540000Y-100965000D02*
X153810000Y-99695000D01*
X153810000Y-99695000D02*
X156840000Y-99695000D01*
%TO.N,Net-(J5-Pin_6)*%
X151270000Y-107315000D02*
X152540000Y-106045000D01*
X152540000Y-106045000D02*
X156845000Y-106045000D01*
X144080000Y-107950000D02*
X146685000Y-107950000D01*
X147320000Y-107315000D02*
X151270000Y-107315000D01*
X146685000Y-107950000D02*
X147320000Y-107315000D01*
%TO.N,Net-(J5-Pin_4)*%
X152540000Y-103505000D02*
X153035000Y-103505000D01*
X153670000Y-102870000D02*
X156840000Y-102870000D01*
X146685000Y-105410000D02*
X147414000Y-104681000D01*
X147414000Y-104681000D02*
X151364000Y-104681000D01*
X144080000Y-105410000D02*
X146685000Y-105410000D01*
X153035000Y-103505000D02*
X153670000Y-102870000D01*
X151364000Y-104681000D02*
X152540000Y-103505000D01*
%TO.N,Net-(U4-RB1)*%
X141915000Y-88245000D02*
X143021000Y-89351000D01*
X143021000Y-89351000D02*
X150680405Y-89351000D01*
X141915000Y-86670000D02*
X141915000Y-88245000D01*
X150680405Y-89351000D02*
X153936405Y-86095000D01*
X153936405Y-86095000D02*
X155525000Y-86095000D01*
%TO.N,Net-(U4-RB2)*%
X142767500Y-89905000D02*
X151395000Y-89905000D01*
X153935000Y-87365000D02*
X155525000Y-87365000D01*
X151395000Y-89905000D02*
X153935000Y-87365000D01*
X141265000Y-88402500D02*
X142767500Y-89905000D01*
X141265000Y-86670000D02*
X141265000Y-88402500D01*
%TO.N,Net-(U4-RB0)*%
X143365000Y-88900000D02*
X149860000Y-88900000D01*
X149860000Y-88900000D02*
X153935000Y-84825000D01*
X142565000Y-86670000D02*
X142565000Y-88100000D01*
X153935000Y-84825000D02*
X155525000Y-84825000D01*
X142565000Y-88100000D02*
X143365000Y-88900000D01*
%TO.N,Net-(J5-Pin_8)*%
X146685000Y-109220000D02*
X147320000Y-109855000D01*
X147320000Y-109855000D02*
X151270000Y-109855000D01*
X156210000Y-108585000D02*
X156845000Y-109220000D01*
X151270000Y-109855000D02*
X152540000Y-108585000D01*
X144080000Y-109220000D02*
X146685000Y-109220000D01*
X152540000Y-108585000D02*
X156210000Y-108585000D01*
D51*
%TO.N,Net-(J6-Pin_1)*%
X86220000Y-126120000D02*
X81915000Y-126120000D01*
X81720000Y-131160000D02*
X81720000Y-128620000D01*
X81720000Y-126315000D02*
X81915000Y-126120000D01*
X89220000Y-126120000D02*
X86220000Y-126120000D01*
X81915000Y-126120000D02*
X76800000Y-126120000D01*
X81720000Y-128620000D02*
X81720000Y-126315000D01*
D49*
%TO.N,Net-(J8-Pin_3)*%
X92075000Y-66040000D02*
X92075000Y-63620000D01*
D48*
X151765000Y-92710000D02*
X147425000Y-92710000D01*
X147425000Y-92710000D02*
X146465000Y-93670000D01*
D49*
X88900000Y-69215000D02*
X92075000Y-66040000D01*
D48*
%TO.N,Net-(J8-Pin_4)*%
X146465000Y-86670000D02*
X147410000Y-85725000D01*
X147410000Y-85725000D02*
X149860000Y-85725000D01*
D49*
X90575000Y-65635000D02*
X90575000Y-63620000D01*
X85725000Y-70485000D02*
X90575000Y-65635000D01*
%TO.N,Net-(J11-Pin_2)*%
X144510000Y-67945000D02*
X150495000Y-67945000D01*
%TO.N,Net-(J14-Pin_2)*%
X143510000Y-77470000D02*
X143510000Y-72390000D01*
X135890000Y-72794999D02*
X137390001Y-74295000D01*
X142875000Y-74295000D02*
X143510000Y-74930000D01*
X135890000Y-71820000D02*
X135890000Y-72794999D01*
X137390001Y-74295000D02*
X142875000Y-74295000D01*
%TO.N,Net-(R8-Pad1)*%
X79375000Y-86930000D02*
X79375000Y-89900000D01*
X79645000Y-90170000D02*
X79645000Y-92710000D01*
X79375000Y-89900000D02*
X79645000Y-90170000D01*
%TO.N,Net-(U2B--)*%
X97155000Y-92347900D02*
X97155000Y-84740108D01*
X92075000Y-83542500D02*
X92075000Y-79390108D01*
X92075000Y-79390108D02*
X95885000Y-79390108D01*
X95885000Y-79390108D02*
X95885000Y-83470108D01*
X95250000Y-95950000D02*
X95250000Y-94252900D01*
X95250000Y-94252900D02*
X97155000Y-92347900D01*
X97155000Y-84740108D02*
X95885000Y-83470108D01*
%TO.N,Net-(R25-Pad1)*%
X79375000Y-117840000D02*
X79645000Y-118110000D01*
X79645000Y-120650000D02*
X79645000Y-118110000D01*
X79375000Y-114870000D02*
X79375000Y-117840000D01*
D48*
%TO.N,Net-(U5-Q_{A})*%
X161290000Y-95250000D02*
X157215000Y-91175000D01*
X157215000Y-91175000D02*
X155525000Y-91175000D01*
X166370000Y-95250000D02*
X161290000Y-95250000D01*
%TO.N,Net-(U5-Q_{H})*%
X160475000Y-84825000D02*
X163460000Y-84825000D01*
X163460000Y-84825000D02*
X166370000Y-81915000D01*
%TO.N,Net-(U5-Q_{C})*%
X161555000Y-91175000D02*
X166370000Y-86360000D01*
X160475000Y-91175000D02*
X161555000Y-91175000D01*
%TO.N,Net-(U5-Q_{B})*%
X160475000Y-92445000D02*
X164730000Y-92445000D01*
X164730000Y-92445000D02*
X166370000Y-90805000D01*
D49*
%TO.N,Net-(J14-Pin_3)*%
X146050000Y-74930000D02*
X149100000Y-74930000D01*
%TO.N,Net-(U2A--)*%
X92075000Y-107315000D02*
X93980000Y-107315000D01*
X92306900Y-99474000D02*
X91959000Y-99821900D01*
X92075000Y-107315000D02*
X92075000Y-111482500D01*
X93980000Y-100900000D02*
X93980000Y-99925001D01*
X93528999Y-99474000D02*
X92306900Y-99474000D01*
X91959000Y-99821900D02*
X91959000Y-107199000D01*
X95885000Y-107315000D02*
X95885000Y-111395000D01*
X93980000Y-99925001D02*
X93528999Y-99474000D01*
X93980000Y-107315000D02*
X95885000Y-107315000D01*
X91959000Y-107199000D02*
X92075000Y-107315000D01*
X95797500Y-111482500D02*
X95885000Y-111395000D01*
D48*
%TO.N,can_tx*%
X139965000Y-86670000D02*
X139965000Y-84720000D01*
X123255000Y-76770000D02*
X117475000Y-82550000D01*
X122555000Y-84455000D02*
X119380000Y-84455000D01*
X139965000Y-84720000D02*
X137795000Y-82550000D01*
X135890000Y-76770000D02*
X123255000Y-76770000D01*
X124460000Y-82550000D02*
X122555000Y-84455000D01*
X137795000Y-82550000D02*
X124460000Y-82550000D01*
X119380000Y-84455000D02*
X117475000Y-82550000D01*
%TO.N,can_rx*%
X120015000Y-82550000D02*
X122555000Y-82550000D01*
X139700000Y-79375000D02*
X140615000Y-80290000D01*
X139700000Y-76770000D02*
X139700000Y-79375000D01*
X122555000Y-82550000D02*
X125730000Y-79375000D01*
X140615000Y-80290000D02*
X140615000Y-86670000D01*
X125730000Y-79375000D02*
X139700000Y-79375000D01*
%TO.N,Net-(U4-RB5)*%
X142526636Y-90805000D02*
X139315000Y-87593364D01*
X153300000Y-89905000D02*
X152400000Y-90805000D01*
X139315000Y-87593364D02*
X139315000Y-86670000D01*
X155525000Y-89905000D02*
X153300000Y-89905000D01*
X152400000Y-90805000D02*
X142526636Y-90805000D01*
%TD*%
M02*
