%TF.GenerationSoftware,KiCad,Pcbnew,9.0.7*%
%TF.CreationDate,2026-03-02T19:26:43+01:00*%
%TF.ProjectId,board0,626f6172-6430-42e6-9b69-6361645f7063,1*%
%TF.SameCoordinates,Original*%
%TF.FileFunction,Soldermask,Top*%
%TF.FilePolarity,Negative*%
%FSLAX46Y46*%
G04 Gerber Fmt 4.6, Leading zero omitted, Abs format (unit mm)*
G04 Created by KiCad (PCBNEW 9.0.7) date 2026-03-02 19:26:43*
%MOMM*%
%LPD*%
G01*
G04 APERTURE LIST*
G04 Aperture macros list*
%AMRoundRect*
0 Rectangle with rounded corners*
0 $1 Rounding radius*
0 $2 $3 $4 $5 $6 $7 $8 $9 X,Y pos of 4 corners*
0 Add a 4 corners polygon primitive as box body*
4,1,4,$2,$3,$4,$5,$6,$7,$8,$9,$2,$3,0*
0 Add four circle primitives for the rounded corners*
1,1,$1+$1,$2,$3*
1,1,$1+$1,$4,$5*
1,1,$1+$1,$6,$7*
1,1,$1+$1,$8,$9*
0 Add four rect primitives between the rounded corners*
20,1,$1+$1,$2,$3,$4,$5,0*
20,1,$1+$1,$4,$5,$6,$7,0*
20,1,$1+$1,$6,$7,$8,$9,0*
20,1,$1+$1,$8,$9,$2,$3,0*%
G04 Aperture macros list end*
%ADD10C,1.000000*%
%ADD11RoundRect,0.250000X0.250000X0.250000X-0.250000X0.250000X-0.250000X-0.250000X0.250000X-0.250000X0*%
%ADD12C,7.000000*%
%ADD13C,1.600000*%
%ADD14RoundRect,0.100000X0.100000X-0.112500X0.100000X0.112500X-0.100000X0.112500X-0.100000X-0.112500X0*%
%ADD15RoundRect,0.250000X0.250000X0.500000X-0.250000X0.500000X-0.250000X-0.500000X0.250000X-0.500000X0*%
%ADD16RoundRect,0.354000X0.531000X0.771000X-0.531000X0.771000X-0.531000X-0.771000X0.531000X-0.771000X0*%
%ADD17RoundRect,0.250000X-0.450000X0.350000X-0.450000X-0.350000X0.450000X-0.350000X0.450000X0.350000X0*%
%ADD18RoundRect,0.250000X-0.650000X1.000000X-0.650000X-1.000000X0.650000X-1.000000X0.650000X1.000000X0*%
%ADD19R,1.700000X1.700000*%
%ADD20C,1.700000*%
%ADD21RoundRect,0.225000X-0.375000X0.225000X-0.375000X-0.225000X0.375000X-0.225000X0.375000X0.225000X0*%
%ADD22RoundRect,0.250000X-0.337500X-0.475000X0.337500X-0.475000X0.337500X0.475000X-0.337500X0.475000X0*%
%ADD23R,1.800000X1.800000*%
%ADD24C,2.000000*%
%ADD25RoundRect,0.250000X2.050000X0.300000X-2.050000X0.300000X-2.050000X-0.300000X2.050000X-0.300000X0*%
%ADD26RoundRect,0.250002X4.449998X5.149998X-4.449998X5.149998X-4.449998X-5.149998X4.449998X-5.149998X0*%
%ADD27RoundRect,0.150000X0.825000X0.150000X-0.825000X0.150000X-0.825000X-0.150000X0.825000X-0.150000X0*%
%ADD28RoundRect,0.250000X0.337500X0.475000X-0.337500X0.475000X-0.337500X-0.475000X0.337500X-0.475000X0*%
%ADD29RoundRect,0.250000X-0.350000X-0.450000X0.350000X-0.450000X0.350000X0.450000X-0.350000X0.450000X0*%
%ADD30RoundRect,0.250000X0.250000X-0.250000X0.250000X0.250000X-0.250000X0.250000X-0.250000X-0.250000X0*%
%ADD31RoundRect,0.250000X0.450000X-0.350000X0.450000X0.350000X-0.450000X0.350000X-0.450000X-0.350000X0*%
%ADD32RoundRect,0.250000X-0.475000X0.337500X-0.475000X-0.337500X0.475000X-0.337500X0.475000X0.337500X0*%
%ADD33RoundRect,0.100000X-0.950000X-0.400000X0.950000X-0.400000X0.950000X0.400000X-0.950000X0.400000X0*%
%ADD34C,1.800000*%
%ADD35RoundRect,0.250000X-0.445000X0.545000X-0.445000X-0.545000X0.445000X-0.545000X0.445000X0.545000X0*%
%ADD36RoundRect,0.237500X-0.237500X0.250000X-0.237500X-0.250000X0.237500X-0.250000X0.237500X0.250000X0*%
%ADD37RoundRect,0.150000X0.150000X-0.825000X0.150000X0.825000X-0.150000X0.825000X-0.150000X-0.825000X0*%
%ADD38R,3.500000X3.550000*%
%ADD39RoundRect,0.250000X0.650000X-1.000000X0.650000X1.000000X-0.650000X1.000000X-0.650000X-1.000000X0*%
%ADD40RoundRect,0.250000X0.475000X-0.337500X0.475000X0.337500X-0.475000X0.337500X-0.475000X-0.337500X0*%
%ADD41RoundRect,0.250000X-1.000000X1.400000X-1.000000X-1.400000X1.000000X-1.400000X1.000000X1.400000X0*%
%ADD42RoundRect,0.067500X-0.157500X-0.857500X0.157500X-0.857500X0.157500X0.857500X-0.157500X0.857500X0*%
%ADD43RoundRect,0.250000X-0.550000X1.137500X-0.550000X-1.137500X0.550000X-1.137500X0.550000X1.137500X0*%
%ADD44RoundRect,0.375000X-0.375000X0.625000X-0.375000X-0.625000X0.375000X-0.625000X0.375000X0.625000X0*%
%ADD45RoundRect,0.500000X-1.400000X0.500000X-1.400000X-0.500000X1.400000X-0.500000X1.400000X0.500000X0*%
%ADD46RoundRect,0.250000X-0.545000X-0.445000X0.545000X-0.445000X0.545000X0.445000X-0.545000X0.445000X0*%
G04 APERTURE END LIST*
D10*
%TO.C,REF\u002A\u002A*%
X63936000Y-65880000D03*
%TD*%
%TO.C,REF\u002A\u002A*%
X63936000Y-128380000D03*
%TD*%
%TO.C,REF\u002A\u002A*%
X183936000Y-65880000D03*
%TD*%
%TO.C,REF\u002A\u002A*%
X183936000Y-128380000D03*
%TD*%
D11*
%TO.C,D8*%
X83165000Y-106680000D03*
X80665000Y-106680000D03*
%TD*%
D10*
%TO.C,H3*%
X178886000Y-133380000D03*
X179632878Y-131576878D03*
X179632878Y-135183122D03*
X181436000Y-130830000D03*
D12*
X181436000Y-133380000D03*
D10*
X181436000Y-135930000D03*
X183239122Y-131576878D03*
X183239122Y-135183122D03*
X183986000Y-133380000D03*
%TD*%
D13*
%TO.C,R33*%
X76800000Y-126120000D03*
X76800000Y-136280000D03*
%TD*%
D14*
%TO.C,D2*%
X109855000Y-112177500D03*
X109855000Y-113152500D03*
%TD*%
D15*
%TO.C,J8*%
X95075000Y-63620000D03*
X93575000Y-63620000D03*
X92075000Y-63620000D03*
X90575000Y-63620000D03*
X89075000Y-63620000D03*
D16*
X97940000Y-57950000D03*
X86210000Y-57950000D03*
%TD*%
D14*
%TO.C,D17*%
X109855000Y-98572500D03*
X109855000Y-99547500D03*
%TD*%
D17*
%TO.C,R34*%
X86360000Y-106475000D03*
X86360000Y-108475000D03*
%TD*%
D13*
%TO.C,R29*%
X176530000Y-81915000D03*
X166370000Y-81915000D03*
%TD*%
D18*
%TO.C,D7*%
X86360000Y-89440000D03*
X86360000Y-93440000D03*
%TD*%
D19*
%TO.C,J1*%
X132080000Y-93980000D03*
D20*
X132080000Y-91440000D03*
X132080000Y-88900000D03*
X132080000Y-86360000D03*
X132080000Y-83820000D03*
X132080000Y-81280000D03*
%TD*%
D21*
%TO.C,D13*%
X86360000Y-110745000D03*
X86360000Y-114045000D03*
%TD*%
D22*
%TO.C,C11*%
X149062500Y-77470000D03*
X151137500Y-77470000D03*
%TD*%
D23*
%TO.C,J9*%
X66675000Y-85090000D03*
D24*
X66675000Y-82550000D03*
X66675000Y-80010000D03*
X69215000Y-80010000D03*
X69215000Y-82550000D03*
X69215000Y-85090000D03*
%TD*%
D25*
%TO.C,U8*%
X144175000Y-122145000D03*
X144175000Y-120445000D03*
X144175000Y-118745000D03*
D26*
X135025000Y-118745000D03*
D25*
X144175000Y-117045000D03*
X144175000Y-115345000D03*
%TD*%
D27*
%TO.C,U5*%
X160475000Y-92445000D03*
X160475000Y-91175000D03*
X160475000Y-89905000D03*
X160475000Y-88635000D03*
X160475000Y-87365000D03*
X160475000Y-86095000D03*
X160475000Y-84825000D03*
X160475000Y-83555000D03*
X155525000Y-83555000D03*
X155525000Y-84825000D03*
X155525000Y-86095000D03*
X155525000Y-87365000D03*
X155525000Y-88635000D03*
X155525000Y-89905000D03*
X155525000Y-91175000D03*
X155525000Y-92445000D03*
%TD*%
D28*
%TO.C,C9*%
X175027500Y-71755000D03*
X172952500Y-71755000D03*
%TD*%
D29*
%TO.C,R47*%
X149100000Y-74930000D03*
X151100000Y-74930000D03*
%TD*%
%TO.C,R8*%
X79645000Y-90170000D03*
X81645000Y-90170000D03*
%TD*%
D14*
%TO.C,D1*%
X109855000Y-107732500D03*
X109855000Y-108707500D03*
%TD*%
D30*
%TO.C,D22*%
X70485000Y-114280000D03*
X70485000Y-111780000D03*
%TD*%
D19*
%TO.C,J14*%
X146050000Y-77470000D03*
D20*
X143510000Y-77470000D03*
X146050000Y-74930000D03*
X143510000Y-74930000D03*
X146050000Y-72390000D03*
X143510000Y-72390000D03*
%TD*%
D31*
%TO.C,R35*%
X95885000Y-113395000D03*
X95885000Y-111395000D03*
%TD*%
D13*
%TO.C,R30*%
X176530000Y-86360000D03*
X166370000Y-86360000D03*
%TD*%
D29*
%TO.C,R25*%
X79645000Y-118110000D03*
X81645000Y-118110000D03*
%TD*%
D14*
%TO.C,D6*%
X109855000Y-103287500D03*
X109855000Y-104262500D03*
%TD*%
D13*
%TO.C,R32*%
X79280000Y-103395000D03*
X89440000Y-103395000D03*
%TD*%
D17*
%TO.C,R6*%
X114935000Y-112300000D03*
X114935000Y-114300000D03*
%TD*%
%TO.C,R11*%
X114935000Y-116745000D03*
X114935000Y-118745000D03*
%TD*%
%TO.C,R17*%
X120015000Y-103410000D03*
X120015000Y-105410000D03*
%TD*%
D32*
%TO.C,C6*%
X117475000Y-103372500D03*
X117475000Y-105447500D03*
%TD*%
D19*
%TO.C,J5*%
X150000000Y-100965000D03*
D20*
X152540000Y-100965000D03*
X150000000Y-103505000D03*
X152540000Y-103505000D03*
X150000000Y-106045000D03*
X152540000Y-106045000D03*
X150000000Y-108585000D03*
X152540000Y-108585000D03*
%TD*%
D17*
%TO.C,R7*%
X120015000Y-112300000D03*
X120015000Y-114300000D03*
%TD*%
D21*
%TO.C,D5*%
X86360000Y-82805000D03*
X86360000Y-86105000D03*
%TD*%
D33*
%TO.C,D16*%
X161715000Y-75185000D03*
X161715000Y-78485000D03*
X167215000Y-75185000D03*
X167215000Y-78485000D03*
%TD*%
D23*
%TO.C,D10*%
X181610000Y-86360000D03*
D34*
X179070000Y-86360000D03*
%TD*%
D13*
%TO.C,R23*%
X167000000Y-102870000D03*
X156840000Y-102870000D03*
%TD*%
D32*
%TO.C,C4*%
X117475000Y-116707500D03*
X117475000Y-118782500D03*
%TD*%
D22*
%TO.C,C13*%
X140567500Y-64135000D03*
X142642500Y-64135000D03*
%TD*%
D31*
%TO.C,R45*%
X139065000Y-68945000D03*
X139065000Y-66945000D03*
%TD*%
D13*
%TO.C,R22*%
X167000000Y-99695000D03*
X156840000Y-99695000D03*
%TD*%
D32*
%TO.C,C16*%
X73660000Y-98657500D03*
X73660000Y-100732500D03*
%TD*%
D35*
%TO.C,C18*%
X172742165Y-110490000D03*
X172742165Y-113370000D03*
%TD*%
D36*
%TO.C,R37*%
X92075000Y-111482500D03*
X92075000Y-113307500D03*
%TD*%
D23*
%TO.C,D12*%
X181610000Y-95250000D03*
D34*
X179070000Y-95250000D03*
%TD*%
D32*
%TO.C,C7*%
X88900000Y-111357500D03*
X88900000Y-113432500D03*
%TD*%
D27*
%TO.C,U3*%
X144080000Y-109220000D03*
X144080000Y-107950000D03*
X144080000Y-106680000D03*
X144080000Y-105410000D03*
X144080000Y-104140000D03*
X144080000Y-102870000D03*
X144080000Y-101600000D03*
X144080000Y-100330000D03*
X139130000Y-100330000D03*
X139130000Y-101600000D03*
X139130000Y-102870000D03*
X139130000Y-104140000D03*
X139130000Y-105410000D03*
X139130000Y-106680000D03*
X139130000Y-107950000D03*
X139130000Y-109220000D03*
%TD*%
D13*
%TO.C,R31*%
X176530000Y-90805000D03*
X166370000Y-90805000D03*
%TD*%
D17*
%TO.C,R43*%
X120015000Y-98695000D03*
X120015000Y-100695000D03*
%TD*%
D19*
%TO.C,J2*%
X73865000Y-67620000D03*
D20*
X73865000Y-70160000D03*
X73865000Y-72700000D03*
%TD*%
D13*
%TO.C,R24*%
X167005000Y-106045000D03*
X156845000Y-106045000D03*
%TD*%
D10*
%TO.C,H1*%
X178886000Y-60880000D03*
X179632878Y-59076878D03*
X179632878Y-62683122D03*
X181436000Y-58330000D03*
D12*
X181436000Y-60880000D03*
D10*
X181436000Y-63430000D03*
X183239122Y-59076878D03*
X183239122Y-62683122D03*
X183986000Y-60880000D03*
%TD*%
D37*
%TO.C,U7*%
X135890000Y-76770000D03*
X137160000Y-76770000D03*
X138430000Y-76770000D03*
X139700000Y-76770000D03*
X139700000Y-71820000D03*
X138430000Y-71820000D03*
X137160000Y-71820000D03*
X135890000Y-71820000D03*
%TD*%
D32*
%TO.C,C1*%
X117475000Y-107817500D03*
X117475000Y-109892500D03*
%TD*%
D29*
%TO.C,R42*%
X142510000Y-67945000D03*
X144510000Y-67945000D03*
%TD*%
D32*
%TO.C,C5*%
X88900000Y-83417500D03*
X88900000Y-85492500D03*
%TD*%
%TO.C,C2*%
X117475000Y-112262500D03*
X117475000Y-114337500D03*
%TD*%
D33*
%TO.C,D15*%
X171240000Y-75185000D03*
X171240000Y-78485000D03*
X176740000Y-75185000D03*
X176740000Y-78485000D03*
%TD*%
D13*
%TO.C,R21*%
X92075000Y-89550108D03*
X92075000Y-79390108D03*
%TD*%
%TO.C,R39*%
X92075000Y-117475000D03*
X92075000Y-107315000D03*
%TD*%
D30*
%TO.C,D19*%
X73660000Y-95865000D03*
X73660000Y-93365000D03*
%TD*%
D10*
%TO.C,H4*%
X63886000Y-133380000D03*
X64632878Y-131576878D03*
X64632878Y-135183122D03*
X66436000Y-130830000D03*
D12*
X66436000Y-133380000D03*
D10*
X66436000Y-135930000D03*
X68239122Y-131576878D03*
X68239122Y-135183122D03*
X68986000Y-133380000D03*
%TD*%
D31*
%TO.C,R40*%
X112395000Y-100695000D03*
X112395000Y-98695000D03*
%TD*%
D23*
%TO.C,D9*%
X181610000Y-81915000D03*
D34*
X179070000Y-81915000D03*
%TD*%
D31*
%TO.C,R5*%
X112395000Y-114300000D03*
X112395000Y-112300000D03*
%TD*%
%TO.C,R1*%
X112395000Y-109855000D03*
X112395000Y-107855000D03*
%TD*%
D19*
%TO.C,J16*%
X171455000Y-121920000D03*
D20*
X168915000Y-121920000D03*
%TD*%
D30*
%TO.C,D23*%
X73660000Y-114280000D03*
X73660000Y-111780000D03*
%TD*%
D38*
%TO.C,L1*%
X153670000Y-123220000D03*
X153670000Y-114270000D03*
%TD*%
D39*
%TO.C,D20*%
X70485000Y-102965000D03*
X70485000Y-98965000D03*
%TD*%
D31*
%TO.C,R38*%
X155575000Y-77835000D03*
X155575000Y-75835000D03*
%TD*%
D32*
%TO.C,C12*%
X117475000Y-98657500D03*
X117475000Y-100732500D03*
%TD*%
D28*
%TO.C,C8*%
X165502500Y-71755000D03*
X163427500Y-71755000D03*
%TD*%
D40*
%TO.C,C15*%
X137795000Y-64537500D03*
X137795000Y-62462500D03*
%TD*%
D41*
%TO.C,D21*%
X157070000Y-129540000D03*
X150270000Y-129540000D03*
%TD*%
D42*
%TO.C,U4*%
X138015000Y-93670000D03*
X138665000Y-93670000D03*
X139315000Y-93670000D03*
X139965000Y-93670000D03*
X140615000Y-93670000D03*
X141265000Y-93670000D03*
X141915000Y-93670000D03*
X142565000Y-93670000D03*
X143215000Y-93670000D03*
X143865000Y-93670000D03*
X144515000Y-93670000D03*
X145165000Y-93670000D03*
X145815000Y-93670000D03*
X146465000Y-93670000D03*
X146465000Y-86670000D03*
X145815000Y-86670000D03*
X145165000Y-86670000D03*
X144515000Y-86670000D03*
X143865000Y-86670000D03*
X143215000Y-86670000D03*
X142565000Y-86670000D03*
X141915000Y-86670000D03*
X141265000Y-86670000D03*
X140615000Y-86670000D03*
X139965000Y-86670000D03*
X139315000Y-86670000D03*
X138665000Y-86670000D03*
X138015000Y-86670000D03*
%TD*%
D17*
%TO.C,R14*%
X86360000Y-78375000D03*
X86360000Y-80375000D03*
%TD*%
D36*
%TO.C,R20*%
X92075000Y-83542500D03*
X92075000Y-85367500D03*
%TD*%
D17*
%TO.C,R4*%
X128270000Y-91710000D03*
X128270000Y-93710000D03*
%TD*%
%TO.C,R48*%
X73660000Y-107585000D03*
X73660000Y-109585000D03*
%TD*%
D10*
%TO.C,H2*%
X63886000Y-60880000D03*
X64632878Y-59076878D03*
X64632878Y-62683122D03*
X66436000Y-58330000D03*
D12*
X66436000Y-60880000D03*
D10*
X66436000Y-63430000D03*
X68239122Y-59076878D03*
X68239122Y-62683122D03*
X68986000Y-60880000D03*
%TD*%
D23*
%TO.C,D11*%
X181610000Y-90805000D03*
D34*
X179070000Y-90805000D03*
%TD*%
D17*
%TO.C,R12*%
X120015000Y-116745000D03*
X120015000Y-118745000D03*
%TD*%
D19*
%TO.C,J12*%
X139070000Y-59055000D03*
D20*
X136530000Y-59055000D03*
%TD*%
D19*
%TO.C,J17*%
X164841000Y-67056000D03*
D20*
X167381000Y-67056000D03*
%TD*%
D30*
%TO.C,D18*%
X70485000Y-95865000D03*
X70485000Y-93365000D03*
%TD*%
D17*
%TO.C,R2*%
X114935000Y-107855000D03*
X114935000Y-109855000D03*
%TD*%
D37*
%TO.C,U6*%
X79375000Y-114870000D03*
X80645000Y-114870000D03*
X81915000Y-114870000D03*
X83185000Y-114870000D03*
X83185000Y-109920000D03*
X81915000Y-109920000D03*
X80645000Y-109920000D03*
X79375000Y-109920000D03*
%TD*%
D11*
%TO.C,D3*%
X83165000Y-78740000D03*
X80665000Y-78740000D03*
%TD*%
D19*
%TO.C,J15*%
X65405000Y-117470000D03*
D20*
X65405000Y-120010000D03*
%TD*%
D17*
%TO.C,R46*%
X73660000Y-89170000D03*
X73660000Y-91170000D03*
%TD*%
%TO.C,R41*%
X114935000Y-98695000D03*
X114935000Y-100695000D03*
%TD*%
D32*
%TO.C,C10*%
X158115000Y-75797500D03*
X158115000Y-77872500D03*
%TD*%
D34*
%TO.C,RV1*%
X81365000Y-66430000D03*
X78365000Y-66430000D03*
X126365000Y-66430000D03*
X101365000Y-66430000D03*
X106365000Y-66430000D03*
X111365000Y-66430000D03*
X116365000Y-66430000D03*
X121365000Y-66430000D03*
X81365000Y-74930000D03*
X101365000Y-74930000D03*
X106365000Y-74930000D03*
X111365000Y-74930000D03*
X116365000Y-74930000D03*
X121365000Y-74930000D03*
X126365000Y-74930000D03*
%TD*%
D19*
%TO.C,J7*%
X71720000Y-127259000D03*
D20*
X71720000Y-124719000D03*
%TD*%
D22*
%TO.C,C20*%
X175895000Y-104165791D03*
X177970000Y-104165791D03*
%TD*%
D31*
%TO.C,R44*%
X136525000Y-68945000D03*
X136525000Y-66945000D03*
%TD*%
D19*
%TO.C,J18*%
X173228000Y-67056000D03*
D20*
X175768000Y-67056000D03*
%TD*%
D19*
%TO.C,J13*%
X65530000Y-99690000D03*
D20*
X65530000Y-102230000D03*
%TD*%
D28*
%TO.C,C14*%
X135022500Y-64135000D03*
X132947500Y-64135000D03*
%TD*%
D13*
%TO.C,R27*%
X167005000Y-109220000D03*
X156845000Y-109220000D03*
%TD*%
%TO.C,R13*%
X69215000Y-65405000D03*
X69215000Y-75565000D03*
%TD*%
D31*
%TO.C,R10*%
X112395000Y-118745000D03*
X112395000Y-116745000D03*
%TD*%
D17*
%TO.C,R16*%
X114935000Y-103410000D03*
X114935000Y-105410000D03*
%TD*%
D43*
%TO.C,C17*%
X144145000Y-127477500D03*
X144145000Y-131602500D03*
%TD*%
D34*
%TO.C,RV2*%
X89220000Y-126120000D03*
X86220000Y-126120000D03*
X134220000Y-126120000D03*
X109220000Y-126120000D03*
X114220000Y-126120000D03*
X119220000Y-126120000D03*
X124220000Y-126120000D03*
X129220000Y-126120000D03*
X89220000Y-134620000D03*
X109220000Y-134620000D03*
X114220000Y-134620000D03*
X119220000Y-134620000D03*
X124220000Y-134620000D03*
X129220000Y-134620000D03*
X134220000Y-134620000D03*
%TD*%
D39*
%TO.C,D24*%
X70485000Y-120745000D03*
X70485000Y-116745000D03*
%TD*%
D19*
%TO.C,J4*%
X103500000Y-110125000D03*
D20*
X106040000Y-110125000D03*
X103500000Y-112665000D03*
X106040000Y-112665000D03*
X103500000Y-115205000D03*
X106040000Y-115205000D03*
X103500000Y-117745000D03*
X106040000Y-117745000D03*
%TD*%
D37*
%TO.C,U1*%
X79375000Y-86930000D03*
X80645000Y-86930000D03*
X81915000Y-86930000D03*
X83185000Y-86930000D03*
X83185000Y-81980000D03*
X81915000Y-81980000D03*
X80645000Y-81980000D03*
X79375000Y-81980000D03*
%TD*%
D31*
%TO.C,R18*%
X95885000Y-85470108D03*
X95885000Y-83470108D03*
%TD*%
D13*
%TO.C,R28*%
X176530000Y-95250000D03*
X166370000Y-95250000D03*
%TD*%
D19*
%TO.C,J6*%
X81720000Y-128620000D03*
D20*
X81720000Y-131160000D03*
X81720000Y-133700000D03*
%TD*%
D19*
%TO.C,J19*%
X163830000Y-121920000D03*
D20*
X161290000Y-121920000D03*
%TD*%
D29*
%TO.C,R26*%
X79645000Y-120650000D03*
X81645000Y-120650000D03*
%TD*%
D44*
%TO.C,U9*%
X180735000Y-110490000D03*
X178435000Y-110490000D03*
D45*
X178435000Y-116790000D03*
D44*
X176135000Y-110490000D03*
%TD*%
D19*
%TO.C,J11*%
X153035000Y-67945000D03*
D20*
X150495000Y-67945000D03*
X147955000Y-67945000D03*
%TD*%
D14*
%TO.C,D4*%
X109855000Y-116622500D03*
X109855000Y-117597500D03*
%TD*%
D29*
%TO.C,R9*%
X79645000Y-92710000D03*
X81645000Y-92710000D03*
%TD*%
D19*
%TO.C,J3*%
X65532000Y-68575000D03*
D20*
X65532000Y-71115000D03*
%TD*%
D22*
%TO.C,C3*%
X141837500Y-83820000D03*
X143912500Y-83820000D03*
%TD*%
D18*
%TO.C,D14*%
X86360000Y-117380000D03*
X86360000Y-121380000D03*
%TD*%
D19*
%TO.C,J10*%
X120015000Y-82550000D03*
D20*
X117475000Y-82550000D03*
%TD*%
D13*
%TO.C,R36*%
X95885000Y-107315000D03*
X95885000Y-117475000D03*
%TD*%
%TO.C,R19*%
X95885000Y-79390108D03*
X95885000Y-89550108D03*
%TD*%
D46*
%TO.C,C21*%
X177800000Y-107165791D03*
X180680000Y-107165791D03*
%TD*%
D17*
%TO.C,R3*%
X120015000Y-107855000D03*
X120015000Y-109855000D03*
%TD*%
D31*
%TO.C,R15*%
X112395000Y-105410000D03*
X112395000Y-103410000D03*
%TD*%
D32*
%TO.C,C19*%
X73660000Y-116437500D03*
X73660000Y-118512500D03*
%TD*%
D37*
%TO.C,U2*%
X92710000Y-100900000D03*
X93980000Y-100900000D03*
X95250000Y-100900000D03*
X96520000Y-100900000D03*
X96520000Y-95950000D03*
X95250000Y-95950000D03*
X93980000Y-95950000D03*
X92710000Y-95950000D03*
%TD*%
M02*
