M48
; DRILL file {KiCad 9.0.7} date 2026-03-02T19:26:38+0100
; FORMAT={-:-/ absolute / metric / decimal}
; #@! TF.CreationDate,2026-03-02T19:26:38+01:00
; #@! TF.GenerationSoftware,Kicad,Pcbnew,9.0.7
; #@! TF.FileFunction,Plated,1,2,PTH
FMAT,2
METRIC
; #@! TA.AperFunction,Plated,PTH,ViaDrill
T1C0.300
; #@! TA.AperFunction,Plated,PTH,ComponentDrill
T2C0.600
; #@! TA.AperFunction,Plated,PTH,ComponentDrill
T3C0.800
; #@! TA.AperFunction,Plated,PTH,ComponentDrill
T4C0.900
; #@! TA.AperFunction,Plated,PTH,ComponentDrill
T5C1.000
; #@! TA.AperFunction,Plated,PTH,ComponentDrill
T6C1.100
; #@! TA.AperFunction,Plated,PTH,ComponentDrill
T7C3.200
%
G90
G05
T1
X70.485Y-88.9
X71.755Y-89.535
X85.725Y-70.485
X88.9Y-69.215
X95.075Y-71.755
X96.52Y-98.425
X99.06Y-91.44
X122.555Y-99.06
X122.555Y-102.87
X122.555Y-107.315
X122.555Y-111.76
X122.555Y-116.205
X125.73Y-90.17
X131.445Y-64.135
X133.985Y-78.105
X137.795Y-60.96
X140.97Y-99.06
X144.145Y-64.135
X146.05Y-83.317
X148.59Y-83.185
X149.86Y-85.725
X151.765Y-92.71
X153.23Y-89.095
X178.435Y-119.38
X180.022Y-104.457
T2
X63.886Y-60.88
X63.886Y-133.38
X64.633Y-59.077
X64.633Y-62.683
X64.633Y-131.577
X64.633Y-135.183
X66.436Y-58.33
X66.436Y-63.43
X66.436Y-130.83
X66.436Y-135.93
X68.239Y-59.077
X68.239Y-62.683
X68.239Y-131.577
X68.239Y-135.183
X68.986Y-60.88
X68.986Y-133.38
X178.886Y-60.88
X178.886Y-133.38
X179.633Y-59.077
X179.633Y-62.683
X179.633Y-131.577
X179.633Y-135.183
X181.436Y-58.33
X181.436Y-63.43
X181.436Y-130.83
X181.436Y-135.93
X183.239Y-59.077
X183.239Y-62.683
X183.239Y-131.577
X183.239Y-135.183
X183.986Y-60.88
X183.986Y-133.38
T3
X69.215Y-65.405
X69.215Y-75.565
X76.8Y-126.12
X76.8Y-136.28
X79.28Y-103.395
X89.44Y-103.395
X92.075Y-79.39
X92.075Y-89.55
X92.075Y-107.315
X92.075Y-117.475
X95.885Y-79.39
X95.885Y-89.55
X95.885Y-107.315
X95.885Y-117.475
X156.84Y-99.695
X156.84Y-102.87
X156.845Y-106.045
X156.845Y-109.22
X166.37Y-81.915
X166.37Y-86.36
X166.37Y-90.805
X166.37Y-95.25
X167.0Y-99.695
X167.0Y-102.87
X167.005Y-106.045
X167.005Y-109.22
X176.53Y-81.915
X176.53Y-86.36
X176.53Y-90.805
X176.53Y-95.25
T4
X179.07Y-81.915
X179.07Y-86.36
X179.07Y-90.805
X179.07Y-95.25
X181.61Y-81.915
X181.61Y-86.36
X181.61Y-90.805
X181.61Y-95.25
T5
X65.405Y-117.47
X65.405Y-120.01
X65.53Y-99.69
X65.53Y-102.23
X65.532Y-68.575
X65.532Y-71.115
X71.72Y-124.719
X71.72Y-127.259
X73.865Y-67.62
X73.865Y-70.16
X73.865Y-72.7
X78.365Y-66.43
X81.365Y-66.43
X81.365Y-74.93
X81.72Y-128.62
X81.72Y-131.16
X81.72Y-133.7
X86.22Y-126.12
X89.22Y-126.12
X89.22Y-134.62
X101.365Y-66.43
X101.365Y-74.93
X103.5Y-110.125
X103.5Y-112.665
X103.5Y-115.205
X103.5Y-117.745
X106.04Y-110.125
X106.04Y-112.665
X106.04Y-115.205
X106.04Y-117.745
X106.365Y-66.43
X106.365Y-74.93
X109.22Y-126.12
X109.22Y-134.62
X111.365Y-66.43
X111.365Y-74.93
X114.22Y-126.12
X114.22Y-134.62
X116.365Y-66.43
X116.365Y-74.93
X117.475Y-82.55
X119.22Y-126.12
X119.22Y-134.62
X120.015Y-82.55
X121.365Y-66.43
X121.365Y-74.93
X124.22Y-126.12
X124.22Y-134.62
X126.365Y-66.43
X126.365Y-74.93
X129.22Y-126.12
X129.22Y-134.62
X132.08Y-81.28
X132.08Y-83.82
X132.08Y-86.36
X132.08Y-88.9
X132.08Y-91.44
X132.08Y-93.98
X134.22Y-126.12
X134.22Y-134.62
X136.53Y-59.055
X139.07Y-59.055
X143.51Y-72.39
X143.51Y-74.93
X143.51Y-77.47
X146.05Y-72.39
X146.05Y-74.93
X146.05Y-77.47
X147.955Y-67.945
X150.0Y-100.965
X150.0Y-103.505
X150.0Y-106.045
X150.0Y-108.585
X150.495Y-67.945
X152.54Y-100.965
X152.54Y-103.505
X152.54Y-106.045
X152.54Y-108.585
X153.035Y-67.945
X161.29Y-121.92
X163.83Y-121.92
X164.841Y-67.056
X167.381Y-67.056
X168.915Y-121.92
X171.455Y-121.92
X173.228Y-67.056
X175.768Y-67.056
T6
X66.675Y-80.01
X66.675Y-82.55
X66.675Y-85.09
X69.215Y-80.01
X69.215Y-82.55
X69.215Y-85.09
T7
X66.436Y-60.88
X66.436Y-133.38
X181.436Y-60.88
X181.436Y-133.38
M30
