%TF.GenerationSoftware,KiCad,Pcbnew,9.0.7*%
%TF.CreationDate,2026-03-02T19:26:43+01:00*%
%TF.ProjectId,board0,626f6172-6430-42e6-9b69-6361645f7063,1*%
%TF.SameCoordinates,Original*%
%TF.FileFunction,Soldermask,Bot*%
%TF.FilePolarity,Negative*%
%FSLAX46Y46*%
G04 Gerber Fmt 4.6, Leading zero omitted, Abs format (unit mm)*
G04 Created by KiCad (PCBNEW 9.0.7) date 2026-03-02 19:26:43*
%MOMM*%
%LPD*%
G01*
G04 APERTURE LIST*
%ADD10C,1.000000*%
%ADD11C,7.000000*%
%ADD12C,1.600000*%
%ADD13R,1.700000X1.700000*%
%ADD14C,1.700000*%
%ADD15R,1.800000X1.800000*%
%ADD16C,2.000000*%
%ADD17C,1.800000*%
G04 APERTURE END LIST*
D10*
%TO.C,REF\u002A\u002A*%
X63936000Y-65880000D03*
%TD*%
%TO.C,REF\u002A\u002A*%
X63936000Y-128380000D03*
%TD*%
%TO.C,REF\u002A\u002A*%
X183936000Y-65880000D03*
%TD*%
%TO.C,REF\u002A\u002A*%
X183936000Y-128380000D03*
%TD*%
%TO.C,H3*%
X178886000Y-133380000D03*
X179632878Y-131576878D03*
X179632878Y-135183122D03*
X181436000Y-130830000D03*
D11*
X181436000Y-133380000D03*
D10*
X181436000Y-135930000D03*
X183239122Y-131576878D03*
X183239122Y-135183122D03*
X183986000Y-133380000D03*
%TD*%
D12*
%TO.C,R33*%
X76800000Y-126120000D03*
X76800000Y-136280000D03*
%TD*%
%TO.C,R29*%
X176530000Y-81915000D03*
X166370000Y-81915000D03*
%TD*%
D13*
%TO.C,J1*%
X132080000Y-93980000D03*
D14*
X132080000Y-91440000D03*
X132080000Y-88900000D03*
X132080000Y-86360000D03*
X132080000Y-83820000D03*
X132080000Y-81280000D03*
%TD*%
D15*
%TO.C,J9*%
X66675000Y-85090000D03*
D16*
X66675000Y-82550000D03*
X66675000Y-80010000D03*
X69215000Y-80010000D03*
X69215000Y-82550000D03*
X69215000Y-85090000D03*
%TD*%
D13*
%TO.C,J14*%
X146050000Y-77470000D03*
D14*
X143510000Y-77470000D03*
X146050000Y-74930000D03*
X143510000Y-74930000D03*
X146050000Y-72390000D03*
X143510000Y-72390000D03*
%TD*%
D12*
%TO.C,R30*%
X176530000Y-86360000D03*
X166370000Y-86360000D03*
%TD*%
%TO.C,R32*%
X79280000Y-103395000D03*
X89440000Y-103395000D03*
%TD*%
D13*
%TO.C,J5*%
X150000000Y-100965000D03*
D14*
X152540000Y-100965000D03*
X150000000Y-103505000D03*
X152540000Y-103505000D03*
X150000000Y-106045000D03*
X152540000Y-106045000D03*
X150000000Y-108585000D03*
X152540000Y-108585000D03*
%TD*%
D15*
%TO.C,D10*%
X181610000Y-86360000D03*
D17*
X179070000Y-86360000D03*
%TD*%
D12*
%TO.C,R23*%
X167000000Y-102870000D03*
X156840000Y-102870000D03*
%TD*%
%TO.C,R22*%
X167000000Y-99695000D03*
X156840000Y-99695000D03*
%TD*%
D15*
%TO.C,D12*%
X181610000Y-95250000D03*
D17*
X179070000Y-95250000D03*
%TD*%
D12*
%TO.C,R31*%
X176530000Y-90805000D03*
X166370000Y-90805000D03*
%TD*%
D13*
%TO.C,J2*%
X73865000Y-67620000D03*
D14*
X73865000Y-70160000D03*
X73865000Y-72700000D03*
%TD*%
D12*
%TO.C,R24*%
X167005000Y-106045000D03*
X156845000Y-106045000D03*
%TD*%
D10*
%TO.C,H1*%
X178886000Y-60880000D03*
X179632878Y-59076878D03*
X179632878Y-62683122D03*
X181436000Y-58330000D03*
D11*
X181436000Y-60880000D03*
D10*
X181436000Y-63430000D03*
X183239122Y-59076878D03*
X183239122Y-62683122D03*
X183986000Y-60880000D03*
%TD*%
D12*
%TO.C,R21*%
X92075000Y-89550108D03*
X92075000Y-79390108D03*
%TD*%
%TO.C,R39*%
X92075000Y-117475000D03*
X92075000Y-107315000D03*
%TD*%
D10*
%TO.C,H4*%
X63886000Y-133380000D03*
X64632878Y-131576878D03*
X64632878Y-135183122D03*
X66436000Y-130830000D03*
D11*
X66436000Y-133380000D03*
D10*
X66436000Y-135930000D03*
X68239122Y-131576878D03*
X68239122Y-135183122D03*
X68986000Y-133380000D03*
%TD*%
D15*
%TO.C,D9*%
X181610000Y-81915000D03*
D17*
X179070000Y-81915000D03*
%TD*%
D13*
%TO.C,J16*%
X171455000Y-121920000D03*
D14*
X168915000Y-121920000D03*
%TD*%
D10*
%TO.C,H2*%
X63886000Y-60880000D03*
X64632878Y-59076878D03*
X64632878Y-62683122D03*
X66436000Y-58330000D03*
D11*
X66436000Y-60880000D03*
D10*
X66436000Y-63430000D03*
X68239122Y-59076878D03*
X68239122Y-62683122D03*
X68986000Y-60880000D03*
%TD*%
D15*
%TO.C,D11*%
X181610000Y-90805000D03*
D17*
X179070000Y-90805000D03*
%TD*%
D13*
%TO.C,J12*%
X139070000Y-59055000D03*
D14*
X136530000Y-59055000D03*
%TD*%
D13*
%TO.C,J17*%
X164841000Y-67056000D03*
D14*
X167381000Y-67056000D03*
%TD*%
D13*
%TO.C,J15*%
X65405000Y-117470000D03*
D14*
X65405000Y-120010000D03*
%TD*%
D17*
%TO.C,RV1*%
X81365000Y-66430000D03*
X78365000Y-66430000D03*
X126365000Y-66430000D03*
X101365000Y-66430000D03*
X106365000Y-66430000D03*
X111365000Y-66430000D03*
X116365000Y-66430000D03*
X121365000Y-66430000D03*
X81365000Y-74930000D03*
X101365000Y-74930000D03*
X106365000Y-74930000D03*
X111365000Y-74930000D03*
X116365000Y-74930000D03*
X121365000Y-74930000D03*
X126365000Y-74930000D03*
%TD*%
D13*
%TO.C,J7*%
X71720000Y-127259000D03*
D14*
X71720000Y-124719000D03*
%TD*%
D13*
%TO.C,J18*%
X173228000Y-67056000D03*
D14*
X175768000Y-67056000D03*
%TD*%
D13*
%TO.C,J13*%
X65530000Y-99690000D03*
D14*
X65530000Y-102230000D03*
%TD*%
D12*
%TO.C,R27*%
X167005000Y-109220000D03*
X156845000Y-109220000D03*
%TD*%
%TO.C,R13*%
X69215000Y-65405000D03*
X69215000Y-75565000D03*
%TD*%
D17*
%TO.C,RV2*%
X89220000Y-126120000D03*
X86220000Y-126120000D03*
X134220000Y-126120000D03*
X109220000Y-126120000D03*
X114220000Y-126120000D03*
X119220000Y-126120000D03*
X124220000Y-126120000D03*
X129220000Y-126120000D03*
X89220000Y-134620000D03*
X109220000Y-134620000D03*
X114220000Y-134620000D03*
X119220000Y-134620000D03*
X124220000Y-134620000D03*
X129220000Y-134620000D03*
X134220000Y-134620000D03*
%TD*%
D13*
%TO.C,J4*%
X103500000Y-110125000D03*
D14*
X106040000Y-110125000D03*
X103500000Y-112665000D03*
X106040000Y-112665000D03*
X103500000Y-115205000D03*
X106040000Y-115205000D03*
X103500000Y-117745000D03*
X106040000Y-117745000D03*
%TD*%
D12*
%TO.C,R28*%
X176530000Y-95250000D03*
X166370000Y-95250000D03*
%TD*%
D13*
%TO.C,J6*%
X81720000Y-128620000D03*
D14*
X81720000Y-131160000D03*
X81720000Y-133700000D03*
%TD*%
D13*
%TO.C,J19*%
X163830000Y-121920000D03*
D14*
X161290000Y-121920000D03*
%TD*%
D13*
%TO.C,J11*%
X153035000Y-67945000D03*
D14*
X150495000Y-67945000D03*
X147955000Y-67945000D03*
%TD*%
D13*
%TO.C,J3*%
X65532000Y-68575000D03*
D14*
X65532000Y-71115000D03*
%TD*%
D13*
%TO.C,J10*%
X120015000Y-82550000D03*
D14*
X117475000Y-82550000D03*
%TD*%
D12*
%TO.C,R36*%
X95885000Y-107315000D03*
X95885000Y-117475000D03*
%TD*%
%TO.C,R19*%
X95885000Y-79390108D03*
X95885000Y-89550108D03*
%TD*%
M02*
