%TF.GenerationSoftware,KiCad,Pcbnew,9.0.7*%
%TF.CreationDate,2026-04-09T10:36:26+02:00*%
%TF.ProjectId,board2-buttons,626f6172-6432-42d6-9275-74746f6e732e,2*%
%TF.SameCoordinates,Original*%
%TF.FileFunction,Legend,Bot*%
%TF.FilePolarity,Positive*%
%FSLAX46Y46*%
G04 Gerber Fmt 4.6, Leading zero omitted, Abs format (unit mm)*
G04 Created by KiCad (PCBNEW 9.0.7) date 2026-04-09 10:36:26*
%MOMM*%
%LPD*%
G01*
G04 APERTURE LIST*
%ADD10C,0.160000*%
%ADD11C,0.200000*%
G04 APERTURE END LIST*
D10*
X101333332Y-99906680D02*
X101190475Y-99954299D01*
X101190475Y-99954299D02*
X100952380Y-99954299D01*
X100952380Y-99954299D02*
X100857142Y-99906680D01*
X100857142Y-99906680D02*
X100809523Y-99859060D01*
X100809523Y-99859060D02*
X100761904Y-99763822D01*
X100761904Y-99763822D02*
X100761904Y-99668584D01*
X100761904Y-99668584D02*
X100809523Y-99573346D01*
X100809523Y-99573346D02*
X100857142Y-99525727D01*
X100857142Y-99525727D02*
X100952380Y-99478108D01*
X100952380Y-99478108D02*
X101142856Y-99430489D01*
X101142856Y-99430489D02*
X101238094Y-99382870D01*
X101238094Y-99382870D02*
X101285713Y-99335251D01*
X101285713Y-99335251D02*
X101333332Y-99240013D01*
X101333332Y-99240013D02*
X101333332Y-99144775D01*
X101333332Y-99144775D02*
X101285713Y-99049537D01*
X101285713Y-99049537D02*
X101238094Y-99001918D01*
X101238094Y-99001918D02*
X101142856Y-98954299D01*
X101142856Y-98954299D02*
X100904761Y-98954299D01*
X100904761Y-98954299D02*
X100761904Y-99001918D01*
X100428570Y-98954299D02*
X100190475Y-99954299D01*
X100190475Y-99954299D02*
X99999999Y-99240013D01*
X99999999Y-99240013D02*
X99809523Y-99954299D01*
X99809523Y-99954299D02*
X99571428Y-98954299D01*
X98761904Y-98954299D02*
X98952380Y-98954299D01*
X98952380Y-98954299D02*
X99047618Y-99001918D01*
X99047618Y-99001918D02*
X99095237Y-99049537D01*
X99095237Y-99049537D02*
X99190475Y-99192394D01*
X99190475Y-99192394D02*
X99238094Y-99382870D01*
X99238094Y-99382870D02*
X99238094Y-99763822D01*
X99238094Y-99763822D02*
X99190475Y-99859060D01*
X99190475Y-99859060D02*
X99142856Y-99906680D01*
X99142856Y-99906680D02*
X99047618Y-99954299D01*
X99047618Y-99954299D02*
X98857142Y-99954299D01*
X98857142Y-99954299D02*
X98761904Y-99906680D01*
X98761904Y-99906680D02*
X98714285Y-99859060D01*
X98714285Y-99859060D02*
X98666666Y-99763822D01*
X98666666Y-99763822D02*
X98666666Y-99525727D01*
X98666666Y-99525727D02*
X98714285Y-99430489D01*
X98714285Y-99430489D02*
X98761904Y-99382870D01*
X98761904Y-99382870D02*
X98857142Y-99335251D01*
X98857142Y-99335251D02*
X99047618Y-99335251D01*
X99047618Y-99335251D02*
X99142856Y-99382870D01*
X99142856Y-99382870D02*
X99190475Y-99430489D01*
X99190475Y-99430489D02*
X99238094Y-99525727D01*
X110238094Y-121954299D02*
X110238094Y-120954299D01*
X110238094Y-120954299D02*
X109999999Y-120954299D01*
X109999999Y-120954299D02*
X109857142Y-121001918D01*
X109857142Y-121001918D02*
X109761904Y-121097156D01*
X109761904Y-121097156D02*
X109714285Y-121192394D01*
X109714285Y-121192394D02*
X109666666Y-121382870D01*
X109666666Y-121382870D02*
X109666666Y-121525727D01*
X109666666Y-121525727D02*
X109714285Y-121716203D01*
X109714285Y-121716203D02*
X109761904Y-121811441D01*
X109761904Y-121811441D02*
X109857142Y-121906680D01*
X109857142Y-121906680D02*
X109999999Y-121954299D01*
X109999999Y-121954299D02*
X110238094Y-121954299D01*
X108809523Y-121287632D02*
X108809523Y-121954299D01*
X109047618Y-120906680D02*
X109285713Y-121620965D01*
X109285713Y-121620965D02*
X108666666Y-121620965D01*
X110238094Y-55954299D02*
X110238094Y-54954299D01*
X110238094Y-54954299D02*
X109999999Y-54954299D01*
X109999999Y-54954299D02*
X109857142Y-55001918D01*
X109857142Y-55001918D02*
X109761904Y-55097156D01*
X109761904Y-55097156D02*
X109714285Y-55192394D01*
X109714285Y-55192394D02*
X109666666Y-55382870D01*
X109666666Y-55382870D02*
X109666666Y-55525727D01*
X109666666Y-55525727D02*
X109714285Y-55716203D01*
X109714285Y-55716203D02*
X109761904Y-55811441D01*
X109761904Y-55811441D02*
X109857142Y-55906680D01*
X109857142Y-55906680D02*
X109999999Y-55954299D01*
X109999999Y-55954299D02*
X110238094Y-55954299D01*
X108714285Y-55954299D02*
X109285713Y-55954299D01*
X108999999Y-55954299D02*
X108999999Y-54954299D01*
X108999999Y-54954299D02*
X109095237Y-55097156D01*
X109095237Y-55097156D02*
X109190475Y-55192394D01*
X109190475Y-55192394D02*
X109285713Y-55240013D01*
X91714285Y-77954299D02*
X91714285Y-76954299D01*
X91714285Y-76954299D02*
X91476190Y-76954299D01*
X91476190Y-76954299D02*
X91333333Y-77001918D01*
X91333333Y-77001918D02*
X91238095Y-77097156D01*
X91238095Y-77097156D02*
X91190476Y-77192394D01*
X91190476Y-77192394D02*
X91142857Y-77382870D01*
X91142857Y-77382870D02*
X91142857Y-77525727D01*
X91142857Y-77525727D02*
X91190476Y-77716203D01*
X91190476Y-77716203D02*
X91238095Y-77811441D01*
X91238095Y-77811441D02*
X91333333Y-77906680D01*
X91333333Y-77906680D02*
X91476190Y-77954299D01*
X91476190Y-77954299D02*
X91714285Y-77954299D01*
X90190476Y-77954299D02*
X90761904Y-77954299D01*
X90476190Y-77954299D02*
X90476190Y-76954299D01*
X90476190Y-76954299D02*
X90571428Y-77097156D01*
X90571428Y-77097156D02*
X90666666Y-77192394D01*
X90666666Y-77192394D02*
X90761904Y-77240013D01*
X89571428Y-76954299D02*
X89476190Y-76954299D01*
X89476190Y-76954299D02*
X89380952Y-77001918D01*
X89380952Y-77001918D02*
X89333333Y-77049537D01*
X89333333Y-77049537D02*
X89285714Y-77144775D01*
X89285714Y-77144775D02*
X89238095Y-77335251D01*
X89238095Y-77335251D02*
X89238095Y-77573346D01*
X89238095Y-77573346D02*
X89285714Y-77763822D01*
X89285714Y-77763822D02*
X89333333Y-77859060D01*
X89333333Y-77859060D02*
X89380952Y-77906680D01*
X89380952Y-77906680D02*
X89476190Y-77954299D01*
X89476190Y-77954299D02*
X89571428Y-77954299D01*
X89571428Y-77954299D02*
X89666666Y-77906680D01*
X89666666Y-77906680D02*
X89714285Y-77859060D01*
X89714285Y-77859060D02*
X89761904Y-77763822D01*
X89761904Y-77763822D02*
X89809523Y-77573346D01*
X89809523Y-77573346D02*
X89809523Y-77335251D01*
X89809523Y-77335251D02*
X89761904Y-77144775D01*
X89761904Y-77144775D02*
X89714285Y-77049537D01*
X89714285Y-77049537D02*
X89666666Y-77001918D01*
X89666666Y-77001918D02*
X89571428Y-76954299D01*
X110238094Y-165954299D02*
X110238094Y-164954299D01*
X110238094Y-164954299D02*
X109999999Y-164954299D01*
X109999999Y-164954299D02*
X109857142Y-165001918D01*
X109857142Y-165001918D02*
X109761904Y-165097156D01*
X109761904Y-165097156D02*
X109714285Y-165192394D01*
X109714285Y-165192394D02*
X109666666Y-165382870D01*
X109666666Y-165382870D02*
X109666666Y-165525727D01*
X109666666Y-165525727D02*
X109714285Y-165716203D01*
X109714285Y-165716203D02*
X109761904Y-165811441D01*
X109761904Y-165811441D02*
X109857142Y-165906680D01*
X109857142Y-165906680D02*
X109999999Y-165954299D01*
X109999999Y-165954299D02*
X110238094Y-165954299D01*
X108809523Y-164954299D02*
X108999999Y-164954299D01*
X108999999Y-164954299D02*
X109095237Y-165001918D01*
X109095237Y-165001918D02*
X109142856Y-165049537D01*
X109142856Y-165049537D02*
X109238094Y-165192394D01*
X109238094Y-165192394D02*
X109285713Y-165382870D01*
X109285713Y-165382870D02*
X109285713Y-165763822D01*
X109285713Y-165763822D02*
X109238094Y-165859060D01*
X109238094Y-165859060D02*
X109190475Y-165906680D01*
X109190475Y-165906680D02*
X109095237Y-165954299D01*
X109095237Y-165954299D02*
X108904761Y-165954299D01*
X108904761Y-165954299D02*
X108809523Y-165906680D01*
X108809523Y-165906680D02*
X108761904Y-165859060D01*
X108761904Y-165859060D02*
X108714285Y-165763822D01*
X108714285Y-165763822D02*
X108714285Y-165525727D01*
X108714285Y-165525727D02*
X108761904Y-165430489D01*
X108761904Y-165430489D02*
X108809523Y-165382870D01*
X108809523Y-165382870D02*
X108904761Y-165335251D01*
X108904761Y-165335251D02*
X109095237Y-165335251D01*
X109095237Y-165335251D02*
X109190475Y-165382870D01*
X109190475Y-165382870D02*
X109238094Y-165430489D01*
X109238094Y-165430489D02*
X109285713Y-165525727D01*
X91714285Y-121954299D02*
X91714285Y-120954299D01*
X91714285Y-120954299D02*
X91476190Y-120954299D01*
X91476190Y-120954299D02*
X91333333Y-121001918D01*
X91333333Y-121001918D02*
X91238095Y-121097156D01*
X91238095Y-121097156D02*
X91190476Y-121192394D01*
X91190476Y-121192394D02*
X91142857Y-121382870D01*
X91142857Y-121382870D02*
X91142857Y-121525727D01*
X91142857Y-121525727D02*
X91190476Y-121716203D01*
X91190476Y-121716203D02*
X91238095Y-121811441D01*
X91238095Y-121811441D02*
X91333333Y-121906680D01*
X91333333Y-121906680D02*
X91476190Y-121954299D01*
X91476190Y-121954299D02*
X91714285Y-121954299D01*
X90190476Y-121954299D02*
X90761904Y-121954299D01*
X90476190Y-121954299D02*
X90476190Y-120954299D01*
X90476190Y-120954299D02*
X90571428Y-121097156D01*
X90571428Y-121097156D02*
X90666666Y-121192394D01*
X90666666Y-121192394D02*
X90761904Y-121240013D01*
X89809523Y-121049537D02*
X89761904Y-121001918D01*
X89761904Y-121001918D02*
X89666666Y-120954299D01*
X89666666Y-120954299D02*
X89428571Y-120954299D01*
X89428571Y-120954299D02*
X89333333Y-121001918D01*
X89333333Y-121001918D02*
X89285714Y-121049537D01*
X89285714Y-121049537D02*
X89238095Y-121144775D01*
X89238095Y-121144775D02*
X89238095Y-121240013D01*
X89238095Y-121240013D02*
X89285714Y-121382870D01*
X89285714Y-121382870D02*
X89857142Y-121954299D01*
X89857142Y-121954299D02*
X89238095Y-121954299D01*
X101333332Y-209906680D02*
X101190475Y-209954299D01*
X101190475Y-209954299D02*
X100952380Y-209954299D01*
X100952380Y-209954299D02*
X100857142Y-209906680D01*
X100857142Y-209906680D02*
X100809523Y-209859060D01*
X100809523Y-209859060D02*
X100761904Y-209763822D01*
X100761904Y-209763822D02*
X100761904Y-209668584D01*
X100761904Y-209668584D02*
X100809523Y-209573346D01*
X100809523Y-209573346D02*
X100857142Y-209525727D01*
X100857142Y-209525727D02*
X100952380Y-209478108D01*
X100952380Y-209478108D02*
X101142856Y-209430489D01*
X101142856Y-209430489D02*
X101238094Y-209382870D01*
X101238094Y-209382870D02*
X101285713Y-209335251D01*
X101285713Y-209335251D02*
X101333332Y-209240013D01*
X101333332Y-209240013D02*
X101333332Y-209144775D01*
X101333332Y-209144775D02*
X101285713Y-209049537D01*
X101285713Y-209049537D02*
X101238094Y-209001918D01*
X101238094Y-209001918D02*
X101142856Y-208954299D01*
X101142856Y-208954299D02*
X100904761Y-208954299D01*
X100904761Y-208954299D02*
X100761904Y-209001918D01*
X100428570Y-208954299D02*
X100190475Y-209954299D01*
X100190475Y-209954299D02*
X99999999Y-209240013D01*
X99999999Y-209240013D02*
X99809523Y-209954299D01*
X99809523Y-209954299D02*
X99571428Y-208954299D01*
X98666666Y-209954299D02*
X99238094Y-209954299D01*
X98952380Y-209954299D02*
X98952380Y-208954299D01*
X98952380Y-208954299D02*
X99047618Y-209097156D01*
X99047618Y-209097156D02*
X99142856Y-209192394D01*
X99142856Y-209192394D02*
X99238094Y-209240013D01*
X91714285Y-165954299D02*
X91714285Y-164954299D01*
X91714285Y-164954299D02*
X91476190Y-164954299D01*
X91476190Y-164954299D02*
X91333333Y-165001918D01*
X91333333Y-165001918D02*
X91238095Y-165097156D01*
X91238095Y-165097156D02*
X91190476Y-165192394D01*
X91190476Y-165192394D02*
X91142857Y-165382870D01*
X91142857Y-165382870D02*
X91142857Y-165525727D01*
X91142857Y-165525727D02*
X91190476Y-165716203D01*
X91190476Y-165716203D02*
X91238095Y-165811441D01*
X91238095Y-165811441D02*
X91333333Y-165906680D01*
X91333333Y-165906680D02*
X91476190Y-165954299D01*
X91476190Y-165954299D02*
X91714285Y-165954299D01*
X90190476Y-165954299D02*
X90761904Y-165954299D01*
X90476190Y-165954299D02*
X90476190Y-164954299D01*
X90476190Y-164954299D02*
X90571428Y-165097156D01*
X90571428Y-165097156D02*
X90666666Y-165192394D01*
X90666666Y-165192394D02*
X90761904Y-165240013D01*
X89333333Y-165287632D02*
X89333333Y-165954299D01*
X89571428Y-164906680D02*
X89809523Y-165620965D01*
X89809523Y-165620965D02*
X89190476Y-165620965D01*
X101333332Y-121906680D02*
X101190475Y-121954299D01*
X101190475Y-121954299D02*
X100952380Y-121954299D01*
X100952380Y-121954299D02*
X100857142Y-121906680D01*
X100857142Y-121906680D02*
X100809523Y-121859060D01*
X100809523Y-121859060D02*
X100761904Y-121763822D01*
X100761904Y-121763822D02*
X100761904Y-121668584D01*
X100761904Y-121668584D02*
X100809523Y-121573346D01*
X100809523Y-121573346D02*
X100857142Y-121525727D01*
X100857142Y-121525727D02*
X100952380Y-121478108D01*
X100952380Y-121478108D02*
X101142856Y-121430489D01*
X101142856Y-121430489D02*
X101238094Y-121382870D01*
X101238094Y-121382870D02*
X101285713Y-121335251D01*
X101285713Y-121335251D02*
X101333332Y-121240013D01*
X101333332Y-121240013D02*
X101333332Y-121144775D01*
X101333332Y-121144775D02*
X101285713Y-121049537D01*
X101285713Y-121049537D02*
X101238094Y-121001918D01*
X101238094Y-121001918D02*
X101142856Y-120954299D01*
X101142856Y-120954299D02*
X100904761Y-120954299D01*
X100904761Y-120954299D02*
X100761904Y-121001918D01*
X100428570Y-120954299D02*
X100190475Y-121954299D01*
X100190475Y-121954299D02*
X99999999Y-121240013D01*
X99999999Y-121240013D02*
X99809523Y-121954299D01*
X99809523Y-121954299D02*
X99571428Y-120954299D01*
X98714285Y-120954299D02*
X99190475Y-120954299D01*
X99190475Y-120954299D02*
X99238094Y-121430489D01*
X99238094Y-121430489D02*
X99190475Y-121382870D01*
X99190475Y-121382870D02*
X99095237Y-121335251D01*
X99095237Y-121335251D02*
X98857142Y-121335251D01*
X98857142Y-121335251D02*
X98761904Y-121382870D01*
X98761904Y-121382870D02*
X98714285Y-121430489D01*
X98714285Y-121430489D02*
X98666666Y-121525727D01*
X98666666Y-121525727D02*
X98666666Y-121763822D01*
X98666666Y-121763822D02*
X98714285Y-121859060D01*
X98714285Y-121859060D02*
X98761904Y-121906680D01*
X98761904Y-121906680D02*
X98857142Y-121954299D01*
X98857142Y-121954299D02*
X99095237Y-121954299D01*
X99095237Y-121954299D02*
X99190475Y-121906680D01*
X99190475Y-121906680D02*
X99238094Y-121859060D01*
X101333332Y-143906680D02*
X101190475Y-143954299D01*
X101190475Y-143954299D02*
X100952380Y-143954299D01*
X100952380Y-143954299D02*
X100857142Y-143906680D01*
X100857142Y-143906680D02*
X100809523Y-143859060D01*
X100809523Y-143859060D02*
X100761904Y-143763822D01*
X100761904Y-143763822D02*
X100761904Y-143668584D01*
X100761904Y-143668584D02*
X100809523Y-143573346D01*
X100809523Y-143573346D02*
X100857142Y-143525727D01*
X100857142Y-143525727D02*
X100952380Y-143478108D01*
X100952380Y-143478108D02*
X101142856Y-143430489D01*
X101142856Y-143430489D02*
X101238094Y-143382870D01*
X101238094Y-143382870D02*
X101285713Y-143335251D01*
X101285713Y-143335251D02*
X101333332Y-143240013D01*
X101333332Y-143240013D02*
X101333332Y-143144775D01*
X101333332Y-143144775D02*
X101285713Y-143049537D01*
X101285713Y-143049537D02*
X101238094Y-143001918D01*
X101238094Y-143001918D02*
X101142856Y-142954299D01*
X101142856Y-142954299D02*
X100904761Y-142954299D01*
X100904761Y-142954299D02*
X100761904Y-143001918D01*
X100428570Y-142954299D02*
X100190475Y-143954299D01*
X100190475Y-143954299D02*
X99999999Y-143240013D01*
X99999999Y-143240013D02*
X99809523Y-143954299D01*
X99809523Y-143954299D02*
X99571428Y-142954299D01*
X98761904Y-143287632D02*
X98761904Y-143954299D01*
X98999999Y-142906680D02*
X99238094Y-143620965D01*
X99238094Y-143620965D02*
X98619047Y-143620965D01*
X110238094Y-77954299D02*
X110238094Y-76954299D01*
X110238094Y-76954299D02*
X109999999Y-76954299D01*
X109999999Y-76954299D02*
X109857142Y-77001918D01*
X109857142Y-77001918D02*
X109761904Y-77097156D01*
X109761904Y-77097156D02*
X109714285Y-77192394D01*
X109714285Y-77192394D02*
X109666666Y-77382870D01*
X109666666Y-77382870D02*
X109666666Y-77525727D01*
X109666666Y-77525727D02*
X109714285Y-77716203D01*
X109714285Y-77716203D02*
X109761904Y-77811441D01*
X109761904Y-77811441D02*
X109857142Y-77906680D01*
X109857142Y-77906680D02*
X109999999Y-77954299D01*
X109999999Y-77954299D02*
X110238094Y-77954299D01*
X109285713Y-77049537D02*
X109238094Y-77001918D01*
X109238094Y-77001918D02*
X109142856Y-76954299D01*
X109142856Y-76954299D02*
X108904761Y-76954299D01*
X108904761Y-76954299D02*
X108809523Y-77001918D01*
X108809523Y-77001918D02*
X108761904Y-77049537D01*
X108761904Y-77049537D02*
X108714285Y-77144775D01*
X108714285Y-77144775D02*
X108714285Y-77240013D01*
X108714285Y-77240013D02*
X108761904Y-77382870D01*
X108761904Y-77382870D02*
X109333332Y-77954299D01*
X109333332Y-77954299D02*
X108714285Y-77954299D01*
X91238094Y-55954299D02*
X91238094Y-54954299D01*
X91238094Y-54954299D02*
X90999999Y-54954299D01*
X90999999Y-54954299D02*
X90857142Y-55001918D01*
X90857142Y-55001918D02*
X90761904Y-55097156D01*
X90761904Y-55097156D02*
X90714285Y-55192394D01*
X90714285Y-55192394D02*
X90666666Y-55382870D01*
X90666666Y-55382870D02*
X90666666Y-55525727D01*
X90666666Y-55525727D02*
X90714285Y-55716203D01*
X90714285Y-55716203D02*
X90761904Y-55811441D01*
X90761904Y-55811441D02*
X90857142Y-55906680D01*
X90857142Y-55906680D02*
X90999999Y-55954299D01*
X90999999Y-55954299D02*
X91238094Y-55954299D01*
X90190475Y-55954299D02*
X89999999Y-55954299D01*
X89999999Y-55954299D02*
X89904761Y-55906680D01*
X89904761Y-55906680D02*
X89857142Y-55859060D01*
X89857142Y-55859060D02*
X89761904Y-55716203D01*
X89761904Y-55716203D02*
X89714285Y-55525727D01*
X89714285Y-55525727D02*
X89714285Y-55144775D01*
X89714285Y-55144775D02*
X89761904Y-55049537D01*
X89761904Y-55049537D02*
X89809523Y-55001918D01*
X89809523Y-55001918D02*
X89904761Y-54954299D01*
X89904761Y-54954299D02*
X90095237Y-54954299D01*
X90095237Y-54954299D02*
X90190475Y-55001918D01*
X90190475Y-55001918D02*
X90238094Y-55049537D01*
X90238094Y-55049537D02*
X90285713Y-55144775D01*
X90285713Y-55144775D02*
X90285713Y-55382870D01*
X90285713Y-55382870D02*
X90238094Y-55478108D01*
X90238094Y-55478108D02*
X90190475Y-55525727D01*
X90190475Y-55525727D02*
X90095237Y-55573346D01*
X90095237Y-55573346D02*
X89904761Y-55573346D01*
X89904761Y-55573346D02*
X89809523Y-55525727D01*
X89809523Y-55525727D02*
X89761904Y-55478108D01*
X89761904Y-55478108D02*
X89714285Y-55382870D01*
X91714285Y-99954299D02*
X91714285Y-98954299D01*
X91714285Y-98954299D02*
X91476190Y-98954299D01*
X91476190Y-98954299D02*
X91333333Y-99001918D01*
X91333333Y-99001918D02*
X91238095Y-99097156D01*
X91238095Y-99097156D02*
X91190476Y-99192394D01*
X91190476Y-99192394D02*
X91142857Y-99382870D01*
X91142857Y-99382870D02*
X91142857Y-99525727D01*
X91142857Y-99525727D02*
X91190476Y-99716203D01*
X91190476Y-99716203D02*
X91238095Y-99811441D01*
X91238095Y-99811441D02*
X91333333Y-99906680D01*
X91333333Y-99906680D02*
X91476190Y-99954299D01*
X91476190Y-99954299D02*
X91714285Y-99954299D01*
X90190476Y-99954299D02*
X90761904Y-99954299D01*
X90476190Y-99954299D02*
X90476190Y-98954299D01*
X90476190Y-98954299D02*
X90571428Y-99097156D01*
X90571428Y-99097156D02*
X90666666Y-99192394D01*
X90666666Y-99192394D02*
X90761904Y-99240013D01*
X89238095Y-99954299D02*
X89809523Y-99954299D01*
X89523809Y-99954299D02*
X89523809Y-98954299D01*
X89523809Y-98954299D02*
X89619047Y-99097156D01*
X89619047Y-99097156D02*
X89714285Y-99192394D01*
X89714285Y-99192394D02*
X89809523Y-99240013D01*
X101333332Y-187906680D02*
X101190475Y-187954299D01*
X101190475Y-187954299D02*
X100952380Y-187954299D01*
X100952380Y-187954299D02*
X100857142Y-187906680D01*
X100857142Y-187906680D02*
X100809523Y-187859060D01*
X100809523Y-187859060D02*
X100761904Y-187763822D01*
X100761904Y-187763822D02*
X100761904Y-187668584D01*
X100761904Y-187668584D02*
X100809523Y-187573346D01*
X100809523Y-187573346D02*
X100857142Y-187525727D01*
X100857142Y-187525727D02*
X100952380Y-187478108D01*
X100952380Y-187478108D02*
X101142856Y-187430489D01*
X101142856Y-187430489D02*
X101238094Y-187382870D01*
X101238094Y-187382870D02*
X101285713Y-187335251D01*
X101285713Y-187335251D02*
X101333332Y-187240013D01*
X101333332Y-187240013D02*
X101333332Y-187144775D01*
X101333332Y-187144775D02*
X101285713Y-187049537D01*
X101285713Y-187049537D02*
X101238094Y-187001918D01*
X101238094Y-187001918D02*
X101142856Y-186954299D01*
X101142856Y-186954299D02*
X100904761Y-186954299D01*
X100904761Y-186954299D02*
X100761904Y-187001918D01*
X100428570Y-186954299D02*
X100190475Y-187954299D01*
X100190475Y-187954299D02*
X99999999Y-187240013D01*
X99999999Y-187240013D02*
X99809523Y-187954299D01*
X99809523Y-187954299D02*
X99571428Y-186954299D01*
X99238094Y-187049537D02*
X99190475Y-187001918D01*
X99190475Y-187001918D02*
X99095237Y-186954299D01*
X99095237Y-186954299D02*
X98857142Y-186954299D01*
X98857142Y-186954299D02*
X98761904Y-187001918D01*
X98761904Y-187001918D02*
X98714285Y-187049537D01*
X98714285Y-187049537D02*
X98666666Y-187144775D01*
X98666666Y-187144775D02*
X98666666Y-187240013D01*
X98666666Y-187240013D02*
X98714285Y-187382870D01*
X98714285Y-187382870D02*
X99285713Y-187954299D01*
X99285713Y-187954299D02*
X98666666Y-187954299D01*
X110238094Y-99954299D02*
X110238094Y-98954299D01*
X110238094Y-98954299D02*
X109999999Y-98954299D01*
X109999999Y-98954299D02*
X109857142Y-99001918D01*
X109857142Y-99001918D02*
X109761904Y-99097156D01*
X109761904Y-99097156D02*
X109714285Y-99192394D01*
X109714285Y-99192394D02*
X109666666Y-99382870D01*
X109666666Y-99382870D02*
X109666666Y-99525727D01*
X109666666Y-99525727D02*
X109714285Y-99716203D01*
X109714285Y-99716203D02*
X109761904Y-99811441D01*
X109761904Y-99811441D02*
X109857142Y-99906680D01*
X109857142Y-99906680D02*
X109999999Y-99954299D01*
X109999999Y-99954299D02*
X110238094Y-99954299D01*
X109333332Y-98954299D02*
X108714285Y-98954299D01*
X108714285Y-98954299D02*
X109047618Y-99335251D01*
X109047618Y-99335251D02*
X108904761Y-99335251D01*
X108904761Y-99335251D02*
X108809523Y-99382870D01*
X108809523Y-99382870D02*
X108761904Y-99430489D01*
X108761904Y-99430489D02*
X108714285Y-99525727D01*
X108714285Y-99525727D02*
X108714285Y-99763822D01*
X108714285Y-99763822D02*
X108761904Y-99859060D01*
X108761904Y-99859060D02*
X108809523Y-99906680D01*
X108809523Y-99906680D02*
X108904761Y-99954299D01*
X108904761Y-99954299D02*
X109190475Y-99954299D01*
X109190475Y-99954299D02*
X109285713Y-99906680D01*
X109285713Y-99906680D02*
X109333332Y-99859060D01*
X91714285Y-187954299D02*
X91714285Y-186954299D01*
X91714285Y-186954299D02*
X91476190Y-186954299D01*
X91476190Y-186954299D02*
X91333333Y-187001918D01*
X91333333Y-187001918D02*
X91238095Y-187097156D01*
X91238095Y-187097156D02*
X91190476Y-187192394D01*
X91190476Y-187192394D02*
X91142857Y-187382870D01*
X91142857Y-187382870D02*
X91142857Y-187525727D01*
X91142857Y-187525727D02*
X91190476Y-187716203D01*
X91190476Y-187716203D02*
X91238095Y-187811441D01*
X91238095Y-187811441D02*
X91333333Y-187906680D01*
X91333333Y-187906680D02*
X91476190Y-187954299D01*
X91476190Y-187954299D02*
X91714285Y-187954299D01*
X90190476Y-187954299D02*
X90761904Y-187954299D01*
X90476190Y-187954299D02*
X90476190Y-186954299D01*
X90476190Y-186954299D02*
X90571428Y-187097156D01*
X90571428Y-187097156D02*
X90666666Y-187192394D01*
X90666666Y-187192394D02*
X90761904Y-187240013D01*
X89285714Y-186954299D02*
X89761904Y-186954299D01*
X89761904Y-186954299D02*
X89809523Y-187430489D01*
X89809523Y-187430489D02*
X89761904Y-187382870D01*
X89761904Y-187382870D02*
X89666666Y-187335251D01*
X89666666Y-187335251D02*
X89428571Y-187335251D01*
X89428571Y-187335251D02*
X89333333Y-187382870D01*
X89333333Y-187382870D02*
X89285714Y-187430489D01*
X89285714Y-187430489D02*
X89238095Y-187525727D01*
X89238095Y-187525727D02*
X89238095Y-187763822D01*
X89238095Y-187763822D02*
X89285714Y-187859060D01*
X89285714Y-187859060D02*
X89333333Y-187906680D01*
X89333333Y-187906680D02*
X89428571Y-187954299D01*
X89428571Y-187954299D02*
X89666666Y-187954299D01*
X89666666Y-187954299D02*
X89761904Y-187906680D01*
X89761904Y-187906680D02*
X89809523Y-187859060D01*
X101333332Y-55906680D02*
X101190475Y-55954299D01*
X101190475Y-55954299D02*
X100952380Y-55954299D01*
X100952380Y-55954299D02*
X100857142Y-55906680D01*
X100857142Y-55906680D02*
X100809523Y-55859060D01*
X100809523Y-55859060D02*
X100761904Y-55763822D01*
X100761904Y-55763822D02*
X100761904Y-55668584D01*
X100761904Y-55668584D02*
X100809523Y-55573346D01*
X100809523Y-55573346D02*
X100857142Y-55525727D01*
X100857142Y-55525727D02*
X100952380Y-55478108D01*
X100952380Y-55478108D02*
X101142856Y-55430489D01*
X101142856Y-55430489D02*
X101238094Y-55382870D01*
X101238094Y-55382870D02*
X101285713Y-55335251D01*
X101285713Y-55335251D02*
X101333332Y-55240013D01*
X101333332Y-55240013D02*
X101333332Y-55144775D01*
X101333332Y-55144775D02*
X101285713Y-55049537D01*
X101285713Y-55049537D02*
X101238094Y-55001918D01*
X101238094Y-55001918D02*
X101142856Y-54954299D01*
X101142856Y-54954299D02*
X100904761Y-54954299D01*
X100904761Y-54954299D02*
X100761904Y-55001918D01*
X100428570Y-54954299D02*
X100190475Y-55954299D01*
X100190475Y-55954299D02*
X99999999Y-55240013D01*
X99999999Y-55240013D02*
X99809523Y-55954299D01*
X99809523Y-55954299D02*
X99571428Y-54954299D01*
X99047618Y-55382870D02*
X99142856Y-55335251D01*
X99142856Y-55335251D02*
X99190475Y-55287632D01*
X99190475Y-55287632D02*
X99238094Y-55192394D01*
X99238094Y-55192394D02*
X99238094Y-55144775D01*
X99238094Y-55144775D02*
X99190475Y-55049537D01*
X99190475Y-55049537D02*
X99142856Y-55001918D01*
X99142856Y-55001918D02*
X99047618Y-54954299D01*
X99047618Y-54954299D02*
X98857142Y-54954299D01*
X98857142Y-54954299D02*
X98761904Y-55001918D01*
X98761904Y-55001918D02*
X98714285Y-55049537D01*
X98714285Y-55049537D02*
X98666666Y-55144775D01*
X98666666Y-55144775D02*
X98666666Y-55192394D01*
X98666666Y-55192394D02*
X98714285Y-55287632D01*
X98714285Y-55287632D02*
X98761904Y-55335251D01*
X98761904Y-55335251D02*
X98857142Y-55382870D01*
X98857142Y-55382870D02*
X99047618Y-55382870D01*
X99047618Y-55382870D02*
X99142856Y-55430489D01*
X99142856Y-55430489D02*
X99190475Y-55478108D01*
X99190475Y-55478108D02*
X99238094Y-55573346D01*
X99238094Y-55573346D02*
X99238094Y-55763822D01*
X99238094Y-55763822D02*
X99190475Y-55859060D01*
X99190475Y-55859060D02*
X99142856Y-55906680D01*
X99142856Y-55906680D02*
X99047618Y-55954299D01*
X99047618Y-55954299D02*
X98857142Y-55954299D01*
X98857142Y-55954299D02*
X98761904Y-55906680D01*
X98761904Y-55906680D02*
X98714285Y-55859060D01*
X98714285Y-55859060D02*
X98666666Y-55763822D01*
X98666666Y-55763822D02*
X98666666Y-55573346D01*
X98666666Y-55573346D02*
X98714285Y-55478108D01*
X98714285Y-55478108D02*
X98761904Y-55430489D01*
X98761904Y-55430489D02*
X98857142Y-55382870D01*
X110238094Y-209954299D02*
X110238094Y-208954299D01*
X110238094Y-208954299D02*
X109999999Y-208954299D01*
X109999999Y-208954299D02*
X109857142Y-209001918D01*
X109857142Y-209001918D02*
X109761904Y-209097156D01*
X109761904Y-209097156D02*
X109714285Y-209192394D01*
X109714285Y-209192394D02*
X109666666Y-209382870D01*
X109666666Y-209382870D02*
X109666666Y-209525727D01*
X109666666Y-209525727D02*
X109714285Y-209716203D01*
X109714285Y-209716203D02*
X109761904Y-209811441D01*
X109761904Y-209811441D02*
X109857142Y-209906680D01*
X109857142Y-209906680D02*
X109999999Y-209954299D01*
X109999999Y-209954299D02*
X110238094Y-209954299D01*
X109095237Y-209382870D02*
X109190475Y-209335251D01*
X109190475Y-209335251D02*
X109238094Y-209287632D01*
X109238094Y-209287632D02*
X109285713Y-209192394D01*
X109285713Y-209192394D02*
X109285713Y-209144775D01*
X109285713Y-209144775D02*
X109238094Y-209049537D01*
X109238094Y-209049537D02*
X109190475Y-209001918D01*
X109190475Y-209001918D02*
X109095237Y-208954299D01*
X109095237Y-208954299D02*
X108904761Y-208954299D01*
X108904761Y-208954299D02*
X108809523Y-209001918D01*
X108809523Y-209001918D02*
X108761904Y-209049537D01*
X108761904Y-209049537D02*
X108714285Y-209144775D01*
X108714285Y-209144775D02*
X108714285Y-209192394D01*
X108714285Y-209192394D02*
X108761904Y-209287632D01*
X108761904Y-209287632D02*
X108809523Y-209335251D01*
X108809523Y-209335251D02*
X108904761Y-209382870D01*
X108904761Y-209382870D02*
X109095237Y-209382870D01*
X109095237Y-209382870D02*
X109190475Y-209430489D01*
X109190475Y-209430489D02*
X109238094Y-209478108D01*
X109238094Y-209478108D02*
X109285713Y-209573346D01*
X109285713Y-209573346D02*
X109285713Y-209763822D01*
X109285713Y-209763822D02*
X109238094Y-209859060D01*
X109238094Y-209859060D02*
X109190475Y-209906680D01*
X109190475Y-209906680D02*
X109095237Y-209954299D01*
X109095237Y-209954299D02*
X108904761Y-209954299D01*
X108904761Y-209954299D02*
X108809523Y-209906680D01*
X108809523Y-209906680D02*
X108761904Y-209859060D01*
X108761904Y-209859060D02*
X108714285Y-209763822D01*
X108714285Y-209763822D02*
X108714285Y-209573346D01*
X108714285Y-209573346D02*
X108761904Y-209478108D01*
X108761904Y-209478108D02*
X108809523Y-209430489D01*
X108809523Y-209430489D02*
X108904761Y-209382870D01*
X91714285Y-209954299D02*
X91714285Y-208954299D01*
X91714285Y-208954299D02*
X91476190Y-208954299D01*
X91476190Y-208954299D02*
X91333333Y-209001918D01*
X91333333Y-209001918D02*
X91238095Y-209097156D01*
X91238095Y-209097156D02*
X91190476Y-209192394D01*
X91190476Y-209192394D02*
X91142857Y-209382870D01*
X91142857Y-209382870D02*
X91142857Y-209525727D01*
X91142857Y-209525727D02*
X91190476Y-209716203D01*
X91190476Y-209716203D02*
X91238095Y-209811441D01*
X91238095Y-209811441D02*
X91333333Y-209906680D01*
X91333333Y-209906680D02*
X91476190Y-209954299D01*
X91476190Y-209954299D02*
X91714285Y-209954299D01*
X90190476Y-209954299D02*
X90761904Y-209954299D01*
X90476190Y-209954299D02*
X90476190Y-208954299D01*
X90476190Y-208954299D02*
X90571428Y-209097156D01*
X90571428Y-209097156D02*
X90666666Y-209192394D01*
X90666666Y-209192394D02*
X90761904Y-209240013D01*
X89333333Y-208954299D02*
X89523809Y-208954299D01*
X89523809Y-208954299D02*
X89619047Y-209001918D01*
X89619047Y-209001918D02*
X89666666Y-209049537D01*
X89666666Y-209049537D02*
X89761904Y-209192394D01*
X89761904Y-209192394D02*
X89809523Y-209382870D01*
X89809523Y-209382870D02*
X89809523Y-209763822D01*
X89809523Y-209763822D02*
X89761904Y-209859060D01*
X89761904Y-209859060D02*
X89714285Y-209906680D01*
X89714285Y-209906680D02*
X89619047Y-209954299D01*
X89619047Y-209954299D02*
X89428571Y-209954299D01*
X89428571Y-209954299D02*
X89333333Y-209906680D01*
X89333333Y-209906680D02*
X89285714Y-209859060D01*
X89285714Y-209859060D02*
X89238095Y-209763822D01*
X89238095Y-209763822D02*
X89238095Y-209525727D01*
X89238095Y-209525727D02*
X89285714Y-209430489D01*
X89285714Y-209430489D02*
X89333333Y-209382870D01*
X89333333Y-209382870D02*
X89428571Y-209335251D01*
X89428571Y-209335251D02*
X89619047Y-209335251D01*
X89619047Y-209335251D02*
X89714285Y-209382870D01*
X89714285Y-209382870D02*
X89761904Y-209430489D01*
X89761904Y-209430489D02*
X89809523Y-209525727D01*
X101333332Y-165906680D02*
X101190475Y-165954299D01*
X101190475Y-165954299D02*
X100952380Y-165954299D01*
X100952380Y-165954299D02*
X100857142Y-165906680D01*
X100857142Y-165906680D02*
X100809523Y-165859060D01*
X100809523Y-165859060D02*
X100761904Y-165763822D01*
X100761904Y-165763822D02*
X100761904Y-165668584D01*
X100761904Y-165668584D02*
X100809523Y-165573346D01*
X100809523Y-165573346D02*
X100857142Y-165525727D01*
X100857142Y-165525727D02*
X100952380Y-165478108D01*
X100952380Y-165478108D02*
X101142856Y-165430489D01*
X101142856Y-165430489D02*
X101238094Y-165382870D01*
X101238094Y-165382870D02*
X101285713Y-165335251D01*
X101285713Y-165335251D02*
X101333332Y-165240013D01*
X101333332Y-165240013D02*
X101333332Y-165144775D01*
X101333332Y-165144775D02*
X101285713Y-165049537D01*
X101285713Y-165049537D02*
X101238094Y-165001918D01*
X101238094Y-165001918D02*
X101142856Y-164954299D01*
X101142856Y-164954299D02*
X100904761Y-164954299D01*
X100904761Y-164954299D02*
X100761904Y-165001918D01*
X100428570Y-164954299D02*
X100190475Y-165954299D01*
X100190475Y-165954299D02*
X99999999Y-165240013D01*
X99999999Y-165240013D02*
X99809523Y-165954299D01*
X99809523Y-165954299D02*
X99571428Y-164954299D01*
X99285713Y-164954299D02*
X98666666Y-164954299D01*
X98666666Y-164954299D02*
X98999999Y-165335251D01*
X98999999Y-165335251D02*
X98857142Y-165335251D01*
X98857142Y-165335251D02*
X98761904Y-165382870D01*
X98761904Y-165382870D02*
X98714285Y-165430489D01*
X98714285Y-165430489D02*
X98666666Y-165525727D01*
X98666666Y-165525727D02*
X98666666Y-165763822D01*
X98666666Y-165763822D02*
X98714285Y-165859060D01*
X98714285Y-165859060D02*
X98761904Y-165906680D01*
X98761904Y-165906680D02*
X98857142Y-165954299D01*
X98857142Y-165954299D02*
X99142856Y-165954299D01*
X99142856Y-165954299D02*
X99238094Y-165906680D01*
X99238094Y-165906680D02*
X99285713Y-165859060D01*
X101333332Y-77906680D02*
X101190475Y-77954299D01*
X101190475Y-77954299D02*
X100952380Y-77954299D01*
X100952380Y-77954299D02*
X100857142Y-77906680D01*
X100857142Y-77906680D02*
X100809523Y-77859060D01*
X100809523Y-77859060D02*
X100761904Y-77763822D01*
X100761904Y-77763822D02*
X100761904Y-77668584D01*
X100761904Y-77668584D02*
X100809523Y-77573346D01*
X100809523Y-77573346D02*
X100857142Y-77525727D01*
X100857142Y-77525727D02*
X100952380Y-77478108D01*
X100952380Y-77478108D02*
X101142856Y-77430489D01*
X101142856Y-77430489D02*
X101238094Y-77382870D01*
X101238094Y-77382870D02*
X101285713Y-77335251D01*
X101285713Y-77335251D02*
X101333332Y-77240013D01*
X101333332Y-77240013D02*
X101333332Y-77144775D01*
X101333332Y-77144775D02*
X101285713Y-77049537D01*
X101285713Y-77049537D02*
X101238094Y-77001918D01*
X101238094Y-77001918D02*
X101142856Y-76954299D01*
X101142856Y-76954299D02*
X100904761Y-76954299D01*
X100904761Y-76954299D02*
X100761904Y-77001918D01*
X100428570Y-76954299D02*
X100190475Y-77954299D01*
X100190475Y-77954299D02*
X99999999Y-77240013D01*
X99999999Y-77240013D02*
X99809523Y-77954299D01*
X99809523Y-77954299D02*
X99571428Y-76954299D01*
X99285713Y-76954299D02*
X98619047Y-76954299D01*
X98619047Y-76954299D02*
X99047618Y-77954299D01*
X110238094Y-187954299D02*
X110238094Y-186954299D01*
X110238094Y-186954299D02*
X109999999Y-186954299D01*
X109999999Y-186954299D02*
X109857142Y-187001918D01*
X109857142Y-187001918D02*
X109761904Y-187097156D01*
X109761904Y-187097156D02*
X109714285Y-187192394D01*
X109714285Y-187192394D02*
X109666666Y-187382870D01*
X109666666Y-187382870D02*
X109666666Y-187525727D01*
X109666666Y-187525727D02*
X109714285Y-187716203D01*
X109714285Y-187716203D02*
X109761904Y-187811441D01*
X109761904Y-187811441D02*
X109857142Y-187906680D01*
X109857142Y-187906680D02*
X109999999Y-187954299D01*
X109999999Y-187954299D02*
X110238094Y-187954299D01*
X109333332Y-186954299D02*
X108666666Y-186954299D01*
X108666666Y-186954299D02*
X109095237Y-187954299D01*
X91714285Y-143954299D02*
X91714285Y-142954299D01*
X91714285Y-142954299D02*
X91476190Y-142954299D01*
X91476190Y-142954299D02*
X91333333Y-143001918D01*
X91333333Y-143001918D02*
X91238095Y-143097156D01*
X91238095Y-143097156D02*
X91190476Y-143192394D01*
X91190476Y-143192394D02*
X91142857Y-143382870D01*
X91142857Y-143382870D02*
X91142857Y-143525727D01*
X91142857Y-143525727D02*
X91190476Y-143716203D01*
X91190476Y-143716203D02*
X91238095Y-143811441D01*
X91238095Y-143811441D02*
X91333333Y-143906680D01*
X91333333Y-143906680D02*
X91476190Y-143954299D01*
X91476190Y-143954299D02*
X91714285Y-143954299D01*
X90190476Y-143954299D02*
X90761904Y-143954299D01*
X90476190Y-143954299D02*
X90476190Y-142954299D01*
X90476190Y-142954299D02*
X90571428Y-143097156D01*
X90571428Y-143097156D02*
X90666666Y-143192394D01*
X90666666Y-143192394D02*
X90761904Y-143240013D01*
X89857142Y-142954299D02*
X89238095Y-142954299D01*
X89238095Y-142954299D02*
X89571428Y-143335251D01*
X89571428Y-143335251D02*
X89428571Y-143335251D01*
X89428571Y-143335251D02*
X89333333Y-143382870D01*
X89333333Y-143382870D02*
X89285714Y-143430489D01*
X89285714Y-143430489D02*
X89238095Y-143525727D01*
X89238095Y-143525727D02*
X89238095Y-143763822D01*
X89238095Y-143763822D02*
X89285714Y-143859060D01*
X89285714Y-143859060D02*
X89333333Y-143906680D01*
X89333333Y-143906680D02*
X89428571Y-143954299D01*
X89428571Y-143954299D02*
X89714285Y-143954299D01*
X89714285Y-143954299D02*
X89809523Y-143906680D01*
X89809523Y-143906680D02*
X89857142Y-143859060D01*
X110238094Y-143954299D02*
X110238094Y-142954299D01*
X110238094Y-142954299D02*
X109999999Y-142954299D01*
X109999999Y-142954299D02*
X109857142Y-143001918D01*
X109857142Y-143001918D02*
X109761904Y-143097156D01*
X109761904Y-143097156D02*
X109714285Y-143192394D01*
X109714285Y-143192394D02*
X109666666Y-143382870D01*
X109666666Y-143382870D02*
X109666666Y-143525727D01*
X109666666Y-143525727D02*
X109714285Y-143716203D01*
X109714285Y-143716203D02*
X109761904Y-143811441D01*
X109761904Y-143811441D02*
X109857142Y-143906680D01*
X109857142Y-143906680D02*
X109999999Y-143954299D01*
X109999999Y-143954299D02*
X110238094Y-143954299D01*
X108761904Y-142954299D02*
X109238094Y-142954299D01*
X109238094Y-142954299D02*
X109285713Y-143430489D01*
X109285713Y-143430489D02*
X109238094Y-143382870D01*
X109238094Y-143382870D02*
X109142856Y-143335251D01*
X109142856Y-143335251D02*
X108904761Y-143335251D01*
X108904761Y-143335251D02*
X108809523Y-143382870D01*
X108809523Y-143382870D02*
X108761904Y-143430489D01*
X108761904Y-143430489D02*
X108714285Y-143525727D01*
X108714285Y-143525727D02*
X108714285Y-143763822D01*
X108714285Y-143763822D02*
X108761904Y-143859060D01*
X108761904Y-143859060D02*
X108809523Y-143906680D01*
X108809523Y-143906680D02*
X108904761Y-143954299D01*
X108904761Y-143954299D02*
X109142856Y-143954299D01*
X109142856Y-143954299D02*
X109238094Y-143906680D01*
X109238094Y-143906680D02*
X109285713Y-143859060D01*
D11*
%TO.C,SW6*%
X96900000Y-101900000D02*
X96900000Y-108100000D01*
X96900000Y-108100000D02*
X98800000Y-108100000D01*
X98800000Y-101900000D02*
X96900000Y-101900000D01*
X101200000Y-108100000D02*
X103100000Y-108100000D01*
X103100000Y-101900000D02*
X101200000Y-101900000D01*
X103100000Y-108100000D02*
X103100000Y-101900000D01*
%TO.C,D4*%
X106750000Y-124500000D02*
X107000000Y-124250000D01*
X106750000Y-129750000D02*
X106750000Y-124500000D01*
X108600000Y-124250000D02*
X110400000Y-124250000D01*
X108600000Y-129750000D02*
X110400000Y-129750000D01*
X112250000Y-129750000D02*
X112250000Y-124250000D01*
%TO.C,D1*%
X106750000Y-58500000D02*
X107000000Y-58250000D01*
X106750000Y-63750000D02*
X106750000Y-58500000D01*
X108600000Y-58250000D02*
X110400000Y-58250000D01*
X108600000Y-63750000D02*
X110400000Y-63750000D01*
X112250000Y-63750000D02*
X112250000Y-58250000D01*
%TO.C,D10*%
X87750000Y-80500000D02*
X88000000Y-80250000D01*
X87750000Y-85750000D02*
X87750000Y-80500000D01*
X89600000Y-80250000D02*
X91400000Y-80250000D01*
X89600000Y-85750000D02*
X91400000Y-85750000D01*
X93250000Y-85750000D02*
X93250000Y-80250000D01*
%TO.C,D6*%
X106750000Y-168500000D02*
X107000000Y-168250000D01*
X106750000Y-173750000D02*
X106750000Y-168500000D01*
X108600000Y-168250000D02*
X110400000Y-168250000D01*
X108600000Y-173750000D02*
X110400000Y-173750000D01*
X112250000Y-173750000D02*
X112250000Y-168250000D01*
%TO.C,D12*%
X87750000Y-124500000D02*
X88000000Y-124250000D01*
X87750000Y-129750000D02*
X87750000Y-124500000D01*
X89600000Y-124250000D02*
X91400000Y-124250000D01*
X89600000Y-129750000D02*
X91400000Y-129750000D01*
X93250000Y-129750000D02*
X93250000Y-124250000D01*
%TO.C,SW1*%
X96900000Y-211900000D02*
X96900000Y-218100000D01*
X96900000Y-218100000D02*
X98800000Y-218100000D01*
X98800000Y-211900000D02*
X96900000Y-211900000D01*
X101200000Y-218100000D02*
X103100000Y-218100000D01*
X103100000Y-211900000D02*
X101200000Y-211900000D01*
X103100000Y-218100000D02*
X103100000Y-211900000D01*
%TO.C,D14*%
X87750000Y-168500000D02*
X88000000Y-168250000D01*
X87750000Y-173750000D02*
X87750000Y-168500000D01*
X89600000Y-168250000D02*
X91400000Y-168250000D01*
X89600000Y-173750000D02*
X91400000Y-173750000D01*
X93250000Y-173750000D02*
X93250000Y-168250000D01*
%TO.C,SW5*%
X96900000Y-123900000D02*
X96900000Y-130100000D01*
X96900000Y-130100000D02*
X98800000Y-130100000D01*
X98800000Y-123900000D02*
X96900000Y-123900000D01*
X101200000Y-130100000D02*
X103100000Y-130100000D01*
X103100000Y-123900000D02*
X101200000Y-123900000D01*
X103100000Y-130100000D02*
X103100000Y-123900000D01*
%TO.C,SW4*%
X96900000Y-145900000D02*
X96900000Y-152100000D01*
X96900000Y-152100000D02*
X98800000Y-152100000D01*
X98800000Y-145900000D02*
X96900000Y-145900000D01*
X101200000Y-152100000D02*
X103100000Y-152100000D01*
X103100000Y-145900000D02*
X101200000Y-145900000D01*
X103100000Y-152100000D02*
X103100000Y-145900000D01*
%TO.C,D2*%
X106750000Y-80500000D02*
X107000000Y-80250000D01*
X106750000Y-85750000D02*
X106750000Y-80500000D01*
X108600000Y-80250000D02*
X110400000Y-80250000D01*
X108600000Y-85750000D02*
X110400000Y-85750000D01*
X112250000Y-85750000D02*
X112250000Y-80250000D01*
%TO.C,D9*%
X87750000Y-58500000D02*
X88000000Y-58250000D01*
X87750000Y-63750000D02*
X87750000Y-58500000D01*
X89600000Y-58250000D02*
X91400000Y-58250000D01*
X89600000Y-63750000D02*
X91400000Y-63750000D01*
X93250000Y-63750000D02*
X93250000Y-58250000D01*
%TO.C,D11*%
X87750000Y-102500000D02*
X88000000Y-102250000D01*
X87750000Y-107750000D02*
X87750000Y-102500000D01*
X89600000Y-102250000D02*
X91400000Y-102250000D01*
X89600000Y-107750000D02*
X91400000Y-107750000D01*
X93250000Y-107750000D02*
X93250000Y-102250000D01*
%TO.C,SW2*%
X96900000Y-189900000D02*
X96900000Y-196100000D01*
X96900000Y-196100000D02*
X98800000Y-196100000D01*
X98800000Y-189900000D02*
X96900000Y-189900000D01*
X101200000Y-196100000D02*
X103100000Y-196100000D01*
X103100000Y-189900000D02*
X101200000Y-189900000D01*
X103100000Y-196100000D02*
X103100000Y-189900000D01*
%TO.C,D3*%
X106750000Y-102500000D02*
X107000000Y-102250000D01*
X106750000Y-107750000D02*
X106750000Y-102500000D01*
X108600000Y-102250000D02*
X110400000Y-102250000D01*
X108600000Y-107750000D02*
X110400000Y-107750000D01*
X112250000Y-107750000D02*
X112250000Y-102250000D01*
%TO.C,D15*%
X87750000Y-190500000D02*
X88000000Y-190250000D01*
X87750000Y-195750000D02*
X87750000Y-190500000D01*
X89600000Y-190250000D02*
X91400000Y-190250000D01*
X89600000Y-195750000D02*
X91400000Y-195750000D01*
X93250000Y-195750000D02*
X93250000Y-190250000D01*
%TO.C,SW8*%
X96900000Y-57900000D02*
X96900000Y-64100000D01*
X96900000Y-64100000D02*
X98800000Y-64100000D01*
X98800000Y-57900000D02*
X96900000Y-57900000D01*
X101200000Y-64100000D02*
X103100000Y-64100000D01*
X103100000Y-57900000D02*
X101200000Y-57900000D01*
X103100000Y-64100000D02*
X103100000Y-57900000D01*
%TO.C,D8*%
X106750000Y-212500000D02*
X107000000Y-212250000D01*
X106750000Y-217750000D02*
X106750000Y-212500000D01*
X108600000Y-212250000D02*
X110400000Y-212250000D01*
X108600000Y-217750000D02*
X110400000Y-217750000D01*
X112250000Y-217750000D02*
X112250000Y-212250000D01*
%TO.C,D16*%
X87750000Y-212500000D02*
X88000000Y-212250000D01*
X87750000Y-217750000D02*
X87750000Y-212500000D01*
X89600000Y-212250000D02*
X91400000Y-212250000D01*
X89600000Y-217750000D02*
X91400000Y-217750000D01*
X93250000Y-217750000D02*
X93250000Y-212250000D01*
%TO.C,SW3*%
X96900000Y-167900000D02*
X96900000Y-174100000D01*
X96900000Y-174100000D02*
X98800000Y-174100000D01*
X98800000Y-167900000D02*
X96900000Y-167900000D01*
X101200000Y-174100000D02*
X103100000Y-174100000D01*
X103100000Y-167900000D02*
X101200000Y-167900000D01*
X103100000Y-174100000D02*
X103100000Y-167900000D01*
%TO.C,SW7*%
X96900000Y-79900000D02*
X96900000Y-86100000D01*
X96900000Y-86100000D02*
X98800000Y-86100000D01*
X98800000Y-79900000D02*
X96900000Y-79900000D01*
X101200000Y-86100000D02*
X103100000Y-86100000D01*
X103100000Y-79900000D02*
X101200000Y-79900000D01*
X103100000Y-86100000D02*
X103100000Y-79900000D01*
%TO.C,D7*%
X106750000Y-190500000D02*
X107000000Y-190250000D01*
X106750000Y-195750000D02*
X106750000Y-190500000D01*
X108600000Y-190250000D02*
X110400000Y-190250000D01*
X108600000Y-195750000D02*
X110400000Y-195750000D01*
X112250000Y-195750000D02*
X112250000Y-190250000D01*
%TO.C,D13*%
X87750000Y-146500000D02*
X88000000Y-146250000D01*
X87750000Y-151750000D02*
X87750000Y-146500000D01*
X89600000Y-146250000D02*
X91400000Y-146250000D01*
X89600000Y-151750000D02*
X91400000Y-151750000D01*
X93250000Y-151750000D02*
X93250000Y-146250000D01*
%TO.C,D5*%
X106750000Y-146500000D02*
X107000000Y-146250000D01*
X106750000Y-151750000D02*
X106750000Y-146500000D01*
X108600000Y-146250000D02*
X110400000Y-146250000D01*
X108600000Y-151750000D02*
X110400000Y-151750000D01*
X112250000Y-151750000D02*
X112250000Y-146250000D01*
%TD*%
M02*
