%TF.GenerationSoftware,KiCad,Pcbnew,9.0.7*%
%TF.CreationDate,2026-04-09T10:36:26+02:00*%
%TF.ProjectId,board2-buttons,626f6172-6432-42d6-9275-74746f6e732e,2*%
%TF.SameCoordinates,Original*%
%TF.FileFunction,AssemblyDrawing,Bot*%
%FSLAX46Y46*%
G04 Gerber Fmt 4.6, Leading zero omitted, Abs format (unit mm)*
G04 Created by KiCad (PCBNEW 9.0.7) date 2026-04-09 10:36:26*
%MOMM*%
%LPD*%
G01*
G04 APERTURE LIST*
%ADD10C,0.150000*%
%ADD11C,0.120000*%
%ADD12C,0.100000*%
G04 APERTURE END LIST*
D10*
X104657200Y-103666667D02*
X104704819Y-103809524D01*
X104704819Y-103809524D02*
X104704819Y-104047619D01*
X104704819Y-104047619D02*
X104657200Y-104142857D01*
X104657200Y-104142857D02*
X104609580Y-104190476D01*
X104609580Y-104190476D02*
X104514342Y-104238095D01*
X104514342Y-104238095D02*
X104419104Y-104238095D01*
X104419104Y-104238095D02*
X104323866Y-104190476D01*
X104323866Y-104190476D02*
X104276247Y-104142857D01*
X104276247Y-104142857D02*
X104228628Y-104047619D01*
X104228628Y-104047619D02*
X104181009Y-103857143D01*
X104181009Y-103857143D02*
X104133390Y-103761905D01*
X104133390Y-103761905D02*
X104085771Y-103714286D01*
X104085771Y-103714286D02*
X103990533Y-103666667D01*
X103990533Y-103666667D02*
X103895295Y-103666667D01*
X103895295Y-103666667D02*
X103800057Y-103714286D01*
X103800057Y-103714286D02*
X103752438Y-103761905D01*
X103752438Y-103761905D02*
X103704819Y-103857143D01*
X103704819Y-103857143D02*
X103704819Y-104095238D01*
X103704819Y-104095238D02*
X103752438Y-104238095D01*
X103704819Y-104571429D02*
X104704819Y-104809524D01*
X104704819Y-104809524D02*
X103990533Y-105000000D01*
X103990533Y-105000000D02*
X104704819Y-105190476D01*
X104704819Y-105190476D02*
X103704819Y-105428572D01*
X103704819Y-106238095D02*
X103704819Y-106047619D01*
X103704819Y-106047619D02*
X103752438Y-105952381D01*
X103752438Y-105952381D02*
X103800057Y-105904762D01*
X103800057Y-105904762D02*
X103942914Y-105809524D01*
X103942914Y-105809524D02*
X104133390Y-105761905D01*
X104133390Y-105761905D02*
X104514342Y-105761905D01*
X104514342Y-105761905D02*
X104609580Y-105809524D01*
X104609580Y-105809524D02*
X104657200Y-105857143D01*
X104657200Y-105857143D02*
X104704819Y-105952381D01*
X104704819Y-105952381D02*
X104704819Y-106142857D01*
X104704819Y-106142857D02*
X104657200Y-106238095D01*
X104657200Y-106238095D02*
X104609580Y-106285714D01*
X104609580Y-106285714D02*
X104514342Y-106333333D01*
X104514342Y-106333333D02*
X104276247Y-106333333D01*
X104276247Y-106333333D02*
X104181009Y-106285714D01*
X104181009Y-106285714D02*
X104133390Y-106238095D01*
X104133390Y-106238095D02*
X104085771Y-106142857D01*
X104085771Y-106142857D02*
X104085771Y-105952381D01*
X104085771Y-105952381D02*
X104133390Y-105857143D01*
X104133390Y-105857143D02*
X104181009Y-105809524D01*
X104181009Y-105809524D02*
X104276247Y-105761905D01*
X113454819Y-120357142D02*
X113454819Y-119880952D01*
X113454819Y-119880952D02*
X112454819Y-119880952D01*
X113454819Y-120690476D02*
X112788152Y-120690476D01*
X112454819Y-120690476D02*
X112502438Y-120642857D01*
X112502438Y-120642857D02*
X112550057Y-120690476D01*
X112550057Y-120690476D02*
X112502438Y-120738095D01*
X112502438Y-120738095D02*
X112454819Y-120690476D01*
X112454819Y-120690476D02*
X112550057Y-120690476D01*
X112788152Y-121023809D02*
X112788152Y-121404761D01*
X112454819Y-121166666D02*
X113311961Y-121166666D01*
X113311961Y-121166666D02*
X113407200Y-121214285D01*
X113407200Y-121214285D02*
X113454819Y-121309523D01*
X113454819Y-121309523D02*
X113454819Y-121404761D01*
X113407200Y-122119047D02*
X113454819Y-122023809D01*
X113454819Y-122023809D02*
X113454819Y-121833333D01*
X113454819Y-121833333D02*
X113407200Y-121738095D01*
X113407200Y-121738095D02*
X113311961Y-121690476D01*
X113311961Y-121690476D02*
X112931009Y-121690476D01*
X112931009Y-121690476D02*
X112835771Y-121738095D01*
X112835771Y-121738095D02*
X112788152Y-121833333D01*
X112788152Y-121833333D02*
X112788152Y-122023809D01*
X112788152Y-122023809D02*
X112835771Y-122119047D01*
X112835771Y-122119047D02*
X112931009Y-122166666D01*
X112931009Y-122166666D02*
X113026247Y-122166666D01*
X113026247Y-122166666D02*
X113121485Y-121690476D01*
X112454819Y-122785714D02*
X112454819Y-122976190D01*
X112454819Y-122976190D02*
X112502438Y-123071428D01*
X112502438Y-123071428D02*
X112597676Y-123166666D01*
X112597676Y-123166666D02*
X112788152Y-123214285D01*
X112788152Y-123214285D02*
X113121485Y-123214285D01*
X113121485Y-123214285D02*
X113311961Y-123166666D01*
X113311961Y-123166666D02*
X113407200Y-123071428D01*
X113407200Y-123071428D02*
X113454819Y-122976190D01*
X113454819Y-122976190D02*
X113454819Y-122785714D01*
X113454819Y-122785714D02*
X113407200Y-122690476D01*
X113407200Y-122690476D02*
X113311961Y-122595238D01*
X113311961Y-122595238D02*
X113121485Y-122547619D01*
X113121485Y-122547619D02*
X112788152Y-122547619D01*
X112788152Y-122547619D02*
X112597676Y-122595238D01*
X112597676Y-122595238D02*
X112502438Y-122690476D01*
X112502438Y-122690476D02*
X112454819Y-122785714D01*
X112788152Y-123642857D02*
X113454819Y-123642857D01*
X112883390Y-123642857D02*
X112835771Y-123690476D01*
X112835771Y-123690476D02*
X112788152Y-123785714D01*
X112788152Y-123785714D02*
X112788152Y-123928571D01*
X112788152Y-123928571D02*
X112835771Y-124023809D01*
X112835771Y-124023809D02*
X112931009Y-124071428D01*
X112931009Y-124071428D02*
X113454819Y-124071428D01*
X113550057Y-124309524D02*
X113550057Y-125071428D01*
X113454819Y-125785714D02*
X113454819Y-125309524D01*
X113454819Y-125309524D02*
X112454819Y-125309524D01*
X112454819Y-125976191D02*
X112454819Y-126547619D01*
X113454819Y-126261905D02*
X112454819Y-126261905D01*
X113407200Y-126833334D02*
X113454819Y-126976191D01*
X113454819Y-126976191D02*
X113454819Y-127214286D01*
X113454819Y-127214286D02*
X113407200Y-127309524D01*
X113407200Y-127309524D02*
X113359580Y-127357143D01*
X113359580Y-127357143D02*
X113264342Y-127404762D01*
X113264342Y-127404762D02*
X113169104Y-127404762D01*
X113169104Y-127404762D02*
X113073866Y-127357143D01*
X113073866Y-127357143D02*
X113026247Y-127309524D01*
X113026247Y-127309524D02*
X112978628Y-127214286D01*
X112978628Y-127214286D02*
X112931009Y-127023810D01*
X112931009Y-127023810D02*
X112883390Y-126928572D01*
X112883390Y-126928572D02*
X112835771Y-126880953D01*
X112835771Y-126880953D02*
X112740533Y-126833334D01*
X112740533Y-126833334D02*
X112645295Y-126833334D01*
X112645295Y-126833334D02*
X112550057Y-126880953D01*
X112550057Y-126880953D02*
X112502438Y-126928572D01*
X112502438Y-126928572D02*
X112454819Y-127023810D01*
X112454819Y-127023810D02*
X112454819Y-127261905D01*
X112454819Y-127261905D02*
X112502438Y-127404762D01*
X112454819Y-127690477D02*
X112454819Y-128261905D01*
X113454819Y-127976191D02*
X112454819Y-127976191D01*
X113073866Y-128595239D02*
X113073866Y-129357144D01*
X112931009Y-129833334D02*
X112931009Y-130166667D01*
X113454819Y-130309524D02*
X113454819Y-129833334D01*
X113454819Y-129833334D02*
X112454819Y-129833334D01*
X112454819Y-129833334D02*
X112454819Y-130309524D01*
X112454819Y-131214286D02*
X112454819Y-130738096D01*
X112454819Y-130738096D02*
X112931009Y-130690477D01*
X112931009Y-130690477D02*
X112883390Y-130738096D01*
X112883390Y-130738096D02*
X112835771Y-130833334D01*
X112835771Y-130833334D02*
X112835771Y-131071429D01*
X112835771Y-131071429D02*
X112883390Y-131166667D01*
X112883390Y-131166667D02*
X112931009Y-131214286D01*
X112931009Y-131214286D02*
X113026247Y-131261905D01*
X113026247Y-131261905D02*
X113264342Y-131261905D01*
X113264342Y-131261905D02*
X113359580Y-131214286D01*
X113359580Y-131214286D02*
X113407200Y-131166667D01*
X113407200Y-131166667D02*
X113454819Y-131071429D01*
X113454819Y-131071429D02*
X113454819Y-130833334D01*
X113454819Y-130833334D02*
X113407200Y-130738096D01*
X113407200Y-130738096D02*
X113359580Y-130690477D01*
X112454819Y-132119048D02*
X112454819Y-131928572D01*
X112454819Y-131928572D02*
X112502438Y-131833334D01*
X112502438Y-131833334D02*
X112550057Y-131785715D01*
X112550057Y-131785715D02*
X112692914Y-131690477D01*
X112692914Y-131690477D02*
X112883390Y-131642858D01*
X112883390Y-131642858D02*
X113264342Y-131642858D01*
X113264342Y-131642858D02*
X113359580Y-131690477D01*
X113359580Y-131690477D02*
X113407200Y-131738096D01*
X113407200Y-131738096D02*
X113454819Y-131833334D01*
X113454819Y-131833334D02*
X113454819Y-132023810D01*
X113454819Y-132023810D02*
X113407200Y-132119048D01*
X113407200Y-132119048D02*
X113359580Y-132166667D01*
X113359580Y-132166667D02*
X113264342Y-132214286D01*
X113264342Y-132214286D02*
X113026247Y-132214286D01*
X113026247Y-132214286D02*
X112931009Y-132166667D01*
X112931009Y-132166667D02*
X112883390Y-132119048D01*
X112883390Y-132119048D02*
X112835771Y-132023810D01*
X112835771Y-132023810D02*
X112835771Y-131833334D01*
X112835771Y-131833334D02*
X112883390Y-131738096D01*
X112883390Y-131738096D02*
X112931009Y-131690477D01*
X112931009Y-131690477D02*
X113026247Y-131642858D01*
X112454819Y-132547620D02*
X112454819Y-133166667D01*
X112454819Y-133166667D02*
X112835771Y-132833334D01*
X112835771Y-132833334D02*
X112835771Y-132976191D01*
X112835771Y-132976191D02*
X112883390Y-133071429D01*
X112883390Y-133071429D02*
X112931009Y-133119048D01*
X112931009Y-133119048D02*
X113026247Y-133166667D01*
X113026247Y-133166667D02*
X113264342Y-133166667D01*
X113264342Y-133166667D02*
X113359580Y-133119048D01*
X113359580Y-133119048D02*
X113407200Y-133071429D01*
X113407200Y-133071429D02*
X113454819Y-132976191D01*
X113454819Y-132976191D02*
X113454819Y-132690477D01*
X113454819Y-132690477D02*
X113407200Y-132595239D01*
X113407200Y-132595239D02*
X113359580Y-132547620D01*
X113359580Y-134166667D02*
X113407200Y-134119048D01*
X113407200Y-134119048D02*
X113454819Y-133976191D01*
X113454819Y-133976191D02*
X113454819Y-133880953D01*
X113454819Y-133880953D02*
X113407200Y-133738096D01*
X113407200Y-133738096D02*
X113311961Y-133642858D01*
X113311961Y-133642858D02*
X113216723Y-133595239D01*
X113216723Y-133595239D02*
X113026247Y-133547620D01*
X113026247Y-133547620D02*
X112883390Y-133547620D01*
X112883390Y-133547620D02*
X112692914Y-133595239D01*
X112692914Y-133595239D02*
X112597676Y-133642858D01*
X112597676Y-133642858D02*
X112502438Y-133738096D01*
X112502438Y-133738096D02*
X112454819Y-133880953D01*
X112454819Y-133880953D02*
X112454819Y-133976191D01*
X112454819Y-133976191D02*
X112502438Y-134119048D01*
X112502438Y-134119048D02*
X112550057Y-134166667D01*
D11*
X109863855Y-126409524D02*
X109063855Y-126409524D01*
X109063855Y-126409524D02*
X109063855Y-126600000D01*
X109063855Y-126600000D02*
X109101950Y-126714286D01*
X109101950Y-126714286D02*
X109178140Y-126790476D01*
X109178140Y-126790476D02*
X109254331Y-126828571D01*
X109254331Y-126828571D02*
X109406712Y-126866667D01*
X109406712Y-126866667D02*
X109520998Y-126866667D01*
X109520998Y-126866667D02*
X109673379Y-126828571D01*
X109673379Y-126828571D02*
X109749569Y-126790476D01*
X109749569Y-126790476D02*
X109825760Y-126714286D01*
X109825760Y-126714286D02*
X109863855Y-126600000D01*
X109863855Y-126600000D02*
X109863855Y-126409524D01*
X109330521Y-127552381D02*
X109863855Y-127552381D01*
X109025760Y-127361905D02*
X109597188Y-127171428D01*
X109597188Y-127171428D02*
X109597188Y-127666667D01*
D10*
X113454819Y-54357142D02*
X113454819Y-53880952D01*
X113454819Y-53880952D02*
X112454819Y-53880952D01*
X113454819Y-54690476D02*
X112788152Y-54690476D01*
X112454819Y-54690476D02*
X112502438Y-54642857D01*
X112502438Y-54642857D02*
X112550057Y-54690476D01*
X112550057Y-54690476D02*
X112502438Y-54738095D01*
X112502438Y-54738095D02*
X112454819Y-54690476D01*
X112454819Y-54690476D02*
X112550057Y-54690476D01*
X112788152Y-55023809D02*
X112788152Y-55404761D01*
X112454819Y-55166666D02*
X113311961Y-55166666D01*
X113311961Y-55166666D02*
X113407200Y-55214285D01*
X113407200Y-55214285D02*
X113454819Y-55309523D01*
X113454819Y-55309523D02*
X113454819Y-55404761D01*
X113407200Y-56119047D02*
X113454819Y-56023809D01*
X113454819Y-56023809D02*
X113454819Y-55833333D01*
X113454819Y-55833333D02*
X113407200Y-55738095D01*
X113407200Y-55738095D02*
X113311961Y-55690476D01*
X113311961Y-55690476D02*
X112931009Y-55690476D01*
X112931009Y-55690476D02*
X112835771Y-55738095D01*
X112835771Y-55738095D02*
X112788152Y-55833333D01*
X112788152Y-55833333D02*
X112788152Y-56023809D01*
X112788152Y-56023809D02*
X112835771Y-56119047D01*
X112835771Y-56119047D02*
X112931009Y-56166666D01*
X112931009Y-56166666D02*
X113026247Y-56166666D01*
X113026247Y-56166666D02*
X113121485Y-55690476D01*
X112454819Y-56785714D02*
X112454819Y-56976190D01*
X112454819Y-56976190D02*
X112502438Y-57071428D01*
X112502438Y-57071428D02*
X112597676Y-57166666D01*
X112597676Y-57166666D02*
X112788152Y-57214285D01*
X112788152Y-57214285D02*
X113121485Y-57214285D01*
X113121485Y-57214285D02*
X113311961Y-57166666D01*
X113311961Y-57166666D02*
X113407200Y-57071428D01*
X113407200Y-57071428D02*
X113454819Y-56976190D01*
X113454819Y-56976190D02*
X113454819Y-56785714D01*
X113454819Y-56785714D02*
X113407200Y-56690476D01*
X113407200Y-56690476D02*
X113311961Y-56595238D01*
X113311961Y-56595238D02*
X113121485Y-56547619D01*
X113121485Y-56547619D02*
X112788152Y-56547619D01*
X112788152Y-56547619D02*
X112597676Y-56595238D01*
X112597676Y-56595238D02*
X112502438Y-56690476D01*
X112502438Y-56690476D02*
X112454819Y-56785714D01*
X112788152Y-57642857D02*
X113454819Y-57642857D01*
X112883390Y-57642857D02*
X112835771Y-57690476D01*
X112835771Y-57690476D02*
X112788152Y-57785714D01*
X112788152Y-57785714D02*
X112788152Y-57928571D01*
X112788152Y-57928571D02*
X112835771Y-58023809D01*
X112835771Y-58023809D02*
X112931009Y-58071428D01*
X112931009Y-58071428D02*
X113454819Y-58071428D01*
X113550057Y-58309524D02*
X113550057Y-59071428D01*
X113454819Y-59785714D02*
X113454819Y-59309524D01*
X113454819Y-59309524D02*
X112454819Y-59309524D01*
X112454819Y-59976191D02*
X112454819Y-60547619D01*
X113454819Y-60261905D02*
X112454819Y-60261905D01*
X113407200Y-60833334D02*
X113454819Y-60976191D01*
X113454819Y-60976191D02*
X113454819Y-61214286D01*
X113454819Y-61214286D02*
X113407200Y-61309524D01*
X113407200Y-61309524D02*
X113359580Y-61357143D01*
X113359580Y-61357143D02*
X113264342Y-61404762D01*
X113264342Y-61404762D02*
X113169104Y-61404762D01*
X113169104Y-61404762D02*
X113073866Y-61357143D01*
X113073866Y-61357143D02*
X113026247Y-61309524D01*
X113026247Y-61309524D02*
X112978628Y-61214286D01*
X112978628Y-61214286D02*
X112931009Y-61023810D01*
X112931009Y-61023810D02*
X112883390Y-60928572D01*
X112883390Y-60928572D02*
X112835771Y-60880953D01*
X112835771Y-60880953D02*
X112740533Y-60833334D01*
X112740533Y-60833334D02*
X112645295Y-60833334D01*
X112645295Y-60833334D02*
X112550057Y-60880953D01*
X112550057Y-60880953D02*
X112502438Y-60928572D01*
X112502438Y-60928572D02*
X112454819Y-61023810D01*
X112454819Y-61023810D02*
X112454819Y-61261905D01*
X112454819Y-61261905D02*
X112502438Y-61404762D01*
X112454819Y-61690477D02*
X112454819Y-62261905D01*
X113454819Y-61976191D02*
X112454819Y-61976191D01*
X113073866Y-62595239D02*
X113073866Y-63357144D01*
X112931009Y-63833334D02*
X112931009Y-64166667D01*
X113454819Y-64309524D02*
X113454819Y-63833334D01*
X113454819Y-63833334D02*
X112454819Y-63833334D01*
X112454819Y-63833334D02*
X112454819Y-64309524D01*
X112454819Y-65214286D02*
X112454819Y-64738096D01*
X112454819Y-64738096D02*
X112931009Y-64690477D01*
X112931009Y-64690477D02*
X112883390Y-64738096D01*
X112883390Y-64738096D02*
X112835771Y-64833334D01*
X112835771Y-64833334D02*
X112835771Y-65071429D01*
X112835771Y-65071429D02*
X112883390Y-65166667D01*
X112883390Y-65166667D02*
X112931009Y-65214286D01*
X112931009Y-65214286D02*
X113026247Y-65261905D01*
X113026247Y-65261905D02*
X113264342Y-65261905D01*
X113264342Y-65261905D02*
X113359580Y-65214286D01*
X113359580Y-65214286D02*
X113407200Y-65166667D01*
X113407200Y-65166667D02*
X113454819Y-65071429D01*
X113454819Y-65071429D02*
X113454819Y-64833334D01*
X113454819Y-64833334D02*
X113407200Y-64738096D01*
X113407200Y-64738096D02*
X113359580Y-64690477D01*
X112454819Y-66119048D02*
X112454819Y-65928572D01*
X112454819Y-65928572D02*
X112502438Y-65833334D01*
X112502438Y-65833334D02*
X112550057Y-65785715D01*
X112550057Y-65785715D02*
X112692914Y-65690477D01*
X112692914Y-65690477D02*
X112883390Y-65642858D01*
X112883390Y-65642858D02*
X113264342Y-65642858D01*
X113264342Y-65642858D02*
X113359580Y-65690477D01*
X113359580Y-65690477D02*
X113407200Y-65738096D01*
X113407200Y-65738096D02*
X113454819Y-65833334D01*
X113454819Y-65833334D02*
X113454819Y-66023810D01*
X113454819Y-66023810D02*
X113407200Y-66119048D01*
X113407200Y-66119048D02*
X113359580Y-66166667D01*
X113359580Y-66166667D02*
X113264342Y-66214286D01*
X113264342Y-66214286D02*
X113026247Y-66214286D01*
X113026247Y-66214286D02*
X112931009Y-66166667D01*
X112931009Y-66166667D02*
X112883390Y-66119048D01*
X112883390Y-66119048D02*
X112835771Y-66023810D01*
X112835771Y-66023810D02*
X112835771Y-65833334D01*
X112835771Y-65833334D02*
X112883390Y-65738096D01*
X112883390Y-65738096D02*
X112931009Y-65690477D01*
X112931009Y-65690477D02*
X113026247Y-65642858D01*
X112454819Y-66547620D02*
X112454819Y-67166667D01*
X112454819Y-67166667D02*
X112835771Y-66833334D01*
X112835771Y-66833334D02*
X112835771Y-66976191D01*
X112835771Y-66976191D02*
X112883390Y-67071429D01*
X112883390Y-67071429D02*
X112931009Y-67119048D01*
X112931009Y-67119048D02*
X113026247Y-67166667D01*
X113026247Y-67166667D02*
X113264342Y-67166667D01*
X113264342Y-67166667D02*
X113359580Y-67119048D01*
X113359580Y-67119048D02*
X113407200Y-67071429D01*
X113407200Y-67071429D02*
X113454819Y-66976191D01*
X113454819Y-66976191D02*
X113454819Y-66690477D01*
X113454819Y-66690477D02*
X113407200Y-66595239D01*
X113407200Y-66595239D02*
X113359580Y-66547620D01*
X113359580Y-68166667D02*
X113407200Y-68119048D01*
X113407200Y-68119048D02*
X113454819Y-67976191D01*
X113454819Y-67976191D02*
X113454819Y-67880953D01*
X113454819Y-67880953D02*
X113407200Y-67738096D01*
X113407200Y-67738096D02*
X113311961Y-67642858D01*
X113311961Y-67642858D02*
X113216723Y-67595239D01*
X113216723Y-67595239D02*
X113026247Y-67547620D01*
X113026247Y-67547620D02*
X112883390Y-67547620D01*
X112883390Y-67547620D02*
X112692914Y-67595239D01*
X112692914Y-67595239D02*
X112597676Y-67642858D01*
X112597676Y-67642858D02*
X112502438Y-67738096D01*
X112502438Y-67738096D02*
X112454819Y-67880953D01*
X112454819Y-67880953D02*
X112454819Y-67976191D01*
X112454819Y-67976191D02*
X112502438Y-68119048D01*
X112502438Y-68119048D02*
X112550057Y-68166667D01*
D11*
X109863855Y-60409524D02*
X109063855Y-60409524D01*
X109063855Y-60409524D02*
X109063855Y-60600000D01*
X109063855Y-60600000D02*
X109101950Y-60714286D01*
X109101950Y-60714286D02*
X109178140Y-60790476D01*
X109178140Y-60790476D02*
X109254331Y-60828571D01*
X109254331Y-60828571D02*
X109406712Y-60866667D01*
X109406712Y-60866667D02*
X109520998Y-60866667D01*
X109520998Y-60866667D02*
X109673379Y-60828571D01*
X109673379Y-60828571D02*
X109749569Y-60790476D01*
X109749569Y-60790476D02*
X109825760Y-60714286D01*
X109825760Y-60714286D02*
X109863855Y-60600000D01*
X109863855Y-60600000D02*
X109863855Y-60409524D01*
X109863855Y-61628571D02*
X109863855Y-61171428D01*
X109863855Y-61400000D02*
X109063855Y-61400000D01*
X109063855Y-61400000D02*
X109178140Y-61323809D01*
X109178140Y-61323809D02*
X109254331Y-61247619D01*
X109254331Y-61247619D02*
X109292426Y-61171428D01*
D10*
X94454819Y-76357142D02*
X94454819Y-75880952D01*
X94454819Y-75880952D02*
X93454819Y-75880952D01*
X94454819Y-76690476D02*
X93788152Y-76690476D01*
X93454819Y-76690476D02*
X93502438Y-76642857D01*
X93502438Y-76642857D02*
X93550057Y-76690476D01*
X93550057Y-76690476D02*
X93502438Y-76738095D01*
X93502438Y-76738095D02*
X93454819Y-76690476D01*
X93454819Y-76690476D02*
X93550057Y-76690476D01*
X93788152Y-77023809D02*
X93788152Y-77404761D01*
X93454819Y-77166666D02*
X94311961Y-77166666D01*
X94311961Y-77166666D02*
X94407200Y-77214285D01*
X94407200Y-77214285D02*
X94454819Y-77309523D01*
X94454819Y-77309523D02*
X94454819Y-77404761D01*
X94407200Y-78119047D02*
X94454819Y-78023809D01*
X94454819Y-78023809D02*
X94454819Y-77833333D01*
X94454819Y-77833333D02*
X94407200Y-77738095D01*
X94407200Y-77738095D02*
X94311961Y-77690476D01*
X94311961Y-77690476D02*
X93931009Y-77690476D01*
X93931009Y-77690476D02*
X93835771Y-77738095D01*
X93835771Y-77738095D02*
X93788152Y-77833333D01*
X93788152Y-77833333D02*
X93788152Y-78023809D01*
X93788152Y-78023809D02*
X93835771Y-78119047D01*
X93835771Y-78119047D02*
X93931009Y-78166666D01*
X93931009Y-78166666D02*
X94026247Y-78166666D01*
X94026247Y-78166666D02*
X94121485Y-77690476D01*
X93454819Y-78785714D02*
X93454819Y-78976190D01*
X93454819Y-78976190D02*
X93502438Y-79071428D01*
X93502438Y-79071428D02*
X93597676Y-79166666D01*
X93597676Y-79166666D02*
X93788152Y-79214285D01*
X93788152Y-79214285D02*
X94121485Y-79214285D01*
X94121485Y-79214285D02*
X94311961Y-79166666D01*
X94311961Y-79166666D02*
X94407200Y-79071428D01*
X94407200Y-79071428D02*
X94454819Y-78976190D01*
X94454819Y-78976190D02*
X94454819Y-78785714D01*
X94454819Y-78785714D02*
X94407200Y-78690476D01*
X94407200Y-78690476D02*
X94311961Y-78595238D01*
X94311961Y-78595238D02*
X94121485Y-78547619D01*
X94121485Y-78547619D02*
X93788152Y-78547619D01*
X93788152Y-78547619D02*
X93597676Y-78595238D01*
X93597676Y-78595238D02*
X93502438Y-78690476D01*
X93502438Y-78690476D02*
X93454819Y-78785714D01*
X93788152Y-79642857D02*
X94454819Y-79642857D01*
X93883390Y-79642857D02*
X93835771Y-79690476D01*
X93835771Y-79690476D02*
X93788152Y-79785714D01*
X93788152Y-79785714D02*
X93788152Y-79928571D01*
X93788152Y-79928571D02*
X93835771Y-80023809D01*
X93835771Y-80023809D02*
X93931009Y-80071428D01*
X93931009Y-80071428D02*
X94454819Y-80071428D01*
X94550057Y-80309524D02*
X94550057Y-81071428D01*
X94454819Y-81785714D02*
X94454819Y-81309524D01*
X94454819Y-81309524D02*
X93454819Y-81309524D01*
X93454819Y-81976191D02*
X93454819Y-82547619D01*
X94454819Y-82261905D02*
X93454819Y-82261905D01*
X94407200Y-82833334D02*
X94454819Y-82976191D01*
X94454819Y-82976191D02*
X94454819Y-83214286D01*
X94454819Y-83214286D02*
X94407200Y-83309524D01*
X94407200Y-83309524D02*
X94359580Y-83357143D01*
X94359580Y-83357143D02*
X94264342Y-83404762D01*
X94264342Y-83404762D02*
X94169104Y-83404762D01*
X94169104Y-83404762D02*
X94073866Y-83357143D01*
X94073866Y-83357143D02*
X94026247Y-83309524D01*
X94026247Y-83309524D02*
X93978628Y-83214286D01*
X93978628Y-83214286D02*
X93931009Y-83023810D01*
X93931009Y-83023810D02*
X93883390Y-82928572D01*
X93883390Y-82928572D02*
X93835771Y-82880953D01*
X93835771Y-82880953D02*
X93740533Y-82833334D01*
X93740533Y-82833334D02*
X93645295Y-82833334D01*
X93645295Y-82833334D02*
X93550057Y-82880953D01*
X93550057Y-82880953D02*
X93502438Y-82928572D01*
X93502438Y-82928572D02*
X93454819Y-83023810D01*
X93454819Y-83023810D02*
X93454819Y-83261905D01*
X93454819Y-83261905D02*
X93502438Y-83404762D01*
X93454819Y-83690477D02*
X93454819Y-84261905D01*
X94454819Y-83976191D02*
X93454819Y-83976191D01*
X94073866Y-84595239D02*
X94073866Y-85357144D01*
X93931009Y-85833334D02*
X93931009Y-86166667D01*
X94454819Y-86309524D02*
X94454819Y-85833334D01*
X94454819Y-85833334D02*
X93454819Y-85833334D01*
X93454819Y-85833334D02*
X93454819Y-86309524D01*
X93454819Y-87214286D02*
X93454819Y-86738096D01*
X93454819Y-86738096D02*
X93931009Y-86690477D01*
X93931009Y-86690477D02*
X93883390Y-86738096D01*
X93883390Y-86738096D02*
X93835771Y-86833334D01*
X93835771Y-86833334D02*
X93835771Y-87071429D01*
X93835771Y-87071429D02*
X93883390Y-87166667D01*
X93883390Y-87166667D02*
X93931009Y-87214286D01*
X93931009Y-87214286D02*
X94026247Y-87261905D01*
X94026247Y-87261905D02*
X94264342Y-87261905D01*
X94264342Y-87261905D02*
X94359580Y-87214286D01*
X94359580Y-87214286D02*
X94407200Y-87166667D01*
X94407200Y-87166667D02*
X94454819Y-87071429D01*
X94454819Y-87071429D02*
X94454819Y-86833334D01*
X94454819Y-86833334D02*
X94407200Y-86738096D01*
X94407200Y-86738096D02*
X94359580Y-86690477D01*
X93454819Y-88119048D02*
X93454819Y-87928572D01*
X93454819Y-87928572D02*
X93502438Y-87833334D01*
X93502438Y-87833334D02*
X93550057Y-87785715D01*
X93550057Y-87785715D02*
X93692914Y-87690477D01*
X93692914Y-87690477D02*
X93883390Y-87642858D01*
X93883390Y-87642858D02*
X94264342Y-87642858D01*
X94264342Y-87642858D02*
X94359580Y-87690477D01*
X94359580Y-87690477D02*
X94407200Y-87738096D01*
X94407200Y-87738096D02*
X94454819Y-87833334D01*
X94454819Y-87833334D02*
X94454819Y-88023810D01*
X94454819Y-88023810D02*
X94407200Y-88119048D01*
X94407200Y-88119048D02*
X94359580Y-88166667D01*
X94359580Y-88166667D02*
X94264342Y-88214286D01*
X94264342Y-88214286D02*
X94026247Y-88214286D01*
X94026247Y-88214286D02*
X93931009Y-88166667D01*
X93931009Y-88166667D02*
X93883390Y-88119048D01*
X93883390Y-88119048D02*
X93835771Y-88023810D01*
X93835771Y-88023810D02*
X93835771Y-87833334D01*
X93835771Y-87833334D02*
X93883390Y-87738096D01*
X93883390Y-87738096D02*
X93931009Y-87690477D01*
X93931009Y-87690477D02*
X94026247Y-87642858D01*
X93454819Y-88547620D02*
X93454819Y-89166667D01*
X93454819Y-89166667D02*
X93835771Y-88833334D01*
X93835771Y-88833334D02*
X93835771Y-88976191D01*
X93835771Y-88976191D02*
X93883390Y-89071429D01*
X93883390Y-89071429D02*
X93931009Y-89119048D01*
X93931009Y-89119048D02*
X94026247Y-89166667D01*
X94026247Y-89166667D02*
X94264342Y-89166667D01*
X94264342Y-89166667D02*
X94359580Y-89119048D01*
X94359580Y-89119048D02*
X94407200Y-89071429D01*
X94407200Y-89071429D02*
X94454819Y-88976191D01*
X94454819Y-88976191D02*
X94454819Y-88690477D01*
X94454819Y-88690477D02*
X94407200Y-88595239D01*
X94407200Y-88595239D02*
X94359580Y-88547620D01*
X94359580Y-90166667D02*
X94407200Y-90119048D01*
X94407200Y-90119048D02*
X94454819Y-89976191D01*
X94454819Y-89976191D02*
X94454819Y-89880953D01*
X94454819Y-89880953D02*
X94407200Y-89738096D01*
X94407200Y-89738096D02*
X94311961Y-89642858D01*
X94311961Y-89642858D02*
X94216723Y-89595239D01*
X94216723Y-89595239D02*
X94026247Y-89547620D01*
X94026247Y-89547620D02*
X93883390Y-89547620D01*
X93883390Y-89547620D02*
X93692914Y-89595239D01*
X93692914Y-89595239D02*
X93597676Y-89642858D01*
X93597676Y-89642858D02*
X93502438Y-89738096D01*
X93502438Y-89738096D02*
X93454819Y-89880953D01*
X93454819Y-89880953D02*
X93454819Y-89976191D01*
X93454819Y-89976191D02*
X93502438Y-90119048D01*
X93502438Y-90119048D02*
X93550057Y-90166667D01*
D11*
X90863855Y-82028571D02*
X90063855Y-82028571D01*
X90063855Y-82028571D02*
X90063855Y-82219047D01*
X90063855Y-82219047D02*
X90101950Y-82333333D01*
X90101950Y-82333333D02*
X90178140Y-82409523D01*
X90178140Y-82409523D02*
X90254331Y-82447618D01*
X90254331Y-82447618D02*
X90406712Y-82485714D01*
X90406712Y-82485714D02*
X90520998Y-82485714D01*
X90520998Y-82485714D02*
X90673379Y-82447618D01*
X90673379Y-82447618D02*
X90749569Y-82409523D01*
X90749569Y-82409523D02*
X90825760Y-82333333D01*
X90825760Y-82333333D02*
X90863855Y-82219047D01*
X90863855Y-82219047D02*
X90863855Y-82028571D01*
X90863855Y-83247618D02*
X90863855Y-82790475D01*
X90863855Y-83019047D02*
X90063855Y-83019047D01*
X90063855Y-83019047D02*
X90178140Y-82942856D01*
X90178140Y-82942856D02*
X90254331Y-82866666D01*
X90254331Y-82866666D02*
X90292426Y-82790475D01*
X90063855Y-83742857D02*
X90063855Y-83819047D01*
X90063855Y-83819047D02*
X90101950Y-83895238D01*
X90101950Y-83895238D02*
X90140045Y-83933333D01*
X90140045Y-83933333D02*
X90216236Y-83971428D01*
X90216236Y-83971428D02*
X90368617Y-84009523D01*
X90368617Y-84009523D02*
X90559093Y-84009523D01*
X90559093Y-84009523D02*
X90711474Y-83971428D01*
X90711474Y-83971428D02*
X90787664Y-83933333D01*
X90787664Y-83933333D02*
X90825760Y-83895238D01*
X90825760Y-83895238D02*
X90863855Y-83819047D01*
X90863855Y-83819047D02*
X90863855Y-83742857D01*
X90863855Y-83742857D02*
X90825760Y-83666666D01*
X90825760Y-83666666D02*
X90787664Y-83628571D01*
X90787664Y-83628571D02*
X90711474Y-83590476D01*
X90711474Y-83590476D02*
X90559093Y-83552380D01*
X90559093Y-83552380D02*
X90368617Y-83552380D01*
X90368617Y-83552380D02*
X90216236Y-83590476D01*
X90216236Y-83590476D02*
X90140045Y-83628571D01*
X90140045Y-83628571D02*
X90101950Y-83666666D01*
X90101950Y-83666666D02*
X90063855Y-83742857D01*
X90463855Y-84189523D02*
X90463855Y-81848571D01*
D10*
X113454819Y-164357142D02*
X113454819Y-163880952D01*
X113454819Y-163880952D02*
X112454819Y-163880952D01*
X113454819Y-164690476D02*
X112788152Y-164690476D01*
X112454819Y-164690476D02*
X112502438Y-164642857D01*
X112502438Y-164642857D02*
X112550057Y-164690476D01*
X112550057Y-164690476D02*
X112502438Y-164738095D01*
X112502438Y-164738095D02*
X112454819Y-164690476D01*
X112454819Y-164690476D02*
X112550057Y-164690476D01*
X112788152Y-165023809D02*
X112788152Y-165404761D01*
X112454819Y-165166666D02*
X113311961Y-165166666D01*
X113311961Y-165166666D02*
X113407200Y-165214285D01*
X113407200Y-165214285D02*
X113454819Y-165309523D01*
X113454819Y-165309523D02*
X113454819Y-165404761D01*
X113407200Y-166119047D02*
X113454819Y-166023809D01*
X113454819Y-166023809D02*
X113454819Y-165833333D01*
X113454819Y-165833333D02*
X113407200Y-165738095D01*
X113407200Y-165738095D02*
X113311961Y-165690476D01*
X113311961Y-165690476D02*
X112931009Y-165690476D01*
X112931009Y-165690476D02*
X112835771Y-165738095D01*
X112835771Y-165738095D02*
X112788152Y-165833333D01*
X112788152Y-165833333D02*
X112788152Y-166023809D01*
X112788152Y-166023809D02*
X112835771Y-166119047D01*
X112835771Y-166119047D02*
X112931009Y-166166666D01*
X112931009Y-166166666D02*
X113026247Y-166166666D01*
X113026247Y-166166666D02*
X113121485Y-165690476D01*
X112454819Y-166785714D02*
X112454819Y-166976190D01*
X112454819Y-166976190D02*
X112502438Y-167071428D01*
X112502438Y-167071428D02*
X112597676Y-167166666D01*
X112597676Y-167166666D02*
X112788152Y-167214285D01*
X112788152Y-167214285D02*
X113121485Y-167214285D01*
X113121485Y-167214285D02*
X113311961Y-167166666D01*
X113311961Y-167166666D02*
X113407200Y-167071428D01*
X113407200Y-167071428D02*
X113454819Y-166976190D01*
X113454819Y-166976190D02*
X113454819Y-166785714D01*
X113454819Y-166785714D02*
X113407200Y-166690476D01*
X113407200Y-166690476D02*
X113311961Y-166595238D01*
X113311961Y-166595238D02*
X113121485Y-166547619D01*
X113121485Y-166547619D02*
X112788152Y-166547619D01*
X112788152Y-166547619D02*
X112597676Y-166595238D01*
X112597676Y-166595238D02*
X112502438Y-166690476D01*
X112502438Y-166690476D02*
X112454819Y-166785714D01*
X112788152Y-167642857D02*
X113454819Y-167642857D01*
X112883390Y-167642857D02*
X112835771Y-167690476D01*
X112835771Y-167690476D02*
X112788152Y-167785714D01*
X112788152Y-167785714D02*
X112788152Y-167928571D01*
X112788152Y-167928571D02*
X112835771Y-168023809D01*
X112835771Y-168023809D02*
X112931009Y-168071428D01*
X112931009Y-168071428D02*
X113454819Y-168071428D01*
X113550057Y-168309524D02*
X113550057Y-169071428D01*
X113454819Y-169785714D02*
X113454819Y-169309524D01*
X113454819Y-169309524D02*
X112454819Y-169309524D01*
X112454819Y-169976191D02*
X112454819Y-170547619D01*
X113454819Y-170261905D02*
X112454819Y-170261905D01*
X113407200Y-170833334D02*
X113454819Y-170976191D01*
X113454819Y-170976191D02*
X113454819Y-171214286D01*
X113454819Y-171214286D02*
X113407200Y-171309524D01*
X113407200Y-171309524D02*
X113359580Y-171357143D01*
X113359580Y-171357143D02*
X113264342Y-171404762D01*
X113264342Y-171404762D02*
X113169104Y-171404762D01*
X113169104Y-171404762D02*
X113073866Y-171357143D01*
X113073866Y-171357143D02*
X113026247Y-171309524D01*
X113026247Y-171309524D02*
X112978628Y-171214286D01*
X112978628Y-171214286D02*
X112931009Y-171023810D01*
X112931009Y-171023810D02*
X112883390Y-170928572D01*
X112883390Y-170928572D02*
X112835771Y-170880953D01*
X112835771Y-170880953D02*
X112740533Y-170833334D01*
X112740533Y-170833334D02*
X112645295Y-170833334D01*
X112645295Y-170833334D02*
X112550057Y-170880953D01*
X112550057Y-170880953D02*
X112502438Y-170928572D01*
X112502438Y-170928572D02*
X112454819Y-171023810D01*
X112454819Y-171023810D02*
X112454819Y-171261905D01*
X112454819Y-171261905D02*
X112502438Y-171404762D01*
X112454819Y-171690477D02*
X112454819Y-172261905D01*
X113454819Y-171976191D02*
X112454819Y-171976191D01*
X113073866Y-172595239D02*
X113073866Y-173357144D01*
X112931009Y-173833334D02*
X112931009Y-174166667D01*
X113454819Y-174309524D02*
X113454819Y-173833334D01*
X113454819Y-173833334D02*
X112454819Y-173833334D01*
X112454819Y-173833334D02*
X112454819Y-174309524D01*
X112454819Y-175214286D02*
X112454819Y-174738096D01*
X112454819Y-174738096D02*
X112931009Y-174690477D01*
X112931009Y-174690477D02*
X112883390Y-174738096D01*
X112883390Y-174738096D02*
X112835771Y-174833334D01*
X112835771Y-174833334D02*
X112835771Y-175071429D01*
X112835771Y-175071429D02*
X112883390Y-175166667D01*
X112883390Y-175166667D02*
X112931009Y-175214286D01*
X112931009Y-175214286D02*
X113026247Y-175261905D01*
X113026247Y-175261905D02*
X113264342Y-175261905D01*
X113264342Y-175261905D02*
X113359580Y-175214286D01*
X113359580Y-175214286D02*
X113407200Y-175166667D01*
X113407200Y-175166667D02*
X113454819Y-175071429D01*
X113454819Y-175071429D02*
X113454819Y-174833334D01*
X113454819Y-174833334D02*
X113407200Y-174738096D01*
X113407200Y-174738096D02*
X113359580Y-174690477D01*
X112454819Y-176119048D02*
X112454819Y-175928572D01*
X112454819Y-175928572D02*
X112502438Y-175833334D01*
X112502438Y-175833334D02*
X112550057Y-175785715D01*
X112550057Y-175785715D02*
X112692914Y-175690477D01*
X112692914Y-175690477D02*
X112883390Y-175642858D01*
X112883390Y-175642858D02*
X113264342Y-175642858D01*
X113264342Y-175642858D02*
X113359580Y-175690477D01*
X113359580Y-175690477D02*
X113407200Y-175738096D01*
X113407200Y-175738096D02*
X113454819Y-175833334D01*
X113454819Y-175833334D02*
X113454819Y-176023810D01*
X113454819Y-176023810D02*
X113407200Y-176119048D01*
X113407200Y-176119048D02*
X113359580Y-176166667D01*
X113359580Y-176166667D02*
X113264342Y-176214286D01*
X113264342Y-176214286D02*
X113026247Y-176214286D01*
X113026247Y-176214286D02*
X112931009Y-176166667D01*
X112931009Y-176166667D02*
X112883390Y-176119048D01*
X112883390Y-176119048D02*
X112835771Y-176023810D01*
X112835771Y-176023810D02*
X112835771Y-175833334D01*
X112835771Y-175833334D02*
X112883390Y-175738096D01*
X112883390Y-175738096D02*
X112931009Y-175690477D01*
X112931009Y-175690477D02*
X113026247Y-175642858D01*
X112454819Y-176547620D02*
X112454819Y-177166667D01*
X112454819Y-177166667D02*
X112835771Y-176833334D01*
X112835771Y-176833334D02*
X112835771Y-176976191D01*
X112835771Y-176976191D02*
X112883390Y-177071429D01*
X112883390Y-177071429D02*
X112931009Y-177119048D01*
X112931009Y-177119048D02*
X113026247Y-177166667D01*
X113026247Y-177166667D02*
X113264342Y-177166667D01*
X113264342Y-177166667D02*
X113359580Y-177119048D01*
X113359580Y-177119048D02*
X113407200Y-177071429D01*
X113407200Y-177071429D02*
X113454819Y-176976191D01*
X113454819Y-176976191D02*
X113454819Y-176690477D01*
X113454819Y-176690477D02*
X113407200Y-176595239D01*
X113407200Y-176595239D02*
X113359580Y-176547620D01*
X113359580Y-178166667D02*
X113407200Y-178119048D01*
X113407200Y-178119048D02*
X113454819Y-177976191D01*
X113454819Y-177976191D02*
X113454819Y-177880953D01*
X113454819Y-177880953D02*
X113407200Y-177738096D01*
X113407200Y-177738096D02*
X113311961Y-177642858D01*
X113311961Y-177642858D02*
X113216723Y-177595239D01*
X113216723Y-177595239D02*
X113026247Y-177547620D01*
X113026247Y-177547620D02*
X112883390Y-177547620D01*
X112883390Y-177547620D02*
X112692914Y-177595239D01*
X112692914Y-177595239D02*
X112597676Y-177642858D01*
X112597676Y-177642858D02*
X112502438Y-177738096D01*
X112502438Y-177738096D02*
X112454819Y-177880953D01*
X112454819Y-177880953D02*
X112454819Y-177976191D01*
X112454819Y-177976191D02*
X112502438Y-178119048D01*
X112502438Y-178119048D02*
X112550057Y-178166667D01*
D11*
X109863855Y-170409524D02*
X109063855Y-170409524D01*
X109063855Y-170409524D02*
X109063855Y-170600000D01*
X109063855Y-170600000D02*
X109101950Y-170714286D01*
X109101950Y-170714286D02*
X109178140Y-170790476D01*
X109178140Y-170790476D02*
X109254331Y-170828571D01*
X109254331Y-170828571D02*
X109406712Y-170866667D01*
X109406712Y-170866667D02*
X109520998Y-170866667D01*
X109520998Y-170866667D02*
X109673379Y-170828571D01*
X109673379Y-170828571D02*
X109749569Y-170790476D01*
X109749569Y-170790476D02*
X109825760Y-170714286D01*
X109825760Y-170714286D02*
X109863855Y-170600000D01*
X109863855Y-170600000D02*
X109863855Y-170409524D01*
X109063855Y-171552381D02*
X109063855Y-171400000D01*
X109063855Y-171400000D02*
X109101950Y-171323809D01*
X109101950Y-171323809D02*
X109140045Y-171285714D01*
X109140045Y-171285714D02*
X109254331Y-171209524D01*
X109254331Y-171209524D02*
X109406712Y-171171428D01*
X109406712Y-171171428D02*
X109711474Y-171171428D01*
X109711474Y-171171428D02*
X109787664Y-171209524D01*
X109787664Y-171209524D02*
X109825760Y-171247619D01*
X109825760Y-171247619D02*
X109863855Y-171323809D01*
X109863855Y-171323809D02*
X109863855Y-171476190D01*
X109863855Y-171476190D02*
X109825760Y-171552381D01*
X109825760Y-171552381D02*
X109787664Y-171590476D01*
X109787664Y-171590476D02*
X109711474Y-171628571D01*
X109711474Y-171628571D02*
X109520998Y-171628571D01*
X109520998Y-171628571D02*
X109444807Y-171590476D01*
X109444807Y-171590476D02*
X109406712Y-171552381D01*
X109406712Y-171552381D02*
X109368617Y-171476190D01*
X109368617Y-171476190D02*
X109368617Y-171323809D01*
X109368617Y-171323809D02*
X109406712Y-171247619D01*
X109406712Y-171247619D02*
X109444807Y-171209524D01*
X109444807Y-171209524D02*
X109520998Y-171171428D01*
D10*
X94454819Y-120357142D02*
X94454819Y-119880952D01*
X94454819Y-119880952D02*
X93454819Y-119880952D01*
X94454819Y-120690476D02*
X93788152Y-120690476D01*
X93454819Y-120690476D02*
X93502438Y-120642857D01*
X93502438Y-120642857D02*
X93550057Y-120690476D01*
X93550057Y-120690476D02*
X93502438Y-120738095D01*
X93502438Y-120738095D02*
X93454819Y-120690476D01*
X93454819Y-120690476D02*
X93550057Y-120690476D01*
X93788152Y-121023809D02*
X93788152Y-121404761D01*
X93454819Y-121166666D02*
X94311961Y-121166666D01*
X94311961Y-121166666D02*
X94407200Y-121214285D01*
X94407200Y-121214285D02*
X94454819Y-121309523D01*
X94454819Y-121309523D02*
X94454819Y-121404761D01*
X94407200Y-122119047D02*
X94454819Y-122023809D01*
X94454819Y-122023809D02*
X94454819Y-121833333D01*
X94454819Y-121833333D02*
X94407200Y-121738095D01*
X94407200Y-121738095D02*
X94311961Y-121690476D01*
X94311961Y-121690476D02*
X93931009Y-121690476D01*
X93931009Y-121690476D02*
X93835771Y-121738095D01*
X93835771Y-121738095D02*
X93788152Y-121833333D01*
X93788152Y-121833333D02*
X93788152Y-122023809D01*
X93788152Y-122023809D02*
X93835771Y-122119047D01*
X93835771Y-122119047D02*
X93931009Y-122166666D01*
X93931009Y-122166666D02*
X94026247Y-122166666D01*
X94026247Y-122166666D02*
X94121485Y-121690476D01*
X93454819Y-122785714D02*
X93454819Y-122976190D01*
X93454819Y-122976190D02*
X93502438Y-123071428D01*
X93502438Y-123071428D02*
X93597676Y-123166666D01*
X93597676Y-123166666D02*
X93788152Y-123214285D01*
X93788152Y-123214285D02*
X94121485Y-123214285D01*
X94121485Y-123214285D02*
X94311961Y-123166666D01*
X94311961Y-123166666D02*
X94407200Y-123071428D01*
X94407200Y-123071428D02*
X94454819Y-122976190D01*
X94454819Y-122976190D02*
X94454819Y-122785714D01*
X94454819Y-122785714D02*
X94407200Y-122690476D01*
X94407200Y-122690476D02*
X94311961Y-122595238D01*
X94311961Y-122595238D02*
X94121485Y-122547619D01*
X94121485Y-122547619D02*
X93788152Y-122547619D01*
X93788152Y-122547619D02*
X93597676Y-122595238D01*
X93597676Y-122595238D02*
X93502438Y-122690476D01*
X93502438Y-122690476D02*
X93454819Y-122785714D01*
X93788152Y-123642857D02*
X94454819Y-123642857D01*
X93883390Y-123642857D02*
X93835771Y-123690476D01*
X93835771Y-123690476D02*
X93788152Y-123785714D01*
X93788152Y-123785714D02*
X93788152Y-123928571D01*
X93788152Y-123928571D02*
X93835771Y-124023809D01*
X93835771Y-124023809D02*
X93931009Y-124071428D01*
X93931009Y-124071428D02*
X94454819Y-124071428D01*
X94550057Y-124309524D02*
X94550057Y-125071428D01*
X94454819Y-125785714D02*
X94454819Y-125309524D01*
X94454819Y-125309524D02*
X93454819Y-125309524D01*
X93454819Y-125976191D02*
X93454819Y-126547619D01*
X94454819Y-126261905D02*
X93454819Y-126261905D01*
X94407200Y-126833334D02*
X94454819Y-126976191D01*
X94454819Y-126976191D02*
X94454819Y-127214286D01*
X94454819Y-127214286D02*
X94407200Y-127309524D01*
X94407200Y-127309524D02*
X94359580Y-127357143D01*
X94359580Y-127357143D02*
X94264342Y-127404762D01*
X94264342Y-127404762D02*
X94169104Y-127404762D01*
X94169104Y-127404762D02*
X94073866Y-127357143D01*
X94073866Y-127357143D02*
X94026247Y-127309524D01*
X94026247Y-127309524D02*
X93978628Y-127214286D01*
X93978628Y-127214286D02*
X93931009Y-127023810D01*
X93931009Y-127023810D02*
X93883390Y-126928572D01*
X93883390Y-126928572D02*
X93835771Y-126880953D01*
X93835771Y-126880953D02*
X93740533Y-126833334D01*
X93740533Y-126833334D02*
X93645295Y-126833334D01*
X93645295Y-126833334D02*
X93550057Y-126880953D01*
X93550057Y-126880953D02*
X93502438Y-126928572D01*
X93502438Y-126928572D02*
X93454819Y-127023810D01*
X93454819Y-127023810D02*
X93454819Y-127261905D01*
X93454819Y-127261905D02*
X93502438Y-127404762D01*
X93454819Y-127690477D02*
X93454819Y-128261905D01*
X94454819Y-127976191D02*
X93454819Y-127976191D01*
X94073866Y-128595239D02*
X94073866Y-129357144D01*
X93931009Y-129833334D02*
X93931009Y-130166667D01*
X94454819Y-130309524D02*
X94454819Y-129833334D01*
X94454819Y-129833334D02*
X93454819Y-129833334D01*
X93454819Y-129833334D02*
X93454819Y-130309524D01*
X93454819Y-131214286D02*
X93454819Y-130738096D01*
X93454819Y-130738096D02*
X93931009Y-130690477D01*
X93931009Y-130690477D02*
X93883390Y-130738096D01*
X93883390Y-130738096D02*
X93835771Y-130833334D01*
X93835771Y-130833334D02*
X93835771Y-131071429D01*
X93835771Y-131071429D02*
X93883390Y-131166667D01*
X93883390Y-131166667D02*
X93931009Y-131214286D01*
X93931009Y-131214286D02*
X94026247Y-131261905D01*
X94026247Y-131261905D02*
X94264342Y-131261905D01*
X94264342Y-131261905D02*
X94359580Y-131214286D01*
X94359580Y-131214286D02*
X94407200Y-131166667D01*
X94407200Y-131166667D02*
X94454819Y-131071429D01*
X94454819Y-131071429D02*
X94454819Y-130833334D01*
X94454819Y-130833334D02*
X94407200Y-130738096D01*
X94407200Y-130738096D02*
X94359580Y-130690477D01*
X93454819Y-132119048D02*
X93454819Y-131928572D01*
X93454819Y-131928572D02*
X93502438Y-131833334D01*
X93502438Y-131833334D02*
X93550057Y-131785715D01*
X93550057Y-131785715D02*
X93692914Y-131690477D01*
X93692914Y-131690477D02*
X93883390Y-131642858D01*
X93883390Y-131642858D02*
X94264342Y-131642858D01*
X94264342Y-131642858D02*
X94359580Y-131690477D01*
X94359580Y-131690477D02*
X94407200Y-131738096D01*
X94407200Y-131738096D02*
X94454819Y-131833334D01*
X94454819Y-131833334D02*
X94454819Y-132023810D01*
X94454819Y-132023810D02*
X94407200Y-132119048D01*
X94407200Y-132119048D02*
X94359580Y-132166667D01*
X94359580Y-132166667D02*
X94264342Y-132214286D01*
X94264342Y-132214286D02*
X94026247Y-132214286D01*
X94026247Y-132214286D02*
X93931009Y-132166667D01*
X93931009Y-132166667D02*
X93883390Y-132119048D01*
X93883390Y-132119048D02*
X93835771Y-132023810D01*
X93835771Y-132023810D02*
X93835771Y-131833334D01*
X93835771Y-131833334D02*
X93883390Y-131738096D01*
X93883390Y-131738096D02*
X93931009Y-131690477D01*
X93931009Y-131690477D02*
X94026247Y-131642858D01*
X93454819Y-132547620D02*
X93454819Y-133166667D01*
X93454819Y-133166667D02*
X93835771Y-132833334D01*
X93835771Y-132833334D02*
X93835771Y-132976191D01*
X93835771Y-132976191D02*
X93883390Y-133071429D01*
X93883390Y-133071429D02*
X93931009Y-133119048D01*
X93931009Y-133119048D02*
X94026247Y-133166667D01*
X94026247Y-133166667D02*
X94264342Y-133166667D01*
X94264342Y-133166667D02*
X94359580Y-133119048D01*
X94359580Y-133119048D02*
X94407200Y-133071429D01*
X94407200Y-133071429D02*
X94454819Y-132976191D01*
X94454819Y-132976191D02*
X94454819Y-132690477D01*
X94454819Y-132690477D02*
X94407200Y-132595239D01*
X94407200Y-132595239D02*
X94359580Y-132547620D01*
X94359580Y-134166667D02*
X94407200Y-134119048D01*
X94407200Y-134119048D02*
X94454819Y-133976191D01*
X94454819Y-133976191D02*
X94454819Y-133880953D01*
X94454819Y-133880953D02*
X94407200Y-133738096D01*
X94407200Y-133738096D02*
X94311961Y-133642858D01*
X94311961Y-133642858D02*
X94216723Y-133595239D01*
X94216723Y-133595239D02*
X94026247Y-133547620D01*
X94026247Y-133547620D02*
X93883390Y-133547620D01*
X93883390Y-133547620D02*
X93692914Y-133595239D01*
X93692914Y-133595239D02*
X93597676Y-133642858D01*
X93597676Y-133642858D02*
X93502438Y-133738096D01*
X93502438Y-133738096D02*
X93454819Y-133880953D01*
X93454819Y-133880953D02*
X93454819Y-133976191D01*
X93454819Y-133976191D02*
X93502438Y-134119048D01*
X93502438Y-134119048D02*
X93550057Y-134166667D01*
D11*
X90863855Y-126028571D02*
X90063855Y-126028571D01*
X90063855Y-126028571D02*
X90063855Y-126219047D01*
X90063855Y-126219047D02*
X90101950Y-126333333D01*
X90101950Y-126333333D02*
X90178140Y-126409523D01*
X90178140Y-126409523D02*
X90254331Y-126447618D01*
X90254331Y-126447618D02*
X90406712Y-126485714D01*
X90406712Y-126485714D02*
X90520998Y-126485714D01*
X90520998Y-126485714D02*
X90673379Y-126447618D01*
X90673379Y-126447618D02*
X90749569Y-126409523D01*
X90749569Y-126409523D02*
X90825760Y-126333333D01*
X90825760Y-126333333D02*
X90863855Y-126219047D01*
X90863855Y-126219047D02*
X90863855Y-126028571D01*
X90863855Y-127247618D02*
X90863855Y-126790475D01*
X90863855Y-127019047D02*
X90063855Y-127019047D01*
X90063855Y-127019047D02*
X90178140Y-126942856D01*
X90178140Y-126942856D02*
X90254331Y-126866666D01*
X90254331Y-126866666D02*
X90292426Y-126790475D01*
X90140045Y-127552380D02*
X90101950Y-127590476D01*
X90101950Y-127590476D02*
X90063855Y-127666666D01*
X90063855Y-127666666D02*
X90063855Y-127857142D01*
X90063855Y-127857142D02*
X90101950Y-127933333D01*
X90101950Y-127933333D02*
X90140045Y-127971428D01*
X90140045Y-127971428D02*
X90216236Y-128009523D01*
X90216236Y-128009523D02*
X90292426Y-128009523D01*
X90292426Y-128009523D02*
X90406712Y-127971428D01*
X90406712Y-127971428D02*
X90863855Y-127514285D01*
X90863855Y-127514285D02*
X90863855Y-128009523D01*
X90463855Y-128189523D02*
X90463855Y-125848571D01*
D10*
X104657200Y-213666667D02*
X104704819Y-213809524D01*
X104704819Y-213809524D02*
X104704819Y-214047619D01*
X104704819Y-214047619D02*
X104657200Y-214142857D01*
X104657200Y-214142857D02*
X104609580Y-214190476D01*
X104609580Y-214190476D02*
X104514342Y-214238095D01*
X104514342Y-214238095D02*
X104419104Y-214238095D01*
X104419104Y-214238095D02*
X104323866Y-214190476D01*
X104323866Y-214190476D02*
X104276247Y-214142857D01*
X104276247Y-214142857D02*
X104228628Y-214047619D01*
X104228628Y-214047619D02*
X104181009Y-213857143D01*
X104181009Y-213857143D02*
X104133390Y-213761905D01*
X104133390Y-213761905D02*
X104085771Y-213714286D01*
X104085771Y-213714286D02*
X103990533Y-213666667D01*
X103990533Y-213666667D02*
X103895295Y-213666667D01*
X103895295Y-213666667D02*
X103800057Y-213714286D01*
X103800057Y-213714286D02*
X103752438Y-213761905D01*
X103752438Y-213761905D02*
X103704819Y-213857143D01*
X103704819Y-213857143D02*
X103704819Y-214095238D01*
X103704819Y-214095238D02*
X103752438Y-214238095D01*
X103704819Y-214571429D02*
X104704819Y-214809524D01*
X104704819Y-214809524D02*
X103990533Y-215000000D01*
X103990533Y-215000000D02*
X104704819Y-215190476D01*
X104704819Y-215190476D02*
X103704819Y-215428572D01*
X104704819Y-216333333D02*
X104704819Y-215761905D01*
X104704819Y-216047619D02*
X103704819Y-216047619D01*
X103704819Y-216047619D02*
X103847676Y-215952381D01*
X103847676Y-215952381D02*
X103942914Y-215857143D01*
X103942914Y-215857143D02*
X103990533Y-215761905D01*
X94454819Y-164357142D02*
X94454819Y-163880952D01*
X94454819Y-163880952D02*
X93454819Y-163880952D01*
X94454819Y-164690476D02*
X93788152Y-164690476D01*
X93454819Y-164690476D02*
X93502438Y-164642857D01*
X93502438Y-164642857D02*
X93550057Y-164690476D01*
X93550057Y-164690476D02*
X93502438Y-164738095D01*
X93502438Y-164738095D02*
X93454819Y-164690476D01*
X93454819Y-164690476D02*
X93550057Y-164690476D01*
X93788152Y-165023809D02*
X93788152Y-165404761D01*
X93454819Y-165166666D02*
X94311961Y-165166666D01*
X94311961Y-165166666D02*
X94407200Y-165214285D01*
X94407200Y-165214285D02*
X94454819Y-165309523D01*
X94454819Y-165309523D02*
X94454819Y-165404761D01*
X94407200Y-166119047D02*
X94454819Y-166023809D01*
X94454819Y-166023809D02*
X94454819Y-165833333D01*
X94454819Y-165833333D02*
X94407200Y-165738095D01*
X94407200Y-165738095D02*
X94311961Y-165690476D01*
X94311961Y-165690476D02*
X93931009Y-165690476D01*
X93931009Y-165690476D02*
X93835771Y-165738095D01*
X93835771Y-165738095D02*
X93788152Y-165833333D01*
X93788152Y-165833333D02*
X93788152Y-166023809D01*
X93788152Y-166023809D02*
X93835771Y-166119047D01*
X93835771Y-166119047D02*
X93931009Y-166166666D01*
X93931009Y-166166666D02*
X94026247Y-166166666D01*
X94026247Y-166166666D02*
X94121485Y-165690476D01*
X93454819Y-166785714D02*
X93454819Y-166976190D01*
X93454819Y-166976190D02*
X93502438Y-167071428D01*
X93502438Y-167071428D02*
X93597676Y-167166666D01*
X93597676Y-167166666D02*
X93788152Y-167214285D01*
X93788152Y-167214285D02*
X94121485Y-167214285D01*
X94121485Y-167214285D02*
X94311961Y-167166666D01*
X94311961Y-167166666D02*
X94407200Y-167071428D01*
X94407200Y-167071428D02*
X94454819Y-166976190D01*
X94454819Y-166976190D02*
X94454819Y-166785714D01*
X94454819Y-166785714D02*
X94407200Y-166690476D01*
X94407200Y-166690476D02*
X94311961Y-166595238D01*
X94311961Y-166595238D02*
X94121485Y-166547619D01*
X94121485Y-166547619D02*
X93788152Y-166547619D01*
X93788152Y-166547619D02*
X93597676Y-166595238D01*
X93597676Y-166595238D02*
X93502438Y-166690476D01*
X93502438Y-166690476D02*
X93454819Y-166785714D01*
X93788152Y-167642857D02*
X94454819Y-167642857D01*
X93883390Y-167642857D02*
X93835771Y-167690476D01*
X93835771Y-167690476D02*
X93788152Y-167785714D01*
X93788152Y-167785714D02*
X93788152Y-167928571D01*
X93788152Y-167928571D02*
X93835771Y-168023809D01*
X93835771Y-168023809D02*
X93931009Y-168071428D01*
X93931009Y-168071428D02*
X94454819Y-168071428D01*
X94550057Y-168309524D02*
X94550057Y-169071428D01*
X94454819Y-169785714D02*
X94454819Y-169309524D01*
X94454819Y-169309524D02*
X93454819Y-169309524D01*
X93454819Y-169976191D02*
X93454819Y-170547619D01*
X94454819Y-170261905D02*
X93454819Y-170261905D01*
X94407200Y-170833334D02*
X94454819Y-170976191D01*
X94454819Y-170976191D02*
X94454819Y-171214286D01*
X94454819Y-171214286D02*
X94407200Y-171309524D01*
X94407200Y-171309524D02*
X94359580Y-171357143D01*
X94359580Y-171357143D02*
X94264342Y-171404762D01*
X94264342Y-171404762D02*
X94169104Y-171404762D01*
X94169104Y-171404762D02*
X94073866Y-171357143D01*
X94073866Y-171357143D02*
X94026247Y-171309524D01*
X94026247Y-171309524D02*
X93978628Y-171214286D01*
X93978628Y-171214286D02*
X93931009Y-171023810D01*
X93931009Y-171023810D02*
X93883390Y-170928572D01*
X93883390Y-170928572D02*
X93835771Y-170880953D01*
X93835771Y-170880953D02*
X93740533Y-170833334D01*
X93740533Y-170833334D02*
X93645295Y-170833334D01*
X93645295Y-170833334D02*
X93550057Y-170880953D01*
X93550057Y-170880953D02*
X93502438Y-170928572D01*
X93502438Y-170928572D02*
X93454819Y-171023810D01*
X93454819Y-171023810D02*
X93454819Y-171261905D01*
X93454819Y-171261905D02*
X93502438Y-171404762D01*
X93454819Y-171690477D02*
X93454819Y-172261905D01*
X94454819Y-171976191D02*
X93454819Y-171976191D01*
X94073866Y-172595239D02*
X94073866Y-173357144D01*
X93931009Y-173833334D02*
X93931009Y-174166667D01*
X94454819Y-174309524D02*
X94454819Y-173833334D01*
X94454819Y-173833334D02*
X93454819Y-173833334D01*
X93454819Y-173833334D02*
X93454819Y-174309524D01*
X93454819Y-175214286D02*
X93454819Y-174738096D01*
X93454819Y-174738096D02*
X93931009Y-174690477D01*
X93931009Y-174690477D02*
X93883390Y-174738096D01*
X93883390Y-174738096D02*
X93835771Y-174833334D01*
X93835771Y-174833334D02*
X93835771Y-175071429D01*
X93835771Y-175071429D02*
X93883390Y-175166667D01*
X93883390Y-175166667D02*
X93931009Y-175214286D01*
X93931009Y-175214286D02*
X94026247Y-175261905D01*
X94026247Y-175261905D02*
X94264342Y-175261905D01*
X94264342Y-175261905D02*
X94359580Y-175214286D01*
X94359580Y-175214286D02*
X94407200Y-175166667D01*
X94407200Y-175166667D02*
X94454819Y-175071429D01*
X94454819Y-175071429D02*
X94454819Y-174833334D01*
X94454819Y-174833334D02*
X94407200Y-174738096D01*
X94407200Y-174738096D02*
X94359580Y-174690477D01*
X93454819Y-176119048D02*
X93454819Y-175928572D01*
X93454819Y-175928572D02*
X93502438Y-175833334D01*
X93502438Y-175833334D02*
X93550057Y-175785715D01*
X93550057Y-175785715D02*
X93692914Y-175690477D01*
X93692914Y-175690477D02*
X93883390Y-175642858D01*
X93883390Y-175642858D02*
X94264342Y-175642858D01*
X94264342Y-175642858D02*
X94359580Y-175690477D01*
X94359580Y-175690477D02*
X94407200Y-175738096D01*
X94407200Y-175738096D02*
X94454819Y-175833334D01*
X94454819Y-175833334D02*
X94454819Y-176023810D01*
X94454819Y-176023810D02*
X94407200Y-176119048D01*
X94407200Y-176119048D02*
X94359580Y-176166667D01*
X94359580Y-176166667D02*
X94264342Y-176214286D01*
X94264342Y-176214286D02*
X94026247Y-176214286D01*
X94026247Y-176214286D02*
X93931009Y-176166667D01*
X93931009Y-176166667D02*
X93883390Y-176119048D01*
X93883390Y-176119048D02*
X93835771Y-176023810D01*
X93835771Y-176023810D02*
X93835771Y-175833334D01*
X93835771Y-175833334D02*
X93883390Y-175738096D01*
X93883390Y-175738096D02*
X93931009Y-175690477D01*
X93931009Y-175690477D02*
X94026247Y-175642858D01*
X93454819Y-176547620D02*
X93454819Y-177166667D01*
X93454819Y-177166667D02*
X93835771Y-176833334D01*
X93835771Y-176833334D02*
X93835771Y-176976191D01*
X93835771Y-176976191D02*
X93883390Y-177071429D01*
X93883390Y-177071429D02*
X93931009Y-177119048D01*
X93931009Y-177119048D02*
X94026247Y-177166667D01*
X94026247Y-177166667D02*
X94264342Y-177166667D01*
X94264342Y-177166667D02*
X94359580Y-177119048D01*
X94359580Y-177119048D02*
X94407200Y-177071429D01*
X94407200Y-177071429D02*
X94454819Y-176976191D01*
X94454819Y-176976191D02*
X94454819Y-176690477D01*
X94454819Y-176690477D02*
X94407200Y-176595239D01*
X94407200Y-176595239D02*
X94359580Y-176547620D01*
X94359580Y-178166667D02*
X94407200Y-178119048D01*
X94407200Y-178119048D02*
X94454819Y-177976191D01*
X94454819Y-177976191D02*
X94454819Y-177880953D01*
X94454819Y-177880953D02*
X94407200Y-177738096D01*
X94407200Y-177738096D02*
X94311961Y-177642858D01*
X94311961Y-177642858D02*
X94216723Y-177595239D01*
X94216723Y-177595239D02*
X94026247Y-177547620D01*
X94026247Y-177547620D02*
X93883390Y-177547620D01*
X93883390Y-177547620D02*
X93692914Y-177595239D01*
X93692914Y-177595239D02*
X93597676Y-177642858D01*
X93597676Y-177642858D02*
X93502438Y-177738096D01*
X93502438Y-177738096D02*
X93454819Y-177880953D01*
X93454819Y-177880953D02*
X93454819Y-177976191D01*
X93454819Y-177976191D02*
X93502438Y-178119048D01*
X93502438Y-178119048D02*
X93550057Y-178166667D01*
D11*
X90863855Y-170028571D02*
X90063855Y-170028571D01*
X90063855Y-170028571D02*
X90063855Y-170219047D01*
X90063855Y-170219047D02*
X90101950Y-170333333D01*
X90101950Y-170333333D02*
X90178140Y-170409523D01*
X90178140Y-170409523D02*
X90254331Y-170447618D01*
X90254331Y-170447618D02*
X90406712Y-170485714D01*
X90406712Y-170485714D02*
X90520998Y-170485714D01*
X90520998Y-170485714D02*
X90673379Y-170447618D01*
X90673379Y-170447618D02*
X90749569Y-170409523D01*
X90749569Y-170409523D02*
X90825760Y-170333333D01*
X90825760Y-170333333D02*
X90863855Y-170219047D01*
X90863855Y-170219047D02*
X90863855Y-170028571D01*
X90863855Y-171247618D02*
X90863855Y-170790475D01*
X90863855Y-171019047D02*
X90063855Y-171019047D01*
X90063855Y-171019047D02*
X90178140Y-170942856D01*
X90178140Y-170942856D02*
X90254331Y-170866666D01*
X90254331Y-170866666D02*
X90292426Y-170790475D01*
X90330521Y-171933333D02*
X90863855Y-171933333D01*
X90025760Y-171742857D02*
X90597188Y-171552380D01*
X90597188Y-171552380D02*
X90597188Y-172047619D01*
X90444883Y-172223052D02*
X90444883Y-169848571D01*
D10*
X104657200Y-125666667D02*
X104704819Y-125809524D01*
X104704819Y-125809524D02*
X104704819Y-126047619D01*
X104704819Y-126047619D02*
X104657200Y-126142857D01*
X104657200Y-126142857D02*
X104609580Y-126190476D01*
X104609580Y-126190476D02*
X104514342Y-126238095D01*
X104514342Y-126238095D02*
X104419104Y-126238095D01*
X104419104Y-126238095D02*
X104323866Y-126190476D01*
X104323866Y-126190476D02*
X104276247Y-126142857D01*
X104276247Y-126142857D02*
X104228628Y-126047619D01*
X104228628Y-126047619D02*
X104181009Y-125857143D01*
X104181009Y-125857143D02*
X104133390Y-125761905D01*
X104133390Y-125761905D02*
X104085771Y-125714286D01*
X104085771Y-125714286D02*
X103990533Y-125666667D01*
X103990533Y-125666667D02*
X103895295Y-125666667D01*
X103895295Y-125666667D02*
X103800057Y-125714286D01*
X103800057Y-125714286D02*
X103752438Y-125761905D01*
X103752438Y-125761905D02*
X103704819Y-125857143D01*
X103704819Y-125857143D02*
X103704819Y-126095238D01*
X103704819Y-126095238D02*
X103752438Y-126238095D01*
X103704819Y-126571429D02*
X104704819Y-126809524D01*
X104704819Y-126809524D02*
X103990533Y-127000000D01*
X103990533Y-127000000D02*
X104704819Y-127190476D01*
X104704819Y-127190476D02*
X103704819Y-127428572D01*
X103704819Y-128285714D02*
X103704819Y-127809524D01*
X103704819Y-127809524D02*
X104181009Y-127761905D01*
X104181009Y-127761905D02*
X104133390Y-127809524D01*
X104133390Y-127809524D02*
X104085771Y-127904762D01*
X104085771Y-127904762D02*
X104085771Y-128142857D01*
X104085771Y-128142857D02*
X104133390Y-128238095D01*
X104133390Y-128238095D02*
X104181009Y-128285714D01*
X104181009Y-128285714D02*
X104276247Y-128333333D01*
X104276247Y-128333333D02*
X104514342Y-128333333D01*
X104514342Y-128333333D02*
X104609580Y-128285714D01*
X104609580Y-128285714D02*
X104657200Y-128238095D01*
X104657200Y-128238095D02*
X104704819Y-128142857D01*
X104704819Y-128142857D02*
X104704819Y-127904762D01*
X104704819Y-127904762D02*
X104657200Y-127809524D01*
X104657200Y-127809524D02*
X104609580Y-127761905D01*
X104657200Y-147666667D02*
X104704819Y-147809524D01*
X104704819Y-147809524D02*
X104704819Y-148047619D01*
X104704819Y-148047619D02*
X104657200Y-148142857D01*
X104657200Y-148142857D02*
X104609580Y-148190476D01*
X104609580Y-148190476D02*
X104514342Y-148238095D01*
X104514342Y-148238095D02*
X104419104Y-148238095D01*
X104419104Y-148238095D02*
X104323866Y-148190476D01*
X104323866Y-148190476D02*
X104276247Y-148142857D01*
X104276247Y-148142857D02*
X104228628Y-148047619D01*
X104228628Y-148047619D02*
X104181009Y-147857143D01*
X104181009Y-147857143D02*
X104133390Y-147761905D01*
X104133390Y-147761905D02*
X104085771Y-147714286D01*
X104085771Y-147714286D02*
X103990533Y-147666667D01*
X103990533Y-147666667D02*
X103895295Y-147666667D01*
X103895295Y-147666667D02*
X103800057Y-147714286D01*
X103800057Y-147714286D02*
X103752438Y-147761905D01*
X103752438Y-147761905D02*
X103704819Y-147857143D01*
X103704819Y-147857143D02*
X103704819Y-148095238D01*
X103704819Y-148095238D02*
X103752438Y-148238095D01*
X103704819Y-148571429D02*
X104704819Y-148809524D01*
X104704819Y-148809524D02*
X103990533Y-149000000D01*
X103990533Y-149000000D02*
X104704819Y-149190476D01*
X104704819Y-149190476D02*
X103704819Y-149428572D01*
X104038152Y-150238095D02*
X104704819Y-150238095D01*
X103657200Y-150000000D02*
X104371485Y-149761905D01*
X104371485Y-149761905D02*
X104371485Y-150380952D01*
X113454819Y-76357142D02*
X113454819Y-75880952D01*
X113454819Y-75880952D02*
X112454819Y-75880952D01*
X113454819Y-76690476D02*
X112788152Y-76690476D01*
X112454819Y-76690476D02*
X112502438Y-76642857D01*
X112502438Y-76642857D02*
X112550057Y-76690476D01*
X112550057Y-76690476D02*
X112502438Y-76738095D01*
X112502438Y-76738095D02*
X112454819Y-76690476D01*
X112454819Y-76690476D02*
X112550057Y-76690476D01*
X112788152Y-77023809D02*
X112788152Y-77404761D01*
X112454819Y-77166666D02*
X113311961Y-77166666D01*
X113311961Y-77166666D02*
X113407200Y-77214285D01*
X113407200Y-77214285D02*
X113454819Y-77309523D01*
X113454819Y-77309523D02*
X113454819Y-77404761D01*
X113407200Y-78119047D02*
X113454819Y-78023809D01*
X113454819Y-78023809D02*
X113454819Y-77833333D01*
X113454819Y-77833333D02*
X113407200Y-77738095D01*
X113407200Y-77738095D02*
X113311961Y-77690476D01*
X113311961Y-77690476D02*
X112931009Y-77690476D01*
X112931009Y-77690476D02*
X112835771Y-77738095D01*
X112835771Y-77738095D02*
X112788152Y-77833333D01*
X112788152Y-77833333D02*
X112788152Y-78023809D01*
X112788152Y-78023809D02*
X112835771Y-78119047D01*
X112835771Y-78119047D02*
X112931009Y-78166666D01*
X112931009Y-78166666D02*
X113026247Y-78166666D01*
X113026247Y-78166666D02*
X113121485Y-77690476D01*
X112454819Y-78785714D02*
X112454819Y-78976190D01*
X112454819Y-78976190D02*
X112502438Y-79071428D01*
X112502438Y-79071428D02*
X112597676Y-79166666D01*
X112597676Y-79166666D02*
X112788152Y-79214285D01*
X112788152Y-79214285D02*
X113121485Y-79214285D01*
X113121485Y-79214285D02*
X113311961Y-79166666D01*
X113311961Y-79166666D02*
X113407200Y-79071428D01*
X113407200Y-79071428D02*
X113454819Y-78976190D01*
X113454819Y-78976190D02*
X113454819Y-78785714D01*
X113454819Y-78785714D02*
X113407200Y-78690476D01*
X113407200Y-78690476D02*
X113311961Y-78595238D01*
X113311961Y-78595238D02*
X113121485Y-78547619D01*
X113121485Y-78547619D02*
X112788152Y-78547619D01*
X112788152Y-78547619D02*
X112597676Y-78595238D01*
X112597676Y-78595238D02*
X112502438Y-78690476D01*
X112502438Y-78690476D02*
X112454819Y-78785714D01*
X112788152Y-79642857D02*
X113454819Y-79642857D01*
X112883390Y-79642857D02*
X112835771Y-79690476D01*
X112835771Y-79690476D02*
X112788152Y-79785714D01*
X112788152Y-79785714D02*
X112788152Y-79928571D01*
X112788152Y-79928571D02*
X112835771Y-80023809D01*
X112835771Y-80023809D02*
X112931009Y-80071428D01*
X112931009Y-80071428D02*
X113454819Y-80071428D01*
X113550057Y-80309524D02*
X113550057Y-81071428D01*
X113454819Y-81785714D02*
X113454819Y-81309524D01*
X113454819Y-81309524D02*
X112454819Y-81309524D01*
X112454819Y-81976191D02*
X112454819Y-82547619D01*
X113454819Y-82261905D02*
X112454819Y-82261905D01*
X113407200Y-82833334D02*
X113454819Y-82976191D01*
X113454819Y-82976191D02*
X113454819Y-83214286D01*
X113454819Y-83214286D02*
X113407200Y-83309524D01*
X113407200Y-83309524D02*
X113359580Y-83357143D01*
X113359580Y-83357143D02*
X113264342Y-83404762D01*
X113264342Y-83404762D02*
X113169104Y-83404762D01*
X113169104Y-83404762D02*
X113073866Y-83357143D01*
X113073866Y-83357143D02*
X113026247Y-83309524D01*
X113026247Y-83309524D02*
X112978628Y-83214286D01*
X112978628Y-83214286D02*
X112931009Y-83023810D01*
X112931009Y-83023810D02*
X112883390Y-82928572D01*
X112883390Y-82928572D02*
X112835771Y-82880953D01*
X112835771Y-82880953D02*
X112740533Y-82833334D01*
X112740533Y-82833334D02*
X112645295Y-82833334D01*
X112645295Y-82833334D02*
X112550057Y-82880953D01*
X112550057Y-82880953D02*
X112502438Y-82928572D01*
X112502438Y-82928572D02*
X112454819Y-83023810D01*
X112454819Y-83023810D02*
X112454819Y-83261905D01*
X112454819Y-83261905D02*
X112502438Y-83404762D01*
X112454819Y-83690477D02*
X112454819Y-84261905D01*
X113454819Y-83976191D02*
X112454819Y-83976191D01*
X113073866Y-84595239D02*
X113073866Y-85357144D01*
X112931009Y-85833334D02*
X112931009Y-86166667D01*
X113454819Y-86309524D02*
X113454819Y-85833334D01*
X113454819Y-85833334D02*
X112454819Y-85833334D01*
X112454819Y-85833334D02*
X112454819Y-86309524D01*
X112454819Y-87214286D02*
X112454819Y-86738096D01*
X112454819Y-86738096D02*
X112931009Y-86690477D01*
X112931009Y-86690477D02*
X112883390Y-86738096D01*
X112883390Y-86738096D02*
X112835771Y-86833334D01*
X112835771Y-86833334D02*
X112835771Y-87071429D01*
X112835771Y-87071429D02*
X112883390Y-87166667D01*
X112883390Y-87166667D02*
X112931009Y-87214286D01*
X112931009Y-87214286D02*
X113026247Y-87261905D01*
X113026247Y-87261905D02*
X113264342Y-87261905D01*
X113264342Y-87261905D02*
X113359580Y-87214286D01*
X113359580Y-87214286D02*
X113407200Y-87166667D01*
X113407200Y-87166667D02*
X113454819Y-87071429D01*
X113454819Y-87071429D02*
X113454819Y-86833334D01*
X113454819Y-86833334D02*
X113407200Y-86738096D01*
X113407200Y-86738096D02*
X113359580Y-86690477D01*
X112454819Y-88119048D02*
X112454819Y-87928572D01*
X112454819Y-87928572D02*
X112502438Y-87833334D01*
X112502438Y-87833334D02*
X112550057Y-87785715D01*
X112550057Y-87785715D02*
X112692914Y-87690477D01*
X112692914Y-87690477D02*
X112883390Y-87642858D01*
X112883390Y-87642858D02*
X113264342Y-87642858D01*
X113264342Y-87642858D02*
X113359580Y-87690477D01*
X113359580Y-87690477D02*
X113407200Y-87738096D01*
X113407200Y-87738096D02*
X113454819Y-87833334D01*
X113454819Y-87833334D02*
X113454819Y-88023810D01*
X113454819Y-88023810D02*
X113407200Y-88119048D01*
X113407200Y-88119048D02*
X113359580Y-88166667D01*
X113359580Y-88166667D02*
X113264342Y-88214286D01*
X113264342Y-88214286D02*
X113026247Y-88214286D01*
X113026247Y-88214286D02*
X112931009Y-88166667D01*
X112931009Y-88166667D02*
X112883390Y-88119048D01*
X112883390Y-88119048D02*
X112835771Y-88023810D01*
X112835771Y-88023810D02*
X112835771Y-87833334D01*
X112835771Y-87833334D02*
X112883390Y-87738096D01*
X112883390Y-87738096D02*
X112931009Y-87690477D01*
X112931009Y-87690477D02*
X113026247Y-87642858D01*
X112454819Y-88547620D02*
X112454819Y-89166667D01*
X112454819Y-89166667D02*
X112835771Y-88833334D01*
X112835771Y-88833334D02*
X112835771Y-88976191D01*
X112835771Y-88976191D02*
X112883390Y-89071429D01*
X112883390Y-89071429D02*
X112931009Y-89119048D01*
X112931009Y-89119048D02*
X113026247Y-89166667D01*
X113026247Y-89166667D02*
X113264342Y-89166667D01*
X113264342Y-89166667D02*
X113359580Y-89119048D01*
X113359580Y-89119048D02*
X113407200Y-89071429D01*
X113407200Y-89071429D02*
X113454819Y-88976191D01*
X113454819Y-88976191D02*
X113454819Y-88690477D01*
X113454819Y-88690477D02*
X113407200Y-88595239D01*
X113407200Y-88595239D02*
X113359580Y-88547620D01*
X113359580Y-90166667D02*
X113407200Y-90119048D01*
X113407200Y-90119048D02*
X113454819Y-89976191D01*
X113454819Y-89976191D02*
X113454819Y-89880953D01*
X113454819Y-89880953D02*
X113407200Y-89738096D01*
X113407200Y-89738096D02*
X113311961Y-89642858D01*
X113311961Y-89642858D02*
X113216723Y-89595239D01*
X113216723Y-89595239D02*
X113026247Y-89547620D01*
X113026247Y-89547620D02*
X112883390Y-89547620D01*
X112883390Y-89547620D02*
X112692914Y-89595239D01*
X112692914Y-89595239D02*
X112597676Y-89642858D01*
X112597676Y-89642858D02*
X112502438Y-89738096D01*
X112502438Y-89738096D02*
X112454819Y-89880953D01*
X112454819Y-89880953D02*
X112454819Y-89976191D01*
X112454819Y-89976191D02*
X112502438Y-90119048D01*
X112502438Y-90119048D02*
X112550057Y-90166667D01*
D11*
X109863855Y-82409524D02*
X109063855Y-82409524D01*
X109063855Y-82409524D02*
X109063855Y-82600000D01*
X109063855Y-82600000D02*
X109101950Y-82714286D01*
X109101950Y-82714286D02*
X109178140Y-82790476D01*
X109178140Y-82790476D02*
X109254331Y-82828571D01*
X109254331Y-82828571D02*
X109406712Y-82866667D01*
X109406712Y-82866667D02*
X109520998Y-82866667D01*
X109520998Y-82866667D02*
X109673379Y-82828571D01*
X109673379Y-82828571D02*
X109749569Y-82790476D01*
X109749569Y-82790476D02*
X109825760Y-82714286D01*
X109825760Y-82714286D02*
X109863855Y-82600000D01*
X109863855Y-82600000D02*
X109863855Y-82409524D01*
X109140045Y-83171428D02*
X109101950Y-83209524D01*
X109101950Y-83209524D02*
X109063855Y-83285714D01*
X109063855Y-83285714D02*
X109063855Y-83476190D01*
X109063855Y-83476190D02*
X109101950Y-83552381D01*
X109101950Y-83552381D02*
X109140045Y-83590476D01*
X109140045Y-83590476D02*
X109216236Y-83628571D01*
X109216236Y-83628571D02*
X109292426Y-83628571D01*
X109292426Y-83628571D02*
X109406712Y-83590476D01*
X109406712Y-83590476D02*
X109863855Y-83133333D01*
X109863855Y-83133333D02*
X109863855Y-83628571D01*
D10*
X94454819Y-54357142D02*
X94454819Y-53880952D01*
X94454819Y-53880952D02*
X93454819Y-53880952D01*
X94454819Y-54690476D02*
X93788152Y-54690476D01*
X93454819Y-54690476D02*
X93502438Y-54642857D01*
X93502438Y-54642857D02*
X93550057Y-54690476D01*
X93550057Y-54690476D02*
X93502438Y-54738095D01*
X93502438Y-54738095D02*
X93454819Y-54690476D01*
X93454819Y-54690476D02*
X93550057Y-54690476D01*
X93788152Y-55023809D02*
X93788152Y-55404761D01*
X93454819Y-55166666D02*
X94311961Y-55166666D01*
X94311961Y-55166666D02*
X94407200Y-55214285D01*
X94407200Y-55214285D02*
X94454819Y-55309523D01*
X94454819Y-55309523D02*
X94454819Y-55404761D01*
X94407200Y-56119047D02*
X94454819Y-56023809D01*
X94454819Y-56023809D02*
X94454819Y-55833333D01*
X94454819Y-55833333D02*
X94407200Y-55738095D01*
X94407200Y-55738095D02*
X94311961Y-55690476D01*
X94311961Y-55690476D02*
X93931009Y-55690476D01*
X93931009Y-55690476D02*
X93835771Y-55738095D01*
X93835771Y-55738095D02*
X93788152Y-55833333D01*
X93788152Y-55833333D02*
X93788152Y-56023809D01*
X93788152Y-56023809D02*
X93835771Y-56119047D01*
X93835771Y-56119047D02*
X93931009Y-56166666D01*
X93931009Y-56166666D02*
X94026247Y-56166666D01*
X94026247Y-56166666D02*
X94121485Y-55690476D01*
X93454819Y-56785714D02*
X93454819Y-56976190D01*
X93454819Y-56976190D02*
X93502438Y-57071428D01*
X93502438Y-57071428D02*
X93597676Y-57166666D01*
X93597676Y-57166666D02*
X93788152Y-57214285D01*
X93788152Y-57214285D02*
X94121485Y-57214285D01*
X94121485Y-57214285D02*
X94311961Y-57166666D01*
X94311961Y-57166666D02*
X94407200Y-57071428D01*
X94407200Y-57071428D02*
X94454819Y-56976190D01*
X94454819Y-56976190D02*
X94454819Y-56785714D01*
X94454819Y-56785714D02*
X94407200Y-56690476D01*
X94407200Y-56690476D02*
X94311961Y-56595238D01*
X94311961Y-56595238D02*
X94121485Y-56547619D01*
X94121485Y-56547619D02*
X93788152Y-56547619D01*
X93788152Y-56547619D02*
X93597676Y-56595238D01*
X93597676Y-56595238D02*
X93502438Y-56690476D01*
X93502438Y-56690476D02*
X93454819Y-56785714D01*
X93788152Y-57642857D02*
X94454819Y-57642857D01*
X93883390Y-57642857D02*
X93835771Y-57690476D01*
X93835771Y-57690476D02*
X93788152Y-57785714D01*
X93788152Y-57785714D02*
X93788152Y-57928571D01*
X93788152Y-57928571D02*
X93835771Y-58023809D01*
X93835771Y-58023809D02*
X93931009Y-58071428D01*
X93931009Y-58071428D02*
X94454819Y-58071428D01*
X94550057Y-58309524D02*
X94550057Y-59071428D01*
X94454819Y-59785714D02*
X94454819Y-59309524D01*
X94454819Y-59309524D02*
X93454819Y-59309524D01*
X93454819Y-59976191D02*
X93454819Y-60547619D01*
X94454819Y-60261905D02*
X93454819Y-60261905D01*
X94407200Y-60833334D02*
X94454819Y-60976191D01*
X94454819Y-60976191D02*
X94454819Y-61214286D01*
X94454819Y-61214286D02*
X94407200Y-61309524D01*
X94407200Y-61309524D02*
X94359580Y-61357143D01*
X94359580Y-61357143D02*
X94264342Y-61404762D01*
X94264342Y-61404762D02*
X94169104Y-61404762D01*
X94169104Y-61404762D02*
X94073866Y-61357143D01*
X94073866Y-61357143D02*
X94026247Y-61309524D01*
X94026247Y-61309524D02*
X93978628Y-61214286D01*
X93978628Y-61214286D02*
X93931009Y-61023810D01*
X93931009Y-61023810D02*
X93883390Y-60928572D01*
X93883390Y-60928572D02*
X93835771Y-60880953D01*
X93835771Y-60880953D02*
X93740533Y-60833334D01*
X93740533Y-60833334D02*
X93645295Y-60833334D01*
X93645295Y-60833334D02*
X93550057Y-60880953D01*
X93550057Y-60880953D02*
X93502438Y-60928572D01*
X93502438Y-60928572D02*
X93454819Y-61023810D01*
X93454819Y-61023810D02*
X93454819Y-61261905D01*
X93454819Y-61261905D02*
X93502438Y-61404762D01*
X93454819Y-61690477D02*
X93454819Y-62261905D01*
X94454819Y-61976191D02*
X93454819Y-61976191D01*
X94073866Y-62595239D02*
X94073866Y-63357144D01*
X93931009Y-63833334D02*
X93931009Y-64166667D01*
X94454819Y-64309524D02*
X94454819Y-63833334D01*
X94454819Y-63833334D02*
X93454819Y-63833334D01*
X93454819Y-63833334D02*
X93454819Y-64309524D01*
X93454819Y-65214286D02*
X93454819Y-64738096D01*
X93454819Y-64738096D02*
X93931009Y-64690477D01*
X93931009Y-64690477D02*
X93883390Y-64738096D01*
X93883390Y-64738096D02*
X93835771Y-64833334D01*
X93835771Y-64833334D02*
X93835771Y-65071429D01*
X93835771Y-65071429D02*
X93883390Y-65166667D01*
X93883390Y-65166667D02*
X93931009Y-65214286D01*
X93931009Y-65214286D02*
X94026247Y-65261905D01*
X94026247Y-65261905D02*
X94264342Y-65261905D01*
X94264342Y-65261905D02*
X94359580Y-65214286D01*
X94359580Y-65214286D02*
X94407200Y-65166667D01*
X94407200Y-65166667D02*
X94454819Y-65071429D01*
X94454819Y-65071429D02*
X94454819Y-64833334D01*
X94454819Y-64833334D02*
X94407200Y-64738096D01*
X94407200Y-64738096D02*
X94359580Y-64690477D01*
X93454819Y-66119048D02*
X93454819Y-65928572D01*
X93454819Y-65928572D02*
X93502438Y-65833334D01*
X93502438Y-65833334D02*
X93550057Y-65785715D01*
X93550057Y-65785715D02*
X93692914Y-65690477D01*
X93692914Y-65690477D02*
X93883390Y-65642858D01*
X93883390Y-65642858D02*
X94264342Y-65642858D01*
X94264342Y-65642858D02*
X94359580Y-65690477D01*
X94359580Y-65690477D02*
X94407200Y-65738096D01*
X94407200Y-65738096D02*
X94454819Y-65833334D01*
X94454819Y-65833334D02*
X94454819Y-66023810D01*
X94454819Y-66023810D02*
X94407200Y-66119048D01*
X94407200Y-66119048D02*
X94359580Y-66166667D01*
X94359580Y-66166667D02*
X94264342Y-66214286D01*
X94264342Y-66214286D02*
X94026247Y-66214286D01*
X94026247Y-66214286D02*
X93931009Y-66166667D01*
X93931009Y-66166667D02*
X93883390Y-66119048D01*
X93883390Y-66119048D02*
X93835771Y-66023810D01*
X93835771Y-66023810D02*
X93835771Y-65833334D01*
X93835771Y-65833334D02*
X93883390Y-65738096D01*
X93883390Y-65738096D02*
X93931009Y-65690477D01*
X93931009Y-65690477D02*
X94026247Y-65642858D01*
X93454819Y-66547620D02*
X93454819Y-67166667D01*
X93454819Y-67166667D02*
X93835771Y-66833334D01*
X93835771Y-66833334D02*
X93835771Y-66976191D01*
X93835771Y-66976191D02*
X93883390Y-67071429D01*
X93883390Y-67071429D02*
X93931009Y-67119048D01*
X93931009Y-67119048D02*
X94026247Y-67166667D01*
X94026247Y-67166667D02*
X94264342Y-67166667D01*
X94264342Y-67166667D02*
X94359580Y-67119048D01*
X94359580Y-67119048D02*
X94407200Y-67071429D01*
X94407200Y-67071429D02*
X94454819Y-66976191D01*
X94454819Y-66976191D02*
X94454819Y-66690477D01*
X94454819Y-66690477D02*
X94407200Y-66595239D01*
X94407200Y-66595239D02*
X94359580Y-66547620D01*
X94359580Y-68166667D02*
X94407200Y-68119048D01*
X94407200Y-68119048D02*
X94454819Y-67976191D01*
X94454819Y-67976191D02*
X94454819Y-67880953D01*
X94454819Y-67880953D02*
X94407200Y-67738096D01*
X94407200Y-67738096D02*
X94311961Y-67642858D01*
X94311961Y-67642858D02*
X94216723Y-67595239D01*
X94216723Y-67595239D02*
X94026247Y-67547620D01*
X94026247Y-67547620D02*
X93883390Y-67547620D01*
X93883390Y-67547620D02*
X93692914Y-67595239D01*
X93692914Y-67595239D02*
X93597676Y-67642858D01*
X93597676Y-67642858D02*
X93502438Y-67738096D01*
X93502438Y-67738096D02*
X93454819Y-67880953D01*
X93454819Y-67880953D02*
X93454819Y-67976191D01*
X93454819Y-67976191D02*
X93502438Y-68119048D01*
X93502438Y-68119048D02*
X93550057Y-68166667D01*
D11*
X90863855Y-60409524D02*
X90063855Y-60409524D01*
X90063855Y-60409524D02*
X90063855Y-60600000D01*
X90063855Y-60600000D02*
X90101950Y-60714286D01*
X90101950Y-60714286D02*
X90178140Y-60790476D01*
X90178140Y-60790476D02*
X90254331Y-60828571D01*
X90254331Y-60828571D02*
X90406712Y-60866667D01*
X90406712Y-60866667D02*
X90520998Y-60866667D01*
X90520998Y-60866667D02*
X90673379Y-60828571D01*
X90673379Y-60828571D02*
X90749569Y-60790476D01*
X90749569Y-60790476D02*
X90825760Y-60714286D01*
X90825760Y-60714286D02*
X90863855Y-60600000D01*
X90863855Y-60600000D02*
X90863855Y-60409524D01*
X90863855Y-61247619D02*
X90863855Y-61400000D01*
X90863855Y-61400000D02*
X90825760Y-61476190D01*
X90825760Y-61476190D02*
X90787664Y-61514286D01*
X90787664Y-61514286D02*
X90673379Y-61590476D01*
X90673379Y-61590476D02*
X90520998Y-61628571D01*
X90520998Y-61628571D02*
X90216236Y-61628571D01*
X90216236Y-61628571D02*
X90140045Y-61590476D01*
X90140045Y-61590476D02*
X90101950Y-61552381D01*
X90101950Y-61552381D02*
X90063855Y-61476190D01*
X90063855Y-61476190D02*
X90063855Y-61323809D01*
X90063855Y-61323809D02*
X90101950Y-61247619D01*
X90101950Y-61247619D02*
X90140045Y-61209524D01*
X90140045Y-61209524D02*
X90216236Y-61171428D01*
X90216236Y-61171428D02*
X90406712Y-61171428D01*
X90406712Y-61171428D02*
X90482902Y-61209524D01*
X90482902Y-61209524D02*
X90520998Y-61247619D01*
X90520998Y-61247619D02*
X90559093Y-61323809D01*
X90559093Y-61323809D02*
X90559093Y-61476190D01*
X90559093Y-61476190D02*
X90520998Y-61552381D01*
X90520998Y-61552381D02*
X90482902Y-61590476D01*
X90482902Y-61590476D02*
X90406712Y-61628571D01*
X90463855Y-61808571D02*
X90463855Y-60229524D01*
D10*
X94454819Y-98357142D02*
X94454819Y-97880952D01*
X94454819Y-97880952D02*
X93454819Y-97880952D01*
X94454819Y-98690476D02*
X93788152Y-98690476D01*
X93454819Y-98690476D02*
X93502438Y-98642857D01*
X93502438Y-98642857D02*
X93550057Y-98690476D01*
X93550057Y-98690476D02*
X93502438Y-98738095D01*
X93502438Y-98738095D02*
X93454819Y-98690476D01*
X93454819Y-98690476D02*
X93550057Y-98690476D01*
X93788152Y-99023809D02*
X93788152Y-99404761D01*
X93454819Y-99166666D02*
X94311961Y-99166666D01*
X94311961Y-99166666D02*
X94407200Y-99214285D01*
X94407200Y-99214285D02*
X94454819Y-99309523D01*
X94454819Y-99309523D02*
X94454819Y-99404761D01*
X94407200Y-100119047D02*
X94454819Y-100023809D01*
X94454819Y-100023809D02*
X94454819Y-99833333D01*
X94454819Y-99833333D02*
X94407200Y-99738095D01*
X94407200Y-99738095D02*
X94311961Y-99690476D01*
X94311961Y-99690476D02*
X93931009Y-99690476D01*
X93931009Y-99690476D02*
X93835771Y-99738095D01*
X93835771Y-99738095D02*
X93788152Y-99833333D01*
X93788152Y-99833333D02*
X93788152Y-100023809D01*
X93788152Y-100023809D02*
X93835771Y-100119047D01*
X93835771Y-100119047D02*
X93931009Y-100166666D01*
X93931009Y-100166666D02*
X94026247Y-100166666D01*
X94026247Y-100166666D02*
X94121485Y-99690476D01*
X93454819Y-100785714D02*
X93454819Y-100976190D01*
X93454819Y-100976190D02*
X93502438Y-101071428D01*
X93502438Y-101071428D02*
X93597676Y-101166666D01*
X93597676Y-101166666D02*
X93788152Y-101214285D01*
X93788152Y-101214285D02*
X94121485Y-101214285D01*
X94121485Y-101214285D02*
X94311961Y-101166666D01*
X94311961Y-101166666D02*
X94407200Y-101071428D01*
X94407200Y-101071428D02*
X94454819Y-100976190D01*
X94454819Y-100976190D02*
X94454819Y-100785714D01*
X94454819Y-100785714D02*
X94407200Y-100690476D01*
X94407200Y-100690476D02*
X94311961Y-100595238D01*
X94311961Y-100595238D02*
X94121485Y-100547619D01*
X94121485Y-100547619D02*
X93788152Y-100547619D01*
X93788152Y-100547619D02*
X93597676Y-100595238D01*
X93597676Y-100595238D02*
X93502438Y-100690476D01*
X93502438Y-100690476D02*
X93454819Y-100785714D01*
X93788152Y-101642857D02*
X94454819Y-101642857D01*
X93883390Y-101642857D02*
X93835771Y-101690476D01*
X93835771Y-101690476D02*
X93788152Y-101785714D01*
X93788152Y-101785714D02*
X93788152Y-101928571D01*
X93788152Y-101928571D02*
X93835771Y-102023809D01*
X93835771Y-102023809D02*
X93931009Y-102071428D01*
X93931009Y-102071428D02*
X94454819Y-102071428D01*
X94550057Y-102309524D02*
X94550057Y-103071428D01*
X94454819Y-103785714D02*
X94454819Y-103309524D01*
X94454819Y-103309524D02*
X93454819Y-103309524D01*
X93454819Y-103976191D02*
X93454819Y-104547619D01*
X94454819Y-104261905D02*
X93454819Y-104261905D01*
X94407200Y-104833334D02*
X94454819Y-104976191D01*
X94454819Y-104976191D02*
X94454819Y-105214286D01*
X94454819Y-105214286D02*
X94407200Y-105309524D01*
X94407200Y-105309524D02*
X94359580Y-105357143D01*
X94359580Y-105357143D02*
X94264342Y-105404762D01*
X94264342Y-105404762D02*
X94169104Y-105404762D01*
X94169104Y-105404762D02*
X94073866Y-105357143D01*
X94073866Y-105357143D02*
X94026247Y-105309524D01*
X94026247Y-105309524D02*
X93978628Y-105214286D01*
X93978628Y-105214286D02*
X93931009Y-105023810D01*
X93931009Y-105023810D02*
X93883390Y-104928572D01*
X93883390Y-104928572D02*
X93835771Y-104880953D01*
X93835771Y-104880953D02*
X93740533Y-104833334D01*
X93740533Y-104833334D02*
X93645295Y-104833334D01*
X93645295Y-104833334D02*
X93550057Y-104880953D01*
X93550057Y-104880953D02*
X93502438Y-104928572D01*
X93502438Y-104928572D02*
X93454819Y-105023810D01*
X93454819Y-105023810D02*
X93454819Y-105261905D01*
X93454819Y-105261905D02*
X93502438Y-105404762D01*
X93454819Y-105690477D02*
X93454819Y-106261905D01*
X94454819Y-105976191D02*
X93454819Y-105976191D01*
X94073866Y-106595239D02*
X94073866Y-107357144D01*
X93931009Y-107833334D02*
X93931009Y-108166667D01*
X94454819Y-108309524D02*
X94454819Y-107833334D01*
X94454819Y-107833334D02*
X93454819Y-107833334D01*
X93454819Y-107833334D02*
X93454819Y-108309524D01*
X93454819Y-109214286D02*
X93454819Y-108738096D01*
X93454819Y-108738096D02*
X93931009Y-108690477D01*
X93931009Y-108690477D02*
X93883390Y-108738096D01*
X93883390Y-108738096D02*
X93835771Y-108833334D01*
X93835771Y-108833334D02*
X93835771Y-109071429D01*
X93835771Y-109071429D02*
X93883390Y-109166667D01*
X93883390Y-109166667D02*
X93931009Y-109214286D01*
X93931009Y-109214286D02*
X94026247Y-109261905D01*
X94026247Y-109261905D02*
X94264342Y-109261905D01*
X94264342Y-109261905D02*
X94359580Y-109214286D01*
X94359580Y-109214286D02*
X94407200Y-109166667D01*
X94407200Y-109166667D02*
X94454819Y-109071429D01*
X94454819Y-109071429D02*
X94454819Y-108833334D01*
X94454819Y-108833334D02*
X94407200Y-108738096D01*
X94407200Y-108738096D02*
X94359580Y-108690477D01*
X93454819Y-110119048D02*
X93454819Y-109928572D01*
X93454819Y-109928572D02*
X93502438Y-109833334D01*
X93502438Y-109833334D02*
X93550057Y-109785715D01*
X93550057Y-109785715D02*
X93692914Y-109690477D01*
X93692914Y-109690477D02*
X93883390Y-109642858D01*
X93883390Y-109642858D02*
X94264342Y-109642858D01*
X94264342Y-109642858D02*
X94359580Y-109690477D01*
X94359580Y-109690477D02*
X94407200Y-109738096D01*
X94407200Y-109738096D02*
X94454819Y-109833334D01*
X94454819Y-109833334D02*
X94454819Y-110023810D01*
X94454819Y-110023810D02*
X94407200Y-110119048D01*
X94407200Y-110119048D02*
X94359580Y-110166667D01*
X94359580Y-110166667D02*
X94264342Y-110214286D01*
X94264342Y-110214286D02*
X94026247Y-110214286D01*
X94026247Y-110214286D02*
X93931009Y-110166667D01*
X93931009Y-110166667D02*
X93883390Y-110119048D01*
X93883390Y-110119048D02*
X93835771Y-110023810D01*
X93835771Y-110023810D02*
X93835771Y-109833334D01*
X93835771Y-109833334D02*
X93883390Y-109738096D01*
X93883390Y-109738096D02*
X93931009Y-109690477D01*
X93931009Y-109690477D02*
X94026247Y-109642858D01*
X93454819Y-110547620D02*
X93454819Y-111166667D01*
X93454819Y-111166667D02*
X93835771Y-110833334D01*
X93835771Y-110833334D02*
X93835771Y-110976191D01*
X93835771Y-110976191D02*
X93883390Y-111071429D01*
X93883390Y-111071429D02*
X93931009Y-111119048D01*
X93931009Y-111119048D02*
X94026247Y-111166667D01*
X94026247Y-111166667D02*
X94264342Y-111166667D01*
X94264342Y-111166667D02*
X94359580Y-111119048D01*
X94359580Y-111119048D02*
X94407200Y-111071429D01*
X94407200Y-111071429D02*
X94454819Y-110976191D01*
X94454819Y-110976191D02*
X94454819Y-110690477D01*
X94454819Y-110690477D02*
X94407200Y-110595239D01*
X94407200Y-110595239D02*
X94359580Y-110547620D01*
X94359580Y-112166667D02*
X94407200Y-112119048D01*
X94407200Y-112119048D02*
X94454819Y-111976191D01*
X94454819Y-111976191D02*
X94454819Y-111880953D01*
X94454819Y-111880953D02*
X94407200Y-111738096D01*
X94407200Y-111738096D02*
X94311961Y-111642858D01*
X94311961Y-111642858D02*
X94216723Y-111595239D01*
X94216723Y-111595239D02*
X94026247Y-111547620D01*
X94026247Y-111547620D02*
X93883390Y-111547620D01*
X93883390Y-111547620D02*
X93692914Y-111595239D01*
X93692914Y-111595239D02*
X93597676Y-111642858D01*
X93597676Y-111642858D02*
X93502438Y-111738096D01*
X93502438Y-111738096D02*
X93454819Y-111880953D01*
X93454819Y-111880953D02*
X93454819Y-111976191D01*
X93454819Y-111976191D02*
X93502438Y-112119048D01*
X93502438Y-112119048D02*
X93550057Y-112166667D01*
D11*
X90863855Y-104028571D02*
X90063855Y-104028571D01*
X90063855Y-104028571D02*
X90063855Y-104219047D01*
X90063855Y-104219047D02*
X90101950Y-104333333D01*
X90101950Y-104333333D02*
X90178140Y-104409523D01*
X90178140Y-104409523D02*
X90254331Y-104447618D01*
X90254331Y-104447618D02*
X90406712Y-104485714D01*
X90406712Y-104485714D02*
X90520998Y-104485714D01*
X90520998Y-104485714D02*
X90673379Y-104447618D01*
X90673379Y-104447618D02*
X90749569Y-104409523D01*
X90749569Y-104409523D02*
X90825760Y-104333333D01*
X90825760Y-104333333D02*
X90863855Y-104219047D01*
X90863855Y-104219047D02*
X90863855Y-104028571D01*
X90863855Y-105247618D02*
X90863855Y-104790475D01*
X90863855Y-105019047D02*
X90063855Y-105019047D01*
X90063855Y-105019047D02*
X90178140Y-104942856D01*
X90178140Y-104942856D02*
X90254331Y-104866666D01*
X90254331Y-104866666D02*
X90292426Y-104790475D01*
X90863855Y-106009523D02*
X90863855Y-105552380D01*
X90863855Y-105780952D02*
X90063855Y-105780952D01*
X90063855Y-105780952D02*
X90178140Y-105704761D01*
X90178140Y-105704761D02*
X90254331Y-105628571D01*
X90254331Y-105628571D02*
X90292426Y-105552380D01*
X90463855Y-106184956D02*
X90463855Y-103848571D01*
D10*
X104657200Y-191666667D02*
X104704819Y-191809524D01*
X104704819Y-191809524D02*
X104704819Y-192047619D01*
X104704819Y-192047619D02*
X104657200Y-192142857D01*
X104657200Y-192142857D02*
X104609580Y-192190476D01*
X104609580Y-192190476D02*
X104514342Y-192238095D01*
X104514342Y-192238095D02*
X104419104Y-192238095D01*
X104419104Y-192238095D02*
X104323866Y-192190476D01*
X104323866Y-192190476D02*
X104276247Y-192142857D01*
X104276247Y-192142857D02*
X104228628Y-192047619D01*
X104228628Y-192047619D02*
X104181009Y-191857143D01*
X104181009Y-191857143D02*
X104133390Y-191761905D01*
X104133390Y-191761905D02*
X104085771Y-191714286D01*
X104085771Y-191714286D02*
X103990533Y-191666667D01*
X103990533Y-191666667D02*
X103895295Y-191666667D01*
X103895295Y-191666667D02*
X103800057Y-191714286D01*
X103800057Y-191714286D02*
X103752438Y-191761905D01*
X103752438Y-191761905D02*
X103704819Y-191857143D01*
X103704819Y-191857143D02*
X103704819Y-192095238D01*
X103704819Y-192095238D02*
X103752438Y-192238095D01*
X103704819Y-192571429D02*
X104704819Y-192809524D01*
X104704819Y-192809524D02*
X103990533Y-193000000D01*
X103990533Y-193000000D02*
X104704819Y-193190476D01*
X104704819Y-193190476D02*
X103704819Y-193428572D01*
X103800057Y-193761905D02*
X103752438Y-193809524D01*
X103752438Y-193809524D02*
X103704819Y-193904762D01*
X103704819Y-193904762D02*
X103704819Y-194142857D01*
X103704819Y-194142857D02*
X103752438Y-194238095D01*
X103752438Y-194238095D02*
X103800057Y-194285714D01*
X103800057Y-194285714D02*
X103895295Y-194333333D01*
X103895295Y-194333333D02*
X103990533Y-194333333D01*
X103990533Y-194333333D02*
X104133390Y-194285714D01*
X104133390Y-194285714D02*
X104704819Y-193714286D01*
X104704819Y-193714286D02*
X104704819Y-194333333D01*
D11*
X109863855Y-104409524D02*
X109063855Y-104409524D01*
X109063855Y-104409524D02*
X109063855Y-104600000D01*
X109063855Y-104600000D02*
X109101950Y-104714286D01*
X109101950Y-104714286D02*
X109178140Y-104790476D01*
X109178140Y-104790476D02*
X109254331Y-104828571D01*
X109254331Y-104828571D02*
X109406712Y-104866667D01*
X109406712Y-104866667D02*
X109520998Y-104866667D01*
X109520998Y-104866667D02*
X109673379Y-104828571D01*
X109673379Y-104828571D02*
X109749569Y-104790476D01*
X109749569Y-104790476D02*
X109825760Y-104714286D01*
X109825760Y-104714286D02*
X109863855Y-104600000D01*
X109863855Y-104600000D02*
X109863855Y-104409524D01*
X109063855Y-105133333D02*
X109063855Y-105628571D01*
X109063855Y-105628571D02*
X109368617Y-105361905D01*
X109368617Y-105361905D02*
X109368617Y-105476190D01*
X109368617Y-105476190D02*
X109406712Y-105552381D01*
X109406712Y-105552381D02*
X109444807Y-105590476D01*
X109444807Y-105590476D02*
X109520998Y-105628571D01*
X109520998Y-105628571D02*
X109711474Y-105628571D01*
X109711474Y-105628571D02*
X109787664Y-105590476D01*
X109787664Y-105590476D02*
X109825760Y-105552381D01*
X109825760Y-105552381D02*
X109863855Y-105476190D01*
X109863855Y-105476190D02*
X109863855Y-105247619D01*
X109863855Y-105247619D02*
X109825760Y-105171428D01*
X109825760Y-105171428D02*
X109787664Y-105133333D01*
D10*
X94454819Y-186357142D02*
X94454819Y-185880952D01*
X94454819Y-185880952D02*
X93454819Y-185880952D01*
X94454819Y-186690476D02*
X93788152Y-186690476D01*
X93454819Y-186690476D02*
X93502438Y-186642857D01*
X93502438Y-186642857D02*
X93550057Y-186690476D01*
X93550057Y-186690476D02*
X93502438Y-186738095D01*
X93502438Y-186738095D02*
X93454819Y-186690476D01*
X93454819Y-186690476D02*
X93550057Y-186690476D01*
X93788152Y-187023809D02*
X93788152Y-187404761D01*
X93454819Y-187166666D02*
X94311961Y-187166666D01*
X94311961Y-187166666D02*
X94407200Y-187214285D01*
X94407200Y-187214285D02*
X94454819Y-187309523D01*
X94454819Y-187309523D02*
X94454819Y-187404761D01*
X94407200Y-188119047D02*
X94454819Y-188023809D01*
X94454819Y-188023809D02*
X94454819Y-187833333D01*
X94454819Y-187833333D02*
X94407200Y-187738095D01*
X94407200Y-187738095D02*
X94311961Y-187690476D01*
X94311961Y-187690476D02*
X93931009Y-187690476D01*
X93931009Y-187690476D02*
X93835771Y-187738095D01*
X93835771Y-187738095D02*
X93788152Y-187833333D01*
X93788152Y-187833333D02*
X93788152Y-188023809D01*
X93788152Y-188023809D02*
X93835771Y-188119047D01*
X93835771Y-188119047D02*
X93931009Y-188166666D01*
X93931009Y-188166666D02*
X94026247Y-188166666D01*
X94026247Y-188166666D02*
X94121485Y-187690476D01*
X93454819Y-188785714D02*
X93454819Y-188976190D01*
X93454819Y-188976190D02*
X93502438Y-189071428D01*
X93502438Y-189071428D02*
X93597676Y-189166666D01*
X93597676Y-189166666D02*
X93788152Y-189214285D01*
X93788152Y-189214285D02*
X94121485Y-189214285D01*
X94121485Y-189214285D02*
X94311961Y-189166666D01*
X94311961Y-189166666D02*
X94407200Y-189071428D01*
X94407200Y-189071428D02*
X94454819Y-188976190D01*
X94454819Y-188976190D02*
X94454819Y-188785714D01*
X94454819Y-188785714D02*
X94407200Y-188690476D01*
X94407200Y-188690476D02*
X94311961Y-188595238D01*
X94311961Y-188595238D02*
X94121485Y-188547619D01*
X94121485Y-188547619D02*
X93788152Y-188547619D01*
X93788152Y-188547619D02*
X93597676Y-188595238D01*
X93597676Y-188595238D02*
X93502438Y-188690476D01*
X93502438Y-188690476D02*
X93454819Y-188785714D01*
X93788152Y-189642857D02*
X94454819Y-189642857D01*
X93883390Y-189642857D02*
X93835771Y-189690476D01*
X93835771Y-189690476D02*
X93788152Y-189785714D01*
X93788152Y-189785714D02*
X93788152Y-189928571D01*
X93788152Y-189928571D02*
X93835771Y-190023809D01*
X93835771Y-190023809D02*
X93931009Y-190071428D01*
X93931009Y-190071428D02*
X94454819Y-190071428D01*
X94550057Y-190309524D02*
X94550057Y-191071428D01*
X94454819Y-191785714D02*
X94454819Y-191309524D01*
X94454819Y-191309524D02*
X93454819Y-191309524D01*
X93454819Y-191976191D02*
X93454819Y-192547619D01*
X94454819Y-192261905D02*
X93454819Y-192261905D01*
X94407200Y-192833334D02*
X94454819Y-192976191D01*
X94454819Y-192976191D02*
X94454819Y-193214286D01*
X94454819Y-193214286D02*
X94407200Y-193309524D01*
X94407200Y-193309524D02*
X94359580Y-193357143D01*
X94359580Y-193357143D02*
X94264342Y-193404762D01*
X94264342Y-193404762D02*
X94169104Y-193404762D01*
X94169104Y-193404762D02*
X94073866Y-193357143D01*
X94073866Y-193357143D02*
X94026247Y-193309524D01*
X94026247Y-193309524D02*
X93978628Y-193214286D01*
X93978628Y-193214286D02*
X93931009Y-193023810D01*
X93931009Y-193023810D02*
X93883390Y-192928572D01*
X93883390Y-192928572D02*
X93835771Y-192880953D01*
X93835771Y-192880953D02*
X93740533Y-192833334D01*
X93740533Y-192833334D02*
X93645295Y-192833334D01*
X93645295Y-192833334D02*
X93550057Y-192880953D01*
X93550057Y-192880953D02*
X93502438Y-192928572D01*
X93502438Y-192928572D02*
X93454819Y-193023810D01*
X93454819Y-193023810D02*
X93454819Y-193261905D01*
X93454819Y-193261905D02*
X93502438Y-193404762D01*
X93454819Y-193690477D02*
X93454819Y-194261905D01*
X94454819Y-193976191D02*
X93454819Y-193976191D01*
X94073866Y-194595239D02*
X94073866Y-195357144D01*
X93931009Y-195833334D02*
X93931009Y-196166667D01*
X94454819Y-196309524D02*
X94454819Y-195833334D01*
X94454819Y-195833334D02*
X93454819Y-195833334D01*
X93454819Y-195833334D02*
X93454819Y-196309524D01*
X93454819Y-197214286D02*
X93454819Y-196738096D01*
X93454819Y-196738096D02*
X93931009Y-196690477D01*
X93931009Y-196690477D02*
X93883390Y-196738096D01*
X93883390Y-196738096D02*
X93835771Y-196833334D01*
X93835771Y-196833334D02*
X93835771Y-197071429D01*
X93835771Y-197071429D02*
X93883390Y-197166667D01*
X93883390Y-197166667D02*
X93931009Y-197214286D01*
X93931009Y-197214286D02*
X94026247Y-197261905D01*
X94026247Y-197261905D02*
X94264342Y-197261905D01*
X94264342Y-197261905D02*
X94359580Y-197214286D01*
X94359580Y-197214286D02*
X94407200Y-197166667D01*
X94407200Y-197166667D02*
X94454819Y-197071429D01*
X94454819Y-197071429D02*
X94454819Y-196833334D01*
X94454819Y-196833334D02*
X94407200Y-196738096D01*
X94407200Y-196738096D02*
X94359580Y-196690477D01*
X93454819Y-198119048D02*
X93454819Y-197928572D01*
X93454819Y-197928572D02*
X93502438Y-197833334D01*
X93502438Y-197833334D02*
X93550057Y-197785715D01*
X93550057Y-197785715D02*
X93692914Y-197690477D01*
X93692914Y-197690477D02*
X93883390Y-197642858D01*
X93883390Y-197642858D02*
X94264342Y-197642858D01*
X94264342Y-197642858D02*
X94359580Y-197690477D01*
X94359580Y-197690477D02*
X94407200Y-197738096D01*
X94407200Y-197738096D02*
X94454819Y-197833334D01*
X94454819Y-197833334D02*
X94454819Y-198023810D01*
X94454819Y-198023810D02*
X94407200Y-198119048D01*
X94407200Y-198119048D02*
X94359580Y-198166667D01*
X94359580Y-198166667D02*
X94264342Y-198214286D01*
X94264342Y-198214286D02*
X94026247Y-198214286D01*
X94026247Y-198214286D02*
X93931009Y-198166667D01*
X93931009Y-198166667D02*
X93883390Y-198119048D01*
X93883390Y-198119048D02*
X93835771Y-198023810D01*
X93835771Y-198023810D02*
X93835771Y-197833334D01*
X93835771Y-197833334D02*
X93883390Y-197738096D01*
X93883390Y-197738096D02*
X93931009Y-197690477D01*
X93931009Y-197690477D02*
X94026247Y-197642858D01*
X93454819Y-198547620D02*
X93454819Y-199166667D01*
X93454819Y-199166667D02*
X93835771Y-198833334D01*
X93835771Y-198833334D02*
X93835771Y-198976191D01*
X93835771Y-198976191D02*
X93883390Y-199071429D01*
X93883390Y-199071429D02*
X93931009Y-199119048D01*
X93931009Y-199119048D02*
X94026247Y-199166667D01*
X94026247Y-199166667D02*
X94264342Y-199166667D01*
X94264342Y-199166667D02*
X94359580Y-199119048D01*
X94359580Y-199119048D02*
X94407200Y-199071429D01*
X94407200Y-199071429D02*
X94454819Y-198976191D01*
X94454819Y-198976191D02*
X94454819Y-198690477D01*
X94454819Y-198690477D02*
X94407200Y-198595239D01*
X94407200Y-198595239D02*
X94359580Y-198547620D01*
X94359580Y-200166667D02*
X94407200Y-200119048D01*
X94407200Y-200119048D02*
X94454819Y-199976191D01*
X94454819Y-199976191D02*
X94454819Y-199880953D01*
X94454819Y-199880953D02*
X94407200Y-199738096D01*
X94407200Y-199738096D02*
X94311961Y-199642858D01*
X94311961Y-199642858D02*
X94216723Y-199595239D01*
X94216723Y-199595239D02*
X94026247Y-199547620D01*
X94026247Y-199547620D02*
X93883390Y-199547620D01*
X93883390Y-199547620D02*
X93692914Y-199595239D01*
X93692914Y-199595239D02*
X93597676Y-199642858D01*
X93597676Y-199642858D02*
X93502438Y-199738096D01*
X93502438Y-199738096D02*
X93454819Y-199880953D01*
X93454819Y-199880953D02*
X93454819Y-199976191D01*
X93454819Y-199976191D02*
X93502438Y-200119048D01*
X93502438Y-200119048D02*
X93550057Y-200166667D01*
D11*
X90863855Y-192028571D02*
X90063855Y-192028571D01*
X90063855Y-192028571D02*
X90063855Y-192219047D01*
X90063855Y-192219047D02*
X90101950Y-192333333D01*
X90101950Y-192333333D02*
X90178140Y-192409523D01*
X90178140Y-192409523D02*
X90254331Y-192447618D01*
X90254331Y-192447618D02*
X90406712Y-192485714D01*
X90406712Y-192485714D02*
X90520998Y-192485714D01*
X90520998Y-192485714D02*
X90673379Y-192447618D01*
X90673379Y-192447618D02*
X90749569Y-192409523D01*
X90749569Y-192409523D02*
X90825760Y-192333333D01*
X90825760Y-192333333D02*
X90863855Y-192219047D01*
X90863855Y-192219047D02*
X90863855Y-192028571D01*
X90863855Y-193247618D02*
X90863855Y-192790475D01*
X90863855Y-193019047D02*
X90063855Y-193019047D01*
X90063855Y-193019047D02*
X90178140Y-192942856D01*
X90178140Y-192942856D02*
X90254331Y-192866666D01*
X90254331Y-192866666D02*
X90292426Y-192790475D01*
X90063855Y-193971428D02*
X90063855Y-193590476D01*
X90063855Y-193590476D02*
X90444807Y-193552380D01*
X90444807Y-193552380D02*
X90406712Y-193590476D01*
X90406712Y-193590476D02*
X90368617Y-193666666D01*
X90368617Y-193666666D02*
X90368617Y-193857142D01*
X90368617Y-193857142D02*
X90406712Y-193933333D01*
X90406712Y-193933333D02*
X90444807Y-193971428D01*
X90444807Y-193971428D02*
X90520998Y-194009523D01*
X90520998Y-194009523D02*
X90711474Y-194009523D01*
X90711474Y-194009523D02*
X90787664Y-193971428D01*
X90787664Y-193971428D02*
X90825760Y-193933333D01*
X90825760Y-193933333D02*
X90863855Y-193857142D01*
X90863855Y-193857142D02*
X90863855Y-193666666D01*
X90863855Y-193666666D02*
X90825760Y-193590476D01*
X90825760Y-193590476D02*
X90787664Y-193552380D01*
X90463855Y-194189523D02*
X90463855Y-191848571D01*
D10*
X104657200Y-59666667D02*
X104704819Y-59809524D01*
X104704819Y-59809524D02*
X104704819Y-60047619D01*
X104704819Y-60047619D02*
X104657200Y-60142857D01*
X104657200Y-60142857D02*
X104609580Y-60190476D01*
X104609580Y-60190476D02*
X104514342Y-60238095D01*
X104514342Y-60238095D02*
X104419104Y-60238095D01*
X104419104Y-60238095D02*
X104323866Y-60190476D01*
X104323866Y-60190476D02*
X104276247Y-60142857D01*
X104276247Y-60142857D02*
X104228628Y-60047619D01*
X104228628Y-60047619D02*
X104181009Y-59857143D01*
X104181009Y-59857143D02*
X104133390Y-59761905D01*
X104133390Y-59761905D02*
X104085771Y-59714286D01*
X104085771Y-59714286D02*
X103990533Y-59666667D01*
X103990533Y-59666667D02*
X103895295Y-59666667D01*
X103895295Y-59666667D02*
X103800057Y-59714286D01*
X103800057Y-59714286D02*
X103752438Y-59761905D01*
X103752438Y-59761905D02*
X103704819Y-59857143D01*
X103704819Y-59857143D02*
X103704819Y-60095238D01*
X103704819Y-60095238D02*
X103752438Y-60238095D01*
X103704819Y-60571429D02*
X104704819Y-60809524D01*
X104704819Y-60809524D02*
X103990533Y-61000000D01*
X103990533Y-61000000D02*
X104704819Y-61190476D01*
X104704819Y-61190476D02*
X103704819Y-61428572D01*
X104133390Y-61952381D02*
X104085771Y-61857143D01*
X104085771Y-61857143D02*
X104038152Y-61809524D01*
X104038152Y-61809524D02*
X103942914Y-61761905D01*
X103942914Y-61761905D02*
X103895295Y-61761905D01*
X103895295Y-61761905D02*
X103800057Y-61809524D01*
X103800057Y-61809524D02*
X103752438Y-61857143D01*
X103752438Y-61857143D02*
X103704819Y-61952381D01*
X103704819Y-61952381D02*
X103704819Y-62142857D01*
X103704819Y-62142857D02*
X103752438Y-62238095D01*
X103752438Y-62238095D02*
X103800057Y-62285714D01*
X103800057Y-62285714D02*
X103895295Y-62333333D01*
X103895295Y-62333333D02*
X103942914Y-62333333D01*
X103942914Y-62333333D02*
X104038152Y-62285714D01*
X104038152Y-62285714D02*
X104085771Y-62238095D01*
X104085771Y-62238095D02*
X104133390Y-62142857D01*
X104133390Y-62142857D02*
X104133390Y-61952381D01*
X104133390Y-61952381D02*
X104181009Y-61857143D01*
X104181009Y-61857143D02*
X104228628Y-61809524D01*
X104228628Y-61809524D02*
X104323866Y-61761905D01*
X104323866Y-61761905D02*
X104514342Y-61761905D01*
X104514342Y-61761905D02*
X104609580Y-61809524D01*
X104609580Y-61809524D02*
X104657200Y-61857143D01*
X104657200Y-61857143D02*
X104704819Y-61952381D01*
X104704819Y-61952381D02*
X104704819Y-62142857D01*
X104704819Y-62142857D02*
X104657200Y-62238095D01*
X104657200Y-62238095D02*
X104609580Y-62285714D01*
X104609580Y-62285714D02*
X104514342Y-62333333D01*
X104514342Y-62333333D02*
X104323866Y-62333333D01*
X104323866Y-62333333D02*
X104228628Y-62285714D01*
X104228628Y-62285714D02*
X104181009Y-62238095D01*
X104181009Y-62238095D02*
X104133390Y-62142857D01*
X113454819Y-208357142D02*
X113454819Y-207880952D01*
X113454819Y-207880952D02*
X112454819Y-207880952D01*
X113454819Y-208690476D02*
X112788152Y-208690476D01*
X112454819Y-208690476D02*
X112502438Y-208642857D01*
X112502438Y-208642857D02*
X112550057Y-208690476D01*
X112550057Y-208690476D02*
X112502438Y-208738095D01*
X112502438Y-208738095D02*
X112454819Y-208690476D01*
X112454819Y-208690476D02*
X112550057Y-208690476D01*
X112788152Y-209023809D02*
X112788152Y-209404761D01*
X112454819Y-209166666D02*
X113311961Y-209166666D01*
X113311961Y-209166666D02*
X113407200Y-209214285D01*
X113407200Y-209214285D02*
X113454819Y-209309523D01*
X113454819Y-209309523D02*
X113454819Y-209404761D01*
X113407200Y-210119047D02*
X113454819Y-210023809D01*
X113454819Y-210023809D02*
X113454819Y-209833333D01*
X113454819Y-209833333D02*
X113407200Y-209738095D01*
X113407200Y-209738095D02*
X113311961Y-209690476D01*
X113311961Y-209690476D02*
X112931009Y-209690476D01*
X112931009Y-209690476D02*
X112835771Y-209738095D01*
X112835771Y-209738095D02*
X112788152Y-209833333D01*
X112788152Y-209833333D02*
X112788152Y-210023809D01*
X112788152Y-210023809D02*
X112835771Y-210119047D01*
X112835771Y-210119047D02*
X112931009Y-210166666D01*
X112931009Y-210166666D02*
X113026247Y-210166666D01*
X113026247Y-210166666D02*
X113121485Y-209690476D01*
X112454819Y-210785714D02*
X112454819Y-210976190D01*
X112454819Y-210976190D02*
X112502438Y-211071428D01*
X112502438Y-211071428D02*
X112597676Y-211166666D01*
X112597676Y-211166666D02*
X112788152Y-211214285D01*
X112788152Y-211214285D02*
X113121485Y-211214285D01*
X113121485Y-211214285D02*
X113311961Y-211166666D01*
X113311961Y-211166666D02*
X113407200Y-211071428D01*
X113407200Y-211071428D02*
X113454819Y-210976190D01*
X113454819Y-210976190D02*
X113454819Y-210785714D01*
X113454819Y-210785714D02*
X113407200Y-210690476D01*
X113407200Y-210690476D02*
X113311961Y-210595238D01*
X113311961Y-210595238D02*
X113121485Y-210547619D01*
X113121485Y-210547619D02*
X112788152Y-210547619D01*
X112788152Y-210547619D02*
X112597676Y-210595238D01*
X112597676Y-210595238D02*
X112502438Y-210690476D01*
X112502438Y-210690476D02*
X112454819Y-210785714D01*
X112788152Y-211642857D02*
X113454819Y-211642857D01*
X112883390Y-211642857D02*
X112835771Y-211690476D01*
X112835771Y-211690476D02*
X112788152Y-211785714D01*
X112788152Y-211785714D02*
X112788152Y-211928571D01*
X112788152Y-211928571D02*
X112835771Y-212023809D01*
X112835771Y-212023809D02*
X112931009Y-212071428D01*
X112931009Y-212071428D02*
X113454819Y-212071428D01*
X113550057Y-212309524D02*
X113550057Y-213071428D01*
X113454819Y-213785714D02*
X113454819Y-213309524D01*
X113454819Y-213309524D02*
X112454819Y-213309524D01*
X112454819Y-213976191D02*
X112454819Y-214547619D01*
X113454819Y-214261905D02*
X112454819Y-214261905D01*
X113407200Y-214833334D02*
X113454819Y-214976191D01*
X113454819Y-214976191D02*
X113454819Y-215214286D01*
X113454819Y-215214286D02*
X113407200Y-215309524D01*
X113407200Y-215309524D02*
X113359580Y-215357143D01*
X113359580Y-215357143D02*
X113264342Y-215404762D01*
X113264342Y-215404762D02*
X113169104Y-215404762D01*
X113169104Y-215404762D02*
X113073866Y-215357143D01*
X113073866Y-215357143D02*
X113026247Y-215309524D01*
X113026247Y-215309524D02*
X112978628Y-215214286D01*
X112978628Y-215214286D02*
X112931009Y-215023810D01*
X112931009Y-215023810D02*
X112883390Y-214928572D01*
X112883390Y-214928572D02*
X112835771Y-214880953D01*
X112835771Y-214880953D02*
X112740533Y-214833334D01*
X112740533Y-214833334D02*
X112645295Y-214833334D01*
X112645295Y-214833334D02*
X112550057Y-214880953D01*
X112550057Y-214880953D02*
X112502438Y-214928572D01*
X112502438Y-214928572D02*
X112454819Y-215023810D01*
X112454819Y-215023810D02*
X112454819Y-215261905D01*
X112454819Y-215261905D02*
X112502438Y-215404762D01*
X112454819Y-215690477D02*
X112454819Y-216261905D01*
X113454819Y-215976191D02*
X112454819Y-215976191D01*
X113073866Y-216595239D02*
X113073866Y-217357144D01*
X112931009Y-217833334D02*
X112931009Y-218166667D01*
X113454819Y-218309524D02*
X113454819Y-217833334D01*
X113454819Y-217833334D02*
X112454819Y-217833334D01*
X112454819Y-217833334D02*
X112454819Y-218309524D01*
X112454819Y-219214286D02*
X112454819Y-218738096D01*
X112454819Y-218738096D02*
X112931009Y-218690477D01*
X112931009Y-218690477D02*
X112883390Y-218738096D01*
X112883390Y-218738096D02*
X112835771Y-218833334D01*
X112835771Y-218833334D02*
X112835771Y-219071429D01*
X112835771Y-219071429D02*
X112883390Y-219166667D01*
X112883390Y-219166667D02*
X112931009Y-219214286D01*
X112931009Y-219214286D02*
X113026247Y-219261905D01*
X113026247Y-219261905D02*
X113264342Y-219261905D01*
X113264342Y-219261905D02*
X113359580Y-219214286D01*
X113359580Y-219214286D02*
X113407200Y-219166667D01*
X113407200Y-219166667D02*
X113454819Y-219071429D01*
X113454819Y-219071429D02*
X113454819Y-218833334D01*
X113454819Y-218833334D02*
X113407200Y-218738096D01*
X113407200Y-218738096D02*
X113359580Y-218690477D01*
X112454819Y-220119048D02*
X112454819Y-219928572D01*
X112454819Y-219928572D02*
X112502438Y-219833334D01*
X112502438Y-219833334D02*
X112550057Y-219785715D01*
X112550057Y-219785715D02*
X112692914Y-219690477D01*
X112692914Y-219690477D02*
X112883390Y-219642858D01*
X112883390Y-219642858D02*
X113264342Y-219642858D01*
X113264342Y-219642858D02*
X113359580Y-219690477D01*
X113359580Y-219690477D02*
X113407200Y-219738096D01*
X113407200Y-219738096D02*
X113454819Y-219833334D01*
X113454819Y-219833334D02*
X113454819Y-220023810D01*
X113454819Y-220023810D02*
X113407200Y-220119048D01*
X113407200Y-220119048D02*
X113359580Y-220166667D01*
X113359580Y-220166667D02*
X113264342Y-220214286D01*
X113264342Y-220214286D02*
X113026247Y-220214286D01*
X113026247Y-220214286D02*
X112931009Y-220166667D01*
X112931009Y-220166667D02*
X112883390Y-220119048D01*
X112883390Y-220119048D02*
X112835771Y-220023810D01*
X112835771Y-220023810D02*
X112835771Y-219833334D01*
X112835771Y-219833334D02*
X112883390Y-219738096D01*
X112883390Y-219738096D02*
X112931009Y-219690477D01*
X112931009Y-219690477D02*
X113026247Y-219642858D01*
X112454819Y-220547620D02*
X112454819Y-221166667D01*
X112454819Y-221166667D02*
X112835771Y-220833334D01*
X112835771Y-220833334D02*
X112835771Y-220976191D01*
X112835771Y-220976191D02*
X112883390Y-221071429D01*
X112883390Y-221071429D02*
X112931009Y-221119048D01*
X112931009Y-221119048D02*
X113026247Y-221166667D01*
X113026247Y-221166667D02*
X113264342Y-221166667D01*
X113264342Y-221166667D02*
X113359580Y-221119048D01*
X113359580Y-221119048D02*
X113407200Y-221071429D01*
X113407200Y-221071429D02*
X113454819Y-220976191D01*
X113454819Y-220976191D02*
X113454819Y-220690477D01*
X113454819Y-220690477D02*
X113407200Y-220595239D01*
X113407200Y-220595239D02*
X113359580Y-220547620D01*
X113359580Y-222166667D02*
X113407200Y-222119048D01*
X113407200Y-222119048D02*
X113454819Y-221976191D01*
X113454819Y-221976191D02*
X113454819Y-221880953D01*
X113454819Y-221880953D02*
X113407200Y-221738096D01*
X113407200Y-221738096D02*
X113311961Y-221642858D01*
X113311961Y-221642858D02*
X113216723Y-221595239D01*
X113216723Y-221595239D02*
X113026247Y-221547620D01*
X113026247Y-221547620D02*
X112883390Y-221547620D01*
X112883390Y-221547620D02*
X112692914Y-221595239D01*
X112692914Y-221595239D02*
X112597676Y-221642858D01*
X112597676Y-221642858D02*
X112502438Y-221738096D01*
X112502438Y-221738096D02*
X112454819Y-221880953D01*
X112454819Y-221880953D02*
X112454819Y-221976191D01*
X112454819Y-221976191D02*
X112502438Y-222119048D01*
X112502438Y-222119048D02*
X112550057Y-222166667D01*
D11*
X109863855Y-214409524D02*
X109063855Y-214409524D01*
X109063855Y-214409524D02*
X109063855Y-214600000D01*
X109063855Y-214600000D02*
X109101950Y-214714286D01*
X109101950Y-214714286D02*
X109178140Y-214790476D01*
X109178140Y-214790476D02*
X109254331Y-214828571D01*
X109254331Y-214828571D02*
X109406712Y-214866667D01*
X109406712Y-214866667D02*
X109520998Y-214866667D01*
X109520998Y-214866667D02*
X109673379Y-214828571D01*
X109673379Y-214828571D02*
X109749569Y-214790476D01*
X109749569Y-214790476D02*
X109825760Y-214714286D01*
X109825760Y-214714286D02*
X109863855Y-214600000D01*
X109863855Y-214600000D02*
X109863855Y-214409524D01*
X109406712Y-215323809D02*
X109368617Y-215247619D01*
X109368617Y-215247619D02*
X109330521Y-215209524D01*
X109330521Y-215209524D02*
X109254331Y-215171428D01*
X109254331Y-215171428D02*
X109216236Y-215171428D01*
X109216236Y-215171428D02*
X109140045Y-215209524D01*
X109140045Y-215209524D02*
X109101950Y-215247619D01*
X109101950Y-215247619D02*
X109063855Y-215323809D01*
X109063855Y-215323809D02*
X109063855Y-215476190D01*
X109063855Y-215476190D02*
X109101950Y-215552381D01*
X109101950Y-215552381D02*
X109140045Y-215590476D01*
X109140045Y-215590476D02*
X109216236Y-215628571D01*
X109216236Y-215628571D02*
X109254331Y-215628571D01*
X109254331Y-215628571D02*
X109330521Y-215590476D01*
X109330521Y-215590476D02*
X109368617Y-215552381D01*
X109368617Y-215552381D02*
X109406712Y-215476190D01*
X109406712Y-215476190D02*
X109406712Y-215323809D01*
X109406712Y-215323809D02*
X109444807Y-215247619D01*
X109444807Y-215247619D02*
X109482902Y-215209524D01*
X109482902Y-215209524D02*
X109559093Y-215171428D01*
X109559093Y-215171428D02*
X109711474Y-215171428D01*
X109711474Y-215171428D02*
X109787664Y-215209524D01*
X109787664Y-215209524D02*
X109825760Y-215247619D01*
X109825760Y-215247619D02*
X109863855Y-215323809D01*
X109863855Y-215323809D02*
X109863855Y-215476190D01*
X109863855Y-215476190D02*
X109825760Y-215552381D01*
X109825760Y-215552381D02*
X109787664Y-215590476D01*
X109787664Y-215590476D02*
X109711474Y-215628571D01*
X109711474Y-215628571D02*
X109559093Y-215628571D01*
X109559093Y-215628571D02*
X109482902Y-215590476D01*
X109482902Y-215590476D02*
X109444807Y-215552381D01*
X109444807Y-215552381D02*
X109406712Y-215476190D01*
D10*
X94454819Y-208357142D02*
X94454819Y-207880952D01*
X94454819Y-207880952D02*
X93454819Y-207880952D01*
X94454819Y-208690476D02*
X93788152Y-208690476D01*
X93454819Y-208690476D02*
X93502438Y-208642857D01*
X93502438Y-208642857D02*
X93550057Y-208690476D01*
X93550057Y-208690476D02*
X93502438Y-208738095D01*
X93502438Y-208738095D02*
X93454819Y-208690476D01*
X93454819Y-208690476D02*
X93550057Y-208690476D01*
X93788152Y-209023809D02*
X93788152Y-209404761D01*
X93454819Y-209166666D02*
X94311961Y-209166666D01*
X94311961Y-209166666D02*
X94407200Y-209214285D01*
X94407200Y-209214285D02*
X94454819Y-209309523D01*
X94454819Y-209309523D02*
X94454819Y-209404761D01*
X94407200Y-210119047D02*
X94454819Y-210023809D01*
X94454819Y-210023809D02*
X94454819Y-209833333D01*
X94454819Y-209833333D02*
X94407200Y-209738095D01*
X94407200Y-209738095D02*
X94311961Y-209690476D01*
X94311961Y-209690476D02*
X93931009Y-209690476D01*
X93931009Y-209690476D02*
X93835771Y-209738095D01*
X93835771Y-209738095D02*
X93788152Y-209833333D01*
X93788152Y-209833333D02*
X93788152Y-210023809D01*
X93788152Y-210023809D02*
X93835771Y-210119047D01*
X93835771Y-210119047D02*
X93931009Y-210166666D01*
X93931009Y-210166666D02*
X94026247Y-210166666D01*
X94026247Y-210166666D02*
X94121485Y-209690476D01*
X93454819Y-210785714D02*
X93454819Y-210976190D01*
X93454819Y-210976190D02*
X93502438Y-211071428D01*
X93502438Y-211071428D02*
X93597676Y-211166666D01*
X93597676Y-211166666D02*
X93788152Y-211214285D01*
X93788152Y-211214285D02*
X94121485Y-211214285D01*
X94121485Y-211214285D02*
X94311961Y-211166666D01*
X94311961Y-211166666D02*
X94407200Y-211071428D01*
X94407200Y-211071428D02*
X94454819Y-210976190D01*
X94454819Y-210976190D02*
X94454819Y-210785714D01*
X94454819Y-210785714D02*
X94407200Y-210690476D01*
X94407200Y-210690476D02*
X94311961Y-210595238D01*
X94311961Y-210595238D02*
X94121485Y-210547619D01*
X94121485Y-210547619D02*
X93788152Y-210547619D01*
X93788152Y-210547619D02*
X93597676Y-210595238D01*
X93597676Y-210595238D02*
X93502438Y-210690476D01*
X93502438Y-210690476D02*
X93454819Y-210785714D01*
X93788152Y-211642857D02*
X94454819Y-211642857D01*
X93883390Y-211642857D02*
X93835771Y-211690476D01*
X93835771Y-211690476D02*
X93788152Y-211785714D01*
X93788152Y-211785714D02*
X93788152Y-211928571D01*
X93788152Y-211928571D02*
X93835771Y-212023809D01*
X93835771Y-212023809D02*
X93931009Y-212071428D01*
X93931009Y-212071428D02*
X94454819Y-212071428D01*
X94550057Y-212309524D02*
X94550057Y-213071428D01*
X94454819Y-213785714D02*
X94454819Y-213309524D01*
X94454819Y-213309524D02*
X93454819Y-213309524D01*
X93454819Y-213976191D02*
X93454819Y-214547619D01*
X94454819Y-214261905D02*
X93454819Y-214261905D01*
X94407200Y-214833334D02*
X94454819Y-214976191D01*
X94454819Y-214976191D02*
X94454819Y-215214286D01*
X94454819Y-215214286D02*
X94407200Y-215309524D01*
X94407200Y-215309524D02*
X94359580Y-215357143D01*
X94359580Y-215357143D02*
X94264342Y-215404762D01*
X94264342Y-215404762D02*
X94169104Y-215404762D01*
X94169104Y-215404762D02*
X94073866Y-215357143D01*
X94073866Y-215357143D02*
X94026247Y-215309524D01*
X94026247Y-215309524D02*
X93978628Y-215214286D01*
X93978628Y-215214286D02*
X93931009Y-215023810D01*
X93931009Y-215023810D02*
X93883390Y-214928572D01*
X93883390Y-214928572D02*
X93835771Y-214880953D01*
X93835771Y-214880953D02*
X93740533Y-214833334D01*
X93740533Y-214833334D02*
X93645295Y-214833334D01*
X93645295Y-214833334D02*
X93550057Y-214880953D01*
X93550057Y-214880953D02*
X93502438Y-214928572D01*
X93502438Y-214928572D02*
X93454819Y-215023810D01*
X93454819Y-215023810D02*
X93454819Y-215261905D01*
X93454819Y-215261905D02*
X93502438Y-215404762D01*
X93454819Y-215690477D02*
X93454819Y-216261905D01*
X94454819Y-215976191D02*
X93454819Y-215976191D01*
X94073866Y-216595239D02*
X94073866Y-217357144D01*
X93931009Y-217833334D02*
X93931009Y-218166667D01*
X94454819Y-218309524D02*
X94454819Y-217833334D01*
X94454819Y-217833334D02*
X93454819Y-217833334D01*
X93454819Y-217833334D02*
X93454819Y-218309524D01*
X93454819Y-219214286D02*
X93454819Y-218738096D01*
X93454819Y-218738096D02*
X93931009Y-218690477D01*
X93931009Y-218690477D02*
X93883390Y-218738096D01*
X93883390Y-218738096D02*
X93835771Y-218833334D01*
X93835771Y-218833334D02*
X93835771Y-219071429D01*
X93835771Y-219071429D02*
X93883390Y-219166667D01*
X93883390Y-219166667D02*
X93931009Y-219214286D01*
X93931009Y-219214286D02*
X94026247Y-219261905D01*
X94026247Y-219261905D02*
X94264342Y-219261905D01*
X94264342Y-219261905D02*
X94359580Y-219214286D01*
X94359580Y-219214286D02*
X94407200Y-219166667D01*
X94407200Y-219166667D02*
X94454819Y-219071429D01*
X94454819Y-219071429D02*
X94454819Y-218833334D01*
X94454819Y-218833334D02*
X94407200Y-218738096D01*
X94407200Y-218738096D02*
X94359580Y-218690477D01*
X93454819Y-220119048D02*
X93454819Y-219928572D01*
X93454819Y-219928572D02*
X93502438Y-219833334D01*
X93502438Y-219833334D02*
X93550057Y-219785715D01*
X93550057Y-219785715D02*
X93692914Y-219690477D01*
X93692914Y-219690477D02*
X93883390Y-219642858D01*
X93883390Y-219642858D02*
X94264342Y-219642858D01*
X94264342Y-219642858D02*
X94359580Y-219690477D01*
X94359580Y-219690477D02*
X94407200Y-219738096D01*
X94407200Y-219738096D02*
X94454819Y-219833334D01*
X94454819Y-219833334D02*
X94454819Y-220023810D01*
X94454819Y-220023810D02*
X94407200Y-220119048D01*
X94407200Y-220119048D02*
X94359580Y-220166667D01*
X94359580Y-220166667D02*
X94264342Y-220214286D01*
X94264342Y-220214286D02*
X94026247Y-220214286D01*
X94026247Y-220214286D02*
X93931009Y-220166667D01*
X93931009Y-220166667D02*
X93883390Y-220119048D01*
X93883390Y-220119048D02*
X93835771Y-220023810D01*
X93835771Y-220023810D02*
X93835771Y-219833334D01*
X93835771Y-219833334D02*
X93883390Y-219738096D01*
X93883390Y-219738096D02*
X93931009Y-219690477D01*
X93931009Y-219690477D02*
X94026247Y-219642858D01*
X93454819Y-220547620D02*
X93454819Y-221166667D01*
X93454819Y-221166667D02*
X93835771Y-220833334D01*
X93835771Y-220833334D02*
X93835771Y-220976191D01*
X93835771Y-220976191D02*
X93883390Y-221071429D01*
X93883390Y-221071429D02*
X93931009Y-221119048D01*
X93931009Y-221119048D02*
X94026247Y-221166667D01*
X94026247Y-221166667D02*
X94264342Y-221166667D01*
X94264342Y-221166667D02*
X94359580Y-221119048D01*
X94359580Y-221119048D02*
X94407200Y-221071429D01*
X94407200Y-221071429D02*
X94454819Y-220976191D01*
X94454819Y-220976191D02*
X94454819Y-220690477D01*
X94454819Y-220690477D02*
X94407200Y-220595239D01*
X94407200Y-220595239D02*
X94359580Y-220547620D01*
X94359580Y-222166667D02*
X94407200Y-222119048D01*
X94407200Y-222119048D02*
X94454819Y-221976191D01*
X94454819Y-221976191D02*
X94454819Y-221880953D01*
X94454819Y-221880953D02*
X94407200Y-221738096D01*
X94407200Y-221738096D02*
X94311961Y-221642858D01*
X94311961Y-221642858D02*
X94216723Y-221595239D01*
X94216723Y-221595239D02*
X94026247Y-221547620D01*
X94026247Y-221547620D02*
X93883390Y-221547620D01*
X93883390Y-221547620D02*
X93692914Y-221595239D01*
X93692914Y-221595239D02*
X93597676Y-221642858D01*
X93597676Y-221642858D02*
X93502438Y-221738096D01*
X93502438Y-221738096D02*
X93454819Y-221880953D01*
X93454819Y-221880953D02*
X93454819Y-221976191D01*
X93454819Y-221976191D02*
X93502438Y-222119048D01*
X93502438Y-222119048D02*
X93550057Y-222166667D01*
D11*
X90863855Y-214028571D02*
X90063855Y-214028571D01*
X90063855Y-214028571D02*
X90063855Y-214219047D01*
X90063855Y-214219047D02*
X90101950Y-214333333D01*
X90101950Y-214333333D02*
X90178140Y-214409523D01*
X90178140Y-214409523D02*
X90254331Y-214447618D01*
X90254331Y-214447618D02*
X90406712Y-214485714D01*
X90406712Y-214485714D02*
X90520998Y-214485714D01*
X90520998Y-214485714D02*
X90673379Y-214447618D01*
X90673379Y-214447618D02*
X90749569Y-214409523D01*
X90749569Y-214409523D02*
X90825760Y-214333333D01*
X90825760Y-214333333D02*
X90863855Y-214219047D01*
X90863855Y-214219047D02*
X90863855Y-214028571D01*
X90863855Y-215247618D02*
X90863855Y-214790475D01*
X90863855Y-215019047D02*
X90063855Y-215019047D01*
X90063855Y-215019047D02*
X90178140Y-214942856D01*
X90178140Y-214942856D02*
X90254331Y-214866666D01*
X90254331Y-214866666D02*
X90292426Y-214790475D01*
X90063855Y-215933333D02*
X90063855Y-215780952D01*
X90063855Y-215780952D02*
X90101950Y-215704761D01*
X90101950Y-215704761D02*
X90140045Y-215666666D01*
X90140045Y-215666666D02*
X90254331Y-215590476D01*
X90254331Y-215590476D02*
X90406712Y-215552380D01*
X90406712Y-215552380D02*
X90711474Y-215552380D01*
X90711474Y-215552380D02*
X90787664Y-215590476D01*
X90787664Y-215590476D02*
X90825760Y-215628571D01*
X90825760Y-215628571D02*
X90863855Y-215704761D01*
X90863855Y-215704761D02*
X90863855Y-215857142D01*
X90863855Y-215857142D02*
X90825760Y-215933333D01*
X90825760Y-215933333D02*
X90787664Y-215971428D01*
X90787664Y-215971428D02*
X90711474Y-216009523D01*
X90711474Y-216009523D02*
X90520998Y-216009523D01*
X90520998Y-216009523D02*
X90444807Y-215971428D01*
X90444807Y-215971428D02*
X90406712Y-215933333D01*
X90406712Y-215933333D02*
X90368617Y-215857142D01*
X90368617Y-215857142D02*
X90368617Y-215704761D01*
X90368617Y-215704761D02*
X90406712Y-215628571D01*
X90406712Y-215628571D02*
X90444807Y-215590476D01*
X90444807Y-215590476D02*
X90520998Y-215552380D01*
X90463855Y-216189523D02*
X90463855Y-213848571D01*
D10*
X104657200Y-169666667D02*
X104704819Y-169809524D01*
X104704819Y-169809524D02*
X104704819Y-170047619D01*
X104704819Y-170047619D02*
X104657200Y-170142857D01*
X104657200Y-170142857D02*
X104609580Y-170190476D01*
X104609580Y-170190476D02*
X104514342Y-170238095D01*
X104514342Y-170238095D02*
X104419104Y-170238095D01*
X104419104Y-170238095D02*
X104323866Y-170190476D01*
X104323866Y-170190476D02*
X104276247Y-170142857D01*
X104276247Y-170142857D02*
X104228628Y-170047619D01*
X104228628Y-170047619D02*
X104181009Y-169857143D01*
X104181009Y-169857143D02*
X104133390Y-169761905D01*
X104133390Y-169761905D02*
X104085771Y-169714286D01*
X104085771Y-169714286D02*
X103990533Y-169666667D01*
X103990533Y-169666667D02*
X103895295Y-169666667D01*
X103895295Y-169666667D02*
X103800057Y-169714286D01*
X103800057Y-169714286D02*
X103752438Y-169761905D01*
X103752438Y-169761905D02*
X103704819Y-169857143D01*
X103704819Y-169857143D02*
X103704819Y-170095238D01*
X103704819Y-170095238D02*
X103752438Y-170238095D01*
X103704819Y-170571429D02*
X104704819Y-170809524D01*
X104704819Y-170809524D02*
X103990533Y-171000000D01*
X103990533Y-171000000D02*
X104704819Y-171190476D01*
X104704819Y-171190476D02*
X103704819Y-171428572D01*
X103704819Y-171714286D02*
X103704819Y-172333333D01*
X103704819Y-172333333D02*
X104085771Y-172000000D01*
X104085771Y-172000000D02*
X104085771Y-172142857D01*
X104085771Y-172142857D02*
X104133390Y-172238095D01*
X104133390Y-172238095D02*
X104181009Y-172285714D01*
X104181009Y-172285714D02*
X104276247Y-172333333D01*
X104276247Y-172333333D02*
X104514342Y-172333333D01*
X104514342Y-172333333D02*
X104609580Y-172285714D01*
X104609580Y-172285714D02*
X104657200Y-172238095D01*
X104657200Y-172238095D02*
X104704819Y-172142857D01*
X104704819Y-172142857D02*
X104704819Y-171857143D01*
X104704819Y-171857143D02*
X104657200Y-171761905D01*
X104657200Y-171761905D02*
X104609580Y-171714286D01*
X104657200Y-81666667D02*
X104704819Y-81809524D01*
X104704819Y-81809524D02*
X104704819Y-82047619D01*
X104704819Y-82047619D02*
X104657200Y-82142857D01*
X104657200Y-82142857D02*
X104609580Y-82190476D01*
X104609580Y-82190476D02*
X104514342Y-82238095D01*
X104514342Y-82238095D02*
X104419104Y-82238095D01*
X104419104Y-82238095D02*
X104323866Y-82190476D01*
X104323866Y-82190476D02*
X104276247Y-82142857D01*
X104276247Y-82142857D02*
X104228628Y-82047619D01*
X104228628Y-82047619D02*
X104181009Y-81857143D01*
X104181009Y-81857143D02*
X104133390Y-81761905D01*
X104133390Y-81761905D02*
X104085771Y-81714286D01*
X104085771Y-81714286D02*
X103990533Y-81666667D01*
X103990533Y-81666667D02*
X103895295Y-81666667D01*
X103895295Y-81666667D02*
X103800057Y-81714286D01*
X103800057Y-81714286D02*
X103752438Y-81761905D01*
X103752438Y-81761905D02*
X103704819Y-81857143D01*
X103704819Y-81857143D02*
X103704819Y-82095238D01*
X103704819Y-82095238D02*
X103752438Y-82238095D01*
X103704819Y-82571429D02*
X104704819Y-82809524D01*
X104704819Y-82809524D02*
X103990533Y-83000000D01*
X103990533Y-83000000D02*
X104704819Y-83190476D01*
X104704819Y-83190476D02*
X103704819Y-83428572D01*
X103704819Y-83714286D02*
X103704819Y-84380952D01*
X103704819Y-84380952D02*
X104704819Y-83952381D01*
X113454819Y-186357142D02*
X113454819Y-185880952D01*
X113454819Y-185880952D02*
X112454819Y-185880952D01*
X113454819Y-186690476D02*
X112788152Y-186690476D01*
X112454819Y-186690476D02*
X112502438Y-186642857D01*
X112502438Y-186642857D02*
X112550057Y-186690476D01*
X112550057Y-186690476D02*
X112502438Y-186738095D01*
X112502438Y-186738095D02*
X112454819Y-186690476D01*
X112454819Y-186690476D02*
X112550057Y-186690476D01*
X112788152Y-187023809D02*
X112788152Y-187404761D01*
X112454819Y-187166666D02*
X113311961Y-187166666D01*
X113311961Y-187166666D02*
X113407200Y-187214285D01*
X113407200Y-187214285D02*
X113454819Y-187309523D01*
X113454819Y-187309523D02*
X113454819Y-187404761D01*
X113407200Y-188119047D02*
X113454819Y-188023809D01*
X113454819Y-188023809D02*
X113454819Y-187833333D01*
X113454819Y-187833333D02*
X113407200Y-187738095D01*
X113407200Y-187738095D02*
X113311961Y-187690476D01*
X113311961Y-187690476D02*
X112931009Y-187690476D01*
X112931009Y-187690476D02*
X112835771Y-187738095D01*
X112835771Y-187738095D02*
X112788152Y-187833333D01*
X112788152Y-187833333D02*
X112788152Y-188023809D01*
X112788152Y-188023809D02*
X112835771Y-188119047D01*
X112835771Y-188119047D02*
X112931009Y-188166666D01*
X112931009Y-188166666D02*
X113026247Y-188166666D01*
X113026247Y-188166666D02*
X113121485Y-187690476D01*
X112454819Y-188785714D02*
X112454819Y-188976190D01*
X112454819Y-188976190D02*
X112502438Y-189071428D01*
X112502438Y-189071428D02*
X112597676Y-189166666D01*
X112597676Y-189166666D02*
X112788152Y-189214285D01*
X112788152Y-189214285D02*
X113121485Y-189214285D01*
X113121485Y-189214285D02*
X113311961Y-189166666D01*
X113311961Y-189166666D02*
X113407200Y-189071428D01*
X113407200Y-189071428D02*
X113454819Y-188976190D01*
X113454819Y-188976190D02*
X113454819Y-188785714D01*
X113454819Y-188785714D02*
X113407200Y-188690476D01*
X113407200Y-188690476D02*
X113311961Y-188595238D01*
X113311961Y-188595238D02*
X113121485Y-188547619D01*
X113121485Y-188547619D02*
X112788152Y-188547619D01*
X112788152Y-188547619D02*
X112597676Y-188595238D01*
X112597676Y-188595238D02*
X112502438Y-188690476D01*
X112502438Y-188690476D02*
X112454819Y-188785714D01*
X112788152Y-189642857D02*
X113454819Y-189642857D01*
X112883390Y-189642857D02*
X112835771Y-189690476D01*
X112835771Y-189690476D02*
X112788152Y-189785714D01*
X112788152Y-189785714D02*
X112788152Y-189928571D01*
X112788152Y-189928571D02*
X112835771Y-190023809D01*
X112835771Y-190023809D02*
X112931009Y-190071428D01*
X112931009Y-190071428D02*
X113454819Y-190071428D01*
X113550057Y-190309524D02*
X113550057Y-191071428D01*
X113454819Y-191785714D02*
X113454819Y-191309524D01*
X113454819Y-191309524D02*
X112454819Y-191309524D01*
X112454819Y-191976191D02*
X112454819Y-192547619D01*
X113454819Y-192261905D02*
X112454819Y-192261905D01*
X113407200Y-192833334D02*
X113454819Y-192976191D01*
X113454819Y-192976191D02*
X113454819Y-193214286D01*
X113454819Y-193214286D02*
X113407200Y-193309524D01*
X113407200Y-193309524D02*
X113359580Y-193357143D01*
X113359580Y-193357143D02*
X113264342Y-193404762D01*
X113264342Y-193404762D02*
X113169104Y-193404762D01*
X113169104Y-193404762D02*
X113073866Y-193357143D01*
X113073866Y-193357143D02*
X113026247Y-193309524D01*
X113026247Y-193309524D02*
X112978628Y-193214286D01*
X112978628Y-193214286D02*
X112931009Y-193023810D01*
X112931009Y-193023810D02*
X112883390Y-192928572D01*
X112883390Y-192928572D02*
X112835771Y-192880953D01*
X112835771Y-192880953D02*
X112740533Y-192833334D01*
X112740533Y-192833334D02*
X112645295Y-192833334D01*
X112645295Y-192833334D02*
X112550057Y-192880953D01*
X112550057Y-192880953D02*
X112502438Y-192928572D01*
X112502438Y-192928572D02*
X112454819Y-193023810D01*
X112454819Y-193023810D02*
X112454819Y-193261905D01*
X112454819Y-193261905D02*
X112502438Y-193404762D01*
X112454819Y-193690477D02*
X112454819Y-194261905D01*
X113454819Y-193976191D02*
X112454819Y-193976191D01*
X113073866Y-194595239D02*
X113073866Y-195357144D01*
X112931009Y-195833334D02*
X112931009Y-196166667D01*
X113454819Y-196309524D02*
X113454819Y-195833334D01*
X113454819Y-195833334D02*
X112454819Y-195833334D01*
X112454819Y-195833334D02*
X112454819Y-196309524D01*
X112454819Y-197214286D02*
X112454819Y-196738096D01*
X112454819Y-196738096D02*
X112931009Y-196690477D01*
X112931009Y-196690477D02*
X112883390Y-196738096D01*
X112883390Y-196738096D02*
X112835771Y-196833334D01*
X112835771Y-196833334D02*
X112835771Y-197071429D01*
X112835771Y-197071429D02*
X112883390Y-197166667D01*
X112883390Y-197166667D02*
X112931009Y-197214286D01*
X112931009Y-197214286D02*
X113026247Y-197261905D01*
X113026247Y-197261905D02*
X113264342Y-197261905D01*
X113264342Y-197261905D02*
X113359580Y-197214286D01*
X113359580Y-197214286D02*
X113407200Y-197166667D01*
X113407200Y-197166667D02*
X113454819Y-197071429D01*
X113454819Y-197071429D02*
X113454819Y-196833334D01*
X113454819Y-196833334D02*
X113407200Y-196738096D01*
X113407200Y-196738096D02*
X113359580Y-196690477D01*
X112454819Y-198119048D02*
X112454819Y-197928572D01*
X112454819Y-197928572D02*
X112502438Y-197833334D01*
X112502438Y-197833334D02*
X112550057Y-197785715D01*
X112550057Y-197785715D02*
X112692914Y-197690477D01*
X112692914Y-197690477D02*
X112883390Y-197642858D01*
X112883390Y-197642858D02*
X113264342Y-197642858D01*
X113264342Y-197642858D02*
X113359580Y-197690477D01*
X113359580Y-197690477D02*
X113407200Y-197738096D01*
X113407200Y-197738096D02*
X113454819Y-197833334D01*
X113454819Y-197833334D02*
X113454819Y-198023810D01*
X113454819Y-198023810D02*
X113407200Y-198119048D01*
X113407200Y-198119048D02*
X113359580Y-198166667D01*
X113359580Y-198166667D02*
X113264342Y-198214286D01*
X113264342Y-198214286D02*
X113026247Y-198214286D01*
X113026247Y-198214286D02*
X112931009Y-198166667D01*
X112931009Y-198166667D02*
X112883390Y-198119048D01*
X112883390Y-198119048D02*
X112835771Y-198023810D01*
X112835771Y-198023810D02*
X112835771Y-197833334D01*
X112835771Y-197833334D02*
X112883390Y-197738096D01*
X112883390Y-197738096D02*
X112931009Y-197690477D01*
X112931009Y-197690477D02*
X113026247Y-197642858D01*
X112454819Y-198547620D02*
X112454819Y-199166667D01*
X112454819Y-199166667D02*
X112835771Y-198833334D01*
X112835771Y-198833334D02*
X112835771Y-198976191D01*
X112835771Y-198976191D02*
X112883390Y-199071429D01*
X112883390Y-199071429D02*
X112931009Y-199119048D01*
X112931009Y-199119048D02*
X113026247Y-199166667D01*
X113026247Y-199166667D02*
X113264342Y-199166667D01*
X113264342Y-199166667D02*
X113359580Y-199119048D01*
X113359580Y-199119048D02*
X113407200Y-199071429D01*
X113407200Y-199071429D02*
X113454819Y-198976191D01*
X113454819Y-198976191D02*
X113454819Y-198690477D01*
X113454819Y-198690477D02*
X113407200Y-198595239D01*
X113407200Y-198595239D02*
X113359580Y-198547620D01*
X113359580Y-200166667D02*
X113407200Y-200119048D01*
X113407200Y-200119048D02*
X113454819Y-199976191D01*
X113454819Y-199976191D02*
X113454819Y-199880953D01*
X113454819Y-199880953D02*
X113407200Y-199738096D01*
X113407200Y-199738096D02*
X113311961Y-199642858D01*
X113311961Y-199642858D02*
X113216723Y-199595239D01*
X113216723Y-199595239D02*
X113026247Y-199547620D01*
X113026247Y-199547620D02*
X112883390Y-199547620D01*
X112883390Y-199547620D02*
X112692914Y-199595239D01*
X112692914Y-199595239D02*
X112597676Y-199642858D01*
X112597676Y-199642858D02*
X112502438Y-199738096D01*
X112502438Y-199738096D02*
X112454819Y-199880953D01*
X112454819Y-199880953D02*
X112454819Y-199976191D01*
X112454819Y-199976191D02*
X112502438Y-200119048D01*
X112502438Y-200119048D02*
X112550057Y-200166667D01*
D11*
X109863855Y-192409524D02*
X109063855Y-192409524D01*
X109063855Y-192409524D02*
X109063855Y-192600000D01*
X109063855Y-192600000D02*
X109101950Y-192714286D01*
X109101950Y-192714286D02*
X109178140Y-192790476D01*
X109178140Y-192790476D02*
X109254331Y-192828571D01*
X109254331Y-192828571D02*
X109406712Y-192866667D01*
X109406712Y-192866667D02*
X109520998Y-192866667D01*
X109520998Y-192866667D02*
X109673379Y-192828571D01*
X109673379Y-192828571D02*
X109749569Y-192790476D01*
X109749569Y-192790476D02*
X109825760Y-192714286D01*
X109825760Y-192714286D02*
X109863855Y-192600000D01*
X109863855Y-192600000D02*
X109863855Y-192409524D01*
X109063855Y-193133333D02*
X109063855Y-193666667D01*
X109063855Y-193666667D02*
X109863855Y-193323809D01*
D10*
X94454819Y-142357142D02*
X94454819Y-141880952D01*
X94454819Y-141880952D02*
X93454819Y-141880952D01*
X94454819Y-142690476D02*
X93788152Y-142690476D01*
X93454819Y-142690476D02*
X93502438Y-142642857D01*
X93502438Y-142642857D02*
X93550057Y-142690476D01*
X93550057Y-142690476D02*
X93502438Y-142738095D01*
X93502438Y-142738095D02*
X93454819Y-142690476D01*
X93454819Y-142690476D02*
X93550057Y-142690476D01*
X93788152Y-143023809D02*
X93788152Y-143404761D01*
X93454819Y-143166666D02*
X94311961Y-143166666D01*
X94311961Y-143166666D02*
X94407200Y-143214285D01*
X94407200Y-143214285D02*
X94454819Y-143309523D01*
X94454819Y-143309523D02*
X94454819Y-143404761D01*
X94407200Y-144119047D02*
X94454819Y-144023809D01*
X94454819Y-144023809D02*
X94454819Y-143833333D01*
X94454819Y-143833333D02*
X94407200Y-143738095D01*
X94407200Y-143738095D02*
X94311961Y-143690476D01*
X94311961Y-143690476D02*
X93931009Y-143690476D01*
X93931009Y-143690476D02*
X93835771Y-143738095D01*
X93835771Y-143738095D02*
X93788152Y-143833333D01*
X93788152Y-143833333D02*
X93788152Y-144023809D01*
X93788152Y-144023809D02*
X93835771Y-144119047D01*
X93835771Y-144119047D02*
X93931009Y-144166666D01*
X93931009Y-144166666D02*
X94026247Y-144166666D01*
X94026247Y-144166666D02*
X94121485Y-143690476D01*
X93454819Y-144785714D02*
X93454819Y-144976190D01*
X93454819Y-144976190D02*
X93502438Y-145071428D01*
X93502438Y-145071428D02*
X93597676Y-145166666D01*
X93597676Y-145166666D02*
X93788152Y-145214285D01*
X93788152Y-145214285D02*
X94121485Y-145214285D01*
X94121485Y-145214285D02*
X94311961Y-145166666D01*
X94311961Y-145166666D02*
X94407200Y-145071428D01*
X94407200Y-145071428D02*
X94454819Y-144976190D01*
X94454819Y-144976190D02*
X94454819Y-144785714D01*
X94454819Y-144785714D02*
X94407200Y-144690476D01*
X94407200Y-144690476D02*
X94311961Y-144595238D01*
X94311961Y-144595238D02*
X94121485Y-144547619D01*
X94121485Y-144547619D02*
X93788152Y-144547619D01*
X93788152Y-144547619D02*
X93597676Y-144595238D01*
X93597676Y-144595238D02*
X93502438Y-144690476D01*
X93502438Y-144690476D02*
X93454819Y-144785714D01*
X93788152Y-145642857D02*
X94454819Y-145642857D01*
X93883390Y-145642857D02*
X93835771Y-145690476D01*
X93835771Y-145690476D02*
X93788152Y-145785714D01*
X93788152Y-145785714D02*
X93788152Y-145928571D01*
X93788152Y-145928571D02*
X93835771Y-146023809D01*
X93835771Y-146023809D02*
X93931009Y-146071428D01*
X93931009Y-146071428D02*
X94454819Y-146071428D01*
X94550057Y-146309524D02*
X94550057Y-147071428D01*
X94454819Y-147785714D02*
X94454819Y-147309524D01*
X94454819Y-147309524D02*
X93454819Y-147309524D01*
X93454819Y-147976191D02*
X93454819Y-148547619D01*
X94454819Y-148261905D02*
X93454819Y-148261905D01*
X94407200Y-148833334D02*
X94454819Y-148976191D01*
X94454819Y-148976191D02*
X94454819Y-149214286D01*
X94454819Y-149214286D02*
X94407200Y-149309524D01*
X94407200Y-149309524D02*
X94359580Y-149357143D01*
X94359580Y-149357143D02*
X94264342Y-149404762D01*
X94264342Y-149404762D02*
X94169104Y-149404762D01*
X94169104Y-149404762D02*
X94073866Y-149357143D01*
X94073866Y-149357143D02*
X94026247Y-149309524D01*
X94026247Y-149309524D02*
X93978628Y-149214286D01*
X93978628Y-149214286D02*
X93931009Y-149023810D01*
X93931009Y-149023810D02*
X93883390Y-148928572D01*
X93883390Y-148928572D02*
X93835771Y-148880953D01*
X93835771Y-148880953D02*
X93740533Y-148833334D01*
X93740533Y-148833334D02*
X93645295Y-148833334D01*
X93645295Y-148833334D02*
X93550057Y-148880953D01*
X93550057Y-148880953D02*
X93502438Y-148928572D01*
X93502438Y-148928572D02*
X93454819Y-149023810D01*
X93454819Y-149023810D02*
X93454819Y-149261905D01*
X93454819Y-149261905D02*
X93502438Y-149404762D01*
X93454819Y-149690477D02*
X93454819Y-150261905D01*
X94454819Y-149976191D02*
X93454819Y-149976191D01*
X94073866Y-150595239D02*
X94073866Y-151357144D01*
X93931009Y-151833334D02*
X93931009Y-152166667D01*
X94454819Y-152309524D02*
X94454819Y-151833334D01*
X94454819Y-151833334D02*
X93454819Y-151833334D01*
X93454819Y-151833334D02*
X93454819Y-152309524D01*
X93454819Y-153214286D02*
X93454819Y-152738096D01*
X93454819Y-152738096D02*
X93931009Y-152690477D01*
X93931009Y-152690477D02*
X93883390Y-152738096D01*
X93883390Y-152738096D02*
X93835771Y-152833334D01*
X93835771Y-152833334D02*
X93835771Y-153071429D01*
X93835771Y-153071429D02*
X93883390Y-153166667D01*
X93883390Y-153166667D02*
X93931009Y-153214286D01*
X93931009Y-153214286D02*
X94026247Y-153261905D01*
X94026247Y-153261905D02*
X94264342Y-153261905D01*
X94264342Y-153261905D02*
X94359580Y-153214286D01*
X94359580Y-153214286D02*
X94407200Y-153166667D01*
X94407200Y-153166667D02*
X94454819Y-153071429D01*
X94454819Y-153071429D02*
X94454819Y-152833334D01*
X94454819Y-152833334D02*
X94407200Y-152738096D01*
X94407200Y-152738096D02*
X94359580Y-152690477D01*
X93454819Y-154119048D02*
X93454819Y-153928572D01*
X93454819Y-153928572D02*
X93502438Y-153833334D01*
X93502438Y-153833334D02*
X93550057Y-153785715D01*
X93550057Y-153785715D02*
X93692914Y-153690477D01*
X93692914Y-153690477D02*
X93883390Y-153642858D01*
X93883390Y-153642858D02*
X94264342Y-153642858D01*
X94264342Y-153642858D02*
X94359580Y-153690477D01*
X94359580Y-153690477D02*
X94407200Y-153738096D01*
X94407200Y-153738096D02*
X94454819Y-153833334D01*
X94454819Y-153833334D02*
X94454819Y-154023810D01*
X94454819Y-154023810D02*
X94407200Y-154119048D01*
X94407200Y-154119048D02*
X94359580Y-154166667D01*
X94359580Y-154166667D02*
X94264342Y-154214286D01*
X94264342Y-154214286D02*
X94026247Y-154214286D01*
X94026247Y-154214286D02*
X93931009Y-154166667D01*
X93931009Y-154166667D02*
X93883390Y-154119048D01*
X93883390Y-154119048D02*
X93835771Y-154023810D01*
X93835771Y-154023810D02*
X93835771Y-153833334D01*
X93835771Y-153833334D02*
X93883390Y-153738096D01*
X93883390Y-153738096D02*
X93931009Y-153690477D01*
X93931009Y-153690477D02*
X94026247Y-153642858D01*
X93454819Y-154547620D02*
X93454819Y-155166667D01*
X93454819Y-155166667D02*
X93835771Y-154833334D01*
X93835771Y-154833334D02*
X93835771Y-154976191D01*
X93835771Y-154976191D02*
X93883390Y-155071429D01*
X93883390Y-155071429D02*
X93931009Y-155119048D01*
X93931009Y-155119048D02*
X94026247Y-155166667D01*
X94026247Y-155166667D02*
X94264342Y-155166667D01*
X94264342Y-155166667D02*
X94359580Y-155119048D01*
X94359580Y-155119048D02*
X94407200Y-155071429D01*
X94407200Y-155071429D02*
X94454819Y-154976191D01*
X94454819Y-154976191D02*
X94454819Y-154690477D01*
X94454819Y-154690477D02*
X94407200Y-154595239D01*
X94407200Y-154595239D02*
X94359580Y-154547620D01*
X94359580Y-156166667D02*
X94407200Y-156119048D01*
X94407200Y-156119048D02*
X94454819Y-155976191D01*
X94454819Y-155976191D02*
X94454819Y-155880953D01*
X94454819Y-155880953D02*
X94407200Y-155738096D01*
X94407200Y-155738096D02*
X94311961Y-155642858D01*
X94311961Y-155642858D02*
X94216723Y-155595239D01*
X94216723Y-155595239D02*
X94026247Y-155547620D01*
X94026247Y-155547620D02*
X93883390Y-155547620D01*
X93883390Y-155547620D02*
X93692914Y-155595239D01*
X93692914Y-155595239D02*
X93597676Y-155642858D01*
X93597676Y-155642858D02*
X93502438Y-155738096D01*
X93502438Y-155738096D02*
X93454819Y-155880953D01*
X93454819Y-155880953D02*
X93454819Y-155976191D01*
X93454819Y-155976191D02*
X93502438Y-156119048D01*
X93502438Y-156119048D02*
X93550057Y-156166667D01*
D11*
X90863855Y-148028571D02*
X90063855Y-148028571D01*
X90063855Y-148028571D02*
X90063855Y-148219047D01*
X90063855Y-148219047D02*
X90101950Y-148333333D01*
X90101950Y-148333333D02*
X90178140Y-148409523D01*
X90178140Y-148409523D02*
X90254331Y-148447618D01*
X90254331Y-148447618D02*
X90406712Y-148485714D01*
X90406712Y-148485714D02*
X90520998Y-148485714D01*
X90520998Y-148485714D02*
X90673379Y-148447618D01*
X90673379Y-148447618D02*
X90749569Y-148409523D01*
X90749569Y-148409523D02*
X90825760Y-148333333D01*
X90825760Y-148333333D02*
X90863855Y-148219047D01*
X90863855Y-148219047D02*
X90863855Y-148028571D01*
X90863855Y-149247618D02*
X90863855Y-148790475D01*
X90863855Y-149019047D02*
X90063855Y-149019047D01*
X90063855Y-149019047D02*
X90178140Y-148942856D01*
X90178140Y-148942856D02*
X90254331Y-148866666D01*
X90254331Y-148866666D02*
X90292426Y-148790475D01*
X90063855Y-149514285D02*
X90063855Y-150009523D01*
X90063855Y-150009523D02*
X90368617Y-149742857D01*
X90368617Y-149742857D02*
X90368617Y-149857142D01*
X90368617Y-149857142D02*
X90406712Y-149933333D01*
X90406712Y-149933333D02*
X90444807Y-149971428D01*
X90444807Y-149971428D02*
X90520998Y-150009523D01*
X90520998Y-150009523D02*
X90711474Y-150009523D01*
X90711474Y-150009523D02*
X90787664Y-149971428D01*
X90787664Y-149971428D02*
X90825760Y-149933333D01*
X90825760Y-149933333D02*
X90863855Y-149857142D01*
X90863855Y-149857142D02*
X90863855Y-149628571D01*
X90863855Y-149628571D02*
X90825760Y-149552380D01*
X90825760Y-149552380D02*
X90787664Y-149514285D01*
X90463855Y-150189523D02*
X90463855Y-147848571D01*
D10*
X113454819Y-142357142D02*
X113454819Y-141880952D01*
X113454819Y-141880952D02*
X112454819Y-141880952D01*
X113454819Y-142690476D02*
X112788152Y-142690476D01*
X112454819Y-142690476D02*
X112502438Y-142642857D01*
X112502438Y-142642857D02*
X112550057Y-142690476D01*
X112550057Y-142690476D02*
X112502438Y-142738095D01*
X112502438Y-142738095D02*
X112454819Y-142690476D01*
X112454819Y-142690476D02*
X112550057Y-142690476D01*
X112788152Y-143023809D02*
X112788152Y-143404761D01*
X112454819Y-143166666D02*
X113311961Y-143166666D01*
X113311961Y-143166666D02*
X113407200Y-143214285D01*
X113407200Y-143214285D02*
X113454819Y-143309523D01*
X113454819Y-143309523D02*
X113454819Y-143404761D01*
X113407200Y-144119047D02*
X113454819Y-144023809D01*
X113454819Y-144023809D02*
X113454819Y-143833333D01*
X113454819Y-143833333D02*
X113407200Y-143738095D01*
X113407200Y-143738095D02*
X113311961Y-143690476D01*
X113311961Y-143690476D02*
X112931009Y-143690476D01*
X112931009Y-143690476D02*
X112835771Y-143738095D01*
X112835771Y-143738095D02*
X112788152Y-143833333D01*
X112788152Y-143833333D02*
X112788152Y-144023809D01*
X112788152Y-144023809D02*
X112835771Y-144119047D01*
X112835771Y-144119047D02*
X112931009Y-144166666D01*
X112931009Y-144166666D02*
X113026247Y-144166666D01*
X113026247Y-144166666D02*
X113121485Y-143690476D01*
X112454819Y-144785714D02*
X112454819Y-144976190D01*
X112454819Y-144976190D02*
X112502438Y-145071428D01*
X112502438Y-145071428D02*
X112597676Y-145166666D01*
X112597676Y-145166666D02*
X112788152Y-145214285D01*
X112788152Y-145214285D02*
X113121485Y-145214285D01*
X113121485Y-145214285D02*
X113311961Y-145166666D01*
X113311961Y-145166666D02*
X113407200Y-145071428D01*
X113407200Y-145071428D02*
X113454819Y-144976190D01*
X113454819Y-144976190D02*
X113454819Y-144785714D01*
X113454819Y-144785714D02*
X113407200Y-144690476D01*
X113407200Y-144690476D02*
X113311961Y-144595238D01*
X113311961Y-144595238D02*
X113121485Y-144547619D01*
X113121485Y-144547619D02*
X112788152Y-144547619D01*
X112788152Y-144547619D02*
X112597676Y-144595238D01*
X112597676Y-144595238D02*
X112502438Y-144690476D01*
X112502438Y-144690476D02*
X112454819Y-144785714D01*
X112788152Y-145642857D02*
X113454819Y-145642857D01*
X112883390Y-145642857D02*
X112835771Y-145690476D01*
X112835771Y-145690476D02*
X112788152Y-145785714D01*
X112788152Y-145785714D02*
X112788152Y-145928571D01*
X112788152Y-145928571D02*
X112835771Y-146023809D01*
X112835771Y-146023809D02*
X112931009Y-146071428D01*
X112931009Y-146071428D02*
X113454819Y-146071428D01*
X113550057Y-146309524D02*
X113550057Y-147071428D01*
X113454819Y-147785714D02*
X113454819Y-147309524D01*
X113454819Y-147309524D02*
X112454819Y-147309524D01*
X112454819Y-147976191D02*
X112454819Y-148547619D01*
X113454819Y-148261905D02*
X112454819Y-148261905D01*
X113407200Y-148833334D02*
X113454819Y-148976191D01*
X113454819Y-148976191D02*
X113454819Y-149214286D01*
X113454819Y-149214286D02*
X113407200Y-149309524D01*
X113407200Y-149309524D02*
X113359580Y-149357143D01*
X113359580Y-149357143D02*
X113264342Y-149404762D01*
X113264342Y-149404762D02*
X113169104Y-149404762D01*
X113169104Y-149404762D02*
X113073866Y-149357143D01*
X113073866Y-149357143D02*
X113026247Y-149309524D01*
X113026247Y-149309524D02*
X112978628Y-149214286D01*
X112978628Y-149214286D02*
X112931009Y-149023810D01*
X112931009Y-149023810D02*
X112883390Y-148928572D01*
X112883390Y-148928572D02*
X112835771Y-148880953D01*
X112835771Y-148880953D02*
X112740533Y-148833334D01*
X112740533Y-148833334D02*
X112645295Y-148833334D01*
X112645295Y-148833334D02*
X112550057Y-148880953D01*
X112550057Y-148880953D02*
X112502438Y-148928572D01*
X112502438Y-148928572D02*
X112454819Y-149023810D01*
X112454819Y-149023810D02*
X112454819Y-149261905D01*
X112454819Y-149261905D02*
X112502438Y-149404762D01*
X112454819Y-149690477D02*
X112454819Y-150261905D01*
X113454819Y-149976191D02*
X112454819Y-149976191D01*
X113073866Y-150595239D02*
X113073866Y-151357144D01*
X112931009Y-151833334D02*
X112931009Y-152166667D01*
X113454819Y-152309524D02*
X113454819Y-151833334D01*
X113454819Y-151833334D02*
X112454819Y-151833334D01*
X112454819Y-151833334D02*
X112454819Y-152309524D01*
X112454819Y-153214286D02*
X112454819Y-152738096D01*
X112454819Y-152738096D02*
X112931009Y-152690477D01*
X112931009Y-152690477D02*
X112883390Y-152738096D01*
X112883390Y-152738096D02*
X112835771Y-152833334D01*
X112835771Y-152833334D02*
X112835771Y-153071429D01*
X112835771Y-153071429D02*
X112883390Y-153166667D01*
X112883390Y-153166667D02*
X112931009Y-153214286D01*
X112931009Y-153214286D02*
X113026247Y-153261905D01*
X113026247Y-153261905D02*
X113264342Y-153261905D01*
X113264342Y-153261905D02*
X113359580Y-153214286D01*
X113359580Y-153214286D02*
X113407200Y-153166667D01*
X113407200Y-153166667D02*
X113454819Y-153071429D01*
X113454819Y-153071429D02*
X113454819Y-152833334D01*
X113454819Y-152833334D02*
X113407200Y-152738096D01*
X113407200Y-152738096D02*
X113359580Y-152690477D01*
X112454819Y-154119048D02*
X112454819Y-153928572D01*
X112454819Y-153928572D02*
X112502438Y-153833334D01*
X112502438Y-153833334D02*
X112550057Y-153785715D01*
X112550057Y-153785715D02*
X112692914Y-153690477D01*
X112692914Y-153690477D02*
X112883390Y-153642858D01*
X112883390Y-153642858D02*
X113264342Y-153642858D01*
X113264342Y-153642858D02*
X113359580Y-153690477D01*
X113359580Y-153690477D02*
X113407200Y-153738096D01*
X113407200Y-153738096D02*
X113454819Y-153833334D01*
X113454819Y-153833334D02*
X113454819Y-154023810D01*
X113454819Y-154023810D02*
X113407200Y-154119048D01*
X113407200Y-154119048D02*
X113359580Y-154166667D01*
X113359580Y-154166667D02*
X113264342Y-154214286D01*
X113264342Y-154214286D02*
X113026247Y-154214286D01*
X113026247Y-154214286D02*
X112931009Y-154166667D01*
X112931009Y-154166667D02*
X112883390Y-154119048D01*
X112883390Y-154119048D02*
X112835771Y-154023810D01*
X112835771Y-154023810D02*
X112835771Y-153833334D01*
X112835771Y-153833334D02*
X112883390Y-153738096D01*
X112883390Y-153738096D02*
X112931009Y-153690477D01*
X112931009Y-153690477D02*
X113026247Y-153642858D01*
X112454819Y-154547620D02*
X112454819Y-155166667D01*
X112454819Y-155166667D02*
X112835771Y-154833334D01*
X112835771Y-154833334D02*
X112835771Y-154976191D01*
X112835771Y-154976191D02*
X112883390Y-155071429D01*
X112883390Y-155071429D02*
X112931009Y-155119048D01*
X112931009Y-155119048D02*
X113026247Y-155166667D01*
X113026247Y-155166667D02*
X113264342Y-155166667D01*
X113264342Y-155166667D02*
X113359580Y-155119048D01*
X113359580Y-155119048D02*
X113407200Y-155071429D01*
X113407200Y-155071429D02*
X113454819Y-154976191D01*
X113454819Y-154976191D02*
X113454819Y-154690477D01*
X113454819Y-154690477D02*
X113407200Y-154595239D01*
X113407200Y-154595239D02*
X113359580Y-154547620D01*
X113359580Y-156166667D02*
X113407200Y-156119048D01*
X113407200Y-156119048D02*
X113454819Y-155976191D01*
X113454819Y-155976191D02*
X113454819Y-155880953D01*
X113454819Y-155880953D02*
X113407200Y-155738096D01*
X113407200Y-155738096D02*
X113311961Y-155642858D01*
X113311961Y-155642858D02*
X113216723Y-155595239D01*
X113216723Y-155595239D02*
X113026247Y-155547620D01*
X113026247Y-155547620D02*
X112883390Y-155547620D01*
X112883390Y-155547620D02*
X112692914Y-155595239D01*
X112692914Y-155595239D02*
X112597676Y-155642858D01*
X112597676Y-155642858D02*
X112502438Y-155738096D01*
X112502438Y-155738096D02*
X112454819Y-155880953D01*
X112454819Y-155880953D02*
X112454819Y-155976191D01*
X112454819Y-155976191D02*
X112502438Y-156119048D01*
X112502438Y-156119048D02*
X112550057Y-156166667D01*
D11*
X109863855Y-148409524D02*
X109063855Y-148409524D01*
X109063855Y-148409524D02*
X109063855Y-148600000D01*
X109063855Y-148600000D02*
X109101950Y-148714286D01*
X109101950Y-148714286D02*
X109178140Y-148790476D01*
X109178140Y-148790476D02*
X109254331Y-148828571D01*
X109254331Y-148828571D02*
X109406712Y-148866667D01*
X109406712Y-148866667D02*
X109520998Y-148866667D01*
X109520998Y-148866667D02*
X109673379Y-148828571D01*
X109673379Y-148828571D02*
X109749569Y-148790476D01*
X109749569Y-148790476D02*
X109825760Y-148714286D01*
X109825760Y-148714286D02*
X109863855Y-148600000D01*
X109863855Y-148600000D02*
X109863855Y-148409524D01*
X109063855Y-149590476D02*
X109063855Y-149209524D01*
X109063855Y-149209524D02*
X109444807Y-149171428D01*
X109444807Y-149171428D02*
X109406712Y-149209524D01*
X109406712Y-149209524D02*
X109368617Y-149285714D01*
X109368617Y-149285714D02*
X109368617Y-149476190D01*
X109368617Y-149476190D02*
X109406712Y-149552381D01*
X109406712Y-149552381D02*
X109444807Y-149590476D01*
X109444807Y-149590476D02*
X109520998Y-149628571D01*
X109520998Y-149628571D02*
X109711474Y-149628571D01*
X109711474Y-149628571D02*
X109787664Y-149590476D01*
X109787664Y-149590476D02*
X109825760Y-149552381D01*
X109825760Y-149552381D02*
X109863855Y-149476190D01*
X109863855Y-149476190D02*
X109863855Y-149285714D01*
X109863855Y-149285714D02*
X109825760Y-149209524D01*
X109825760Y-149209524D02*
X109787664Y-149171428D01*
%TO.C,SW6*%
D12*
X97000000Y-102000000D02*
X103000000Y-102000000D01*
X103000000Y-108000000D01*
X97000000Y-108000000D01*
X97000000Y-102000000D01*
X101450000Y-105000000D02*
G75*
G02*
X98550000Y-105000000I-1450000J0D01*
G01*
X98550000Y-105000000D02*
G75*
G02*
X101450000Y-105000000I1450000J0D01*
G01*
%TO.C,D4*%
X107000000Y-124500000D02*
X112000000Y-124500000D01*
X107000000Y-129500000D02*
X107000000Y-124500000D01*
X108000000Y-124500000D02*
X107000000Y-125500000D01*
X112000000Y-124500000D02*
X112000000Y-129500000D01*
X112000000Y-129500000D02*
X107000000Y-129500000D01*
X111500000Y-127000000D02*
G75*
G02*
X107500000Y-127000000I-2000000J0D01*
G01*
X107500000Y-127000000D02*
G75*
G02*
X111500000Y-127000000I2000000J0D01*
G01*
%TO.C,D1*%
X107000000Y-58500000D02*
X112000000Y-58500000D01*
X107000000Y-63500000D02*
X107000000Y-58500000D01*
X108000000Y-58500000D02*
X107000000Y-59500000D01*
X112000000Y-58500000D02*
X112000000Y-63500000D01*
X112000000Y-63500000D02*
X107000000Y-63500000D01*
X111500000Y-61000000D02*
G75*
G02*
X107500000Y-61000000I-2000000J0D01*
G01*
X107500000Y-61000000D02*
G75*
G02*
X111500000Y-61000000I2000000J0D01*
G01*
X88000000Y-80550000D02*
X93000000Y-80550000D01*
X93000000Y-80450000D02*
G75*
G02*
X93000000Y-80550000I0J-50000D01*
G01*
X93000000Y-80450000D02*
X88000000Y-80450000D01*
X88000000Y-80450000D02*
G75*
G03*
X88000000Y-80550000I0J-50000D01*
G01*
X88050000Y-85500000D02*
X88050000Y-80500000D01*
X87950000Y-80500000D02*
G75*
G02*
X88050000Y-80500000I50000J0D01*
G01*
X87950000Y-80500000D02*
X87950000Y-85500000D01*
X87950000Y-85500000D02*
G75*
G03*
X88050000Y-85500000I50000J0D01*
G01*
X88964645Y-80464645D02*
X87964645Y-81464645D01*
X88035355Y-81535355D02*
G75*
G02*
X87964645Y-81464645I-35355J35355D01*
G01*
X88035355Y-81535355D02*
X89035355Y-80535355D01*
X89035355Y-80535355D02*
G75*
G03*
X88964645Y-80464645I-35355J35355D01*
G01*
X92950000Y-80500000D02*
X92950000Y-85500000D01*
X93050000Y-85500000D02*
G75*
G02*
X92950000Y-85500000I-50000J0D01*
G01*
X93050000Y-85500000D02*
X93050000Y-80500000D01*
X93050000Y-80500000D02*
G75*
G03*
X92950000Y-80500000I-50000J0D01*
G01*
X93000000Y-85450000D02*
X88000000Y-85450000D01*
X88000000Y-85550000D02*
G75*
G02*
X88000000Y-85450000I0J50000D01*
G01*
X88000000Y-85550000D02*
X93000000Y-85550000D01*
X93000000Y-85550000D02*
G75*
G03*
X93000000Y-85450000I0J50000D01*
G01*
%TO.C,D10*%
X92500000Y-83000000D02*
G75*
G02*
X88500000Y-83000000I-2000000J0D01*
G01*
X88500000Y-83000000D02*
G75*
G02*
X92500000Y-83000000I2000000J0D01*
G01*
X92500000Y-83000000D02*
G75*
G02*
X88500000Y-83000000I-2000000J0D01*
G01*
X88500000Y-83000000D02*
G75*
G02*
X92500000Y-83000000I2000000J0D01*
G01*
%TO.C,D6*%
X107000000Y-168500000D02*
X112000000Y-168500000D01*
X107000000Y-173500000D02*
X107000000Y-168500000D01*
X108000000Y-168500000D02*
X107000000Y-169500000D01*
X112000000Y-168500000D02*
X112000000Y-173500000D01*
X112000000Y-173500000D02*
X107000000Y-173500000D01*
X111500000Y-171000000D02*
G75*
G02*
X107500000Y-171000000I-2000000J0D01*
G01*
X107500000Y-171000000D02*
G75*
G02*
X111500000Y-171000000I2000000J0D01*
G01*
X88000000Y-124550000D02*
X93000000Y-124550000D01*
X93000000Y-124450000D02*
G75*
G02*
X93000000Y-124550000I0J-50000D01*
G01*
X93000000Y-124450000D02*
X88000000Y-124450000D01*
X88000000Y-124450000D02*
G75*
G03*
X88000000Y-124550000I0J-50000D01*
G01*
X88050000Y-129500000D02*
X88050000Y-124500000D01*
X87950000Y-124500000D02*
G75*
G02*
X88050000Y-124500000I50000J0D01*
G01*
X87950000Y-124500000D02*
X87950000Y-129500000D01*
X87950000Y-129500000D02*
G75*
G03*
X88050000Y-129500000I50000J0D01*
G01*
X88964645Y-124464645D02*
X87964645Y-125464645D01*
X88035355Y-125535355D02*
G75*
G02*
X87964645Y-125464645I-35355J35355D01*
G01*
X88035355Y-125535355D02*
X89035355Y-124535355D01*
X89035355Y-124535355D02*
G75*
G03*
X88964645Y-124464645I-35355J35355D01*
G01*
X92950000Y-124500000D02*
X92950000Y-129500000D01*
X93050000Y-129500000D02*
G75*
G02*
X92950000Y-129500000I-50000J0D01*
G01*
X93050000Y-129500000D02*
X93050000Y-124500000D01*
X93050000Y-124500000D02*
G75*
G03*
X92950000Y-124500000I-50000J0D01*
G01*
X93000000Y-129450000D02*
X88000000Y-129450000D01*
X88000000Y-129550000D02*
G75*
G02*
X88000000Y-129450000I0J50000D01*
G01*
X88000000Y-129550000D02*
X93000000Y-129550000D01*
X93000000Y-129550000D02*
G75*
G03*
X93000000Y-129450000I0J50000D01*
G01*
%TO.C,D12*%
X92500000Y-127000000D02*
G75*
G02*
X88500000Y-127000000I-2000000J0D01*
G01*
X88500000Y-127000000D02*
G75*
G02*
X92500000Y-127000000I2000000J0D01*
G01*
X92500000Y-127000000D02*
G75*
G02*
X88500000Y-127000000I-2000000J0D01*
G01*
X88500000Y-127000000D02*
G75*
G02*
X92500000Y-127000000I2000000J0D01*
G01*
%TO.C,SW1*%
X97000000Y-212000000D02*
X103000000Y-212000000D01*
X103000000Y-218000000D01*
X97000000Y-218000000D01*
X97000000Y-212000000D01*
X101450000Y-215000000D02*
G75*
G02*
X98550000Y-215000000I-1450000J0D01*
G01*
X98550000Y-215000000D02*
G75*
G02*
X101450000Y-215000000I1450000J0D01*
G01*
X88000000Y-168550000D02*
X93000000Y-168550000D01*
X93000000Y-168450000D02*
G75*
G02*
X93000000Y-168550000I0J-50000D01*
G01*
X93000000Y-168450000D02*
X88000000Y-168450000D01*
X88000000Y-168450000D02*
G75*
G03*
X88000000Y-168550000I0J-50000D01*
G01*
X88050000Y-173500000D02*
X88050000Y-168500000D01*
X87950000Y-168500000D02*
G75*
G02*
X88050000Y-168500000I50000J0D01*
G01*
X87950000Y-168500000D02*
X87950000Y-173500000D01*
X87950000Y-173500000D02*
G75*
G03*
X88050000Y-173500000I50000J0D01*
G01*
X88964645Y-168464645D02*
X87964645Y-169464645D01*
X88035355Y-169535355D02*
G75*
G02*
X87964645Y-169464645I-35355J35355D01*
G01*
X88035355Y-169535355D02*
X89035355Y-168535355D01*
X89035355Y-168535355D02*
G75*
G03*
X88964645Y-168464645I-35355J35355D01*
G01*
X92950000Y-168500000D02*
X92950000Y-173500000D01*
X93050000Y-173500000D02*
G75*
G02*
X92950000Y-173500000I-50000J0D01*
G01*
X93050000Y-173500000D02*
X93050000Y-168500000D01*
X93050000Y-168500000D02*
G75*
G03*
X92950000Y-168500000I-50000J0D01*
G01*
X93000000Y-173450000D02*
X88000000Y-173450000D01*
X88000000Y-173550000D02*
G75*
G02*
X88000000Y-173450000I0J50000D01*
G01*
X88000000Y-173550000D02*
X93000000Y-173550000D01*
X93000000Y-173550000D02*
G75*
G03*
X93000000Y-173450000I0J50000D01*
G01*
%TO.C,D14*%
X92500000Y-171000000D02*
G75*
G02*
X88500000Y-171000000I-2000000J0D01*
G01*
X88500000Y-171000000D02*
G75*
G02*
X92500000Y-171000000I2000000J0D01*
G01*
X92500000Y-171000000D02*
G75*
G02*
X88500000Y-171000000I-2000000J0D01*
G01*
X88500000Y-171000000D02*
G75*
G02*
X92500000Y-171000000I2000000J0D01*
G01*
%TO.C,SW5*%
X97000000Y-124000000D02*
X103000000Y-124000000D01*
X103000000Y-130000000D01*
X97000000Y-130000000D01*
X97000000Y-124000000D01*
X101450000Y-127000000D02*
G75*
G02*
X98550000Y-127000000I-1450000J0D01*
G01*
X98550000Y-127000000D02*
G75*
G02*
X101450000Y-127000000I1450000J0D01*
G01*
%TO.C,SW4*%
X97000000Y-146000000D02*
X103000000Y-146000000D01*
X103000000Y-152000000D01*
X97000000Y-152000000D01*
X97000000Y-146000000D01*
X101450000Y-149000000D02*
G75*
G02*
X98550000Y-149000000I-1450000J0D01*
G01*
X98550000Y-149000000D02*
G75*
G02*
X101450000Y-149000000I1450000J0D01*
G01*
%TO.C,D2*%
X107000000Y-80500000D02*
X112000000Y-80500000D01*
X107000000Y-85500000D02*
X107000000Y-80500000D01*
X108000000Y-80500000D02*
X107000000Y-81500000D01*
X112000000Y-80500000D02*
X112000000Y-85500000D01*
X112000000Y-85500000D02*
X107000000Y-85500000D01*
X111500000Y-83000000D02*
G75*
G02*
X107500000Y-83000000I-2000000J0D01*
G01*
X107500000Y-83000000D02*
G75*
G02*
X111500000Y-83000000I2000000J0D01*
G01*
X88000000Y-58550000D02*
X93000000Y-58550000D01*
X93000000Y-58450000D02*
G75*
G02*
X93000000Y-58550000I0J-50000D01*
G01*
X93000000Y-58450000D02*
X88000000Y-58450000D01*
X88000000Y-58450000D02*
G75*
G03*
X88000000Y-58550000I0J-50000D01*
G01*
X88050000Y-63500000D02*
X88050000Y-58500000D01*
X87950000Y-58500000D02*
G75*
G02*
X88050000Y-58500000I50000J0D01*
G01*
X87950000Y-58500000D02*
X87950000Y-63500000D01*
X87950000Y-63500000D02*
G75*
G03*
X88050000Y-63500000I50000J0D01*
G01*
X88964645Y-58464645D02*
X87964645Y-59464645D01*
X88035355Y-59535355D02*
G75*
G02*
X87964645Y-59464645I-35355J35355D01*
G01*
X88035355Y-59535355D02*
X89035355Y-58535355D01*
X89035355Y-58535355D02*
G75*
G03*
X88964645Y-58464645I-35355J35355D01*
G01*
X92950000Y-58500000D02*
X92950000Y-63500000D01*
X93050000Y-63500000D02*
G75*
G02*
X92950000Y-63500000I-50000J0D01*
G01*
X93050000Y-63500000D02*
X93050000Y-58500000D01*
X93050000Y-58500000D02*
G75*
G03*
X92950000Y-58500000I-50000J0D01*
G01*
X93000000Y-63450000D02*
X88000000Y-63450000D01*
X88000000Y-63550000D02*
G75*
G02*
X88000000Y-63450000I0J50000D01*
G01*
X88000000Y-63550000D02*
X93000000Y-63550000D01*
X93000000Y-63550000D02*
G75*
G03*
X93000000Y-63450000I0J50000D01*
G01*
%TO.C,D9*%
X92500000Y-61000000D02*
G75*
G02*
X88500000Y-61000000I-2000000J0D01*
G01*
X88500000Y-61000000D02*
G75*
G02*
X92500000Y-61000000I2000000J0D01*
G01*
X92500000Y-61000000D02*
G75*
G02*
X88500000Y-61000000I-2000000J0D01*
G01*
X88500000Y-61000000D02*
G75*
G02*
X92500000Y-61000000I2000000J0D01*
G01*
X88000000Y-102550000D02*
X93000000Y-102550000D01*
X93000000Y-102450000D02*
G75*
G02*
X93000000Y-102550000I0J-50000D01*
G01*
X93000000Y-102450000D02*
X88000000Y-102450000D01*
X88000000Y-102450000D02*
G75*
G03*
X88000000Y-102550000I0J-50000D01*
G01*
X88050000Y-107500000D02*
X88050000Y-102500000D01*
X87950000Y-102500000D02*
G75*
G02*
X88050000Y-102500000I50000J0D01*
G01*
X87950000Y-102500000D02*
X87950000Y-107500000D01*
X87950000Y-107500000D02*
G75*
G03*
X88050000Y-107500000I50000J0D01*
G01*
X88964645Y-102464645D02*
X87964645Y-103464645D01*
X88035355Y-103535355D02*
G75*
G02*
X87964645Y-103464645I-35355J35355D01*
G01*
X88035355Y-103535355D02*
X89035355Y-102535355D01*
X89035355Y-102535355D02*
G75*
G03*
X88964645Y-102464645I-35355J35355D01*
G01*
X92950000Y-102500000D02*
X92950000Y-107500000D01*
X93050000Y-107500000D02*
G75*
G02*
X92950000Y-107500000I-50000J0D01*
G01*
X93050000Y-107500000D02*
X93050000Y-102500000D01*
X93050000Y-102500000D02*
G75*
G03*
X92950000Y-102500000I-50000J0D01*
G01*
X93000000Y-107450000D02*
X88000000Y-107450000D01*
X88000000Y-107550000D02*
G75*
G02*
X88000000Y-107450000I0J50000D01*
G01*
X88000000Y-107550000D02*
X93000000Y-107550000D01*
X93000000Y-107550000D02*
G75*
G03*
X93000000Y-107450000I0J50000D01*
G01*
%TO.C,D11*%
X92500000Y-105000000D02*
G75*
G02*
X88500000Y-105000000I-2000000J0D01*
G01*
X88500000Y-105000000D02*
G75*
G02*
X92500000Y-105000000I2000000J0D01*
G01*
X92500000Y-105000000D02*
G75*
G02*
X88500000Y-105000000I-2000000J0D01*
G01*
X88500000Y-105000000D02*
G75*
G02*
X92500000Y-105000000I2000000J0D01*
G01*
%TO.C,SW2*%
X97000000Y-190000000D02*
X103000000Y-190000000D01*
X103000000Y-196000000D01*
X97000000Y-196000000D01*
X97000000Y-190000000D01*
X101450000Y-193000000D02*
G75*
G02*
X98550000Y-193000000I-1450000J0D01*
G01*
X98550000Y-193000000D02*
G75*
G02*
X101450000Y-193000000I1450000J0D01*
G01*
%TO.C,D3*%
X107000000Y-102500000D02*
X112000000Y-102500000D01*
X107000000Y-107500000D02*
X107000000Y-102500000D01*
X108000000Y-102500000D02*
X107000000Y-103500000D01*
X112000000Y-102500000D02*
X112000000Y-107500000D01*
X112000000Y-107500000D02*
X107000000Y-107500000D01*
X111500000Y-105000000D02*
G75*
G02*
X107500000Y-105000000I-2000000J0D01*
G01*
X107500000Y-105000000D02*
G75*
G02*
X111500000Y-105000000I2000000J0D01*
G01*
X88000000Y-190550000D02*
X93000000Y-190550000D01*
X93000000Y-190450000D02*
G75*
G02*
X93000000Y-190550000I0J-50000D01*
G01*
X93000000Y-190450000D02*
X88000000Y-190450000D01*
X88000000Y-190450000D02*
G75*
G03*
X88000000Y-190550000I0J-50000D01*
G01*
X88050000Y-195500000D02*
X88050000Y-190500000D01*
X87950000Y-190500000D02*
G75*
G02*
X88050000Y-190500000I50000J0D01*
G01*
X87950000Y-190500000D02*
X87950000Y-195500000D01*
X87950000Y-195500000D02*
G75*
G03*
X88050000Y-195500000I50000J0D01*
G01*
X88964645Y-190464645D02*
X87964645Y-191464645D01*
X88035355Y-191535355D02*
G75*
G02*
X87964645Y-191464645I-35355J35355D01*
G01*
X88035355Y-191535355D02*
X89035355Y-190535355D01*
X89035355Y-190535355D02*
G75*
G03*
X88964645Y-190464645I-35355J35355D01*
G01*
X92950000Y-190500000D02*
X92950000Y-195500000D01*
X93050000Y-195500000D02*
G75*
G02*
X92950000Y-195500000I-50000J0D01*
G01*
X93050000Y-195500000D02*
X93050000Y-190500000D01*
X93050000Y-190500000D02*
G75*
G03*
X92950000Y-190500000I-50000J0D01*
G01*
X93000000Y-195450000D02*
X88000000Y-195450000D01*
X88000000Y-195550000D02*
G75*
G02*
X88000000Y-195450000I0J50000D01*
G01*
X88000000Y-195550000D02*
X93000000Y-195550000D01*
X93000000Y-195550000D02*
G75*
G03*
X93000000Y-195450000I0J50000D01*
G01*
%TO.C,D15*%
X92500000Y-193000000D02*
G75*
G02*
X88500000Y-193000000I-2000000J0D01*
G01*
X88500000Y-193000000D02*
G75*
G02*
X92500000Y-193000000I2000000J0D01*
G01*
X92500000Y-193000000D02*
G75*
G02*
X88500000Y-193000000I-2000000J0D01*
G01*
X88500000Y-193000000D02*
G75*
G02*
X92500000Y-193000000I2000000J0D01*
G01*
%TO.C,SW8*%
X97000000Y-58000000D02*
X103000000Y-58000000D01*
X103000000Y-64000000D01*
X97000000Y-64000000D01*
X97000000Y-58000000D01*
X101450000Y-61000000D02*
G75*
G02*
X98550000Y-61000000I-1450000J0D01*
G01*
X98550000Y-61000000D02*
G75*
G02*
X101450000Y-61000000I1450000J0D01*
G01*
%TO.C,D8*%
X107000000Y-212500000D02*
X112000000Y-212500000D01*
X107000000Y-217500000D02*
X107000000Y-212500000D01*
X108000000Y-212500000D02*
X107000000Y-213500000D01*
X112000000Y-212500000D02*
X112000000Y-217500000D01*
X112000000Y-217500000D02*
X107000000Y-217500000D01*
X111500000Y-215000000D02*
G75*
G02*
X107500000Y-215000000I-2000000J0D01*
G01*
X107500000Y-215000000D02*
G75*
G02*
X111500000Y-215000000I2000000J0D01*
G01*
X88000000Y-212550000D02*
X93000000Y-212550000D01*
X93000000Y-212450000D02*
G75*
G02*
X93000000Y-212550000I0J-50000D01*
G01*
X93000000Y-212450000D02*
X88000000Y-212450000D01*
X88000000Y-212450000D02*
G75*
G03*
X88000000Y-212550000I0J-50000D01*
G01*
X88050000Y-217500000D02*
X88050000Y-212500000D01*
X87950000Y-212500000D02*
G75*
G02*
X88050000Y-212500000I50000J0D01*
G01*
X87950000Y-212500000D02*
X87950000Y-217500000D01*
X87950000Y-217500000D02*
G75*
G03*
X88050000Y-217500000I50000J0D01*
G01*
X88964645Y-212464645D02*
X87964645Y-213464645D01*
X88035355Y-213535355D02*
G75*
G02*
X87964645Y-213464645I-35355J35355D01*
G01*
X88035355Y-213535355D02*
X89035355Y-212535355D01*
X89035355Y-212535355D02*
G75*
G03*
X88964645Y-212464645I-35355J35355D01*
G01*
X92950000Y-212500000D02*
X92950000Y-217500000D01*
X93050000Y-217500000D02*
G75*
G02*
X92950000Y-217500000I-50000J0D01*
G01*
X93050000Y-217500000D02*
X93050000Y-212500000D01*
X93050000Y-212500000D02*
G75*
G03*
X92950000Y-212500000I-50000J0D01*
G01*
X93000000Y-217450000D02*
X88000000Y-217450000D01*
X88000000Y-217550000D02*
G75*
G02*
X88000000Y-217450000I0J50000D01*
G01*
X88000000Y-217550000D02*
X93000000Y-217550000D01*
X93000000Y-217550000D02*
G75*
G03*
X93000000Y-217450000I0J50000D01*
G01*
%TO.C,D16*%
X92500000Y-215000000D02*
G75*
G02*
X88500000Y-215000000I-2000000J0D01*
G01*
X88500000Y-215000000D02*
G75*
G02*
X92500000Y-215000000I2000000J0D01*
G01*
X92500000Y-215000000D02*
G75*
G02*
X88500000Y-215000000I-2000000J0D01*
G01*
X88500000Y-215000000D02*
G75*
G02*
X92500000Y-215000000I2000000J0D01*
G01*
%TO.C,SW3*%
X97000000Y-168000000D02*
X103000000Y-168000000D01*
X103000000Y-174000000D01*
X97000000Y-174000000D01*
X97000000Y-168000000D01*
X101450000Y-171000000D02*
G75*
G02*
X98550000Y-171000000I-1450000J0D01*
G01*
X98550000Y-171000000D02*
G75*
G02*
X101450000Y-171000000I1450000J0D01*
G01*
%TO.C,SW7*%
X97000000Y-80000000D02*
X103000000Y-80000000D01*
X103000000Y-86000000D01*
X97000000Y-86000000D01*
X97000000Y-80000000D01*
X101450000Y-83000000D02*
G75*
G02*
X98550000Y-83000000I-1450000J0D01*
G01*
X98550000Y-83000000D02*
G75*
G02*
X101450000Y-83000000I1450000J0D01*
G01*
%TO.C,D7*%
X107000000Y-190500000D02*
X112000000Y-190500000D01*
X107000000Y-195500000D02*
X107000000Y-190500000D01*
X108000000Y-190500000D02*
X107000000Y-191500000D01*
X112000000Y-190500000D02*
X112000000Y-195500000D01*
X112000000Y-195500000D02*
X107000000Y-195500000D01*
X111500000Y-193000000D02*
G75*
G02*
X107500000Y-193000000I-2000000J0D01*
G01*
X107500000Y-193000000D02*
G75*
G02*
X111500000Y-193000000I2000000J0D01*
G01*
X88000000Y-146550000D02*
X93000000Y-146550000D01*
X93000000Y-146450000D02*
G75*
G02*
X93000000Y-146550000I0J-50000D01*
G01*
X93000000Y-146450000D02*
X88000000Y-146450000D01*
X88000000Y-146450000D02*
G75*
G03*
X88000000Y-146550000I0J-50000D01*
G01*
X88050000Y-151500000D02*
X88050000Y-146500000D01*
X87950000Y-146500000D02*
G75*
G02*
X88050000Y-146500000I50000J0D01*
G01*
X87950000Y-146500000D02*
X87950000Y-151500000D01*
X87950000Y-151500000D02*
G75*
G03*
X88050000Y-151500000I50000J0D01*
G01*
X88964645Y-146464645D02*
X87964645Y-147464645D01*
X88035355Y-147535355D02*
G75*
G02*
X87964645Y-147464645I-35355J35355D01*
G01*
X88035355Y-147535355D02*
X89035355Y-146535355D01*
X89035355Y-146535355D02*
G75*
G03*
X88964645Y-146464645I-35355J35355D01*
G01*
X92950000Y-146500000D02*
X92950000Y-151500000D01*
X93050000Y-151500000D02*
G75*
G02*
X92950000Y-151500000I-50000J0D01*
G01*
X93050000Y-151500000D02*
X93050000Y-146500000D01*
X93050000Y-146500000D02*
G75*
G03*
X92950000Y-146500000I-50000J0D01*
G01*
X93000000Y-151450000D02*
X88000000Y-151450000D01*
X88000000Y-151550000D02*
G75*
G02*
X88000000Y-151450000I0J50000D01*
G01*
X88000000Y-151550000D02*
X93000000Y-151550000D01*
X93000000Y-151550000D02*
G75*
G03*
X93000000Y-151450000I0J50000D01*
G01*
%TO.C,D13*%
X92500000Y-149000000D02*
G75*
G02*
X88500000Y-149000000I-2000000J0D01*
G01*
X88500000Y-149000000D02*
G75*
G02*
X92500000Y-149000000I2000000J0D01*
G01*
X92500000Y-149000000D02*
G75*
G02*
X88500000Y-149000000I-2000000J0D01*
G01*
X88500000Y-149000000D02*
G75*
G02*
X92500000Y-149000000I2000000J0D01*
G01*
%TO.C,D5*%
X107000000Y-146500000D02*
X112000000Y-146500000D01*
X107000000Y-151500000D02*
X107000000Y-146500000D01*
X108000000Y-146500000D02*
X107000000Y-147500000D01*
X112000000Y-146500000D02*
X112000000Y-151500000D01*
X112000000Y-151500000D02*
X107000000Y-151500000D01*
X111500000Y-149000000D02*
G75*
G02*
X107500000Y-149000000I-2000000J0D01*
G01*
X107500000Y-149000000D02*
G75*
G02*
X111500000Y-149000000I2000000J0D01*
G01*
%TD*%
X87705000Y-79905000D02*
X93295000Y-86095000D01*
X87705000Y-86095000D02*
X93295000Y-79905000D01*
X87705000Y-123905000D02*
X93295000Y-130095000D01*
X87705000Y-130095000D02*
X93295000Y-123905000D01*
X87705000Y-167905000D02*
X93295000Y-174095000D01*
X87705000Y-174095000D02*
X93295000Y-167905000D01*
X87705000Y-57905000D02*
X93295000Y-64095000D01*
X87705000Y-64095000D02*
X93295000Y-57905000D01*
X87705000Y-101905000D02*
X93295000Y-108095000D01*
X87705000Y-108095000D02*
X93295000Y-101905000D01*
X87705000Y-189905000D02*
X93295000Y-196095000D01*
X87705000Y-196095000D02*
X93295000Y-189905000D01*
X87705000Y-211905000D02*
X93295000Y-218095000D01*
X87705000Y-218095000D02*
X93295000Y-211905000D01*
X87705000Y-145905000D02*
X93295000Y-152095000D01*
X87705000Y-152095000D02*
X93295000Y-145905000D01*
M02*
