%TF.GenerationSoftware,KiCad,Pcbnew,9.0.7*%
%TF.CreationDate,2026-04-09T10:36:26+02:00*%
%TF.ProjectId,board2-buttons,626f6172-6432-42d6-9275-74746f6e732e,2*%
%TF.SameCoordinates,Original*%
%TF.FileFunction,Paste,Top*%
%TF.FilePolarity,Positive*%
%FSLAX46Y46*%
G04 Gerber Fmt 4.6, Leading zero omitted, Abs format (unit mm)*
G04 Created by KiCad (PCBNEW 9.0.7) date 2026-04-09 10:36:26*
%MOMM*%
%LPD*%
G01*
G04 APERTURE LIST*
G04 Aperture macros list*
%AMRoundRect*
0 Rectangle with rounded corners*
0 $1 Rounding radius*
0 $2 $3 $4 $5 $6 $7 $8 $9 X,Y pos of 4 corners*
0 Add a 4 corners polygon primitive as box body*
4,1,4,$2,$3,$4,$5,$6,$7,$8,$9,$2,$3,0*
0 Add four circle primitives for the rounded corners*
1,1,$1+$1,$2,$3*
1,1,$1+$1,$4,$5*
1,1,$1+$1,$6,$7*
1,1,$1+$1,$8,$9*
0 Add four rect primitives between the rounded corners*
20,1,$1+$1,$2,$3,$4,$5,0*
20,1,$1+$1,$4,$5,$6,$7,0*
20,1,$1+$1,$6,$7,$8,$9,0*
20,1,$1+$1,$8,$9,$2,$3,0*%
G04 Aperture macros list end*
%ADD10RoundRect,0.250000X0.475000X-0.337500X0.475000X0.337500X-0.475000X0.337500X-0.475000X-0.337500X0*%
%ADD11RoundRect,0.250000X-0.350000X-0.450000X0.350000X-0.450000X0.350000X0.450000X-0.350000X0.450000X0*%
%ADD12RoundRect,0.250000X0.500000X-0.250000X0.500000X0.250000X-0.500000X0.250000X-0.500000X-0.250000X0*%
%ADD13RoundRect,0.354000X0.771000X-0.531000X0.771000X0.531000X-0.771000X0.531000X-0.771000X-0.531000X0*%
%ADD14RoundRect,0.250000X0.350000X0.450000X-0.350000X0.450000X-0.350000X-0.450000X0.350000X-0.450000X0*%
%ADD15RoundRect,0.250000X-0.337500X-0.475000X0.337500X-0.475000X0.337500X0.475000X-0.337500X0.475000X0*%
%ADD16RoundRect,0.250000X0.450000X-0.350000X0.450000X0.350000X-0.450000X0.350000X-0.450000X-0.350000X0*%
%ADD17RoundRect,0.250001X0.507499X0.944999X-0.507499X0.944999X-0.507499X-0.944999X0.507499X-0.944999X0*%
%ADD18RoundRect,0.250000X0.337500X0.475000X-0.337500X0.475000X-0.337500X-0.475000X0.337500X-0.475000X0*%
%ADD19RoundRect,0.250000X-0.500000X0.250000X-0.500000X-0.250000X0.500000X-0.250000X0.500000X0.250000X0*%
%ADD20RoundRect,0.354000X-0.771000X0.531000X-0.771000X-0.531000X0.771000X-0.531000X0.771000X0.531000X0*%
%ADD21RoundRect,0.067500X0.157500X0.857500X-0.157500X0.857500X-0.157500X-0.857500X0.157500X-0.857500X0*%
%ADD22RoundRect,0.250000X-0.475000X0.337500X-0.475000X-0.337500X0.475000X-0.337500X0.475000X0.337500X0*%
%ADD23RoundRect,0.250000X-0.450000X0.350000X-0.450000X-0.350000X0.450000X-0.350000X0.450000X0.350000X0*%
%ADD24RoundRect,0.150000X-0.512500X-0.150000X0.512500X-0.150000X0.512500X0.150000X-0.512500X0.150000X0*%
G04 APERTURE END LIST*
D10*
%TO.C,C11*%
X90500000Y-172037500D03*
X90500000Y-169962500D03*
%TD*%
%TO.C,C8*%
X109500000Y-62037500D03*
X109500000Y-59962500D03*
%TD*%
D11*
%TO.C,R7*%
X90000000Y-87750000D03*
X92000000Y-87750000D03*
%TD*%
D12*
%TO.C,J2*%
X103705000Y-108000000D03*
X103705000Y-106500000D03*
X103705000Y-105000000D03*
X103705000Y-103500000D03*
X103705000Y-102000000D03*
D13*
X109375000Y-110865000D03*
X109375000Y-99135000D03*
%TD*%
D10*
%TO.C,C9*%
X90500000Y-216037500D03*
X90500000Y-213962500D03*
%TD*%
D14*
%TO.C,R5*%
X110000000Y-80000000D03*
X108000000Y-80000000D03*
%TD*%
D10*
%TO.C,C2*%
X109500000Y-194037500D03*
X109500000Y-191962500D03*
%TD*%
D11*
%TO.C,R6*%
X108000000Y-84500000D03*
X110000000Y-84500000D03*
%TD*%
D15*
%TO.C,C7*%
X107962500Y-82250000D03*
X110037500Y-82250000D03*
%TD*%
D16*
%TO.C,R1*%
X104000000Y-61750000D03*
X104000000Y-59750000D03*
%TD*%
D10*
%TO.C,C15*%
X90500000Y-84037500D03*
X90500000Y-81962500D03*
%TD*%
%TO.C,C13*%
X90500000Y-128037500D03*
X90500000Y-125962500D03*
%TD*%
%TO.C,C4*%
X109500000Y-128037500D03*
X109500000Y-125962500D03*
%TD*%
%TO.C,C3*%
X109500000Y-172037500D03*
X109500000Y-169962500D03*
%TD*%
D11*
%TO.C,R4*%
X98500000Y-57200000D03*
X100500000Y-57200000D03*
%TD*%
D17*
%TO.C,C19*%
X111127500Y-56500000D03*
X107872500Y-56500000D03*
%TD*%
D11*
%TO.C,R8*%
X108000000Y-86750000D03*
X110000000Y-86750000D03*
%TD*%
D15*
%TO.C,C14*%
X89462500Y-113750000D03*
X91537500Y-113750000D03*
%TD*%
D18*
%TO.C,C6*%
X110287500Y-113750000D03*
X108212500Y-113750000D03*
%TD*%
D19*
%TO.C,J3*%
X95795000Y-102000000D03*
X95795000Y-103500000D03*
X95795000Y-105000000D03*
X95795000Y-106500000D03*
X95795000Y-108000000D03*
D20*
X90125000Y-99135000D03*
X90125000Y-110865000D03*
%TD*%
D15*
%TO.C,C17*%
X98462500Y-59700000D03*
X100537500Y-59700000D03*
%TD*%
D16*
%TO.C,R2*%
X98250000Y-64000000D03*
X98250000Y-62000000D03*
%TD*%
D21*
%TO.C,U2*%
X104225000Y-79500000D03*
X103575000Y-79500000D03*
X102925000Y-79500000D03*
X102275000Y-79500000D03*
X101625000Y-79500000D03*
X100975000Y-79500000D03*
X100325000Y-79500000D03*
X99675000Y-79500000D03*
X99025000Y-79500000D03*
X98375000Y-79500000D03*
X97725000Y-79500000D03*
X97075000Y-79500000D03*
X96425000Y-79500000D03*
X95775000Y-79500000D03*
X95775000Y-86500000D03*
X96425000Y-86500000D03*
X97075000Y-86500000D03*
X97725000Y-86500000D03*
X98375000Y-86500000D03*
X99025000Y-86500000D03*
X99675000Y-86500000D03*
X100325000Y-86500000D03*
X100975000Y-86500000D03*
X101625000Y-86500000D03*
X102275000Y-86500000D03*
X102925000Y-86500000D03*
X103575000Y-86500000D03*
X104225000Y-86500000D03*
%TD*%
D22*
%TO.C,C18*%
X93500000Y-82212500D03*
X93500000Y-84287500D03*
%TD*%
D10*
%TO.C,C5*%
X109500000Y-150037500D03*
X109500000Y-147962500D03*
%TD*%
%TO.C,C16*%
X90500000Y-62037500D03*
X90500000Y-59962500D03*
%TD*%
D23*
%TO.C,R3*%
X100500000Y-62000000D03*
X100500000Y-64000000D03*
%TD*%
D10*
%TO.C,C1*%
X109500000Y-216037500D03*
X109500000Y-213962500D03*
%TD*%
D17*
%TO.C,C20*%
X90627500Y-55750000D03*
X87372500Y-55750000D03*
%TD*%
D10*
%TO.C,C12*%
X90500000Y-150037500D03*
X90500000Y-147962500D03*
%TD*%
%TO.C,C10*%
X90500000Y-194037500D03*
X90500000Y-191962500D03*
%TD*%
D24*
%TO.C,U1*%
X108462500Y-65050000D03*
X108462500Y-66000000D03*
X108462500Y-66950000D03*
X110737500Y-66950000D03*
X110737500Y-65050000D03*
%TD*%
M02*
