M48
; DRILL file {KiCad 9.0.7} date 2026-03-02T18:54:32+0100
; FORMAT={-:-/ absolute / metric / decimal}
; #@! TF.CreationDate,2026-03-02T18:54:32+01:00
; #@! TF.GenerationSoftware,Kicad,Pcbnew,9.0.7
; #@! TF.FileFunction,Plated,1,2,PTH
FMAT,2
METRIC
; #@! TA.AperFunction,Plated,PTH,ViaDrill
T1C0.300
; #@! TA.AperFunction,Plated,PTH,ComponentDrill
T2C0.600
; #@! TA.AperFunction,Plated,PTH,ComponentDrill
T3C1.000
; #@! TA.AperFunction,Plated,PTH,ComponentDrill
T4C3.200
%
G90
G05
T1
X87.0Y-58.25
X94.0Y-108.0
X94.151Y-87.751
X96.019Y-84.037
X98.0Y-65.0
X98.375Y-81.725
X99.675Y-81.7
X100.0Y-127.0
X100.0Y-149.0
X100.0Y-171.0
X100.0Y-193.0
X100.0Y-215.005
X103.585Y-84.712
X103.8Y-55.5
X104.2Y-84.0
X105.0Y-58.25
X105.0Y-64.3
X105.0Y-124.25
X105.0Y-130.2
X105.0Y-146.25
X105.0Y-152.0
X105.0Y-168.25
X105.0Y-174.2
X105.0Y-190.25
X105.0Y-212.25
X105.0Y-219.751
X105.034Y-196.2
X105.3Y-102.0
X105.3Y-108.0
X106.0Y-77.497
X106.2Y-64.3
X106.2Y-80.25
X107.8Y-97.5
X109.5Y-57.25
X109.5Y-64.5
T2
X97.45Y-50.0
X97.45Y-72.0
X97.45Y-94.0
X97.45Y-116.0
X97.45Y-138.0
X97.45Y-160.0
X97.45Y-182.0
X97.45Y-204.0
X97.45Y-226.0
X98.197Y-48.197
X98.197Y-51.803
X98.197Y-70.197
X98.197Y-73.803
X98.197Y-92.197
X98.197Y-95.803
X98.197Y-114.197
X98.197Y-117.803
X98.197Y-136.197
X98.197Y-139.803
X98.197Y-158.197
X98.197Y-161.803
X98.197Y-180.197
X98.197Y-183.803
X98.197Y-202.197
X98.197Y-205.803
X98.197Y-224.197
X98.197Y-227.803
X100.0Y-47.45
X100.0Y-52.55
X100.0Y-69.45
X100.0Y-74.55
X100.0Y-91.45
X100.0Y-96.55
X100.0Y-113.45
X100.0Y-118.55
X100.0Y-135.45
X100.0Y-140.55
X100.0Y-157.45
X100.0Y-162.55
X100.0Y-179.45
X100.0Y-184.55
X100.0Y-201.45
X100.0Y-206.55
X100.0Y-223.45
X100.0Y-228.55
X101.803Y-48.197
X101.803Y-51.803
X101.803Y-70.197
X101.803Y-73.803
X101.803Y-92.197
X101.803Y-95.803
X101.803Y-114.197
X101.803Y-117.803
X101.803Y-136.197
X101.803Y-139.803
X101.803Y-158.197
X101.803Y-161.803
X101.803Y-180.197
X101.803Y-183.803
X101.803Y-202.197
X101.803Y-205.803
X101.803Y-224.197
X101.803Y-227.803
X102.55Y-50.0
X102.55Y-72.0
X102.55Y-94.0
X102.55Y-116.0
X102.55Y-138.0
X102.55Y-160.0
X102.55Y-182.0
X102.55Y-204.0
X102.55Y-226.0
T3
X95.0Y-54.66
X95.0Y-57.2
X95.0Y-59.74
X95.0Y-62.28
X95.0Y-64.82
X95.0Y-67.36
T4
X100.0Y-50.0
X100.0Y-72.0
X100.0Y-94.0
X100.0Y-116.0
X100.0Y-138.0
X100.0Y-160.0
X100.0Y-182.0
X100.0Y-204.0
X100.0Y-226.0
M30
