%TF.GenerationSoftware,KiCad,Pcbnew,9.0.7*%
%TF.CreationDate,2026-03-02T18:54:30+01:00*%
%TF.ProjectId,board2-buttons,626f6172-6432-42d6-9275-74746f6e732e,1*%
%TF.SameCoordinates,Original*%
%TF.FileFunction,Soldermask,Bot*%
%TF.FilePolarity,Negative*%
%FSLAX46Y46*%
G04 Gerber Fmt 4.6, Leading zero omitted, Abs format (unit mm)*
G04 Created by KiCad (PCBNEW 9.0.7) date 2026-03-02 18:54:30*
%MOMM*%
%LPD*%
G01*
G04 APERTURE LIST*
G04 Aperture macros list*
%AMRoundRect*
0 Rectangle with rounded corners*
0 $1 Rounding radius*
0 $2 $3 $4 $5 $6 $7 $8 $9 X,Y pos of 4 corners*
0 Add a 4 corners polygon primitive as box body*
4,1,4,$2,$3,$4,$5,$6,$7,$8,$9,$2,$3,0*
0 Add four circle primitives for the rounded corners*
1,1,$1+$1,$2,$3*
1,1,$1+$1,$4,$5*
1,1,$1+$1,$6,$7*
1,1,$1+$1,$8,$9*
0 Add four rect primitives between the rounded corners*
20,1,$1+$1,$2,$3,$4,$5,0*
20,1,$1+$1,$4,$5,$6,$7,0*
20,1,$1+$1,$6,$7,$8,$9,0*
20,1,$1+$1,$8,$9,$2,$3,0*%
G04 Aperture macros list end*
%ADD10R,1.700000X1.700000*%
%ADD11C,1.700000*%
%ADD12C,1.000000*%
%ADD13C,7.000000*%
%ADD14R,2.000000X2.000000*%
%ADD15RoundRect,0.100000X-0.400000X0.950000X-0.400000X-0.950000X0.400000X-0.950000X0.400000X0.950000X0*%
%TA.AperFunction,Profile*%
%ADD16C,0.050000*%
%TD*%
G04 APERTURE END LIST*
D10*
%TO.C,J1*%
X95000000Y-54660000D03*
D11*
X95000000Y-57200000D03*
X95000000Y-59740000D03*
X95000000Y-62280000D03*
X95000000Y-64820000D03*
X95000000Y-67360000D03*
%TD*%
D12*
%TO.C,H9*%
X97450000Y-204000000D03*
X98196878Y-202196878D03*
X98196878Y-205803122D03*
X100000000Y-201450000D03*
D13*
X100000000Y-204000000D03*
D12*
X100000000Y-206550000D03*
X101803122Y-202196878D03*
X101803122Y-205803122D03*
X102550000Y-204000000D03*
%TD*%
%TO.C,H7*%
X97450000Y-160000000D03*
X98196878Y-158196878D03*
X98196878Y-161803122D03*
X100000000Y-157450000D03*
D13*
X100000000Y-160000000D03*
D12*
X100000000Y-162550000D03*
X101803122Y-158196878D03*
X101803122Y-161803122D03*
X102550000Y-160000000D03*
%TD*%
%TO.C,H6*%
X97450000Y-138000000D03*
X98196878Y-136196878D03*
X98196878Y-139803122D03*
X100000000Y-135450000D03*
D13*
X100000000Y-138000000D03*
D12*
X100000000Y-140550000D03*
X101803122Y-136196878D03*
X101803122Y-139803122D03*
X102550000Y-138000000D03*
%TD*%
%TO.C,H3*%
X97450000Y-72000000D03*
X98196878Y-70196878D03*
X98196878Y-73803122D03*
X100000000Y-69450000D03*
D13*
X100000000Y-72000000D03*
D12*
X100000000Y-74550000D03*
X101803122Y-70196878D03*
X101803122Y-73803122D03*
X102550000Y-72000000D03*
%TD*%
%TO.C,H5*%
X97450000Y-116000000D03*
X98196878Y-114196878D03*
X98196878Y-117803122D03*
X100000000Y-113450000D03*
D13*
X100000000Y-116000000D03*
D12*
X100000000Y-118550000D03*
X101803122Y-114196878D03*
X101803122Y-117803122D03*
X102550000Y-116000000D03*
%TD*%
%TO.C,H1*%
X97450000Y-50000000D03*
X98196878Y-48196878D03*
X98196878Y-51803122D03*
X100000000Y-47450000D03*
D13*
X100000000Y-50000000D03*
D12*
X100000000Y-52550000D03*
X101803122Y-48196878D03*
X101803122Y-51803122D03*
X102550000Y-50000000D03*
%TD*%
%TO.C,H8*%
X97450000Y-182000000D03*
X98196878Y-180196878D03*
X98196878Y-183803122D03*
X100000000Y-179450000D03*
D13*
X100000000Y-182000000D03*
D12*
X100000000Y-184550000D03*
X101803122Y-180196878D03*
X101803122Y-183803122D03*
X102550000Y-182000000D03*
%TD*%
%TO.C,H4*%
X97450000Y-94000000D03*
X98196878Y-92196878D03*
X98196878Y-95803122D03*
X100000000Y-91450000D03*
D13*
X100000000Y-94000000D03*
D12*
X100000000Y-96550000D03*
X101803122Y-92196878D03*
X101803122Y-95803122D03*
X102550000Y-94000000D03*
%TD*%
%TO.C,H2*%
X97450000Y-226000000D03*
X98196878Y-224196878D03*
X98196878Y-227803122D03*
X100000000Y-223450000D03*
D13*
X100000000Y-226000000D03*
D12*
X100000000Y-228550000D03*
X101803122Y-224196878D03*
X101803122Y-227803122D03*
X102550000Y-226000000D03*
%TD*%
D14*
%TO.C,SW3*%
X100000000Y-102000000D03*
X100000000Y-108000000D03*
%TD*%
D15*
%TO.C,D5*%
X107850000Y-124250000D03*
X111150000Y-124250000D03*
X107850000Y-129750000D03*
X111150000Y-129750000D03*
%TD*%
%TO.C,D8*%
X107850000Y-58250000D03*
X111150000Y-58250000D03*
X107850000Y-63750000D03*
X111150000Y-63750000D03*
%TD*%
%TO.C,D15*%
X88850000Y-80250000D03*
X92150000Y-80250000D03*
X88850000Y-85750000D03*
X92150000Y-85750000D03*
%TD*%
%TO.C,D3*%
X107850000Y-168250000D03*
X111150000Y-168250000D03*
X107850000Y-173750000D03*
X111150000Y-173750000D03*
%TD*%
%TO.C,D13*%
X88850000Y-124250000D03*
X92150000Y-124250000D03*
X88850000Y-129750000D03*
X92150000Y-129750000D03*
%TD*%
D14*
%TO.C,SW8*%
X100000000Y-212000000D03*
X100000000Y-218000000D03*
%TD*%
D15*
%TO.C,D11*%
X88850000Y-168250000D03*
X92150000Y-168250000D03*
X88850000Y-173750000D03*
X92150000Y-173750000D03*
%TD*%
D14*
%TO.C,SW4*%
X100000000Y-124000000D03*
X100000000Y-130000000D03*
%TD*%
%TO.C,SW5*%
X100000000Y-146000000D03*
X100000000Y-152000000D03*
%TD*%
D15*
%TO.C,D7*%
X107850000Y-80250000D03*
X111150000Y-80250000D03*
X107850000Y-85750000D03*
X111150000Y-85750000D03*
%TD*%
%TO.C,D16*%
X88850000Y-58250000D03*
X92150000Y-58250000D03*
X88850000Y-63750000D03*
X92150000Y-63750000D03*
%TD*%
%TO.C,D14*%
X88850000Y-102250000D03*
X92150000Y-102250000D03*
X88850000Y-107750000D03*
X92150000Y-107750000D03*
%TD*%
D14*
%TO.C,SW7*%
X100000000Y-190000000D03*
X100000000Y-196000000D03*
%TD*%
D15*
%TO.C,D6*%
X107850000Y-102250000D03*
X111150000Y-102250000D03*
X107850000Y-107750000D03*
X111150000Y-107750000D03*
%TD*%
%TO.C,D10*%
X88850000Y-190250000D03*
X92150000Y-190250000D03*
X88850000Y-195750000D03*
X92150000Y-195750000D03*
%TD*%
D14*
%TO.C,SW1*%
X100000000Y-58000000D03*
X100000000Y-64000000D03*
%TD*%
D15*
%TO.C,D1*%
X107850000Y-212250000D03*
X111150000Y-212250000D03*
X107850000Y-217750000D03*
X111150000Y-217750000D03*
%TD*%
%TO.C,D9*%
X88850000Y-212250000D03*
X92150000Y-212250000D03*
X88850000Y-217750000D03*
X92150000Y-217750000D03*
%TD*%
D14*
%TO.C,SW6*%
X100000000Y-168000000D03*
X100000000Y-174000000D03*
%TD*%
%TO.C,SW2*%
X100000000Y-80000000D03*
X100000000Y-86000000D03*
%TD*%
D15*
%TO.C,D2*%
X107850000Y-190250000D03*
X111150000Y-190250000D03*
X107850000Y-195750000D03*
X111150000Y-195750000D03*
%TD*%
%TO.C,D12*%
X88850000Y-146250000D03*
X92150000Y-146250000D03*
X88850000Y-151750000D03*
X92150000Y-151750000D03*
%TD*%
%TO.C,D4*%
X107850000Y-146250000D03*
X111150000Y-146250000D03*
X107850000Y-151750000D03*
X111150000Y-151750000D03*
%TD*%
D16*
X114000000Y-231000000D02*
X86000000Y-231000000D01*
X84000000Y-47000000D02*
G75*
G02*
X86000000Y-45000000I2000000J0D01*
G01*
X86000000Y-231000000D02*
G75*
G02*
X84000000Y-229000000I0J2000000D01*
G01*
X86000000Y-45000000D02*
X114000000Y-45000000D01*
X116000000Y-229000000D02*
G75*
G02*
X114000000Y-231000000I-2000000J0D01*
G01*
X114000000Y-45000000D02*
G75*
G02*
X116000000Y-47000000I0J-2000000D01*
G01*
X84000000Y-229000000D02*
X84000000Y-47000000D01*
X116000000Y-47000000D02*
X116000000Y-229000000D01*
M02*
