%TF.GenerationSoftware,KiCad,Pcbnew,9.0.7*%
%TF.CreationDate,2026-04-09T10:36:26+02:00*%
%TF.ProjectId,board2-buttons,626f6172-6432-42d6-9275-74746f6e732e,2*%
%TF.SameCoordinates,Original*%
%TF.FileFunction,Copper,L2,Bot*%
%TF.FilePolarity,Positive*%
%FSLAX46Y46*%
G04 Gerber Fmt 4.6, Leading zero omitted, Abs format (unit mm)*
G04 Created by KiCad (PCBNEW 9.0.7) date 2026-04-09 10:36:26*
%MOMM*%
%LPD*%
G01*
G04 APERTURE LIST*
G04 Aperture macros list*
%AMRoundRect*
0 Rectangle with rounded corners*
0 $1 Rounding radius*
0 $2 $3 $4 $5 $6 $7 $8 $9 X,Y pos of 4 corners*
0 Add a 4 corners polygon primitive as box body*
4,1,4,$2,$3,$4,$5,$6,$7,$8,$9,$2,$3,0*
0 Add four circle primitives for the rounded corners*
1,1,$1+$1,$2,$3*
1,1,$1+$1,$4,$5*
1,1,$1+$1,$6,$7*
1,1,$1+$1,$8,$9*
0 Add four rect primitives between the rounded corners*
20,1,$1+$1,$2,$3,$4,$5,0*
20,1,$1+$1,$4,$5,$6,$7,0*
20,1,$1+$1,$6,$7,$8,$9,0*
20,1,$1+$1,$8,$9,$2,$3,0*%
G04 Aperture macros list end*
%TA.AperFunction,ComponentPad*%
%ADD10R,1.700000X1.700000*%
%TD*%
%TA.AperFunction,ComponentPad*%
%ADD11C,1.700000*%
%TD*%
%TA.AperFunction,ComponentPad*%
%ADD12C,1.000000*%
%TD*%
%TA.AperFunction,ComponentPad*%
%ADD13C,7.000000*%
%TD*%
%TA.AperFunction,SMDPad,CuDef*%
%ADD14R,2.000000X2.000000*%
%TD*%
%TA.AperFunction,SMDPad,CuDef*%
%ADD15RoundRect,0.100000X-0.400000X0.950000X-0.400000X-0.950000X0.400000X-0.950000X0.400000X0.950000X0*%
%TD*%
%TA.AperFunction,ViaPad*%
%ADD16C,0.600000*%
%TD*%
%TA.AperFunction,Conductor*%
%ADD17C,0.500000*%
%TD*%
%TA.AperFunction,Conductor*%
%ADD18C,1.000000*%
%TD*%
%TA.AperFunction,Conductor*%
%ADD19C,0.200000*%
%TD*%
G04 APERTURE END LIST*
D10*
%TO.P,J1,1,Pin_1*%
%TO.N,Net-(J1-Pin_1)*%
X95000000Y-54660000D03*
D11*
%TO.P,J1,2,Pin_2*%
%TO.N,VDD*%
X95000000Y-57200000D03*
%TO.P,J1,3,Pin_3*%
%TO.N,GND*%
X95000000Y-59740000D03*
%TO.P,J1,4,Pin_4*%
%TO.N,Net-(J1-Pin_4)*%
X95000000Y-62280000D03*
%TO.P,J1,5,Pin_5*%
%TO.N,Net-(J1-Pin_5)*%
X95000000Y-64820000D03*
%TO.P,J1,6,Pin_6*%
%TO.N,unconnected-(J1-Pin_6-Pad6)*%
X95000000Y-67360000D03*
%TD*%
D12*
%TO.P,H9,1,1*%
%TO.N,GND*%
X97450000Y-204000000D03*
X98196878Y-202196878D03*
X98196878Y-205803122D03*
X100000000Y-201450000D03*
D13*
X100000000Y-204000000D03*
D12*
X100000000Y-206550000D03*
X101803122Y-202196878D03*
X101803122Y-205803122D03*
X102550000Y-204000000D03*
%TD*%
%TO.P,H7,1,1*%
%TO.N,GND*%
X97450000Y-160000000D03*
X98196878Y-158196878D03*
X98196878Y-161803122D03*
X100000000Y-157450000D03*
D13*
X100000000Y-160000000D03*
D12*
X100000000Y-162550000D03*
X101803122Y-158196878D03*
X101803122Y-161803122D03*
X102550000Y-160000000D03*
%TD*%
%TO.P,H6,1,1*%
%TO.N,GND*%
X97450000Y-138000000D03*
X98196878Y-136196878D03*
X98196878Y-139803122D03*
X100000000Y-135450000D03*
D13*
X100000000Y-138000000D03*
D12*
X100000000Y-140550000D03*
X101803122Y-136196878D03*
X101803122Y-139803122D03*
X102550000Y-138000000D03*
%TD*%
%TO.P,H3,1,1*%
%TO.N,GND*%
X97450000Y-72000000D03*
X98196878Y-70196878D03*
X98196878Y-73803122D03*
X100000000Y-69450000D03*
D13*
X100000000Y-72000000D03*
D12*
X100000000Y-74550000D03*
X101803122Y-70196878D03*
X101803122Y-73803122D03*
X102550000Y-72000000D03*
%TD*%
%TO.P,H5,1,1*%
%TO.N,GND*%
X97450000Y-116000000D03*
X98196878Y-114196878D03*
X98196878Y-117803122D03*
X100000000Y-113450000D03*
D13*
X100000000Y-116000000D03*
D12*
X100000000Y-118550000D03*
X101803122Y-114196878D03*
X101803122Y-117803122D03*
X102550000Y-116000000D03*
%TD*%
%TO.P,H1,1,1*%
%TO.N,GND*%
X97450000Y-50000000D03*
X98196878Y-48196878D03*
X98196878Y-51803122D03*
X100000000Y-47450000D03*
D13*
X100000000Y-50000000D03*
D12*
X100000000Y-52550000D03*
X101803122Y-48196878D03*
X101803122Y-51803122D03*
X102550000Y-50000000D03*
%TD*%
%TO.P,H8,1,1*%
%TO.N,GND*%
X97450000Y-182000000D03*
X98196878Y-180196878D03*
X98196878Y-183803122D03*
X100000000Y-179450000D03*
D13*
X100000000Y-182000000D03*
D12*
X100000000Y-184550000D03*
X101803122Y-180196878D03*
X101803122Y-183803122D03*
X102550000Y-182000000D03*
%TD*%
%TO.P,H4,1,1*%
%TO.N,GND*%
X97450000Y-94000000D03*
X98196878Y-92196878D03*
X98196878Y-95803122D03*
X100000000Y-91450000D03*
D13*
X100000000Y-94000000D03*
D12*
X100000000Y-96550000D03*
X101803122Y-92196878D03*
X101803122Y-95803122D03*
X102550000Y-94000000D03*
%TD*%
%TO.P,H2,1,1*%
%TO.N,GND*%
X97450000Y-226000000D03*
X98196878Y-224196878D03*
X98196878Y-227803122D03*
X100000000Y-223450000D03*
D13*
X100000000Y-226000000D03*
D12*
X100000000Y-228550000D03*
X101803122Y-224196878D03*
X101803122Y-227803122D03*
X102550000Y-226000000D03*
%TD*%
D14*
%TO.P,SW6,1,1*%
%TO.N,GND*%
X100000000Y-102000000D03*
%TO.P,SW6,2,2*%
%TO.N,Net-(U2-RA0)*%
X100000000Y-108000000D03*
%TD*%
D15*
%TO.P,D4,1,VSS*%
%TO.N,GND*%
X107850000Y-124250000D03*
%TO.P,D4,2,DIN*%
%TO.N,Net-(D3-DOUT)*%
X111150000Y-124250000D03*
%TO.P,D4,3,DOUT*%
%TO.N,Net-(D4-DOUT)*%
X107850000Y-129750000D03*
%TO.P,D4,4,VDD*%
%TO.N,+5V*%
X111150000Y-129750000D03*
%TD*%
%TO.P,D1,1,VSS*%
%TO.N,GND*%
X107850000Y-58250000D03*
%TO.P,D1,2,DIN*%
%TO.N,Net-(D1-DIN)*%
X111150000Y-58250000D03*
%TO.P,D1,3,DOUT*%
%TO.N,Net-(D1-DOUT)*%
X107850000Y-63750000D03*
%TO.P,D1,4,VDD*%
%TO.N,+5V*%
X111150000Y-63750000D03*
%TD*%
%TO.P,D10,1,VSS*%
%TO.N,GND*%
X88850000Y-80250000D03*
%TO.P,D10,2,DIN*%
%TO.N,Net-(D10-DIN)*%
X92150000Y-80250000D03*
%TO.P,D10,3,DOUT*%
%TO.N,Net-(D10-DOUT)*%
X88850000Y-85750000D03*
%TO.P,D10,4,VDD*%
%TO.N,+5V*%
X92150000Y-85750000D03*
%TD*%
%TO.P,D6,1,VSS*%
%TO.N,GND*%
X107850000Y-168250000D03*
%TO.P,D6,2,DIN*%
%TO.N,Net-(D5-DOUT)*%
X111150000Y-168250000D03*
%TO.P,D6,3,DOUT*%
%TO.N,Net-(D6-DOUT)*%
X107850000Y-173750000D03*
%TO.P,D6,4,VDD*%
%TO.N,+5V*%
X111150000Y-173750000D03*
%TD*%
%TO.P,D12,1,VSS*%
%TO.N,GND*%
X88850000Y-124250000D03*
%TO.P,D12,2,DIN*%
%TO.N,Net-(D11-DOUT)*%
X92150000Y-124250000D03*
%TO.P,D12,3,DOUT*%
%TO.N,Net-(D12-DOUT)*%
X88850000Y-129750000D03*
%TO.P,D12,4,VDD*%
%TO.N,+5V*%
X92150000Y-129750000D03*
%TD*%
D14*
%TO.P,SW1,1,1*%
%TO.N,GND*%
X100000000Y-212000000D03*
%TO.P,SW1,2,2*%
%TO.N,Net-(U2-RA5)*%
X100000000Y-218000000D03*
%TD*%
D15*
%TO.P,D14,1,VSS*%
%TO.N,GND*%
X88850000Y-168250000D03*
%TO.P,D14,2,DIN*%
%TO.N,Net-(D13-DOUT)*%
X92150000Y-168250000D03*
%TO.P,D14,3,DOUT*%
%TO.N,Net-(D14-DOUT)*%
X88850000Y-173750000D03*
%TO.P,D14,4,VDD*%
%TO.N,+5V*%
X92150000Y-173750000D03*
%TD*%
D14*
%TO.P,SW5,1,1*%
%TO.N,GND*%
X100000000Y-124000000D03*
%TO.P,SW5,2,2*%
%TO.N,Net-(U2-RA1)*%
X100000000Y-130000000D03*
%TD*%
%TO.P,SW4,1,1*%
%TO.N,GND*%
X100000000Y-146000000D03*
%TO.P,SW4,2,2*%
%TO.N,Net-(U2-RA2{slash}Vref-)*%
X100000000Y-152000000D03*
%TD*%
D15*
%TO.P,D2,1,VSS*%
%TO.N,GND*%
X107850000Y-80250000D03*
%TO.P,D2,2,DIN*%
%TO.N,Net-(D1-DOUT)*%
X111150000Y-80250000D03*
%TO.P,D2,3,DOUT*%
%TO.N,Net-(D2-DOUT)*%
X107850000Y-85750000D03*
%TO.P,D2,4,VDD*%
%TO.N,+5V*%
X111150000Y-85750000D03*
%TD*%
%TO.P,D9,1,VSS*%
%TO.N,GND*%
X88850000Y-58250000D03*
%TO.P,D9,2,DIN*%
%TO.N,Net-(D1-DIN)*%
X92150000Y-58250000D03*
%TO.P,D9,3,DOUT*%
%TO.N,Net-(D10-DIN)*%
X88850000Y-63750000D03*
%TO.P,D9,4,VDD*%
%TO.N,+5V*%
X92150000Y-63750000D03*
%TD*%
%TO.P,D11,1,VSS*%
%TO.N,GND*%
X88850000Y-102250000D03*
%TO.P,D11,2,DIN*%
%TO.N,Net-(D10-DOUT)*%
X92150000Y-102250000D03*
%TO.P,D11,3,DOUT*%
%TO.N,Net-(D11-DOUT)*%
X88850000Y-107750000D03*
%TO.P,D11,4,VDD*%
%TO.N,+5V*%
X92150000Y-107750000D03*
%TD*%
D14*
%TO.P,SW2,1,1*%
%TO.N,GND*%
X100000000Y-190000000D03*
%TO.P,SW2,2,2*%
%TO.N,Net-(U2-RA4)*%
X100000000Y-196000000D03*
%TD*%
D15*
%TO.P,D3,1,VSS*%
%TO.N,GND*%
X107850000Y-102250000D03*
%TO.P,D3,2,DIN*%
%TO.N,Net-(D2-DOUT)*%
X111150000Y-102250000D03*
%TO.P,D3,3,DOUT*%
%TO.N,Net-(D3-DOUT)*%
X107850000Y-107750000D03*
%TO.P,D3,4,VDD*%
%TO.N,+5V*%
X111150000Y-107750000D03*
%TD*%
%TO.P,D15,1,VSS*%
%TO.N,GND*%
X88850000Y-190250000D03*
%TO.P,D15,2,DIN*%
%TO.N,Net-(D14-DOUT)*%
X92150000Y-190250000D03*
%TO.P,D15,3,DOUT*%
%TO.N,Net-(D15-DOUT)*%
X88850000Y-195750000D03*
%TO.P,D15,4,VDD*%
%TO.N,+5V*%
X92150000Y-195750000D03*
%TD*%
D14*
%TO.P,SW8,1,1*%
%TO.N,GND*%
X100000000Y-58000000D03*
%TO.P,SW8,2,2*%
%TO.N,Net-(U2-RA7)*%
X100000000Y-64000000D03*
%TD*%
D15*
%TO.P,D8,1,VSS*%
%TO.N,GND*%
X107850000Y-212250000D03*
%TO.P,D8,2,DIN*%
%TO.N,Net-(D7-DOUT)*%
X111150000Y-212250000D03*
%TO.P,D8,3,DOUT*%
%TO.N,unconnected-(D8-DOUT-Pad3)*%
X107850000Y-217750000D03*
%TO.P,D8,4,VDD*%
%TO.N,+5V*%
X111150000Y-217750000D03*
%TD*%
%TO.P,D16,1,VSS*%
%TO.N,GND*%
X88850000Y-212250000D03*
%TO.P,D16,2,DIN*%
%TO.N,Net-(D15-DOUT)*%
X92150000Y-212250000D03*
%TO.P,D16,3,DOUT*%
%TO.N,unconnected-(D16-DOUT-Pad3)*%
X88850000Y-217750000D03*
%TO.P,D16,4,VDD*%
%TO.N,+5V*%
X92150000Y-217750000D03*
%TD*%
D14*
%TO.P,SW3,1,1*%
%TO.N,GND*%
X100000000Y-168000000D03*
%TO.P,SW3,2,2*%
%TO.N,Net-(U2-RA3{slash}Vref+)*%
X100000000Y-174000000D03*
%TD*%
%TO.P,SW7,1,1*%
%TO.N,GND*%
X100000000Y-80000000D03*
%TO.P,SW7,2,2*%
%TO.N,Net-(U2-RA6)*%
X100000000Y-86000000D03*
%TD*%
D15*
%TO.P,D7,1,VSS*%
%TO.N,GND*%
X107850000Y-190250000D03*
%TO.P,D7,2,DIN*%
%TO.N,Net-(D6-DOUT)*%
X111150000Y-190250000D03*
%TO.P,D7,3,DOUT*%
%TO.N,Net-(D7-DOUT)*%
X107850000Y-195750000D03*
%TO.P,D7,4,VDD*%
%TO.N,+5V*%
X111150000Y-195750000D03*
%TD*%
%TO.P,D13,1,VSS*%
%TO.N,GND*%
X88850000Y-146250000D03*
%TO.P,D13,2,DIN*%
%TO.N,Net-(D12-DOUT)*%
X92150000Y-146250000D03*
%TO.P,D13,3,DOUT*%
%TO.N,Net-(D13-DOUT)*%
X88850000Y-151750000D03*
%TO.P,D13,4,VDD*%
%TO.N,+5V*%
X92150000Y-151750000D03*
%TD*%
%TO.P,D5,1,VSS*%
%TO.N,GND*%
X107850000Y-146250000D03*
%TO.P,D5,2,DIN*%
%TO.N,Net-(D4-DOUT)*%
X111150000Y-146250000D03*
%TO.P,D5,3,DOUT*%
%TO.N,Net-(D5-DOUT)*%
X107850000Y-151750000D03*
%TO.P,D5,4,VDD*%
%TO.N,+5V*%
X111150000Y-151750000D03*
%TD*%
D16*
%TO.N,GND*%
X109500000Y-146250000D03*
X94000000Y-108000000D03*
X109500000Y-212250000D03*
X90500000Y-124250000D03*
X99675000Y-81700000D03*
X109500000Y-190250000D03*
X90500000Y-168250000D03*
X105300000Y-102000000D03*
X90500000Y-190250000D03*
X87000000Y-58250000D03*
X106200000Y-80250000D03*
X90500000Y-58250000D03*
X109500000Y-58250000D03*
X109500000Y-124250000D03*
X90500000Y-80250000D03*
X90500000Y-146250000D03*
X90500000Y-212250000D03*
X109500000Y-168250000D03*
%TO.N,+5V*%
X90500000Y-217750000D03*
X91000000Y-63750000D03*
X109500000Y-173750000D03*
X109500000Y-195750000D03*
X105300000Y-108000000D03*
X109500000Y-217750000D03*
X109750000Y-107750000D03*
X90500000Y-195750000D03*
X109500000Y-151750000D03*
X106680000Y-84000000D03*
X90500000Y-151750000D03*
X109500000Y-129750000D03*
X90500000Y-173750000D03*
X90500000Y-107750000D03*
X90500000Y-129750000D03*
X90500000Y-85750000D03*
X113000000Y-66000000D03*
X113000000Y-65000000D03*
X104000000Y-65250000D03*
X109500000Y-63750000D03*
%TO.N,Net-(D1-DIN)*%
X104000000Y-55500000D03*
%TO.N,Net-(J1-Pin_5)*%
X103585421Y-84712149D03*
%TO.N,Net-(J1-Pin_4)*%
X104200000Y-84000000D03*
%TO.N,Net-(J1-Pin_1)*%
X106200000Y-64300000D03*
X106200000Y-77497000D03*
%TO.N,Net-(U2-RA5)*%
X100000000Y-215004888D03*
%TO.N,Net-(U2-RA4)*%
X100000000Y-193000000D03*
%TO.N,Net-(U2-RA3{slash}Vref+)*%
X100000000Y-171000000D03*
%TO.N,Net-(U2-RA2{slash}Vref-)*%
X100000000Y-149000000D03*
%TO.N,Net-(U2-RA1)*%
X100000000Y-127000000D03*
%TO.N,Net-(U2-RA0)*%
X109000000Y-96250000D03*
%TO.N,Net-(U2-RA6)*%
X98375000Y-81725000D03*
%TO.N,Net-(U2-RA7)*%
X97169669Y-66769669D03*
%TD*%
D17*
%TO.N,+5V*%
X113000000Y-85900000D02*
X112850000Y-85750000D01*
X112850000Y-85750000D02*
X111150000Y-85750000D01*
X106680000Y-84000000D02*
X102929000Y-87751000D01*
X102929000Y-87751000D02*
X94151000Y-87751000D01*
X94151000Y-87751000D02*
X92150000Y-85750000D01*
D18*
X106680000Y-84000000D02*
X109400000Y-84000000D01*
X109400000Y-84000000D02*
X111150000Y-85750000D01*
D19*
%TO.N,Net-(J1-Pin_4)*%
X104200000Y-84000000D02*
X106000000Y-82200000D01*
X89750000Y-70279332D02*
X89750000Y-62250000D01*
X94980000Y-62260000D02*
X94980000Y-62300000D01*
X108899000Y-81701000D02*
X108899000Y-79099000D01*
X108400000Y-82200000D02*
X108899000Y-81701000D01*
X94120000Y-61400000D02*
X94980000Y-62260000D01*
X106000000Y-82200000D02*
X108400000Y-82200000D01*
X108899000Y-79099000D02*
X108400000Y-78600000D01*
X98070668Y-78600000D02*
X89750000Y-70279332D01*
X89750000Y-62250000D02*
X90600000Y-61400000D01*
X90600000Y-61400000D02*
X94120000Y-61400000D01*
X108400000Y-78600000D02*
X98070668Y-78600000D01*
X94980000Y-62300000D02*
X95000000Y-62280000D01*
D18*
%TO.N,+5V*%
X113000000Y-85900000D02*
X113000000Y-64250000D01*
X112500000Y-63750000D02*
X111150000Y-63750000D01*
X113000000Y-64250000D02*
X112500000Y-63750000D01*
D17*
%TO.N,GND*%
X87050000Y-102250000D02*
X87000000Y-102300000D01*
X88850000Y-146250000D02*
X87050000Y-146250000D01*
D18*
X90500000Y-190250000D02*
X88850000Y-190250000D01*
D19*
X99675000Y-80325000D02*
X100000000Y-80000000D01*
D18*
X109500000Y-168250000D02*
X107850000Y-168250000D01*
X90500000Y-124250000D02*
X88850000Y-124250000D01*
X87000000Y-102300000D02*
X87000000Y-80200000D01*
X87000000Y-124400000D02*
X87000000Y-105300000D01*
X87250000Y-212250000D02*
X87000000Y-212000000D01*
X92200000Y-104800000D02*
X90500000Y-104800000D01*
X87000000Y-80200000D02*
X87000000Y-58250000D01*
X90500000Y-146250000D02*
X88850000Y-146250000D01*
D17*
X88850000Y-58250000D02*
X89750000Y-58250000D01*
D18*
X92400000Y-104800000D02*
X92200000Y-104800000D01*
X90500000Y-168250000D02*
X88850000Y-168250000D01*
D19*
X99675000Y-81700000D02*
X99675000Y-80325000D01*
D17*
X87050000Y-190250000D02*
X87000000Y-190200000D01*
D18*
X90500000Y-58250000D02*
X88850000Y-58250000D01*
X94000000Y-108000000D02*
X94000000Y-106400000D01*
X109500000Y-58250000D02*
X107850000Y-58250000D01*
X109500000Y-146250000D02*
X107850000Y-146250000D01*
X87000000Y-190200000D02*
X87000000Y-168300000D01*
D17*
X87050000Y-168250000D02*
X87000000Y-168300000D01*
X87150000Y-124250000D02*
X87000000Y-124400000D01*
D18*
X88850000Y-212250000D02*
X87250000Y-212250000D01*
D17*
X107600000Y-102000000D02*
X107850000Y-102250000D01*
D18*
X87000000Y-168300000D02*
X87000000Y-146300000D01*
X109500000Y-124250000D02*
X107850000Y-124250000D01*
X94000000Y-106400000D02*
X92400000Y-104800000D01*
D19*
X95768600Y-84287500D02*
X95768600Y-84268600D01*
D17*
X88850000Y-168250000D02*
X87050000Y-168250000D01*
D18*
X87000000Y-212000000D02*
X87000000Y-190200000D01*
X95200000Y-102000000D02*
X92400000Y-104800000D01*
D17*
X87000000Y-58250000D02*
X88850000Y-58250000D01*
D18*
X90500000Y-80250000D02*
X88850000Y-80250000D01*
D17*
X87050000Y-146250000D02*
X87000000Y-146300000D01*
D18*
X107850000Y-80250000D02*
X106200000Y-80250000D01*
X109500000Y-212250000D02*
X107850000Y-212250000D01*
X90500000Y-104800000D02*
X87000000Y-104800000D01*
D17*
X88850000Y-190250000D02*
X87050000Y-190250000D01*
D18*
X87000000Y-146300000D02*
X87000000Y-124400000D01*
X87000000Y-105300000D02*
X87000000Y-102300000D01*
X90500000Y-212250000D02*
X88850000Y-212250000D01*
X109500000Y-190250000D02*
X107850000Y-190250000D01*
%TO.N,+5V*%
X90500000Y-151750000D02*
X92150000Y-151750000D01*
D17*
X113000000Y-129800000D02*
X112500000Y-129800000D01*
X112850000Y-195750000D02*
X113000000Y-195600000D01*
D18*
X112650000Y-217750000D02*
X111150000Y-217750000D01*
D17*
X92150000Y-129750000D02*
X94151000Y-131751000D01*
X107200000Y-172000000D02*
X110750000Y-172000000D01*
X105298000Y-109602000D02*
X104400000Y-110500000D01*
X103499000Y-197751000D02*
X105000000Y-196250000D01*
X105298000Y-108000000D02*
X105298000Y-109602000D01*
X107250000Y-62000000D02*
X102550000Y-66700000D01*
D18*
X92150000Y-217750000D02*
X90500000Y-217750000D01*
X90500000Y-107750000D02*
X92150000Y-107750000D01*
D17*
X98300000Y-66700000D02*
X95800000Y-69200000D01*
D18*
X90500000Y-195750000D02*
X92150000Y-195750000D01*
D17*
X107233998Y-194000000D02*
X110750000Y-194000000D01*
D18*
X111150000Y-107750000D02*
X109750000Y-107750000D01*
X109500000Y-217750000D02*
X111150000Y-217750000D01*
D17*
X113050000Y-151750000D02*
X111150000Y-151750000D01*
D18*
X109500000Y-173750000D02*
X111150000Y-173750000D01*
D17*
X111150000Y-219100000D02*
X111150000Y-217750000D01*
X111150000Y-150400000D02*
X111150000Y-151750000D01*
D18*
X113000000Y-104900000D02*
X113000000Y-85900000D01*
X92150000Y-63750000D02*
X91000000Y-63750000D01*
D17*
X110750000Y-128000000D02*
X111150000Y-128400000D01*
X94151000Y-219751000D02*
X110499000Y-219751000D01*
X103249000Y-153751000D02*
X107000000Y-150000000D01*
D18*
X90500000Y-129750000D02*
X92150000Y-129750000D01*
D17*
X94151000Y-197751000D02*
X103499000Y-197751000D01*
D18*
X113000000Y-107750000D02*
X113000000Y-129800000D01*
X109500000Y-63750000D02*
X111150000Y-63750000D01*
D17*
X111150000Y-62400000D02*
X110750000Y-62000000D01*
X112450000Y-129750000D02*
X111150000Y-129750000D01*
D18*
X113000000Y-173900000D02*
X113000000Y-195600000D01*
D17*
X95800000Y-69200000D02*
X93900000Y-69200000D01*
D18*
X109500000Y-195750000D02*
X111150000Y-195750000D01*
X109500000Y-129750000D02*
X111150000Y-129750000D01*
D17*
X107000000Y-150000000D02*
X110750000Y-150000000D01*
X113000000Y-151700000D02*
X113100000Y-151800000D01*
X112850000Y-173750000D02*
X113000000Y-173900000D01*
X94151000Y-153751000D02*
X103249000Y-153751000D01*
D18*
X112900000Y-105800000D02*
X113000000Y-105700000D01*
X113000000Y-217400000D02*
X112650000Y-217750000D01*
D17*
X93900000Y-69200000D02*
X92150000Y-67450000D01*
D18*
X106400000Y-105800000D02*
X112900000Y-105800000D01*
X105298000Y-106902000D02*
X106400000Y-105800000D01*
D17*
X111150000Y-173750000D02*
X112850000Y-173750000D01*
X105000000Y-196233998D02*
X107233998Y-194000000D01*
D18*
X113000000Y-107750000D02*
X113000000Y-104900000D01*
D17*
X111150000Y-63750000D02*
X111150000Y-62400000D01*
X110499000Y-219751000D02*
X111150000Y-219100000D01*
X111150000Y-172400000D02*
X111150000Y-173750000D01*
D18*
X113000000Y-107750000D02*
X111150000Y-107750000D01*
X90500000Y-85750000D02*
X92150000Y-85750000D01*
D17*
X113100000Y-151800000D02*
X113050000Y-151750000D01*
X92150000Y-195750000D02*
X94151000Y-197751000D01*
X104400000Y-110500000D02*
X93100000Y-110500000D01*
X110750000Y-194000000D02*
X111150000Y-194400000D01*
X94151000Y-131751000D02*
X103449000Y-131751000D01*
D18*
X113000000Y-129800000D02*
X113000000Y-173900000D01*
D17*
X112500000Y-129800000D02*
X112450000Y-129750000D01*
X103449000Y-175751000D02*
X107200000Y-172000000D01*
X92150000Y-217750000D02*
X94151000Y-219751000D01*
D18*
X113000000Y-195600000D02*
X113000000Y-217400000D01*
X109500000Y-151750000D02*
X111150000Y-151750000D01*
D17*
X102550000Y-66700000D02*
X98300000Y-66700000D01*
X110750000Y-62000000D02*
X107250000Y-62000000D01*
X92150000Y-151750000D02*
X94151000Y-153751000D01*
X110750000Y-150000000D02*
X111150000Y-150400000D01*
X92150000Y-109550000D02*
X92150000Y-107750000D01*
X110750000Y-172000000D02*
X111150000Y-172400000D01*
X92150000Y-67450000D02*
X92150000Y-63750000D01*
X105000000Y-196250000D02*
X105000000Y-196233998D01*
X107200000Y-128000000D02*
X110750000Y-128000000D01*
X93100000Y-110500000D02*
X92150000Y-109550000D01*
X103449000Y-131751000D02*
X107200000Y-128000000D01*
D18*
X105298000Y-108000000D02*
X105298000Y-106902000D01*
D17*
X92150000Y-173750000D02*
X94151000Y-175751000D01*
X111150000Y-195750000D02*
X112850000Y-195750000D01*
X111150000Y-128400000D02*
X111150000Y-129750000D01*
X111150000Y-194400000D02*
X111150000Y-195750000D01*
X94151000Y-175751000D02*
X103449000Y-175751000D01*
D18*
X90500000Y-173750000D02*
X92150000Y-173750000D01*
D17*
%TO.N,Net-(D1-DOUT)*%
X107850000Y-63750000D02*
X111150000Y-67050000D01*
X111150000Y-67050000D02*
X111150000Y-80250000D01*
%TO.N,Net-(D2-DOUT)*%
X111150000Y-89050000D02*
X111150000Y-102250000D01*
X107850000Y-85750000D02*
X111150000Y-89050000D01*
%TO.N,Net-(D1-DIN)*%
X92150000Y-54600000D02*
X92150000Y-58250000D01*
X110500000Y-55500000D02*
X111100000Y-56100000D01*
X93750000Y-53000000D02*
X92150000Y-54600000D01*
X111100000Y-56100000D02*
X111100000Y-58200000D01*
D19*
X103800000Y-55500000D02*
X104000000Y-55500000D01*
D17*
X104000000Y-55500000D02*
X110500000Y-55500000D01*
X96250000Y-53000000D02*
X93750000Y-53000000D01*
X98750000Y-55500000D02*
X96250000Y-53000000D01*
X104000000Y-55500000D02*
X98750000Y-55500000D01*
X111100000Y-58200000D02*
X111150000Y-58250000D01*
%TO.N,Net-(D3-DOUT)*%
X107850000Y-107750000D02*
X111150000Y-111050000D01*
X111150000Y-111050000D02*
X111150000Y-124250000D01*
%TO.N,Net-(D4-DOUT)*%
X107850000Y-129750000D02*
X111150000Y-133050000D01*
X111150000Y-133050000D02*
X111150000Y-146250000D01*
%TO.N,Net-(D5-DOUT)*%
X107850000Y-151750000D02*
X111150000Y-155050000D01*
X111150000Y-155050000D02*
X111150000Y-168250000D01*
%TO.N,Net-(D6-DOUT)*%
X107850000Y-173750000D02*
X111150000Y-177050000D01*
X111150000Y-177050000D02*
X111150000Y-190250000D01*
%TO.N,Net-(D7-DOUT)*%
X111150000Y-199050000D02*
X111150000Y-212250000D01*
X107850000Y-195750000D02*
X111150000Y-199050000D01*
%TO.N,Net-(D10-DOUT)*%
X88850000Y-98950000D02*
X92150000Y-102250000D01*
X88850000Y-85750000D02*
X88850000Y-98950000D01*
%TO.N,Net-(D10-DIN)*%
X88850000Y-63750000D02*
X88850000Y-76950000D01*
X88850000Y-76950000D02*
X92150000Y-80250000D01*
%TO.N,Net-(D11-DOUT)*%
X88850000Y-107750000D02*
X88850000Y-120950000D01*
X88850000Y-120950000D02*
X92150000Y-124250000D01*
%TO.N,Net-(D12-DOUT)*%
X88850000Y-142950000D02*
X92150000Y-146250000D01*
X88850000Y-129750000D02*
X88850000Y-142950000D01*
D19*
%TO.N,Net-(J1-Pin_5)*%
X90750000Y-62000000D02*
X90151000Y-62599000D01*
X108566100Y-82601000D02*
X106649000Y-82601000D01*
X109300000Y-78932900D02*
X109300000Y-81867100D01*
X108464100Y-78097000D02*
X109300000Y-78932900D01*
X90151000Y-70113232D02*
X98134768Y-78097000D01*
X95000000Y-64820000D02*
X93300000Y-63120000D01*
X98134768Y-78097000D02*
X108464100Y-78097000D01*
X92900000Y-62000000D02*
X90750000Y-62000000D01*
X93300000Y-63120000D02*
X93300000Y-62400000D01*
X93300000Y-62400000D02*
X92900000Y-62000000D01*
X90151000Y-62599000D02*
X90151000Y-70113232D01*
X109300000Y-81867100D02*
X108566100Y-82601000D01*
X104537851Y-84712149D02*
X103585421Y-84712149D01*
X106649000Y-82601000D02*
X104537851Y-84712149D01*
%TO.N,Net-(J1-Pin_1)*%
X106200000Y-77497000D02*
X106200000Y-64300000D01*
D17*
%TO.N,Net-(D13-DOUT)*%
X88850000Y-151750000D02*
X88850000Y-164950000D01*
X88850000Y-164950000D02*
X92150000Y-168250000D01*
%TO.N,Net-(D14-DOUT)*%
X88850000Y-173750000D02*
X88850000Y-186950000D01*
X88850000Y-186950000D02*
X92150000Y-190250000D01*
%TO.N,Net-(D15-DOUT)*%
X88850000Y-208950000D02*
X92150000Y-212250000D01*
X88850000Y-195750000D02*
X88850000Y-208950000D01*
D19*
%TO.N,Net-(U2-RA5)*%
X100000000Y-218000000D02*
X100000000Y-215004888D01*
%TO.N,Net-(U2-RA4)*%
X100000000Y-193000000D02*
X100000000Y-196000000D01*
%TO.N,Net-(U2-RA3{slash}Vref+)*%
X100000000Y-174000000D02*
X100000000Y-171000000D01*
%TO.N,Net-(U2-RA2{slash}Vref-)*%
X100000000Y-149000000D02*
X100000000Y-152000000D01*
%TO.N,Net-(U2-RA1)*%
X100000000Y-127000000D02*
X100000000Y-130000000D01*
%TO.N,Net-(U2-RA0)*%
X104000000Y-104000000D02*
X100000000Y-108000000D01*
X108500000Y-104000000D02*
X104000000Y-104000000D01*
X109000000Y-96250000D02*
X109000000Y-103500000D01*
X109000000Y-103500000D02*
X108500000Y-104000000D01*
%TO.N,Net-(U2-RA6)*%
X100000000Y-83400000D02*
X100000000Y-86000000D01*
X98375000Y-81775000D02*
X100000000Y-83400000D01*
X98375000Y-81725000D02*
X98375000Y-81775000D01*
%TO.N,Net-(U2-RA7)*%
X97600000Y-64000000D02*
X100000000Y-64000000D01*
X97169669Y-64430331D02*
X97600000Y-64000000D01*
X97169669Y-66769669D02*
X97169669Y-64430331D01*
%TD*%
%TA.AperFunction,Conductor*%
%TO.N,GND*%
G36*
X90899689Y-64750147D02*
G01*
X90901459Y-64750500D01*
X91042222Y-64750500D01*
X91109261Y-64770185D01*
X91155016Y-64822989D01*
X91159001Y-64832802D01*
X91163437Y-64845226D01*
X91164956Y-64856762D01*
X91183807Y-64902275D01*
X91184845Y-64905180D01*
X91184896Y-64906081D01*
X91187751Y-64914450D01*
X91195628Y-64943525D01*
X91266376Y-65107482D01*
X91374278Y-65357546D01*
X91389353Y-65392481D01*
X91399500Y-65441609D01*
X91399500Y-67523918D01*
X91399500Y-67523920D01*
X91399499Y-67523920D01*
X91428340Y-67668907D01*
X91428343Y-67668917D01*
X91484912Y-67805488D01*
X91484916Y-67805495D01*
X91503903Y-67833911D01*
X91503904Y-67833914D01*
X91567046Y-67928414D01*
X91567052Y-67928421D01*
X93421584Y-69782952D01*
X93421586Y-69782954D01*
X93447683Y-69800390D01*
X93495270Y-69832186D01*
X93544505Y-69865084D01*
X93584009Y-69881447D01*
X93681088Y-69921659D01*
X93797241Y-69944763D01*
X93816468Y-69948587D01*
X93826081Y-69950500D01*
X93826082Y-69950500D01*
X95873920Y-69950500D01*
X95971462Y-69931096D01*
X96018913Y-69921658D01*
X96155495Y-69865084D01*
X96204729Y-69832186D01*
X96278416Y-69782952D01*
X98574549Y-67486819D01*
X98635872Y-67453334D01*
X98662230Y-67450500D01*
X102623920Y-67450500D01*
X102721462Y-67431096D01*
X102768913Y-67421658D01*
X102905495Y-67365084D01*
X102954729Y-67332186D01*
X103028416Y-67282952D01*
X104315297Y-65996069D01*
X104355524Y-65969191D01*
X104379179Y-65959394D01*
X104510289Y-65871789D01*
X104621789Y-65760289D01*
X104709394Y-65629179D01*
X104719191Y-65605524D01*
X104746069Y-65565297D01*
X105385853Y-64925513D01*
X105386367Y-64925233D01*
X105386654Y-64924719D01*
X105416983Y-64908515D01*
X105447174Y-64892030D01*
X105447761Y-64892072D01*
X105448280Y-64891795D01*
X105482539Y-64894559D01*
X105516866Y-64897014D01*
X105517337Y-64897366D01*
X105517923Y-64897414D01*
X105545246Y-64918260D01*
X105572799Y-64938886D01*
X105573161Y-64939557D01*
X105573472Y-64939794D01*
X105590103Y-64970921D01*
X105592072Y-64976352D01*
X105599500Y-65018623D01*
X105599500Y-76778372D01*
X105592074Y-76820640D01*
X105441143Y-77236907D01*
X105439133Y-77242085D01*
X105430261Y-77263506D01*
X105428946Y-77270116D01*
X105425399Y-77283809D01*
X105423688Y-77289138D01*
X105423222Y-77290798D01*
X105405367Y-77387270D01*
X105404822Y-77391396D01*
X105403770Y-77396686D01*
X105371388Y-77458598D01*
X105310674Y-77493175D01*
X105282152Y-77496500D01*
X98434865Y-77496500D01*
X98367826Y-77476815D01*
X98347184Y-77460181D01*
X90787819Y-69900816D01*
X90754334Y-69839493D01*
X90751500Y-69813135D01*
X90751500Y-64871765D01*
X90771185Y-64804726D01*
X90823989Y-64758971D01*
X90893147Y-64749027D01*
X90899689Y-64750147D01*
G37*
%TD.AperFunction*%
%TA.AperFunction,Conductor*%
G36*
X114004418Y-45500816D02*
G01*
X114204561Y-45515130D01*
X114222063Y-45517647D01*
X114413797Y-45559355D01*
X114430755Y-45564334D01*
X114614609Y-45632909D01*
X114630701Y-45640259D01*
X114802904Y-45734288D01*
X114817784Y-45743849D01*
X114974867Y-45861441D01*
X114988237Y-45873027D01*
X115126972Y-46011762D01*
X115138558Y-46025132D01*
X115256146Y-46182210D01*
X115265711Y-46197095D01*
X115359740Y-46369298D01*
X115367090Y-46385390D01*
X115435662Y-46569236D01*
X115440646Y-46586212D01*
X115482351Y-46777931D01*
X115484869Y-46795442D01*
X115499184Y-46995580D01*
X115499500Y-47004427D01*
X115499500Y-228995572D01*
X115499184Y-229004419D01*
X115484869Y-229204557D01*
X115482351Y-229222068D01*
X115440646Y-229413787D01*
X115435662Y-229430763D01*
X115367090Y-229614609D01*
X115359740Y-229630701D01*
X115265711Y-229802904D01*
X115256146Y-229817789D01*
X115138558Y-229974867D01*
X115126972Y-229988237D01*
X114988237Y-230126972D01*
X114974867Y-230138558D01*
X114817789Y-230256146D01*
X114802904Y-230265711D01*
X114630701Y-230359740D01*
X114614609Y-230367090D01*
X114430763Y-230435662D01*
X114413787Y-230440646D01*
X114222068Y-230482351D01*
X114204557Y-230484869D01*
X114023779Y-230497799D01*
X114004417Y-230499184D01*
X113995572Y-230499500D01*
X86004428Y-230499500D01*
X85995582Y-230499184D01*
X85973622Y-230497613D01*
X85795442Y-230484869D01*
X85777931Y-230482351D01*
X85586212Y-230440646D01*
X85569236Y-230435662D01*
X85385390Y-230367090D01*
X85369298Y-230359740D01*
X85197095Y-230265711D01*
X85182210Y-230256146D01*
X85025132Y-230138558D01*
X85011762Y-230126972D01*
X84873027Y-229988237D01*
X84861441Y-229974867D01*
X84743849Y-229817784D01*
X84734288Y-229802904D01*
X84640259Y-229630701D01*
X84632909Y-229614609D01*
X84572091Y-229451551D01*
X84564334Y-229430755D01*
X84559355Y-229413797D01*
X84517647Y-229222063D01*
X84515130Y-229204556D01*
X84500816Y-229004418D01*
X84500500Y-228995572D01*
X84500500Y-213239324D01*
X87850001Y-213239324D01*
X87865442Y-213356628D01*
X87865444Y-213356633D01*
X87925899Y-213502585D01*
X88022075Y-213627924D01*
X88147413Y-213724100D01*
X88293365Y-213784554D01*
X88293369Y-213784555D01*
X88410676Y-213799999D01*
X88599999Y-213799999D01*
X89100000Y-213799999D01*
X89289324Y-213799999D01*
X89406628Y-213784557D01*
X89406633Y-213784555D01*
X89552585Y-213724100D01*
X89677924Y-213627924D01*
X89774100Y-213502586D01*
X89834554Y-213356634D01*
X89834555Y-213356630D01*
X89849999Y-213239330D01*
X89850000Y-213239316D01*
X89850000Y-212500000D01*
X89100000Y-212500000D01*
X89100000Y-213799999D01*
X88599999Y-213799999D01*
X88600000Y-213799998D01*
X88600000Y-212500000D01*
X87850001Y-212500000D01*
X87850001Y-213239324D01*
X84500500Y-213239324D01*
X84500500Y-211260669D01*
X87850000Y-211260669D01*
X87850000Y-212000000D01*
X88600000Y-212000000D01*
X88600000Y-210700000D01*
X88410675Y-210700000D01*
X88293371Y-210715442D01*
X88293366Y-210715444D01*
X88147414Y-210775899D01*
X88022075Y-210872075D01*
X87925899Y-210997413D01*
X87865445Y-211143365D01*
X87865444Y-211143369D01*
X87850000Y-211260669D01*
X84500500Y-211260669D01*
X84500500Y-191239324D01*
X87850001Y-191239324D01*
X87865442Y-191356628D01*
X87865444Y-191356633D01*
X87925899Y-191502585D01*
X88022075Y-191627924D01*
X88147413Y-191724100D01*
X88293365Y-191784554D01*
X88293369Y-191784555D01*
X88410676Y-191799999D01*
X88599999Y-191799999D01*
X89100000Y-191799999D01*
X89289324Y-191799999D01*
X89406628Y-191784557D01*
X89406633Y-191784555D01*
X89552585Y-191724100D01*
X89677924Y-191627924D01*
X89774100Y-191502586D01*
X89834554Y-191356634D01*
X89834555Y-191356630D01*
X89849999Y-191239330D01*
X89850000Y-191239316D01*
X89850000Y-190500000D01*
X89100000Y-190500000D01*
X89100000Y-191799999D01*
X88599999Y-191799999D01*
X88600000Y-191799998D01*
X88600000Y-190500000D01*
X87850001Y-190500000D01*
X87850001Y-191239324D01*
X84500500Y-191239324D01*
X84500500Y-189260669D01*
X87850000Y-189260669D01*
X87850000Y-190000000D01*
X88600000Y-190000000D01*
X88600000Y-188700000D01*
X88410675Y-188700000D01*
X88293371Y-188715442D01*
X88293366Y-188715444D01*
X88147414Y-188775899D01*
X88022075Y-188872075D01*
X87925899Y-188997413D01*
X87865445Y-189143365D01*
X87865444Y-189143369D01*
X87850000Y-189260669D01*
X84500500Y-189260669D01*
X84500500Y-169239324D01*
X87850001Y-169239324D01*
X87865442Y-169356628D01*
X87865444Y-169356633D01*
X87925899Y-169502585D01*
X88022075Y-169627924D01*
X88147413Y-169724100D01*
X88293365Y-169784554D01*
X88293369Y-169784555D01*
X88410676Y-169799999D01*
X88599999Y-169799999D01*
X89100000Y-169799999D01*
X89289324Y-169799999D01*
X89406628Y-169784557D01*
X89406633Y-169784555D01*
X89552585Y-169724100D01*
X89677924Y-169627924D01*
X89774100Y-169502586D01*
X89834554Y-169356634D01*
X89834555Y-169356630D01*
X89849999Y-169239330D01*
X89850000Y-169239316D01*
X89850000Y-168500000D01*
X89100000Y-168500000D01*
X89100000Y-169799999D01*
X88599999Y-169799999D01*
X88600000Y-169799998D01*
X88600000Y-168500000D01*
X87850001Y-168500000D01*
X87850001Y-169239324D01*
X84500500Y-169239324D01*
X84500500Y-167260669D01*
X87850000Y-167260669D01*
X87850000Y-168000000D01*
X88600000Y-168000000D01*
X88600000Y-166700000D01*
X88410675Y-166700000D01*
X88293371Y-166715442D01*
X88293366Y-166715444D01*
X88147414Y-166775899D01*
X88022075Y-166872075D01*
X87925899Y-166997413D01*
X87865445Y-167143365D01*
X87865444Y-167143369D01*
X87850000Y-167260669D01*
X84500500Y-167260669D01*
X84500500Y-147239324D01*
X87850001Y-147239324D01*
X87865442Y-147356628D01*
X87865444Y-147356633D01*
X87925899Y-147502585D01*
X88022075Y-147627924D01*
X88147413Y-147724100D01*
X88293365Y-147784554D01*
X88293369Y-147784555D01*
X88410676Y-147799999D01*
X88599999Y-147799999D01*
X89100000Y-147799999D01*
X89289324Y-147799999D01*
X89406628Y-147784557D01*
X89406633Y-147784555D01*
X89552585Y-147724100D01*
X89677924Y-147627924D01*
X89774100Y-147502586D01*
X89834554Y-147356634D01*
X89834555Y-147356630D01*
X89849999Y-147239330D01*
X89850000Y-147239316D01*
X89850000Y-146500000D01*
X89100000Y-146500000D01*
X89100000Y-147799999D01*
X88599999Y-147799999D01*
X88600000Y-147799998D01*
X88600000Y-146500000D01*
X87850001Y-146500000D01*
X87850001Y-147239324D01*
X84500500Y-147239324D01*
X84500500Y-145260669D01*
X87850000Y-145260669D01*
X87850000Y-146000000D01*
X88600000Y-146000000D01*
X88600000Y-144700000D01*
X88410675Y-144700000D01*
X88293371Y-144715442D01*
X88293366Y-144715444D01*
X88147414Y-144775899D01*
X88022075Y-144872075D01*
X87925899Y-144997413D01*
X87865445Y-145143365D01*
X87865444Y-145143369D01*
X87850000Y-145260669D01*
X84500500Y-145260669D01*
X84500500Y-125239324D01*
X87850001Y-125239324D01*
X87865442Y-125356628D01*
X87865444Y-125356633D01*
X87925899Y-125502585D01*
X88022075Y-125627924D01*
X88147413Y-125724100D01*
X88293365Y-125784554D01*
X88293369Y-125784555D01*
X88410676Y-125799999D01*
X88599999Y-125799999D01*
X89100000Y-125799999D01*
X89289324Y-125799999D01*
X89406628Y-125784557D01*
X89406633Y-125784555D01*
X89552585Y-125724100D01*
X89677924Y-125627924D01*
X89774100Y-125502586D01*
X89834554Y-125356634D01*
X89834555Y-125356630D01*
X89849999Y-125239330D01*
X89850000Y-125239316D01*
X89850000Y-124500000D01*
X89100000Y-124500000D01*
X89100000Y-125799999D01*
X88599999Y-125799999D01*
X88600000Y-125799998D01*
X88600000Y-124500000D01*
X87850001Y-124500000D01*
X87850001Y-125239324D01*
X84500500Y-125239324D01*
X84500500Y-123260669D01*
X87850000Y-123260669D01*
X87850000Y-124000000D01*
X88600000Y-124000000D01*
X88600000Y-122700000D01*
X88410675Y-122700000D01*
X88293371Y-122715442D01*
X88293366Y-122715444D01*
X88147414Y-122775899D01*
X88022075Y-122872075D01*
X87925899Y-122997413D01*
X87865445Y-123143365D01*
X87865444Y-123143369D01*
X87850000Y-123260669D01*
X84500500Y-123260669D01*
X84500500Y-103239324D01*
X87850001Y-103239324D01*
X87865442Y-103356628D01*
X87865444Y-103356633D01*
X87925899Y-103502585D01*
X88022075Y-103627924D01*
X88147413Y-103724100D01*
X88293365Y-103784554D01*
X88293369Y-103784555D01*
X88410676Y-103799999D01*
X88599999Y-103799999D01*
X89100000Y-103799999D01*
X89289324Y-103799999D01*
X89406628Y-103784557D01*
X89406633Y-103784555D01*
X89552585Y-103724100D01*
X89677924Y-103627924D01*
X89774100Y-103502586D01*
X89834554Y-103356634D01*
X89834555Y-103356630D01*
X89849999Y-103239330D01*
X89850000Y-103239316D01*
X89850000Y-102500000D01*
X89100000Y-102500000D01*
X89100000Y-103799999D01*
X88599999Y-103799999D01*
X88600000Y-103799998D01*
X88600000Y-102500000D01*
X87850001Y-102500000D01*
X87850001Y-103239324D01*
X84500500Y-103239324D01*
X84500500Y-101260669D01*
X87850000Y-101260669D01*
X87850000Y-102000000D01*
X88600000Y-102000000D01*
X88600000Y-100700000D01*
X88410675Y-100700000D01*
X88293371Y-100715442D01*
X88293366Y-100715444D01*
X88147414Y-100775899D01*
X88022075Y-100872075D01*
X87925899Y-100997413D01*
X87865445Y-101143365D01*
X87865444Y-101143369D01*
X87850000Y-101260669D01*
X84500500Y-101260669D01*
X84500500Y-81239324D01*
X87850001Y-81239324D01*
X87865442Y-81356628D01*
X87865444Y-81356633D01*
X87925899Y-81502585D01*
X88022075Y-81627924D01*
X88147413Y-81724100D01*
X88293365Y-81784554D01*
X88293369Y-81784555D01*
X88410676Y-81799999D01*
X88599999Y-81799999D01*
X89100000Y-81799999D01*
X89289324Y-81799999D01*
X89406628Y-81784557D01*
X89406633Y-81784555D01*
X89552585Y-81724100D01*
X89677924Y-81627924D01*
X89774100Y-81502586D01*
X89834554Y-81356634D01*
X89834555Y-81356630D01*
X89849999Y-81239330D01*
X89850000Y-81239316D01*
X89850000Y-80500000D01*
X89100000Y-80500000D01*
X89100000Y-81799999D01*
X88599999Y-81799999D01*
X88600000Y-81799998D01*
X88600000Y-80500000D01*
X87850001Y-80500000D01*
X87850001Y-81239324D01*
X84500500Y-81239324D01*
X84500500Y-79260669D01*
X87850000Y-79260669D01*
X87850000Y-80000000D01*
X88600000Y-80000000D01*
X88600000Y-78700000D01*
X88410675Y-78700000D01*
X88293371Y-78715442D01*
X88293366Y-78715444D01*
X88147414Y-78775899D01*
X88022075Y-78872075D01*
X87925899Y-78997413D01*
X87865445Y-79143365D01*
X87865444Y-79143369D01*
X87850000Y-79260669D01*
X84500500Y-79260669D01*
X84500500Y-62760640D01*
X87849500Y-62760640D01*
X87849500Y-64739362D01*
X87857403Y-64799393D01*
X87857908Y-64803227D01*
X87858006Y-64804653D01*
X87858181Y-64805301D01*
X87858709Y-64809312D01*
X87864956Y-64856765D01*
X87882627Y-64899426D01*
X87887751Y-64914450D01*
X87895628Y-64943525D01*
X87966376Y-65107482D01*
X88074278Y-65357546D01*
X88089353Y-65392481D01*
X88099500Y-65441609D01*
X88099500Y-77023918D01*
X88099500Y-77023920D01*
X88099499Y-77023920D01*
X88128340Y-77168907D01*
X88128342Y-77168913D01*
X88178828Y-77290798D01*
X88184915Y-77305492D01*
X88184917Y-77305497D01*
X88186085Y-77307244D01*
X88186089Y-77307258D01*
X88186093Y-77307256D01*
X88242312Y-77391396D01*
X88267051Y-77428420D01*
X89326950Y-78488319D01*
X89360435Y-78549642D01*
X89355451Y-78619334D01*
X89313579Y-78675267D01*
X89248115Y-78699684D01*
X89239269Y-78700000D01*
X89100000Y-78700000D01*
X89100000Y-80000000D01*
X89849999Y-80000000D01*
X89849999Y-79310729D01*
X89869684Y-79243690D01*
X89922488Y-79197935D01*
X89991646Y-79187991D01*
X90055202Y-79217016D01*
X90061680Y-79223048D01*
X90696821Y-79858189D01*
X90715469Y-79882072D01*
X91131829Y-80576003D01*
X91149500Y-80639801D01*
X91149500Y-81239363D01*
X91164953Y-81356753D01*
X91164956Y-81356762D01*
X91221634Y-81493596D01*
X91225464Y-81502841D01*
X91321718Y-81628282D01*
X91447159Y-81724536D01*
X91593238Y-81785044D01*
X91710639Y-81800500D01*
X92589360Y-81800499D01*
X92589363Y-81800499D01*
X92706753Y-81785046D01*
X92706757Y-81785044D01*
X92706762Y-81785044D01*
X92852841Y-81724536D01*
X92978282Y-81628282D01*
X93074536Y-81502841D01*
X93135044Y-81356762D01*
X93150500Y-81239361D01*
X93150499Y-79260640D01*
X93150499Y-79260639D01*
X93150499Y-79260636D01*
X93135046Y-79143246D01*
X93135044Y-79143239D01*
X93135044Y-79143238D01*
X93074536Y-78997159D01*
X92978282Y-78871718D01*
X92852841Y-78775464D01*
X92706762Y-78714956D01*
X92706760Y-78714955D01*
X92589370Y-78699501D01*
X92589367Y-78699500D01*
X92589361Y-78699500D01*
X92589354Y-78699500D01*
X91753217Y-78699500D01*
X91744488Y-78699192D01*
X91744317Y-78699179D01*
X91744311Y-78699179D01*
X91744268Y-78699176D01*
X91743963Y-78699154D01*
X91705501Y-78696387D01*
X91705121Y-78696413D01*
X91700389Y-78696080D01*
X91671511Y-78685340D01*
X91641958Y-78676626D01*
X91636725Y-78672404D01*
X91634902Y-78671726D01*
X91633395Y-78669717D01*
X91621437Y-78660069D01*
X89636819Y-76675451D01*
X89603334Y-76614128D01*
X89600500Y-76587770D01*
X89600500Y-71278429D01*
X89620185Y-71211390D01*
X89672989Y-71165635D01*
X89742147Y-71155691D01*
X89805703Y-71184716D01*
X89812180Y-71190747D01*
X97701952Y-79080520D01*
X97701954Y-79080521D01*
X97701958Y-79080524D01*
X97838877Y-79159573D01*
X97838884Y-79159577D01*
X97991611Y-79200501D01*
X97991613Y-79200501D01*
X98157322Y-79200501D01*
X98157338Y-79200500D01*
X98376000Y-79200500D01*
X98443039Y-79220185D01*
X98488794Y-79272989D01*
X98500000Y-79324500D01*
X98500000Y-79750000D01*
X101500000Y-79750000D01*
X101500000Y-79324500D01*
X101519685Y-79257461D01*
X101572489Y-79211706D01*
X101624000Y-79200500D01*
X106726000Y-79200500D01*
X106793039Y-79220185D01*
X106838794Y-79272989D01*
X106850000Y-79324500D01*
X106850000Y-80000000D01*
X107726000Y-80000000D01*
X107793039Y-80019685D01*
X107838794Y-80072489D01*
X107850000Y-80124000D01*
X107850000Y-80376000D01*
X107830315Y-80443039D01*
X107777511Y-80488794D01*
X107726000Y-80500000D01*
X106850001Y-80500000D01*
X106850001Y-81239324D01*
X106865442Y-81356628D01*
X106865444Y-81356633D01*
X106895025Y-81428048D01*
X106902494Y-81497517D01*
X106871219Y-81559996D01*
X106811130Y-81595648D01*
X106780464Y-81599500D01*
X105920940Y-81599500D01*
X105880019Y-81610464D01*
X105880019Y-81610465D01*
X105842751Y-81620451D01*
X105768214Y-81640423D01*
X105768209Y-81640426D01*
X105631290Y-81719475D01*
X105631282Y-81719481D01*
X105519478Y-81831286D01*
X104283528Y-83067235D01*
X104248390Y-83091872D01*
X103848668Y-83278864D01*
X103848621Y-83278887D01*
X103844836Y-83280658D01*
X103820821Y-83290606D01*
X103809243Y-83298341D01*
X103802279Y-83301923D01*
X103802204Y-83301961D01*
X103797707Y-83304275D01*
X103796191Y-83305128D01*
X103715799Y-83360446D01*
X103712423Y-83363034D01*
X103689714Y-83378208D01*
X103578209Y-83489712D01*
X103490609Y-83620814D01*
X103490602Y-83620827D01*
X103430264Y-83766498D01*
X103430261Y-83766508D01*
X103412094Y-83857839D01*
X103379709Y-83919750D01*
X103337930Y-83948208D01*
X103206244Y-84002753D01*
X103206235Y-84002758D01*
X103075132Y-84090359D01*
X103075128Y-84090362D01*
X102963634Y-84201856D01*
X102963631Y-84201860D01*
X102876030Y-84332963D01*
X102876023Y-84332976D01*
X102815685Y-84478647D01*
X102815682Y-84478659D01*
X102784921Y-84633302D01*
X102784921Y-84790995D01*
X102815682Y-84945638D01*
X102815685Y-84945650D01*
X102876023Y-85091321D01*
X102876030Y-85091334D01*
X102963631Y-85222437D01*
X102963634Y-85222441D01*
X103075128Y-85333935D01*
X103075132Y-85333938D01*
X103206235Y-85421539D01*
X103206248Y-85421546D01*
X103327900Y-85471935D01*
X103351924Y-85481886D01*
X103506574Y-85512648D01*
X103506577Y-85512649D01*
X103506579Y-85512649D01*
X103664265Y-85512649D01*
X103783440Y-85488943D01*
X103814744Y-85482716D01*
X103884336Y-85488943D01*
X103939513Y-85531806D01*
X103962758Y-85597695D01*
X103946691Y-85665692D01*
X103926617Y-85692014D01*
X102654451Y-86964181D01*
X102593128Y-86997666D01*
X102566770Y-87000500D01*
X101624500Y-87000500D01*
X101557461Y-86980815D01*
X101511706Y-86928011D01*
X101500500Y-86876500D01*
X101500499Y-84952129D01*
X101500498Y-84952123D01*
X101500497Y-84952116D01*
X101494091Y-84892517D01*
X101486703Y-84872709D01*
X101476148Y-84844409D01*
X101472980Y-84835918D01*
X101472114Y-84831579D01*
X101469127Y-84823137D01*
X101460174Y-84801582D01*
X101443796Y-84757669D01*
X101390840Y-84686930D01*
X101387106Y-84681658D01*
X101368313Y-84653591D01*
X100632330Y-83835832D01*
X100602116Y-83772834D01*
X100600500Y-83752881D01*
X100600500Y-83489059D01*
X100600501Y-83489046D01*
X100600501Y-83320945D01*
X100600501Y-83320943D01*
X100559577Y-83168215D01*
X100511918Y-83085668D01*
X100480520Y-83031284D01*
X100368716Y-82919480D01*
X100368715Y-82919479D01*
X100364385Y-82915149D01*
X100364374Y-82915139D01*
X99295063Y-81845828D01*
X99289901Y-81837974D01*
X99285016Y-81834471D01*
X99267472Y-81803846D01*
X99267470Y-81803842D01*
X99214289Y-81669698D01*
X99207882Y-81600124D01*
X99240107Y-81538129D01*
X99300733Y-81503398D01*
X99329562Y-81500000D01*
X99750000Y-81500000D01*
X100250000Y-81500000D01*
X101047828Y-81500000D01*
X101047844Y-81499999D01*
X101107372Y-81493598D01*
X101107379Y-81493596D01*
X101242086Y-81443354D01*
X101242093Y-81443350D01*
X101357187Y-81357190D01*
X101357190Y-81357187D01*
X101443350Y-81242093D01*
X101443354Y-81242086D01*
X101493596Y-81107379D01*
X101493598Y-81107372D01*
X101499999Y-81047844D01*
X101500000Y-81047827D01*
X101500000Y-80250000D01*
X100250000Y-80250000D01*
X100250000Y-81500000D01*
X99750000Y-81500000D01*
X99750000Y-80250000D01*
X98500000Y-80250000D01*
X98500000Y-80800500D01*
X98480315Y-80867539D01*
X98427511Y-80913294D01*
X98376000Y-80924500D01*
X98296155Y-80924500D01*
X98141510Y-80955261D01*
X98141498Y-80955264D01*
X97995827Y-81015602D01*
X97995814Y-81015609D01*
X97864711Y-81103210D01*
X97864707Y-81103213D01*
X97753213Y-81214707D01*
X97753210Y-81214711D01*
X97665609Y-81345814D01*
X97665602Y-81345827D01*
X97605264Y-81491498D01*
X97605261Y-81491510D01*
X97574500Y-81646153D01*
X97574500Y-81803846D01*
X97605261Y-81958489D01*
X97605264Y-81958501D01*
X97665602Y-82104172D01*
X97665609Y-82104185D01*
X97753210Y-82235288D01*
X97753213Y-82235292D01*
X97864708Y-82346787D01*
X97864711Y-82346789D01*
X97951828Y-82404998D01*
X97978513Y-82424862D01*
X97994690Y-82433638D01*
X97995821Y-82434394D01*
X97995824Y-82434395D01*
X98001143Y-82437238D01*
X98002636Y-82437949D01*
X98393558Y-82650031D01*
X98422108Y-82671343D01*
X99363181Y-83612416D01*
X99377884Y-83639343D01*
X99394477Y-83665162D01*
X99395368Y-83671362D01*
X99396666Y-83673739D01*
X99399500Y-83700097D01*
X99399500Y-83752879D01*
X99379815Y-83819918D01*
X99367669Y-83835830D01*
X98631682Y-84653596D01*
X98605666Y-84684958D01*
X98605663Y-84684961D01*
X98595098Y-84703874D01*
X98595099Y-84703875D01*
X98591064Y-84711100D01*
X98556204Y-84757669D01*
X98538416Y-84805359D01*
X98535510Y-84810563D01*
X98532507Y-84818384D01*
X98532497Y-84818414D01*
X98530747Y-84824666D01*
X98527522Y-84834566D01*
X98505908Y-84892517D01*
X98500197Y-84945646D01*
X98499501Y-84952123D01*
X98499500Y-84952135D01*
X98499501Y-86876500D01*
X98479816Y-86943539D01*
X98427013Y-86989294D01*
X98375501Y-87000500D01*
X94513229Y-87000500D01*
X94446190Y-86980815D01*
X94425548Y-86964181D01*
X93603177Y-86141810D01*
X93584529Y-86117926D01*
X93168170Y-85423994D01*
X93150499Y-85360197D01*
X93150499Y-84760636D01*
X93135046Y-84643246D01*
X93135044Y-84643239D01*
X93135044Y-84643238D01*
X93074536Y-84497159D01*
X92978282Y-84371718D01*
X92852841Y-84275464D01*
X92706762Y-84214956D01*
X92706760Y-84214955D01*
X92589361Y-84199500D01*
X91710636Y-84199500D01*
X91593246Y-84214953D01*
X91593237Y-84214956D01*
X91447160Y-84275463D01*
X91321718Y-84371718D01*
X91225463Y-84497160D01*
X91164956Y-84643237D01*
X91162853Y-84651088D01*
X91161196Y-84650644D01*
X91136899Y-84705576D01*
X91078577Y-84744051D01*
X91042222Y-84749500D01*
X90401457Y-84749500D01*
X90208170Y-84787947D01*
X90208160Y-84787950D01*
X90021564Y-84865240D01*
X89952095Y-84872709D01*
X89889616Y-84841433D01*
X89853964Y-84781344D01*
X89851306Y-84764626D01*
X89851029Y-84764663D01*
X89835046Y-84643246D01*
X89835044Y-84643239D01*
X89835044Y-84643238D01*
X89774536Y-84497159D01*
X89678282Y-84371718D01*
X89552841Y-84275464D01*
X89406762Y-84214956D01*
X89406760Y-84214955D01*
X89289361Y-84199500D01*
X88410636Y-84199500D01*
X88293246Y-84214953D01*
X88293237Y-84214956D01*
X88147160Y-84275463D01*
X88021718Y-84371718D01*
X87925463Y-84497160D01*
X87864956Y-84643237D01*
X87864955Y-84643239D01*
X87850966Y-84749500D01*
X87849501Y-84760636D01*
X87849500Y-84760645D01*
X87849500Y-86739362D01*
X87854383Y-86776451D01*
X87857908Y-86803227D01*
X87858006Y-86804653D01*
X87858181Y-86805301D01*
X87858709Y-86809312D01*
X87864956Y-86856765D01*
X87882627Y-86899426D01*
X87887751Y-86914450D01*
X87895628Y-86943525D01*
X87895629Y-86943527D01*
X88049795Y-87300807D01*
X88089353Y-87392481D01*
X88099500Y-87441609D01*
X88099500Y-99023918D01*
X88099500Y-99023920D01*
X88099499Y-99023920D01*
X88128340Y-99168907D01*
X88128343Y-99168917D01*
X88184914Y-99305492D01*
X88217812Y-99354727D01*
X88217813Y-99354730D01*
X88267046Y-99428414D01*
X88267052Y-99428421D01*
X89326950Y-100488319D01*
X89360435Y-100549642D01*
X89355451Y-100619334D01*
X89313579Y-100675267D01*
X89248115Y-100699684D01*
X89239269Y-100700000D01*
X89100000Y-100700000D01*
X89100000Y-102000000D01*
X89849999Y-102000000D01*
X89849999Y-101310729D01*
X89869684Y-101243690D01*
X89922488Y-101197935D01*
X89991646Y-101187991D01*
X90055202Y-101217016D01*
X90061680Y-101223048D01*
X90696821Y-101858189D01*
X90715469Y-101882072D01*
X91131829Y-102576003D01*
X91149500Y-102639801D01*
X91149500Y-103239363D01*
X91164953Y-103356753D01*
X91164956Y-103356762D01*
X91221634Y-103493596D01*
X91225464Y-103502841D01*
X91321718Y-103628282D01*
X91447159Y-103724536D01*
X91593238Y-103785044D01*
X91710639Y-103800500D01*
X92589360Y-103800499D01*
X92589363Y-103800499D01*
X92706753Y-103785046D01*
X92706757Y-103785044D01*
X92706762Y-103785044D01*
X92852841Y-103724536D01*
X92978282Y-103628282D01*
X93074536Y-103502841D01*
X93135044Y-103356762D01*
X93150500Y-103239361D01*
X93150500Y-103047844D01*
X98500000Y-103047844D01*
X98506401Y-103107372D01*
X98506403Y-103107379D01*
X98556645Y-103242086D01*
X98556649Y-103242093D01*
X98642809Y-103357187D01*
X98642812Y-103357190D01*
X98757906Y-103443350D01*
X98757913Y-103443354D01*
X98892620Y-103493596D01*
X98892627Y-103493598D01*
X98952155Y-103499999D01*
X98952172Y-103500000D01*
X99750000Y-103500000D01*
X100250000Y-103500000D01*
X101047828Y-103500000D01*
X101047844Y-103499999D01*
X101107372Y-103493598D01*
X101107379Y-103493596D01*
X101242086Y-103443354D01*
X101242093Y-103443350D01*
X101357187Y-103357190D01*
X101357190Y-103357187D01*
X101443350Y-103242093D01*
X101443354Y-103242086D01*
X101493596Y-103107379D01*
X101493598Y-103107372D01*
X101499999Y-103047844D01*
X101500000Y-103047827D01*
X101500000Y-102250000D01*
X100250000Y-102250000D01*
X100250000Y-103500000D01*
X99750000Y-103500000D01*
X99750000Y-102250000D01*
X98500000Y-102250000D01*
X98500000Y-103047844D01*
X93150500Y-103047844D01*
X93150499Y-101260640D01*
X93150499Y-101260639D01*
X93150499Y-101260636D01*
X93135046Y-101143246D01*
X93135044Y-101143239D01*
X93135044Y-101143238D01*
X93074536Y-100997159D01*
X93040003Y-100952155D01*
X98500000Y-100952155D01*
X98500000Y-101750000D01*
X99750000Y-101750000D01*
X100250000Y-101750000D01*
X101500000Y-101750000D01*
X101500000Y-101260669D01*
X106850000Y-101260669D01*
X106850000Y-102000000D01*
X107600000Y-102000000D01*
X107600000Y-100700000D01*
X107410675Y-100700000D01*
X107293371Y-100715442D01*
X107293366Y-100715444D01*
X107147414Y-100775899D01*
X107022075Y-100872075D01*
X106925899Y-100997413D01*
X106865445Y-101143365D01*
X106865444Y-101143369D01*
X106850000Y-101260669D01*
X101500000Y-101260669D01*
X101500000Y-100952172D01*
X101499999Y-100952155D01*
X101493598Y-100892627D01*
X101493596Y-100892620D01*
X101443354Y-100757913D01*
X101443350Y-100757906D01*
X101357190Y-100642812D01*
X101357187Y-100642809D01*
X101242093Y-100556649D01*
X101242086Y-100556645D01*
X101107379Y-100506403D01*
X101107372Y-100506401D01*
X101047844Y-100500000D01*
X100250000Y-100500000D01*
X100250000Y-101750000D01*
X99750000Y-101750000D01*
X99750000Y-100500000D01*
X98952155Y-100500000D01*
X98892627Y-100506401D01*
X98892620Y-100506403D01*
X98757913Y-100556645D01*
X98757906Y-100556649D01*
X98642812Y-100642809D01*
X98642809Y-100642812D01*
X98556649Y-100757906D01*
X98556645Y-100757913D01*
X98506403Y-100892620D01*
X98506401Y-100892627D01*
X98500000Y-100952155D01*
X93040003Y-100952155D01*
X92978282Y-100871718D01*
X92852841Y-100775464D01*
X92810452Y-100757906D01*
X92706762Y-100714956D01*
X92706760Y-100714955D01*
X92589370Y-100699501D01*
X92589367Y-100699500D01*
X92589361Y-100699500D01*
X92589354Y-100699500D01*
X91753217Y-100699500D01*
X91744488Y-100699192D01*
X91744317Y-100699179D01*
X91744311Y-100699179D01*
X91744268Y-100699176D01*
X91743963Y-100699154D01*
X91705501Y-100696387D01*
X91705121Y-100696413D01*
X91700389Y-100696080D01*
X91671511Y-100685340D01*
X91641958Y-100676626D01*
X91636725Y-100672404D01*
X91634902Y-100671726D01*
X91633395Y-100669717D01*
X91621437Y-100660069D01*
X89636819Y-98675451D01*
X89603334Y-98614128D01*
X89600500Y-98587770D01*
X89600500Y-87441606D01*
X89610647Y-87392479D01*
X89650200Y-87300815D01*
X89804370Y-86943526D01*
X89812374Y-86923852D01*
X89812724Y-86922937D01*
X89825992Y-86878613D01*
X89835044Y-86856762D01*
X89850500Y-86739361D01*
X89850499Y-86735993D01*
X89852122Y-86727092D01*
X89864740Y-86701991D01*
X89874399Y-86675611D01*
X89880222Y-86671196D01*
X89883505Y-86664667D01*
X89907691Y-86650373D01*
X89930079Y-86633403D01*
X89937365Y-86632837D01*
X89943656Y-86629120D01*
X89971728Y-86630171D01*
X89999739Y-86627998D01*
X90011570Y-86631663D01*
X90013477Y-86631735D01*
X90014818Y-86632669D01*
X90021565Y-86634760D01*
X90208160Y-86712049D01*
X90208165Y-86712051D01*
X90208169Y-86712051D01*
X90208170Y-86712052D01*
X90401456Y-86750500D01*
X90401459Y-86750500D01*
X91042222Y-86750500D01*
X91109261Y-86770185D01*
X91155016Y-86822989D01*
X91162487Y-86849009D01*
X91162853Y-86848912D01*
X91164956Y-86856762D01*
X91219852Y-86989294D01*
X91225464Y-87002841D01*
X91321718Y-87128282D01*
X91447159Y-87224536D01*
X91593238Y-87285044D01*
X91710639Y-87300500D01*
X92546793Y-87300499D01*
X92555521Y-87300807D01*
X92555693Y-87300819D01*
X92555695Y-87300819D01*
X92594500Y-87303612D01*
X92594884Y-87303584D01*
X92599609Y-87303918D01*
X92628424Y-87314634D01*
X92657920Y-87323295D01*
X92663238Y-87327580D01*
X92665097Y-87328272D01*
X92666626Y-87330310D01*
X92678562Y-87339929D01*
X93672580Y-88333948D01*
X93672584Y-88333951D01*
X93795498Y-88416080D01*
X93795511Y-88416087D01*
X93932082Y-88472656D01*
X93932087Y-88472658D01*
X93932091Y-88472658D01*
X93932092Y-88472659D01*
X94077079Y-88501500D01*
X94077082Y-88501500D01*
X103002920Y-88501500D01*
X103100462Y-88482096D01*
X103147913Y-88472658D01*
X103284495Y-88416084D01*
X103333729Y-88383186D01*
X103407416Y-88333952D01*
X106637821Y-85103546D01*
X106699142Y-85070063D01*
X106768834Y-85075047D01*
X106824767Y-85116919D01*
X106849184Y-85182383D01*
X106849500Y-85191229D01*
X106849500Y-86739363D01*
X106864953Y-86856753D01*
X106864956Y-86856762D01*
X106919852Y-86989294D01*
X106925464Y-87002841D01*
X107021718Y-87128282D01*
X107147159Y-87224536D01*
X107293238Y-87285044D01*
X107410639Y-87300500D01*
X108246793Y-87300499D01*
X108255521Y-87300807D01*
X108255693Y-87300819D01*
X108255695Y-87300819D01*
X108294500Y-87303612D01*
X108294884Y-87303584D01*
X108299608Y-87303918D01*
X108328423Y-87314634D01*
X108357919Y-87323295D01*
X108363237Y-87327580D01*
X108365096Y-87328272D01*
X108366625Y-87330310D01*
X108378561Y-87339929D01*
X110363181Y-89324549D01*
X110396666Y-89385872D01*
X110399500Y-89412230D01*
X110399500Y-100558389D01*
X110389353Y-100607516D01*
X110195638Y-101056450D01*
X110187625Y-101076144D01*
X110187275Y-101077061D01*
X110187271Y-101077072D01*
X110175811Y-101115350D01*
X110171586Y-101127227D01*
X110164958Y-101143231D01*
X110164956Y-101143239D01*
X110149500Y-101260631D01*
X110149500Y-103239363D01*
X110164953Y-103356753D01*
X110164956Y-103356762D01*
X110221634Y-103493596D01*
X110225464Y-103502841D01*
X110321718Y-103628282D01*
X110447159Y-103724536D01*
X110593238Y-103785044D01*
X110710639Y-103800500D01*
X111589360Y-103800499D01*
X111589363Y-103800499D01*
X111706753Y-103785046D01*
X111706756Y-103785044D01*
X111706762Y-103785044D01*
X111828050Y-103734804D01*
X111897516Y-103727336D01*
X111959995Y-103758611D01*
X111995648Y-103818699D01*
X111999500Y-103849366D01*
X111999500Y-104675500D01*
X111979815Y-104742539D01*
X111927011Y-104788294D01*
X111875500Y-104799500D01*
X108775950Y-104799500D01*
X108771820Y-104798287D01*
X108767619Y-104799220D01*
X108738584Y-104788528D01*
X108708911Y-104779815D01*
X108706093Y-104776563D01*
X108702054Y-104775076D01*
X108683409Y-104750384D01*
X108663156Y-104727011D01*
X108662543Y-104722751D01*
X108659950Y-104719317D01*
X108657614Y-104688471D01*
X108653212Y-104657853D01*
X108654999Y-104653938D01*
X108654675Y-104649647D01*
X108669386Y-104622436D01*
X108682237Y-104594297D01*
X108686437Y-104590897D01*
X108687904Y-104588185D01*
X108698950Y-104580770D01*
X108716070Y-104566916D01*
X108727103Y-104560831D01*
X108731785Y-104559577D01*
X108781904Y-104530639D01*
X108868716Y-104480520D01*
X108980520Y-104368716D01*
X108980521Y-104368714D01*
X109480520Y-103868716D01*
X109559577Y-103731784D01*
X109600501Y-103579057D01*
X109600501Y-103420942D01*
X109600501Y-103413347D01*
X109600500Y-103413329D01*
X109600500Y-96968622D01*
X109607926Y-96926355D01*
X109759786Y-96507518D01*
X109769737Y-96483497D01*
X109772426Y-96469977D01*
X109776238Y-96458118D01*
X109776707Y-96456450D01*
X109793419Y-96366279D01*
X109793418Y-96366275D01*
X109794630Y-96359741D01*
X109795175Y-96355608D01*
X109798400Y-96339395D01*
X109800500Y-96328844D01*
X109800500Y-96171155D01*
X109800499Y-96171153D01*
X109769738Y-96016510D01*
X109769737Y-96016503D01*
X109769735Y-96016498D01*
X109709397Y-95870827D01*
X109709390Y-95870814D01*
X109621789Y-95739711D01*
X109621786Y-95739707D01*
X109510292Y-95628213D01*
X109510288Y-95628210D01*
X109379185Y-95540609D01*
X109379172Y-95540602D01*
X109233501Y-95480264D01*
X109233489Y-95480261D01*
X109078845Y-95449500D01*
X109078842Y-95449500D01*
X108921158Y-95449500D01*
X108921155Y-95449500D01*
X108766510Y-95480261D01*
X108766498Y-95480264D01*
X108620827Y-95540602D01*
X108620814Y-95540609D01*
X108489711Y-95628210D01*
X108489707Y-95628213D01*
X108378213Y-95739707D01*
X108378210Y-95739711D01*
X108290609Y-95870814D01*
X108290602Y-95870827D01*
X108230264Y-96016498D01*
X108230261Y-96016510D01*
X108199500Y-96171153D01*
X108199500Y-96328846D01*
X108230261Y-96483489D01*
X108230263Y-96483497D01*
X108239144Y-96504938D01*
X108241156Y-96510122D01*
X108241655Y-96511497D01*
X108392073Y-96926355D01*
X108392074Y-96926356D01*
X108399500Y-96968623D01*
X108399500Y-100576000D01*
X108379815Y-100643039D01*
X108327011Y-100688794D01*
X108275500Y-100700000D01*
X108100000Y-100700000D01*
X108100000Y-102126000D01*
X108080315Y-102193039D01*
X108027511Y-102238794D01*
X107976000Y-102250000D01*
X107850000Y-102250000D01*
X107850000Y-102376000D01*
X107830315Y-102443039D01*
X107777511Y-102488794D01*
X107726000Y-102500000D01*
X106850001Y-102500000D01*
X106850001Y-103239322D01*
X106852633Y-103259315D01*
X106841867Y-103328350D01*
X106795487Y-103380606D01*
X106729694Y-103399500D01*
X104079057Y-103399500D01*
X103920942Y-103399500D01*
X103768215Y-103440423D01*
X103768214Y-103440423D01*
X103768212Y-103440424D01*
X103768209Y-103440425D01*
X103718096Y-103469359D01*
X103718095Y-103469360D01*
X103676117Y-103493596D01*
X103631285Y-103519479D01*
X103631282Y-103519481D01*
X103519478Y-103631286D01*
X101385885Y-105764878D01*
X101342181Y-105793137D01*
X99501200Y-106491440D01*
X99457223Y-106499500D01*
X98952129Y-106499500D01*
X98952123Y-106499501D01*
X98892516Y-106505908D01*
X98757671Y-106556202D01*
X98757664Y-106556206D01*
X98642455Y-106642452D01*
X98642452Y-106642455D01*
X98556206Y-106757664D01*
X98556202Y-106757671D01*
X98505908Y-106892517D01*
X98499501Y-106952116D01*
X98499500Y-106952135D01*
X98499500Y-109047870D01*
X98499501Y-109047876D01*
X98505908Y-109107483D01*
X98556202Y-109242328D01*
X98556206Y-109242335D01*
X98642452Y-109357544D01*
X98642455Y-109357547D01*
X98757664Y-109443793D01*
X98757671Y-109443797D01*
X98892517Y-109494091D01*
X98892516Y-109494091D01*
X98899444Y-109494835D01*
X98952127Y-109500500D01*
X101047872Y-109500499D01*
X101107483Y-109494091D01*
X101242331Y-109443796D01*
X101357546Y-109357546D01*
X101443796Y-109242331D01*
X101494091Y-109107483D01*
X101500500Y-109047873D01*
X101500499Y-108542769D01*
X101508559Y-108498793D01*
X101587059Y-108291839D01*
X102206861Y-106657815D01*
X102235117Y-106614116D01*
X104212416Y-104636819D01*
X104273739Y-104603334D01*
X104300097Y-104600500D01*
X106058028Y-104600500D01*
X106125067Y-104620185D01*
X106170822Y-104672989D01*
X106180766Y-104742147D01*
X106151741Y-104805703D01*
X106105481Y-104839059D01*
X106032745Y-104869188D01*
X106032743Y-104869189D01*
X105926089Y-104913366D01*
X105926079Y-104913371D01*
X105762218Y-105022860D01*
X105762214Y-105022863D01*
X104660220Y-106124859D01*
X104660218Y-106124861D01*
X104590538Y-106194540D01*
X104520859Y-106264219D01*
X104411371Y-106428080D01*
X104411366Y-106428089D01*
X104363399Y-106543893D01*
X104363396Y-106543900D01*
X104360889Y-106549955D01*
X104335949Y-106610164D01*
X104320739Y-106686631D01*
X104319641Y-106692148D01*
X104319641Y-106692150D01*
X104297500Y-106803456D01*
X104297500Y-106803459D01*
X104297500Y-108098541D01*
X104297500Y-108098543D01*
X104297499Y-108098543D01*
X104335947Y-108291829D01*
X104335950Y-108291839D01*
X104411364Y-108473907D01*
X104411371Y-108473920D01*
X104524245Y-108642847D01*
X104522717Y-108643867D01*
X104546666Y-108700255D01*
X104547500Y-108714610D01*
X104547500Y-109239770D01*
X104527815Y-109306809D01*
X104511181Y-109327451D01*
X104125451Y-109713181D01*
X104064128Y-109746666D01*
X104037770Y-109749500D01*
X93462230Y-109749500D01*
X93395191Y-109729815D01*
X93374549Y-109713181D01*
X93013333Y-109351965D01*
X92979848Y-109290642D01*
X92984832Y-109220950D01*
X92987150Y-109215181D01*
X93104370Y-108943526D01*
X93112374Y-108923852D01*
X93112724Y-108922937D01*
X93124183Y-108884654D01*
X93128405Y-108872786D01*
X93135044Y-108856762D01*
X93150500Y-108739361D01*
X93150500Y-107766503D01*
X93150500Y-107651459D01*
X93150500Y-107641470D01*
X93150499Y-107641456D01*
X93150499Y-106760636D01*
X93135046Y-106643246D01*
X93135044Y-106643239D01*
X93135044Y-106643238D01*
X93074536Y-106497159D01*
X92978282Y-106371718D01*
X92852841Y-106275464D01*
X92825693Y-106264219D01*
X92706762Y-106214956D01*
X92706760Y-106214955D01*
X92589361Y-106199500D01*
X91710636Y-106199500D01*
X91593246Y-106214953D01*
X91593237Y-106214956D01*
X91447160Y-106275463D01*
X91321718Y-106371718D01*
X91225463Y-106497160D01*
X91164956Y-106643237D01*
X91162853Y-106651088D01*
X91161196Y-106650644D01*
X91136899Y-106705576D01*
X91078577Y-106744051D01*
X91042222Y-106749500D01*
X90401457Y-106749500D01*
X90208170Y-106787947D01*
X90208160Y-106787950D01*
X90021564Y-106865240D01*
X89952095Y-106872709D01*
X89889616Y-106841433D01*
X89853964Y-106781344D01*
X89851306Y-106764626D01*
X89851029Y-106764663D01*
X89835046Y-106643246D01*
X89835044Y-106643239D01*
X89835044Y-106643238D01*
X89774536Y-106497159D01*
X89678282Y-106371718D01*
X89552841Y-106275464D01*
X89525693Y-106264219D01*
X89406762Y-106214956D01*
X89406760Y-106214955D01*
X89289361Y-106199500D01*
X88410636Y-106199500D01*
X88293246Y-106214953D01*
X88293237Y-106214956D01*
X88147160Y-106275463D01*
X88021718Y-106371718D01*
X87925463Y-106497160D01*
X87864956Y-106643237D01*
X87864955Y-106643239D01*
X87849501Y-106760629D01*
X87849501Y-106760636D01*
X87849500Y-106760645D01*
X87849500Y-108739362D01*
X87857403Y-108799393D01*
X87857908Y-108803227D01*
X87858006Y-108804653D01*
X87858181Y-108805301D01*
X87858709Y-108809312D01*
X87864956Y-108856765D01*
X87882627Y-108899426D01*
X87887751Y-108914450D01*
X87895628Y-108943525D01*
X87895629Y-108943527D01*
X88074278Y-109357546D01*
X88089353Y-109392481D01*
X88099500Y-109441609D01*
X88099500Y-121023918D01*
X88099500Y-121023920D01*
X88099499Y-121023920D01*
X88128340Y-121168907D01*
X88128343Y-121168917D01*
X88184914Y-121305492D01*
X88217812Y-121354727D01*
X88217813Y-121354730D01*
X88267046Y-121428414D01*
X88267052Y-121428421D01*
X89326950Y-122488319D01*
X89360435Y-122549642D01*
X89355451Y-122619334D01*
X89313579Y-122675267D01*
X89248115Y-122699684D01*
X89239269Y-122700000D01*
X89100000Y-122700000D01*
X89100000Y-124000000D01*
X89849999Y-124000000D01*
X89849999Y-123310729D01*
X89869684Y-123243690D01*
X89922488Y-123197935D01*
X89991646Y-123187991D01*
X90055202Y-123217016D01*
X90061680Y-123223048D01*
X90696821Y-123858189D01*
X90715469Y-123882072D01*
X91131829Y-124576003D01*
X91149500Y-124639801D01*
X91149500Y-125239363D01*
X91164953Y-125356753D01*
X91164956Y-125356762D01*
X91221634Y-125493596D01*
X91225464Y-125502841D01*
X91321718Y-125628282D01*
X91447159Y-125724536D01*
X91593238Y-125785044D01*
X91710639Y-125800500D01*
X92589360Y-125800499D01*
X92589363Y-125800499D01*
X92706753Y-125785046D01*
X92706757Y-125785044D01*
X92706762Y-125785044D01*
X92852841Y-125724536D01*
X92978282Y-125628282D01*
X93074536Y-125502841D01*
X93135044Y-125356762D01*
X93150500Y-125239361D01*
X93150500Y-125047844D01*
X98500000Y-125047844D01*
X98506401Y-125107372D01*
X98506403Y-125107379D01*
X98556645Y-125242086D01*
X98556649Y-125242093D01*
X98642809Y-125357187D01*
X98642812Y-125357190D01*
X98757906Y-125443350D01*
X98757913Y-125443354D01*
X98892620Y-125493596D01*
X98892627Y-125493598D01*
X98952155Y-125499999D01*
X98952172Y-125500000D01*
X99750000Y-125500000D01*
X100250000Y-125500000D01*
X101047828Y-125500000D01*
X101047844Y-125499999D01*
X101107372Y-125493598D01*
X101107379Y-125493596D01*
X101242086Y-125443354D01*
X101242093Y-125443350D01*
X101357187Y-125357190D01*
X101357190Y-125357187D01*
X101443350Y-125242093D01*
X101443354Y-125242086D01*
X101444384Y-125239324D01*
X106850001Y-125239324D01*
X106865442Y-125356628D01*
X106865444Y-125356633D01*
X106925899Y-125502585D01*
X107022075Y-125627924D01*
X107147413Y-125724100D01*
X107293365Y-125784554D01*
X107293369Y-125784555D01*
X107410676Y-125799999D01*
X107599999Y-125799999D01*
X108100000Y-125799999D01*
X108289324Y-125799999D01*
X108406628Y-125784557D01*
X108406633Y-125784555D01*
X108552585Y-125724100D01*
X108677924Y-125627924D01*
X108774100Y-125502586D01*
X108834554Y-125356634D01*
X108834555Y-125356630D01*
X108849999Y-125239330D01*
X108850000Y-125239316D01*
X108850000Y-124500000D01*
X108100000Y-124500000D01*
X108100000Y-125799999D01*
X107599999Y-125799999D01*
X107600000Y-125799998D01*
X107600000Y-124500000D01*
X106850001Y-124500000D01*
X106850001Y-125239324D01*
X101444384Y-125239324D01*
X101493596Y-125107379D01*
X101493598Y-125107372D01*
X101499999Y-125047844D01*
X101500000Y-125047827D01*
X101500000Y-124250000D01*
X100250000Y-124250000D01*
X100250000Y-125500000D01*
X99750000Y-125500000D01*
X99750000Y-124250000D01*
X98500000Y-124250000D01*
X98500000Y-125047844D01*
X93150500Y-125047844D01*
X93150499Y-123260640D01*
X93150499Y-123260639D01*
X93150499Y-123260636D01*
X93135046Y-123143246D01*
X93135044Y-123143239D01*
X93135044Y-123143238D01*
X93074536Y-122997159D01*
X93040003Y-122952155D01*
X98500000Y-122952155D01*
X98500000Y-123750000D01*
X99750000Y-123750000D01*
X100250000Y-123750000D01*
X101500000Y-123750000D01*
X101500000Y-123260669D01*
X106850000Y-123260669D01*
X106850000Y-124000000D01*
X107600000Y-124000000D01*
X108100000Y-124000000D01*
X108849999Y-124000000D01*
X108849999Y-123260675D01*
X108834557Y-123143371D01*
X108834555Y-123143366D01*
X108774100Y-122997414D01*
X108677924Y-122872075D01*
X108552586Y-122775899D01*
X108406634Y-122715445D01*
X108406630Y-122715444D01*
X108289330Y-122700000D01*
X108100000Y-122700000D01*
X108100000Y-124000000D01*
X107600000Y-124000000D01*
X107600000Y-122700000D01*
X107410675Y-122700000D01*
X107293371Y-122715442D01*
X107293366Y-122715444D01*
X107147414Y-122775899D01*
X107022075Y-122872075D01*
X106925899Y-122997413D01*
X106865445Y-123143365D01*
X106865444Y-123143369D01*
X106850000Y-123260669D01*
X101500000Y-123260669D01*
X101500000Y-122952172D01*
X101499999Y-122952155D01*
X101493598Y-122892627D01*
X101493596Y-122892620D01*
X101443354Y-122757913D01*
X101443350Y-122757906D01*
X101357190Y-122642812D01*
X101357187Y-122642809D01*
X101242093Y-122556649D01*
X101242086Y-122556645D01*
X101107379Y-122506403D01*
X101107372Y-122506401D01*
X101047844Y-122500000D01*
X100250000Y-122500000D01*
X100250000Y-123750000D01*
X99750000Y-123750000D01*
X99750000Y-122500000D01*
X98952155Y-122500000D01*
X98892627Y-122506401D01*
X98892620Y-122506403D01*
X98757913Y-122556645D01*
X98757906Y-122556649D01*
X98642812Y-122642809D01*
X98642809Y-122642812D01*
X98556649Y-122757906D01*
X98556645Y-122757913D01*
X98506403Y-122892620D01*
X98506401Y-122892627D01*
X98500000Y-122952155D01*
X93040003Y-122952155D01*
X92978282Y-122871718D01*
X92852841Y-122775464D01*
X92810452Y-122757906D01*
X92706762Y-122714956D01*
X92706760Y-122714955D01*
X92589370Y-122699501D01*
X92589367Y-122699500D01*
X92589361Y-122699500D01*
X92589354Y-122699500D01*
X91753217Y-122699500D01*
X91744488Y-122699192D01*
X91744317Y-122699179D01*
X91744311Y-122699179D01*
X91744268Y-122699176D01*
X91743963Y-122699154D01*
X91705501Y-122696387D01*
X91705121Y-122696413D01*
X91700389Y-122696080D01*
X91671511Y-122685340D01*
X91641958Y-122676626D01*
X91636725Y-122672404D01*
X91634902Y-122671726D01*
X91633395Y-122669717D01*
X91621437Y-122660069D01*
X89636819Y-120675451D01*
X89603334Y-120614128D01*
X89600500Y-120587770D01*
X89600500Y-109441606D01*
X89610647Y-109392479D01*
X89625720Y-109357547D01*
X89804370Y-108943526D01*
X89812374Y-108923852D01*
X89812724Y-108922937D01*
X89825992Y-108878613D01*
X89835044Y-108856762D01*
X89850500Y-108739361D01*
X89850499Y-108735993D01*
X89852122Y-108727092D01*
X89864740Y-108701991D01*
X89874399Y-108675611D01*
X89880222Y-108671196D01*
X89883505Y-108664667D01*
X89907691Y-108650373D01*
X89930079Y-108633403D01*
X89937365Y-108632837D01*
X89943656Y-108629120D01*
X89971728Y-108630171D01*
X89999739Y-108627998D01*
X90011570Y-108631663D01*
X90013477Y-108631735D01*
X90014818Y-108632669D01*
X90021565Y-108634760D01*
X90208160Y-108712049D01*
X90208165Y-108712051D01*
X90208169Y-108712051D01*
X90208170Y-108712052D01*
X90401456Y-108750500D01*
X90401459Y-108750500D01*
X91042222Y-108750500D01*
X91109261Y-108770185D01*
X91155016Y-108822989D01*
X91159001Y-108832802D01*
X91163437Y-108845226D01*
X91164956Y-108856762D01*
X91183807Y-108902275D01*
X91184845Y-108905180D01*
X91184896Y-108906081D01*
X91187751Y-108914450D01*
X91195628Y-108943525D01*
X91195629Y-108943527D01*
X91374278Y-109357546D01*
X91389353Y-109392481D01*
X91399500Y-109441609D01*
X91399500Y-109623918D01*
X91399500Y-109623920D01*
X91399499Y-109623920D01*
X91428340Y-109768907D01*
X91428343Y-109768917D01*
X91484914Y-109905492D01*
X91517812Y-109954727D01*
X91517813Y-109954730D01*
X91567046Y-110028414D01*
X91567052Y-110028421D01*
X92621584Y-111082952D01*
X92621586Y-111082954D01*
X92651058Y-111102645D01*
X92695270Y-111132186D01*
X92744505Y-111165084D01*
X92744506Y-111165084D01*
X92744507Y-111165085D01*
X92744509Y-111165086D01*
X92881082Y-111221656D01*
X92881087Y-111221658D01*
X92881091Y-111221658D01*
X92881092Y-111221659D01*
X93026079Y-111250500D01*
X93026082Y-111250500D01*
X104473920Y-111250500D01*
X104571462Y-111231096D01*
X104618913Y-111221658D01*
X104755495Y-111165084D01*
X104804729Y-111132186D01*
X104804734Y-111132183D01*
X104829071Y-111115921D01*
X104878416Y-111082952D01*
X105880952Y-110080416D01*
X105930186Y-110006729D01*
X105963084Y-109957495D01*
X106019658Y-109820913D01*
X106048500Y-109675918D01*
X106048500Y-108714610D01*
X106068185Y-108647571D01*
X106073228Y-108640641D01*
X106075136Y-108637784D01*
X106075139Y-108637782D01*
X106184632Y-108473914D01*
X106260051Y-108291835D01*
X106298500Y-108098541D01*
X106298500Y-107367782D01*
X106318185Y-107300743D01*
X106334819Y-107280101D01*
X106550138Y-107064782D01*
X106637820Y-106977100D01*
X106699142Y-106943616D01*
X106768834Y-106948600D01*
X106824767Y-106990472D01*
X106849184Y-107055936D01*
X106849500Y-107064782D01*
X106849500Y-108739363D01*
X106864953Y-108856753D01*
X106864956Y-108856762D01*
X106900886Y-108943506D01*
X106925464Y-109002841D01*
X107021718Y-109128282D01*
X107147159Y-109224536D01*
X107293238Y-109285044D01*
X107410639Y-109300500D01*
X108246793Y-109300499D01*
X108255521Y-109300807D01*
X108255693Y-109300819D01*
X108255695Y-109300819D01*
X108294500Y-109303612D01*
X108294884Y-109303584D01*
X108299608Y-109303918D01*
X108328423Y-109314634D01*
X108357919Y-109323295D01*
X108363237Y-109327580D01*
X108365096Y-109328272D01*
X108366625Y-109330310D01*
X108378561Y-109339929D01*
X110363181Y-111324549D01*
X110396666Y-111385872D01*
X110399500Y-111412230D01*
X110399500Y-122558389D01*
X110389353Y-122607516D01*
X110195638Y-123056450D01*
X110187625Y-123076144D01*
X110187275Y-123077061D01*
X110187271Y-123077072D01*
X110175811Y-123115350D01*
X110171586Y-123127227D01*
X110164958Y-123143231D01*
X110164956Y-123143236D01*
X110164956Y-123143238D01*
X110163238Y-123156282D01*
X110149500Y-123260631D01*
X110149500Y-125239363D01*
X110164953Y-125356753D01*
X110164956Y-125356762D01*
X110221634Y-125493596D01*
X110225464Y-125502841D01*
X110321718Y-125628282D01*
X110447159Y-125724536D01*
X110593238Y-125785044D01*
X110710639Y-125800500D01*
X111589360Y-125800499D01*
X111589363Y-125800499D01*
X111706753Y-125785046D01*
X111706756Y-125785044D01*
X111706762Y-125785044D01*
X111828050Y-125734804D01*
X111897516Y-125727336D01*
X111959995Y-125758611D01*
X111995648Y-125818699D01*
X111999500Y-125849366D01*
X111999500Y-127911729D01*
X111992127Y-127936835D01*
X111988516Y-127962752D01*
X111982441Y-127969824D01*
X111979815Y-127978768D01*
X111960041Y-127995902D01*
X111942990Y-128015753D01*
X111934056Y-128018418D01*
X111927011Y-128024523D01*
X111901111Y-128028247D01*
X111876036Y-128035728D01*
X111867080Y-128033140D01*
X111857853Y-128034467D01*
X111834049Y-128023596D01*
X111808912Y-128016333D01*
X111800824Y-128008423D01*
X111794297Y-128005442D01*
X111782139Y-127993336D01*
X111776854Y-127987290D01*
X111732951Y-127921584D01*
X111628416Y-127817049D01*
X111529989Y-127718622D01*
X111228421Y-127417052D01*
X111228414Y-127417046D01*
X111154729Y-127367812D01*
X111154729Y-127367813D01*
X111105491Y-127334913D01*
X110968917Y-127278343D01*
X110968907Y-127278340D01*
X110823920Y-127249500D01*
X110823918Y-127249500D01*
X107126082Y-127249500D01*
X107126080Y-127249500D01*
X106981092Y-127278340D01*
X106981086Y-127278342D01*
X106844508Y-127334914D01*
X106844496Y-127334921D01*
X106795269Y-127367813D01*
X106721588Y-127417044D01*
X106721580Y-127417050D01*
X103174451Y-130964181D01*
X103113128Y-130997666D01*
X103086770Y-131000500D01*
X101624500Y-131000500D01*
X101557461Y-130980815D01*
X101511706Y-130928011D01*
X101500500Y-130876500D01*
X101500499Y-128952129D01*
X101500498Y-128952123D01*
X101500497Y-128952116D01*
X101494091Y-128892517D01*
X101486703Y-128872709D01*
X101476148Y-128844409D01*
X101472980Y-128835918D01*
X101472114Y-128831579D01*
X101469127Y-128823137D01*
X101460174Y-128801582D01*
X101443796Y-128757669D01*
X101390840Y-128686930D01*
X101387106Y-128681658D01*
X101368313Y-128653591D01*
X100632330Y-127835832D01*
X100620416Y-127810990D01*
X100605523Y-127787816D01*
X100603905Y-127776564D01*
X100602116Y-127772834D01*
X100600500Y-127752881D01*
X100600500Y-127718622D01*
X100607926Y-127676355D01*
X100701943Y-127417052D01*
X100758842Y-127260120D01*
X100760851Y-127254946D01*
X100769737Y-127233497D01*
X100771040Y-127226945D01*
X100774602Y-127213204D01*
X100776238Y-127208118D01*
X100776707Y-127206450D01*
X100793419Y-127116279D01*
X100793418Y-127116275D01*
X100794630Y-127109741D01*
X100795175Y-127105608D01*
X100798400Y-127089395D01*
X100800500Y-127078844D01*
X100800500Y-126921155D01*
X100800499Y-126921153D01*
X100769738Y-126766510D01*
X100769737Y-126766503D01*
X100769735Y-126766498D01*
X100709397Y-126620827D01*
X100709390Y-126620814D01*
X100621789Y-126489711D01*
X100621786Y-126489707D01*
X100510292Y-126378213D01*
X100510288Y-126378210D01*
X100379185Y-126290609D01*
X100379172Y-126290602D01*
X100233501Y-126230264D01*
X100233489Y-126230261D01*
X100078845Y-126199500D01*
X100078842Y-126199500D01*
X99921158Y-126199500D01*
X99921155Y-126199500D01*
X99766510Y-126230261D01*
X99766498Y-126230264D01*
X99620827Y-126290602D01*
X99620814Y-126290609D01*
X99489711Y-126378210D01*
X99489707Y-126378213D01*
X99378213Y-126489707D01*
X99378210Y-126489711D01*
X99290609Y-126620814D01*
X99290602Y-126620827D01*
X99230264Y-126766498D01*
X99230261Y-126766510D01*
X99199500Y-126921153D01*
X99199500Y-127078846D01*
X99230261Y-127233489D01*
X99230263Y-127233497D01*
X99239144Y-127254938D01*
X99241156Y-127260122D01*
X99298054Y-127417048D01*
X99392073Y-127676355D01*
X99392074Y-127676356D01*
X99392942Y-127681300D01*
X99394477Y-127683688D01*
X99399500Y-127718623D01*
X99399500Y-127752879D01*
X99379815Y-127819918D01*
X99367669Y-127835830D01*
X98631682Y-128653596D01*
X98605666Y-128684958D01*
X98605663Y-128684961D01*
X98595098Y-128703874D01*
X98595099Y-128703875D01*
X98591064Y-128711100D01*
X98556204Y-128757669D01*
X98538416Y-128805359D01*
X98535510Y-128810563D01*
X98532507Y-128818384D01*
X98532497Y-128818414D01*
X98530747Y-128824666D01*
X98527522Y-128834566D01*
X98505908Y-128892517D01*
X98499501Y-128952116D01*
X98499501Y-128952123D01*
X98499500Y-128952135D01*
X98499501Y-130876500D01*
X98479816Y-130943539D01*
X98427013Y-130989294D01*
X98375501Y-131000500D01*
X94513229Y-131000500D01*
X94446190Y-130980815D01*
X94425548Y-130964181D01*
X93603177Y-130141810D01*
X93584529Y-130117926D01*
X93168170Y-129423994D01*
X93150499Y-129360197D01*
X93150499Y-128760636D01*
X93135046Y-128643246D01*
X93135044Y-128643239D01*
X93135044Y-128643238D01*
X93074536Y-128497159D01*
X92978282Y-128371718D01*
X92852841Y-128275464D01*
X92706762Y-128214956D01*
X92706760Y-128214955D01*
X92589361Y-128199500D01*
X91710636Y-128199500D01*
X91593246Y-128214953D01*
X91593237Y-128214956D01*
X91447160Y-128275463D01*
X91321718Y-128371718D01*
X91225463Y-128497160D01*
X91164956Y-128643237D01*
X91162853Y-128651088D01*
X91161196Y-128650644D01*
X91136899Y-128705576D01*
X91078577Y-128744051D01*
X91042222Y-128749500D01*
X90401457Y-128749500D01*
X90208170Y-128787947D01*
X90208160Y-128787950D01*
X90021564Y-128865240D01*
X89952095Y-128872709D01*
X89889616Y-128841433D01*
X89853964Y-128781344D01*
X89851306Y-128764626D01*
X89851029Y-128764663D01*
X89835046Y-128643246D01*
X89835044Y-128643239D01*
X89835044Y-128643238D01*
X89774536Y-128497159D01*
X89678282Y-128371718D01*
X89552841Y-128275464D01*
X89406762Y-128214956D01*
X89406760Y-128214955D01*
X89289361Y-128199500D01*
X88410636Y-128199500D01*
X88293246Y-128214953D01*
X88293237Y-128214956D01*
X88147160Y-128275463D01*
X88021718Y-128371718D01*
X87925463Y-128497160D01*
X87864956Y-128643237D01*
X87864955Y-128643239D01*
X87849891Y-128757668D01*
X87849501Y-128760636D01*
X87849500Y-128760645D01*
X87849500Y-130739362D01*
X87857403Y-130799393D01*
X87857908Y-130803227D01*
X87858006Y-130804653D01*
X87858181Y-130805301D01*
X87858709Y-130809312D01*
X87864956Y-130856765D01*
X87882627Y-130899426D01*
X87887751Y-130914450D01*
X87895628Y-130943525D01*
X87895629Y-130943527D01*
X88049795Y-131300807D01*
X88089353Y-131392481D01*
X88099500Y-131441609D01*
X88099500Y-143023918D01*
X88099500Y-143023920D01*
X88099499Y-143023920D01*
X88128340Y-143168907D01*
X88128343Y-143168917D01*
X88184914Y-143305492D01*
X88217812Y-143354727D01*
X88217813Y-143354730D01*
X88267046Y-143428414D01*
X88267052Y-143428421D01*
X89326950Y-144488319D01*
X89360435Y-144549642D01*
X89355451Y-144619334D01*
X89313579Y-144675267D01*
X89248115Y-144699684D01*
X89239269Y-144700000D01*
X89100000Y-144700000D01*
X89100000Y-146000000D01*
X89849999Y-146000000D01*
X89849999Y-145310729D01*
X89869684Y-145243690D01*
X89922488Y-145197935D01*
X89991646Y-145187991D01*
X90055202Y-145217016D01*
X90061680Y-145223048D01*
X90696821Y-145858189D01*
X90715469Y-145882072D01*
X91131829Y-146576003D01*
X91149500Y-146639801D01*
X91149500Y-147239363D01*
X91164953Y-147356753D01*
X91164956Y-147356762D01*
X91221634Y-147493596D01*
X91225464Y-147502841D01*
X91321718Y-147628282D01*
X91447159Y-147724536D01*
X91593238Y-147785044D01*
X91710639Y-147800500D01*
X92589360Y-147800499D01*
X92589363Y-147800499D01*
X92706753Y-147785046D01*
X92706757Y-147785044D01*
X92706762Y-147785044D01*
X92852841Y-147724536D01*
X92978282Y-147628282D01*
X93074536Y-147502841D01*
X93135044Y-147356762D01*
X93150500Y-147239361D01*
X93150500Y-147047844D01*
X98500000Y-147047844D01*
X98506401Y-147107372D01*
X98506403Y-147107379D01*
X98556645Y-147242086D01*
X98556649Y-147242093D01*
X98642809Y-147357187D01*
X98642812Y-147357190D01*
X98757906Y-147443350D01*
X98757913Y-147443354D01*
X98892620Y-147493596D01*
X98892627Y-147493598D01*
X98952155Y-147499999D01*
X98952172Y-147500000D01*
X99750000Y-147500000D01*
X100250000Y-147500000D01*
X101047828Y-147500000D01*
X101047844Y-147499999D01*
X101107372Y-147493598D01*
X101107379Y-147493596D01*
X101242086Y-147443354D01*
X101242093Y-147443350D01*
X101357187Y-147357190D01*
X101357190Y-147357187D01*
X101443350Y-147242093D01*
X101443354Y-147242086D01*
X101444384Y-147239324D01*
X106850001Y-147239324D01*
X106865442Y-147356628D01*
X106865444Y-147356633D01*
X106925899Y-147502585D01*
X107022075Y-147627924D01*
X107147413Y-147724100D01*
X107293365Y-147784554D01*
X107293369Y-147784555D01*
X107410676Y-147799999D01*
X107599999Y-147799999D01*
X108100000Y-147799999D01*
X108289324Y-147799999D01*
X108406628Y-147784557D01*
X108406633Y-147784555D01*
X108552585Y-147724100D01*
X108677924Y-147627924D01*
X108774100Y-147502586D01*
X108834554Y-147356634D01*
X108834555Y-147356630D01*
X108849999Y-147239330D01*
X108850000Y-147239316D01*
X108850000Y-146500000D01*
X108100000Y-146500000D01*
X108100000Y-147799999D01*
X107599999Y-147799999D01*
X107600000Y-147799998D01*
X107600000Y-146500000D01*
X106850001Y-146500000D01*
X106850001Y-147239324D01*
X101444384Y-147239324D01*
X101493596Y-147107379D01*
X101493598Y-147107372D01*
X101499999Y-147047844D01*
X101500000Y-147047827D01*
X101500000Y-146250000D01*
X100250000Y-146250000D01*
X100250000Y-147500000D01*
X99750000Y-147500000D01*
X99750000Y-146250000D01*
X98500000Y-146250000D01*
X98500000Y-147047844D01*
X93150500Y-147047844D01*
X93150499Y-145260640D01*
X93150499Y-145260639D01*
X93150499Y-145260636D01*
X93135046Y-145143246D01*
X93135044Y-145143239D01*
X93135044Y-145143238D01*
X93074536Y-144997159D01*
X93040003Y-144952155D01*
X98500000Y-144952155D01*
X98500000Y-145750000D01*
X99750000Y-145750000D01*
X100250000Y-145750000D01*
X101500000Y-145750000D01*
X101500000Y-145260669D01*
X106850000Y-145260669D01*
X106850000Y-146000000D01*
X107600000Y-146000000D01*
X108100000Y-146000000D01*
X108849999Y-146000000D01*
X108849999Y-145260675D01*
X108834557Y-145143371D01*
X108834555Y-145143366D01*
X108774100Y-144997414D01*
X108677924Y-144872075D01*
X108552586Y-144775899D01*
X108406634Y-144715445D01*
X108406630Y-144715444D01*
X108289330Y-144700000D01*
X108100000Y-144700000D01*
X108100000Y-146000000D01*
X107600000Y-146000000D01*
X107600000Y-144700000D01*
X107410675Y-144700000D01*
X107293371Y-144715442D01*
X107293366Y-144715444D01*
X107147414Y-144775899D01*
X107022075Y-144872075D01*
X106925899Y-144997413D01*
X106865445Y-145143365D01*
X106865444Y-145143369D01*
X106850000Y-145260669D01*
X101500000Y-145260669D01*
X101500000Y-144952172D01*
X101499999Y-144952155D01*
X101493598Y-144892627D01*
X101493596Y-144892620D01*
X101443354Y-144757913D01*
X101443350Y-144757906D01*
X101357190Y-144642812D01*
X101357187Y-144642809D01*
X101242093Y-144556649D01*
X101242086Y-144556645D01*
X101107379Y-144506403D01*
X101107372Y-144506401D01*
X101047844Y-144500000D01*
X100250000Y-144500000D01*
X100250000Y-145750000D01*
X99750000Y-145750000D01*
X99750000Y-144500000D01*
X98952155Y-144500000D01*
X98892627Y-144506401D01*
X98892620Y-144506403D01*
X98757913Y-144556645D01*
X98757906Y-144556649D01*
X98642812Y-144642809D01*
X98642809Y-144642812D01*
X98556649Y-144757906D01*
X98556645Y-144757913D01*
X98506403Y-144892620D01*
X98506401Y-144892627D01*
X98500000Y-144952155D01*
X93040003Y-144952155D01*
X92978282Y-144871718D01*
X92852841Y-144775464D01*
X92810452Y-144757906D01*
X92706762Y-144714956D01*
X92706760Y-144714955D01*
X92589370Y-144699501D01*
X92589367Y-144699500D01*
X92589361Y-144699500D01*
X92589354Y-144699500D01*
X91753217Y-144699500D01*
X91744488Y-144699192D01*
X91744317Y-144699179D01*
X91744311Y-144699179D01*
X91744268Y-144699176D01*
X91743963Y-144699154D01*
X91705501Y-144696387D01*
X91705121Y-144696413D01*
X91700389Y-144696080D01*
X91671511Y-144685340D01*
X91641958Y-144676626D01*
X91636725Y-144672404D01*
X91634902Y-144671726D01*
X91633395Y-144669717D01*
X91621437Y-144660069D01*
X89636819Y-142675451D01*
X89603334Y-142614128D01*
X89600500Y-142587770D01*
X89600500Y-131441606D01*
X89610647Y-131392479D01*
X89650200Y-131300815D01*
X89804370Y-130943526D01*
X89812374Y-130923852D01*
X89812724Y-130922937D01*
X89825992Y-130878613D01*
X89835044Y-130856762D01*
X89850500Y-130739361D01*
X89850499Y-130735993D01*
X89852122Y-130727092D01*
X89864740Y-130701991D01*
X89874399Y-130675611D01*
X89880222Y-130671196D01*
X89883505Y-130664667D01*
X89907691Y-130650373D01*
X89930079Y-130633403D01*
X89937365Y-130632837D01*
X89943656Y-130629120D01*
X89971728Y-130630171D01*
X89999739Y-130627998D01*
X90011570Y-130631663D01*
X90013477Y-130631735D01*
X90014818Y-130632669D01*
X90021565Y-130634760D01*
X90208160Y-130712049D01*
X90208165Y-130712051D01*
X90208169Y-130712051D01*
X90208170Y-130712052D01*
X90401456Y-130750500D01*
X90401459Y-130750500D01*
X91042222Y-130750500D01*
X91109261Y-130770185D01*
X91155016Y-130822989D01*
X91162487Y-130849009D01*
X91162853Y-130848912D01*
X91164956Y-130856762D01*
X91219852Y-130989294D01*
X91225464Y-131002841D01*
X91321718Y-131128282D01*
X91447159Y-131224536D01*
X91593238Y-131285044D01*
X91710639Y-131300500D01*
X92546793Y-131300499D01*
X92555521Y-131300807D01*
X92555693Y-131300819D01*
X92555695Y-131300819D01*
X92594500Y-131303612D01*
X92594884Y-131303584D01*
X92599609Y-131303918D01*
X92628424Y-131314634D01*
X92657920Y-131323295D01*
X92663238Y-131327580D01*
X92665097Y-131328272D01*
X92666626Y-131330310D01*
X92678562Y-131339929D01*
X93568048Y-132229415D01*
X93568049Y-132229416D01*
X93672583Y-132333950D01*
X93672585Y-132333952D01*
X93795498Y-132416080D01*
X93795511Y-132416087D01*
X93932082Y-132472656D01*
X93932087Y-132472658D01*
X93932091Y-132472658D01*
X93932092Y-132472659D01*
X94077079Y-132501500D01*
X94077082Y-132501500D01*
X103522920Y-132501500D01*
X103620462Y-132482096D01*
X103667913Y-132472658D01*
X103804495Y-132416084D01*
X103853729Y-132383186D01*
X103927416Y-132333952D01*
X106637821Y-129623545D01*
X106699142Y-129590062D01*
X106768834Y-129595046D01*
X106824767Y-129636918D01*
X106849184Y-129702382D01*
X106849500Y-129711228D01*
X106849500Y-130739363D01*
X106864953Y-130856753D01*
X106864956Y-130856762D01*
X106919852Y-130989294D01*
X106925464Y-131002841D01*
X107021718Y-131128282D01*
X107147159Y-131224536D01*
X107293238Y-131285044D01*
X107410639Y-131300500D01*
X108246793Y-131300499D01*
X108255521Y-131300807D01*
X108255693Y-131300819D01*
X108255695Y-131300819D01*
X108294500Y-131303612D01*
X108294884Y-131303584D01*
X108299608Y-131303918D01*
X108328423Y-131314634D01*
X108357919Y-131323295D01*
X108363237Y-131327580D01*
X108365096Y-131328272D01*
X108366625Y-131330310D01*
X108378561Y-131339929D01*
X110363181Y-133324549D01*
X110396666Y-133385872D01*
X110399500Y-133412230D01*
X110399500Y-144558389D01*
X110389353Y-144607516D01*
X110195638Y-145056450D01*
X110187625Y-145076144D01*
X110187275Y-145077061D01*
X110187271Y-145077072D01*
X110175811Y-145115350D01*
X110171586Y-145127227D01*
X110164958Y-145143231D01*
X110164956Y-145143236D01*
X110164956Y-145143238D01*
X110163238Y-145156282D01*
X110149500Y-145260631D01*
X110149500Y-147239363D01*
X110164953Y-147356753D01*
X110164956Y-147356762D01*
X110221634Y-147493596D01*
X110225464Y-147502841D01*
X110321718Y-147628282D01*
X110447159Y-147724536D01*
X110593238Y-147785044D01*
X110710639Y-147800500D01*
X111589360Y-147800499D01*
X111589363Y-147800499D01*
X111706753Y-147785046D01*
X111706756Y-147785044D01*
X111706762Y-147785044D01*
X111828050Y-147734804D01*
X111897516Y-147727336D01*
X111959995Y-147758611D01*
X111995648Y-147818699D01*
X111999500Y-147849366D01*
X111999500Y-149911729D01*
X111992127Y-149936835D01*
X111988516Y-149962752D01*
X111982441Y-149969824D01*
X111979815Y-149978768D01*
X111960041Y-149995902D01*
X111942990Y-150015753D01*
X111934056Y-150018418D01*
X111927011Y-150024523D01*
X111901111Y-150028247D01*
X111876036Y-150035728D01*
X111867080Y-150033140D01*
X111857853Y-150034467D01*
X111834049Y-150023596D01*
X111808912Y-150016333D01*
X111800824Y-150008423D01*
X111794297Y-150005442D01*
X111782139Y-149993336D01*
X111776854Y-149987290D01*
X111732951Y-149921584D01*
X111628416Y-149817049D01*
X111529989Y-149718622D01*
X111228421Y-149417052D01*
X111228414Y-149417046D01*
X111154729Y-149367812D01*
X111154729Y-149367813D01*
X111105491Y-149334913D01*
X110968917Y-149278343D01*
X110968907Y-149278340D01*
X110823920Y-149249500D01*
X110823918Y-149249500D01*
X106926082Y-149249500D01*
X106926080Y-149249500D01*
X106781092Y-149278340D01*
X106781086Y-149278342D01*
X106644508Y-149334914D01*
X106644496Y-149334921D01*
X106595269Y-149367813D01*
X106521588Y-149417044D01*
X106521580Y-149417050D01*
X102974451Y-152964181D01*
X102913128Y-152997666D01*
X102886770Y-153000500D01*
X101624500Y-153000500D01*
X101557461Y-152980815D01*
X101511706Y-152928011D01*
X101500500Y-152876500D01*
X101500499Y-150952129D01*
X101500498Y-150952123D01*
X101500497Y-150952116D01*
X101494091Y-150892517D01*
X101486703Y-150872709D01*
X101476148Y-150844409D01*
X101472980Y-150835918D01*
X101472114Y-150831579D01*
X101469127Y-150823137D01*
X101460174Y-150801582D01*
X101443796Y-150757669D01*
X101390840Y-150686930D01*
X101387106Y-150681658D01*
X101368313Y-150653591D01*
X100632330Y-149835832D01*
X100620416Y-149810990D01*
X100605523Y-149787816D01*
X100603905Y-149776564D01*
X100602116Y-149772834D01*
X100600500Y-149752881D01*
X100600500Y-149718622D01*
X100607926Y-149676355D01*
X100701943Y-149417052D01*
X100758842Y-149260120D01*
X100760851Y-149254946D01*
X100769737Y-149233497D01*
X100771040Y-149226945D01*
X100774602Y-149213204D01*
X100776238Y-149208118D01*
X100776707Y-149206450D01*
X100793419Y-149116279D01*
X100793418Y-149116275D01*
X100794630Y-149109741D01*
X100795175Y-149105608D01*
X100798400Y-149089395D01*
X100800500Y-149078844D01*
X100800500Y-148921155D01*
X100800499Y-148921153D01*
X100769738Y-148766510D01*
X100769737Y-148766503D01*
X100769735Y-148766498D01*
X100709397Y-148620827D01*
X100709390Y-148620814D01*
X100621789Y-148489711D01*
X100621786Y-148489707D01*
X100510292Y-148378213D01*
X100510288Y-148378210D01*
X100379185Y-148290609D01*
X100379172Y-148290602D01*
X100233501Y-148230264D01*
X100233489Y-148230261D01*
X100078845Y-148199500D01*
X100078842Y-148199500D01*
X99921158Y-148199500D01*
X99921155Y-148199500D01*
X99766510Y-148230261D01*
X99766498Y-148230264D01*
X99620827Y-148290602D01*
X99620814Y-148290609D01*
X99489711Y-148378210D01*
X99489707Y-148378213D01*
X99378213Y-148489707D01*
X99378210Y-148489711D01*
X99290609Y-148620814D01*
X99290602Y-148620827D01*
X99230264Y-148766498D01*
X99230261Y-148766510D01*
X99199500Y-148921153D01*
X99199500Y-149078846D01*
X99230261Y-149233489D01*
X99230263Y-149233497D01*
X99239144Y-149254938D01*
X99241156Y-149260122D01*
X99298054Y-149417048D01*
X99392073Y-149676355D01*
X99392074Y-149676356D01*
X99392942Y-149681300D01*
X99394477Y-149683688D01*
X99399500Y-149718623D01*
X99399500Y-149752879D01*
X99379815Y-149819918D01*
X99367669Y-149835830D01*
X98631682Y-150653596D01*
X98605666Y-150684958D01*
X98605663Y-150684961D01*
X98595098Y-150703874D01*
X98595099Y-150703875D01*
X98591064Y-150711100D01*
X98556204Y-150757669D01*
X98538416Y-150805359D01*
X98535510Y-150810563D01*
X98532507Y-150818384D01*
X98532497Y-150818414D01*
X98530747Y-150824666D01*
X98527522Y-150834566D01*
X98505908Y-150892517D01*
X98499501Y-150952116D01*
X98499501Y-150952123D01*
X98499500Y-150952135D01*
X98499501Y-152876500D01*
X98479816Y-152943539D01*
X98427013Y-152989294D01*
X98375501Y-153000500D01*
X94513229Y-153000500D01*
X94446190Y-152980815D01*
X94425548Y-152964181D01*
X93603177Y-152141810D01*
X93584529Y-152117926D01*
X93168170Y-151423994D01*
X93150499Y-151360197D01*
X93150499Y-150760636D01*
X93135046Y-150643246D01*
X93135044Y-150643239D01*
X93135044Y-150643238D01*
X93074536Y-150497159D01*
X92978282Y-150371718D01*
X92852841Y-150275464D01*
X92706762Y-150214956D01*
X92706760Y-150214955D01*
X92589361Y-150199500D01*
X91710636Y-150199500D01*
X91593246Y-150214953D01*
X91593237Y-150214956D01*
X91447160Y-150275463D01*
X91321718Y-150371718D01*
X91225463Y-150497160D01*
X91164956Y-150643237D01*
X91162853Y-150651088D01*
X91161196Y-150650644D01*
X91136899Y-150705576D01*
X91078577Y-150744051D01*
X91042222Y-150749500D01*
X90401457Y-150749500D01*
X90208170Y-150787947D01*
X90208160Y-150787950D01*
X90021564Y-150865240D01*
X89952095Y-150872709D01*
X89889616Y-150841433D01*
X89853964Y-150781344D01*
X89851306Y-150764626D01*
X89851029Y-150764663D01*
X89835046Y-150643246D01*
X89835044Y-150643239D01*
X89835044Y-150643238D01*
X89774536Y-150497159D01*
X89678282Y-150371718D01*
X89552841Y-150275464D01*
X89406762Y-150214956D01*
X89406760Y-150214955D01*
X89289361Y-150199500D01*
X88410636Y-150199500D01*
X88293246Y-150214953D01*
X88293237Y-150214956D01*
X88147160Y-150275463D01*
X88021718Y-150371718D01*
X87925463Y-150497160D01*
X87864956Y-150643237D01*
X87864955Y-150643239D01*
X87849891Y-150757668D01*
X87849501Y-150760636D01*
X87849500Y-150760645D01*
X87849500Y-152739362D01*
X87857403Y-152799393D01*
X87857908Y-152803227D01*
X87858006Y-152804653D01*
X87858181Y-152805301D01*
X87858709Y-152809312D01*
X87864956Y-152856765D01*
X87882627Y-152899426D01*
X87887751Y-152914450D01*
X87895628Y-152943525D01*
X87895629Y-152943527D01*
X88049795Y-153300807D01*
X88089353Y-153392481D01*
X88099500Y-153441609D01*
X88099500Y-165023918D01*
X88099500Y-165023920D01*
X88099499Y-165023920D01*
X88128340Y-165168907D01*
X88128343Y-165168917D01*
X88184914Y-165305492D01*
X88217812Y-165354727D01*
X88217813Y-165354730D01*
X88267046Y-165428414D01*
X88267052Y-165428421D01*
X89326950Y-166488319D01*
X89360435Y-166549642D01*
X89355451Y-166619334D01*
X89313579Y-166675267D01*
X89248115Y-166699684D01*
X89239269Y-166700000D01*
X89100000Y-166700000D01*
X89100000Y-168000000D01*
X89849999Y-168000000D01*
X89849999Y-167310729D01*
X89869684Y-167243690D01*
X89922488Y-167197935D01*
X89991646Y-167187991D01*
X90055202Y-167217016D01*
X90061680Y-167223048D01*
X90696821Y-167858189D01*
X90715469Y-167882072D01*
X91131829Y-168576003D01*
X91149500Y-168639801D01*
X91149500Y-169239363D01*
X91164953Y-169356753D01*
X91164956Y-169356762D01*
X91221634Y-169493596D01*
X91225464Y-169502841D01*
X91321718Y-169628282D01*
X91447159Y-169724536D01*
X91593238Y-169785044D01*
X91710639Y-169800500D01*
X92589360Y-169800499D01*
X92589363Y-169800499D01*
X92706753Y-169785046D01*
X92706757Y-169785044D01*
X92706762Y-169785044D01*
X92852841Y-169724536D01*
X92978282Y-169628282D01*
X93074536Y-169502841D01*
X93135044Y-169356762D01*
X93150500Y-169239361D01*
X93150500Y-169047844D01*
X98500000Y-169047844D01*
X98506401Y-169107372D01*
X98506403Y-169107379D01*
X98556645Y-169242086D01*
X98556649Y-169242093D01*
X98642809Y-169357187D01*
X98642812Y-169357190D01*
X98757906Y-169443350D01*
X98757913Y-169443354D01*
X98892620Y-169493596D01*
X98892627Y-169493598D01*
X98952155Y-169499999D01*
X98952172Y-169500000D01*
X99750000Y-169500000D01*
X100250000Y-169500000D01*
X101047828Y-169500000D01*
X101047844Y-169499999D01*
X101107372Y-169493598D01*
X101107379Y-169493596D01*
X101242086Y-169443354D01*
X101242093Y-169443350D01*
X101357187Y-169357190D01*
X101357190Y-169357187D01*
X101443350Y-169242093D01*
X101443354Y-169242086D01*
X101444384Y-169239324D01*
X106850001Y-169239324D01*
X106865442Y-169356628D01*
X106865444Y-169356633D01*
X106925899Y-169502585D01*
X107022075Y-169627924D01*
X107147413Y-169724100D01*
X107293365Y-169784554D01*
X107293369Y-169784555D01*
X107410676Y-169799999D01*
X107599999Y-169799999D01*
X108100000Y-169799999D01*
X108289324Y-169799999D01*
X108406628Y-169784557D01*
X108406633Y-169784555D01*
X108552585Y-169724100D01*
X108677924Y-169627924D01*
X108774100Y-169502586D01*
X108834554Y-169356634D01*
X108834555Y-169356630D01*
X108849999Y-169239330D01*
X108850000Y-169239316D01*
X108850000Y-168500000D01*
X108100000Y-168500000D01*
X108100000Y-169799999D01*
X107599999Y-169799999D01*
X107600000Y-169799998D01*
X107600000Y-168500000D01*
X106850001Y-168500000D01*
X106850001Y-169239324D01*
X101444384Y-169239324D01*
X101493596Y-169107379D01*
X101493598Y-169107372D01*
X101499999Y-169047844D01*
X101500000Y-169047827D01*
X101500000Y-168250000D01*
X100250000Y-168250000D01*
X100250000Y-169500000D01*
X99750000Y-169500000D01*
X99750000Y-168250000D01*
X98500000Y-168250000D01*
X98500000Y-169047844D01*
X93150500Y-169047844D01*
X93150499Y-167260640D01*
X93150499Y-167260639D01*
X93150499Y-167260636D01*
X93135046Y-167143246D01*
X93135044Y-167143239D01*
X93135044Y-167143238D01*
X93074536Y-166997159D01*
X93040003Y-166952155D01*
X98500000Y-166952155D01*
X98500000Y-167750000D01*
X99750000Y-167750000D01*
X100250000Y-167750000D01*
X101500000Y-167750000D01*
X101500000Y-167260669D01*
X106850000Y-167260669D01*
X106850000Y-168000000D01*
X107600000Y-168000000D01*
X108100000Y-168000000D01*
X108849999Y-168000000D01*
X108849999Y-167260675D01*
X108834557Y-167143371D01*
X108834555Y-167143366D01*
X108774100Y-166997414D01*
X108677924Y-166872075D01*
X108552586Y-166775899D01*
X108406634Y-166715445D01*
X108406630Y-166715444D01*
X108289330Y-166700000D01*
X108100000Y-166700000D01*
X108100000Y-168000000D01*
X107600000Y-168000000D01*
X107600000Y-166700000D01*
X107410675Y-166700000D01*
X107293371Y-166715442D01*
X107293366Y-166715444D01*
X107147414Y-166775899D01*
X107022075Y-166872075D01*
X106925899Y-166997413D01*
X106865445Y-167143365D01*
X106865444Y-167143369D01*
X106850000Y-167260669D01*
X101500000Y-167260669D01*
X101500000Y-166952172D01*
X101499999Y-166952155D01*
X101493598Y-166892627D01*
X101493596Y-166892620D01*
X101443354Y-166757913D01*
X101443350Y-166757906D01*
X101357190Y-166642812D01*
X101357187Y-166642809D01*
X101242093Y-166556649D01*
X101242086Y-166556645D01*
X101107379Y-166506403D01*
X101107372Y-166506401D01*
X101047844Y-166500000D01*
X100250000Y-166500000D01*
X100250000Y-167750000D01*
X99750000Y-167750000D01*
X99750000Y-166500000D01*
X98952155Y-166500000D01*
X98892627Y-166506401D01*
X98892620Y-166506403D01*
X98757913Y-166556645D01*
X98757906Y-166556649D01*
X98642812Y-166642809D01*
X98642809Y-166642812D01*
X98556649Y-166757906D01*
X98556645Y-166757913D01*
X98506403Y-166892620D01*
X98506401Y-166892627D01*
X98500000Y-166952155D01*
X93040003Y-166952155D01*
X92978282Y-166871718D01*
X92852841Y-166775464D01*
X92810452Y-166757906D01*
X92706762Y-166714956D01*
X92706760Y-166714955D01*
X92589370Y-166699501D01*
X92589367Y-166699500D01*
X92589361Y-166699500D01*
X92589354Y-166699500D01*
X91753217Y-166699500D01*
X91744488Y-166699192D01*
X91744317Y-166699179D01*
X91744311Y-166699179D01*
X91744268Y-166699176D01*
X91743963Y-166699154D01*
X91705501Y-166696387D01*
X91705121Y-166696413D01*
X91700389Y-166696080D01*
X91671511Y-166685340D01*
X91641958Y-166676626D01*
X91636725Y-166672404D01*
X91634902Y-166671726D01*
X91633395Y-166669717D01*
X91621437Y-166660069D01*
X89636819Y-164675451D01*
X89603334Y-164614128D01*
X89600500Y-164587770D01*
X89600500Y-153441606D01*
X89610647Y-153392479D01*
X89650200Y-153300815D01*
X89804370Y-152943526D01*
X89812374Y-152923852D01*
X89812724Y-152922937D01*
X89825992Y-152878613D01*
X89835044Y-152856762D01*
X89850500Y-152739361D01*
X89850499Y-152735993D01*
X89852122Y-152727092D01*
X89864740Y-152701991D01*
X89874399Y-152675611D01*
X89880222Y-152671196D01*
X89883505Y-152664667D01*
X89907691Y-152650373D01*
X89930079Y-152633403D01*
X89937365Y-152632837D01*
X89943656Y-152629120D01*
X89971728Y-152630171D01*
X89999739Y-152627998D01*
X90011570Y-152631663D01*
X90013477Y-152631735D01*
X90014818Y-152632669D01*
X90021565Y-152634760D01*
X90208160Y-152712049D01*
X90208165Y-152712051D01*
X90208169Y-152712051D01*
X90208170Y-152712052D01*
X90401456Y-152750500D01*
X90401459Y-152750500D01*
X91042222Y-152750500D01*
X91109261Y-152770185D01*
X91155016Y-152822989D01*
X91162487Y-152849009D01*
X91162853Y-152848912D01*
X91164956Y-152856762D01*
X91219852Y-152989294D01*
X91225464Y-153002841D01*
X91321718Y-153128282D01*
X91447159Y-153224536D01*
X91593238Y-153285044D01*
X91710639Y-153300500D01*
X92546793Y-153300499D01*
X92555521Y-153300807D01*
X92555693Y-153300819D01*
X92555695Y-153300819D01*
X92594500Y-153303612D01*
X92594884Y-153303584D01*
X92599609Y-153303918D01*
X92628424Y-153314634D01*
X92657920Y-153323295D01*
X92663238Y-153327580D01*
X92665097Y-153328272D01*
X92666626Y-153330310D01*
X92678562Y-153339929D01*
X93672580Y-154333948D01*
X93672584Y-154333951D01*
X93795498Y-154416080D01*
X93795511Y-154416087D01*
X93932082Y-154472656D01*
X93932087Y-154472658D01*
X93932091Y-154472658D01*
X93932092Y-154472659D01*
X94077079Y-154501500D01*
X94077082Y-154501500D01*
X103322920Y-154501500D01*
X103420462Y-154482096D01*
X103467913Y-154472658D01*
X103604495Y-154416084D01*
X103653729Y-154383186D01*
X103727416Y-154333952D01*
X106637821Y-151423545D01*
X106699142Y-151390062D01*
X106768834Y-151395046D01*
X106824767Y-151436918D01*
X106849184Y-151502382D01*
X106849500Y-151511228D01*
X106849500Y-152739363D01*
X106864953Y-152856753D01*
X106864956Y-152856762D01*
X106919852Y-152989294D01*
X106925464Y-153002841D01*
X107021718Y-153128282D01*
X107147159Y-153224536D01*
X107293238Y-153285044D01*
X107410639Y-153300500D01*
X108246793Y-153300499D01*
X108255521Y-153300807D01*
X108255693Y-153300819D01*
X108255695Y-153300819D01*
X108294500Y-153303612D01*
X108294884Y-153303584D01*
X108299608Y-153303918D01*
X108328423Y-153314634D01*
X108357919Y-153323295D01*
X108363237Y-153327580D01*
X108365096Y-153328272D01*
X108366625Y-153330310D01*
X108378561Y-153339929D01*
X110363181Y-155324549D01*
X110396666Y-155385872D01*
X110399500Y-155412230D01*
X110399500Y-166558389D01*
X110389353Y-166607516D01*
X110195638Y-167056450D01*
X110187625Y-167076144D01*
X110187275Y-167077061D01*
X110187271Y-167077072D01*
X110175811Y-167115350D01*
X110171586Y-167127227D01*
X110164958Y-167143231D01*
X110164956Y-167143236D01*
X110164956Y-167143238D01*
X110163238Y-167156282D01*
X110149500Y-167260631D01*
X110149500Y-169239363D01*
X110164953Y-169356753D01*
X110164956Y-169356762D01*
X110221634Y-169493596D01*
X110225464Y-169502841D01*
X110321718Y-169628282D01*
X110447159Y-169724536D01*
X110593238Y-169785044D01*
X110710639Y-169800500D01*
X111589360Y-169800499D01*
X111589363Y-169800499D01*
X111706753Y-169785046D01*
X111706756Y-169785044D01*
X111706762Y-169785044D01*
X111828050Y-169734804D01*
X111897516Y-169727336D01*
X111959995Y-169758611D01*
X111995648Y-169818699D01*
X111999500Y-169849366D01*
X111999500Y-171911729D01*
X111992127Y-171936835D01*
X111988516Y-171962752D01*
X111982441Y-171969824D01*
X111979815Y-171978768D01*
X111960041Y-171995902D01*
X111942990Y-172015753D01*
X111934056Y-172018418D01*
X111927011Y-172024523D01*
X111901111Y-172028247D01*
X111876036Y-172035728D01*
X111867080Y-172033140D01*
X111857853Y-172034467D01*
X111834049Y-172023596D01*
X111808912Y-172016333D01*
X111800824Y-172008423D01*
X111794297Y-172005442D01*
X111782139Y-171993336D01*
X111776854Y-171987290D01*
X111732951Y-171921584D01*
X111628416Y-171817049D01*
X111529989Y-171718622D01*
X111228421Y-171417052D01*
X111228414Y-171417046D01*
X111154729Y-171367812D01*
X111154729Y-171367813D01*
X111105491Y-171334913D01*
X110968917Y-171278343D01*
X110968907Y-171278340D01*
X110823920Y-171249500D01*
X110823918Y-171249500D01*
X107126082Y-171249500D01*
X107126080Y-171249500D01*
X106981092Y-171278340D01*
X106981086Y-171278342D01*
X106844508Y-171334914D01*
X106844496Y-171334921D01*
X106795269Y-171367813D01*
X106721588Y-171417044D01*
X106721580Y-171417050D01*
X103174451Y-174964181D01*
X103113128Y-174997666D01*
X103086770Y-175000500D01*
X101624500Y-175000500D01*
X101557461Y-174980815D01*
X101511706Y-174928011D01*
X101500500Y-174876500D01*
X101500499Y-172952129D01*
X101500498Y-172952123D01*
X101500497Y-172952116D01*
X101494091Y-172892517D01*
X101486703Y-172872709D01*
X101476148Y-172844409D01*
X101472980Y-172835918D01*
X101472114Y-172831579D01*
X101469127Y-172823137D01*
X101460174Y-172801582D01*
X101443796Y-172757669D01*
X101390840Y-172686930D01*
X101387106Y-172681658D01*
X101368313Y-172653591D01*
X100632330Y-171835832D01*
X100620416Y-171810990D01*
X100605523Y-171787816D01*
X100603905Y-171776564D01*
X100602116Y-171772834D01*
X100600500Y-171752881D01*
X100600500Y-171718622D01*
X100607926Y-171676355D01*
X100701943Y-171417052D01*
X100758842Y-171260120D01*
X100760851Y-171254946D01*
X100769737Y-171233497D01*
X100771040Y-171226945D01*
X100774602Y-171213204D01*
X100776238Y-171208118D01*
X100776707Y-171206450D01*
X100793419Y-171116279D01*
X100793418Y-171116275D01*
X100794630Y-171109741D01*
X100795175Y-171105608D01*
X100798400Y-171089395D01*
X100800500Y-171078844D01*
X100800500Y-170921155D01*
X100800499Y-170921153D01*
X100769738Y-170766510D01*
X100769737Y-170766503D01*
X100769735Y-170766498D01*
X100709397Y-170620827D01*
X100709390Y-170620814D01*
X100621789Y-170489711D01*
X100621786Y-170489707D01*
X100510292Y-170378213D01*
X100510288Y-170378210D01*
X100379185Y-170290609D01*
X100379172Y-170290602D01*
X100233501Y-170230264D01*
X100233489Y-170230261D01*
X100078845Y-170199500D01*
X100078842Y-170199500D01*
X99921158Y-170199500D01*
X99921155Y-170199500D01*
X99766510Y-170230261D01*
X99766498Y-170230264D01*
X99620827Y-170290602D01*
X99620814Y-170290609D01*
X99489711Y-170378210D01*
X99489707Y-170378213D01*
X99378213Y-170489707D01*
X99378210Y-170489711D01*
X99290609Y-170620814D01*
X99290602Y-170620827D01*
X99230264Y-170766498D01*
X99230261Y-170766510D01*
X99199500Y-170921153D01*
X99199500Y-171078846D01*
X99230261Y-171233489D01*
X99230263Y-171233497D01*
X99239144Y-171254938D01*
X99241156Y-171260122D01*
X99298054Y-171417048D01*
X99392073Y-171676355D01*
X99392074Y-171676356D01*
X99392942Y-171681300D01*
X99394477Y-171683688D01*
X99399500Y-171718623D01*
X99399500Y-171752879D01*
X99379815Y-171819918D01*
X99367669Y-171835830D01*
X98631682Y-172653596D01*
X98605666Y-172684958D01*
X98605663Y-172684961D01*
X98595098Y-172703874D01*
X98595099Y-172703875D01*
X98591064Y-172711100D01*
X98556204Y-172757669D01*
X98538416Y-172805359D01*
X98535510Y-172810563D01*
X98532507Y-172818384D01*
X98532497Y-172818414D01*
X98530747Y-172824666D01*
X98527522Y-172834566D01*
X98505908Y-172892517D01*
X98499501Y-172952116D01*
X98499501Y-172952123D01*
X98499500Y-172952135D01*
X98499501Y-174876500D01*
X98479816Y-174943539D01*
X98427013Y-174989294D01*
X98375501Y-175000500D01*
X94513229Y-175000500D01*
X94446190Y-174980815D01*
X94425548Y-174964181D01*
X93603177Y-174141810D01*
X93584529Y-174117926D01*
X93168170Y-173423994D01*
X93150499Y-173360197D01*
X93150499Y-172760636D01*
X93135046Y-172643246D01*
X93135044Y-172643239D01*
X93135044Y-172643238D01*
X93074536Y-172497159D01*
X92978282Y-172371718D01*
X92852841Y-172275464D01*
X92706762Y-172214956D01*
X92706760Y-172214955D01*
X92589361Y-172199500D01*
X91710636Y-172199500D01*
X91593246Y-172214953D01*
X91593237Y-172214956D01*
X91447160Y-172275463D01*
X91321718Y-172371718D01*
X91225463Y-172497160D01*
X91164956Y-172643237D01*
X91162853Y-172651088D01*
X91161196Y-172650644D01*
X91136899Y-172705576D01*
X91078577Y-172744051D01*
X91042222Y-172749500D01*
X90401457Y-172749500D01*
X90208170Y-172787947D01*
X90208160Y-172787950D01*
X90021564Y-172865240D01*
X89952095Y-172872709D01*
X89889616Y-172841433D01*
X89853964Y-172781344D01*
X89851306Y-172764626D01*
X89851029Y-172764663D01*
X89835046Y-172643246D01*
X89835044Y-172643239D01*
X89835044Y-172643238D01*
X89774536Y-172497159D01*
X89678282Y-172371718D01*
X89552841Y-172275464D01*
X89406762Y-172214956D01*
X89406760Y-172214955D01*
X89289361Y-172199500D01*
X88410636Y-172199500D01*
X88293246Y-172214953D01*
X88293237Y-172214956D01*
X88147160Y-172275463D01*
X88021718Y-172371718D01*
X87925463Y-172497160D01*
X87864956Y-172643237D01*
X87864955Y-172643239D01*
X87849891Y-172757668D01*
X87849501Y-172760636D01*
X87849500Y-172760645D01*
X87849500Y-174739362D01*
X87857403Y-174799393D01*
X87857908Y-174803227D01*
X87858006Y-174804653D01*
X87858181Y-174805301D01*
X87858709Y-174809312D01*
X87864956Y-174856765D01*
X87882627Y-174899426D01*
X87887751Y-174914450D01*
X87895628Y-174943525D01*
X87895629Y-174943527D01*
X88049795Y-175300807D01*
X88089353Y-175392481D01*
X88099500Y-175441609D01*
X88099500Y-187023918D01*
X88099500Y-187023920D01*
X88099499Y-187023920D01*
X88128340Y-187168907D01*
X88128343Y-187168917D01*
X88184914Y-187305492D01*
X88217812Y-187354727D01*
X88217813Y-187354730D01*
X88267046Y-187428414D01*
X88267052Y-187428421D01*
X89326950Y-188488319D01*
X89360435Y-188549642D01*
X89355451Y-188619334D01*
X89313579Y-188675267D01*
X89248115Y-188699684D01*
X89239269Y-188700000D01*
X89100000Y-188700000D01*
X89100000Y-190000000D01*
X89849999Y-190000000D01*
X89849999Y-189310729D01*
X89869684Y-189243690D01*
X89922488Y-189197935D01*
X89991646Y-189187991D01*
X90055202Y-189217016D01*
X90061680Y-189223048D01*
X90696821Y-189858189D01*
X90715469Y-189882072D01*
X91131829Y-190576003D01*
X91149500Y-190639801D01*
X91149500Y-191239363D01*
X91164953Y-191356753D01*
X91164956Y-191356762D01*
X91221634Y-191493596D01*
X91225464Y-191502841D01*
X91321718Y-191628282D01*
X91447159Y-191724536D01*
X91593238Y-191785044D01*
X91710639Y-191800500D01*
X92589360Y-191800499D01*
X92589363Y-191800499D01*
X92706753Y-191785046D01*
X92706757Y-191785044D01*
X92706762Y-191785044D01*
X92852841Y-191724536D01*
X92978282Y-191628282D01*
X93074536Y-191502841D01*
X93135044Y-191356762D01*
X93150500Y-191239361D01*
X93150500Y-191047844D01*
X98500000Y-191047844D01*
X98506401Y-191107372D01*
X98506403Y-191107379D01*
X98556645Y-191242086D01*
X98556649Y-191242093D01*
X98642809Y-191357187D01*
X98642812Y-191357190D01*
X98757906Y-191443350D01*
X98757913Y-191443354D01*
X98892620Y-191493596D01*
X98892627Y-191493598D01*
X98952155Y-191499999D01*
X98952172Y-191500000D01*
X99750000Y-191500000D01*
X100250000Y-191500000D01*
X101047828Y-191500000D01*
X101047844Y-191499999D01*
X101107372Y-191493598D01*
X101107379Y-191493596D01*
X101242086Y-191443354D01*
X101242093Y-191443350D01*
X101357187Y-191357190D01*
X101357190Y-191357187D01*
X101443350Y-191242093D01*
X101443354Y-191242086D01*
X101444384Y-191239324D01*
X106850001Y-191239324D01*
X106865442Y-191356628D01*
X106865444Y-191356633D01*
X106925899Y-191502585D01*
X107022075Y-191627924D01*
X107147413Y-191724100D01*
X107293365Y-191784554D01*
X107293369Y-191784555D01*
X107410676Y-191799999D01*
X107599999Y-191799999D01*
X108100000Y-191799999D01*
X108289324Y-191799999D01*
X108406628Y-191784557D01*
X108406633Y-191784555D01*
X108552585Y-191724100D01*
X108677924Y-191627924D01*
X108774100Y-191502586D01*
X108834554Y-191356634D01*
X108834555Y-191356630D01*
X108849999Y-191239330D01*
X108850000Y-191239316D01*
X108850000Y-190500000D01*
X108100000Y-190500000D01*
X108100000Y-191799999D01*
X107599999Y-191799999D01*
X107600000Y-191799998D01*
X107600000Y-190500000D01*
X106850001Y-190500000D01*
X106850001Y-191239324D01*
X101444384Y-191239324D01*
X101493596Y-191107379D01*
X101493598Y-191107372D01*
X101499999Y-191047844D01*
X101500000Y-191047827D01*
X101500000Y-190250000D01*
X100250000Y-190250000D01*
X100250000Y-191500000D01*
X99750000Y-191500000D01*
X99750000Y-190250000D01*
X98500000Y-190250000D01*
X98500000Y-191047844D01*
X93150500Y-191047844D01*
X93150499Y-189260640D01*
X93150499Y-189260639D01*
X93150499Y-189260636D01*
X93135046Y-189143246D01*
X93135044Y-189143239D01*
X93135044Y-189143238D01*
X93074536Y-188997159D01*
X93040003Y-188952155D01*
X98500000Y-188952155D01*
X98500000Y-189750000D01*
X99750000Y-189750000D01*
X100250000Y-189750000D01*
X101500000Y-189750000D01*
X101500000Y-189260669D01*
X106850000Y-189260669D01*
X106850000Y-190000000D01*
X107600000Y-190000000D01*
X108100000Y-190000000D01*
X108849999Y-190000000D01*
X108849999Y-189260675D01*
X108834557Y-189143371D01*
X108834555Y-189143366D01*
X108774100Y-188997414D01*
X108677924Y-188872075D01*
X108552586Y-188775899D01*
X108406634Y-188715445D01*
X108406630Y-188715444D01*
X108289330Y-188700000D01*
X108100000Y-188700000D01*
X108100000Y-190000000D01*
X107600000Y-190000000D01*
X107600000Y-188700000D01*
X107410675Y-188700000D01*
X107293371Y-188715442D01*
X107293366Y-188715444D01*
X107147414Y-188775899D01*
X107022075Y-188872075D01*
X106925899Y-188997413D01*
X106865445Y-189143365D01*
X106865444Y-189143369D01*
X106850000Y-189260669D01*
X101500000Y-189260669D01*
X101500000Y-188952172D01*
X101499999Y-188952155D01*
X101493598Y-188892627D01*
X101493596Y-188892620D01*
X101443354Y-188757913D01*
X101443350Y-188757906D01*
X101357190Y-188642812D01*
X101357187Y-188642809D01*
X101242093Y-188556649D01*
X101242086Y-188556645D01*
X101107379Y-188506403D01*
X101107372Y-188506401D01*
X101047844Y-188500000D01*
X100250000Y-188500000D01*
X100250000Y-189750000D01*
X99750000Y-189750000D01*
X99750000Y-188500000D01*
X98952155Y-188500000D01*
X98892627Y-188506401D01*
X98892620Y-188506403D01*
X98757913Y-188556645D01*
X98757906Y-188556649D01*
X98642812Y-188642809D01*
X98642809Y-188642812D01*
X98556649Y-188757906D01*
X98556645Y-188757913D01*
X98506403Y-188892620D01*
X98506401Y-188892627D01*
X98500000Y-188952155D01*
X93040003Y-188952155D01*
X92978282Y-188871718D01*
X92852841Y-188775464D01*
X92810452Y-188757906D01*
X92706762Y-188714956D01*
X92706760Y-188714955D01*
X92589370Y-188699501D01*
X92589367Y-188699500D01*
X92589361Y-188699500D01*
X92589354Y-188699500D01*
X91753217Y-188699500D01*
X91744488Y-188699192D01*
X91744317Y-188699179D01*
X91744311Y-188699179D01*
X91744268Y-188699176D01*
X91743963Y-188699154D01*
X91705501Y-188696387D01*
X91705121Y-188696413D01*
X91700389Y-188696080D01*
X91671511Y-188685340D01*
X91641958Y-188676626D01*
X91636725Y-188672404D01*
X91634902Y-188671726D01*
X91633395Y-188669717D01*
X91621437Y-188660069D01*
X89636819Y-186675451D01*
X89603334Y-186614128D01*
X89600500Y-186587770D01*
X89600500Y-175441606D01*
X89610647Y-175392479D01*
X89650200Y-175300815D01*
X89804370Y-174943526D01*
X89812374Y-174923852D01*
X89812724Y-174922937D01*
X89825992Y-174878613D01*
X89835044Y-174856762D01*
X89850500Y-174739361D01*
X89850499Y-174735993D01*
X89852122Y-174727092D01*
X89864740Y-174701991D01*
X89874399Y-174675611D01*
X89880222Y-174671196D01*
X89883505Y-174664667D01*
X89907691Y-174650373D01*
X89930079Y-174633403D01*
X89937365Y-174632837D01*
X89943656Y-174629120D01*
X89971728Y-174630171D01*
X89999739Y-174627998D01*
X90011570Y-174631663D01*
X90013477Y-174631735D01*
X90014818Y-174632669D01*
X90021565Y-174634760D01*
X90208160Y-174712049D01*
X90208165Y-174712051D01*
X90208169Y-174712051D01*
X90208170Y-174712052D01*
X90401456Y-174750500D01*
X90401459Y-174750500D01*
X91042222Y-174750500D01*
X91109261Y-174770185D01*
X91155016Y-174822989D01*
X91162487Y-174849009D01*
X91162853Y-174848912D01*
X91164956Y-174856762D01*
X91219852Y-174989294D01*
X91225464Y-175002841D01*
X91321718Y-175128282D01*
X91447159Y-175224536D01*
X91593238Y-175285044D01*
X91710639Y-175300500D01*
X92546793Y-175300499D01*
X92555521Y-175300807D01*
X92555693Y-175300819D01*
X92555695Y-175300819D01*
X92594500Y-175303612D01*
X92594884Y-175303584D01*
X92599609Y-175303918D01*
X92628424Y-175314634D01*
X92657920Y-175323295D01*
X92663238Y-175327580D01*
X92665097Y-175328272D01*
X92666626Y-175330310D01*
X92678562Y-175339929D01*
X93568048Y-176229415D01*
X93568049Y-176229416D01*
X93672583Y-176333950D01*
X93672585Y-176333952D01*
X93795498Y-176416080D01*
X93795511Y-176416087D01*
X93932082Y-176472656D01*
X93932087Y-176472658D01*
X93932091Y-176472658D01*
X93932092Y-176472659D01*
X94077079Y-176501500D01*
X94077082Y-176501500D01*
X103522920Y-176501500D01*
X103620462Y-176482096D01*
X103667913Y-176472658D01*
X103804495Y-176416084D01*
X103853729Y-176383186D01*
X103927416Y-176333952D01*
X106637821Y-173623545D01*
X106699142Y-173590062D01*
X106768834Y-173595046D01*
X106824767Y-173636918D01*
X106849184Y-173702382D01*
X106849500Y-173711228D01*
X106849500Y-174739363D01*
X106864953Y-174856753D01*
X106864956Y-174856762D01*
X106919852Y-174989294D01*
X106925464Y-175002841D01*
X107021718Y-175128282D01*
X107147159Y-175224536D01*
X107293238Y-175285044D01*
X107410639Y-175300500D01*
X108246793Y-175300499D01*
X108255521Y-175300807D01*
X108255693Y-175300819D01*
X108255695Y-175300819D01*
X108294500Y-175303612D01*
X108294884Y-175303584D01*
X108299608Y-175303918D01*
X108328423Y-175314634D01*
X108357919Y-175323295D01*
X108363237Y-175327580D01*
X108365096Y-175328272D01*
X108366625Y-175330310D01*
X108378561Y-175339929D01*
X110363181Y-177324549D01*
X110396666Y-177385872D01*
X110399500Y-177412230D01*
X110399500Y-188558389D01*
X110389353Y-188607516D01*
X110195638Y-189056450D01*
X110187625Y-189076144D01*
X110187275Y-189077061D01*
X110187271Y-189077072D01*
X110175811Y-189115350D01*
X110171586Y-189127227D01*
X110164958Y-189143231D01*
X110164956Y-189143236D01*
X110164956Y-189143238D01*
X110163238Y-189156282D01*
X110149500Y-189260631D01*
X110149500Y-191239363D01*
X110164953Y-191356753D01*
X110164956Y-191356762D01*
X110221634Y-191493596D01*
X110225464Y-191502841D01*
X110321718Y-191628282D01*
X110447159Y-191724536D01*
X110593238Y-191785044D01*
X110710639Y-191800500D01*
X111589360Y-191800499D01*
X111589363Y-191800499D01*
X111706753Y-191785046D01*
X111706756Y-191785044D01*
X111706762Y-191785044D01*
X111828050Y-191734804D01*
X111897516Y-191727336D01*
X111959995Y-191758611D01*
X111995648Y-191818699D01*
X111999500Y-191849366D01*
X111999500Y-193911729D01*
X111992127Y-193936835D01*
X111988516Y-193962752D01*
X111982441Y-193969824D01*
X111979815Y-193978768D01*
X111960041Y-193995902D01*
X111942990Y-194015753D01*
X111934056Y-194018418D01*
X111927011Y-194024523D01*
X111901111Y-194028247D01*
X111876036Y-194035728D01*
X111867080Y-194033140D01*
X111857853Y-194034467D01*
X111834049Y-194023596D01*
X111808912Y-194016333D01*
X111800824Y-194008423D01*
X111794297Y-194005442D01*
X111782139Y-193993336D01*
X111776854Y-193987290D01*
X111732951Y-193921584D01*
X111628416Y-193817049D01*
X111529989Y-193718622D01*
X111228421Y-193417052D01*
X111228414Y-193417046D01*
X111154729Y-193367812D01*
X111154729Y-193367813D01*
X111105491Y-193334913D01*
X110968917Y-193278343D01*
X110968907Y-193278340D01*
X110823920Y-193249500D01*
X110823918Y-193249500D01*
X107307915Y-193249500D01*
X107160080Y-193249500D01*
X107160078Y-193249500D01*
X107015090Y-193278340D01*
X107015080Y-193278343D01*
X106878509Y-193334912D01*
X106878496Y-193334919D01*
X106755582Y-193417048D01*
X106755578Y-193417051D01*
X104417050Y-195755578D01*
X104417045Y-195755584D01*
X104391607Y-195793655D01*
X104376187Y-195812444D01*
X103224451Y-196964181D01*
X103163128Y-196997666D01*
X103136770Y-197000500D01*
X101624500Y-197000500D01*
X101557461Y-196980815D01*
X101511706Y-196928011D01*
X101500500Y-196876500D01*
X101500499Y-194952129D01*
X101500498Y-194952123D01*
X101500497Y-194952116D01*
X101494091Y-194892517D01*
X101486703Y-194872709D01*
X101476148Y-194844409D01*
X101472980Y-194835918D01*
X101472114Y-194831579D01*
X101469127Y-194823137D01*
X101460174Y-194801582D01*
X101443796Y-194757669D01*
X101390840Y-194686930D01*
X101387106Y-194681658D01*
X101368313Y-194653591D01*
X100632330Y-193835832D01*
X100620416Y-193810990D01*
X100605523Y-193787816D01*
X100603905Y-193776564D01*
X100602116Y-193772834D01*
X100600500Y-193752881D01*
X100600500Y-193718622D01*
X100607926Y-193676355D01*
X100701945Y-193417046D01*
X100758842Y-193260120D01*
X100760851Y-193254946D01*
X100769737Y-193233497D01*
X100771040Y-193226945D01*
X100774602Y-193213204D01*
X100776238Y-193208118D01*
X100776707Y-193206450D01*
X100793419Y-193116279D01*
X100793418Y-193116275D01*
X100794630Y-193109741D01*
X100795175Y-193105608D01*
X100798400Y-193089395D01*
X100800500Y-193078844D01*
X100800500Y-192921155D01*
X100800499Y-192921153D01*
X100769738Y-192766510D01*
X100769737Y-192766503D01*
X100769735Y-192766498D01*
X100709397Y-192620827D01*
X100709390Y-192620814D01*
X100621789Y-192489711D01*
X100621786Y-192489707D01*
X100510292Y-192378213D01*
X100510288Y-192378210D01*
X100379185Y-192290609D01*
X100379172Y-192290602D01*
X100233501Y-192230264D01*
X100233489Y-192230261D01*
X100078845Y-192199500D01*
X100078842Y-192199500D01*
X99921158Y-192199500D01*
X99921155Y-192199500D01*
X99766510Y-192230261D01*
X99766498Y-192230264D01*
X99620827Y-192290602D01*
X99620814Y-192290609D01*
X99489711Y-192378210D01*
X99489707Y-192378213D01*
X99378213Y-192489707D01*
X99378210Y-192489711D01*
X99290609Y-192620814D01*
X99290602Y-192620827D01*
X99230264Y-192766498D01*
X99230261Y-192766510D01*
X99199500Y-192921153D01*
X99199500Y-193078846D01*
X99230261Y-193233489D01*
X99230263Y-193233497D01*
X99239144Y-193254938D01*
X99241156Y-193260122D01*
X99298054Y-193417048D01*
X99392073Y-193676355D01*
X99392074Y-193676356D01*
X99392942Y-193681300D01*
X99394477Y-193683688D01*
X99399500Y-193718623D01*
X99399500Y-193752879D01*
X99379815Y-193819918D01*
X99367669Y-193835830D01*
X98631682Y-194653596D01*
X98605666Y-194684958D01*
X98605663Y-194684961D01*
X98595098Y-194703874D01*
X98595099Y-194703875D01*
X98591064Y-194711100D01*
X98556204Y-194757669D01*
X98538416Y-194805359D01*
X98535510Y-194810563D01*
X98532507Y-194818384D01*
X98532497Y-194818414D01*
X98530747Y-194824666D01*
X98527522Y-194834566D01*
X98505908Y-194892517D01*
X98499501Y-194952116D01*
X98499501Y-194952123D01*
X98499500Y-194952135D01*
X98499501Y-196876500D01*
X98479816Y-196943539D01*
X98427013Y-196989294D01*
X98375501Y-197000500D01*
X94513229Y-197000500D01*
X94446190Y-196980815D01*
X94425548Y-196964181D01*
X93603177Y-196141810D01*
X93584529Y-196117926D01*
X93168170Y-195423994D01*
X93150499Y-195360197D01*
X93150499Y-194760636D01*
X93135046Y-194643246D01*
X93135044Y-194643239D01*
X93135044Y-194643238D01*
X93074536Y-194497159D01*
X92978282Y-194371718D01*
X92852841Y-194275464D01*
X92706762Y-194214956D01*
X92706760Y-194214955D01*
X92589361Y-194199500D01*
X91710636Y-194199500D01*
X91593246Y-194214953D01*
X91593237Y-194214956D01*
X91447160Y-194275463D01*
X91321718Y-194371718D01*
X91225463Y-194497160D01*
X91164956Y-194643237D01*
X91162853Y-194651088D01*
X91161196Y-194650644D01*
X91136899Y-194705576D01*
X91078577Y-194744051D01*
X91042222Y-194749500D01*
X90401457Y-194749500D01*
X90208170Y-194787947D01*
X90208160Y-194787950D01*
X90021564Y-194865240D01*
X89952095Y-194872709D01*
X89889616Y-194841433D01*
X89853964Y-194781344D01*
X89851306Y-194764626D01*
X89851029Y-194764663D01*
X89835046Y-194643246D01*
X89835044Y-194643239D01*
X89835044Y-194643238D01*
X89774536Y-194497159D01*
X89678282Y-194371718D01*
X89552841Y-194275464D01*
X89406762Y-194214956D01*
X89406760Y-194214955D01*
X89289361Y-194199500D01*
X88410636Y-194199500D01*
X88293246Y-194214953D01*
X88293237Y-194214956D01*
X88147160Y-194275463D01*
X88021718Y-194371718D01*
X87925463Y-194497160D01*
X87864956Y-194643237D01*
X87864955Y-194643239D01*
X87849891Y-194757668D01*
X87849501Y-194760636D01*
X87849500Y-194760645D01*
X87849500Y-196739362D01*
X87857403Y-196799393D01*
X87857908Y-196803227D01*
X87858006Y-196804653D01*
X87858181Y-196805301D01*
X87858709Y-196809312D01*
X87864956Y-196856765D01*
X87882627Y-196899426D01*
X87887751Y-196914450D01*
X87895628Y-196943525D01*
X87895629Y-196943527D01*
X88049795Y-197300807D01*
X88089353Y-197392481D01*
X88099500Y-197441609D01*
X88099500Y-209023918D01*
X88099500Y-209023920D01*
X88099499Y-209023920D01*
X88128340Y-209168907D01*
X88128343Y-209168917D01*
X88184914Y-209305492D01*
X88217812Y-209354727D01*
X88217813Y-209354730D01*
X88267046Y-209428414D01*
X88267052Y-209428421D01*
X89326950Y-210488319D01*
X89360435Y-210549642D01*
X89355451Y-210619334D01*
X89313579Y-210675267D01*
X89248115Y-210699684D01*
X89239269Y-210700000D01*
X89100000Y-210700000D01*
X89100000Y-212000000D01*
X89849999Y-212000000D01*
X89849999Y-211310729D01*
X89869684Y-211243690D01*
X89922488Y-211197935D01*
X89991646Y-211187991D01*
X90055202Y-211217016D01*
X90061680Y-211223048D01*
X90696821Y-211858189D01*
X90715469Y-211882072D01*
X91131829Y-212576003D01*
X91149500Y-212639801D01*
X91149500Y-213239363D01*
X91164953Y-213356753D01*
X91164956Y-213356762D01*
X91221634Y-213493596D01*
X91225464Y-213502841D01*
X91321718Y-213628282D01*
X91447159Y-213724536D01*
X91593238Y-213785044D01*
X91710639Y-213800500D01*
X92589360Y-213800499D01*
X92589363Y-213800499D01*
X92706753Y-213785046D01*
X92706757Y-213785044D01*
X92706762Y-213785044D01*
X92852841Y-213724536D01*
X92978282Y-213628282D01*
X93074536Y-213502841D01*
X93135044Y-213356762D01*
X93150500Y-213239361D01*
X93150500Y-213047844D01*
X98500000Y-213047844D01*
X98506401Y-213107372D01*
X98506403Y-213107379D01*
X98556645Y-213242086D01*
X98556649Y-213242093D01*
X98642809Y-213357187D01*
X98642812Y-213357190D01*
X98757906Y-213443350D01*
X98757913Y-213443354D01*
X98892620Y-213493596D01*
X98892627Y-213493598D01*
X98952155Y-213499999D01*
X98952172Y-213500000D01*
X99750000Y-213500000D01*
X100250000Y-213500000D01*
X101047828Y-213500000D01*
X101047844Y-213499999D01*
X101107372Y-213493598D01*
X101107379Y-213493596D01*
X101242086Y-213443354D01*
X101242093Y-213443350D01*
X101357187Y-213357190D01*
X101357190Y-213357187D01*
X101443350Y-213242093D01*
X101443354Y-213242086D01*
X101444384Y-213239324D01*
X106850001Y-213239324D01*
X106865442Y-213356628D01*
X106865444Y-213356633D01*
X106925899Y-213502585D01*
X107022075Y-213627924D01*
X107147413Y-213724100D01*
X107293365Y-213784554D01*
X107293369Y-213784555D01*
X107410676Y-213799999D01*
X107599999Y-213799999D01*
X108100000Y-213799999D01*
X108289324Y-213799999D01*
X108406628Y-213784557D01*
X108406633Y-213784555D01*
X108552585Y-213724100D01*
X108677924Y-213627924D01*
X108774100Y-213502586D01*
X108834554Y-213356634D01*
X108834555Y-213356630D01*
X108849999Y-213239330D01*
X108850000Y-213239316D01*
X108850000Y-212500000D01*
X108100000Y-212500000D01*
X108100000Y-213799999D01*
X107599999Y-213799999D01*
X107600000Y-213799998D01*
X107600000Y-212500000D01*
X106850001Y-212500000D01*
X106850001Y-213239324D01*
X101444384Y-213239324D01*
X101493596Y-213107379D01*
X101493598Y-213107372D01*
X101499999Y-213047844D01*
X101500000Y-213047827D01*
X101500000Y-212250000D01*
X100250000Y-212250000D01*
X100250000Y-213500000D01*
X99750000Y-213500000D01*
X99750000Y-212250000D01*
X98500000Y-212250000D01*
X98500000Y-213047844D01*
X93150500Y-213047844D01*
X93150499Y-211260640D01*
X93150499Y-211260639D01*
X93150499Y-211260636D01*
X93135046Y-211143246D01*
X93135044Y-211143239D01*
X93135044Y-211143238D01*
X93074536Y-210997159D01*
X93040003Y-210952155D01*
X98500000Y-210952155D01*
X98500000Y-211750000D01*
X99750000Y-211750000D01*
X100250000Y-211750000D01*
X101500000Y-211750000D01*
X101500000Y-211260669D01*
X106850000Y-211260669D01*
X106850000Y-212000000D01*
X107600000Y-212000000D01*
X108100000Y-212000000D01*
X108849999Y-212000000D01*
X108849999Y-211260675D01*
X108834557Y-211143371D01*
X108834555Y-211143366D01*
X108774100Y-210997414D01*
X108677924Y-210872075D01*
X108552586Y-210775899D01*
X108406634Y-210715445D01*
X108406630Y-210715444D01*
X108289330Y-210700000D01*
X108100000Y-210700000D01*
X108100000Y-212000000D01*
X107600000Y-212000000D01*
X107600000Y-210700000D01*
X107410675Y-210700000D01*
X107293371Y-210715442D01*
X107293366Y-210715444D01*
X107147414Y-210775899D01*
X107022075Y-210872075D01*
X106925899Y-210997413D01*
X106865445Y-211143365D01*
X106865444Y-211143369D01*
X106850000Y-211260669D01*
X101500000Y-211260669D01*
X101500000Y-210952172D01*
X101499999Y-210952155D01*
X101493598Y-210892627D01*
X101493596Y-210892620D01*
X101443354Y-210757913D01*
X101443350Y-210757906D01*
X101357190Y-210642812D01*
X101357187Y-210642809D01*
X101242093Y-210556649D01*
X101242086Y-210556645D01*
X101107379Y-210506403D01*
X101107372Y-210506401D01*
X101047844Y-210500000D01*
X100250000Y-210500000D01*
X100250000Y-211750000D01*
X99750000Y-211750000D01*
X99750000Y-210500000D01*
X98952155Y-210500000D01*
X98892627Y-210506401D01*
X98892620Y-210506403D01*
X98757913Y-210556645D01*
X98757906Y-210556649D01*
X98642812Y-210642809D01*
X98642809Y-210642812D01*
X98556649Y-210757906D01*
X98556645Y-210757913D01*
X98506403Y-210892620D01*
X98506401Y-210892627D01*
X98500000Y-210952155D01*
X93040003Y-210952155D01*
X92978282Y-210871718D01*
X92852841Y-210775464D01*
X92810452Y-210757906D01*
X92706762Y-210714956D01*
X92706760Y-210714955D01*
X92589370Y-210699501D01*
X92589367Y-210699500D01*
X92589361Y-210699500D01*
X92589354Y-210699500D01*
X91753217Y-210699500D01*
X91744488Y-210699192D01*
X91744317Y-210699179D01*
X91744311Y-210699179D01*
X91744268Y-210699176D01*
X91743963Y-210699154D01*
X91705501Y-210696387D01*
X91705121Y-210696413D01*
X91700389Y-210696080D01*
X91671511Y-210685340D01*
X91641958Y-210676626D01*
X91636725Y-210672404D01*
X91634902Y-210671726D01*
X91633395Y-210669717D01*
X91621437Y-210660069D01*
X89636819Y-208675451D01*
X89603334Y-208614128D01*
X89600500Y-208587770D01*
X89600500Y-197441606D01*
X89610647Y-197392479D01*
X89650200Y-197300815D01*
X89804370Y-196943526D01*
X89812374Y-196923852D01*
X89812724Y-196922937D01*
X89825992Y-196878613D01*
X89835044Y-196856762D01*
X89850500Y-196739361D01*
X89850499Y-196735993D01*
X89852122Y-196727092D01*
X89864740Y-196701991D01*
X89874399Y-196675611D01*
X89880222Y-196671196D01*
X89883505Y-196664667D01*
X89907691Y-196650373D01*
X89930079Y-196633403D01*
X89937365Y-196632837D01*
X89943656Y-196629120D01*
X89971728Y-196630171D01*
X89999739Y-196627998D01*
X90011570Y-196631663D01*
X90013477Y-196631735D01*
X90014818Y-196632669D01*
X90021565Y-196634760D01*
X90208160Y-196712049D01*
X90208165Y-196712051D01*
X90208169Y-196712051D01*
X90208170Y-196712052D01*
X90401456Y-196750500D01*
X90401459Y-196750500D01*
X91042222Y-196750500D01*
X91109261Y-196770185D01*
X91155016Y-196822989D01*
X91162487Y-196849009D01*
X91162853Y-196848912D01*
X91164956Y-196856762D01*
X91219852Y-196989294D01*
X91225464Y-197002841D01*
X91321718Y-197128282D01*
X91447159Y-197224536D01*
X91593238Y-197285044D01*
X91710639Y-197300500D01*
X92546793Y-197300499D01*
X92555521Y-197300807D01*
X92555693Y-197300819D01*
X92555695Y-197300819D01*
X92594500Y-197303612D01*
X92594884Y-197303584D01*
X92599609Y-197303918D01*
X92628424Y-197314634D01*
X92657920Y-197323295D01*
X92663238Y-197327580D01*
X92665097Y-197328272D01*
X92666626Y-197330310D01*
X92678562Y-197339929D01*
X93672580Y-198333948D01*
X93672584Y-198333951D01*
X93795498Y-198416080D01*
X93795511Y-198416087D01*
X93932082Y-198472656D01*
X93932087Y-198472658D01*
X93932091Y-198472658D01*
X93932092Y-198472659D01*
X94077079Y-198501500D01*
X94077082Y-198501500D01*
X103572920Y-198501500D01*
X103670462Y-198482096D01*
X103717913Y-198472658D01*
X103854495Y-198416084D01*
X103903729Y-198383186D01*
X103977416Y-198333952D01*
X105582952Y-196728415D01*
X105608391Y-196690340D01*
X105623802Y-196671562D01*
X106637821Y-195657543D01*
X106699142Y-195624060D01*
X106768834Y-195629044D01*
X106824767Y-195670916D01*
X106849184Y-195736380D01*
X106849500Y-195745226D01*
X106849500Y-196739363D01*
X106864953Y-196856753D01*
X106864956Y-196856762D01*
X106919852Y-196989294D01*
X106925464Y-197002841D01*
X107021718Y-197128282D01*
X107147159Y-197224536D01*
X107293238Y-197285044D01*
X107410639Y-197300500D01*
X108246793Y-197300499D01*
X108255521Y-197300807D01*
X108255693Y-197300819D01*
X108255695Y-197300819D01*
X108294500Y-197303612D01*
X108294884Y-197303584D01*
X108299608Y-197303918D01*
X108328423Y-197314634D01*
X108357919Y-197323295D01*
X108363237Y-197327580D01*
X108365096Y-197328272D01*
X108366625Y-197330310D01*
X108378561Y-197339929D01*
X110363181Y-199324549D01*
X110396666Y-199385872D01*
X110399500Y-199412230D01*
X110399500Y-210558389D01*
X110389353Y-210607516D01*
X110195638Y-211056450D01*
X110187625Y-211076144D01*
X110187275Y-211077061D01*
X110187271Y-211077072D01*
X110175811Y-211115350D01*
X110171586Y-211127227D01*
X110164958Y-211143231D01*
X110164956Y-211143236D01*
X110164956Y-211143238D01*
X110163238Y-211156282D01*
X110149500Y-211260631D01*
X110149500Y-213239363D01*
X110164953Y-213356753D01*
X110164956Y-213356762D01*
X110221634Y-213493596D01*
X110225464Y-213502841D01*
X110321718Y-213628282D01*
X110447159Y-213724536D01*
X110593238Y-213785044D01*
X110710639Y-213800500D01*
X111589360Y-213800499D01*
X111589363Y-213800499D01*
X111706753Y-213785046D01*
X111706756Y-213785044D01*
X111706762Y-213785044D01*
X111828050Y-213734804D01*
X111897516Y-213727336D01*
X111959995Y-213758611D01*
X111995648Y-213818699D01*
X111999500Y-213849366D01*
X111999500Y-216150633D01*
X111979815Y-216217672D01*
X111927011Y-216263427D01*
X111857853Y-216273371D01*
X111828047Y-216265194D01*
X111706762Y-216214956D01*
X111706760Y-216214955D01*
X111589361Y-216199500D01*
X110710636Y-216199500D01*
X110593246Y-216214953D01*
X110593237Y-216214956D01*
X110447160Y-216275463D01*
X110321718Y-216371718D01*
X110225463Y-216497160D01*
X110164956Y-216643237D01*
X110162853Y-216651088D01*
X110161196Y-216650644D01*
X110136899Y-216705576D01*
X110078577Y-216744051D01*
X110042222Y-216749500D01*
X109401457Y-216749500D01*
X109208170Y-216787947D01*
X109208160Y-216787950D01*
X109021564Y-216865240D01*
X108952095Y-216872709D01*
X108889616Y-216841433D01*
X108853964Y-216781344D01*
X108851306Y-216764626D01*
X108851029Y-216764663D01*
X108835046Y-216643246D01*
X108835044Y-216643239D01*
X108835044Y-216643238D01*
X108774536Y-216497159D01*
X108678282Y-216371718D01*
X108552841Y-216275464D01*
X108406762Y-216214956D01*
X108406760Y-216214955D01*
X108289361Y-216199500D01*
X107410636Y-216199500D01*
X107293246Y-216214953D01*
X107293237Y-216214956D01*
X107147160Y-216275463D01*
X107021718Y-216371718D01*
X106925463Y-216497160D01*
X106864956Y-216643237D01*
X106864955Y-216643239D01*
X106850966Y-216749500D01*
X106849501Y-216760636D01*
X106849500Y-216760645D01*
X106849500Y-218739363D01*
X106865423Y-218860317D01*
X106854657Y-218929352D01*
X106808276Y-218981607D01*
X106742484Y-219000500D01*
X101624500Y-219000500D01*
X101557461Y-218980815D01*
X101511706Y-218928011D01*
X101500500Y-218876500D01*
X101500499Y-216952129D01*
X101500498Y-216952123D01*
X101500497Y-216952116D01*
X101494091Y-216892517D01*
X101486703Y-216872709D01*
X101476148Y-216844409D01*
X101472980Y-216835918D01*
X101472114Y-216831579D01*
X101469127Y-216823137D01*
X101460174Y-216801582D01*
X101443796Y-216757669D01*
X101390840Y-216686930D01*
X101387106Y-216681658D01*
X101368313Y-216653591D01*
X100632330Y-215835832D01*
X100620416Y-215810990D01*
X100605523Y-215787816D01*
X100603905Y-215776564D01*
X100602116Y-215772834D01*
X100600500Y-215752881D01*
X100600500Y-215723510D01*
X100607926Y-215681243D01*
X100758836Y-215265025D01*
X100760851Y-215259834D01*
X100769737Y-215238385D01*
X100771040Y-215231833D01*
X100774602Y-215218092D01*
X100776238Y-215213006D01*
X100776707Y-215211338D01*
X100793419Y-215121167D01*
X100793418Y-215121163D01*
X100794630Y-215114629D01*
X100795175Y-215110496D01*
X100798400Y-215094283D01*
X100800500Y-215083732D01*
X100800500Y-214926043D01*
X100800499Y-214926041D01*
X100769738Y-214771398D01*
X100769737Y-214771391D01*
X100769735Y-214771386D01*
X100709397Y-214625715D01*
X100709390Y-214625702D01*
X100621789Y-214494599D01*
X100621786Y-214494595D01*
X100510292Y-214383101D01*
X100510288Y-214383098D01*
X100379185Y-214295497D01*
X100379172Y-214295490D01*
X100233501Y-214235152D01*
X100233489Y-214235149D01*
X100078845Y-214204388D01*
X100078842Y-214204388D01*
X99921158Y-214204388D01*
X99921155Y-214204388D01*
X99766510Y-214235149D01*
X99766498Y-214235152D01*
X99620827Y-214295490D01*
X99620814Y-214295497D01*
X99489711Y-214383098D01*
X99489707Y-214383101D01*
X99378213Y-214494595D01*
X99378210Y-214494599D01*
X99290609Y-214625702D01*
X99290602Y-214625715D01*
X99230264Y-214771386D01*
X99230261Y-214771398D01*
X99199500Y-214926041D01*
X99199500Y-215083734D01*
X99230261Y-215238377D01*
X99230263Y-215238385D01*
X99239144Y-215259826D01*
X99241156Y-215265010D01*
X99333744Y-215520370D01*
X99392073Y-215681243D01*
X99392074Y-215681244D01*
X99392942Y-215686188D01*
X99394477Y-215688576D01*
X99399500Y-215723511D01*
X99399500Y-215752879D01*
X99379815Y-215819918D01*
X99367669Y-215835830D01*
X98631682Y-216653596D01*
X98605666Y-216684958D01*
X98605663Y-216684961D01*
X98595098Y-216703874D01*
X98595099Y-216703875D01*
X98591064Y-216711100D01*
X98556204Y-216757669D01*
X98538416Y-216805359D01*
X98535510Y-216810563D01*
X98532507Y-216818384D01*
X98532497Y-216818414D01*
X98530747Y-216824666D01*
X98527522Y-216834566D01*
X98505908Y-216892517D01*
X98499501Y-216952116D01*
X98499500Y-216952127D01*
X98499500Y-217940073D01*
X98499501Y-218876500D01*
X98479816Y-218943539D01*
X98427013Y-218989294D01*
X98375501Y-219000500D01*
X94513229Y-219000500D01*
X94446190Y-218980815D01*
X94425548Y-218964181D01*
X93603177Y-218141810D01*
X93584529Y-218117926D01*
X93168170Y-217423994D01*
X93150499Y-217360197D01*
X93150499Y-216760636D01*
X93135046Y-216643246D01*
X93135044Y-216643239D01*
X93135044Y-216643238D01*
X93074536Y-216497159D01*
X92978282Y-216371718D01*
X92852841Y-216275464D01*
X92706762Y-216214956D01*
X92706760Y-216214955D01*
X92589361Y-216199500D01*
X91710636Y-216199500D01*
X91593246Y-216214953D01*
X91593237Y-216214956D01*
X91447160Y-216275463D01*
X91321718Y-216371718D01*
X91225463Y-216497160D01*
X91164956Y-216643237D01*
X91162853Y-216651088D01*
X91161196Y-216650644D01*
X91136899Y-216705576D01*
X91078577Y-216744051D01*
X91042222Y-216749500D01*
X90401457Y-216749500D01*
X90208170Y-216787947D01*
X90208160Y-216787950D01*
X90021564Y-216865240D01*
X89952095Y-216872709D01*
X89889616Y-216841433D01*
X89853964Y-216781344D01*
X89851306Y-216764626D01*
X89851029Y-216764663D01*
X89835046Y-216643246D01*
X89835044Y-216643239D01*
X89835044Y-216643238D01*
X89774536Y-216497159D01*
X89678282Y-216371718D01*
X89552841Y-216275464D01*
X89406762Y-216214956D01*
X89406760Y-216214955D01*
X89289361Y-216199500D01*
X88410636Y-216199500D01*
X88293246Y-216214953D01*
X88293237Y-216214956D01*
X88147160Y-216275463D01*
X88021718Y-216371718D01*
X87925463Y-216497160D01*
X87864956Y-216643237D01*
X87864955Y-216643239D01*
X87850966Y-216749500D01*
X87849501Y-216760636D01*
X87849500Y-216760645D01*
X87849500Y-218739363D01*
X87864953Y-218856753D01*
X87864956Y-218856762D01*
X87919852Y-218989294D01*
X87925464Y-219002841D01*
X88021718Y-219128282D01*
X88147159Y-219224536D01*
X88293238Y-219285044D01*
X88410639Y-219300500D01*
X89289360Y-219300499D01*
X89289363Y-219300499D01*
X89406753Y-219285046D01*
X89406757Y-219285044D01*
X89406762Y-219285044D01*
X89552841Y-219224536D01*
X89678282Y-219128282D01*
X89774536Y-219002841D01*
X89835044Y-218856762D01*
X89850500Y-218739361D01*
X89850500Y-218739360D01*
X89851030Y-218735336D01*
X89852463Y-218735524D01*
X89874399Y-218675611D01*
X89930079Y-218633403D01*
X89999739Y-218627998D01*
X90021565Y-218634760D01*
X90208160Y-218712049D01*
X90208165Y-218712051D01*
X90208169Y-218712051D01*
X90208170Y-218712052D01*
X90401456Y-218750500D01*
X90401459Y-218750500D01*
X91042222Y-218750500D01*
X91109261Y-218770185D01*
X91155016Y-218822989D01*
X91162487Y-218849009D01*
X91162853Y-218848912D01*
X91164956Y-218856762D01*
X91219852Y-218989294D01*
X91225464Y-219002841D01*
X91321718Y-219128282D01*
X91447159Y-219224536D01*
X91593238Y-219285044D01*
X91710639Y-219300500D01*
X92546793Y-219300499D01*
X92555521Y-219300807D01*
X92555693Y-219300819D01*
X92555695Y-219300819D01*
X92594500Y-219303612D01*
X92594884Y-219303584D01*
X92599609Y-219303918D01*
X92628424Y-219314634D01*
X92657920Y-219323295D01*
X92663238Y-219327580D01*
X92665097Y-219328272D01*
X92666626Y-219330310D01*
X92678562Y-219339929D01*
X93672580Y-220333948D01*
X93672584Y-220333951D01*
X93795498Y-220416080D01*
X93795511Y-220416087D01*
X93932082Y-220472656D01*
X93932087Y-220472658D01*
X93932091Y-220472658D01*
X93932092Y-220472659D01*
X94077079Y-220501500D01*
X94077082Y-220501500D01*
X110572920Y-220501500D01*
X110670462Y-220482096D01*
X110717913Y-220472658D01*
X110854495Y-220416084D01*
X110903729Y-220383186D01*
X110977416Y-220333952D01*
X111529156Y-219782211D01*
X111537301Y-219775413D01*
X111542919Y-219768448D01*
X111732952Y-219578416D01*
X111789295Y-219494091D01*
X111815084Y-219455495D01*
X111871658Y-219318913D01*
X111887321Y-219240163D01*
X111888890Y-219236072D01*
X111888805Y-219233633D01*
X111902328Y-219201032D01*
X111905933Y-219194963D01*
X111937056Y-219159914D01*
X111978282Y-219128282D01*
X112074536Y-219002841D01*
X112135044Y-218856762D01*
X112135045Y-218856753D01*
X112137147Y-218848912D01*
X112138803Y-218849355D01*
X112163101Y-218794424D01*
X112221423Y-218755949D01*
X112257778Y-218750500D01*
X112748542Y-218750500D01*
X112760349Y-218748151D01*
X112845188Y-218731275D01*
X112941836Y-218712051D01*
X113026683Y-218676906D01*
X113123914Y-218636632D01*
X113287782Y-218527139D01*
X113427139Y-218387782D01*
X113427140Y-218387779D01*
X113777140Y-218037781D01*
X113842431Y-217940065D01*
X113886632Y-217873914D01*
X113962051Y-217691835D01*
X113963226Y-217685931D01*
X114000500Y-217498540D01*
X114000500Y-217301460D01*
X114000500Y-195501459D01*
X114000500Y-173801459D01*
X114000500Y-129701459D01*
X114000500Y-107651459D01*
X114000500Y-104801459D01*
X114000500Y-85801459D01*
X114000500Y-64151459D01*
X114000500Y-64151456D01*
X113979192Y-64044339D01*
X113977924Y-64037964D01*
X113962051Y-63958164D01*
X113925844Y-63870754D01*
X113886632Y-63776086D01*
X113789880Y-63631286D01*
X113777139Y-63612217D01*
X113634686Y-63469764D01*
X113634655Y-63469735D01*
X113281479Y-63116559D01*
X113281459Y-63116537D01*
X113137785Y-62972863D01*
X113137781Y-62972860D01*
X112973920Y-62863371D01*
X112973907Y-62863364D01*
X112835014Y-62805833D01*
X112835006Y-62805831D01*
X112826513Y-62802313D01*
X112791836Y-62787949D01*
X112654545Y-62760640D01*
X112639584Y-62757664D01*
X112598542Y-62749500D01*
X112598541Y-62749500D01*
X112257778Y-62749500D01*
X112190739Y-62729815D01*
X112144984Y-62677011D01*
X112137512Y-62650990D01*
X112137147Y-62651088D01*
X112135044Y-62643239D01*
X112135044Y-62643238D01*
X112074536Y-62497159D01*
X111978282Y-62371718D01*
X111978280Y-62371717D01*
X111978280Y-62371716D01*
X111937058Y-62340086D01*
X111932110Y-62334514D01*
X111928091Y-62332505D01*
X111905934Y-62305037D01*
X111902325Y-62298961D01*
X111887322Y-62259835D01*
X111871658Y-62181087D01*
X111856496Y-62144483D01*
X111815087Y-62044511D01*
X111815080Y-62044498D01*
X111732952Y-61921585D01*
X111692649Y-61881282D01*
X111628416Y-61817049D01*
X111383547Y-61572179D01*
X111228421Y-61417052D01*
X111228414Y-61417046D01*
X111154729Y-61367812D01*
X111154729Y-61367813D01*
X111105491Y-61334913D01*
X110968917Y-61278343D01*
X110968907Y-61278340D01*
X110823920Y-61249500D01*
X110823918Y-61249500D01*
X107176082Y-61249500D01*
X107176076Y-61249500D01*
X107147242Y-61255234D01*
X107147243Y-61255235D01*
X107031092Y-61278339D01*
X107031086Y-61278341D01*
X106972592Y-61302571D01*
X106894509Y-61334914D01*
X106894496Y-61334921D01*
X106845269Y-61367813D01*
X106771588Y-61417044D01*
X106771580Y-61417050D01*
X103684703Y-64503927D01*
X103644480Y-64530805D01*
X103620819Y-64540606D01*
X103620818Y-64540607D01*
X103489715Y-64628207D01*
X103489707Y-64628213D01*
X103378213Y-64739707D01*
X103378207Y-64739715D01*
X103290607Y-64870818D01*
X103290606Y-64870819D01*
X103280805Y-64894480D01*
X103253927Y-64934703D01*
X102275451Y-65913181D01*
X102214128Y-65946666D01*
X102187770Y-65949500D01*
X98226080Y-65949500D01*
X98081092Y-65978340D01*
X98081082Y-65978343D01*
X97941621Y-66036109D01*
X97872151Y-66043578D01*
X97809672Y-66012302D01*
X97774021Y-65952213D01*
X97770169Y-65921548D01*
X97770169Y-64851658D01*
X97789854Y-64784619D01*
X97842658Y-64738864D01*
X97911816Y-64728920D01*
X97975372Y-64757945D01*
X97977121Y-64759490D01*
X98653589Y-65368312D01*
X98669084Y-65381165D01*
X98684944Y-65394322D01*
X98711089Y-65408926D01*
X98757669Y-65443796D01*
X98805354Y-65461581D01*
X98810556Y-65464487D01*
X98818377Y-65467490D01*
X98824620Y-65469236D01*
X98834548Y-65472469D01*
X98892517Y-65494091D01*
X98952127Y-65500500D01*
X101047872Y-65500499D01*
X101107483Y-65494091D01*
X101242331Y-65443796D01*
X101357546Y-65357546D01*
X101443796Y-65242331D01*
X101494091Y-65107483D01*
X101500500Y-65047873D01*
X101500499Y-62952128D01*
X101494091Y-62892517D01*
X101483220Y-62863371D01*
X101443797Y-62757671D01*
X101443793Y-62757664D01*
X101357547Y-62642455D01*
X101357544Y-62642452D01*
X101242335Y-62556206D01*
X101242328Y-62556202D01*
X101107482Y-62505908D01*
X101107483Y-62505908D01*
X101047883Y-62499501D01*
X101047881Y-62499500D01*
X101047873Y-62499500D01*
X101047864Y-62499500D01*
X98952129Y-62499500D01*
X98952123Y-62499501D01*
X98892518Y-62505908D01*
X98844423Y-62523846D01*
X98844422Y-62523845D01*
X98835925Y-62527014D01*
X98831594Y-62527880D01*
X98823154Y-62530866D01*
X98801586Y-62539822D01*
X98799454Y-62540618D01*
X98799438Y-62540624D01*
X98757669Y-62556204D01*
X98757668Y-62556204D01*
X98757667Y-62556205D01*
X98757664Y-62556206D01*
X98686949Y-62609143D01*
X98681632Y-62612910D01*
X98653591Y-62631686D01*
X97835834Y-63367668D01*
X97810995Y-63379581D01*
X97787817Y-63394477D01*
X97776565Y-63396094D01*
X97772835Y-63397884D01*
X97752882Y-63399500D01*
X97686669Y-63399500D01*
X97686653Y-63399499D01*
X97679057Y-63399499D01*
X97520943Y-63399499D01*
X97413587Y-63428265D01*
X97368210Y-63440424D01*
X97368209Y-63440425D01*
X97324366Y-63465739D01*
X97324364Y-63465740D01*
X97231290Y-63519475D01*
X97231282Y-63519481D01*
X96689150Y-64061613D01*
X96689144Y-64061621D01*
X96650141Y-64129178D01*
X96650141Y-64129179D01*
X96610092Y-64198546D01*
X96569168Y-64351274D01*
X96569168Y-64351276D01*
X96569168Y-64518761D01*
X96549483Y-64585800D01*
X96496679Y-64631555D01*
X96427521Y-64641499D01*
X96363965Y-64612474D01*
X96326191Y-64553696D01*
X96322695Y-64538159D01*
X96318138Y-64509388D01*
X96317246Y-64503757D01*
X96251557Y-64301588D01*
X96155051Y-64112184D01*
X96155049Y-64112181D01*
X96155048Y-64112179D01*
X96030109Y-63940213D01*
X95879786Y-63789890D01*
X95707820Y-63664951D01*
X95707115Y-63664591D01*
X95699054Y-63660485D01*
X95648259Y-63612512D01*
X95631463Y-63544692D01*
X95653999Y-63478556D01*
X95699054Y-63439515D01*
X95707816Y-63435051D01*
X95756748Y-63399500D01*
X95879786Y-63310109D01*
X95879788Y-63310106D01*
X95879792Y-63310104D01*
X96030104Y-63159792D01*
X96030106Y-63159788D01*
X96030109Y-63159786D01*
X96155048Y-62987820D01*
X96155047Y-62987820D01*
X96155051Y-62987816D01*
X96251557Y-62798412D01*
X96317246Y-62596243D01*
X96350500Y-62386287D01*
X96350500Y-62173713D01*
X96317246Y-61963757D01*
X96251557Y-61761588D01*
X96155051Y-61572184D01*
X96155049Y-61572181D01*
X96155048Y-61572179D01*
X96030109Y-61400213D01*
X95879786Y-61249890D01*
X95707817Y-61124949D01*
X95698504Y-61120204D01*
X95647707Y-61072230D01*
X95630912Y-61004409D01*
X95653449Y-60938274D01*
X95698507Y-60899232D01*
X95707555Y-60894622D01*
X95761716Y-60855270D01*
X95761717Y-60855270D01*
X95129408Y-60222962D01*
X95192993Y-60205925D01*
X95307007Y-60140099D01*
X95400099Y-60047007D01*
X95465925Y-59932993D01*
X95482962Y-59869409D01*
X96115270Y-60501717D01*
X96115270Y-60501716D01*
X96154622Y-60447554D01*
X96251095Y-60258217D01*
X96316757Y-60056130D01*
X96316757Y-60056127D01*
X96350000Y-59846246D01*
X96350000Y-59633753D01*
X96316757Y-59423872D01*
X96316757Y-59423869D01*
X96251095Y-59221782D01*
X96162468Y-59047844D01*
X98500000Y-59047844D01*
X98506401Y-59107372D01*
X98506403Y-59107379D01*
X98556645Y-59242086D01*
X98556649Y-59242093D01*
X98642809Y-59357187D01*
X98642812Y-59357190D01*
X98757906Y-59443350D01*
X98757913Y-59443354D01*
X98892620Y-59493596D01*
X98892627Y-59493598D01*
X98952155Y-59499999D01*
X98952172Y-59500000D01*
X99750000Y-59500000D01*
X100250000Y-59500000D01*
X101047828Y-59500000D01*
X101047844Y-59499999D01*
X101107372Y-59493598D01*
X101107379Y-59493596D01*
X101242086Y-59443354D01*
X101242093Y-59443350D01*
X101357187Y-59357190D01*
X101357190Y-59357187D01*
X101443350Y-59242093D01*
X101443354Y-59242086D01*
X101444384Y-59239324D01*
X106850001Y-59239324D01*
X106865442Y-59356628D01*
X106865444Y-59356633D01*
X106925899Y-59502585D01*
X107022075Y-59627924D01*
X107147413Y-59724100D01*
X107293365Y-59784554D01*
X107293369Y-59784555D01*
X107410676Y-59799999D01*
X107599999Y-59799999D01*
X108100000Y-59799999D01*
X108289324Y-59799999D01*
X108406628Y-59784557D01*
X108406633Y-59784555D01*
X108552585Y-59724100D01*
X108677924Y-59627924D01*
X108774100Y-59502586D01*
X108834554Y-59356634D01*
X108834555Y-59356630D01*
X108849999Y-59239330D01*
X108850000Y-59239316D01*
X108850000Y-58500000D01*
X108100000Y-58500000D01*
X108100000Y-59799999D01*
X107599999Y-59799999D01*
X107600000Y-59799998D01*
X107600000Y-58500000D01*
X106850001Y-58500000D01*
X106850001Y-59239324D01*
X101444384Y-59239324D01*
X101493596Y-59107379D01*
X101493598Y-59107372D01*
X101499999Y-59047844D01*
X101500000Y-59047827D01*
X101500000Y-58250000D01*
X100250000Y-58250000D01*
X100250000Y-59500000D01*
X99750000Y-59500000D01*
X99750000Y-58250000D01*
X98500000Y-58250000D01*
X98500000Y-59047844D01*
X96162468Y-59047844D01*
X96154624Y-59032449D01*
X96115270Y-58978282D01*
X96115269Y-58978282D01*
X95482962Y-59610590D01*
X95465925Y-59547007D01*
X95400099Y-59432993D01*
X95307007Y-59339901D01*
X95192993Y-59274075D01*
X95129409Y-59257037D01*
X95761716Y-58624728D01*
X95707547Y-58585373D01*
X95707547Y-58585372D01*
X95698500Y-58580763D01*
X95647706Y-58532788D01*
X95630912Y-58464966D01*
X95653451Y-58398832D01*
X95698508Y-58359793D01*
X95707816Y-58355051D01*
X95787007Y-58297515D01*
X95879786Y-58230109D01*
X95879788Y-58230106D01*
X95879792Y-58230104D01*
X96030104Y-58079792D01*
X96030106Y-58079788D01*
X96030109Y-58079786D01*
X96155048Y-57907820D01*
X96155047Y-57907820D01*
X96155051Y-57907816D01*
X96251557Y-57718412D01*
X96317246Y-57516243D01*
X96350500Y-57306287D01*
X96350500Y-57093713D01*
X96328079Y-56952155D01*
X98500000Y-56952155D01*
X98500000Y-57750000D01*
X99750000Y-57750000D01*
X100250000Y-57750000D01*
X101500000Y-57750000D01*
X101500000Y-57260669D01*
X106850000Y-57260669D01*
X106850000Y-58000000D01*
X107600000Y-58000000D01*
X108100000Y-58000000D01*
X108849999Y-58000000D01*
X108849999Y-57260675D01*
X108834557Y-57143371D01*
X108834555Y-57143366D01*
X108774100Y-56997414D01*
X108677924Y-56872075D01*
X108552586Y-56775899D01*
X108406634Y-56715445D01*
X108406630Y-56715444D01*
X108289330Y-56700000D01*
X108100000Y-56700000D01*
X108100000Y-58000000D01*
X107600000Y-58000000D01*
X107600000Y-56700000D01*
X107410675Y-56700000D01*
X107293371Y-56715442D01*
X107293366Y-56715444D01*
X107147414Y-56775899D01*
X107022075Y-56872075D01*
X106925899Y-56997413D01*
X106865445Y-57143365D01*
X106865444Y-57143369D01*
X106850000Y-57260669D01*
X101500000Y-57260669D01*
X101500000Y-56952172D01*
X101499999Y-56952155D01*
X101493598Y-56892627D01*
X101493596Y-56892620D01*
X101443354Y-56757913D01*
X101443350Y-56757906D01*
X101357190Y-56642812D01*
X101357187Y-56642809D01*
X101242093Y-56556649D01*
X101242086Y-56556645D01*
X101107379Y-56506403D01*
X101107372Y-56506401D01*
X101047844Y-56500000D01*
X100250000Y-56500000D01*
X100250000Y-57750000D01*
X99750000Y-57750000D01*
X99750000Y-56500000D01*
X98952155Y-56500000D01*
X98892627Y-56506401D01*
X98892620Y-56506403D01*
X98757913Y-56556645D01*
X98757906Y-56556649D01*
X98642812Y-56642809D01*
X98642809Y-56642812D01*
X98556649Y-56757906D01*
X98556645Y-56757913D01*
X98506403Y-56892620D01*
X98506401Y-56892627D01*
X98500000Y-56952155D01*
X96328079Y-56952155D01*
X96317246Y-56883757D01*
X96251557Y-56681588D01*
X96155051Y-56492184D01*
X96155049Y-56492181D01*
X96155048Y-56492179D01*
X96030109Y-56320213D01*
X95916569Y-56206673D01*
X95883084Y-56145350D01*
X95888068Y-56075658D01*
X95929940Y-56019725D01*
X95960915Y-56002810D01*
X96092331Y-55953796D01*
X96207546Y-55867546D01*
X96293796Y-55752331D01*
X96344091Y-55617483D01*
X96350500Y-55557873D01*
X96350499Y-54461228D01*
X96370184Y-54394190D01*
X96422987Y-54348435D01*
X96492146Y-54338491D01*
X96555702Y-54367516D01*
X96562180Y-54373548D01*
X98271578Y-56082947D01*
X98271585Y-56082953D01*
X98329704Y-56121786D01*
X98329706Y-56121787D01*
X98329709Y-56121789D01*
X98394505Y-56165084D01*
X98531087Y-56221658D01*
X98531091Y-56221658D01*
X98531092Y-56221659D01*
X98676079Y-56250500D01*
X98676082Y-56250500D01*
X98676083Y-56250500D01*
X98823917Y-56250500D01*
X103342672Y-56250500D01*
X103370355Y-56253630D01*
X103372376Y-56254092D01*
X103374901Y-56254671D01*
X103374909Y-56254671D01*
X103374911Y-56254672D01*
X103889466Y-56297161D01*
X103889471Y-56297161D01*
X103889504Y-56297164D01*
X103910546Y-56298389D01*
X103921158Y-56300500D01*
X104078842Y-56300500D01*
X104095282Y-56297228D01*
X104106815Y-56297203D01*
X104110483Y-56297163D01*
X104110495Y-56297164D01*
X104110506Y-56297163D01*
X104110510Y-56297163D01*
X104259210Y-56284883D01*
X104625099Y-56254671D01*
X104635754Y-56253436D01*
X104653997Y-56251324D01*
X104668264Y-56250500D01*
X110137769Y-56250500D01*
X110167205Y-56259143D01*
X110197195Y-56265667D01*
X110202212Y-56269422D01*
X110204808Y-56270185D01*
X110225450Y-56286818D01*
X110313181Y-56374548D01*
X110346666Y-56435871D01*
X110349500Y-56462230D01*
X110349500Y-56580588D01*
X110342811Y-56620766D01*
X110180944Y-57093385D01*
X110180941Y-57093395D01*
X110173195Y-57121035D01*
X110168361Y-57135014D01*
X110164955Y-57143237D01*
X110164955Y-57143238D01*
X110157401Y-57200622D01*
X110149501Y-57260636D01*
X110149500Y-57260645D01*
X110149500Y-59239363D01*
X110164953Y-59356753D01*
X110164956Y-59356762D01*
X110221634Y-59493596D01*
X110225464Y-59502841D01*
X110321718Y-59628282D01*
X110447159Y-59724536D01*
X110593238Y-59785044D01*
X110710639Y-59800500D01*
X111589360Y-59800499D01*
X111589363Y-59800499D01*
X111706753Y-59785046D01*
X111706757Y-59785044D01*
X111706762Y-59785044D01*
X111852841Y-59724536D01*
X111978282Y-59628282D01*
X112074536Y-59502841D01*
X112135044Y-59356762D01*
X112150500Y-59239361D01*
X112150499Y-57260640D01*
X112150499Y-57260639D01*
X112150499Y-57260636D01*
X112135046Y-57143246D01*
X112135044Y-57143241D01*
X112135044Y-57143238D01*
X112074536Y-56997159D01*
X112074535Y-56997158D01*
X112074535Y-56997157D01*
X112060760Y-56979205D01*
X112048544Y-56959804D01*
X111863908Y-56595726D01*
X111850500Y-56539641D01*
X111850500Y-56026079D01*
X111821659Y-55881092D01*
X111821658Y-55881091D01*
X111821658Y-55881087D01*
X111816048Y-55867544D01*
X111765087Y-55744511D01*
X111765080Y-55744498D01*
X111682952Y-55621585D01*
X111678849Y-55617482D01*
X111578416Y-55517049D01*
X110978421Y-54917052D01*
X110978414Y-54917046D01*
X110904729Y-54867812D01*
X110904729Y-54867813D01*
X110855491Y-54834913D01*
X110718917Y-54778343D01*
X110718907Y-54778340D01*
X110573920Y-54749500D01*
X110573918Y-54749500D01*
X104657331Y-54749500D01*
X104629644Y-54746369D01*
X104625104Y-54745329D01*
X104625088Y-54745326D01*
X104110500Y-54702835D01*
X104101764Y-54702326D01*
X104101751Y-54702326D01*
X104089452Y-54701610D01*
X104078842Y-54699500D01*
X103921158Y-54699500D01*
X103904725Y-54702768D01*
X103893210Y-54702794D01*
X103889490Y-54702835D01*
X103374899Y-54745327D01*
X103346020Y-54748675D01*
X103331743Y-54749500D01*
X99112230Y-54749500D01*
X99045191Y-54729815D01*
X99024549Y-54713181D01*
X96728421Y-52417052D01*
X96728414Y-52417046D01*
X96654729Y-52367812D01*
X96654729Y-52367813D01*
X96605491Y-52334913D01*
X96468917Y-52278343D01*
X96468907Y-52278340D01*
X96323920Y-52249500D01*
X96323918Y-52249500D01*
X93676082Y-52249500D01*
X93676076Y-52249500D01*
X93647242Y-52255234D01*
X93647243Y-52255235D01*
X93531093Y-52278339D01*
X93531083Y-52278342D01*
X93451081Y-52311479D01*
X93451082Y-52311480D01*
X93394502Y-52334917D01*
X93345269Y-52367813D01*
X93271588Y-52417044D01*
X93271580Y-52417050D01*
X91567049Y-54121581D01*
X91523949Y-54186085D01*
X91523950Y-54186086D01*
X91484914Y-54244508D01*
X91428343Y-54381082D01*
X91428340Y-54381092D01*
X91399500Y-54526079D01*
X91399500Y-56558389D01*
X91389353Y-56607516D01*
X91195638Y-57056450D01*
X91187625Y-57076144D01*
X91187275Y-57077061D01*
X91187271Y-57077072D01*
X91177849Y-57108543D01*
X91177847Y-57108553D01*
X91174002Y-57121397D01*
X91164956Y-57143238D01*
X91149500Y-57260639D01*
X91149500Y-57267546D01*
X91149500Y-57267547D01*
X91149500Y-59239363D01*
X91164953Y-59356753D01*
X91164956Y-59356762D01*
X91221634Y-59493596D01*
X91225464Y-59502841D01*
X91321718Y-59628282D01*
X91447159Y-59724536D01*
X91593238Y-59785044D01*
X91710639Y-59800500D01*
X92589360Y-59800499D01*
X92589363Y-59800499D01*
X92706753Y-59785046D01*
X92706757Y-59785044D01*
X92706762Y-59785044D01*
X92852841Y-59724536D01*
X92978282Y-59628282D01*
X93074536Y-59502841D01*
X93135044Y-59356762D01*
X93150500Y-59239361D01*
X93150499Y-57260640D01*
X93142089Y-57196756D01*
X93141993Y-57195347D01*
X93141819Y-57194705D01*
X93135044Y-57143238D01*
X93125592Y-57120420D01*
X93117367Y-57100562D01*
X93112242Y-57085531D01*
X93104371Y-57056475D01*
X93104368Y-57056468D01*
X93104360Y-57056450D01*
X92910646Y-56607516D01*
X92900500Y-56558391D01*
X92900500Y-54962229D01*
X92920185Y-54895190D01*
X92936815Y-54874552D01*
X93437819Y-54373547D01*
X93499142Y-54340063D01*
X93568834Y-54345047D01*
X93624767Y-54386919D01*
X93649184Y-54452383D01*
X93649500Y-54461229D01*
X93649500Y-55557870D01*
X93649501Y-55557876D01*
X93655908Y-55617483D01*
X93706202Y-55752328D01*
X93706206Y-55752335D01*
X93792452Y-55867544D01*
X93792455Y-55867547D01*
X93907664Y-55953793D01*
X93907671Y-55953797D01*
X94039082Y-56002810D01*
X94095016Y-56044681D01*
X94119433Y-56110145D01*
X94104582Y-56178418D01*
X94083431Y-56206673D01*
X93969889Y-56320215D01*
X93844951Y-56492179D01*
X93748444Y-56681585D01*
X93682753Y-56883760D01*
X93649500Y-57093713D01*
X93649500Y-57306286D01*
X93682753Y-57516239D01*
X93748444Y-57718414D01*
X93844951Y-57907820D01*
X93969890Y-58079786D01*
X94120213Y-58230109D01*
X94292179Y-58355048D01*
X94292181Y-58355049D01*
X94292184Y-58355051D01*
X94301493Y-58359794D01*
X94352290Y-58407766D01*
X94369087Y-58475587D01*
X94346552Y-58541722D01*
X94301505Y-58580760D01*
X94292446Y-58585376D01*
X94292440Y-58585380D01*
X94238282Y-58624727D01*
X94238282Y-58624728D01*
X94870591Y-59257037D01*
X94807007Y-59274075D01*
X94692993Y-59339901D01*
X94599901Y-59432993D01*
X94534075Y-59547007D01*
X94517037Y-59610591D01*
X93884728Y-58978282D01*
X93884727Y-58978282D01*
X93845380Y-59032439D01*
X93748904Y-59221782D01*
X93683242Y-59423869D01*
X93683242Y-59423872D01*
X93650000Y-59633753D01*
X93650000Y-59846246D01*
X93683242Y-60056127D01*
X93683242Y-60056130D01*
X93748904Y-60258217D01*
X93845379Y-60447557D01*
X93958034Y-60602615D01*
X93962265Y-60614474D01*
X93970510Y-60623989D01*
X93973783Y-60646755D01*
X93981514Y-60668421D01*
X93978662Y-60680684D01*
X93980454Y-60693147D01*
X93970897Y-60714072D01*
X93965688Y-60736475D01*
X93956659Y-60745248D01*
X93951429Y-60756703D01*
X93932076Y-60769139D01*
X93915582Y-60785170D01*
X93901836Y-60788573D01*
X93892651Y-60794477D01*
X93857716Y-60799500D01*
X93762516Y-60799500D01*
X93750355Y-60798902D01*
X93748496Y-60798719D01*
X93743217Y-60798198D01*
X93718309Y-60796364D01*
X93717190Y-60796310D01*
X93717163Y-60796310D01*
X93634629Y-60798719D01*
X93623472Y-60799500D01*
X90686670Y-60799500D01*
X90686654Y-60799499D01*
X90679058Y-60799499D01*
X90520943Y-60799499D01*
X90444579Y-60819961D01*
X90368214Y-60840423D01*
X90368209Y-60840426D01*
X90231290Y-60919475D01*
X90231282Y-60919481D01*
X89269481Y-61881282D01*
X89269477Y-61881287D01*
X89247437Y-61919463D01*
X89247434Y-61919469D01*
X89243616Y-61926083D01*
X89190423Y-62018215D01*
X89164242Y-62115921D01*
X89160883Y-62123854D01*
X89143988Y-62144483D01*
X89130109Y-62167254D01*
X89122190Y-62171100D01*
X89116614Y-62177910D01*
X89091248Y-62186130D01*
X89067262Y-62197783D01*
X89051145Y-62199128D01*
X89050148Y-62199452D01*
X89049456Y-62199269D01*
X89046699Y-62199500D01*
X88410636Y-62199500D01*
X88293246Y-62214953D01*
X88293237Y-62214956D01*
X88147160Y-62275463D01*
X88021718Y-62371718D01*
X87925463Y-62497160D01*
X87864956Y-62643237D01*
X87864955Y-62643239D01*
X87849501Y-62760629D01*
X87849500Y-62760640D01*
X84500500Y-62760640D01*
X84500500Y-59239324D01*
X87850001Y-59239324D01*
X87865442Y-59356628D01*
X87865444Y-59356633D01*
X87925899Y-59502585D01*
X88022075Y-59627924D01*
X88147413Y-59724100D01*
X88293365Y-59784554D01*
X88293369Y-59784555D01*
X88410676Y-59799999D01*
X88599999Y-59799999D01*
X89100000Y-59799999D01*
X89289324Y-59799999D01*
X89406628Y-59784557D01*
X89406633Y-59784555D01*
X89552585Y-59724100D01*
X89677924Y-59627924D01*
X89774100Y-59502586D01*
X89834554Y-59356634D01*
X89834555Y-59356630D01*
X89849999Y-59239330D01*
X89850000Y-59239316D01*
X89850000Y-58500000D01*
X89100000Y-58500000D01*
X89100000Y-59799999D01*
X88599999Y-59799999D01*
X88600000Y-59799998D01*
X88600000Y-58500000D01*
X87850001Y-58500000D01*
X87850001Y-59239324D01*
X84500500Y-59239324D01*
X84500500Y-57260669D01*
X87850000Y-57260669D01*
X87850000Y-58000000D01*
X88600000Y-58000000D01*
X89100000Y-58000000D01*
X89849999Y-58000000D01*
X89849999Y-57260683D01*
X89849997Y-57260668D01*
X89834557Y-57143371D01*
X89834555Y-57143366D01*
X89774100Y-56997414D01*
X89677924Y-56872075D01*
X89552586Y-56775899D01*
X89406634Y-56715445D01*
X89406630Y-56715444D01*
X89289330Y-56700000D01*
X89100000Y-56700000D01*
X89100000Y-58000000D01*
X88600000Y-58000000D01*
X88600000Y-56700000D01*
X88410675Y-56700000D01*
X88293371Y-56715442D01*
X88293366Y-56715444D01*
X88147414Y-56775899D01*
X88022075Y-56872075D01*
X87925899Y-56997413D01*
X87865445Y-57143365D01*
X87865444Y-57143369D01*
X87850000Y-57260669D01*
X84500500Y-57260669D01*
X84500500Y-47004427D01*
X84500816Y-46995581D01*
X84515130Y-46795443D01*
X84515131Y-46795434D01*
X84517646Y-46777938D01*
X84559356Y-46586199D01*
X84564333Y-46569248D01*
X84632911Y-46385385D01*
X84640259Y-46369298D01*
X84702815Y-46254734D01*
X84734291Y-46197089D01*
X84743845Y-46182221D01*
X84861448Y-46025123D01*
X84873020Y-46011769D01*
X85011769Y-45873020D01*
X85025123Y-45861448D01*
X85182221Y-45743845D01*
X85197089Y-45734291D01*
X85369298Y-45640258D01*
X85385385Y-45632911D01*
X85569248Y-45564333D01*
X85586199Y-45559356D01*
X85777938Y-45517646D01*
X85795436Y-45515130D01*
X85995582Y-45500816D01*
X86004428Y-45500500D01*
X86065892Y-45500500D01*
X113934108Y-45500500D01*
X113995572Y-45500500D01*
X114004418Y-45500816D01*
G37*
%TD.AperFunction*%
%TD*%
%TA.AperFunction,Conductor*%
%TO.N,+5V*%
G36*
X111657534Y-85253767D02*
G01*
X112143532Y-85496766D01*
X112149400Y-85503531D01*
X112150000Y-85507231D01*
X112150000Y-85992769D01*
X112146573Y-86001042D01*
X112143532Y-86003234D01*
X111657534Y-86246232D01*
X111648602Y-86246867D01*
X111644037Y-86244048D01*
X111343891Y-85944502D01*
X111157296Y-85758280D01*
X111153862Y-85750012D01*
X111157280Y-85741735D01*
X111644037Y-85255950D01*
X111652314Y-85252532D01*
X111657534Y-85253767D01*
G37*
%TD.AperFunction*%
%TD*%
%TA.AperFunction,Conductor*%
%TO.N,+5V*%
G36*
X106439227Y-83839080D02*
G01*
X106678734Y-83997984D01*
X106682015Y-84001265D01*
X106840919Y-84240772D01*
X106842638Y-84249560D01*
X106838734Y-84256166D01*
X106444807Y-84589998D01*
X106436280Y-84592732D01*
X106428970Y-84589345D01*
X106090654Y-84251029D01*
X106087227Y-84242756D01*
X106090001Y-84235192D01*
X106289913Y-83999293D01*
X106423834Y-83841264D01*
X106431796Y-83837169D01*
X106439227Y-83839080D01*
G37*
%TD.AperFunction*%
%TD*%
%TA.AperFunction,Conductor*%
%TO.N,+5V*%
G36*
X92649644Y-85546747D02*
G01*
X92655181Y-85551529D01*
X93175630Y-86418942D01*
X93176948Y-86427800D01*
X93173870Y-86433235D01*
X92829864Y-86777241D01*
X92822420Y-86780639D01*
X92558665Y-86799384D01*
X92550170Y-86796552D01*
X92546904Y-86791882D01*
X92153352Y-85759937D01*
X92153606Y-85750986D01*
X92159824Y-85744951D01*
X92640689Y-85546732D01*
X92649644Y-85546747D01*
G37*
%TD.AperFunction*%
%TD*%
%TA.AperFunction,Conductor*%
%TO.N,Net-(J1-Pin_4)*%
G36*
X104555277Y-83514902D02*
G01*
X104685097Y-83644722D01*
X104688524Y-83652995D01*
X104687422Y-83657953D01*
X104455193Y-84154373D01*
X104448583Y-84160414D01*
X104439637Y-84160013D01*
X104438127Y-84159164D01*
X104201265Y-84002015D01*
X104197984Y-83998734D01*
X104040835Y-83761872D01*
X104039116Y-83753084D01*
X104044116Y-83745655D01*
X104045621Y-83744808D01*
X104542048Y-83512576D01*
X104550992Y-83512176D01*
X104555277Y-83514902D01*
G37*
%TD.AperFunction*%
%TD*%
%TA.AperFunction,Conductor*%
%TO.N,Net-(J1-Pin_4)*%
G36*
X93693667Y-61301264D02*
G01*
X95152996Y-61445068D01*
X95160893Y-61449290D01*
X95163492Y-61457859D01*
X95163326Y-61458981D01*
X95001942Y-62275233D01*
X94996975Y-62282685D01*
X94996958Y-62282696D01*
X94304378Y-62744810D01*
X94295594Y-62746552D01*
X94288152Y-62741572D01*
X94287374Y-62740218D01*
X93682030Y-61502433D01*
X93680840Y-61497293D01*
X93680840Y-61312909D01*
X93684267Y-61304636D01*
X93692540Y-61301209D01*
X93693667Y-61301264D01*
G37*
%TD.AperFunction*%
%TD*%
%TA.AperFunction,Conductor*%
%TO.N,GND*%
G36*
X99969236Y-81641473D02*
G01*
X99675000Y-81701000D01*
X99380764Y-81641473D01*
X99575000Y-81105764D01*
X99775000Y-81105764D01*
X99969236Y-81641473D01*
G37*
%TD.AperFunction*%
%TD*%
%TA.AperFunction,Conductor*%
%TO.N,GND*%
G36*
X87594236Y-58000000D02*
G01*
X87594236Y-58500000D01*
X87058527Y-58544236D01*
X86999000Y-58250000D01*
X87058527Y-57955764D01*
X87594236Y-58000000D01*
G37*
%TD.AperFunction*%
%TD*%
%TA.AperFunction,Conductor*%
%TO.N,+5V*%
G36*
X92649644Y-129546747D02*
G01*
X92655181Y-129551529D01*
X93175630Y-130418942D01*
X93176948Y-130427800D01*
X93173870Y-130433235D01*
X92829864Y-130777241D01*
X92822420Y-130780639D01*
X92558665Y-130799384D01*
X92550170Y-130796552D01*
X92546904Y-130791882D01*
X92153352Y-129759937D01*
X92153606Y-129750986D01*
X92159824Y-129744951D01*
X92640689Y-129546732D01*
X92649644Y-129546747D01*
G37*
%TD.AperFunction*%
%TD*%
%TA.AperFunction,Conductor*%
%TO.N,+5V*%
G36*
X105584001Y-108056456D02*
G01*
X105591430Y-108061456D01*
X105593338Y-108068930D01*
X105548923Y-108583542D01*
X105544797Y-108591490D01*
X105537266Y-108594236D01*
X105058814Y-108594236D01*
X105050541Y-108590809D01*
X105047150Y-108583456D01*
X105006584Y-108068930D01*
X105006578Y-108068857D01*
X105009344Y-108060342D01*
X105015919Y-108056472D01*
X105297682Y-107999469D01*
X105302318Y-107999469D01*
X105584001Y-108056456D01*
G37*
%TD.AperFunction*%
%TD*%
%TA.AperFunction,Conductor*%
%TO.N,+5V*%
G36*
X103835727Y-65078393D02*
G01*
X103838703Y-65080552D01*
X104151505Y-65393354D01*
X104154932Y-65401627D01*
X104151505Y-65409900D01*
X104143232Y-65413327D01*
X104140498Y-65413003D01*
X103720169Y-65311988D01*
X103712926Y-65306723D01*
X103711527Y-65297878D01*
X103712468Y-65295321D01*
X103819998Y-65083527D01*
X103826798Y-65077703D01*
X103835727Y-65078393D01*
G37*
%TD.AperFunction*%
%TD*%
%TA.AperFunction,Conductor*%
%TO.N,+5V*%
G36*
X111657534Y-151253767D02*
G01*
X112143532Y-151496766D01*
X112149400Y-151503531D01*
X112150000Y-151507231D01*
X112150000Y-151992769D01*
X112146573Y-152001042D01*
X112143532Y-152003234D01*
X111657534Y-152246232D01*
X111648602Y-152246867D01*
X111644037Y-152244048D01*
X111343891Y-151944502D01*
X111157296Y-151758280D01*
X111153862Y-151750012D01*
X111157280Y-151741735D01*
X111644037Y-151255950D01*
X111652314Y-151252532D01*
X111657534Y-151253767D01*
G37*
%TD.AperFunction*%
%TD*%
%TA.AperFunction,Conductor*%
%TO.N,+5V*%
G36*
X111154522Y-217767862D02*
G01*
X111160227Y-217774148D01*
X111550917Y-218794123D01*
X111550676Y-218803075D01*
X111550050Y-218804284D01*
X111193042Y-219405256D01*
X111185870Y-219410618D01*
X111177007Y-219409339D01*
X111174710Y-219407553D01*
X110833032Y-219065875D01*
X110830983Y-219063111D01*
X110687422Y-218794123D01*
X110660453Y-218743592D01*
X110659582Y-218734682D01*
X110660299Y-218732877D01*
X111138831Y-217773110D01*
X111145589Y-217767238D01*
X111154522Y-217767862D01*
G37*
%TD.AperFunction*%
%TD*%
%TA.AperFunction,Conductor*%
%TO.N,+5V*%
G36*
X111191256Y-150092446D02*
G01*
X111193042Y-150094743D01*
X111550049Y-150695714D01*
X111551328Y-150704577D01*
X111550916Y-150705875D01*
X111160227Y-151725851D01*
X111154068Y-151732351D01*
X111145116Y-151732592D01*
X111138830Y-151726887D01*
X110660304Y-150767132D01*
X110659681Y-150758202D01*
X110660449Y-150756415D01*
X110830985Y-150436884D01*
X110833029Y-150434127D01*
X111174711Y-150092445D01*
X111182983Y-150089019D01*
X111191256Y-150092446D01*
G37*
%TD.AperFunction*%
%TD*%
%TA.AperFunction,Conductor*%
%TO.N,+5V*%
G36*
X111657534Y-129253767D02*
G01*
X112143532Y-129496766D01*
X112149400Y-129503531D01*
X112150000Y-129507231D01*
X112150000Y-129992769D01*
X112146573Y-130001042D01*
X112143532Y-130003234D01*
X111657534Y-130246232D01*
X111648602Y-130246867D01*
X111644037Y-130244048D01*
X111343891Y-129944502D01*
X111157296Y-129758280D01*
X111153862Y-129750012D01*
X111157280Y-129741735D01*
X111644037Y-129255950D01*
X111652314Y-129252532D01*
X111657534Y-129253767D01*
G37*
%TD.AperFunction*%
%TD*%
%TA.AperFunction,Conductor*%
%TO.N,+5V*%
G36*
X111657534Y-173253767D02*
G01*
X112143532Y-173496766D01*
X112149400Y-173503531D01*
X112150000Y-173507231D01*
X112150000Y-173992769D01*
X112146573Y-174001042D01*
X112143532Y-174003234D01*
X111657534Y-174246232D01*
X111648602Y-174246867D01*
X111644037Y-174244048D01*
X111343891Y-173944502D01*
X111157296Y-173758280D01*
X111153862Y-173750012D01*
X111157280Y-173741735D01*
X111644037Y-173255950D01*
X111652314Y-173252532D01*
X111657534Y-173253767D01*
G37*
%TD.AperFunction*%
%TD*%
%TA.AperFunction,Conductor*%
%TO.N,+5V*%
G36*
X111191256Y-62092446D02*
G01*
X111193042Y-62094743D01*
X111550049Y-62695714D01*
X111551328Y-62704577D01*
X111550916Y-62705875D01*
X111160227Y-63725851D01*
X111154068Y-63732351D01*
X111145116Y-63732592D01*
X111138830Y-63726887D01*
X110660304Y-62767132D01*
X110659681Y-62758202D01*
X110660449Y-62756415D01*
X110830985Y-62436884D01*
X110833029Y-62434127D01*
X111174711Y-62092445D01*
X111182983Y-62089019D01*
X111191256Y-62092446D01*
G37*
%TD.AperFunction*%
%TD*%
%TA.AperFunction,Conductor*%
%TO.N,+5V*%
G36*
X111191256Y-172092446D02*
G01*
X111193042Y-172094743D01*
X111550049Y-172695714D01*
X111551328Y-172704577D01*
X111550916Y-172705875D01*
X111160227Y-173725851D01*
X111154068Y-173732351D01*
X111145116Y-173732592D01*
X111138830Y-173726887D01*
X110660304Y-172767132D01*
X110659681Y-172758202D01*
X110660449Y-172756415D01*
X110830985Y-172436884D01*
X110833029Y-172434127D01*
X111174711Y-172092445D01*
X111182983Y-172089019D01*
X111191256Y-172092446D01*
G37*
%TD.AperFunction*%
%TD*%
%TA.AperFunction,Conductor*%
%TO.N,+5V*%
G36*
X92649644Y-195546747D02*
G01*
X92655181Y-195551529D01*
X93175630Y-196418942D01*
X93176948Y-196427800D01*
X93173870Y-196433235D01*
X92829864Y-196777241D01*
X92822420Y-196780639D01*
X92558665Y-196799384D01*
X92550170Y-196796552D01*
X92546904Y-196791882D01*
X92153352Y-195759937D01*
X92153606Y-195750986D01*
X92159824Y-195744951D01*
X92640689Y-195546732D01*
X92649644Y-195546747D01*
G37*
%TD.AperFunction*%
%TD*%
%TA.AperFunction,Conductor*%
%TO.N,+5V*%
G36*
X92649644Y-217546747D02*
G01*
X92655181Y-217551529D01*
X93175630Y-218418942D01*
X93176948Y-218427800D01*
X93173870Y-218433235D01*
X92829864Y-218777241D01*
X92822420Y-218780639D01*
X92558665Y-218799384D01*
X92550170Y-218796552D01*
X92546904Y-218791882D01*
X92153352Y-217759937D01*
X92153606Y-217750986D01*
X92159824Y-217744951D01*
X92640689Y-217546732D01*
X92649644Y-217546747D01*
G37*
%TD.AperFunction*%
%TD*%
%TA.AperFunction,Conductor*%
%TO.N,+5V*%
G36*
X92649644Y-151546747D02*
G01*
X92655181Y-151551529D01*
X93175630Y-152418942D01*
X93176948Y-152427800D01*
X93173870Y-152433235D01*
X92829864Y-152777241D01*
X92822420Y-152780639D01*
X92558665Y-152799384D01*
X92550170Y-152796552D01*
X92546904Y-152791882D01*
X92153352Y-151759937D01*
X92153606Y-151750986D01*
X92159824Y-151744951D01*
X92640689Y-151546732D01*
X92649644Y-151546747D01*
G37*
%TD.AperFunction*%
%TD*%
%TA.AperFunction,Conductor*%
%TO.N,+5V*%
G36*
X92155213Y-107764782D02*
G01*
X92160474Y-107770043D01*
X92639967Y-108733405D01*
X92640586Y-108742338D01*
X92640236Y-108743253D01*
X92403049Y-109292935D01*
X92396624Y-109299174D01*
X92392306Y-109300000D01*
X91907694Y-109300000D01*
X91899421Y-109296573D01*
X91896951Y-109292935D01*
X91659763Y-108743253D01*
X91659632Y-108734300D01*
X91660032Y-108733405D01*
X92139526Y-107770043D01*
X92146280Y-107764163D01*
X92155213Y-107764782D01*
G37*
%TD.AperFunction*%
%TD*%
%TA.AperFunction,Conductor*%
%TO.N,+5V*%
G36*
X92155213Y-63764782D02*
G01*
X92160474Y-63770043D01*
X92639967Y-64733405D01*
X92640586Y-64742338D01*
X92640236Y-64743253D01*
X92403049Y-65292935D01*
X92396624Y-65299174D01*
X92392306Y-65300000D01*
X91907694Y-65300000D01*
X91899421Y-65296573D01*
X91896951Y-65292935D01*
X91659763Y-64743253D01*
X91659632Y-64734300D01*
X91660032Y-64733405D01*
X92139526Y-63770043D01*
X92146280Y-63764163D01*
X92155213Y-63764782D01*
G37*
%TD.AperFunction*%
%TD*%
%TA.AperFunction,Conductor*%
%TO.N,+5V*%
G36*
X92649644Y-173546747D02*
G01*
X92655181Y-173551529D01*
X93175630Y-174418942D01*
X93176948Y-174427800D01*
X93173870Y-174433235D01*
X92829864Y-174777241D01*
X92822420Y-174780639D01*
X92558665Y-174799384D01*
X92550170Y-174796552D01*
X92546904Y-174791882D01*
X92153352Y-173759937D01*
X92153606Y-173750986D01*
X92159824Y-173744951D01*
X92640689Y-173546732D01*
X92649644Y-173546747D01*
G37*
%TD.AperFunction*%
%TD*%
%TA.AperFunction,Conductor*%
%TO.N,+5V*%
G36*
X111657534Y-195253767D02*
G01*
X112143532Y-195496766D01*
X112149400Y-195503531D01*
X112150000Y-195507231D01*
X112150000Y-195992769D01*
X112146573Y-196001042D01*
X112143532Y-196003234D01*
X111657534Y-196246232D01*
X111648602Y-196246867D01*
X111644037Y-196244048D01*
X111343891Y-195944502D01*
X111157296Y-195758280D01*
X111153862Y-195750012D01*
X111157280Y-195741735D01*
X111644037Y-195255950D01*
X111652314Y-195252532D01*
X111657534Y-195253767D01*
G37*
%TD.AperFunction*%
%TD*%
%TA.AperFunction,Conductor*%
%TO.N,+5V*%
G36*
X111191256Y-128092446D02*
G01*
X111193042Y-128094743D01*
X111550049Y-128695714D01*
X111551328Y-128704577D01*
X111550916Y-128705875D01*
X111160227Y-129725851D01*
X111154068Y-129732351D01*
X111145116Y-129732592D01*
X111138830Y-129726887D01*
X110660304Y-128767132D01*
X110659681Y-128758202D01*
X110660449Y-128756415D01*
X110830985Y-128436884D01*
X110833029Y-128434127D01*
X111174711Y-128092445D01*
X111182983Y-128089019D01*
X111191256Y-128092446D01*
G37*
%TD.AperFunction*%
%TD*%
%TA.AperFunction,Conductor*%
%TO.N,+5V*%
G36*
X111191256Y-194092446D02*
G01*
X111193042Y-194094743D01*
X111550049Y-194695714D01*
X111551328Y-194704577D01*
X111550916Y-194705875D01*
X111160227Y-195725851D01*
X111154068Y-195732351D01*
X111145116Y-195732592D01*
X111138830Y-195726887D01*
X110660304Y-194767132D01*
X110659681Y-194758202D01*
X110660449Y-194756415D01*
X110830985Y-194436884D01*
X110833029Y-194434127D01*
X111174711Y-194092445D01*
X111182983Y-194089019D01*
X111191256Y-194092446D01*
G37*
%TD.AperFunction*%
%TD*%
%TA.AperFunction,Conductor*%
%TO.N,Net-(D1-DOUT)*%
G36*
X108349644Y-63546747D02*
G01*
X108355181Y-63551529D01*
X108875630Y-64418942D01*
X108876948Y-64427800D01*
X108873870Y-64433235D01*
X108529864Y-64777241D01*
X108522420Y-64780639D01*
X108258665Y-64799384D01*
X108250170Y-64796552D01*
X108246904Y-64791882D01*
X107853352Y-63759937D01*
X107853606Y-63750986D01*
X107859824Y-63744951D01*
X108340689Y-63546732D01*
X108349644Y-63546747D01*
G37*
%TD.AperFunction*%
%TD*%
%TA.AperFunction,Conductor*%
%TO.N,Net-(D1-DOUT)*%
G36*
X111400579Y-78703427D02*
G01*
X111403049Y-78707065D01*
X111640236Y-79256746D01*
X111640367Y-79265699D01*
X111639967Y-79266594D01*
X111160474Y-80229956D01*
X111153720Y-80235836D01*
X111144787Y-80235217D01*
X111139526Y-80229956D01*
X110660032Y-79266594D01*
X110659413Y-79257661D01*
X110659763Y-79256746D01*
X110896951Y-78707065D01*
X110903376Y-78700826D01*
X110907694Y-78700000D01*
X111392306Y-78700000D01*
X111400579Y-78703427D01*
G37*
%TD.AperFunction*%
%TD*%
%TA.AperFunction,Conductor*%
%TO.N,Net-(D2-DOUT)*%
G36*
X111400579Y-100703427D02*
G01*
X111403049Y-100707065D01*
X111640236Y-101256746D01*
X111640367Y-101265699D01*
X111639967Y-101266594D01*
X111160474Y-102229956D01*
X111153720Y-102235836D01*
X111144787Y-102235217D01*
X111139526Y-102229956D01*
X110660032Y-101266594D01*
X110659413Y-101257661D01*
X110659763Y-101256746D01*
X110896951Y-100707065D01*
X110903376Y-100700826D01*
X110907694Y-100700000D01*
X111392306Y-100700000D01*
X111400579Y-100703427D01*
G37*
%TD.AperFunction*%
%TD*%
%TA.AperFunction,Conductor*%
%TO.N,Net-(D2-DOUT)*%
G36*
X108349644Y-85546747D02*
G01*
X108355181Y-85551529D01*
X108875630Y-86418942D01*
X108876948Y-86427800D01*
X108873870Y-86433235D01*
X108529864Y-86777241D01*
X108522420Y-86780639D01*
X108258665Y-86799384D01*
X108250170Y-86796552D01*
X108246904Y-86791882D01*
X107853352Y-85759937D01*
X107853606Y-85750986D01*
X107859824Y-85744951D01*
X108340689Y-85546732D01*
X108349644Y-85546747D01*
G37*
%TD.AperFunction*%
%TD*%
%TA.AperFunction,Conductor*%
%TO.N,Net-(D1-DIN)*%
G36*
X92400579Y-56703427D02*
G01*
X92403049Y-56707065D01*
X92640236Y-57256746D01*
X92640367Y-57265699D01*
X92639967Y-57266594D01*
X92160474Y-58229956D01*
X92153720Y-58235836D01*
X92144787Y-58235217D01*
X92139526Y-58229956D01*
X91660032Y-57266594D01*
X91659413Y-57257661D01*
X91659763Y-57256746D01*
X91896951Y-56707065D01*
X91903376Y-56700826D01*
X91907694Y-56700000D01*
X92392306Y-56700000D01*
X92400579Y-56703427D01*
G37*
%TD.AperFunction*%
%TD*%
%TA.AperFunction,Conductor*%
%TO.N,Net-(D1-DIN)*%
G36*
X111351088Y-56703427D02*
G01*
X111353250Y-56706408D01*
X111614699Y-57221950D01*
X111615384Y-57230879D01*
X111614908Y-57232099D01*
X111160185Y-58228678D01*
X111153633Y-58234782D01*
X111144684Y-58234465D01*
X111139067Y-58229034D01*
X110659791Y-57266110D01*
X110659172Y-57257177D01*
X110659196Y-57257106D01*
X110847291Y-56707909D01*
X110853214Y-56701193D01*
X110858360Y-56700000D01*
X111342815Y-56700000D01*
X111351088Y-56703427D01*
G37*
%TD.AperFunction*%
%TD*%
%TA.AperFunction,Conductor*%
%TO.N,Net-(D1-DIN)*%
G36*
X104583499Y-55249113D02*
G01*
X104591462Y-55253209D01*
X104594236Y-55260773D01*
X104594236Y-55739226D01*
X104590809Y-55747499D01*
X104583499Y-55750886D01*
X104068895Y-55793379D01*
X104060368Y-55790645D01*
X104056464Y-55784039D01*
X103999469Y-55502320D01*
X103999469Y-55497680D01*
X104049578Y-55250000D01*
X104056464Y-55215959D01*
X104061464Y-55208531D01*
X104068894Y-55206620D01*
X104583499Y-55249113D01*
G37*
%TD.AperFunction*%
%TD*%
%TA.AperFunction,Conductor*%
%TO.N,Net-(D1-DIN)*%
G36*
X103939631Y-55209354D02*
G01*
X103943535Y-55215960D01*
X104000530Y-55497680D01*
X104000530Y-55502320D01*
X103943535Y-55784039D01*
X103938535Y-55791468D01*
X103931104Y-55793379D01*
X103416501Y-55750886D01*
X103408538Y-55746790D01*
X103405764Y-55739226D01*
X103405764Y-55260773D01*
X103409191Y-55252500D01*
X103416499Y-55249113D01*
X103931104Y-55206620D01*
X103939631Y-55209354D01*
G37*
%TD.AperFunction*%
%TD*%
%TA.AperFunction,Conductor*%
%TO.N,Net-(D3-DOUT)*%
G36*
X108349644Y-107546747D02*
G01*
X108355181Y-107551529D01*
X108875630Y-108418942D01*
X108876948Y-108427800D01*
X108873870Y-108433235D01*
X108529864Y-108777241D01*
X108522420Y-108780639D01*
X108258665Y-108799384D01*
X108250170Y-108796552D01*
X108246904Y-108791882D01*
X107853352Y-107759937D01*
X107853606Y-107750986D01*
X107859824Y-107744951D01*
X108340689Y-107546732D01*
X108349644Y-107546747D01*
G37*
%TD.AperFunction*%
%TD*%
%TA.AperFunction,Conductor*%
%TO.N,Net-(D3-DOUT)*%
G36*
X111400579Y-122703427D02*
G01*
X111403049Y-122707065D01*
X111640236Y-123256746D01*
X111640367Y-123265699D01*
X111639967Y-123266594D01*
X111160474Y-124229956D01*
X111153720Y-124235836D01*
X111144787Y-124235217D01*
X111139526Y-124229956D01*
X110660032Y-123266594D01*
X110659413Y-123257661D01*
X110659763Y-123256746D01*
X110896951Y-122707065D01*
X110903376Y-122700826D01*
X110907694Y-122700000D01*
X111392306Y-122700000D01*
X111400579Y-122703427D01*
G37*
%TD.AperFunction*%
%TD*%
%TA.AperFunction,Conductor*%
%TO.N,Net-(D4-DOUT)*%
G36*
X108349644Y-129546747D02*
G01*
X108355181Y-129551529D01*
X108875630Y-130418942D01*
X108876948Y-130427800D01*
X108873870Y-130433235D01*
X108529864Y-130777241D01*
X108522420Y-130780639D01*
X108258665Y-130799384D01*
X108250170Y-130796552D01*
X108246904Y-130791882D01*
X107853352Y-129759937D01*
X107853606Y-129750986D01*
X107859824Y-129744951D01*
X108340689Y-129546732D01*
X108349644Y-129546747D01*
G37*
%TD.AperFunction*%
%TD*%
%TA.AperFunction,Conductor*%
%TO.N,Net-(D4-DOUT)*%
G36*
X111400579Y-144703427D02*
G01*
X111403049Y-144707065D01*
X111640236Y-145256746D01*
X111640367Y-145265699D01*
X111639967Y-145266594D01*
X111160474Y-146229956D01*
X111153720Y-146235836D01*
X111144787Y-146235217D01*
X111139526Y-146229956D01*
X110660032Y-145266594D01*
X110659413Y-145257661D01*
X110659763Y-145256746D01*
X110896951Y-144707065D01*
X110903376Y-144700826D01*
X110907694Y-144700000D01*
X111392306Y-144700000D01*
X111400579Y-144703427D01*
G37*
%TD.AperFunction*%
%TD*%
%TA.AperFunction,Conductor*%
%TO.N,Net-(D5-DOUT)*%
G36*
X108349644Y-151546747D02*
G01*
X108355181Y-151551529D01*
X108875630Y-152418942D01*
X108876948Y-152427800D01*
X108873870Y-152433235D01*
X108529864Y-152777241D01*
X108522420Y-152780639D01*
X108258665Y-152799384D01*
X108250170Y-152796552D01*
X108246904Y-152791882D01*
X107853352Y-151759937D01*
X107853606Y-151750986D01*
X107859824Y-151744951D01*
X108340689Y-151546732D01*
X108349644Y-151546747D01*
G37*
%TD.AperFunction*%
%TD*%
%TA.AperFunction,Conductor*%
%TO.N,Net-(D5-DOUT)*%
G36*
X111400579Y-166703427D02*
G01*
X111403049Y-166707065D01*
X111640236Y-167256746D01*
X111640367Y-167265699D01*
X111639967Y-167266594D01*
X111160474Y-168229956D01*
X111153720Y-168235836D01*
X111144787Y-168235217D01*
X111139526Y-168229956D01*
X110660032Y-167266594D01*
X110659413Y-167257661D01*
X110659763Y-167256746D01*
X110896951Y-166707065D01*
X110903376Y-166700826D01*
X110907694Y-166700000D01*
X111392306Y-166700000D01*
X111400579Y-166703427D01*
G37*
%TD.AperFunction*%
%TD*%
%TA.AperFunction,Conductor*%
%TO.N,Net-(D6-DOUT)*%
G36*
X108349644Y-173546747D02*
G01*
X108355181Y-173551529D01*
X108875630Y-174418942D01*
X108876948Y-174427800D01*
X108873870Y-174433235D01*
X108529864Y-174777241D01*
X108522420Y-174780639D01*
X108258665Y-174799384D01*
X108250170Y-174796552D01*
X108246904Y-174791882D01*
X107853352Y-173759937D01*
X107853606Y-173750986D01*
X107859824Y-173744951D01*
X108340689Y-173546732D01*
X108349644Y-173546747D01*
G37*
%TD.AperFunction*%
%TD*%
%TA.AperFunction,Conductor*%
%TO.N,Net-(D6-DOUT)*%
G36*
X111400579Y-188703427D02*
G01*
X111403049Y-188707065D01*
X111640236Y-189256746D01*
X111640367Y-189265699D01*
X111639967Y-189266594D01*
X111160474Y-190229956D01*
X111153720Y-190235836D01*
X111144787Y-190235217D01*
X111139526Y-190229956D01*
X110660032Y-189266594D01*
X110659413Y-189257661D01*
X110659763Y-189256746D01*
X110896951Y-188707065D01*
X110903376Y-188700826D01*
X110907694Y-188700000D01*
X111392306Y-188700000D01*
X111400579Y-188703427D01*
G37*
%TD.AperFunction*%
%TD*%
%TA.AperFunction,Conductor*%
%TO.N,Net-(D7-DOUT)*%
G36*
X111400579Y-210703427D02*
G01*
X111403049Y-210707065D01*
X111640236Y-211256746D01*
X111640367Y-211265699D01*
X111639967Y-211266594D01*
X111160474Y-212229956D01*
X111153720Y-212235836D01*
X111144787Y-212235217D01*
X111139526Y-212229956D01*
X110660032Y-211266594D01*
X110659413Y-211257661D01*
X110659763Y-211256746D01*
X110896951Y-210707065D01*
X110903376Y-210700826D01*
X110907694Y-210700000D01*
X111392306Y-210700000D01*
X111400579Y-210703427D01*
G37*
%TD.AperFunction*%
%TD*%
%TA.AperFunction,Conductor*%
%TO.N,Net-(D7-DOUT)*%
G36*
X108349644Y-195546747D02*
G01*
X108355181Y-195551529D01*
X108875630Y-196418942D01*
X108876948Y-196427800D01*
X108873870Y-196433235D01*
X108529864Y-196777241D01*
X108522420Y-196780639D01*
X108258665Y-196799384D01*
X108250170Y-196796552D01*
X108246904Y-196791882D01*
X107853352Y-195759937D01*
X107853606Y-195750986D01*
X107859824Y-195744951D01*
X108340689Y-195546732D01*
X108349644Y-195546747D01*
G37*
%TD.AperFunction*%
%TD*%
%TA.AperFunction,Conductor*%
%TO.N,Net-(D10-DOUT)*%
G36*
X91749829Y-101203447D02*
G01*
X91753095Y-101208117D01*
X92146647Y-102240062D01*
X92146393Y-102249013D01*
X92140174Y-102255048D01*
X91659310Y-102453267D01*
X91650355Y-102453252D01*
X91644818Y-102448470D01*
X91519773Y-102240062D01*
X91124368Y-101581055D01*
X91123051Y-101572199D01*
X91126127Y-101566766D01*
X91470136Y-101222757D01*
X91477577Y-101219360D01*
X91741336Y-101200615D01*
X91749829Y-101203447D01*
G37*
%TD.AperFunction*%
%TD*%
%TA.AperFunction,Conductor*%
%TO.N,Net-(D10-DOUT)*%
G36*
X88855213Y-85764782D02*
G01*
X88860474Y-85770043D01*
X89339967Y-86733405D01*
X89340586Y-86742338D01*
X89340236Y-86743253D01*
X89103049Y-87292935D01*
X89096624Y-87299174D01*
X89092306Y-87300000D01*
X88607694Y-87300000D01*
X88599421Y-87296573D01*
X88596951Y-87292935D01*
X88359763Y-86743253D01*
X88359632Y-86734300D01*
X88360032Y-86733405D01*
X88839526Y-85770043D01*
X88846280Y-85764163D01*
X88855213Y-85764782D01*
G37*
%TD.AperFunction*%
%TD*%
%TA.AperFunction,Conductor*%
%TO.N,Net-(D10-DIN)*%
G36*
X88855213Y-63764782D02*
G01*
X88860474Y-63770043D01*
X89339967Y-64733405D01*
X89340586Y-64742338D01*
X89340236Y-64743253D01*
X89103049Y-65292935D01*
X89096624Y-65299174D01*
X89092306Y-65300000D01*
X88607694Y-65300000D01*
X88599421Y-65296573D01*
X88596951Y-65292935D01*
X88359763Y-64743253D01*
X88359632Y-64734300D01*
X88360032Y-64733405D01*
X88839526Y-63770043D01*
X88846280Y-63764163D01*
X88855213Y-63764782D01*
G37*
%TD.AperFunction*%
%TD*%
%TA.AperFunction,Conductor*%
%TO.N,Net-(D10-DIN)*%
G36*
X91749829Y-79203447D02*
G01*
X91753095Y-79208117D01*
X92146647Y-80240062D01*
X92146393Y-80249013D01*
X92140174Y-80255048D01*
X91659310Y-80453267D01*
X91650355Y-80453252D01*
X91644818Y-80448470D01*
X91519773Y-80240062D01*
X91124368Y-79581055D01*
X91123051Y-79572199D01*
X91126127Y-79566766D01*
X91470136Y-79222757D01*
X91477577Y-79219360D01*
X91741336Y-79200615D01*
X91749829Y-79203447D01*
G37*
%TD.AperFunction*%
%TD*%
%TA.AperFunction,Conductor*%
%TO.N,Net-(D11-DOUT)*%
G36*
X88855213Y-107764782D02*
G01*
X88860474Y-107770043D01*
X89339967Y-108733405D01*
X89340586Y-108742338D01*
X89340236Y-108743253D01*
X89103049Y-109292935D01*
X89096624Y-109299174D01*
X89092306Y-109300000D01*
X88607694Y-109300000D01*
X88599421Y-109296573D01*
X88596951Y-109292935D01*
X88359763Y-108743253D01*
X88359632Y-108734300D01*
X88360032Y-108733405D01*
X88839526Y-107770043D01*
X88846280Y-107764163D01*
X88855213Y-107764782D01*
G37*
%TD.AperFunction*%
%TD*%
%TA.AperFunction,Conductor*%
%TO.N,Net-(D11-DOUT)*%
G36*
X91749829Y-123203447D02*
G01*
X91753095Y-123208117D01*
X92146647Y-124240062D01*
X92146393Y-124249013D01*
X92140174Y-124255048D01*
X91659310Y-124453267D01*
X91650355Y-124453252D01*
X91644818Y-124448470D01*
X91519773Y-124240062D01*
X91124368Y-123581055D01*
X91123051Y-123572199D01*
X91126127Y-123566766D01*
X91470136Y-123222757D01*
X91477577Y-123219360D01*
X91741336Y-123200615D01*
X91749829Y-123203447D01*
G37*
%TD.AperFunction*%
%TD*%
%TA.AperFunction,Conductor*%
%TO.N,Net-(D12-DOUT)*%
G36*
X91749829Y-145203447D02*
G01*
X91753095Y-145208117D01*
X92146647Y-146240062D01*
X92146393Y-146249013D01*
X92140174Y-146255048D01*
X91659310Y-146453267D01*
X91650355Y-146453252D01*
X91644818Y-146448470D01*
X91519773Y-146240062D01*
X91124368Y-145581055D01*
X91123051Y-145572199D01*
X91126127Y-145566766D01*
X91470136Y-145222757D01*
X91477577Y-145219360D01*
X91741336Y-145200615D01*
X91749829Y-145203447D01*
G37*
%TD.AperFunction*%
%TD*%
%TA.AperFunction,Conductor*%
%TO.N,Net-(D12-DOUT)*%
G36*
X88855213Y-129764782D02*
G01*
X88860474Y-129770043D01*
X89339967Y-130733405D01*
X89340586Y-130742338D01*
X89340236Y-130743253D01*
X89103049Y-131292935D01*
X89096624Y-131299174D01*
X89092306Y-131300000D01*
X88607694Y-131300000D01*
X88599421Y-131296573D01*
X88596951Y-131292935D01*
X88359763Y-130743253D01*
X88359632Y-130734300D01*
X88360032Y-130733405D01*
X88839526Y-129770043D01*
X88846280Y-129764163D01*
X88855213Y-129764782D01*
G37*
%TD.AperFunction*%
%TD*%
%TA.AperFunction,Conductor*%
%TO.N,Net-(J1-Pin_5)*%
G36*
X93887033Y-63561037D02*
G01*
X94146245Y-63647244D01*
X95156040Y-63983078D01*
X95162808Y-63988939D01*
X95163824Y-63996450D01*
X95002227Y-64813021D01*
X94997260Y-64820472D01*
X94993021Y-64822227D01*
X94176450Y-64983824D01*
X94167669Y-64982069D01*
X94163078Y-64976040D01*
X93741037Y-63707033D01*
X93741678Y-63698101D01*
X93743863Y-63695071D01*
X93875069Y-63563865D01*
X93883341Y-63560439D01*
X93887033Y-63561037D01*
G37*
%TD.AperFunction*%
%TD*%
%TA.AperFunction,Conductor*%
%TO.N,Net-(J1-Pin_5)*%
G36*
X103656703Y-84422538D02*
G01*
X104171946Y-84609353D01*
X104178555Y-84615393D01*
X104179657Y-84620351D01*
X104179657Y-84803946D01*
X104176230Y-84812219D01*
X104171945Y-84814945D01*
X103656711Y-85001757D01*
X103647765Y-85001356D01*
X103641724Y-84994746D01*
X103641258Y-84993088D01*
X103584890Y-84714467D01*
X103584890Y-84709829D01*
X103641256Y-84431216D01*
X103646255Y-84423790D01*
X103655043Y-84422071D01*
X103656703Y-84422538D01*
G37*
%TD.AperFunction*%
%TD*%
%TA.AperFunction,Conductor*%
%TO.N,Net-(J1-Pin_1)*%
G36*
X106300070Y-76906191D02*
G01*
X106302796Y-76910476D01*
X106489608Y-77425709D01*
X106489207Y-77434655D01*
X106482597Y-77440696D01*
X106480929Y-77441165D01*
X106202320Y-77497530D01*
X106197680Y-77497530D01*
X105919070Y-77441165D01*
X105911641Y-77436165D01*
X105909922Y-77427377D01*
X105910387Y-77425720D01*
X106097204Y-76910476D01*
X106103245Y-76903866D01*
X106108203Y-76902764D01*
X106291797Y-76902764D01*
X106300070Y-76906191D01*
G37*
%TD.AperFunction*%
%TD*%
%TA.AperFunction,Conductor*%
%TO.N,Net-(J1-Pin_1)*%
G36*
X106480930Y-64355835D02*
G01*
X106488358Y-64360834D01*
X106490077Y-64369622D01*
X106489608Y-64371290D01*
X106302796Y-64886524D01*
X106296755Y-64893134D01*
X106291797Y-64894236D01*
X106108203Y-64894236D01*
X106099930Y-64890809D01*
X106097204Y-64886524D01*
X106049544Y-64755078D01*
X105910391Y-64371288D01*
X105910792Y-64362344D01*
X105917402Y-64356303D01*
X105919056Y-64355837D01*
X106197682Y-64299469D01*
X106202318Y-64299469D01*
X106480930Y-64355835D01*
G37*
%TD.AperFunction*%
%TD*%
%TA.AperFunction,Conductor*%
%TO.N,Net-(D13-DOUT)*%
G36*
X88855213Y-151764782D02*
G01*
X88860474Y-151770043D01*
X89339967Y-152733405D01*
X89340586Y-152742338D01*
X89340236Y-152743253D01*
X89103049Y-153292935D01*
X89096624Y-153299174D01*
X89092306Y-153300000D01*
X88607694Y-153300000D01*
X88599421Y-153296573D01*
X88596951Y-153292935D01*
X88359763Y-152743253D01*
X88359632Y-152734300D01*
X88360032Y-152733405D01*
X88839526Y-151770043D01*
X88846280Y-151764163D01*
X88855213Y-151764782D01*
G37*
%TD.AperFunction*%
%TD*%
%TA.AperFunction,Conductor*%
%TO.N,Net-(D13-DOUT)*%
G36*
X91749829Y-167203447D02*
G01*
X91753095Y-167208117D01*
X92146647Y-168240062D01*
X92146393Y-168249013D01*
X92140174Y-168255048D01*
X91659310Y-168453267D01*
X91650355Y-168453252D01*
X91644818Y-168448470D01*
X91519773Y-168240062D01*
X91124368Y-167581055D01*
X91123051Y-167572199D01*
X91126127Y-167566766D01*
X91470136Y-167222757D01*
X91477577Y-167219360D01*
X91741336Y-167200615D01*
X91749829Y-167203447D01*
G37*
%TD.AperFunction*%
%TD*%
%TA.AperFunction,Conductor*%
%TO.N,Net-(D14-DOUT)*%
G36*
X88855213Y-173764782D02*
G01*
X88860474Y-173770043D01*
X89339967Y-174733405D01*
X89340586Y-174742338D01*
X89340236Y-174743253D01*
X89103049Y-175292935D01*
X89096624Y-175299174D01*
X89092306Y-175300000D01*
X88607694Y-175300000D01*
X88599421Y-175296573D01*
X88596951Y-175292935D01*
X88359763Y-174743253D01*
X88359632Y-174734300D01*
X88360032Y-174733405D01*
X88839526Y-173770043D01*
X88846280Y-173764163D01*
X88855213Y-173764782D01*
G37*
%TD.AperFunction*%
%TD*%
%TA.AperFunction,Conductor*%
%TO.N,Net-(D14-DOUT)*%
G36*
X91749829Y-189203447D02*
G01*
X91753095Y-189208117D01*
X92146647Y-190240062D01*
X92146393Y-190249013D01*
X92140174Y-190255048D01*
X91659310Y-190453267D01*
X91650355Y-190453252D01*
X91644818Y-190448470D01*
X91519773Y-190240062D01*
X91124368Y-189581055D01*
X91123051Y-189572199D01*
X91126127Y-189566766D01*
X91470136Y-189222757D01*
X91477577Y-189219360D01*
X91741336Y-189200615D01*
X91749829Y-189203447D01*
G37*
%TD.AperFunction*%
%TD*%
%TA.AperFunction,Conductor*%
%TO.N,Net-(D15-DOUT)*%
G36*
X91749829Y-211203447D02*
G01*
X91753095Y-211208117D01*
X92146647Y-212240062D01*
X92146393Y-212249013D01*
X92140174Y-212255048D01*
X91659310Y-212453267D01*
X91650355Y-212453252D01*
X91644818Y-212448470D01*
X91519773Y-212240062D01*
X91124368Y-211581055D01*
X91123051Y-211572199D01*
X91126127Y-211566766D01*
X91470136Y-211222757D01*
X91477577Y-211219360D01*
X91741336Y-211200615D01*
X91749829Y-211203447D01*
G37*
%TD.AperFunction*%
%TD*%
%TA.AperFunction,Conductor*%
%TO.N,Net-(D15-DOUT)*%
G36*
X88855213Y-195764782D02*
G01*
X88860474Y-195770043D01*
X89339967Y-196733405D01*
X89340586Y-196742338D01*
X89340236Y-196743253D01*
X89103049Y-197292935D01*
X89096624Y-197299174D01*
X89092306Y-197300000D01*
X88607694Y-197300000D01*
X88599421Y-197296573D01*
X88596951Y-197292935D01*
X88359763Y-196743253D01*
X88359632Y-196734300D01*
X88360032Y-196733405D01*
X88839526Y-195770043D01*
X88846280Y-195764163D01*
X88855213Y-195764782D01*
G37*
%TD.AperFunction*%
%TD*%
%TA.AperFunction,Conductor*%
%TO.N,Net-(U2-RA5)*%
G36*
X100103062Y-216003427D02*
G01*
X100103486Y-216003873D01*
X100992578Y-216991753D01*
X100995565Y-217000195D01*
X100992158Y-217007849D01*
X100008277Y-217992714D01*
X100000006Y-217996145D01*
X99991731Y-217992722D01*
X99991723Y-217992714D01*
X99007841Y-217007849D01*
X99004418Y-216999574D01*
X99007420Y-216991755D01*
X99896514Y-216003872D01*
X99904596Y-216000016D01*
X99905211Y-216000000D01*
X100094789Y-216000000D01*
X100103062Y-216003427D01*
G37*
%TD.AperFunction*%
%TD*%
%TA.AperFunction,Conductor*%
%TO.N,Net-(U2-RA5)*%
G36*
X100280930Y-215060723D02*
G01*
X100288358Y-215065722D01*
X100290077Y-215074510D01*
X100289608Y-215076178D01*
X100102796Y-215591412D01*
X100096755Y-215598022D01*
X100091797Y-215599124D01*
X99908203Y-215599124D01*
X99899930Y-215595697D01*
X99897204Y-215591412D01*
X99849544Y-215459966D01*
X99710391Y-215076176D01*
X99710792Y-215067232D01*
X99717402Y-215061191D01*
X99719056Y-215060725D01*
X99997682Y-215004357D01*
X100002318Y-215004357D01*
X100280930Y-215060723D01*
G37*
%TD.AperFunction*%
%TD*%
%TA.AperFunction,Conductor*%
%TO.N,Net-(U2-RA4)*%
G36*
X100103062Y-194003427D02*
G01*
X100103486Y-194003873D01*
X100992578Y-194991753D01*
X100995565Y-195000195D01*
X100992158Y-195007849D01*
X100008277Y-195992714D01*
X100000006Y-195996145D01*
X99991731Y-195992722D01*
X99991723Y-195992714D01*
X99007841Y-195007849D01*
X99004418Y-194999574D01*
X99007420Y-194991755D01*
X99896514Y-194003872D01*
X99904596Y-194000016D01*
X99905211Y-194000000D01*
X100094789Y-194000000D01*
X100103062Y-194003427D01*
G37*
%TD.AperFunction*%
%TD*%
%TA.AperFunction,Conductor*%
%TO.N,Net-(U2-RA4)*%
G36*
X100280930Y-193055835D02*
G01*
X100288358Y-193060834D01*
X100290077Y-193069622D01*
X100289608Y-193071290D01*
X100102796Y-193586524D01*
X100096755Y-193593134D01*
X100091797Y-193594236D01*
X99908203Y-193594236D01*
X99899930Y-193590809D01*
X99897204Y-193586524D01*
X99849544Y-193455078D01*
X99710391Y-193071288D01*
X99710792Y-193062344D01*
X99717402Y-193056303D01*
X99719056Y-193055837D01*
X99997682Y-192999469D01*
X100002318Y-192999469D01*
X100280930Y-193055835D01*
G37*
%TD.AperFunction*%
%TD*%
%TA.AperFunction,Conductor*%
%TO.N,Net-(U2-RA3{slash}Vref+)*%
G36*
X100103062Y-172003427D02*
G01*
X100103486Y-172003873D01*
X100992578Y-172991753D01*
X100995565Y-173000195D01*
X100992158Y-173007849D01*
X100008277Y-173992714D01*
X100000006Y-173996145D01*
X99991731Y-173992722D01*
X99991723Y-173992714D01*
X99007841Y-173007849D01*
X99004418Y-172999574D01*
X99007420Y-172991755D01*
X99896514Y-172003872D01*
X99904596Y-172000016D01*
X99905211Y-172000000D01*
X100094789Y-172000000D01*
X100103062Y-172003427D01*
G37*
%TD.AperFunction*%
%TD*%
%TA.AperFunction,Conductor*%
%TO.N,Net-(U2-RA3{slash}Vref+)*%
G36*
X100280930Y-171055835D02*
G01*
X100288358Y-171060834D01*
X100290077Y-171069622D01*
X100289608Y-171071290D01*
X100102796Y-171586524D01*
X100096755Y-171593134D01*
X100091797Y-171594236D01*
X99908203Y-171594236D01*
X99899930Y-171590809D01*
X99897204Y-171586524D01*
X99849544Y-171455078D01*
X99710391Y-171071288D01*
X99710792Y-171062344D01*
X99717402Y-171056303D01*
X99719056Y-171055837D01*
X99997682Y-170999469D01*
X100002318Y-170999469D01*
X100280930Y-171055835D01*
G37*
%TD.AperFunction*%
%TD*%
%TA.AperFunction,Conductor*%
%TO.N,Net-(U2-RA2{slash}Vref-)*%
G36*
X100103062Y-150003427D02*
G01*
X100103486Y-150003873D01*
X100992578Y-150991753D01*
X100995565Y-151000195D01*
X100992158Y-151007849D01*
X100008277Y-151992714D01*
X100000006Y-151996145D01*
X99991731Y-151992722D01*
X99991723Y-151992714D01*
X99007841Y-151007849D01*
X99004418Y-150999574D01*
X99007420Y-150991755D01*
X99896514Y-150003872D01*
X99904596Y-150000016D01*
X99905211Y-150000000D01*
X100094789Y-150000000D01*
X100103062Y-150003427D01*
G37*
%TD.AperFunction*%
%TD*%
%TA.AperFunction,Conductor*%
%TO.N,Net-(U2-RA2{slash}Vref-)*%
G36*
X100280930Y-149055835D02*
G01*
X100288358Y-149060834D01*
X100290077Y-149069622D01*
X100289608Y-149071290D01*
X100102796Y-149586524D01*
X100096755Y-149593134D01*
X100091797Y-149594236D01*
X99908203Y-149594236D01*
X99899930Y-149590809D01*
X99897204Y-149586524D01*
X99849544Y-149455078D01*
X99710391Y-149071288D01*
X99710792Y-149062344D01*
X99717402Y-149056303D01*
X99719056Y-149055837D01*
X99997682Y-148999469D01*
X100002318Y-148999469D01*
X100280930Y-149055835D01*
G37*
%TD.AperFunction*%
%TD*%
%TA.AperFunction,Conductor*%
%TO.N,Net-(U2-RA1)*%
G36*
X100103062Y-128003427D02*
G01*
X100103486Y-128003873D01*
X100992578Y-128991753D01*
X100995565Y-129000195D01*
X100992158Y-129007849D01*
X100008277Y-129992714D01*
X100000006Y-129996145D01*
X99991731Y-129992722D01*
X99991723Y-129992714D01*
X99007841Y-129007849D01*
X99004418Y-128999574D01*
X99007420Y-128991755D01*
X99896514Y-128003872D01*
X99904596Y-128000016D01*
X99905211Y-128000000D01*
X100094789Y-128000000D01*
X100103062Y-128003427D01*
G37*
%TD.AperFunction*%
%TD*%
%TA.AperFunction,Conductor*%
%TO.N,Net-(U2-RA1)*%
G36*
X100280930Y-127055835D02*
G01*
X100288358Y-127060834D01*
X100290077Y-127069622D01*
X100289608Y-127071290D01*
X100102796Y-127586524D01*
X100096755Y-127593134D01*
X100091797Y-127594236D01*
X99908203Y-127594236D01*
X99899930Y-127590809D01*
X99897204Y-127586524D01*
X99849544Y-127455078D01*
X99710391Y-127071288D01*
X99710792Y-127062344D01*
X99717402Y-127056303D01*
X99719056Y-127055837D01*
X99997682Y-126999469D01*
X100002318Y-126999469D01*
X100280930Y-127055835D01*
G37*
%TD.AperFunction*%
%TD*%
%TA.AperFunction,Conductor*%
%TO.N,Net-(U2-RA0)*%
G36*
X101638272Y-106225135D02*
G01*
X101641744Y-106227531D01*
X101772468Y-106358255D01*
X101775895Y-106366528D01*
X101775134Y-106370677D01*
X101004272Y-108402949D01*
X100998134Y-108409469D01*
X100989184Y-108409739D01*
X100988865Y-108409613D01*
X100003782Y-108002562D01*
X99997446Y-107996238D01*
X99590386Y-107011132D01*
X99590393Y-107002179D01*
X99596731Y-106995853D01*
X99597021Y-106995738D01*
X101629325Y-106224865D01*
X101638272Y-106225135D01*
G37*
%TD.AperFunction*%
%TD*%
%TA.AperFunction,Conductor*%
%TO.N,Net-(U2-RA0)*%
G36*
X109280930Y-96305835D02*
G01*
X109288358Y-96310834D01*
X109290077Y-96319622D01*
X109289608Y-96321290D01*
X109102796Y-96836524D01*
X109096755Y-96843134D01*
X109091797Y-96844236D01*
X108908203Y-96844236D01*
X108899930Y-96840809D01*
X108897204Y-96836524D01*
X108849544Y-96705078D01*
X108710391Y-96321288D01*
X108710792Y-96312344D01*
X108717402Y-96306303D01*
X108719056Y-96305837D01*
X108997682Y-96249469D01*
X109002318Y-96249469D01*
X109280930Y-96305835D01*
G37*
%TD.AperFunction*%
%TD*%
%TA.AperFunction,Conductor*%
%TO.N,Net-(U2-RA6)*%
G36*
X100103062Y-84003427D02*
G01*
X100103486Y-84003873D01*
X100992578Y-84991753D01*
X100995565Y-85000195D01*
X100992158Y-85007849D01*
X100008277Y-85992714D01*
X100000006Y-85996145D01*
X99991731Y-85992722D01*
X99991723Y-85992714D01*
X99007841Y-85007849D01*
X99004418Y-84999574D01*
X99007420Y-84991755D01*
X99896514Y-84003872D01*
X99904596Y-84000016D01*
X99905211Y-84000000D01*
X100094789Y-84000000D01*
X100103062Y-84003427D01*
G37*
%TD.AperFunction*%
%TD*%
%TA.AperFunction,Conductor*%
%TO.N,Net-(U2-RA6)*%
G36*
X98668470Y-81670114D02*
G01*
X98672819Y-81675512D01*
X98838064Y-82092328D01*
X98837928Y-82101282D01*
X98835461Y-82104913D01*
X98705652Y-82234722D01*
X98697379Y-82238149D01*
X98691800Y-82236733D01*
X98219567Y-81980538D01*
X98213929Y-81973581D01*
X98214862Y-81964675D01*
X98215385Y-81963805D01*
X98371592Y-81728363D01*
X98379015Y-81723367D01*
X98659694Y-81668343D01*
X98668470Y-81670114D01*
G37*
%TD.AperFunction*%
%TD*%
%TA.AperFunction,Conductor*%
%TO.N,Net-(U2-RA7)*%
G36*
X99007849Y-63007841D02*
G01*
X99992714Y-63991723D01*
X99996145Y-63999994D01*
X99992722Y-64008269D01*
X99992714Y-64008277D01*
X99007849Y-64992158D01*
X98999574Y-64995581D01*
X98991753Y-64992578D01*
X98991286Y-64992158D01*
X98695389Y-64725850D01*
X98003873Y-64103485D01*
X98000016Y-64095403D01*
X98000000Y-64094788D01*
X98000000Y-63905211D01*
X98003427Y-63896938D01*
X98003873Y-63896514D01*
X98991755Y-63007420D01*
X99000195Y-63004434D01*
X99007849Y-63007841D01*
G37*
%TD.AperFunction*%
%TD*%
%TA.AperFunction,Conductor*%
%TO.N,Net-(U2-RA7)*%
G36*
X97269739Y-66178860D02*
G01*
X97272465Y-66183145D01*
X97459277Y-66698378D01*
X97458876Y-66707324D01*
X97452266Y-66713365D01*
X97450598Y-66713834D01*
X97171989Y-66770199D01*
X97167349Y-66770199D01*
X96888739Y-66713834D01*
X96881310Y-66708834D01*
X96879591Y-66700046D01*
X96880056Y-66698389D01*
X97066873Y-66183145D01*
X97072914Y-66176535D01*
X97077872Y-66175433D01*
X97261466Y-66175433D01*
X97269739Y-66178860D01*
G37*
%TD.AperFunction*%
%TD*%
M02*
