%TF.GenerationSoftware,KiCad,Pcbnew,9.0.7*%
%TF.CreationDate,2026-04-09T10:36:26+02:00*%
%TF.ProjectId,board2-buttons,626f6172-6432-42d6-9275-74746f6e732e,2*%
%TF.SameCoordinates,Original*%
%TF.FileFunction,Copper,L1,Top*%
%TF.FilePolarity,Positive*%
%FSLAX46Y46*%
G04 Gerber Fmt 4.6, Leading zero omitted, Abs format (unit mm)*
G04 Created by KiCad (PCBNEW 9.0.7) date 2026-04-09 10:36:26*
%MOMM*%
%LPD*%
G01*
G04 APERTURE LIST*
G04 Aperture macros list*
%AMRoundRect*
0 Rectangle with rounded corners*
0 $1 Rounding radius*
0 $2 $3 $4 $5 $6 $7 $8 $9 X,Y pos of 4 corners*
0 Add a 4 corners polygon primitive as box body*
4,1,4,$2,$3,$4,$5,$6,$7,$8,$9,$2,$3,0*
0 Add four circle primitives for the rounded corners*
1,1,$1+$1,$2,$3*
1,1,$1+$1,$4,$5*
1,1,$1+$1,$6,$7*
1,1,$1+$1,$8,$9*
0 Add four rect primitives between the rounded corners*
20,1,$1+$1,$2,$3,$4,$5,0*
20,1,$1+$1,$4,$5,$6,$7,0*
20,1,$1+$1,$6,$7,$8,$9,0*
20,1,$1+$1,$8,$9,$2,$3,0*%
G04 Aperture macros list end*
%TA.AperFunction,ComponentPad*%
%ADD10R,1.700000X1.700000*%
%TD*%
%TA.AperFunction,ComponentPad*%
%ADD11C,1.700000*%
%TD*%
%TA.AperFunction,SMDPad,CuDef*%
%ADD12RoundRect,0.250000X0.475000X-0.337500X0.475000X0.337500X-0.475000X0.337500X-0.475000X-0.337500X0*%
%TD*%
%TA.AperFunction,SMDPad,CuDef*%
%ADD13RoundRect,0.250000X-0.350000X-0.450000X0.350000X-0.450000X0.350000X0.450000X-0.350000X0.450000X0*%
%TD*%
%TA.AperFunction,SMDPad,CuDef*%
%ADD14RoundRect,0.250000X0.500000X-0.250000X0.500000X0.250000X-0.500000X0.250000X-0.500000X-0.250000X0*%
%TD*%
%TA.AperFunction,SMDPad,CuDef*%
%ADD15RoundRect,0.354000X0.771000X-0.531000X0.771000X0.531000X-0.771000X0.531000X-0.771000X-0.531000X0*%
%TD*%
%TA.AperFunction,ComponentPad*%
%ADD16C,1.000000*%
%TD*%
%TA.AperFunction,ComponentPad*%
%ADD17C,7.000000*%
%TD*%
%TA.AperFunction,SMDPad,CuDef*%
%ADD18RoundRect,0.250000X0.350000X0.450000X-0.350000X0.450000X-0.350000X-0.450000X0.350000X-0.450000X0*%
%TD*%
%TA.AperFunction,SMDPad,CuDef*%
%ADD19RoundRect,0.250000X-0.337500X-0.475000X0.337500X-0.475000X0.337500X0.475000X-0.337500X0.475000X0*%
%TD*%
%TA.AperFunction,SMDPad,CuDef*%
%ADD20RoundRect,0.250000X0.450000X-0.350000X0.450000X0.350000X-0.450000X0.350000X-0.450000X-0.350000X0*%
%TD*%
%TA.AperFunction,SMDPad,CuDef*%
%ADD21RoundRect,0.250001X0.507499X0.944999X-0.507499X0.944999X-0.507499X-0.944999X0.507499X-0.944999X0*%
%TD*%
%TA.AperFunction,SMDPad,CuDef*%
%ADD22RoundRect,0.250000X0.337500X0.475000X-0.337500X0.475000X-0.337500X-0.475000X0.337500X-0.475000X0*%
%TD*%
%TA.AperFunction,SMDPad,CuDef*%
%ADD23RoundRect,0.250000X-0.500000X0.250000X-0.500000X-0.250000X0.500000X-0.250000X0.500000X0.250000X0*%
%TD*%
%TA.AperFunction,SMDPad,CuDef*%
%ADD24RoundRect,0.354000X-0.771000X0.531000X-0.771000X-0.531000X0.771000X-0.531000X0.771000X0.531000X0*%
%TD*%
%TA.AperFunction,SMDPad,CuDef*%
%ADD25RoundRect,0.067500X0.157500X0.857500X-0.157500X0.857500X-0.157500X-0.857500X0.157500X-0.857500X0*%
%TD*%
%TA.AperFunction,SMDPad,CuDef*%
%ADD26RoundRect,0.250000X-0.475000X0.337500X-0.475000X-0.337500X0.475000X-0.337500X0.475000X0.337500X0*%
%TD*%
%TA.AperFunction,SMDPad,CuDef*%
%ADD27RoundRect,0.250000X-0.450000X0.350000X-0.450000X-0.350000X0.450000X-0.350000X0.450000X0.350000X0*%
%TD*%
%TA.AperFunction,SMDPad,CuDef*%
%ADD28RoundRect,0.150000X-0.512500X-0.150000X0.512500X-0.150000X0.512500X0.150000X-0.512500X0.150000X0*%
%TD*%
%TA.AperFunction,ViaPad*%
%ADD29C,0.600000*%
%TD*%
%TA.AperFunction,Conductor*%
%ADD30C,1.000000*%
%TD*%
%TA.AperFunction,Conductor*%
%ADD31C,0.500000*%
%TD*%
%TA.AperFunction,Conductor*%
%ADD32C,0.200000*%
%TD*%
%TA.AperFunction,Conductor*%
%ADD33C,0.250000*%
%TD*%
G04 APERTURE END LIST*
D10*
%TO.P,J1,1,Pin_1*%
%TO.N,Net-(J1-Pin_1)*%
X95000000Y-54660000D03*
D11*
%TO.P,J1,2,Pin_2*%
%TO.N,VDD*%
X95000000Y-57200000D03*
%TO.P,J1,3,Pin_3*%
%TO.N,GND*%
X95000000Y-59740000D03*
%TO.P,J1,4,Pin_4*%
%TO.N,Net-(J1-Pin_4)*%
X95000000Y-62280000D03*
%TO.P,J1,5,Pin_5*%
%TO.N,Net-(J1-Pin_5)*%
X95000000Y-64820000D03*
%TO.P,J1,6,Pin_6*%
%TO.N,unconnected-(J1-Pin_6-Pad6)*%
X95000000Y-67360000D03*
%TD*%
D12*
%TO.P,C11,1*%
%TO.N,+5V*%
X90500000Y-172037500D03*
%TO.P,C11,2*%
%TO.N,GND*%
X90500000Y-169962500D03*
%TD*%
%TO.P,C8,1*%
%TO.N,+5V*%
X109500000Y-62037500D03*
%TO.P,C8,2*%
%TO.N,GND*%
X109500000Y-59962500D03*
%TD*%
D13*
%TO.P,R7,1*%
%TO.N,VDD*%
X90000000Y-87750000D03*
%TO.P,R7,2*%
%TO.N,Net-(J2-Pin_4)*%
X92000000Y-87750000D03*
%TD*%
D14*
%TO.P,J2,1,Pin_1*%
%TO.N,+5V*%
X103705000Y-108000000D03*
%TO.P,J2,2,Pin_2*%
%TO.N,VDD*%
X103705000Y-106500000D03*
%TO.P,J2,3,Pin_3*%
%TO.N,Net-(J2-Pin_3)*%
X103705000Y-105000000D03*
%TO.P,J2,4,Pin_4*%
%TO.N,Net-(J2-Pin_4)*%
X103705000Y-103500000D03*
%TO.P,J2,5,Pin_5*%
%TO.N,GND*%
X103705000Y-102000000D03*
D15*
%TO.P,J2,MP,MP*%
X109375000Y-110865000D03*
X109375000Y-99135000D03*
%TD*%
D12*
%TO.P,C9,1*%
%TO.N,+5V*%
X90500000Y-216037500D03*
%TO.P,C9,2*%
%TO.N,GND*%
X90500000Y-213962500D03*
%TD*%
D16*
%TO.P,H9,1,1*%
%TO.N,GND*%
X97450000Y-204000000D03*
X98196878Y-202196878D03*
X98196878Y-205803122D03*
X100000000Y-201450000D03*
D17*
X100000000Y-204000000D03*
D16*
X100000000Y-206550000D03*
X101803122Y-202196878D03*
X101803122Y-205803122D03*
X102550000Y-204000000D03*
%TD*%
D18*
%TO.P,R5,1*%
%TO.N,GND*%
X110000000Y-80000000D03*
%TO.P,R5,2*%
%TO.N,Net-(U2-RB0)*%
X108000000Y-80000000D03*
%TD*%
D12*
%TO.P,C2,1*%
%TO.N,+5V*%
X109500000Y-194037500D03*
%TO.P,C2,2*%
%TO.N,GND*%
X109500000Y-191962500D03*
%TD*%
D13*
%TO.P,R6,1*%
%TO.N,Net-(U2-RB1)*%
X108000000Y-84500000D03*
%TO.P,R6,2*%
%TO.N,GND*%
X110000000Y-84500000D03*
%TD*%
D19*
%TO.P,C7,1*%
%TO.N,+5V*%
X107962500Y-82250000D03*
%TO.P,C7,2*%
%TO.N,GND*%
X110037500Y-82250000D03*
%TD*%
D20*
%TO.P,R1,1*%
%TO.N,+5V*%
X104000000Y-61750000D03*
%TO.P,R1,2*%
%TO.N,Net-(D1-DIN)*%
X104000000Y-59750000D03*
%TD*%
D12*
%TO.P,C15,1*%
%TO.N,+5V*%
X90500000Y-84037500D03*
%TO.P,C15,2*%
%TO.N,GND*%
X90500000Y-81962500D03*
%TD*%
%TO.P,C13,1*%
%TO.N,+5V*%
X90500000Y-128037500D03*
%TO.P,C13,2*%
%TO.N,GND*%
X90500000Y-125962500D03*
%TD*%
%TO.P,C4,1*%
%TO.N,+5V*%
X109500000Y-128037500D03*
%TO.P,C4,2*%
%TO.N,GND*%
X109500000Y-125962500D03*
%TD*%
%TO.P,C3,1*%
%TO.N,+5V*%
X109500000Y-172037500D03*
%TO.P,C3,2*%
%TO.N,GND*%
X109500000Y-169962500D03*
%TD*%
D16*
%TO.P,H7,1,1*%
%TO.N,GND*%
X97450000Y-160000000D03*
X98196878Y-158196878D03*
X98196878Y-161803122D03*
X100000000Y-157450000D03*
D17*
X100000000Y-160000000D03*
D16*
X100000000Y-162550000D03*
X101803122Y-158196878D03*
X101803122Y-161803122D03*
X102550000Y-160000000D03*
%TD*%
D13*
%TO.P,R4,1*%
%TO.N,VDD*%
X98500000Y-57200000D03*
%TO.P,R4,2*%
%TO.N,Net-(J1-Pin_1)*%
X100500000Y-57200000D03*
%TD*%
D21*
%TO.P,C19,1*%
%TO.N,+5V*%
X111127500Y-56500000D03*
%TO.P,C19,2*%
%TO.N,GND*%
X107872500Y-56500000D03*
%TD*%
D13*
%TO.P,R8,1*%
%TO.N,VDD*%
X108000000Y-86750000D03*
%TO.P,R8,2*%
%TO.N,Net-(J2-Pin_3)*%
X110000000Y-86750000D03*
%TD*%
D16*
%TO.P,H6,1,1*%
%TO.N,GND*%
X97450000Y-138000000D03*
X98196878Y-136196878D03*
X98196878Y-139803122D03*
X100000000Y-135450000D03*
D17*
X100000000Y-138000000D03*
D16*
X100000000Y-140550000D03*
X101803122Y-136196878D03*
X101803122Y-139803122D03*
X102550000Y-138000000D03*
%TD*%
D19*
%TO.P,C14,1*%
%TO.N,+5V*%
X89462500Y-113750000D03*
%TO.P,C14,2*%
%TO.N,GND*%
X91537500Y-113750000D03*
%TD*%
D22*
%TO.P,C6,1*%
%TO.N,+5V*%
X110287500Y-113750000D03*
%TO.P,C6,2*%
%TO.N,GND*%
X108212500Y-113750000D03*
%TD*%
D16*
%TO.P,H3,1,1*%
%TO.N,GND*%
X97450000Y-72000000D03*
X98196878Y-70196878D03*
X98196878Y-73803122D03*
X100000000Y-69450000D03*
D17*
X100000000Y-72000000D03*
D16*
X100000000Y-74550000D03*
X101803122Y-70196878D03*
X101803122Y-73803122D03*
X102550000Y-72000000D03*
%TD*%
%TO.P,H5,1,1*%
%TO.N,GND*%
X97450000Y-116000000D03*
X98196878Y-114196878D03*
X98196878Y-117803122D03*
X100000000Y-113450000D03*
D17*
X100000000Y-116000000D03*
D16*
X100000000Y-118550000D03*
X101803122Y-114196878D03*
X101803122Y-117803122D03*
X102550000Y-116000000D03*
%TD*%
D23*
%TO.P,J3,1,Pin_1*%
%TO.N,+5V*%
X95795000Y-102000000D03*
%TO.P,J3,2,Pin_2*%
%TO.N,VDD*%
X95795000Y-103500000D03*
%TO.P,J3,3,Pin_3*%
%TO.N,Net-(J2-Pin_3)*%
X95795000Y-105000000D03*
%TO.P,J3,4,Pin_4*%
%TO.N,Net-(J2-Pin_4)*%
X95795000Y-106500000D03*
%TO.P,J3,5,Pin_5*%
%TO.N,GND*%
X95795000Y-108000000D03*
D24*
%TO.P,J3,MP,MP*%
X90125000Y-99135000D03*
X90125000Y-110865000D03*
%TD*%
D19*
%TO.P,C17,1*%
%TO.N,GND*%
X98462500Y-59700000D03*
%TO.P,C17,2*%
%TO.N,Net-(D1-DIN)*%
X100537500Y-59700000D03*
%TD*%
D20*
%TO.P,R2,1*%
%TO.N,Net-(U1-A)*%
X98250000Y-64000000D03*
%TO.P,R2,2*%
%TO.N,Net-(D1-DIN)*%
X98250000Y-62000000D03*
%TD*%
D25*
%TO.P,U2,1,~{MCLR}/RE3*%
%TO.N,Net-(J1-Pin_1)*%
X104225000Y-79500000D03*
%TO.P,U2,2,RA0*%
%TO.N,Net-(U2-RA0)*%
X103575000Y-79500000D03*
%TO.P,U2,3,RA1*%
%TO.N,Net-(U2-RA1)*%
X102925000Y-79500000D03*
%TO.P,U2,4,RA2/Vref-*%
%TO.N,Net-(U2-RA2{slash}Vref-)*%
X102275000Y-79500000D03*
%TO.P,U2,5,RA3/Vref+*%
%TO.N,Net-(U2-RA3{slash}Vref+)*%
X101625000Y-79500000D03*
%TO.P,U2,6,RA4*%
%TO.N,Net-(U2-RA4)*%
X100975000Y-79500000D03*
%TO.P,U2,7,RA5*%
%TO.N,Net-(U2-RA5)*%
X100325000Y-79500000D03*
%TO.P,U2,8,Vss*%
%TO.N,GND*%
X99675000Y-79500000D03*
%TO.P,U2,9,RA7*%
%TO.N,Net-(U2-RA7)*%
X99025000Y-79500000D03*
%TO.P,U2,10,RA6*%
%TO.N,Net-(U2-RA6)*%
X98375000Y-79500000D03*
%TO.P,U2,11,RC0*%
%TO.N,unconnected-(U2-RC0-Pad11)*%
X97725000Y-79500000D03*
%TO.P,U2,12,CCP2/RC1*%
%TO.N,unconnected-(U2-CCP2{slash}RC1-Pad12)*%
X97075000Y-79500000D03*
%TO.P,U2,13,CCP1/RC2*%
%TO.N,Net-(U1-A)*%
X96425000Y-79500000D03*
%TO.P,U2,14,SCL/SCK/RC3*%
%TO.N,Net-(J2-Pin_3)*%
X95775000Y-79500000D03*
%TO.P,U2,15,SDA/SDI/RC4*%
%TO.N,Net-(J2-Pin_4)*%
X95775000Y-86500000D03*
%TO.P,U2,16,RC5*%
%TO.N,unconnected-(U2-RC5-Pad16)*%
X96425000Y-86500000D03*
%TO.P,U2,17,RC6*%
%TO.N,unconnected-(U2-RC6-Pad17)*%
X97075000Y-86500000D03*
%TO.P,U2,18,RC7*%
%TO.N,unconnected-(U2-RC7-Pad18)*%
X97725000Y-86500000D03*
%TO.P,U2,19,Vss*%
%TO.N,GND*%
X98375000Y-86500000D03*
%TO.P,U2,20,Vdd*%
%TO.N,VDD*%
X99025000Y-86500000D03*
%TO.P,U2,21,RB0*%
%TO.N,Net-(U2-RB0)*%
X99675000Y-86500000D03*
%TO.P,U2,22,RB1*%
%TO.N,Net-(U2-RB1)*%
X100325000Y-86500000D03*
%TO.P,U2,23,RB2*%
%TO.N,unconnected-(U2-RB2-Pad23)*%
X100975000Y-86500000D03*
%TO.P,U2,24,RB3*%
%TO.N,unconnected-(U2-RB3-Pad24)*%
X101625000Y-86500000D03*
%TO.P,U2,25,RB4*%
%TO.N,unconnected-(U2-RB4-Pad25)*%
X102275000Y-86500000D03*
%TO.P,U2,26,RB5*%
%TO.N,unconnected-(U2-RB5-Pad26)*%
X102925000Y-86500000D03*
%TO.P,U2,27,ICSPCLK/RB6*%
%TO.N,Net-(J1-Pin_5)*%
X103575000Y-86500000D03*
%TO.P,U2,28,ICSPDAT/RB7*%
%TO.N,Net-(J1-Pin_4)*%
X104225000Y-86500000D03*
%TD*%
D16*
%TO.P,H1,1,1*%
%TO.N,GND*%
X97450000Y-50000000D03*
X98196878Y-48196878D03*
X98196878Y-51803122D03*
X100000000Y-47450000D03*
D17*
X100000000Y-50000000D03*
D16*
X100000000Y-52550000D03*
X101803122Y-48196878D03*
X101803122Y-51803122D03*
X102550000Y-50000000D03*
%TD*%
D26*
%TO.P,C18,1*%
%TO.N,VDD*%
X93500000Y-82212500D03*
%TO.P,C18,2*%
%TO.N,GND*%
X93500000Y-84287500D03*
%TD*%
D12*
%TO.P,C5,1*%
%TO.N,+5V*%
X109500000Y-150037500D03*
%TO.P,C5,2*%
%TO.N,GND*%
X109500000Y-147962500D03*
%TD*%
%TO.P,C16,1*%
%TO.N,+5V*%
X90500000Y-62037500D03*
%TO.P,C16,2*%
%TO.N,GND*%
X90500000Y-59962500D03*
%TD*%
D16*
%TO.P,H8,1,1*%
%TO.N,GND*%
X97450000Y-182000000D03*
X98196878Y-180196878D03*
X98196878Y-183803122D03*
X100000000Y-179450000D03*
D17*
X100000000Y-182000000D03*
D16*
X100000000Y-184550000D03*
X101803122Y-180196878D03*
X101803122Y-183803122D03*
X102550000Y-182000000D03*
%TD*%
D27*
%TO.P,R3,1*%
%TO.N,Net-(D1-DIN)*%
X100500000Y-62000000D03*
%TO.P,R3,2*%
%TO.N,Net-(U1-Y)*%
X100500000Y-64000000D03*
%TD*%
D16*
%TO.P,H4,1,1*%
%TO.N,GND*%
X97450000Y-94000000D03*
X98196878Y-92196878D03*
X98196878Y-95803122D03*
X100000000Y-91450000D03*
D17*
X100000000Y-94000000D03*
D16*
X100000000Y-96550000D03*
X101803122Y-92196878D03*
X101803122Y-95803122D03*
X102550000Y-94000000D03*
%TD*%
D12*
%TO.P,C1,1*%
%TO.N,+5V*%
X109500000Y-216037500D03*
%TO.P,C1,2*%
%TO.N,GND*%
X109500000Y-213962500D03*
%TD*%
D21*
%TO.P,C20,1*%
%TO.N,VDD*%
X90627500Y-55750000D03*
%TO.P,C20,2*%
%TO.N,GND*%
X87372500Y-55750000D03*
%TD*%
D16*
%TO.P,H2,1,1*%
%TO.N,GND*%
X97450000Y-226000000D03*
X98196878Y-224196878D03*
X98196878Y-227803122D03*
X100000000Y-223450000D03*
D17*
X100000000Y-226000000D03*
D16*
X100000000Y-228550000D03*
X101803122Y-224196878D03*
X101803122Y-227803122D03*
X102550000Y-226000000D03*
%TD*%
D12*
%TO.P,C12,1*%
%TO.N,+5V*%
X90500000Y-150037500D03*
%TO.P,C12,2*%
%TO.N,GND*%
X90500000Y-147962500D03*
%TD*%
%TO.P,C10,1*%
%TO.N,+5V*%
X90500000Y-194037500D03*
%TO.P,C10,2*%
%TO.N,GND*%
X90500000Y-191962500D03*
%TD*%
D28*
%TO.P,U1,1,~{OE}*%
%TO.N,Net-(U1-A)*%
X108462500Y-65050000D03*
%TO.P,U1,2,A*%
X108462500Y-66000000D03*
%TO.P,U1,3,GND*%
%TO.N,GND*%
X108462500Y-66950000D03*
%TO.P,U1,4,Y*%
%TO.N,Net-(U1-Y)*%
X110737500Y-66950000D03*
%TO.P,U1,5,VCC*%
%TO.N,+5V*%
X110737500Y-65050000D03*
%TD*%
D29*
%TO.N,GND*%
X109500000Y-146250000D03*
X94000000Y-108000000D03*
X109500000Y-212250000D03*
X90500000Y-124250000D03*
X99675000Y-81700000D03*
X109500000Y-190250000D03*
X90500000Y-168250000D03*
X105300000Y-102000000D03*
X90500000Y-190250000D03*
X87000000Y-58250000D03*
X106200000Y-80250000D03*
X90500000Y-58250000D03*
X109500000Y-58250000D03*
X109500000Y-124250000D03*
X90500000Y-80250000D03*
X90500000Y-146250000D03*
X90500000Y-212250000D03*
X109500000Y-168250000D03*
%TO.N,+5V*%
X90500000Y-217750000D03*
X91000000Y-63750000D03*
X109500000Y-173750000D03*
X109500000Y-195750000D03*
X105300000Y-108000000D03*
X109500000Y-217750000D03*
X109750000Y-107750000D03*
X90500000Y-195750000D03*
X109500000Y-151750000D03*
X106680000Y-84000000D03*
X90500000Y-151750000D03*
X109500000Y-129750000D03*
X90500000Y-173750000D03*
X90500000Y-107750000D03*
X90500000Y-129750000D03*
X90500000Y-85750000D03*
X113000000Y-66000000D03*
X113000000Y-65000000D03*
X104000000Y-65250000D03*
X109500000Y-63750000D03*
%TO.N,Net-(D1-DIN)*%
X104000000Y-55500000D03*
%TO.N,Net-(J1-Pin_5)*%
X103585421Y-84712149D03*
%TO.N,Net-(J1-Pin_4)*%
X104200000Y-84000000D03*
%TO.N,Net-(J1-Pin_1)*%
X106200000Y-64300000D03*
X106200000Y-77497000D03*
%TO.N,Net-(U2-RA5)*%
X100000000Y-215004888D03*
%TO.N,Net-(U2-RA4)*%
X100000000Y-193000000D03*
%TO.N,Net-(U2-RA3{slash}Vref+)*%
X100000000Y-171000000D03*
%TO.N,Net-(U2-RA2{slash}Vref-)*%
X100000000Y-149000000D03*
%TO.N,Net-(U2-RA1)*%
X100000000Y-127000000D03*
%TO.N,Net-(U2-RA0)*%
X109000000Y-96250000D03*
%TO.N,Net-(U2-RA6)*%
X98375000Y-81725000D03*
%TO.N,Net-(U2-RA7)*%
X97169669Y-66769669D03*
%TD*%
D30*
%TO.N,GND*%
X109500000Y-125962500D02*
X109500000Y-124250000D01*
D31*
X110000000Y-81800000D02*
X110000000Y-84200000D01*
D32*
X97387500Y-84287500D02*
X98375000Y-85275000D01*
X99675000Y-81700000D02*
X99675000Y-79500000D01*
D30*
X109500000Y-191962500D02*
X109500000Y-190250000D01*
X88122500Y-61000000D02*
X88122500Y-59372500D01*
D33*
X98462500Y-59700000D02*
X96800000Y-59700000D01*
D30*
X95800000Y-108005000D02*
X95795000Y-108000000D01*
X95795000Y-108000000D02*
X94000000Y-108000000D01*
X90500000Y-213962500D02*
X90500000Y-212250000D01*
X90500000Y-125962500D02*
X90500000Y-124250000D01*
X90500000Y-169962500D02*
X90500000Y-168250000D01*
X103705000Y-102000000D02*
X105300000Y-102000000D01*
X90500000Y-147962500D02*
X90500000Y-146250000D01*
D32*
X99675000Y-79500000D02*
X99675000Y-77075000D01*
X98375000Y-85275000D02*
X98375000Y-86500000D01*
D31*
X106200000Y-79300000D02*
X106200000Y-80250000D01*
D32*
X98375000Y-86500000D02*
X98375000Y-88625000D01*
D30*
X102300000Y-102000000D02*
X103705000Y-102000000D01*
D31*
X109500000Y-78750000D02*
X106750000Y-78750000D01*
D33*
X106950000Y-66950000D02*
X106750000Y-66750000D01*
D31*
X110000000Y-79250000D02*
X109500000Y-78750000D01*
X106750000Y-78750000D02*
X106200000Y-79300000D01*
D30*
X88122500Y-59372500D02*
X87000000Y-58250000D01*
X109500000Y-169962500D02*
X109500000Y-168250000D01*
X90500000Y-80250000D02*
X90500000Y-81962500D01*
X109500000Y-59962500D02*
X109500000Y-58250000D01*
D31*
X110000000Y-81800000D02*
X110000000Y-79250000D01*
D30*
X90500000Y-191962500D02*
X90500000Y-190250000D01*
D32*
X95768600Y-84287500D02*
X97387500Y-84287500D01*
D33*
X108462500Y-66950000D02*
X106950000Y-66950000D01*
D32*
X95768600Y-84287500D02*
X93500000Y-84287500D01*
D31*
X95040000Y-59700000D02*
X95000000Y-59740000D01*
D30*
X90500000Y-59962500D02*
X90500000Y-58250000D01*
X109500000Y-147962500D02*
X109500000Y-146250000D01*
X109500000Y-213962500D02*
X109500000Y-212250000D01*
%TO.N,+5V*%
X109750000Y-107750000D02*
X110500000Y-107750000D01*
X90500000Y-128037500D02*
X90500000Y-129750000D01*
X95795000Y-102000000D02*
X97750000Y-102000000D01*
X109500000Y-128037500D02*
X109500000Y-129750000D01*
X88750000Y-107750000D02*
X90500000Y-107750000D01*
X109500000Y-216037500D02*
X109500000Y-217750000D01*
X90500000Y-150037500D02*
X90500000Y-151750000D01*
X113000000Y-65000000D02*
X113000000Y-57000000D01*
D32*
X112950000Y-65050000D02*
X113000000Y-65000000D01*
D30*
X109500000Y-194037500D02*
X109500000Y-195750000D01*
X109500000Y-62037500D02*
X109500000Y-63750000D01*
X110500000Y-107750000D02*
X111225000Y-108475000D01*
X98862500Y-104562500D02*
X102300000Y-108000000D01*
X97750000Y-102000000D02*
X98862500Y-103112500D01*
X98862500Y-103112500D02*
X98862500Y-104562500D01*
X90500000Y-63250000D02*
X91000000Y-63750000D01*
X90500000Y-85750000D02*
X90500000Y-84037500D01*
X111225000Y-108475000D02*
X111225000Y-113062500D01*
D32*
X110737500Y-65050000D02*
X112950000Y-65050000D01*
D30*
X89462500Y-113750000D02*
X88500000Y-113750000D01*
D31*
X106680000Y-84000000D02*
X106680000Y-83532500D01*
D30*
X88000000Y-108500000D02*
X88750000Y-107750000D01*
X90500000Y-62037500D02*
X90500000Y-63250000D01*
X102300000Y-108000000D02*
X103705000Y-108000000D01*
X88500000Y-113750000D02*
X88000000Y-113250000D01*
X109500000Y-150037500D02*
X109500000Y-151750000D01*
D33*
X104000000Y-65250000D02*
X104000000Y-61750000D01*
D30*
X111127500Y-56500000D02*
X112500000Y-56500000D01*
X112500000Y-56500000D02*
X113000000Y-57000000D01*
X90500000Y-172037500D02*
X90500000Y-173750000D01*
X90500000Y-194037500D02*
X90500000Y-195750000D01*
D31*
X106680000Y-83532500D02*
X107962500Y-82250000D01*
D30*
X113000000Y-66000000D02*
X113000000Y-65000000D01*
X111225000Y-113062500D02*
X110537500Y-113750000D01*
X109500000Y-172037500D02*
X109500000Y-173750000D01*
X90500000Y-217750000D02*
X90500000Y-216037500D01*
X103705000Y-108000000D02*
X105298000Y-108000000D01*
X88000000Y-113250000D02*
X88000000Y-108500000D01*
D31*
%TO.N,VDD*%
X105700000Y-106500000D02*
X106249000Y-107049000D01*
X94750000Y-103500000D02*
X95795000Y-103500000D01*
D32*
X99025000Y-85275000D02*
X95962500Y-82212500D01*
D31*
X88250000Y-83000000D02*
X88250000Y-87750000D01*
X103705000Y-106500000D02*
X105700000Y-106500000D01*
D32*
X108000000Y-86750000D02*
X106750000Y-88000000D01*
D33*
X93500000Y-82212500D02*
X92712500Y-83000000D01*
D31*
X95000000Y-57200000D02*
X92750000Y-57200000D01*
X88250000Y-87750000D02*
X88250000Y-93250000D01*
D32*
X99600000Y-88000000D02*
X99025000Y-87425000D01*
D31*
X88250000Y-79250000D02*
X88250000Y-83000000D01*
X97500000Y-104000000D02*
X97000000Y-103500000D01*
X92750000Y-56500000D02*
X92000000Y-55750000D01*
X98500000Y-57200000D02*
X95000000Y-57200000D01*
X92000000Y-55750000D02*
X90627500Y-55750000D01*
D32*
X99025000Y-87425000D02*
X99025000Y-86500000D01*
D31*
X106249000Y-108451000D02*
X105700000Y-109000000D01*
X92750000Y-64250000D02*
X88250000Y-68750000D01*
D32*
X106750000Y-88000000D02*
X99600000Y-88000000D01*
D31*
X106249000Y-107049000D02*
X106249000Y-108451000D01*
X92750000Y-57200000D02*
X92750000Y-64250000D01*
X97000000Y-103500000D02*
X95795000Y-103500000D01*
X105700000Y-109000000D02*
X101500000Y-109000000D01*
X92750000Y-57200000D02*
X92750000Y-56500000D01*
X94300000Y-103050000D02*
X94750000Y-103500000D01*
X101500000Y-109000000D02*
X97500000Y-105000000D01*
D33*
X90000000Y-87750000D02*
X88250000Y-87750000D01*
X92712500Y-83000000D02*
X88250000Y-83000000D01*
D31*
X97500000Y-105000000D02*
X97500000Y-104000000D01*
X88250000Y-68750000D02*
X88250000Y-79250000D01*
X94300000Y-99300000D02*
X94300000Y-103050000D01*
X88250000Y-93250000D02*
X94300000Y-99300000D01*
D32*
X99025000Y-86500000D02*
X99025000Y-85275000D01*
X95962500Y-82212500D02*
X93500000Y-82212500D01*
D33*
%TO.N,Net-(D1-DIN)*%
X104000000Y-55500000D02*
X104000000Y-59750000D01*
X100500000Y-62000000D02*
X98250000Y-62000000D01*
X100537500Y-59700000D02*
X100537500Y-61962500D01*
X104000000Y-59750000D02*
X100587500Y-59750000D01*
D32*
X100537500Y-61962500D02*
X100500000Y-62000000D01*
D33*
X100587500Y-59750000D02*
X100537500Y-59700000D01*
D32*
%TO.N,Net-(J1-Pin_5)*%
X103575000Y-84722570D02*
X103585421Y-84712149D01*
X103575000Y-86500000D02*
X103575000Y-84722570D01*
%TO.N,Net-(J1-Pin_4)*%
X104225000Y-84225000D02*
X104225000Y-86500000D01*
X104200000Y-84200000D02*
X104225000Y-84225000D01*
X104200000Y-84000000D02*
X104200000Y-84200000D01*
D33*
%TO.N,Net-(J1-Pin_1)*%
X106200000Y-55200000D02*
X105660000Y-54660000D01*
X100500000Y-57200000D02*
X100500000Y-54660000D01*
X105660000Y-54660000D02*
X95000000Y-54660000D01*
X106200000Y-64300000D02*
X106200000Y-55200000D01*
D32*
X104703000Y-77497000D02*
X104225000Y-77975000D01*
X104225000Y-77975000D02*
X104225000Y-79500000D01*
X106200000Y-77497000D02*
X104703000Y-77497000D01*
%TO.N,Net-(J2-Pin_4)*%
X100300000Y-110000000D02*
X96800000Y-106500000D01*
X107200000Y-108967100D02*
X106166100Y-110001000D01*
X103705000Y-103500000D02*
X105900000Y-103500000D01*
D33*
X101250000Y-103500000D02*
X103705000Y-103500000D01*
X93250000Y-87750000D02*
X92000000Y-87750000D01*
X94500000Y-86500000D02*
X93250000Y-87750000D01*
X92000000Y-87750000D02*
X92000000Y-94250000D01*
D32*
X107200000Y-104800000D02*
X107200000Y-108967100D01*
X96800000Y-106500000D02*
X95795000Y-106500000D01*
X100832900Y-110000000D02*
X100300000Y-110000000D01*
D33*
X95775000Y-86500000D02*
X94500000Y-86500000D01*
X92000000Y-94250000D02*
X101250000Y-103500000D01*
D32*
X105900000Y-103500000D02*
X107200000Y-104800000D01*
X100833900Y-110001000D02*
X100832900Y-110000000D01*
X106166100Y-110001000D02*
X100833900Y-110001000D01*
%TO.N,Net-(J2-Pin_3)*%
X111250000Y-86750000D02*
X110000000Y-86750000D01*
X111250000Y-92750000D02*
X106600000Y-97400000D01*
X95775000Y-79500000D02*
X95775000Y-80724943D01*
X110250000Y-78250000D02*
X111250000Y-79250000D01*
X106800000Y-108800000D02*
X106800000Y-106400000D01*
X93100000Y-108500000D02*
X93100000Y-106800000D01*
X111250000Y-79250000D02*
X111250000Y-86614000D01*
X106000000Y-78250000D02*
X110250000Y-78250000D01*
X95795000Y-105000000D02*
X96300000Y-105000000D01*
X111250000Y-86614000D02*
X111250000Y-92750000D01*
X105250000Y-79000000D02*
X106000000Y-78250000D01*
X100900000Y-109600000D02*
X106000000Y-109600000D01*
X93100000Y-106800000D02*
X94900000Y-105000000D01*
X107601000Y-104633900D02*
X107601000Y-109133200D01*
X105250000Y-80250000D02*
X105250000Y-79000000D01*
X106600000Y-97400000D02*
X106600000Y-103632900D01*
X106600000Y-103632900D02*
X107601000Y-104633900D01*
X106800000Y-106400000D02*
X105400000Y-105000000D01*
X105400000Y-105000000D02*
X103705000Y-105000000D01*
X94900000Y-105000000D02*
X95795000Y-105000000D01*
X95002000Y-110402000D02*
X93100000Y-108500000D01*
X106332200Y-110402000D02*
X95002000Y-110402000D01*
X102300000Y-81500000D02*
X104000000Y-81500000D01*
X95775000Y-80724943D02*
X97751057Y-82701000D01*
X97751057Y-82701000D02*
X101099000Y-82701000D01*
X96300000Y-105000000D02*
X100900000Y-109600000D01*
X101099000Y-82701000D02*
X102300000Y-81500000D01*
X106000000Y-109600000D02*
X106800000Y-108800000D01*
X104000000Y-81500000D02*
X105250000Y-80250000D01*
X107601000Y-109133200D02*
X106332200Y-110402000D01*
%TO.N,Net-(U1-A)*%
X102850000Y-66100000D02*
X98250000Y-66100000D01*
X98250000Y-64000000D02*
X98250000Y-66100000D01*
X108462500Y-66000000D02*
X111500000Y-66000000D01*
X98250000Y-66100000D02*
X93400000Y-66100000D01*
X112000000Y-66500000D02*
X112000000Y-67750000D01*
X93400000Y-66100000D02*
X92900000Y-66600000D01*
X105000000Y-68250000D02*
X102850000Y-66100000D01*
X112000000Y-67750000D02*
X111500000Y-68250000D01*
X92900000Y-66600000D02*
X92900000Y-74150000D01*
X96425000Y-77675000D02*
X96425000Y-79500000D01*
X108462500Y-66000000D02*
X108462500Y-65050000D01*
X92900000Y-74150000D02*
X96425000Y-77675000D01*
X111500000Y-68250000D02*
X105000000Y-68250000D01*
X111500000Y-66000000D02*
X112000000Y-66500000D01*
%TO.N,Net-(U1-Y)*%
X101500000Y-64000000D02*
X105300000Y-67800000D01*
X105300000Y-67800000D02*
X109887500Y-67800000D01*
X109887500Y-67800000D02*
X110737500Y-66950000D01*
X100500000Y-64000000D02*
X101500000Y-64000000D01*
%TO.N,Net-(U2-RB0)*%
X99675000Y-84825000D02*
X99675000Y-86500000D01*
X108000000Y-80250000D02*
X106250000Y-82000000D01*
X106250000Y-82000000D02*
X102500000Y-82000000D01*
X102500000Y-82000000D02*
X99675000Y-84825000D01*
%TO.N,Net-(U2-RB1)*%
X100325000Y-85075000D02*
X102000000Y-83400000D01*
X105851000Y-84601000D02*
X107899000Y-84601000D01*
X104650000Y-83400000D02*
X105851000Y-84601000D01*
X100325000Y-86500000D02*
X100325000Y-85075000D01*
X107899000Y-84601000D02*
X108000000Y-84500000D01*
X102000000Y-83400000D02*
X104650000Y-83400000D01*
%TO.N,Net-(U2-RA5)*%
X100325000Y-78275000D02*
X100325000Y-79500000D01*
X113708000Y-77683740D02*
X110819260Y-74795000D01*
X110819260Y-74795000D02*
X103805000Y-74795000D01*
X103805000Y-74795000D02*
X100325000Y-78275000D01*
X113708000Y-201296888D02*
X113708000Y-77683740D01*
X100000000Y-215004888D02*
X113708000Y-201296888D01*
%TO.N,Net-(U2-RA4)*%
X110653160Y-75196000D02*
X104004000Y-75196000D01*
X113307000Y-77849840D02*
X110653160Y-75196000D01*
X100000000Y-193000000D02*
X113307000Y-179693000D01*
X100975000Y-78225000D02*
X100975000Y-79500000D01*
X113307000Y-179693000D02*
X113307000Y-77849840D01*
X104004000Y-75196000D02*
X100975000Y-78225000D01*
%TO.N,Net-(U2-RA3{slash}Vref+)*%
X112906000Y-158094000D02*
X112906000Y-78015942D01*
X101625000Y-78175000D02*
X101625000Y-79500000D01*
X112906000Y-78015942D02*
X110487058Y-75597000D01*
X104203000Y-75597000D02*
X101625000Y-78175000D01*
X110487058Y-75597000D02*
X104203000Y-75597000D01*
X100000000Y-171000000D02*
X112906000Y-158094000D01*
%TO.N,Net-(U2-RA2{slash}Vref-)*%
X100000000Y-149000000D02*
X112505000Y-136495000D01*
X110320960Y-75998000D02*
X104402000Y-75998000D01*
X112505000Y-136495000D02*
X112505000Y-78182040D01*
X112505000Y-78182040D02*
X110320960Y-75998000D01*
X102275000Y-78125000D02*
X102275000Y-79500000D01*
X104402000Y-75998000D02*
X102275000Y-78125000D01*
%TO.N,Net-(U2-RA1)*%
X102925000Y-78075000D02*
X102925000Y-79500000D01*
X104601000Y-76399000D02*
X102925000Y-78075000D01*
X110154860Y-76399000D02*
X104601000Y-76399000D01*
X100000000Y-127000000D02*
X112104000Y-114896000D01*
X112104000Y-114896000D02*
X112104000Y-78348140D01*
X112104000Y-78348140D02*
X110154860Y-76399000D01*
%TO.N,Net-(U2-RA0)*%
X111703000Y-93547000D02*
X111703000Y-78514240D01*
X104800000Y-76800000D02*
X103575000Y-78025000D01*
X109000000Y-96250000D02*
X111703000Y-93547000D01*
X111703000Y-78514240D02*
X109988760Y-76800000D01*
X109988760Y-76800000D02*
X104800000Y-76800000D01*
X103575000Y-78025000D02*
X103575000Y-79500000D01*
%TO.N,Net-(U2-RA6)*%
X98375000Y-81725000D02*
X98375000Y-79500000D01*
%TO.N,Net-(U2-RA7)*%
X97200000Y-67550000D02*
X93500000Y-71250000D01*
X99025000Y-78150000D02*
X99025000Y-79500000D01*
X97169669Y-66769669D02*
X97200000Y-66800000D01*
X97200000Y-66800000D02*
X97200000Y-67550000D01*
X93500000Y-71250000D02*
X93500000Y-74000000D01*
X97250000Y-77750000D02*
X98625000Y-77750000D01*
X93500000Y-74000000D02*
X97250000Y-77750000D01*
X98625000Y-77750000D02*
X99025000Y-78150000D01*
%TD*%
%TA.AperFunction,Conductor*%
%TO.N,GND*%
G36*
X94463833Y-106387913D02*
G01*
X94519767Y-106429784D01*
X94544184Y-106495249D01*
X94544500Y-106504095D01*
X94544500Y-106800000D01*
X94544501Y-106800009D01*
X94555000Y-106902796D01*
X94555001Y-106902799D01*
X94610185Y-107069331D01*
X94610189Y-107069340D01*
X94681763Y-107185380D01*
X94700203Y-107252772D01*
X94681763Y-107315573D01*
X94610643Y-107430875D01*
X94610641Y-107430880D01*
X94555494Y-107597302D01*
X94555493Y-107597309D01*
X94545000Y-107700013D01*
X94545000Y-107750000D01*
X97053145Y-107750000D01*
X97096524Y-107726313D01*
X97166216Y-107731297D01*
X97210563Y-107759798D01*
X99040584Y-109589819D01*
X99074069Y-109651142D01*
X99069085Y-109720834D01*
X99027213Y-109776767D01*
X98961749Y-109801184D01*
X98952903Y-109801500D01*
X95302097Y-109801500D01*
X95235058Y-109781815D01*
X95214416Y-109765181D01*
X93749221Y-108299986D01*
X94545001Y-108299986D01*
X94555494Y-108402697D01*
X94610641Y-108569119D01*
X94610643Y-108569124D01*
X94702684Y-108718345D01*
X94826654Y-108842315D01*
X94975875Y-108934356D01*
X94975880Y-108934358D01*
X95142302Y-108989505D01*
X95142309Y-108989506D01*
X95245019Y-108999999D01*
X95544999Y-108999999D01*
X96045000Y-108999999D01*
X96344972Y-108999999D01*
X96344986Y-108999998D01*
X96447697Y-108989505D01*
X96614119Y-108934358D01*
X96614124Y-108934356D01*
X96763345Y-108842315D01*
X96887315Y-108718345D01*
X96979356Y-108569124D01*
X96979358Y-108569119D01*
X97034505Y-108402697D01*
X97034506Y-108402690D01*
X97044999Y-108299986D01*
X97045000Y-108299973D01*
X97045000Y-108250000D01*
X96045000Y-108250000D01*
X96045000Y-108999999D01*
X95544999Y-108999999D01*
X95545000Y-108999998D01*
X95545000Y-108250000D01*
X94545001Y-108250000D01*
X94545001Y-108299986D01*
X93749221Y-108299986D01*
X93736819Y-108287584D01*
X93724338Y-108264727D01*
X93711706Y-108250149D01*
X93709834Y-108241547D01*
X93705523Y-108234838D01*
X93704631Y-108228637D01*
X93703334Y-108226261D01*
X93700500Y-108199903D01*
X93700500Y-107100096D01*
X93720185Y-107033057D01*
X93736815Y-107012419D01*
X94332821Y-106416412D01*
X94394142Y-106382929D01*
X94463833Y-106387913D01*
G37*
%TD.AperFunction*%
%TA.AperFunction,Conductor*%
G36*
X94992540Y-87145185D02*
G01*
X95038295Y-87197989D01*
X95049501Y-87249500D01*
X95049501Y-87394729D01*
X95064117Y-87505769D01*
X95064121Y-87505781D01*
X95121350Y-87643946D01*
X95121350Y-87643947D01*
X95121352Y-87643950D01*
X95121353Y-87643951D01*
X95212398Y-87762602D01*
X95331049Y-87853647D01*
X95331052Y-87853648D01*
X95331053Y-87853649D01*
X95370929Y-87870166D01*
X95469222Y-87910880D01*
X95580273Y-87925500D01*
X95969726Y-87925499D01*
X95969728Y-87925499D01*
X96083818Y-87910480D01*
X96116188Y-87910480D01*
X96119219Y-87910879D01*
X96119222Y-87910880D01*
X96230273Y-87925500D01*
X96619726Y-87925499D01*
X96619728Y-87925499D01*
X96733818Y-87910480D01*
X96766188Y-87910480D01*
X96769219Y-87910879D01*
X96769222Y-87910880D01*
X96880273Y-87925500D01*
X97269726Y-87925499D01*
X97269728Y-87925499D01*
X97383818Y-87910480D01*
X97416188Y-87910480D01*
X97419219Y-87910879D01*
X97419222Y-87910880D01*
X97530273Y-87925500D01*
X97919726Y-87925499D01*
X98030778Y-87910880D01*
X98168951Y-87853647D01*
X98248365Y-87792710D01*
X98294051Y-87757654D01*
X98294893Y-87758751D01*
X98348631Y-87729402D01*
X98418323Y-87734380D01*
X98455482Y-87758261D01*
X98455949Y-87757654D01*
X98501635Y-87792710D01*
X98540761Y-87822733D01*
X98551486Y-87830962D01*
X98592689Y-87887390D01*
X98598286Y-87919508D01*
X98599998Y-87921009D01*
X98602585Y-87920669D01*
X98606270Y-87921243D01*
X98609766Y-87919935D01*
X98640532Y-87926586D01*
X98671620Y-87931434D01*
X98675474Y-87934140D01*
X98678058Y-87934699D01*
X98688663Y-87943401D01*
X98706340Y-87955813D01*
X98710362Y-87959825D01*
X98726932Y-87979697D01*
X98727867Y-87980752D01*
X98788983Y-88039069D01*
X98791029Y-88040283D01*
X98798000Y-88047236D01*
X98798388Y-88047624D01*
X98798403Y-88047651D01*
X98798500Y-88047736D01*
X99231284Y-88480520D01*
X99368215Y-88559577D01*
X99520943Y-88600501D01*
X99520946Y-88600501D01*
X99686654Y-88600501D01*
X99686670Y-88600500D01*
X106663331Y-88600500D01*
X106663347Y-88600501D01*
X106670943Y-88600501D01*
X106829054Y-88600501D01*
X106829057Y-88600501D01*
X106981785Y-88559577D01*
X107031904Y-88530639D01*
X107118716Y-88480520D01*
X107230520Y-88368716D01*
X107230520Y-88368714D01*
X107240728Y-88358507D01*
X107240730Y-88358504D01*
X107322378Y-88276855D01*
X107370299Y-88247085D01*
X108227193Y-87957045D01*
X108266949Y-87950499D01*
X108400002Y-87950499D01*
X108400008Y-87950499D01*
X108502797Y-87939999D01*
X108669334Y-87884814D01*
X108818656Y-87792712D01*
X108912319Y-87699049D01*
X108973642Y-87665564D01*
X109043334Y-87670548D01*
X109087681Y-87699049D01*
X109181344Y-87792712D01*
X109330666Y-87884814D01*
X109497203Y-87939999D01*
X109599991Y-87950500D01*
X110400008Y-87950499D01*
X110400016Y-87950498D01*
X110400019Y-87950498D01*
X110509533Y-87939311D01*
X110509752Y-87941462D01*
X110569204Y-87945905D01*
X110625003Y-87987954D01*
X110649212Y-88053496D01*
X110649500Y-88061948D01*
X110649500Y-92449902D01*
X110629815Y-92516941D01*
X110613181Y-92537583D01*
X106119481Y-97031282D01*
X106119479Y-97031285D01*
X106069361Y-97118094D01*
X106069359Y-97118096D01*
X106040425Y-97168209D01*
X106040424Y-97168210D01*
X106040423Y-97168215D01*
X105999499Y-97320943D01*
X105999499Y-97320945D01*
X105999499Y-97489046D01*
X105999500Y-97489059D01*
X105999500Y-102775499D01*
X105996949Y-102784184D01*
X105998238Y-102793144D01*
X105987260Y-102817183D01*
X105979815Y-102842538D01*
X105972974Y-102848465D01*
X105969214Y-102856700D01*
X105946979Y-102870989D01*
X105927011Y-102888293D01*
X105916499Y-102890579D01*
X105910437Y-102894476D01*
X105875505Y-102899498D01*
X105875502Y-102899499D01*
X105820943Y-102899499D01*
X105820939Y-102899499D01*
X105813333Y-102899500D01*
X105813332Y-102899499D01*
X105813331Y-102899500D01*
X105133496Y-102899500D01*
X105071104Y-102882660D01*
X104905009Y-102785954D01*
X104856979Y-102735211D01*
X104844006Y-102666556D01*
X104861864Y-102613695D01*
X104889354Y-102569128D01*
X104889358Y-102569119D01*
X104944505Y-102402697D01*
X104944506Y-102402690D01*
X104954999Y-102299986D01*
X104955000Y-102299973D01*
X104955000Y-102250000D01*
X102455001Y-102250000D01*
X102455001Y-102299986D01*
X102465494Y-102402697D01*
X102520641Y-102569119D01*
X102520644Y-102569126D01*
X102541822Y-102603461D01*
X102545100Y-102615444D01*
X102552531Y-102625402D01*
X102554147Y-102648509D01*
X102560261Y-102670853D01*
X102556540Y-102682708D01*
X102557407Y-102695101D01*
X102546275Y-102715412D01*
X102539338Y-102737517D01*
X102528984Y-102746964D01*
X102523828Y-102756373D01*
X102495541Y-102777480D01*
X102422563Y-102817183D01*
X102344917Y-102859424D01*
X102285660Y-102874500D01*
X101560453Y-102874500D01*
X101493414Y-102854815D01*
X101472772Y-102838181D01*
X100334604Y-101700013D01*
X102455000Y-101700013D01*
X102455000Y-101750000D01*
X103455000Y-101750000D01*
X103955000Y-101750000D01*
X104954999Y-101750000D01*
X104954999Y-101700028D01*
X104954998Y-101700013D01*
X104944505Y-101597302D01*
X104889358Y-101430880D01*
X104889356Y-101430875D01*
X104797315Y-101281654D01*
X104673345Y-101157684D01*
X104524124Y-101065643D01*
X104524119Y-101065641D01*
X104357697Y-101010494D01*
X104357690Y-101010493D01*
X104254986Y-101000000D01*
X103955000Y-101000000D01*
X103955000Y-101750000D01*
X103455000Y-101750000D01*
X103455000Y-101000000D01*
X103155028Y-101000000D01*
X103155012Y-101000001D01*
X103052302Y-101010494D01*
X102885880Y-101065641D01*
X102885875Y-101065643D01*
X102736654Y-101157684D01*
X102612684Y-101281654D01*
X102520643Y-101430875D01*
X102520641Y-101430880D01*
X102465494Y-101597302D01*
X102465493Y-101597309D01*
X102455000Y-101700013D01*
X100334604Y-101700013D01*
X92661819Y-94027228D01*
X92628334Y-93965905D01*
X92625500Y-93939547D01*
X92625500Y-89233743D01*
X92643381Y-89169597D01*
X92917441Y-88716207D01*
X92950783Y-88679958D01*
X93371260Y-88375186D01*
X93371720Y-88374946D01*
X93371885Y-88374736D01*
X93373280Y-88374131D01*
X93403221Y-88358496D01*
X93411371Y-88355655D01*
X93432452Y-88351463D01*
X93477144Y-88332951D01*
X93546286Y-88304312D01*
X93597509Y-88270084D01*
X93648733Y-88235858D01*
X93735858Y-88148733D01*
X93735859Y-88148731D01*
X93742925Y-88141665D01*
X93742927Y-88141661D01*
X94722771Y-87161819D01*
X94749698Y-87147115D01*
X94775517Y-87130523D01*
X94781717Y-87129631D01*
X94784094Y-87128334D01*
X94810452Y-87125500D01*
X94925501Y-87125500D01*
X94992540Y-87145185D01*
G37*
%TD.AperFunction*%
%TA.AperFunction,Conductor*%
G36*
X95729442Y-82832685D02*
G01*
X95750084Y-82849319D01*
X97763584Y-84862819D01*
X97797069Y-84924142D01*
X97792085Y-84993834D01*
X97750213Y-85049767D01*
X97684749Y-85074184D01*
X97675904Y-85074500D01*
X97530270Y-85074500D01*
X97416183Y-85089519D01*
X97383816Y-85089519D01*
X97269729Y-85074500D01*
X96880270Y-85074500D01*
X96766183Y-85089519D01*
X96733816Y-85089519D01*
X96619729Y-85074500D01*
X96230270Y-85074500D01*
X96116183Y-85089519D01*
X96083816Y-85089519D01*
X95969729Y-85074500D01*
X95580270Y-85074500D01*
X95469230Y-85089117D01*
X95469218Y-85089121D01*
X95331053Y-85146350D01*
X95331052Y-85146350D01*
X95212398Y-85237398D01*
X95121350Y-85356052D01*
X95121350Y-85356053D01*
X95064121Y-85494218D01*
X95064119Y-85494223D01*
X95049501Y-85605263D01*
X95049500Y-85605279D01*
X95049500Y-85750500D01*
X95029815Y-85817539D01*
X94977011Y-85863294D01*
X94925500Y-85874500D01*
X94438387Y-85874500D01*
X94433361Y-85875500D01*
X94317555Y-85898535D01*
X94317543Y-85898538D01*
X94289919Y-85909980D01*
X94289920Y-85909981D01*
X94203718Y-85945686D01*
X94203711Y-85945690D01*
X94186620Y-85957110D01*
X94178190Y-85962743D01*
X94178189Y-85962744D01*
X94178188Y-85962743D01*
X94101266Y-86014142D01*
X94101265Y-86014143D01*
X94073580Y-86041829D01*
X94014142Y-86101267D01*
X94014139Y-86101270D01*
X93225365Y-86890043D01*
X93164042Y-86923528D01*
X93094350Y-86918544D01*
X93064913Y-86902763D01*
X92888322Y-86774765D01*
X92873414Y-86762046D01*
X92818657Y-86707289D01*
X92818656Y-86707288D01*
X92669334Y-86615186D01*
X92502797Y-86560001D01*
X92502795Y-86560000D01*
X92400010Y-86549500D01*
X91599998Y-86549500D01*
X91599980Y-86549501D01*
X91497203Y-86560000D01*
X91497199Y-86560001D01*
X91407153Y-86589840D01*
X91337324Y-86592242D01*
X91277282Y-86556510D01*
X91246090Y-86493989D01*
X91253651Y-86424530D01*
X91274452Y-86393459D01*
X91273274Y-86392492D01*
X91277134Y-86387786D01*
X91277139Y-86387782D01*
X91386632Y-86223914D01*
X91462051Y-86041835D01*
X91481176Y-85945688D01*
X91500500Y-85848543D01*
X91500500Y-85292167D01*
X91501725Y-85274778D01*
X91511763Y-85203907D01*
X91557685Y-84879670D01*
X91574919Y-84831970D01*
X91659814Y-84694334D01*
X91666225Y-84674986D01*
X92275001Y-84674986D01*
X92285494Y-84777697D01*
X92340641Y-84944119D01*
X92340643Y-84944124D01*
X92432684Y-85093345D01*
X92556654Y-85217315D01*
X92705875Y-85309356D01*
X92705880Y-85309358D01*
X92872302Y-85364505D01*
X92872309Y-85364506D01*
X92975019Y-85374999D01*
X93249999Y-85374999D01*
X93750000Y-85374999D01*
X94024972Y-85374999D01*
X94024986Y-85374998D01*
X94127697Y-85364505D01*
X94294119Y-85309358D01*
X94294124Y-85309356D01*
X94443345Y-85217315D01*
X94567315Y-85093345D01*
X94659356Y-84944124D01*
X94659358Y-84944119D01*
X94714505Y-84777697D01*
X94714506Y-84777690D01*
X94724999Y-84674986D01*
X94725000Y-84674973D01*
X94725000Y-84537500D01*
X93750000Y-84537500D01*
X93750000Y-85374999D01*
X93249999Y-85374999D01*
X93250000Y-85374998D01*
X93250000Y-84537500D01*
X92275001Y-84537500D01*
X92275001Y-84674986D01*
X91666225Y-84674986D01*
X91714999Y-84527797D01*
X91720020Y-84478652D01*
X91720543Y-84473534D01*
X91720543Y-84473533D01*
X91725499Y-84425018D01*
X91725500Y-84425009D01*
X91725499Y-83749499D01*
X91745183Y-83682461D01*
X91797987Y-83636706D01*
X91849499Y-83625500D01*
X92170704Y-83625500D01*
X92237743Y-83645185D01*
X92283498Y-83697989D01*
X92293442Y-83767147D01*
X92288411Y-83788501D01*
X92285495Y-83797300D01*
X92285493Y-83797309D01*
X92275000Y-83900013D01*
X92275000Y-84037500D01*
X94724999Y-84037500D01*
X94724999Y-83900028D01*
X94724998Y-83900013D01*
X94714505Y-83797302D01*
X94659358Y-83630880D01*
X94659356Y-83630875D01*
X94567315Y-83481654D01*
X94443344Y-83357683D01*
X94440844Y-83356141D01*
X94439490Y-83354635D01*
X94437677Y-83353202D01*
X94437922Y-83352892D01*
X94394122Y-83304190D01*
X94382903Y-83235227D01*
X94410750Y-83171147D01*
X94439732Y-83145764D01*
X94936335Y-82832155D01*
X95002545Y-82813000D01*
X95662403Y-82813000D01*
X95729442Y-82832685D01*
G37*
%TD.AperFunction*%
%TA.AperFunction,Conductor*%
G36*
X110193039Y-80019685D02*
G01*
X110238794Y-80072489D01*
X110250000Y-80124000D01*
X110250000Y-80895000D01*
X110251181Y-80896181D01*
X110284666Y-80957504D01*
X110287500Y-80983862D01*
X110287500Y-83516138D01*
X110267815Y-83583177D01*
X110251181Y-83603819D01*
X110250000Y-83605000D01*
X110250000Y-84376000D01*
X110230315Y-84443039D01*
X110177511Y-84488794D01*
X110126000Y-84500000D01*
X109874000Y-84500000D01*
X109806961Y-84480315D01*
X109761206Y-84427511D01*
X109750000Y-84376000D01*
X109750000Y-83258862D01*
X109769685Y-83191823D01*
X109786319Y-83171181D01*
X109787500Y-83170000D01*
X109787500Y-81330000D01*
X109786319Y-81328819D01*
X109752834Y-81267496D01*
X109750000Y-81241138D01*
X109750000Y-80124000D01*
X109769685Y-80056961D01*
X109822489Y-80011206D01*
X109874000Y-80000000D01*
X110126000Y-80000000D01*
X110193039Y-80019685D01*
G37*
%TD.AperFunction*%
%TA.AperFunction,Conductor*%
G36*
X93539236Y-64515602D02*
G01*
X93546982Y-64514056D01*
X93572609Y-64524119D01*
X93599283Y-64530926D01*
X93604664Y-64536705D01*
X93612018Y-64539593D01*
X93628137Y-64561915D01*
X93646896Y-64582061D01*
X93648298Y-64589833D01*
X93652923Y-64596237D01*
X93654415Y-64623729D01*
X93659304Y-64650820D01*
X93658489Y-64656957D01*
X93649500Y-64713713D01*
X93649500Y-64926287D01*
X93654660Y-64958866D01*
X93677092Y-65100499D01*
X93682754Y-65136243D01*
X93748044Y-65337184D01*
X93748847Y-65365301D01*
X93752851Y-65393147D01*
X93749831Y-65399758D01*
X93750039Y-65407023D01*
X93735512Y-65431112D01*
X93723826Y-65456703D01*
X93717712Y-65460632D01*
X93713959Y-65466856D01*
X93688712Y-65479268D01*
X93665048Y-65494477D01*
X93654777Y-65495953D01*
X93651258Y-65497684D01*
X93630113Y-65499500D01*
X93486670Y-65499500D01*
X93486654Y-65499499D01*
X93479058Y-65499499D01*
X93320943Y-65499499D01*
X93244579Y-65519961D01*
X93168214Y-65540423D01*
X93168209Y-65540426D01*
X93031290Y-65619475D01*
X93031282Y-65619481D01*
X92524217Y-66126546D01*
X92524214Y-66126548D01*
X92524215Y-66126549D01*
X92419478Y-66231286D01*
X92396174Y-66271651D01*
X92384521Y-66291835D01*
X92340423Y-66368215D01*
X92299499Y-66520943D01*
X92299499Y-66520945D01*
X92299499Y-66689046D01*
X92299500Y-66689059D01*
X92299500Y-74063330D01*
X92299499Y-74063348D01*
X92299499Y-74229054D01*
X92299498Y-74229054D01*
X92322388Y-74314481D01*
X92340423Y-74381785D01*
X92366115Y-74426284D01*
X92419479Y-74518714D01*
X92419481Y-74518717D01*
X92538349Y-74637585D01*
X92538355Y-74637590D01*
X95763584Y-77862819D01*
X95797069Y-77924142D01*
X95792085Y-77993834D01*
X95750213Y-78049767D01*
X95684749Y-78074184D01*
X95675904Y-78074500D01*
X95580271Y-78074500D01*
X95469230Y-78089117D01*
X95469218Y-78089121D01*
X95331053Y-78146350D01*
X95331052Y-78146350D01*
X95212398Y-78237398D01*
X95121350Y-78356052D01*
X95121350Y-78356053D01*
X95064121Y-78494218D01*
X95064119Y-78494223D01*
X95049501Y-78605263D01*
X95049500Y-78605279D01*
X95049500Y-80394729D01*
X95051583Y-80410552D01*
X95052850Y-80420182D01*
X95052623Y-80424431D01*
X95053304Y-80432046D01*
X95056019Y-80455967D01*
X95058867Y-80465887D01*
X95060072Y-80475041D01*
X95060074Y-80475047D01*
X95064120Y-80505778D01*
X95064121Y-80505781D01*
X95081649Y-80548098D01*
X95086271Y-80561324D01*
X95095727Y-80594254D01*
X95095731Y-80594264D01*
X95106720Y-80618712D01*
X95161562Y-80740724D01*
X95163599Y-80745254D01*
X95174499Y-80796091D01*
X95174499Y-80803997D01*
X95174498Y-80803997D01*
X95187802Y-80853647D01*
X95215423Y-80956728D01*
X95224145Y-80971835D01*
X95224146Y-80971838D01*
X95224147Y-80971838D01*
X95294477Y-81093655D01*
X95294481Y-81093660D01*
X95413349Y-81212528D01*
X95413355Y-81212533D01*
X95601141Y-81400319D01*
X95634626Y-81461642D01*
X95629642Y-81531334D01*
X95587770Y-81587267D01*
X95522306Y-81611684D01*
X95513460Y-81612000D01*
X95002547Y-81612000D01*
X94936337Y-81592844D01*
X94741911Y-81470063D01*
X94348463Y-81221598D01*
X94348452Y-81221593D01*
X94343934Y-81219558D01*
X94336599Y-81216255D01*
X94294334Y-81190186D01*
X94235180Y-81170584D01*
X94229339Y-81167954D01*
X94229338Y-81167953D01*
X94221662Y-81164498D01*
X94219693Y-81163611D01*
X94219690Y-81163610D01*
X94213473Y-81161802D01*
X94202044Y-81159100D01*
X94191576Y-81156134D01*
X94127800Y-81135001D01*
X94025010Y-81124500D01*
X92974998Y-81124500D01*
X92974980Y-81124501D01*
X92872203Y-81135000D01*
X92872200Y-81135001D01*
X92705668Y-81190185D01*
X92705663Y-81190187D01*
X92556342Y-81282289D01*
X92432289Y-81406342D01*
X92340187Y-81555663D01*
X92340185Y-81555668D01*
X92322118Y-81610191D01*
X92285001Y-81722203D01*
X92285001Y-81722204D01*
X92285000Y-81722204D01*
X92274500Y-81824983D01*
X92274500Y-81885041D01*
X92265722Y-81930866D01*
X92120374Y-82296325D01*
X92107524Y-82312740D01*
X92098865Y-82331703D01*
X92086423Y-82339698D01*
X92077308Y-82351344D01*
X92057623Y-82358206D01*
X92040087Y-82369477D01*
X92014919Y-82373095D01*
X92011333Y-82374346D01*
X92005152Y-82374500D01*
X91849000Y-82374500D01*
X91781961Y-82354815D01*
X91736206Y-82302011D01*
X91725000Y-82250500D01*
X91725000Y-82212500D01*
X89275001Y-82212500D01*
X89275001Y-82250500D01*
X89272450Y-82259185D01*
X89273739Y-82268147D01*
X89262760Y-82292187D01*
X89255316Y-82317539D01*
X89248475Y-82323466D01*
X89244714Y-82331703D01*
X89222479Y-82345992D01*
X89202512Y-82363294D01*
X89191997Y-82365581D01*
X89185936Y-82369477D01*
X89151001Y-82374500D01*
X89124500Y-82374500D01*
X89057461Y-82354815D01*
X89011706Y-82302011D01*
X89000500Y-82250500D01*
X89000500Y-81575013D01*
X89275000Y-81575013D01*
X89275000Y-81712500D01*
X90250000Y-81712500D01*
X90750000Y-81712500D01*
X91724999Y-81712500D01*
X91724999Y-81575028D01*
X91724998Y-81575013D01*
X91714505Y-81472302D01*
X91659358Y-81305880D01*
X91659356Y-81305875D01*
X91567315Y-81156654D01*
X91443345Y-81032684D01*
X91294124Y-80940643D01*
X91294119Y-80940641D01*
X91127697Y-80885494D01*
X91127690Y-80885493D01*
X91024986Y-80875000D01*
X90750000Y-80875000D01*
X90750000Y-81712500D01*
X90250000Y-81712500D01*
X90250000Y-80875000D01*
X89975029Y-80875000D01*
X89975012Y-80875001D01*
X89872302Y-80885494D01*
X89705880Y-80940641D01*
X89705875Y-80940643D01*
X89556654Y-81032684D01*
X89432684Y-81156654D01*
X89340643Y-81305875D01*
X89340641Y-81305880D01*
X89285494Y-81472302D01*
X89285493Y-81472309D01*
X89275000Y-81575013D01*
X89000500Y-81575013D01*
X89000500Y-69112230D01*
X89020185Y-69045191D01*
X89036819Y-69024549D01*
X93332947Y-64728421D01*
X93332952Y-64728416D01*
X93394279Y-64636632D01*
X93415084Y-64605495D01*
X93424409Y-64582982D01*
X93428218Y-64576283D01*
X93448018Y-64557151D01*
X93465290Y-64535717D01*
X93472783Y-64533222D01*
X93478464Y-64527734D01*
X93505460Y-64522344D01*
X93531583Y-64513649D01*
X93539236Y-64515602D01*
G37*
%TD.AperFunction*%
%TA.AperFunction,Conductor*%
G36*
X99690789Y-80732413D02*
G01*
X99718323Y-80734380D01*
X99726073Y-80739361D01*
X99732263Y-80740580D01*
X99740924Y-80748905D01*
X99755482Y-80758261D01*
X99755949Y-80757654D01*
X99851486Y-80830962D01*
X99892689Y-80887390D01*
X99898286Y-80919506D01*
X99899999Y-80921009D01*
X99981900Y-80910227D01*
X100014271Y-80910227D01*
X100019217Y-80910878D01*
X100019222Y-80910880D01*
X100130273Y-80925500D01*
X100519726Y-80925499D01*
X100519728Y-80925499D01*
X100633818Y-80910480D01*
X100666188Y-80910480D01*
X100669219Y-80910879D01*
X100669222Y-80910880D01*
X100780273Y-80925500D01*
X101169726Y-80925499D01*
X101169728Y-80925499D01*
X101283818Y-80910480D01*
X101316188Y-80910480D01*
X101319219Y-80910879D01*
X101319222Y-80910880D01*
X101430273Y-80925500D01*
X101725902Y-80925499D01*
X101792941Y-80945183D01*
X101838696Y-80997987D01*
X101848640Y-81067146D01*
X101819615Y-81130701D01*
X101813583Y-81137180D01*
X100886584Y-82064181D01*
X100825261Y-82097666D01*
X100798903Y-82100500D01*
X99267585Y-82100500D01*
X99200546Y-82080815D01*
X99154791Y-82028011D01*
X99144847Y-81958853D01*
X99145968Y-81952308D01*
X99175500Y-81803844D01*
X99175500Y-81646155D01*
X99175499Y-81646153D01*
X99170735Y-81622203D01*
X99144737Y-81491503D01*
X99135854Y-81470057D01*
X99133843Y-81464877D01*
X99096970Y-81363181D01*
X99076363Y-81306344D01*
X98998562Y-81091766D01*
X98996942Y-81065784D01*
X98991475Y-81040340D01*
X98994804Y-81031480D01*
X98994216Y-81022032D01*
X99006899Y-80999301D01*
X99016057Y-80974938D01*
X99023649Y-80969284D01*
X99028262Y-80961018D01*
X99051219Y-80948754D01*
X99072096Y-80933208D01*
X99084469Y-80930991D01*
X99089890Y-80928096D01*
X99106603Y-80925793D01*
X99110865Y-80925499D01*
X99219726Y-80925499D01*
X99330778Y-80910880D01*
X99332372Y-80910219D01*
X99343382Y-80909460D01*
X99346866Y-80910227D01*
X99368100Y-80910227D01*
X99450000Y-80921009D01*
X99451215Y-80919943D01*
X99460709Y-80892866D01*
X99469685Y-80862299D01*
X99472513Y-80859200D01*
X99473283Y-80857005D01*
X99494590Y-80835011D01*
X99497741Y-80831560D01*
X99498103Y-80831277D01*
X99587602Y-80762602D01*
X99589754Y-80759796D01*
X99598741Y-80752788D01*
X99624406Y-80742632D01*
X99648631Y-80729402D01*
X99656435Y-80729959D01*
X99663710Y-80727081D01*
X99690789Y-80732413D01*
G37*
%TD.AperFunction*%
%TA.AperFunction,Conductor*%
G36*
X107055809Y-78870185D02*
G01*
X107101564Y-78922989D01*
X107111508Y-78992147D01*
X107082483Y-79055703D01*
X107076451Y-79062181D01*
X107057289Y-79081342D01*
X106965187Y-79230663D01*
X106965185Y-79230668D01*
X106942179Y-79300097D01*
X106910001Y-79397203D01*
X106910001Y-79397204D01*
X106910000Y-79397204D01*
X106899500Y-79499983D01*
X106899500Y-79694306D01*
X106895380Y-79726004D01*
X106623772Y-80753207D01*
X106591573Y-80809190D01*
X106037584Y-81363181D01*
X105976261Y-81396666D01*
X105949903Y-81399500D01*
X105249097Y-81399500D01*
X105182058Y-81379815D01*
X105136303Y-81327011D01*
X105126359Y-81257853D01*
X105155384Y-81194297D01*
X105161416Y-81187819D01*
X105267648Y-81081586D01*
X105608506Y-80740727D01*
X105608511Y-80740724D01*
X105618714Y-80730520D01*
X105618716Y-80730520D01*
X105730520Y-80618716D01*
X105799054Y-80500011D01*
X105799055Y-80500010D01*
X105803324Y-80492614D01*
X105809577Y-80481785D01*
X105850501Y-80329057D01*
X105850501Y-80170943D01*
X105850501Y-80163348D01*
X105850500Y-80163330D01*
X105850500Y-79300097D01*
X105870185Y-79233058D01*
X105886819Y-79212416D01*
X106212416Y-78886819D01*
X106273739Y-78853334D01*
X106300097Y-78850500D01*
X106988770Y-78850500D01*
X107055809Y-78870185D01*
G37*
%TD.AperFunction*%
%TA.AperFunction,Conductor*%
G36*
X97191485Y-57965121D02*
G01*
X97630837Y-58199771D01*
X97636197Y-58203746D01*
X97642499Y-58206851D01*
X97651974Y-58213342D01*
X97681344Y-58242712D01*
X97816819Y-58326273D01*
X97819277Y-58327957D01*
X97839563Y-58352811D01*
X97861017Y-58376663D01*
X97861511Y-58379699D01*
X97863458Y-58382085D01*
X97867086Y-58413960D01*
X97872240Y-58445626D01*
X97871013Y-58448449D01*
X97871361Y-58451506D01*
X97857184Y-58480276D01*
X97844396Y-58509708D01*
X97841838Y-58511419D01*
X97840478Y-58514180D01*
X97811242Y-58535582D01*
X97812025Y-58536851D01*
X97656654Y-58632684D01*
X97532684Y-58756654D01*
X97440643Y-58905875D01*
X97440641Y-58905880D01*
X97385494Y-59072302D01*
X97385493Y-59072309D01*
X97375000Y-59175013D01*
X97375000Y-59450000D01*
X98338500Y-59450000D01*
X98405539Y-59469685D01*
X98451294Y-59522489D01*
X98462500Y-59574000D01*
X98462500Y-59826000D01*
X98442815Y-59893039D01*
X98390011Y-59938794D01*
X98338500Y-59950000D01*
X97375001Y-59950000D01*
X97375001Y-60224986D01*
X97385494Y-60327697D01*
X97440641Y-60494119D01*
X97440643Y-60494124D01*
X97532684Y-60643345D01*
X97619321Y-60729982D01*
X97652806Y-60791305D01*
X97647822Y-60860997D01*
X97605950Y-60916930D01*
X97570646Y-60935368D01*
X97480672Y-60965184D01*
X97480663Y-60965187D01*
X97331342Y-61057289D01*
X97207289Y-61181342D01*
X97115187Y-61330663D01*
X97115185Y-61330668D01*
X97098617Y-61380668D01*
X97060001Y-61497203D01*
X97060001Y-61497204D01*
X97060000Y-61497204D01*
X97049500Y-61599983D01*
X97049500Y-62400001D01*
X97049501Y-62400019D01*
X97060000Y-62502796D01*
X97060001Y-62502799D01*
X97090966Y-62596243D01*
X97115186Y-62669334D01*
X97206933Y-62818081D01*
X97207289Y-62818657D01*
X97300951Y-62912319D01*
X97334436Y-62973642D01*
X97329452Y-63043334D01*
X97300951Y-63087681D01*
X97207289Y-63181342D01*
X97115187Y-63330663D01*
X97115186Y-63330666D01*
X97060001Y-63497203D01*
X97060001Y-63497204D01*
X97060000Y-63497204D01*
X97049500Y-63599983D01*
X97049500Y-64400001D01*
X97049501Y-64400019D01*
X97060000Y-64502796D01*
X97060001Y-64502799D01*
X97115185Y-64669331D01*
X97115187Y-64669336D01*
X97142559Y-64713713D01*
X97202127Y-64810289D01*
X97207289Y-64818657D01*
X97268607Y-64879975D01*
X97279509Y-64892440D01*
X97590683Y-65300284D01*
X97615698Y-65365522D01*
X97601472Y-65433928D01*
X97552521Y-65483784D01*
X97492100Y-65499500D01*
X96369887Y-65499500D01*
X96302848Y-65479815D01*
X96257093Y-65427011D01*
X96247149Y-65357853D01*
X96251954Y-65337189D01*
X96317246Y-65136243D01*
X96350500Y-64926287D01*
X96350500Y-64713713D01*
X96317246Y-64503757D01*
X96251557Y-64301588D01*
X96155051Y-64112184D01*
X96155049Y-64112181D01*
X96155048Y-64112179D01*
X96030109Y-63940213D01*
X95879786Y-63789890D01*
X95707820Y-63664951D01*
X95707115Y-63664591D01*
X95699054Y-63660485D01*
X95648259Y-63612512D01*
X95631463Y-63544692D01*
X95653999Y-63478556D01*
X95699054Y-63439515D01*
X95707816Y-63435051D01*
X95826888Y-63348541D01*
X95879786Y-63310109D01*
X95879788Y-63310106D01*
X95879792Y-63310104D01*
X96030104Y-63159792D01*
X96030106Y-63159788D01*
X96030109Y-63159786D01*
X96155048Y-62987820D01*
X96155047Y-62987820D01*
X96155051Y-62987816D01*
X96251557Y-62798412D01*
X96317246Y-62596243D01*
X96350500Y-62386287D01*
X96350500Y-62173713D01*
X96317246Y-61963757D01*
X96251557Y-61761588D01*
X96155051Y-61572184D01*
X96155049Y-61572181D01*
X96155048Y-61572179D01*
X96030109Y-61400213D01*
X95879786Y-61249890D01*
X95707817Y-61124949D01*
X95698504Y-61120204D01*
X95647707Y-61072230D01*
X95630912Y-61004409D01*
X95653449Y-60938274D01*
X95698507Y-60899232D01*
X95707555Y-60894622D01*
X95761716Y-60855270D01*
X95761717Y-60855270D01*
X95129408Y-60222962D01*
X95192993Y-60205925D01*
X95307007Y-60140099D01*
X95400099Y-60047007D01*
X95465925Y-59932993D01*
X95482962Y-59869409D01*
X96115270Y-60501717D01*
X96115270Y-60501716D01*
X96154622Y-60447554D01*
X96251095Y-60258217D01*
X96316757Y-60056130D01*
X96316757Y-60056127D01*
X96350000Y-59846246D01*
X96350000Y-59633753D01*
X96316757Y-59423872D01*
X96316757Y-59423869D01*
X96251095Y-59221782D01*
X96154624Y-59032449D01*
X96115270Y-58978282D01*
X96115269Y-58978282D01*
X95482962Y-59610590D01*
X95465925Y-59547007D01*
X95400099Y-59432993D01*
X95307007Y-59339901D01*
X95192993Y-59274075D01*
X95129409Y-59257037D01*
X95761716Y-58624728D01*
X95707547Y-58585373D01*
X95703396Y-58582829D01*
X95704533Y-58580973D01*
X95660339Y-58539161D01*
X95643601Y-58471326D01*
X95666196Y-58405210D01*
X95720948Y-58361806D01*
X95722906Y-58361033D01*
X96594753Y-58025776D01*
X96769025Y-57958762D01*
X96813530Y-57950500D01*
X97133069Y-57950500D01*
X97191485Y-57965121D01*
G37*
%TD.AperFunction*%
%TA.AperFunction,Conductor*%
G36*
X94534075Y-59932993D02*
G01*
X94599901Y-60047007D01*
X94692993Y-60140099D01*
X94807007Y-60205925D01*
X94870590Y-60222962D01*
X94238282Y-60855269D01*
X94238282Y-60855270D01*
X94292452Y-60894626D01*
X94292451Y-60894626D01*
X94301495Y-60899234D01*
X94352292Y-60947208D01*
X94369087Y-61015029D01*
X94346550Y-61081164D01*
X94301499Y-61120202D01*
X94292182Y-61124949D01*
X94120213Y-61249890D01*
X93969890Y-61400213D01*
X93844951Y-61572179D01*
X93748445Y-61761582D01*
X93748443Y-61761587D01*
X93748443Y-61761588D01*
X93742429Y-61780094D01*
X93702992Y-61837768D01*
X93638633Y-61864965D01*
X93569787Y-61853050D01*
X93518312Y-61805805D01*
X93500500Y-61741773D01*
X93500500Y-60276611D01*
X93520185Y-60209572D01*
X93572989Y-60163817D01*
X93642147Y-60153873D01*
X93705703Y-60182898D01*
X93742432Y-60238294D01*
X93748906Y-60258221D01*
X93845375Y-60447550D01*
X93884728Y-60501716D01*
X94517037Y-59869408D01*
X94534075Y-59932993D01*
G37*
%TD.AperFunction*%
%TA.AperFunction,Conductor*%
G36*
X93668998Y-58127198D02*
G01*
X94208904Y-58334812D01*
X94277022Y-58361006D01*
X94332529Y-58403441D01*
X94356283Y-58469149D01*
X94340742Y-58537268D01*
X94295708Y-58581399D01*
X94296590Y-58582838D01*
X94292440Y-58585380D01*
X94238282Y-58624727D01*
X94238282Y-58624728D01*
X94870591Y-59257037D01*
X94807007Y-59274075D01*
X94692993Y-59339901D01*
X94599901Y-59432993D01*
X94534075Y-59547007D01*
X94517037Y-59610591D01*
X93884728Y-58978282D01*
X93884727Y-58978282D01*
X93845380Y-59032439D01*
X93748904Y-59221782D01*
X93742431Y-59241706D01*
X93702994Y-59299381D01*
X93638635Y-59326580D01*
X93569789Y-59314665D01*
X93518313Y-59267421D01*
X93500500Y-59203388D01*
X93500500Y-58242938D01*
X93520185Y-58175899D01*
X93572989Y-58130144D01*
X93642147Y-58120200D01*
X93668998Y-58127198D01*
G37*
%TD.AperFunction*%
%TA.AperFunction,Conductor*%
G36*
X114004418Y-45500816D02*
G01*
X114204561Y-45515130D01*
X114222063Y-45517647D01*
X114413797Y-45559355D01*
X114430755Y-45564334D01*
X114614609Y-45632909D01*
X114630701Y-45640259D01*
X114802904Y-45734288D01*
X114817784Y-45743849D01*
X114974867Y-45861441D01*
X114988237Y-45873027D01*
X115126972Y-46011762D01*
X115138558Y-46025132D01*
X115256146Y-46182210D01*
X115265711Y-46197095D01*
X115359740Y-46369298D01*
X115367090Y-46385390D01*
X115435662Y-46569236D01*
X115440646Y-46586212D01*
X115482351Y-46777931D01*
X115484869Y-46795442D01*
X115499184Y-46995580D01*
X115499500Y-47004427D01*
X115499500Y-228995572D01*
X115499184Y-229004419D01*
X115484869Y-229204557D01*
X115482351Y-229222068D01*
X115440646Y-229413787D01*
X115435662Y-229430763D01*
X115367090Y-229614609D01*
X115359740Y-229630701D01*
X115265711Y-229802904D01*
X115256146Y-229817789D01*
X115138558Y-229974867D01*
X115126972Y-229988237D01*
X114988237Y-230126972D01*
X114974867Y-230138558D01*
X114817789Y-230256146D01*
X114802904Y-230265711D01*
X114630701Y-230359740D01*
X114614609Y-230367090D01*
X114430763Y-230435662D01*
X114413787Y-230440646D01*
X114222068Y-230482351D01*
X114204557Y-230484869D01*
X114023779Y-230497799D01*
X114004417Y-230499184D01*
X113995572Y-230499500D01*
X86004428Y-230499500D01*
X85995582Y-230499184D01*
X85973622Y-230497613D01*
X85795442Y-230484869D01*
X85777931Y-230482351D01*
X85586212Y-230440646D01*
X85569236Y-230435662D01*
X85385390Y-230367090D01*
X85369298Y-230359740D01*
X85197095Y-230265711D01*
X85182210Y-230256146D01*
X85025132Y-230138558D01*
X85011762Y-230126972D01*
X84873027Y-229988237D01*
X84861441Y-229974867D01*
X84743849Y-229817784D01*
X84734288Y-229802904D01*
X84640259Y-229630701D01*
X84632909Y-229614609D01*
X84572091Y-229451551D01*
X84564334Y-229430755D01*
X84559355Y-229413797D01*
X84517647Y-229222063D01*
X84515130Y-229204556D01*
X84500816Y-229004418D01*
X84500500Y-228995572D01*
X84500500Y-215649983D01*
X89274500Y-215649983D01*
X89274500Y-216425001D01*
X89274501Y-216425019D01*
X89285000Y-216527796D01*
X89285001Y-216527799D01*
X89340185Y-216694331D01*
X89340189Y-216694340D01*
X89425076Y-216831964D01*
X89442312Y-216879670D01*
X89498230Y-217274459D01*
X89498090Y-217274478D01*
X89499500Y-217292129D01*
X89499500Y-217848541D01*
X89499500Y-217848543D01*
X89499499Y-217848543D01*
X89537947Y-218041829D01*
X89537950Y-218041839D01*
X89613364Y-218223907D01*
X89613371Y-218223920D01*
X89722860Y-218387781D01*
X89722863Y-218387785D01*
X89862214Y-218527136D01*
X89862218Y-218527139D01*
X90026079Y-218636628D01*
X90026092Y-218636635D01*
X90208160Y-218712049D01*
X90208165Y-218712051D01*
X90208169Y-218712051D01*
X90208170Y-218712052D01*
X90401456Y-218750500D01*
X90401459Y-218750500D01*
X90598543Y-218750500D01*
X90728582Y-218724632D01*
X90791835Y-218712051D01*
X90973914Y-218636632D01*
X91137782Y-218527139D01*
X91277139Y-218387782D01*
X91386632Y-218223914D01*
X91462051Y-218041835D01*
X91500500Y-217848541D01*
X91500500Y-217292167D01*
X91501725Y-217274778D01*
X91501930Y-217273331D01*
X91557685Y-216879670D01*
X91574919Y-216831970D01*
X91659814Y-216694334D01*
X91714999Y-216527797D01*
X91725500Y-216425009D01*
X91725499Y-215649992D01*
X91723117Y-215626677D01*
X91714999Y-215547203D01*
X91714998Y-215547200D01*
X91659814Y-215380666D01*
X91567712Y-215231344D01*
X91443656Y-215107288D01*
X91440342Y-215105243D01*
X91438546Y-215103248D01*
X91437989Y-215102807D01*
X91438064Y-215102711D01*
X91393618Y-215053297D01*
X91382397Y-214984334D01*
X91410240Y-214920252D01*
X91440348Y-214894165D01*
X91443342Y-214892318D01*
X91567315Y-214768345D01*
X91659356Y-214619124D01*
X91659358Y-214619119D01*
X91714505Y-214452697D01*
X91714506Y-214452690D01*
X91724999Y-214349986D01*
X91725000Y-214349973D01*
X91725000Y-214212500D01*
X89275001Y-214212500D01*
X89275001Y-214349986D01*
X89285494Y-214452697D01*
X89340641Y-214619119D01*
X89340643Y-214619124D01*
X89432684Y-214768345D01*
X89556655Y-214892316D01*
X89556659Y-214892319D01*
X89559656Y-214894168D01*
X89561279Y-214895972D01*
X89562323Y-214896798D01*
X89562181Y-214896976D01*
X89606381Y-214946116D01*
X89617602Y-215015079D01*
X89589759Y-215079161D01*
X89559661Y-215105241D01*
X89556349Y-215107283D01*
X89556343Y-215107288D01*
X89432289Y-215231342D01*
X89340187Y-215380663D01*
X89340185Y-215380668D01*
X89339057Y-215384073D01*
X89285001Y-215547203D01*
X89285001Y-215547204D01*
X89285000Y-215547204D01*
X89274500Y-215649983D01*
X84500500Y-215649983D01*
X84500500Y-213575013D01*
X89275000Y-213575013D01*
X89275000Y-213712500D01*
X90250000Y-213712500D01*
X90750000Y-213712500D01*
X91724999Y-213712500D01*
X91724999Y-213575028D01*
X91724998Y-213575013D01*
X91714505Y-213472302D01*
X91659358Y-213305880D01*
X91659356Y-213305875D01*
X91567315Y-213156654D01*
X91443345Y-213032684D01*
X91294124Y-212940643D01*
X91294119Y-212940641D01*
X91127697Y-212885494D01*
X91127690Y-212885493D01*
X91024986Y-212875000D01*
X90750000Y-212875000D01*
X90750000Y-213712500D01*
X90250000Y-213712500D01*
X90250000Y-212875000D01*
X89975029Y-212875000D01*
X89975012Y-212875001D01*
X89872302Y-212885494D01*
X89705880Y-212940641D01*
X89705875Y-212940643D01*
X89556654Y-213032684D01*
X89432684Y-213156654D01*
X89340643Y-213305875D01*
X89340641Y-213305880D01*
X89285494Y-213472302D01*
X89285493Y-213472309D01*
X89275000Y-213575013D01*
X84500500Y-213575013D01*
X84500500Y-193649983D01*
X89274500Y-193649983D01*
X89274500Y-194425001D01*
X89274501Y-194425019D01*
X89285000Y-194527796D01*
X89285001Y-194527799D01*
X89340185Y-194694331D01*
X89340189Y-194694340D01*
X89425076Y-194831964D01*
X89442312Y-194879670D01*
X89498230Y-195274459D01*
X89498090Y-195274478D01*
X89499500Y-195292129D01*
X89499500Y-195848541D01*
X89499500Y-195848543D01*
X89499499Y-195848543D01*
X89537947Y-196041829D01*
X89537950Y-196041839D01*
X89613364Y-196223907D01*
X89613371Y-196223920D01*
X89722860Y-196387781D01*
X89722863Y-196387785D01*
X89862214Y-196527136D01*
X89862218Y-196527139D01*
X90026079Y-196636628D01*
X90026092Y-196636635D01*
X90208160Y-196712049D01*
X90208165Y-196712051D01*
X90208169Y-196712051D01*
X90208170Y-196712052D01*
X90401456Y-196750500D01*
X90401459Y-196750500D01*
X90598543Y-196750500D01*
X90728582Y-196724632D01*
X90791835Y-196712051D01*
X90973914Y-196636632D01*
X91137782Y-196527139D01*
X91277139Y-196387782D01*
X91386632Y-196223914D01*
X91462051Y-196041835D01*
X91500500Y-195848541D01*
X91500500Y-195292167D01*
X91501725Y-195274778D01*
X91501930Y-195273331D01*
X91557685Y-194879670D01*
X91574919Y-194831970D01*
X91659814Y-194694334D01*
X91714999Y-194527797D01*
X91725500Y-194425009D01*
X91725499Y-193649992D01*
X91714999Y-193547203D01*
X91659814Y-193380666D01*
X91567712Y-193231344D01*
X91443656Y-193107288D01*
X91440342Y-193105243D01*
X91438546Y-193103248D01*
X91437989Y-193102807D01*
X91438064Y-193102711D01*
X91393618Y-193053297D01*
X91382397Y-192984334D01*
X91410240Y-192920252D01*
X91440348Y-192894165D01*
X91443342Y-192892318D01*
X91567315Y-192768345D01*
X91659356Y-192619124D01*
X91659358Y-192619119D01*
X91714505Y-192452697D01*
X91714506Y-192452690D01*
X91724999Y-192349986D01*
X91725000Y-192349973D01*
X91725000Y-192212500D01*
X89275001Y-192212500D01*
X89275001Y-192349986D01*
X89285494Y-192452697D01*
X89340641Y-192619119D01*
X89340643Y-192619124D01*
X89432684Y-192768345D01*
X89556655Y-192892316D01*
X89556659Y-192892319D01*
X89559656Y-192894168D01*
X89561279Y-192895972D01*
X89562323Y-192896798D01*
X89562181Y-192896976D01*
X89606381Y-192946116D01*
X89617602Y-193015079D01*
X89589759Y-193079161D01*
X89559661Y-193105241D01*
X89556349Y-193107283D01*
X89556343Y-193107288D01*
X89432289Y-193231342D01*
X89340187Y-193380663D01*
X89340186Y-193380666D01*
X89285001Y-193547203D01*
X89285001Y-193547204D01*
X89285000Y-193547204D01*
X89274500Y-193649983D01*
X84500500Y-193649983D01*
X84500500Y-191575013D01*
X89275000Y-191575013D01*
X89275000Y-191712500D01*
X90250000Y-191712500D01*
X90750000Y-191712500D01*
X91724999Y-191712500D01*
X91724999Y-191575028D01*
X91724998Y-191575013D01*
X91714505Y-191472302D01*
X91659358Y-191305880D01*
X91659356Y-191305875D01*
X91567315Y-191156654D01*
X91443345Y-191032684D01*
X91294124Y-190940643D01*
X91294119Y-190940641D01*
X91127697Y-190885494D01*
X91127690Y-190885493D01*
X91024986Y-190875000D01*
X90750000Y-190875000D01*
X90750000Y-191712500D01*
X90250000Y-191712500D01*
X90250000Y-190875000D01*
X89975029Y-190875000D01*
X89975012Y-190875001D01*
X89872302Y-190885494D01*
X89705880Y-190940641D01*
X89705875Y-190940643D01*
X89556654Y-191032684D01*
X89432684Y-191156654D01*
X89340643Y-191305875D01*
X89340641Y-191305880D01*
X89285494Y-191472302D01*
X89285493Y-191472309D01*
X89275000Y-191575013D01*
X84500500Y-191575013D01*
X84500500Y-171649983D01*
X89274500Y-171649983D01*
X89274500Y-172425001D01*
X89274501Y-172425019D01*
X89285000Y-172527796D01*
X89285001Y-172527799D01*
X89340185Y-172694331D01*
X89340189Y-172694340D01*
X89425076Y-172831964D01*
X89442312Y-172879670D01*
X89498230Y-173274459D01*
X89498090Y-173274478D01*
X89499500Y-173292129D01*
X89499500Y-173848541D01*
X89499500Y-173848543D01*
X89499499Y-173848543D01*
X89537947Y-174041829D01*
X89537950Y-174041839D01*
X89613364Y-174223907D01*
X89613371Y-174223920D01*
X89722860Y-174387781D01*
X89722863Y-174387785D01*
X89862214Y-174527136D01*
X89862218Y-174527139D01*
X90026079Y-174636628D01*
X90026092Y-174636635D01*
X90208160Y-174712049D01*
X90208165Y-174712051D01*
X90208169Y-174712051D01*
X90208170Y-174712052D01*
X90401456Y-174750500D01*
X90401459Y-174750500D01*
X90598543Y-174750500D01*
X90728582Y-174724632D01*
X90791835Y-174712051D01*
X90973914Y-174636632D01*
X91137782Y-174527139D01*
X91277139Y-174387782D01*
X91386632Y-174223914D01*
X91462051Y-174041835D01*
X91500500Y-173848541D01*
X91500500Y-173292167D01*
X91501725Y-173274778D01*
X91501930Y-173273331D01*
X91557685Y-172879670D01*
X91574919Y-172831970D01*
X91659814Y-172694334D01*
X91714999Y-172527797D01*
X91725500Y-172425009D01*
X91725499Y-171649992D01*
X91714999Y-171547203D01*
X91659814Y-171380666D01*
X91567712Y-171231344D01*
X91443656Y-171107288D01*
X91440342Y-171105243D01*
X91438546Y-171103248D01*
X91437989Y-171102807D01*
X91438064Y-171102711D01*
X91393618Y-171053297D01*
X91382397Y-170984334D01*
X91410240Y-170920252D01*
X91440348Y-170894165D01*
X91443342Y-170892318D01*
X91567315Y-170768345D01*
X91659356Y-170619124D01*
X91659358Y-170619119D01*
X91714505Y-170452697D01*
X91714506Y-170452690D01*
X91724999Y-170349986D01*
X91725000Y-170349973D01*
X91725000Y-170212500D01*
X89275001Y-170212500D01*
X89275001Y-170349986D01*
X89285494Y-170452697D01*
X89340641Y-170619119D01*
X89340643Y-170619124D01*
X89432684Y-170768345D01*
X89556655Y-170892316D01*
X89556659Y-170892319D01*
X89559656Y-170894168D01*
X89561279Y-170895972D01*
X89562323Y-170896798D01*
X89562181Y-170896976D01*
X89606381Y-170946116D01*
X89617602Y-171015079D01*
X89589759Y-171079161D01*
X89559661Y-171105241D01*
X89556349Y-171107283D01*
X89556343Y-171107288D01*
X89432289Y-171231342D01*
X89340187Y-171380663D01*
X89340186Y-171380666D01*
X89285001Y-171547203D01*
X89285001Y-171547204D01*
X89285000Y-171547204D01*
X89274500Y-171649983D01*
X84500500Y-171649983D01*
X84500500Y-169575013D01*
X89275000Y-169575013D01*
X89275000Y-169712500D01*
X90250000Y-169712500D01*
X90750000Y-169712500D01*
X91724999Y-169712500D01*
X91724999Y-169575028D01*
X91724998Y-169575013D01*
X91714505Y-169472302D01*
X91659358Y-169305880D01*
X91659356Y-169305875D01*
X91567315Y-169156654D01*
X91443345Y-169032684D01*
X91294124Y-168940643D01*
X91294119Y-168940641D01*
X91127697Y-168885494D01*
X91127690Y-168885493D01*
X91024986Y-168875000D01*
X90750000Y-168875000D01*
X90750000Y-169712500D01*
X90250000Y-169712500D01*
X90250000Y-168875000D01*
X89975029Y-168875000D01*
X89975012Y-168875001D01*
X89872302Y-168885494D01*
X89705880Y-168940641D01*
X89705875Y-168940643D01*
X89556654Y-169032684D01*
X89432684Y-169156654D01*
X89340643Y-169305875D01*
X89340641Y-169305880D01*
X89285494Y-169472302D01*
X89285493Y-169472309D01*
X89275000Y-169575013D01*
X84500500Y-169575013D01*
X84500500Y-149649983D01*
X89274500Y-149649983D01*
X89274500Y-150425001D01*
X89274501Y-150425019D01*
X89285000Y-150527796D01*
X89285001Y-150527799D01*
X89340185Y-150694331D01*
X89340189Y-150694340D01*
X89425076Y-150831964D01*
X89442312Y-150879670D01*
X89498230Y-151274459D01*
X89498090Y-151274478D01*
X89499500Y-151292129D01*
X89499500Y-151848541D01*
X89499500Y-151848543D01*
X89499499Y-151848543D01*
X89537947Y-152041829D01*
X89537950Y-152041839D01*
X89613364Y-152223907D01*
X89613371Y-152223920D01*
X89722860Y-152387781D01*
X89722863Y-152387785D01*
X89862214Y-152527136D01*
X89862218Y-152527139D01*
X90026079Y-152636628D01*
X90026092Y-152636635D01*
X90208160Y-152712049D01*
X90208165Y-152712051D01*
X90208169Y-152712051D01*
X90208170Y-152712052D01*
X90401456Y-152750500D01*
X90401459Y-152750500D01*
X90598543Y-152750500D01*
X90728582Y-152724632D01*
X90791835Y-152712051D01*
X90973914Y-152636632D01*
X91137782Y-152527139D01*
X91277139Y-152387782D01*
X91386632Y-152223914D01*
X91462051Y-152041835D01*
X91500500Y-151848541D01*
X91500500Y-151292167D01*
X91501725Y-151274778D01*
X91501930Y-151273331D01*
X91557685Y-150879670D01*
X91574919Y-150831970D01*
X91659814Y-150694334D01*
X91714999Y-150527797D01*
X91725500Y-150425009D01*
X91725499Y-149649992D01*
X91714999Y-149547203D01*
X91659814Y-149380666D01*
X91567712Y-149231344D01*
X91443656Y-149107288D01*
X91440342Y-149105243D01*
X91438546Y-149103248D01*
X91437989Y-149102807D01*
X91438064Y-149102711D01*
X91393618Y-149053297D01*
X91382397Y-148984334D01*
X91410240Y-148920252D01*
X91440348Y-148894165D01*
X91443342Y-148892318D01*
X91567315Y-148768345D01*
X91659356Y-148619124D01*
X91659358Y-148619119D01*
X91714505Y-148452697D01*
X91714506Y-148452690D01*
X91724999Y-148349986D01*
X91725000Y-148349973D01*
X91725000Y-148212500D01*
X89275001Y-148212500D01*
X89275001Y-148349986D01*
X89285494Y-148452697D01*
X89340641Y-148619119D01*
X89340643Y-148619124D01*
X89432684Y-148768345D01*
X89556655Y-148892316D01*
X89556659Y-148892319D01*
X89559656Y-148894168D01*
X89561279Y-148895972D01*
X89562323Y-148896798D01*
X89562181Y-148896976D01*
X89606381Y-148946116D01*
X89617602Y-149015079D01*
X89589759Y-149079161D01*
X89559661Y-149105241D01*
X89556349Y-149107283D01*
X89556343Y-149107288D01*
X89432289Y-149231342D01*
X89340187Y-149380663D01*
X89340186Y-149380666D01*
X89285001Y-149547203D01*
X89285001Y-149547204D01*
X89285000Y-149547204D01*
X89274500Y-149649983D01*
X84500500Y-149649983D01*
X84500500Y-147575013D01*
X89275000Y-147575013D01*
X89275000Y-147712500D01*
X90250000Y-147712500D01*
X90750000Y-147712500D01*
X91724999Y-147712500D01*
X91724999Y-147575028D01*
X91724998Y-147575013D01*
X91714505Y-147472302D01*
X91659358Y-147305880D01*
X91659356Y-147305875D01*
X91567315Y-147156654D01*
X91443345Y-147032684D01*
X91294124Y-146940643D01*
X91294119Y-146940641D01*
X91127697Y-146885494D01*
X91127690Y-146885493D01*
X91024986Y-146875000D01*
X90750000Y-146875000D01*
X90750000Y-147712500D01*
X90250000Y-147712500D01*
X90250000Y-146875000D01*
X89975029Y-146875000D01*
X89975012Y-146875001D01*
X89872302Y-146885494D01*
X89705880Y-146940641D01*
X89705875Y-146940643D01*
X89556654Y-147032684D01*
X89432684Y-147156654D01*
X89340643Y-147305875D01*
X89340641Y-147305880D01*
X89285494Y-147472302D01*
X89285493Y-147472309D01*
X89275000Y-147575013D01*
X84500500Y-147575013D01*
X84500500Y-127649983D01*
X89274500Y-127649983D01*
X89274500Y-128425001D01*
X89274501Y-128425019D01*
X89285000Y-128527796D01*
X89285001Y-128527799D01*
X89340185Y-128694331D01*
X89340189Y-128694340D01*
X89425076Y-128831964D01*
X89442312Y-128879670D01*
X89498230Y-129274459D01*
X89498090Y-129274478D01*
X89499500Y-129292129D01*
X89499500Y-129848541D01*
X89499500Y-129848543D01*
X89499499Y-129848543D01*
X89537947Y-130041829D01*
X89537950Y-130041839D01*
X89613364Y-130223907D01*
X89613371Y-130223920D01*
X89722860Y-130387781D01*
X89722863Y-130387785D01*
X89862214Y-130527136D01*
X89862218Y-130527139D01*
X90026079Y-130636628D01*
X90026092Y-130636635D01*
X90208160Y-130712049D01*
X90208165Y-130712051D01*
X90208169Y-130712051D01*
X90208170Y-130712052D01*
X90401456Y-130750500D01*
X90401459Y-130750500D01*
X90598543Y-130750500D01*
X90728582Y-130724632D01*
X90791835Y-130712051D01*
X90973914Y-130636632D01*
X91137782Y-130527139D01*
X91277139Y-130387782D01*
X91386632Y-130223914D01*
X91462051Y-130041835D01*
X91500500Y-129848541D01*
X91500500Y-129292167D01*
X91501725Y-129274778D01*
X91501930Y-129273331D01*
X91557685Y-128879670D01*
X91574919Y-128831970D01*
X91659814Y-128694334D01*
X91714999Y-128527797D01*
X91725500Y-128425009D01*
X91725499Y-127649992D01*
X91714999Y-127547203D01*
X91659814Y-127380666D01*
X91567712Y-127231344D01*
X91443656Y-127107288D01*
X91440342Y-127105243D01*
X91438546Y-127103248D01*
X91437989Y-127102807D01*
X91438064Y-127102711D01*
X91393618Y-127053297D01*
X91382397Y-126984334D01*
X91410240Y-126920252D01*
X91440348Y-126894165D01*
X91443342Y-126892318D01*
X91567315Y-126768345D01*
X91659356Y-126619124D01*
X91659358Y-126619119D01*
X91714505Y-126452697D01*
X91714506Y-126452690D01*
X91724999Y-126349986D01*
X91725000Y-126349973D01*
X91725000Y-126212500D01*
X89275001Y-126212500D01*
X89275001Y-126349986D01*
X89285494Y-126452697D01*
X89340641Y-126619119D01*
X89340643Y-126619124D01*
X89432684Y-126768345D01*
X89556655Y-126892316D01*
X89556659Y-126892319D01*
X89559656Y-126894168D01*
X89561279Y-126895972D01*
X89562323Y-126896798D01*
X89562181Y-126896976D01*
X89606381Y-126946116D01*
X89617602Y-127015079D01*
X89589759Y-127079161D01*
X89559661Y-127105241D01*
X89556349Y-127107283D01*
X89556343Y-127107288D01*
X89432289Y-127231342D01*
X89340187Y-127380663D01*
X89340186Y-127380666D01*
X89285001Y-127547203D01*
X89285001Y-127547204D01*
X89285000Y-127547204D01*
X89274500Y-127649983D01*
X84500500Y-127649983D01*
X84500500Y-125575013D01*
X89275000Y-125575013D01*
X89275000Y-125712500D01*
X90250000Y-125712500D01*
X90750000Y-125712500D01*
X91724999Y-125712500D01*
X91724999Y-125575028D01*
X91724998Y-125575013D01*
X91714505Y-125472302D01*
X91659358Y-125305880D01*
X91659356Y-125305875D01*
X91567315Y-125156654D01*
X91443345Y-125032684D01*
X91294124Y-124940643D01*
X91294119Y-124940641D01*
X91127697Y-124885494D01*
X91127690Y-124885493D01*
X91024986Y-124875000D01*
X90750000Y-124875000D01*
X90750000Y-125712500D01*
X90250000Y-125712500D01*
X90250000Y-124875000D01*
X89975029Y-124875000D01*
X89975012Y-124875001D01*
X89872302Y-124885494D01*
X89705880Y-124940641D01*
X89705875Y-124940643D01*
X89556654Y-125032684D01*
X89432684Y-125156654D01*
X89340643Y-125305875D01*
X89340641Y-125305880D01*
X89285494Y-125472302D01*
X89285493Y-125472309D01*
X89275000Y-125575013D01*
X84500500Y-125575013D01*
X84500500Y-108401459D01*
X86999500Y-108401459D01*
X86999500Y-108408342D01*
X86999500Y-113348544D01*
X87036868Y-113536405D01*
X87037947Y-113541830D01*
X87037951Y-113541842D01*
X87113364Y-113723907D01*
X87113371Y-113723920D01*
X87222860Y-113887781D01*
X87222863Y-113887785D01*
X87366537Y-114031459D01*
X87366559Y-114031479D01*
X87719735Y-114384655D01*
X87719764Y-114384686D01*
X87862214Y-114527136D01*
X87862218Y-114527139D01*
X88026079Y-114636628D01*
X88026092Y-114636635D01*
X88154833Y-114689961D01*
X88197744Y-114707735D01*
X88208164Y-114712051D01*
X88304812Y-114731275D01*
X88353135Y-114740887D01*
X88401458Y-114750500D01*
X88401459Y-114750500D01*
X88401460Y-114750500D01*
X88537770Y-114750500D01*
X88604809Y-114770185D01*
X88625451Y-114786819D01*
X88656344Y-114817712D01*
X88805666Y-114909814D01*
X88972203Y-114964999D01*
X89074991Y-114975500D01*
X89850008Y-114975499D01*
X89850016Y-114975498D01*
X89850019Y-114975498D01*
X89906302Y-114969748D01*
X89952797Y-114964999D01*
X90119334Y-114909814D01*
X90268656Y-114817712D01*
X90392712Y-114693656D01*
X90394752Y-114690347D01*
X90396745Y-114688555D01*
X90397193Y-114687989D01*
X90397289Y-114688065D01*
X90446694Y-114643623D01*
X90515656Y-114632395D01*
X90579740Y-114660234D01*
X90605829Y-114690339D01*
X90607681Y-114693341D01*
X90607683Y-114693344D01*
X90731654Y-114817315D01*
X90880875Y-114909356D01*
X90880880Y-114909358D01*
X91047302Y-114964505D01*
X91047309Y-114964506D01*
X91150019Y-114974999D01*
X91287499Y-114974999D01*
X91787500Y-114974999D01*
X91924972Y-114974999D01*
X91924986Y-114974998D01*
X92027697Y-114964505D01*
X92194119Y-114909358D01*
X92194124Y-114909356D01*
X92343345Y-114817315D01*
X92467315Y-114693345D01*
X92559356Y-114544124D01*
X92559358Y-114544119D01*
X92614505Y-114377697D01*
X92614506Y-114377690D01*
X92624999Y-114274986D01*
X107125001Y-114274986D01*
X107135494Y-114377697D01*
X107190641Y-114544119D01*
X107190643Y-114544124D01*
X107282684Y-114693345D01*
X107406654Y-114817315D01*
X107555875Y-114909356D01*
X107555880Y-114909358D01*
X107722302Y-114964505D01*
X107722309Y-114964506D01*
X107825019Y-114974999D01*
X107962499Y-114974999D01*
X107962500Y-114974998D01*
X107962500Y-114000000D01*
X107125001Y-114000000D01*
X107125001Y-114274986D01*
X92624999Y-114274986D01*
X92625000Y-114274973D01*
X92625000Y-114000000D01*
X91787500Y-114000000D01*
X91787500Y-114974999D01*
X91287499Y-114974999D01*
X91287500Y-114974998D01*
X91287500Y-113500000D01*
X91787500Y-113500000D01*
X92624999Y-113500000D01*
X92624999Y-113225029D01*
X92624998Y-113225013D01*
X107125000Y-113225013D01*
X107125000Y-113500000D01*
X107962500Y-113500000D01*
X107962500Y-112525000D01*
X107825027Y-112525000D01*
X107825012Y-112525001D01*
X107722302Y-112535494D01*
X107555880Y-112590641D01*
X107555875Y-112590643D01*
X107406654Y-112682684D01*
X107282684Y-112806654D01*
X107190643Y-112955875D01*
X107190641Y-112955880D01*
X107135494Y-113122302D01*
X107135493Y-113122309D01*
X107125000Y-113225013D01*
X92624998Y-113225013D01*
X92624998Y-113225012D01*
X92614505Y-113122302D01*
X92559358Y-112955880D01*
X92559356Y-112955875D01*
X92467315Y-112806654D01*
X92343345Y-112682684D01*
X92194124Y-112590643D01*
X92194119Y-112590641D01*
X92027697Y-112535494D01*
X92027690Y-112535493D01*
X91924986Y-112525000D01*
X91787500Y-112525000D01*
X91787500Y-113500000D01*
X91287500Y-113500000D01*
X91287500Y-112525000D01*
X91150027Y-112525000D01*
X91150012Y-112525001D01*
X91047302Y-112535494D01*
X90880880Y-112590641D01*
X90880875Y-112590643D01*
X90731654Y-112682684D01*
X90607683Y-112806655D01*
X90607679Y-112806660D01*
X90605826Y-112809665D01*
X90604018Y-112811290D01*
X90603202Y-112812323D01*
X90603025Y-112812183D01*
X90553874Y-112856385D01*
X90484911Y-112867601D01*
X90420831Y-112839752D01*
X90394753Y-112809653D01*
X90394737Y-112809628D01*
X90392712Y-112806344D01*
X90268656Y-112682288D01*
X90119334Y-112590186D01*
X89952797Y-112535001D01*
X89952795Y-112535000D01*
X89850016Y-112524500D01*
X89124500Y-112524500D01*
X89057461Y-112504815D01*
X89011706Y-112452011D01*
X89000500Y-112400500D01*
X89000500Y-112346715D01*
X89020185Y-112279676D01*
X89072989Y-112233921D01*
X89142147Y-112223977D01*
X89154427Y-112226381D01*
X89238021Y-112247170D01*
X89279736Y-112250000D01*
X89875000Y-112250000D01*
X90375000Y-112250000D01*
X90970264Y-112250000D01*
X91011974Y-112247171D01*
X91192236Y-112202341D01*
X91358648Y-112119808D01*
X91503429Y-112003430D01*
X91503430Y-112003429D01*
X91619808Y-111858648D01*
X91702341Y-111692236D01*
X91747171Y-111511974D01*
X91750000Y-111470263D01*
X107750000Y-111470263D01*
X107752828Y-111511974D01*
X107797658Y-111692236D01*
X107880191Y-111858648D01*
X107996569Y-112003429D01*
X107996570Y-112003430D01*
X108141351Y-112119808D01*
X108307763Y-112202341D01*
X108488025Y-112247171D01*
X108529736Y-112250000D01*
X109125000Y-112250000D01*
X109125000Y-111115000D01*
X107750000Y-111115000D01*
X107750000Y-111470263D01*
X91750000Y-111470263D01*
X91750000Y-111115000D01*
X90375000Y-111115000D01*
X90375000Y-112250000D01*
X89875000Y-112250000D01*
X89875000Y-110615000D01*
X90375000Y-110615000D01*
X91750000Y-110615000D01*
X91750000Y-110259736D01*
X91747171Y-110218025D01*
X91702341Y-110037763D01*
X91619808Y-109871351D01*
X91503430Y-109726570D01*
X91503429Y-109726569D01*
X91358648Y-109610191D01*
X91192236Y-109527658D01*
X91011974Y-109482828D01*
X90970264Y-109480000D01*
X90375000Y-109480000D01*
X90375000Y-110615000D01*
X89875000Y-110615000D01*
X89875000Y-109480000D01*
X89279736Y-109480000D01*
X89238025Y-109482828D01*
X89154426Y-109503619D01*
X89084617Y-109500695D01*
X89027471Y-109460494D01*
X89001131Y-109395780D01*
X89000500Y-109383284D01*
X89000500Y-108965782D01*
X89009144Y-108936341D01*
X89015668Y-108906355D01*
X89019422Y-108901339D01*
X89020185Y-108898743D01*
X89036819Y-108878101D01*
X89128101Y-108786819D01*
X89189424Y-108753334D01*
X89215782Y-108750500D01*
X90598543Y-108750500D01*
X90760193Y-108718345D01*
X90791835Y-108712051D01*
X90973914Y-108636632D01*
X91137782Y-108527139D01*
X91277139Y-108387782D01*
X91386632Y-108223914D01*
X91462051Y-108041835D01*
X91474632Y-107978582D01*
X91500500Y-107848543D01*
X91500500Y-107651456D01*
X91462052Y-107458170D01*
X91462051Y-107458169D01*
X91462051Y-107458165D01*
X91454147Y-107439082D01*
X91386635Y-107276092D01*
X91386628Y-107276079D01*
X91277139Y-107112218D01*
X91277136Y-107112214D01*
X91137785Y-106972863D01*
X91137781Y-106972860D01*
X90973920Y-106863371D01*
X90973907Y-106863364D01*
X90791839Y-106787950D01*
X90791829Y-106787947D01*
X90598543Y-106749500D01*
X90598541Y-106749500D01*
X88651459Y-106749500D01*
X88651457Y-106749500D01*
X88558234Y-106768043D01*
X88558219Y-106768046D01*
X88554855Y-106768716D01*
X88458164Y-106787949D01*
X88429049Y-106800009D01*
X88420969Y-106803355D01*
X88420960Y-106803358D01*
X88276092Y-106863364D01*
X88276079Y-106863371D01*
X88112219Y-106972859D01*
X88072664Y-107012415D01*
X87972861Y-107112218D01*
X87972858Y-107112221D01*
X87362221Y-107722858D01*
X87362218Y-107722861D01*
X87325281Y-107759798D01*
X87222859Y-107862219D01*
X87113371Y-108026080D01*
X87113364Y-108026093D01*
X87070666Y-108129179D01*
X87070666Y-108129180D01*
X87045924Y-108188911D01*
X87045923Y-108188914D01*
X87041539Y-108199499D01*
X87037949Y-108208165D01*
X86999500Y-108401459D01*
X84500500Y-108401459D01*
X84500500Y-99740263D01*
X88500000Y-99740263D01*
X88502828Y-99781974D01*
X88547658Y-99962236D01*
X88630191Y-100128648D01*
X88746569Y-100273429D01*
X88746570Y-100273430D01*
X88891351Y-100389808D01*
X89057763Y-100472341D01*
X89238025Y-100517171D01*
X89279736Y-100520000D01*
X89875000Y-100520000D01*
X90375000Y-100520000D01*
X90970264Y-100520000D01*
X91011974Y-100517171D01*
X91192236Y-100472341D01*
X91358648Y-100389808D01*
X91503429Y-100273430D01*
X91503430Y-100273429D01*
X91619808Y-100128648D01*
X91702341Y-99962236D01*
X91747171Y-99781974D01*
X91750000Y-99740263D01*
X91750000Y-99385000D01*
X90375000Y-99385000D01*
X90375000Y-100520000D01*
X89875000Y-100520000D01*
X89875000Y-99385000D01*
X88500000Y-99385000D01*
X88500000Y-99740263D01*
X84500500Y-99740263D01*
X84500500Y-98529736D01*
X88500000Y-98529736D01*
X88500000Y-98885000D01*
X89875000Y-98885000D01*
X90375000Y-98885000D01*
X91750000Y-98885000D01*
X91750000Y-98529736D01*
X91747171Y-98488025D01*
X91702341Y-98307763D01*
X91619808Y-98141351D01*
X91503430Y-97996570D01*
X91503429Y-97996569D01*
X91358648Y-97880191D01*
X91192236Y-97797658D01*
X91011974Y-97752828D01*
X90970264Y-97750000D01*
X90375000Y-97750000D01*
X90375000Y-98885000D01*
X89875000Y-98885000D01*
X89875000Y-97750000D01*
X89279736Y-97750000D01*
X89238025Y-97752828D01*
X89057763Y-97797658D01*
X88891351Y-97880191D01*
X88746570Y-97996569D01*
X88746569Y-97996570D01*
X88630191Y-98141351D01*
X88547658Y-98307763D01*
X88502828Y-98488025D01*
X88500000Y-98529736D01*
X84500500Y-98529736D01*
X84500500Y-93323920D01*
X87499499Y-93323920D01*
X87528340Y-93468907D01*
X87528343Y-93468917D01*
X87584913Y-93605489D01*
X87584914Y-93605491D01*
X87584916Y-93605495D01*
X87597559Y-93624417D01*
X87597617Y-93624503D01*
X87597616Y-93624503D01*
X87667046Y-93728414D01*
X87667052Y-93728421D01*
X93513181Y-99574549D01*
X93546666Y-99635872D01*
X93549500Y-99662230D01*
X93549500Y-103123918D01*
X93549500Y-103123920D01*
X93549499Y-103123920D01*
X93578340Y-103268907D01*
X93578343Y-103268917D01*
X93634914Y-103405492D01*
X93667812Y-103454727D01*
X93667813Y-103454730D01*
X93717046Y-103528414D01*
X93717052Y-103528421D01*
X94067439Y-103878807D01*
X94070510Y-103881878D01*
X94078432Y-103890990D01*
X94083706Y-103895073D01*
X94167049Y-103978416D01*
X94225175Y-104036542D01*
X94271585Y-104082952D01*
X94394498Y-104165080D01*
X94394511Y-104165087D01*
X94531082Y-104221656D01*
X94531087Y-104221658D01*
X94531091Y-104221658D01*
X94531533Y-104221793D01*
X94531740Y-104221928D01*
X94536714Y-104223989D01*
X94536323Y-104224931D01*
X94589975Y-104260086D01*
X94618436Y-104323896D01*
X94607881Y-104392963D01*
X94586803Y-104424410D01*
X94213852Y-104829799D01*
X94182048Y-104867510D01*
X94181832Y-104867328D01*
X94173621Y-104877142D01*
X92731286Y-106319478D01*
X92619481Y-106431282D01*
X92619480Y-106431284D01*
X92575618Y-106507257D01*
X92569361Y-106518094D01*
X92569359Y-106518096D01*
X92540425Y-106568209D01*
X92540424Y-106568210D01*
X92540423Y-106568215D01*
X92499499Y-106720943D01*
X92499499Y-106720945D01*
X92499499Y-106889046D01*
X92499500Y-106889059D01*
X92499500Y-108413330D01*
X92499499Y-108413348D01*
X92499499Y-108579054D01*
X92499498Y-108579054D01*
X92540423Y-108731785D01*
X92559302Y-108764484D01*
X92559301Y-108764484D01*
X92559302Y-108764485D01*
X92619475Y-108868709D01*
X92619481Y-108868717D01*
X92738349Y-108987585D01*
X92738355Y-108987590D01*
X94517139Y-110766374D01*
X94517149Y-110766385D01*
X94521479Y-110770715D01*
X94521480Y-110770716D01*
X94633284Y-110882520D01*
X94720095Y-110932639D01*
X94720097Y-110932641D01*
X94770213Y-110961576D01*
X94770215Y-110961577D01*
X94922942Y-111002500D01*
X94922943Y-111002500D01*
X106245531Y-111002500D01*
X106245547Y-111002501D01*
X106253143Y-111002501D01*
X106411254Y-111002501D01*
X106411257Y-111002501D01*
X106563985Y-110961577D01*
X106614104Y-110932639D01*
X106700916Y-110882520D01*
X106812720Y-110770716D01*
X106812720Y-110770714D01*
X106822928Y-110760507D01*
X106822930Y-110760504D01*
X107565270Y-110018163D01*
X107626591Y-109984680D01*
X107696283Y-109989664D01*
X107752216Y-110031536D01*
X107776633Y-110097000D01*
X107773284Y-110135771D01*
X107752829Y-110218023D01*
X107750000Y-110259736D01*
X107750000Y-110615000D01*
X109125000Y-110615000D01*
X109125000Y-109480000D01*
X108529736Y-109480000D01*
X108488025Y-109482828D01*
X108307115Y-109527820D01*
X108237307Y-109524896D01*
X108180161Y-109484696D01*
X108153820Y-109419981D01*
X108160662Y-109373422D01*
X108158473Y-109372836D01*
X108160577Y-109364985D01*
X108201500Y-109212257D01*
X108201500Y-109054143D01*
X108201500Y-104722960D01*
X108201501Y-104722947D01*
X108201501Y-104554844D01*
X108174029Y-104452320D01*
X108160577Y-104402116D01*
X108149344Y-104382660D01*
X108081524Y-104265190D01*
X108081518Y-104265182D01*
X107236819Y-103420483D01*
X107203334Y-103359160D01*
X107200500Y-103332802D01*
X107200500Y-99740263D01*
X107750000Y-99740263D01*
X107752828Y-99781974D01*
X107797658Y-99962236D01*
X107880191Y-100128648D01*
X107996569Y-100273429D01*
X107996570Y-100273430D01*
X108141351Y-100389808D01*
X108307763Y-100472341D01*
X108488025Y-100517171D01*
X108529736Y-100520000D01*
X109125000Y-100520000D01*
X109625000Y-100520000D01*
X110220264Y-100520000D01*
X110261974Y-100517171D01*
X110442236Y-100472341D01*
X110608648Y-100389808D01*
X110753429Y-100273430D01*
X110753430Y-100273429D01*
X110869808Y-100128648D01*
X110952341Y-99962236D01*
X110997171Y-99781974D01*
X111000000Y-99740263D01*
X111000000Y-99385000D01*
X109625000Y-99385000D01*
X109625000Y-100520000D01*
X109125000Y-100520000D01*
X109125000Y-99385000D01*
X107750000Y-99385000D01*
X107750000Y-99740263D01*
X107200500Y-99740263D01*
X107200500Y-98529736D01*
X107750000Y-98529736D01*
X107750000Y-98885000D01*
X109125000Y-98885000D01*
X109625000Y-98885000D01*
X111000000Y-98885000D01*
X111000000Y-98529736D01*
X110997171Y-98488025D01*
X110952341Y-98307763D01*
X110869808Y-98141351D01*
X110753430Y-97996570D01*
X110753429Y-97996569D01*
X110608648Y-97880191D01*
X110442236Y-97797658D01*
X110261974Y-97752828D01*
X110220264Y-97750000D01*
X109625000Y-97750000D01*
X109625000Y-98885000D01*
X109125000Y-98885000D01*
X109125000Y-97750000D01*
X108529736Y-97750000D01*
X108488025Y-97752828D01*
X108307763Y-97797658D01*
X108141351Y-97880191D01*
X107996570Y-97996569D01*
X107996569Y-97996570D01*
X107880191Y-98141351D01*
X107797658Y-98307763D01*
X107752828Y-98488025D01*
X107750000Y-98529736D01*
X107200500Y-98529736D01*
X107200500Y-97700096D01*
X107220185Y-97633057D01*
X107236814Y-97612419D01*
X108155509Y-96693724D01*
X108216830Y-96660241D01*
X108286521Y-96665225D01*
X108342455Y-96707097D01*
X108346290Y-96712517D01*
X108378207Y-96760284D01*
X108378213Y-96760292D01*
X108489707Y-96871786D01*
X108489711Y-96871789D01*
X108620814Y-96959390D01*
X108620827Y-96959397D01*
X108766498Y-97019735D01*
X108766503Y-97019737D01*
X108921153Y-97050499D01*
X108921156Y-97050500D01*
X108921158Y-97050500D01*
X109078844Y-97050500D01*
X109078845Y-97050499D01*
X109233497Y-97019737D01*
X109379179Y-96959394D01*
X109510289Y-96871789D01*
X109621789Y-96760289D01*
X109709394Y-96629179D01*
X109718299Y-96607678D01*
X109720510Y-96602659D01*
X109908125Y-96201608D01*
X109932757Y-96166476D01*
X111291820Y-94807413D01*
X111353142Y-94773930D01*
X111422834Y-94778914D01*
X111478767Y-94820786D01*
X111503184Y-94886250D01*
X111503500Y-94895096D01*
X111503500Y-107039218D01*
X111497261Y-107060463D01*
X111495682Y-107082552D01*
X111487609Y-107093335D01*
X111483815Y-107106257D01*
X111467081Y-107120756D01*
X111453810Y-107138485D01*
X111441189Y-107143192D01*
X111431011Y-107152012D01*
X111409093Y-107155163D01*
X111388346Y-107162902D01*
X111375185Y-107160039D01*
X111361853Y-107161956D01*
X111341709Y-107152756D01*
X111320073Y-107148050D01*
X111302347Y-107134781D01*
X111298297Y-107132931D01*
X111291819Y-107126899D01*
X111281479Y-107116559D01*
X111281459Y-107116537D01*
X111137785Y-106972863D01*
X111137781Y-106972860D01*
X110973920Y-106863371D01*
X110973907Y-106863364D01*
X110829039Y-106803358D01*
X110829031Y-106803356D01*
X110820951Y-106800009D01*
X110791836Y-106787949D01*
X110695145Y-106768716D01*
X110691775Y-106768045D01*
X110691761Y-106768042D01*
X110598543Y-106749500D01*
X110598541Y-106749500D01*
X109651459Y-106749500D01*
X109651457Y-106749500D01*
X109458170Y-106787947D01*
X109458160Y-106787950D01*
X109276092Y-106863364D01*
X109276079Y-106863371D01*
X109112218Y-106972860D01*
X109112214Y-106972863D01*
X108972863Y-107112214D01*
X108972860Y-107112218D01*
X108863371Y-107276079D01*
X108863364Y-107276092D01*
X108787950Y-107458160D01*
X108787947Y-107458170D01*
X108749500Y-107651456D01*
X108749500Y-107651459D01*
X108749500Y-107848541D01*
X108749500Y-107848543D01*
X108749499Y-107848543D01*
X108787947Y-108041829D01*
X108787950Y-108041839D01*
X108863364Y-108223907D01*
X108863371Y-108223920D01*
X108972860Y-108387781D01*
X108972863Y-108387785D01*
X109112214Y-108527136D01*
X109112218Y-108527139D01*
X109276079Y-108636628D01*
X109276092Y-108636635D01*
X109458160Y-108712049D01*
X109458165Y-108712051D01*
X109458169Y-108712051D01*
X109458170Y-108712052D01*
X109651456Y-108750500D01*
X109651459Y-108750500D01*
X110034218Y-108750500D01*
X110063658Y-108759144D01*
X110093645Y-108765668D01*
X110098660Y-108769422D01*
X110101257Y-108770185D01*
X110121899Y-108786819D01*
X110188181Y-108853101D01*
X110221666Y-108914424D01*
X110224500Y-108940782D01*
X110224500Y-109356000D01*
X110204815Y-109423039D01*
X110152011Y-109468794D01*
X110100500Y-109480000D01*
X109625000Y-109480000D01*
X109625000Y-112250000D01*
X110100500Y-112250000D01*
X110109185Y-112252550D01*
X110118147Y-112251262D01*
X110142187Y-112262240D01*
X110167539Y-112269685D01*
X110173466Y-112276525D01*
X110181703Y-112280287D01*
X110195992Y-112302521D01*
X110213294Y-112322489D01*
X110215581Y-112333003D01*
X110219477Y-112339065D01*
X110224500Y-112374000D01*
X110224500Y-112400500D01*
X110204815Y-112467539D01*
X110152011Y-112513294D01*
X110100501Y-112524500D01*
X109899999Y-112524500D01*
X109899980Y-112524501D01*
X109797203Y-112535000D01*
X109797200Y-112535001D01*
X109630668Y-112590185D01*
X109630663Y-112590187D01*
X109481342Y-112682289D01*
X109357288Y-112806343D01*
X109357283Y-112806349D01*
X109355241Y-112809661D01*
X109353247Y-112811453D01*
X109352807Y-112812011D01*
X109352711Y-112811935D01*
X109303291Y-112856383D01*
X109234328Y-112867602D01*
X109170247Y-112839755D01*
X109144168Y-112809656D01*
X109142319Y-112806659D01*
X109142316Y-112806655D01*
X109018345Y-112682684D01*
X108869124Y-112590643D01*
X108869119Y-112590641D01*
X108702697Y-112535494D01*
X108702690Y-112535493D01*
X108599986Y-112525000D01*
X108462500Y-112525000D01*
X108462500Y-114974999D01*
X108599972Y-114974999D01*
X108599986Y-114974998D01*
X108702697Y-114964505D01*
X108869119Y-114909358D01*
X108869124Y-114909356D01*
X109018345Y-114817315D01*
X109142318Y-114693342D01*
X109144165Y-114690348D01*
X109145969Y-114688724D01*
X109146798Y-114687677D01*
X109146976Y-114687818D01*
X109196110Y-114643621D01*
X109265073Y-114632396D01*
X109329156Y-114660236D01*
X109355242Y-114690339D01*
X109357288Y-114693656D01*
X109481344Y-114817712D01*
X109630666Y-114909814D01*
X109797203Y-114964999D01*
X109899991Y-114975500D01*
X110675008Y-114975499D01*
X110675016Y-114975498D01*
X110675019Y-114975498D01*
X110731302Y-114969748D01*
X110777797Y-114964999D01*
X110891311Y-114927383D01*
X110961135Y-114924982D01*
X111021177Y-114960713D01*
X111052370Y-115023233D01*
X111044811Y-115092693D01*
X111017993Y-115132771D01*
X100083528Y-126067235D01*
X100048390Y-126091872D01*
X99648668Y-126278864D01*
X99648621Y-126278887D01*
X99644836Y-126280658D01*
X99620821Y-126290606D01*
X99609243Y-126298341D01*
X99602279Y-126301923D01*
X99602204Y-126301961D01*
X99597707Y-126304275D01*
X99596191Y-126305128D01*
X99515799Y-126360446D01*
X99512423Y-126363034D01*
X99489714Y-126378208D01*
X99378209Y-126489712D01*
X99290609Y-126620814D01*
X99290602Y-126620827D01*
X99230264Y-126766498D01*
X99230261Y-126766510D01*
X99199500Y-126921153D01*
X99199500Y-127078846D01*
X99230261Y-127233489D01*
X99230264Y-127233501D01*
X99290602Y-127379172D01*
X99290609Y-127379185D01*
X99378210Y-127510288D01*
X99378213Y-127510292D01*
X99489707Y-127621786D01*
X99489711Y-127621789D01*
X99620814Y-127709390D01*
X99620827Y-127709397D01*
X99766498Y-127769735D01*
X99766503Y-127769737D01*
X99921153Y-127800499D01*
X99921156Y-127800500D01*
X99921158Y-127800500D01*
X100078844Y-127800500D01*
X100078845Y-127800499D01*
X100233497Y-127769737D01*
X100379179Y-127709394D01*
X100468094Y-127649983D01*
X108274500Y-127649983D01*
X108274500Y-128425001D01*
X108274501Y-128425019D01*
X108285000Y-128527796D01*
X108285001Y-128527799D01*
X108340185Y-128694331D01*
X108340189Y-128694340D01*
X108425076Y-128831964D01*
X108442312Y-128879670D01*
X108498230Y-129274459D01*
X108498090Y-129274478D01*
X108499500Y-129292129D01*
X108499500Y-129848541D01*
X108499500Y-129848543D01*
X108499499Y-129848543D01*
X108537947Y-130041829D01*
X108537950Y-130041839D01*
X108613364Y-130223907D01*
X108613371Y-130223920D01*
X108722860Y-130387781D01*
X108722863Y-130387785D01*
X108862214Y-130527136D01*
X108862218Y-130527139D01*
X109026079Y-130636628D01*
X109026092Y-130636635D01*
X109208160Y-130712049D01*
X109208165Y-130712051D01*
X109208169Y-130712051D01*
X109208170Y-130712052D01*
X109401456Y-130750500D01*
X109401459Y-130750500D01*
X109598543Y-130750500D01*
X109728582Y-130724632D01*
X109791835Y-130712051D01*
X109973914Y-130636632D01*
X110137782Y-130527139D01*
X110277139Y-130387782D01*
X110386632Y-130223914D01*
X110462051Y-130041835D01*
X110500500Y-129848541D01*
X110500500Y-129292167D01*
X110501725Y-129274778D01*
X110501930Y-129273331D01*
X110557685Y-128879670D01*
X110574919Y-128831970D01*
X110659814Y-128694334D01*
X110714999Y-128527797D01*
X110725500Y-128425009D01*
X110725499Y-127649992D01*
X110714999Y-127547203D01*
X110659814Y-127380666D01*
X110567712Y-127231344D01*
X110443656Y-127107288D01*
X110440342Y-127105243D01*
X110438546Y-127103248D01*
X110437989Y-127102807D01*
X110438064Y-127102711D01*
X110393618Y-127053297D01*
X110382397Y-126984334D01*
X110410240Y-126920252D01*
X110440348Y-126894165D01*
X110443342Y-126892318D01*
X110567315Y-126768345D01*
X110659356Y-126619124D01*
X110659358Y-126619119D01*
X110714505Y-126452697D01*
X110714506Y-126452690D01*
X110724999Y-126349986D01*
X110725000Y-126349973D01*
X110725000Y-126212500D01*
X108275001Y-126212500D01*
X108275001Y-126349986D01*
X108285494Y-126452697D01*
X108340641Y-126619119D01*
X108340643Y-126619124D01*
X108432684Y-126768345D01*
X108556655Y-126892316D01*
X108556659Y-126892319D01*
X108559656Y-126894168D01*
X108561279Y-126895972D01*
X108562323Y-126896798D01*
X108562181Y-126896976D01*
X108606381Y-126946116D01*
X108617602Y-127015079D01*
X108589759Y-127079161D01*
X108559661Y-127105241D01*
X108556349Y-127107283D01*
X108556343Y-127107288D01*
X108432289Y-127231342D01*
X108340187Y-127380663D01*
X108340186Y-127380666D01*
X108285001Y-127547203D01*
X108285001Y-127547204D01*
X108285000Y-127547204D01*
X108274500Y-127649983D01*
X100468094Y-127649983D01*
X100510289Y-127621789D01*
X100510292Y-127621786D01*
X100572926Y-127559153D01*
X100621786Y-127510292D01*
X100621789Y-127510289D01*
X100621790Y-127510288D01*
X100709394Y-127379179D01*
X100718299Y-127357678D01*
X100720510Y-127352659D01*
X100908125Y-126951608D01*
X100932757Y-126916476D01*
X102274220Y-125575013D01*
X108275000Y-125575013D01*
X108275000Y-125712500D01*
X109250000Y-125712500D01*
X109750000Y-125712500D01*
X110724999Y-125712500D01*
X110724999Y-125575028D01*
X110724998Y-125575013D01*
X110714505Y-125472302D01*
X110659358Y-125305880D01*
X110659356Y-125305875D01*
X110567315Y-125156654D01*
X110443345Y-125032684D01*
X110294124Y-124940643D01*
X110294119Y-124940641D01*
X110127697Y-124885494D01*
X110127690Y-124885493D01*
X110024986Y-124875000D01*
X109750000Y-124875000D01*
X109750000Y-125712500D01*
X109250000Y-125712500D01*
X109250000Y-124875000D01*
X108975029Y-124875000D01*
X108975012Y-124875001D01*
X108872302Y-124885494D01*
X108705880Y-124940641D01*
X108705875Y-124940643D01*
X108556654Y-125032684D01*
X108432684Y-125156654D01*
X108340643Y-125305875D01*
X108340641Y-125305880D01*
X108285494Y-125472302D01*
X108285493Y-125472309D01*
X108275000Y-125575013D01*
X102274220Y-125575013D01*
X111692821Y-116156413D01*
X111754142Y-116122930D01*
X111823834Y-116127914D01*
X111879767Y-116169786D01*
X111904184Y-116235250D01*
X111904500Y-116244096D01*
X111904500Y-136194902D01*
X111884815Y-136261941D01*
X111868181Y-136282583D01*
X100083528Y-148067235D01*
X100048390Y-148091872D01*
X99648668Y-148278864D01*
X99648621Y-148278887D01*
X99644836Y-148280658D01*
X99620821Y-148290606D01*
X99609243Y-148298341D01*
X99602279Y-148301923D01*
X99602204Y-148301961D01*
X99597707Y-148304275D01*
X99596191Y-148305128D01*
X99515799Y-148360446D01*
X99512423Y-148363034D01*
X99489714Y-148378208D01*
X99378209Y-148489712D01*
X99290609Y-148620814D01*
X99290602Y-148620827D01*
X99230264Y-148766498D01*
X99230261Y-148766510D01*
X99199500Y-148921153D01*
X99199500Y-149078846D01*
X99230261Y-149233489D01*
X99230264Y-149233501D01*
X99290602Y-149379172D01*
X99290609Y-149379185D01*
X99378210Y-149510288D01*
X99378213Y-149510292D01*
X99489707Y-149621786D01*
X99489711Y-149621789D01*
X99620814Y-149709390D01*
X99620827Y-149709397D01*
X99766498Y-149769735D01*
X99766503Y-149769737D01*
X99921153Y-149800499D01*
X99921156Y-149800500D01*
X99921158Y-149800500D01*
X100078844Y-149800500D01*
X100078845Y-149800499D01*
X100233497Y-149769737D01*
X100379179Y-149709394D01*
X100468094Y-149649983D01*
X108274500Y-149649983D01*
X108274500Y-150425001D01*
X108274501Y-150425019D01*
X108285000Y-150527796D01*
X108285001Y-150527799D01*
X108340185Y-150694331D01*
X108340189Y-150694340D01*
X108425076Y-150831964D01*
X108442312Y-150879670D01*
X108498230Y-151274459D01*
X108498090Y-151274478D01*
X108499500Y-151292129D01*
X108499500Y-151848541D01*
X108499500Y-151848543D01*
X108499499Y-151848543D01*
X108537947Y-152041829D01*
X108537950Y-152041839D01*
X108613364Y-152223907D01*
X108613371Y-152223920D01*
X108722860Y-152387781D01*
X108722863Y-152387785D01*
X108862214Y-152527136D01*
X108862218Y-152527139D01*
X109026079Y-152636628D01*
X109026092Y-152636635D01*
X109208160Y-152712049D01*
X109208165Y-152712051D01*
X109208169Y-152712051D01*
X109208170Y-152712052D01*
X109401456Y-152750500D01*
X109401459Y-152750500D01*
X109598543Y-152750500D01*
X109728582Y-152724632D01*
X109791835Y-152712051D01*
X109973914Y-152636632D01*
X110137782Y-152527139D01*
X110277139Y-152387782D01*
X110386632Y-152223914D01*
X110462051Y-152041835D01*
X110500500Y-151848541D01*
X110500500Y-151292167D01*
X110501725Y-151274778D01*
X110501930Y-151273331D01*
X110557685Y-150879670D01*
X110574919Y-150831970D01*
X110659814Y-150694334D01*
X110714999Y-150527797D01*
X110725500Y-150425009D01*
X110725499Y-149649992D01*
X110714999Y-149547203D01*
X110659814Y-149380666D01*
X110567712Y-149231344D01*
X110443656Y-149107288D01*
X110440342Y-149105243D01*
X110438546Y-149103248D01*
X110437989Y-149102807D01*
X110438064Y-149102711D01*
X110393618Y-149053297D01*
X110382397Y-148984334D01*
X110410240Y-148920252D01*
X110440348Y-148894165D01*
X110443342Y-148892318D01*
X110567315Y-148768345D01*
X110659356Y-148619124D01*
X110659358Y-148619119D01*
X110714505Y-148452697D01*
X110714506Y-148452690D01*
X110724999Y-148349986D01*
X110725000Y-148349973D01*
X110725000Y-148212500D01*
X108275001Y-148212500D01*
X108275001Y-148349986D01*
X108285494Y-148452697D01*
X108340641Y-148619119D01*
X108340643Y-148619124D01*
X108432684Y-148768345D01*
X108556655Y-148892316D01*
X108556659Y-148892319D01*
X108559656Y-148894168D01*
X108561279Y-148895972D01*
X108562323Y-148896798D01*
X108562181Y-148896976D01*
X108606381Y-148946116D01*
X108617602Y-149015079D01*
X108589759Y-149079161D01*
X108559661Y-149105241D01*
X108556349Y-149107283D01*
X108556343Y-149107288D01*
X108432289Y-149231342D01*
X108340187Y-149380663D01*
X108340186Y-149380666D01*
X108285001Y-149547203D01*
X108285001Y-149547204D01*
X108285000Y-149547204D01*
X108274500Y-149649983D01*
X100468094Y-149649983D01*
X100510289Y-149621789D01*
X100510292Y-149621786D01*
X100572926Y-149559153D01*
X100621786Y-149510292D01*
X100621789Y-149510289D01*
X100621790Y-149510288D01*
X100709394Y-149379179D01*
X100718299Y-149357678D01*
X100720510Y-149352659D01*
X100908125Y-148951608D01*
X100932757Y-148916476D01*
X102274220Y-147575013D01*
X108275000Y-147575013D01*
X108275000Y-147712500D01*
X109250000Y-147712500D01*
X109750000Y-147712500D01*
X110724999Y-147712500D01*
X110724999Y-147575028D01*
X110724998Y-147575013D01*
X110714505Y-147472302D01*
X110659358Y-147305880D01*
X110659356Y-147305875D01*
X110567315Y-147156654D01*
X110443345Y-147032684D01*
X110294124Y-146940643D01*
X110294119Y-146940641D01*
X110127697Y-146885494D01*
X110127690Y-146885493D01*
X110024986Y-146875000D01*
X109750000Y-146875000D01*
X109750000Y-147712500D01*
X109250000Y-147712500D01*
X109250000Y-146875000D01*
X108975029Y-146875000D01*
X108975012Y-146875001D01*
X108872302Y-146885494D01*
X108705880Y-146940641D01*
X108705875Y-146940643D01*
X108556654Y-147032684D01*
X108432684Y-147156654D01*
X108340643Y-147305875D01*
X108340641Y-147305880D01*
X108285494Y-147472302D01*
X108285493Y-147472309D01*
X108275000Y-147575013D01*
X102274220Y-147575013D01*
X112093821Y-137755413D01*
X112155142Y-137721930D01*
X112224834Y-137726914D01*
X112280767Y-137768786D01*
X112305184Y-137834250D01*
X112305500Y-137843096D01*
X112305500Y-157793902D01*
X112285815Y-157860941D01*
X112269181Y-157881583D01*
X100083528Y-170067235D01*
X100048390Y-170091872D01*
X99648668Y-170278864D01*
X99648621Y-170278887D01*
X99644836Y-170280658D01*
X99620821Y-170290606D01*
X99609243Y-170298341D01*
X99602279Y-170301923D01*
X99602204Y-170301961D01*
X99597707Y-170304275D01*
X99596191Y-170305128D01*
X99515799Y-170360446D01*
X99512423Y-170363034D01*
X99489714Y-170378208D01*
X99378209Y-170489712D01*
X99290609Y-170620814D01*
X99290602Y-170620827D01*
X99230264Y-170766498D01*
X99230261Y-170766510D01*
X99199500Y-170921153D01*
X99199500Y-171078846D01*
X99230261Y-171233489D01*
X99230264Y-171233501D01*
X99290602Y-171379172D01*
X99290609Y-171379185D01*
X99378210Y-171510288D01*
X99378213Y-171510292D01*
X99489707Y-171621786D01*
X99489711Y-171621789D01*
X99620814Y-171709390D01*
X99620827Y-171709397D01*
X99766498Y-171769735D01*
X99766503Y-171769737D01*
X99921153Y-171800499D01*
X99921156Y-171800500D01*
X99921158Y-171800500D01*
X100078844Y-171800500D01*
X100078845Y-171800499D01*
X100233497Y-171769737D01*
X100379179Y-171709394D01*
X100468094Y-171649983D01*
X108274500Y-171649983D01*
X108274500Y-172425001D01*
X108274501Y-172425019D01*
X108285000Y-172527796D01*
X108285001Y-172527799D01*
X108340185Y-172694331D01*
X108340189Y-172694340D01*
X108425076Y-172831964D01*
X108442312Y-172879670D01*
X108498230Y-173274459D01*
X108498090Y-173274478D01*
X108499500Y-173292129D01*
X108499500Y-173848541D01*
X108499500Y-173848543D01*
X108499499Y-173848543D01*
X108537947Y-174041829D01*
X108537950Y-174041839D01*
X108613364Y-174223907D01*
X108613371Y-174223920D01*
X108722860Y-174387781D01*
X108722863Y-174387785D01*
X108862214Y-174527136D01*
X108862218Y-174527139D01*
X109026079Y-174636628D01*
X109026092Y-174636635D01*
X109208160Y-174712049D01*
X109208165Y-174712051D01*
X109208169Y-174712051D01*
X109208170Y-174712052D01*
X109401456Y-174750500D01*
X109401459Y-174750500D01*
X109598543Y-174750500D01*
X109728582Y-174724632D01*
X109791835Y-174712051D01*
X109973914Y-174636632D01*
X110137782Y-174527139D01*
X110277139Y-174387782D01*
X110386632Y-174223914D01*
X110462051Y-174041835D01*
X110500500Y-173848541D01*
X110500500Y-173292167D01*
X110501725Y-173274778D01*
X110501930Y-173273331D01*
X110557685Y-172879670D01*
X110574919Y-172831970D01*
X110659814Y-172694334D01*
X110714999Y-172527797D01*
X110725500Y-172425009D01*
X110725499Y-171649992D01*
X110714999Y-171547203D01*
X110659814Y-171380666D01*
X110567712Y-171231344D01*
X110443656Y-171107288D01*
X110440342Y-171105243D01*
X110438546Y-171103248D01*
X110437989Y-171102807D01*
X110438064Y-171102711D01*
X110393618Y-171053297D01*
X110382397Y-170984334D01*
X110410240Y-170920252D01*
X110440348Y-170894165D01*
X110443342Y-170892318D01*
X110567315Y-170768345D01*
X110659356Y-170619124D01*
X110659358Y-170619119D01*
X110714505Y-170452697D01*
X110714506Y-170452690D01*
X110724999Y-170349986D01*
X110725000Y-170349973D01*
X110725000Y-170212500D01*
X108275001Y-170212500D01*
X108275001Y-170349986D01*
X108285494Y-170452697D01*
X108340641Y-170619119D01*
X108340643Y-170619124D01*
X108432684Y-170768345D01*
X108556655Y-170892316D01*
X108556659Y-170892319D01*
X108559656Y-170894168D01*
X108561279Y-170895972D01*
X108562323Y-170896798D01*
X108562181Y-170896976D01*
X108606381Y-170946116D01*
X108617602Y-171015079D01*
X108589759Y-171079161D01*
X108559661Y-171105241D01*
X108556349Y-171107283D01*
X108556343Y-171107288D01*
X108432289Y-171231342D01*
X108340187Y-171380663D01*
X108340186Y-171380666D01*
X108285001Y-171547203D01*
X108285001Y-171547204D01*
X108285000Y-171547204D01*
X108274500Y-171649983D01*
X100468094Y-171649983D01*
X100510289Y-171621789D01*
X100510292Y-171621786D01*
X100572926Y-171559153D01*
X100621786Y-171510292D01*
X100621789Y-171510289D01*
X100621790Y-171510288D01*
X100709394Y-171379179D01*
X100718299Y-171357678D01*
X100720510Y-171352659D01*
X100908125Y-170951608D01*
X100932757Y-170916476D01*
X102274220Y-169575013D01*
X108275000Y-169575013D01*
X108275000Y-169712500D01*
X109250000Y-169712500D01*
X109750000Y-169712500D01*
X110724999Y-169712500D01*
X110724999Y-169575028D01*
X110724998Y-169575013D01*
X110714505Y-169472302D01*
X110659358Y-169305880D01*
X110659356Y-169305875D01*
X110567315Y-169156654D01*
X110443345Y-169032684D01*
X110294124Y-168940643D01*
X110294119Y-168940641D01*
X110127697Y-168885494D01*
X110127690Y-168885493D01*
X110024986Y-168875000D01*
X109750000Y-168875000D01*
X109750000Y-169712500D01*
X109250000Y-169712500D01*
X109250000Y-168875000D01*
X108975029Y-168875000D01*
X108975012Y-168875001D01*
X108872302Y-168885494D01*
X108705880Y-168940641D01*
X108705875Y-168940643D01*
X108556654Y-169032684D01*
X108432684Y-169156654D01*
X108340643Y-169305875D01*
X108340641Y-169305880D01*
X108285494Y-169472302D01*
X108285493Y-169472309D01*
X108275000Y-169575013D01*
X102274220Y-169575013D01*
X112494821Y-159354413D01*
X112556142Y-159320930D01*
X112625834Y-159325914D01*
X112681767Y-159367786D01*
X112706184Y-159433250D01*
X112706500Y-159442096D01*
X112706500Y-179392902D01*
X112686815Y-179459941D01*
X112670181Y-179480583D01*
X100083528Y-192067235D01*
X100048390Y-192091872D01*
X99648668Y-192278864D01*
X99648621Y-192278887D01*
X99644836Y-192280658D01*
X99620821Y-192290606D01*
X99609243Y-192298341D01*
X99602279Y-192301923D01*
X99602204Y-192301961D01*
X99597707Y-192304275D01*
X99596191Y-192305128D01*
X99515799Y-192360446D01*
X99512423Y-192363034D01*
X99489714Y-192378208D01*
X99378209Y-192489712D01*
X99290609Y-192620814D01*
X99290602Y-192620827D01*
X99230264Y-192766498D01*
X99230261Y-192766510D01*
X99199500Y-192921153D01*
X99199500Y-193078846D01*
X99230261Y-193233489D01*
X99230264Y-193233501D01*
X99290602Y-193379172D01*
X99290609Y-193379185D01*
X99378210Y-193510288D01*
X99378213Y-193510292D01*
X99489707Y-193621786D01*
X99489711Y-193621789D01*
X99620814Y-193709390D01*
X99620827Y-193709397D01*
X99766498Y-193769735D01*
X99766503Y-193769737D01*
X99921153Y-193800499D01*
X99921156Y-193800500D01*
X99921158Y-193800500D01*
X100078844Y-193800500D01*
X100078845Y-193800499D01*
X100233497Y-193769737D01*
X100379179Y-193709394D01*
X100468094Y-193649983D01*
X108274500Y-193649983D01*
X108274500Y-194425001D01*
X108274501Y-194425019D01*
X108285000Y-194527796D01*
X108285001Y-194527799D01*
X108340185Y-194694331D01*
X108340189Y-194694340D01*
X108425076Y-194831964D01*
X108442312Y-194879670D01*
X108498230Y-195274459D01*
X108498090Y-195274478D01*
X108499500Y-195292129D01*
X108499500Y-195848541D01*
X108499500Y-195848543D01*
X108499499Y-195848543D01*
X108537947Y-196041829D01*
X108537950Y-196041839D01*
X108613364Y-196223907D01*
X108613371Y-196223920D01*
X108722860Y-196387781D01*
X108722863Y-196387785D01*
X108862214Y-196527136D01*
X108862218Y-196527139D01*
X109026079Y-196636628D01*
X109026092Y-196636635D01*
X109208160Y-196712049D01*
X109208165Y-196712051D01*
X109208169Y-196712051D01*
X109208170Y-196712052D01*
X109401456Y-196750500D01*
X109401459Y-196750500D01*
X109598543Y-196750500D01*
X109728582Y-196724632D01*
X109791835Y-196712051D01*
X109973914Y-196636632D01*
X110137782Y-196527139D01*
X110277139Y-196387782D01*
X110386632Y-196223914D01*
X110462051Y-196041835D01*
X110500500Y-195848541D01*
X110500500Y-195292167D01*
X110501725Y-195274778D01*
X110501930Y-195273331D01*
X110557685Y-194879670D01*
X110574919Y-194831970D01*
X110659814Y-194694334D01*
X110714999Y-194527797D01*
X110725500Y-194425009D01*
X110725499Y-193649992D01*
X110714999Y-193547203D01*
X110659814Y-193380666D01*
X110567712Y-193231344D01*
X110443656Y-193107288D01*
X110440342Y-193105243D01*
X110438546Y-193103248D01*
X110437989Y-193102807D01*
X110438064Y-193102711D01*
X110393618Y-193053297D01*
X110382397Y-192984334D01*
X110410240Y-192920252D01*
X110440348Y-192894165D01*
X110443342Y-192892318D01*
X110567315Y-192768345D01*
X110659356Y-192619124D01*
X110659358Y-192619119D01*
X110714505Y-192452697D01*
X110714506Y-192452690D01*
X110724999Y-192349986D01*
X110725000Y-192349973D01*
X110725000Y-192212500D01*
X108275001Y-192212500D01*
X108275001Y-192349986D01*
X108285494Y-192452697D01*
X108340641Y-192619119D01*
X108340643Y-192619124D01*
X108432684Y-192768345D01*
X108556655Y-192892316D01*
X108556659Y-192892319D01*
X108559656Y-192894168D01*
X108561279Y-192895972D01*
X108562323Y-192896798D01*
X108562181Y-192896976D01*
X108606381Y-192946116D01*
X108617602Y-193015079D01*
X108589759Y-193079161D01*
X108559661Y-193105241D01*
X108556349Y-193107283D01*
X108556343Y-193107288D01*
X108432289Y-193231342D01*
X108340187Y-193380663D01*
X108340186Y-193380666D01*
X108285001Y-193547203D01*
X108285001Y-193547204D01*
X108285000Y-193547204D01*
X108274500Y-193649983D01*
X100468094Y-193649983D01*
X100510289Y-193621789D01*
X100510292Y-193621786D01*
X100572926Y-193559153D01*
X100621786Y-193510292D01*
X100621789Y-193510289D01*
X100621790Y-193510288D01*
X100709394Y-193379179D01*
X100718299Y-193357678D01*
X100720510Y-193352659D01*
X100908125Y-192951608D01*
X100932757Y-192916476D01*
X102274220Y-191575013D01*
X108275000Y-191575013D01*
X108275000Y-191712500D01*
X109250000Y-191712500D01*
X109750000Y-191712500D01*
X110724999Y-191712500D01*
X110724999Y-191575028D01*
X110724998Y-191575013D01*
X110714505Y-191472302D01*
X110659358Y-191305880D01*
X110659356Y-191305875D01*
X110567315Y-191156654D01*
X110443345Y-191032684D01*
X110294124Y-190940643D01*
X110294119Y-190940641D01*
X110127697Y-190885494D01*
X110127690Y-190885493D01*
X110024986Y-190875000D01*
X109750000Y-190875000D01*
X109750000Y-191712500D01*
X109250000Y-191712500D01*
X109250000Y-190875000D01*
X108975029Y-190875000D01*
X108975012Y-190875001D01*
X108872302Y-190885494D01*
X108705880Y-190940641D01*
X108705875Y-190940643D01*
X108556654Y-191032684D01*
X108432684Y-191156654D01*
X108340643Y-191305875D01*
X108340641Y-191305880D01*
X108285494Y-191472302D01*
X108285493Y-191472309D01*
X108275000Y-191575013D01*
X102274220Y-191575013D01*
X112895821Y-180953413D01*
X112957142Y-180919930D01*
X113026834Y-180924914D01*
X113082767Y-180966786D01*
X113107184Y-181032250D01*
X113107500Y-181041096D01*
X113107500Y-200996790D01*
X113087815Y-201063829D01*
X113071181Y-201084471D01*
X100083528Y-214072123D01*
X100048390Y-214096760D01*
X99648668Y-214283752D01*
X99648621Y-214283775D01*
X99644836Y-214285546D01*
X99620821Y-214295494D01*
X99609243Y-214303229D01*
X99602279Y-214306811D01*
X99602204Y-214306849D01*
X99597707Y-214309163D01*
X99596191Y-214310016D01*
X99515799Y-214365334D01*
X99512423Y-214367922D01*
X99489714Y-214383096D01*
X99378209Y-214494600D01*
X99290609Y-214625702D01*
X99290602Y-214625715D01*
X99230264Y-214771386D01*
X99230261Y-214771398D01*
X99199500Y-214926041D01*
X99199500Y-215083734D01*
X99230261Y-215238377D01*
X99230264Y-215238389D01*
X99290602Y-215384060D01*
X99290609Y-215384073D01*
X99378210Y-215515176D01*
X99378213Y-215515180D01*
X99489707Y-215626674D01*
X99489711Y-215626677D01*
X99620814Y-215714278D01*
X99620827Y-215714285D01*
X99766498Y-215774623D01*
X99766503Y-215774625D01*
X99921153Y-215805387D01*
X99921156Y-215805388D01*
X99921158Y-215805388D01*
X100078844Y-215805388D01*
X100078845Y-215805387D01*
X100233497Y-215774625D01*
X100379179Y-215714282D01*
X100475409Y-215649983D01*
X108274500Y-215649983D01*
X108274500Y-216425001D01*
X108274501Y-216425019D01*
X108285000Y-216527796D01*
X108285001Y-216527799D01*
X108340185Y-216694331D01*
X108340189Y-216694340D01*
X108425076Y-216831964D01*
X108442312Y-216879670D01*
X108498230Y-217274459D01*
X108498090Y-217274478D01*
X108499500Y-217292129D01*
X108499500Y-217848541D01*
X108499500Y-217848543D01*
X108499499Y-217848543D01*
X108537947Y-218041829D01*
X108537950Y-218041839D01*
X108613364Y-218223907D01*
X108613371Y-218223920D01*
X108722860Y-218387781D01*
X108722863Y-218387785D01*
X108862214Y-218527136D01*
X108862218Y-218527139D01*
X109026079Y-218636628D01*
X109026092Y-218636635D01*
X109208160Y-218712049D01*
X109208165Y-218712051D01*
X109208169Y-218712051D01*
X109208170Y-218712052D01*
X109401456Y-218750500D01*
X109401459Y-218750500D01*
X109598543Y-218750500D01*
X109728582Y-218724632D01*
X109791835Y-218712051D01*
X109973914Y-218636632D01*
X110137782Y-218527139D01*
X110277139Y-218387782D01*
X110386632Y-218223914D01*
X110462051Y-218041835D01*
X110500500Y-217848541D01*
X110500500Y-217292167D01*
X110501725Y-217274778D01*
X110501930Y-217273331D01*
X110557685Y-216879670D01*
X110574919Y-216831970D01*
X110659814Y-216694334D01*
X110714999Y-216527797D01*
X110725500Y-216425009D01*
X110725499Y-215649992D01*
X110723117Y-215626677D01*
X110714999Y-215547203D01*
X110714998Y-215547200D01*
X110659814Y-215380666D01*
X110567712Y-215231344D01*
X110443656Y-215107288D01*
X110440342Y-215105243D01*
X110438546Y-215103248D01*
X110437989Y-215102807D01*
X110438064Y-215102711D01*
X110393618Y-215053297D01*
X110382397Y-214984334D01*
X110410240Y-214920252D01*
X110440348Y-214894165D01*
X110443342Y-214892318D01*
X110567315Y-214768345D01*
X110659356Y-214619124D01*
X110659358Y-214619119D01*
X110714505Y-214452697D01*
X110714506Y-214452690D01*
X110724999Y-214349986D01*
X110725000Y-214349973D01*
X110725000Y-214212500D01*
X108275001Y-214212500D01*
X108275001Y-214349986D01*
X108285494Y-214452697D01*
X108340641Y-214619119D01*
X108340643Y-214619124D01*
X108432684Y-214768345D01*
X108556655Y-214892316D01*
X108556659Y-214892319D01*
X108559656Y-214894168D01*
X108561279Y-214895972D01*
X108562323Y-214896798D01*
X108562181Y-214896976D01*
X108606381Y-214946116D01*
X108617602Y-215015079D01*
X108589759Y-215079161D01*
X108559661Y-215105241D01*
X108556349Y-215107283D01*
X108556343Y-215107288D01*
X108432289Y-215231342D01*
X108340187Y-215380663D01*
X108340185Y-215380668D01*
X108339057Y-215384073D01*
X108285001Y-215547203D01*
X108285001Y-215547204D01*
X108285000Y-215547204D01*
X108274500Y-215649983D01*
X100475409Y-215649983D01*
X100510289Y-215626677D01*
X100510292Y-215626674D01*
X100577814Y-215559153D01*
X100621786Y-215515180D01*
X100621789Y-215515177D01*
X100621790Y-215515176D01*
X100709394Y-215384067D01*
X100718299Y-215362566D01*
X100720510Y-215357547D01*
X100908125Y-214956496D01*
X100932757Y-214921364D01*
X102279108Y-213575013D01*
X108275000Y-213575013D01*
X108275000Y-213712500D01*
X109250000Y-213712500D01*
X109750000Y-213712500D01*
X110724999Y-213712500D01*
X110724999Y-213575028D01*
X110724998Y-213575013D01*
X110714505Y-213472302D01*
X110659358Y-213305880D01*
X110659356Y-213305875D01*
X110567315Y-213156654D01*
X110443345Y-213032684D01*
X110294124Y-212940643D01*
X110294119Y-212940641D01*
X110127697Y-212885494D01*
X110127690Y-212885493D01*
X110024986Y-212875000D01*
X109750000Y-212875000D01*
X109750000Y-213712500D01*
X109250000Y-213712500D01*
X109250000Y-212875000D01*
X108975029Y-212875000D01*
X108975012Y-212875001D01*
X108872302Y-212885494D01*
X108705880Y-212940641D01*
X108705875Y-212940643D01*
X108556654Y-213032684D01*
X108432684Y-213156654D01*
X108340643Y-213305875D01*
X108340641Y-213305880D01*
X108285494Y-213472302D01*
X108285493Y-213472309D01*
X108275000Y-213575013D01*
X102279108Y-213575013D01*
X114188520Y-201665604D01*
X114267577Y-201528672D01*
X114308501Y-201375945D01*
X114308501Y-201217830D01*
X114308501Y-201210235D01*
X114308500Y-201210217D01*
X114308500Y-77604685D01*
X114308499Y-77604679D01*
X114306436Y-77596978D01*
X114304244Y-77588797D01*
X114267577Y-77451955D01*
X114222858Y-77374500D01*
X114188520Y-77315024D01*
X114076716Y-77203220D01*
X114072385Y-77198889D01*
X114072374Y-77198879D01*
X111306850Y-74433355D01*
X111306848Y-74433352D01*
X111187977Y-74314481D01*
X111187976Y-74314480D01*
X111101164Y-74264360D01*
X111101164Y-74264359D01*
X111101160Y-74264358D01*
X111051045Y-74235423D01*
X110898317Y-74194499D01*
X110740203Y-74194499D01*
X110732607Y-74194499D01*
X110732591Y-74194500D01*
X103884057Y-74194500D01*
X103725942Y-74194500D01*
X103573215Y-74235423D01*
X103573214Y-74235423D01*
X103573212Y-74235424D01*
X103573209Y-74235425D01*
X103523096Y-74264359D01*
X103523095Y-74264360D01*
X103479689Y-74289420D01*
X103436285Y-74314479D01*
X103436282Y-74314481D01*
X99844481Y-77906282D01*
X99844477Y-77906287D01*
X99814460Y-77958280D01*
X99763894Y-78006495D01*
X99695287Y-78019719D01*
X99630422Y-77993751D01*
X99589893Y-77936837D01*
X99587298Y-77928372D01*
X99584577Y-77918217D01*
X99584573Y-77918209D01*
X99505524Y-77781290D01*
X99505521Y-77781286D01*
X99505520Y-77781284D01*
X99393716Y-77669480D01*
X99393715Y-77669479D01*
X99389385Y-77665149D01*
X99389374Y-77665139D01*
X99112590Y-77388355D01*
X99112588Y-77388352D01*
X98993717Y-77269481D01*
X98993709Y-77269475D01*
X98879387Y-77203472D01*
X98879386Y-77203471D01*
X98863499Y-77194299D01*
X98856785Y-77190423D01*
X98704057Y-77149499D01*
X98545943Y-77149499D01*
X98538347Y-77149499D01*
X98538331Y-77149500D01*
X97550097Y-77149500D01*
X97483058Y-77129815D01*
X97462416Y-77113181D01*
X94136819Y-73787584D01*
X94103334Y-73726261D01*
X94100500Y-73699903D01*
X94100500Y-71550096D01*
X94120185Y-71483057D01*
X94136814Y-71462420D01*
X97558506Y-68040727D01*
X97558511Y-68040724D01*
X97568714Y-68030520D01*
X97568716Y-68030520D01*
X97680520Y-67918716D01*
X97733186Y-67827495D01*
X97759577Y-67781785D01*
X97800500Y-67629057D01*
X97800500Y-67474390D01*
X97805926Y-67438112D01*
X97878931Y-67199500D01*
X97937858Y-67006902D01*
X97939406Y-67003166D01*
X97940157Y-66999387D01*
X97943512Y-66988424D01*
X97950091Y-66964907D01*
X97950371Y-66963804D01*
X97963753Y-66886083D01*
X97963752Y-66886078D01*
X97963779Y-66885926D01*
X97964044Y-66882529D01*
X97964639Y-66876306D01*
X97970169Y-66848511D01*
X97970169Y-66818577D01*
X97970734Y-66812678D01*
X97981613Y-66785523D01*
X97989854Y-66757461D01*
X97994454Y-66753474D01*
X97996720Y-66747821D01*
X98020556Y-66730857D01*
X98042658Y-66711706D01*
X98049583Y-66710199D01*
X98053646Y-66707308D01*
X98065441Y-66706749D01*
X98094169Y-66700500D01*
X98170943Y-66700500D01*
X98329057Y-66700500D01*
X102549903Y-66700500D01*
X102616942Y-66720185D01*
X102637584Y-66736819D01*
X104515139Y-68614374D01*
X104515149Y-68614385D01*
X104519479Y-68618715D01*
X104519480Y-68618716D01*
X104631284Y-68730520D01*
X104718095Y-68780639D01*
X104718097Y-68780641D01*
X104756151Y-68802611D01*
X104768215Y-68809577D01*
X104920943Y-68850500D01*
X111413331Y-68850500D01*
X111413347Y-68850501D01*
X111420943Y-68850501D01*
X111579054Y-68850501D01*
X111579057Y-68850501D01*
X111731785Y-68809577D01*
X111781904Y-68780639D01*
X111868716Y-68730520D01*
X111980520Y-68618716D01*
X111980521Y-68618714D01*
X112480520Y-68118716D01*
X112559577Y-67981784D01*
X112600501Y-67829057D01*
X112600501Y-67670942D01*
X112600501Y-67663347D01*
X112600500Y-67663329D01*
X112600500Y-67091729D01*
X112620185Y-67024690D01*
X112672989Y-66978935D01*
X112742147Y-66968991D01*
X112748677Y-66970109D01*
X112793046Y-66978935D01*
X112901456Y-67000500D01*
X112901459Y-67000500D01*
X113098543Y-67000500D01*
X113251310Y-66970112D01*
X113291835Y-66962051D01*
X113473914Y-66886632D01*
X113637782Y-66777139D01*
X113777139Y-66637782D01*
X113886632Y-66473914D01*
X113962051Y-66291835D01*
X113994929Y-66126548D01*
X114000500Y-66098543D01*
X114000500Y-56901456D01*
X113982480Y-56810867D01*
X113973272Y-56764578D01*
X113973272Y-56764575D01*
X113967636Y-56736243D01*
X113962051Y-56708164D01*
X113924310Y-56617049D01*
X113916090Y-56597203D01*
X113886635Y-56526092D01*
X113886628Y-56526079D01*
X113777139Y-56362218D01*
X113777136Y-56362214D01*
X113634686Y-56219764D01*
X113634655Y-56219735D01*
X113281479Y-55866559D01*
X113281459Y-55866537D01*
X113137785Y-55722863D01*
X113137781Y-55722860D01*
X112973920Y-55613371D01*
X112973907Y-55613364D01*
X112821426Y-55550205D01*
X112821421Y-55550203D01*
X112812798Y-55546632D01*
X112791836Y-55537949D01*
X112692601Y-55518210D01*
X112689797Y-55517652D01*
X112689780Y-55517648D01*
X112598543Y-55499500D01*
X112598541Y-55499500D01*
X112513468Y-55499500D01*
X112504636Y-55497699D01*
X112499024Y-55498656D01*
X112464912Y-55489598D01*
X112445486Y-55481331D01*
X112391508Y-55436967D01*
X112376336Y-55406237D01*
X112342850Y-55305185D01*
X112319814Y-55235666D01*
X112277488Y-55167046D01*
X112227713Y-55086348D01*
X112227710Y-55086344D01*
X112103655Y-54962289D01*
X112103651Y-54962286D01*
X111954337Y-54870187D01*
X111954335Y-54870186D01*
X111871065Y-54842593D01*
X111787797Y-54815001D01*
X111787795Y-54815000D01*
X111685015Y-54804500D01*
X111685008Y-54804500D01*
X110569992Y-54804500D01*
X110569984Y-54804500D01*
X110467204Y-54815000D01*
X110467203Y-54815001D01*
X110300664Y-54870186D01*
X110300662Y-54870187D01*
X110151348Y-54962286D01*
X110151344Y-54962289D01*
X110027289Y-55086344D01*
X110027286Y-55086348D01*
X109935187Y-55235662D01*
X109935186Y-55235664D01*
X109880001Y-55402203D01*
X109880000Y-55402204D01*
X109869500Y-55504984D01*
X109869500Y-57495015D01*
X109880000Y-57597795D01*
X109880001Y-57597796D01*
X109935186Y-57764335D01*
X109935187Y-57764337D01*
X110027286Y-57913651D01*
X110027289Y-57913655D01*
X110151344Y-58037710D01*
X110151348Y-58037713D01*
X110300662Y-58129812D01*
X110300664Y-58129813D01*
X110300666Y-58129814D01*
X110467203Y-58184999D01*
X110569992Y-58195500D01*
X110569997Y-58195500D01*
X111685003Y-58195500D01*
X111685008Y-58195500D01*
X111787797Y-58184999D01*
X111836498Y-58168860D01*
X111906324Y-58166459D01*
X111966366Y-58202190D01*
X111997559Y-58264711D01*
X111999500Y-58286567D01*
X111999500Y-64325500D01*
X111996949Y-64334185D01*
X111998238Y-64343147D01*
X111987259Y-64367187D01*
X111979815Y-64392539D01*
X111972974Y-64398466D01*
X111969213Y-64406703D01*
X111946978Y-64420992D01*
X111927011Y-64438294D01*
X111916496Y-64440581D01*
X111910435Y-64444477D01*
X111875500Y-64449500D01*
X111853759Y-64449500D01*
X111800069Y-64437274D01*
X111531482Y-64308259D01*
X111521860Y-64304018D01*
X111511951Y-64298927D01*
X111508687Y-64297515D01*
X111501464Y-64295020D01*
X111499841Y-64294367D01*
X111416684Y-64268976D01*
X111409704Y-64267692D01*
X111409775Y-64267301D01*
X111394622Y-64264618D01*
X111352568Y-64252401D01*
X111352569Y-64252401D01*
X111315701Y-64249500D01*
X111315694Y-64249500D01*
X110561613Y-64249500D01*
X110494574Y-64229815D01*
X110448819Y-64177011D01*
X110438875Y-64107853D01*
X110447051Y-64078049D01*
X110452518Y-64064850D01*
X110462051Y-64041835D01*
X110492694Y-63887785D01*
X110500500Y-63848543D01*
X110500500Y-63292167D01*
X110501725Y-63274778D01*
X110501930Y-63273331D01*
X110557685Y-62879670D01*
X110574919Y-62831970D01*
X110659814Y-62694334D01*
X110714999Y-62527797D01*
X110725500Y-62425009D01*
X110725499Y-61649992D01*
X110720391Y-61599992D01*
X110714999Y-61547203D01*
X110714998Y-61547200D01*
X110698431Y-61497204D01*
X110659814Y-61380666D01*
X110567712Y-61231344D01*
X110443656Y-61107288D01*
X110440342Y-61105243D01*
X110438546Y-61103248D01*
X110437989Y-61102807D01*
X110438064Y-61102711D01*
X110393618Y-61053297D01*
X110382397Y-60984334D01*
X110410240Y-60920252D01*
X110440348Y-60894165D01*
X110443342Y-60892318D01*
X110567315Y-60768345D01*
X110659356Y-60619124D01*
X110659358Y-60619119D01*
X110714505Y-60452697D01*
X110714506Y-60452690D01*
X110724999Y-60349986D01*
X110725000Y-60349973D01*
X110725000Y-60212500D01*
X108275001Y-60212500D01*
X108275001Y-60349986D01*
X108285494Y-60452697D01*
X108340641Y-60619119D01*
X108340643Y-60619124D01*
X108432684Y-60768345D01*
X108556655Y-60892316D01*
X108556659Y-60892319D01*
X108559656Y-60894168D01*
X108561279Y-60895972D01*
X108562323Y-60896798D01*
X108562181Y-60896976D01*
X108606381Y-60946116D01*
X108617602Y-61015079D01*
X108589759Y-61079161D01*
X108559661Y-61105241D01*
X108556349Y-61107283D01*
X108556343Y-61107288D01*
X108432289Y-61231342D01*
X108340187Y-61380663D01*
X108340185Y-61380668D01*
X108312349Y-61464670D01*
X108285001Y-61547203D01*
X108285001Y-61547204D01*
X108285000Y-61547204D01*
X108274500Y-61649983D01*
X108274500Y-62425001D01*
X108274501Y-62425019D01*
X108285000Y-62527796D01*
X108285001Y-62527799D01*
X108340185Y-62694331D01*
X108340189Y-62694340D01*
X108425076Y-62831964D01*
X108442312Y-62879670D01*
X108471591Y-63086385D01*
X108481925Y-63159347D01*
X108498230Y-63274459D01*
X108498090Y-63274478D01*
X108499500Y-63292129D01*
X108499500Y-63848541D01*
X108499500Y-63848543D01*
X108499499Y-63848543D01*
X108537947Y-64041829D01*
X108537949Y-64041834D01*
X108552949Y-64078049D01*
X108560416Y-64147518D01*
X108529141Y-64209997D01*
X108469051Y-64245649D01*
X108438387Y-64249500D01*
X107884298Y-64249500D01*
X107847432Y-64252401D01*
X107847426Y-64252402D01*
X107689606Y-64298254D01*
X107689603Y-64298255D01*
X107548137Y-64381917D01*
X107548129Y-64381923D01*
X107431923Y-64498129D01*
X107431917Y-64498137D01*
X107348255Y-64639603D01*
X107348254Y-64639606D01*
X107302402Y-64797426D01*
X107302401Y-64797432D01*
X107299500Y-64834298D01*
X107299500Y-65265701D01*
X107302401Y-65302567D01*
X107302402Y-65302573D01*
X107348254Y-65460393D01*
X107348254Y-65460394D01*
X107348255Y-65460396D01*
X107348256Y-65460398D01*
X107349133Y-65461881D01*
X107349466Y-65463195D01*
X107351353Y-65467554D01*
X107350649Y-65467858D01*
X107366315Y-65529604D01*
X107350861Y-65582233D01*
X107351353Y-65582446D01*
X107349630Y-65586426D01*
X107349133Y-65588118D01*
X107348506Y-65589177D01*
X107348254Y-65589605D01*
X107348254Y-65589606D01*
X107302402Y-65747426D01*
X107302401Y-65747432D01*
X107299500Y-65784298D01*
X107299500Y-66215701D01*
X107302401Y-66252567D01*
X107302402Y-66252573D01*
X107348254Y-66410393D01*
X107348256Y-66410399D01*
X107349426Y-66412377D01*
X107349869Y-66414126D01*
X107351353Y-66417554D01*
X107350799Y-66417793D01*
X107366603Y-66480102D01*
X107351249Y-66532395D01*
X107351817Y-66532641D01*
X107349827Y-66537239D01*
X107349428Y-66538599D01*
X107348722Y-66539791D01*
X107348716Y-66539806D01*
X107302900Y-66697505D01*
X107302899Y-66697511D01*
X107302704Y-66699998D01*
X107302705Y-66700000D01*
X107568185Y-66700000D01*
X107631306Y-66717268D01*
X107689602Y-66751744D01*
X107695557Y-66753474D01*
X107847426Y-66797597D01*
X107847429Y-66797597D01*
X107847431Y-66797598D01*
X107884306Y-66800500D01*
X107884314Y-66800500D01*
X108338500Y-66800500D01*
X108347185Y-66803050D01*
X108356147Y-66801762D01*
X108380187Y-66812740D01*
X108405539Y-66820185D01*
X108411466Y-66827025D01*
X108419703Y-66830787D01*
X108433992Y-66853021D01*
X108451294Y-66872989D01*
X108453581Y-66883503D01*
X108457477Y-66889565D01*
X108462500Y-66924500D01*
X108462500Y-67075500D01*
X108442815Y-67142539D01*
X108390011Y-67188294D01*
X108338500Y-67199500D01*
X105600098Y-67199500D01*
X105533059Y-67179815D01*
X105512417Y-67163181D01*
X104987017Y-66637781D01*
X104443726Y-66094491D01*
X104410242Y-66033169D01*
X104415226Y-65963477D01*
X104457098Y-65907544D01*
X104462502Y-65903718D01*
X104510289Y-65871789D01*
X104621789Y-65760289D01*
X104709394Y-65629179D01*
X104713414Y-65619475D01*
X104728751Y-65582446D01*
X104769737Y-65483497D01*
X104800500Y-65328842D01*
X104800500Y-65171158D01*
X104800500Y-65171155D01*
X104780326Y-65069738D01*
X104774984Y-65042881D01*
X104772334Y-65026787D01*
X104770845Y-65022074D01*
X104769737Y-65016503D01*
X104769042Y-65014825D01*
X104765373Y-65004753D01*
X104631260Y-64580221D01*
X104625500Y-64542869D01*
X104625500Y-63161042D01*
X104645185Y-63094003D01*
X104649100Y-63088270D01*
X104670980Y-63058083D01*
X104975227Y-62638328D01*
X104987934Y-62623432D01*
X105042712Y-62568656D01*
X105134814Y-62419334D01*
X105189999Y-62252797D01*
X105200500Y-62150009D01*
X105200499Y-61349992D01*
X105189999Y-61247203D01*
X105134814Y-61080666D01*
X105042712Y-60931344D01*
X104949049Y-60837681D01*
X104915564Y-60776358D01*
X104920548Y-60706666D01*
X104949049Y-60662319D01*
X104992249Y-60619119D01*
X105042712Y-60568656D01*
X105134814Y-60419334D01*
X105189999Y-60252797D01*
X105200500Y-60150009D01*
X105200499Y-59349992D01*
X105198107Y-59326580D01*
X105189999Y-59247203D01*
X105189998Y-59247200D01*
X105175480Y-59203388D01*
X105134814Y-59080666D01*
X105042712Y-58931344D01*
X104987947Y-58876579D01*
X104975228Y-58861670D01*
X104649100Y-58411728D01*
X104625694Y-58345896D01*
X104625500Y-58338956D01*
X104625500Y-56207128D01*
X104631260Y-56169775D01*
X104766987Y-55740134D01*
X104769737Y-55733497D01*
X104770846Y-55727920D01*
X104772334Y-55723211D01*
X104779751Y-55697361D01*
X104780062Y-55696157D01*
X104793968Y-55616390D01*
X104793967Y-55616388D01*
X104794389Y-55613973D01*
X104796023Y-55601345D01*
X104800500Y-55578844D01*
X104800500Y-55578842D01*
X104800500Y-55421158D01*
X104800500Y-55415066D01*
X104801798Y-55415066D01*
X104813570Y-55353004D01*
X104861637Y-55302296D01*
X104923952Y-55285500D01*
X105349548Y-55285500D01*
X105378988Y-55294144D01*
X105408975Y-55300668D01*
X105413990Y-55304422D01*
X105416587Y-55305185D01*
X105437229Y-55321819D01*
X105538181Y-55422771D01*
X105571666Y-55484094D01*
X105574500Y-55510452D01*
X105574500Y-63592866D01*
X105568740Y-63630220D01*
X105434623Y-64054758D01*
X105430954Y-64064834D01*
X105430263Y-64066501D01*
X105430034Y-64067256D01*
X105428058Y-64075410D01*
X105420179Y-64102904D01*
X105419875Y-64104082D01*
X105419874Y-64104086D01*
X105405608Y-64186038D01*
X105403977Y-64198645D01*
X105399500Y-64221154D01*
X105399500Y-64378846D01*
X105430261Y-64533489D01*
X105430264Y-64533501D01*
X105490602Y-64679172D01*
X105490609Y-64679185D01*
X105578210Y-64810288D01*
X105578213Y-64810292D01*
X105689707Y-64921786D01*
X105689711Y-64921789D01*
X105820814Y-65009390D01*
X105820827Y-65009397D01*
X105966498Y-65069735D01*
X105966503Y-65069737D01*
X106121148Y-65100498D01*
X106121153Y-65100499D01*
X106121156Y-65100500D01*
X106121158Y-65100500D01*
X106278844Y-65100500D01*
X106278845Y-65100499D01*
X106433497Y-65069737D01*
X106579179Y-65009394D01*
X106710289Y-64921789D01*
X106821789Y-64810289D01*
X106909394Y-64679179D01*
X106969737Y-64533497D01*
X107000500Y-64378842D01*
X107000500Y-64221158D01*
X107000500Y-64221155D01*
X106985852Y-64147518D01*
X106974984Y-64092881D01*
X106972334Y-64076787D01*
X106970845Y-64072074D01*
X106969737Y-64066503D01*
X106969042Y-64064825D01*
X106965373Y-64054753D01*
X106831260Y-63630222D01*
X106825500Y-63592869D01*
X106825500Y-59575013D01*
X108275000Y-59575013D01*
X108275000Y-59712500D01*
X109250000Y-59712500D01*
X109750000Y-59712500D01*
X110724999Y-59712500D01*
X110724999Y-59575028D01*
X110724998Y-59575013D01*
X110714505Y-59472302D01*
X110659358Y-59305880D01*
X110659356Y-59305875D01*
X110567315Y-59156654D01*
X110443345Y-59032684D01*
X110294124Y-58940643D01*
X110294119Y-58940641D01*
X110127697Y-58885494D01*
X110127690Y-58885493D01*
X110024986Y-58875000D01*
X109750000Y-58875000D01*
X109750000Y-59712500D01*
X109250000Y-59712500D01*
X109250000Y-58875000D01*
X108975029Y-58875000D01*
X108975012Y-58875001D01*
X108872302Y-58885494D01*
X108705880Y-58940641D01*
X108705875Y-58940643D01*
X108556654Y-59032684D01*
X108432684Y-59156654D01*
X108340643Y-59305875D01*
X108340641Y-59305880D01*
X108285494Y-59472302D01*
X108285493Y-59472309D01*
X108275000Y-59575013D01*
X106825500Y-59575013D01*
X106825500Y-58215601D01*
X106845185Y-58148562D01*
X106897989Y-58102807D01*
X106967147Y-58092863D01*
X107014598Y-58110063D01*
X107045874Y-58129355D01*
X107045881Y-58129358D01*
X107212303Y-58184505D01*
X107212310Y-58184506D01*
X107315014Y-58194999D01*
X107315027Y-58195000D01*
X107622500Y-58195000D01*
X108122500Y-58195000D01*
X108429973Y-58195000D01*
X108429985Y-58194999D01*
X108532689Y-58184506D01*
X108532696Y-58184505D01*
X108699118Y-58129358D01*
X108699123Y-58129356D01*
X108848344Y-58037315D01*
X108972315Y-57913344D01*
X109064356Y-57764123D01*
X109064358Y-57764118D01*
X109119505Y-57597696D01*
X109119506Y-57597689D01*
X109129999Y-57494985D01*
X109130000Y-57494972D01*
X109130000Y-56750000D01*
X108122500Y-56750000D01*
X108122500Y-58195000D01*
X107622500Y-58195000D01*
X107622500Y-56250000D01*
X108122500Y-56250000D01*
X109130000Y-56250000D01*
X109130000Y-55505027D01*
X109129999Y-55505014D01*
X109119506Y-55402310D01*
X109119505Y-55402303D01*
X109064358Y-55235881D01*
X109064356Y-55235876D01*
X108972315Y-55086655D01*
X108848344Y-54962684D01*
X108699123Y-54870643D01*
X108699118Y-54870641D01*
X108532696Y-54815494D01*
X108532689Y-54815493D01*
X108429985Y-54805000D01*
X108122500Y-54805000D01*
X108122500Y-56250000D01*
X107622500Y-56250000D01*
X107622500Y-54805000D01*
X107315014Y-54805000D01*
X107212310Y-54815493D01*
X107212303Y-54815494D01*
X107045881Y-54870641D01*
X107045876Y-54870643D01*
X106925527Y-54944876D01*
X106858134Y-54963316D01*
X106791471Y-54942393D01*
X106757328Y-54908228D01*
X106685859Y-54801268D01*
X106661742Y-54777151D01*
X106598733Y-54714142D01*
X106598732Y-54714141D01*
X106145859Y-54261269D01*
X106145858Y-54261267D01*
X106058733Y-54174142D01*
X106007509Y-54139915D01*
X105956286Y-54105688D01*
X105956283Y-54105686D01*
X105956282Y-54105686D01*
X105956281Y-54105685D01*
X105866146Y-54068351D01*
X105866142Y-54068350D01*
X105858057Y-54065001D01*
X105842452Y-54058537D01*
X105782029Y-54046518D01*
X105778661Y-54045848D01*
X105778653Y-54045846D01*
X105721610Y-54034500D01*
X105721607Y-54034500D01*
X105721606Y-54034500D01*
X96937860Y-54034500D01*
X96870821Y-54014815D01*
X96857391Y-54004843D01*
X96186274Y-53432418D01*
X96159647Y-53411213D01*
X96159648Y-53411213D01*
X96159646Y-53411212D01*
X96154855Y-53408619D01*
X96141681Y-53401488D01*
X96141681Y-53401487D01*
X96133675Y-53397154D01*
X96092331Y-53366204D01*
X96041374Y-53347198D01*
X96033774Y-53343085D01*
X96033766Y-53343082D01*
X96033111Y-53342727D01*
X96025517Y-53339927D01*
X96025508Y-53339924D01*
X96017424Y-53337720D01*
X96006715Y-53334271D01*
X95957487Y-53315910D01*
X95957480Y-53315908D01*
X95897883Y-53309501D01*
X95897881Y-53309500D01*
X95897873Y-53309500D01*
X95897864Y-53309500D01*
X94102129Y-53309500D01*
X94102123Y-53309501D01*
X94042516Y-53315908D01*
X93907671Y-53366202D01*
X93907664Y-53366206D01*
X93792455Y-53452452D01*
X93792452Y-53452455D01*
X93706206Y-53567664D01*
X93706202Y-53567671D01*
X93655908Y-53702517D01*
X93649501Y-53762116D01*
X93649500Y-53762135D01*
X93649500Y-55557870D01*
X93649501Y-55557876D01*
X93655908Y-55617483D01*
X93706202Y-55752328D01*
X93706206Y-55752335D01*
X93792452Y-55867544D01*
X93792455Y-55867547D01*
X93907664Y-55953793D01*
X93915454Y-55958047D01*
X93913854Y-55960976D01*
X93956818Y-55993145D01*
X93981228Y-56058612D01*
X93966369Y-56126884D01*
X93916958Y-56176284D01*
X93902049Y-56183183D01*
X93608624Y-56296016D01*
X93538986Y-56301704D01*
X93477327Y-56268841D01*
X93449557Y-56227730D01*
X93415087Y-56144511D01*
X93415080Y-56144498D01*
X93332952Y-56021585D01*
X93295232Y-55983865D01*
X93228416Y-55917049D01*
X93044861Y-55733494D01*
X92478421Y-55167052D01*
X92478414Y-55167046D01*
X92410386Y-55121592D01*
X92410380Y-55121589D01*
X92404729Y-55117813D01*
X92355495Y-55084916D01*
X92278491Y-55053019D01*
X92273709Y-55050533D01*
X92271658Y-55048564D01*
X92259266Y-55041724D01*
X92147043Y-54962286D01*
X91933928Y-54811431D01*
X91890584Y-54756632D01*
X91882214Y-54722827D01*
X91874999Y-54652203D01*
X91819814Y-54485666D01*
X91727711Y-54336345D01*
X91603655Y-54212289D01*
X91603651Y-54212286D01*
X91454337Y-54120187D01*
X91454335Y-54120186D01*
X91371065Y-54092593D01*
X91287797Y-54065001D01*
X91287795Y-54065000D01*
X91185015Y-54054500D01*
X91185008Y-54054500D01*
X90069992Y-54054500D01*
X90069984Y-54054500D01*
X89967204Y-54065000D01*
X89967203Y-54065001D01*
X89800664Y-54120186D01*
X89800662Y-54120187D01*
X89651348Y-54212286D01*
X89651344Y-54212289D01*
X89527289Y-54336344D01*
X89527286Y-54336348D01*
X89435187Y-54485662D01*
X89435186Y-54485664D01*
X89380001Y-54652203D01*
X89380000Y-54652204D01*
X89369500Y-54754984D01*
X89369500Y-56745015D01*
X89380000Y-56847795D01*
X89380001Y-56847796D01*
X89435186Y-57014335D01*
X89435187Y-57014337D01*
X89527286Y-57163651D01*
X89527289Y-57163655D01*
X89651344Y-57287710D01*
X89651348Y-57287713D01*
X89800662Y-57379812D01*
X89800664Y-57379813D01*
X89800666Y-57379814D01*
X89967203Y-57434999D01*
X90069992Y-57445500D01*
X90069997Y-57445500D01*
X91185003Y-57445500D01*
X91185008Y-57445500D01*
X91287797Y-57434999D01*
X91454334Y-57379814D01*
X91603655Y-57287711D01*
X91727711Y-57163655D01*
X91769963Y-57095153D01*
X91821909Y-57048432D01*
X91890872Y-57037209D01*
X91954954Y-57065053D01*
X91993810Y-57123121D01*
X91999500Y-57160253D01*
X91999500Y-63036609D01*
X91993194Y-63058083D01*
X91991508Y-63080407D01*
X91983539Y-63090963D01*
X91979815Y-63103648D01*
X91962902Y-63118303D01*
X91949413Y-63136173D01*
X91937002Y-63140745D01*
X91927011Y-63149403D01*
X91904855Y-63152588D01*
X91883851Y-63160327D01*
X91870942Y-63157464D01*
X91857853Y-63159347D01*
X91837491Y-63150048D01*
X91815638Y-63145203D01*
X91801939Y-63133812D01*
X91794297Y-63130322D01*
X91787469Y-63123939D01*
X91779814Y-63116222D01*
X91777139Y-63112219D01*
X91614380Y-62949460D01*
X91614131Y-62949209D01*
X91597588Y-62918624D01*
X91580996Y-62888237D01*
X91581014Y-62887980D01*
X91580891Y-62887752D01*
X91583511Y-62853057D01*
X91585980Y-62818545D01*
X91586144Y-62818208D01*
X91586154Y-62818081D01*
X91586304Y-62817881D01*
X91596619Y-62796789D01*
X91659814Y-62694334D01*
X91714999Y-62527797D01*
X91725500Y-62425009D01*
X91725499Y-61649992D01*
X91720391Y-61599992D01*
X91714999Y-61547203D01*
X91714998Y-61547200D01*
X91698431Y-61497204D01*
X91659814Y-61380666D01*
X91567712Y-61231344D01*
X91443656Y-61107288D01*
X91440342Y-61105243D01*
X91438546Y-61103248D01*
X91437989Y-61102807D01*
X91438064Y-61102711D01*
X91393618Y-61053297D01*
X91382397Y-60984334D01*
X91410240Y-60920252D01*
X91440348Y-60894165D01*
X91443342Y-60892318D01*
X91567315Y-60768345D01*
X91659356Y-60619124D01*
X91659358Y-60619119D01*
X91714505Y-60452697D01*
X91714506Y-60452690D01*
X91724999Y-60349986D01*
X91725000Y-60349973D01*
X91725000Y-60212500D01*
X89275001Y-60212500D01*
X89275001Y-60349986D01*
X89285494Y-60452697D01*
X89340641Y-60619119D01*
X89340643Y-60619124D01*
X89432684Y-60768345D01*
X89556655Y-60892316D01*
X89556659Y-60892319D01*
X89559656Y-60894168D01*
X89561279Y-60895972D01*
X89562323Y-60896798D01*
X89562181Y-60896976D01*
X89606381Y-60946116D01*
X89617602Y-61015079D01*
X89589759Y-61079161D01*
X89559661Y-61105241D01*
X89556349Y-61107283D01*
X89556343Y-61107288D01*
X89432289Y-61231342D01*
X89340187Y-61380663D01*
X89340185Y-61380668D01*
X89312349Y-61464670D01*
X89285001Y-61547203D01*
X89285001Y-61547204D01*
X89285000Y-61547204D01*
X89274500Y-61649983D01*
X89274500Y-62425001D01*
X89274501Y-62425019D01*
X89285000Y-62527796D01*
X89285001Y-62527799D01*
X89340185Y-62694331D01*
X89340189Y-62694340D01*
X89425076Y-62831964D01*
X89442312Y-62879670D01*
X89471591Y-63086385D01*
X89481925Y-63159347D01*
X89498230Y-63274459D01*
X89498194Y-63274463D01*
X89498837Y-63279325D01*
X89499500Y-63285711D01*
X89499500Y-63348541D01*
X89512017Y-63411467D01*
X89513141Y-63417121D01*
X89513142Y-63417124D01*
X89537947Y-63541828D01*
X89537949Y-63541835D01*
X89545579Y-63560257D01*
X89613366Y-63723911D01*
X89613371Y-63723920D01*
X89722860Y-63887781D01*
X89722863Y-63887785D01*
X89866537Y-64031459D01*
X89866559Y-64031479D01*
X90362215Y-64527136D01*
X90362219Y-64527139D01*
X90526079Y-64636627D01*
X90526083Y-64636629D01*
X90526086Y-64636631D01*
X90708164Y-64712051D01*
X90805483Y-64731409D01*
X90901448Y-64750498D01*
X90901452Y-64750498D01*
X90901460Y-64750500D01*
X90901467Y-64750500D01*
X90901505Y-64750504D01*
X90901532Y-64750515D01*
X90907434Y-64751689D01*
X90907211Y-64752807D01*
X90966294Y-64776660D01*
X91006657Y-64833691D01*
X91009779Y-64903491D01*
X90977041Y-64961589D01*
X87667047Y-68271584D01*
X87667045Y-68271586D01*
X87642944Y-68307658D01*
X87633328Y-68322051D01*
X87609038Y-68358402D01*
X87584914Y-68394507D01*
X87528343Y-68531082D01*
X87528340Y-68531092D01*
X87499500Y-68676079D01*
X87499500Y-68676082D01*
X87499500Y-79176082D01*
X87499500Y-82926082D01*
X87499500Y-87676082D01*
X87499500Y-93323918D01*
X87499500Y-93323920D01*
X87499499Y-93323920D01*
X84500500Y-93323920D01*
X84500500Y-59575013D01*
X89275000Y-59575013D01*
X89275000Y-59712500D01*
X90250000Y-59712500D01*
X90750000Y-59712500D01*
X91724999Y-59712500D01*
X91724999Y-59575028D01*
X91724998Y-59575013D01*
X91714505Y-59472302D01*
X91659358Y-59305880D01*
X91659356Y-59305875D01*
X91567315Y-59156654D01*
X91443345Y-59032684D01*
X91294124Y-58940643D01*
X91294119Y-58940641D01*
X91127697Y-58885494D01*
X91127690Y-58885493D01*
X91024986Y-58875000D01*
X90750000Y-58875000D01*
X90750000Y-59712500D01*
X90250000Y-59712500D01*
X90250000Y-58875000D01*
X89975029Y-58875000D01*
X89975012Y-58875001D01*
X89872302Y-58885494D01*
X89705880Y-58940641D01*
X89705875Y-58940643D01*
X89556654Y-59032684D01*
X89432684Y-59156654D01*
X89340643Y-59305875D01*
X89340641Y-59305880D01*
X89285494Y-59472302D01*
X89285493Y-59472309D01*
X89275000Y-59575013D01*
X84500500Y-59575013D01*
X84500500Y-56744985D01*
X86115000Y-56744985D01*
X86125493Y-56847689D01*
X86125494Y-56847696D01*
X86180641Y-57014118D01*
X86180643Y-57014123D01*
X86272684Y-57163344D01*
X86396655Y-57287315D01*
X86545876Y-57379356D01*
X86545881Y-57379358D01*
X86712303Y-57434505D01*
X86712310Y-57434506D01*
X86815014Y-57444999D01*
X86815027Y-57445000D01*
X87122500Y-57445000D01*
X87622500Y-57445000D01*
X87929973Y-57445000D01*
X87929985Y-57444999D01*
X88032689Y-57434506D01*
X88032696Y-57434505D01*
X88199118Y-57379358D01*
X88199123Y-57379356D01*
X88348344Y-57287315D01*
X88472315Y-57163344D01*
X88564356Y-57014123D01*
X88564358Y-57014118D01*
X88619505Y-56847696D01*
X88619506Y-56847689D01*
X88629999Y-56744985D01*
X88630000Y-56744972D01*
X88630000Y-56000000D01*
X87622500Y-56000000D01*
X87622500Y-57445000D01*
X87122500Y-57445000D01*
X87122500Y-56000000D01*
X86115000Y-56000000D01*
X86115000Y-56744985D01*
X84500500Y-56744985D01*
X84500500Y-54755014D01*
X86115000Y-54755014D01*
X86115000Y-55500000D01*
X87122500Y-55500000D01*
X87622500Y-55500000D01*
X88630000Y-55500000D01*
X88630000Y-54755027D01*
X88629999Y-54755014D01*
X88619506Y-54652310D01*
X88619505Y-54652303D01*
X88564358Y-54485881D01*
X88564356Y-54485876D01*
X88472315Y-54336655D01*
X88348344Y-54212684D01*
X88199123Y-54120643D01*
X88199118Y-54120641D01*
X88032696Y-54065494D01*
X88032689Y-54065493D01*
X87929985Y-54055000D01*
X87622500Y-54055000D01*
X87622500Y-55500000D01*
X87122500Y-55500000D01*
X87122500Y-54055000D01*
X86815014Y-54055000D01*
X86712310Y-54065493D01*
X86712303Y-54065494D01*
X86545881Y-54120641D01*
X86545876Y-54120643D01*
X86396655Y-54212684D01*
X86272684Y-54336655D01*
X86180643Y-54485876D01*
X86180641Y-54485881D01*
X86125494Y-54652303D01*
X86125493Y-54652310D01*
X86115000Y-54755014D01*
X84500500Y-54755014D01*
X84500500Y-47004427D01*
X84500816Y-46995581D01*
X84515130Y-46795443D01*
X84515131Y-46795434D01*
X84517646Y-46777938D01*
X84559356Y-46586199D01*
X84564333Y-46569248D01*
X84632911Y-46385385D01*
X84640259Y-46369298D01*
X84702815Y-46254734D01*
X84734291Y-46197089D01*
X84743845Y-46182221D01*
X84861448Y-46025123D01*
X84873020Y-46011769D01*
X85011769Y-45873020D01*
X85025123Y-45861448D01*
X85182221Y-45743845D01*
X85197089Y-45734291D01*
X85369298Y-45640258D01*
X85385385Y-45632911D01*
X85569248Y-45564333D01*
X85586199Y-45559356D01*
X85777938Y-45517646D01*
X85795436Y-45515130D01*
X85995582Y-45500816D01*
X86004428Y-45500500D01*
X86065892Y-45500500D01*
X113934108Y-45500500D01*
X113995572Y-45500500D01*
X114004418Y-45500816D01*
G37*
%TD.AperFunction*%
%TD*%
%TA.AperFunction,Conductor*%
%TO.N,GND*%
G36*
X99969236Y-81641473D02*
G01*
X99675000Y-81701000D01*
X99380764Y-81641473D01*
X99575000Y-81105764D01*
X99775000Y-81105764D01*
X99969236Y-81641473D01*
G37*
%TD.AperFunction*%
%TD*%
%TA.AperFunction,Conductor*%
%TO.N,GND*%
G36*
X106494236Y-80191473D02*
G01*
X106200000Y-80251000D01*
X105905764Y-80191473D01*
X105950000Y-79655764D01*
X106450000Y-79655764D01*
X106494236Y-80191473D01*
G37*
%TD.AperFunction*%
%TD*%
%TA.AperFunction,Conductor*%
%TO.N,+5V*%
G36*
X90508059Y-128044157D02*
G01*
X91083129Y-128590572D01*
X91086766Y-128598755D01*
X91086654Y-128600695D01*
X91001425Y-129202441D01*
X90996872Y-129210152D01*
X90989841Y-129212500D01*
X90010159Y-129212500D01*
X90001886Y-129209073D01*
X89998575Y-129202441D01*
X89913345Y-128600693D01*
X89915577Y-128592023D01*
X89916865Y-128590576D01*
X90491941Y-128044156D01*
X90500299Y-128040943D01*
X90508059Y-128044157D01*
G37*
%TD.AperFunction*%
%TD*%
%TA.AperFunction,Conductor*%
%TO.N,+5V*%
G36*
X109508059Y-128044157D02*
G01*
X110083129Y-128590572D01*
X110086766Y-128598755D01*
X110086654Y-128600695D01*
X110001425Y-129202441D01*
X109996872Y-129210152D01*
X109989841Y-129212500D01*
X109010159Y-129212500D01*
X109001886Y-129209073D01*
X108998575Y-129202441D01*
X108913345Y-128600693D01*
X108915577Y-128592023D01*
X108916865Y-128590576D01*
X109491941Y-128044156D01*
X109500299Y-128040943D01*
X109508059Y-128044157D01*
G37*
%TD.AperFunction*%
%TD*%
%TA.AperFunction,Conductor*%
%TO.N,+5V*%
G36*
X109508059Y-216044157D02*
G01*
X110083129Y-216590572D01*
X110086766Y-216598755D01*
X110086654Y-216600695D01*
X110001425Y-217202441D01*
X109996872Y-217210152D01*
X109989841Y-217212500D01*
X109010159Y-217212500D01*
X109001886Y-217209073D01*
X108998575Y-217202441D01*
X108913345Y-216600693D01*
X108915577Y-216592023D01*
X108916865Y-216590576D01*
X109491941Y-216044156D01*
X109500299Y-216040943D01*
X109508059Y-216044157D01*
G37*
%TD.AperFunction*%
%TD*%
%TA.AperFunction,Conductor*%
%TO.N,+5V*%
G36*
X90508059Y-150044157D02*
G01*
X91083129Y-150590572D01*
X91086766Y-150598755D01*
X91086654Y-150600695D01*
X91001425Y-151202441D01*
X90996872Y-151210152D01*
X90989841Y-151212500D01*
X90010159Y-151212500D01*
X90001886Y-151209073D01*
X89998575Y-151202441D01*
X89913345Y-150600693D01*
X89915577Y-150592023D01*
X89916865Y-150590576D01*
X90491941Y-150044156D01*
X90500299Y-150040943D01*
X90508059Y-150044157D01*
G37*
%TD.AperFunction*%
%TD*%
%TA.AperFunction,Conductor*%
%TO.N,+5V*%
G36*
X109508059Y-194044157D02*
G01*
X110083129Y-194590572D01*
X110086766Y-194598755D01*
X110086654Y-194600695D01*
X110001425Y-195202441D01*
X109996872Y-195210152D01*
X109989841Y-195212500D01*
X109010159Y-195212500D01*
X109001886Y-195209073D01*
X108998575Y-195202441D01*
X108913345Y-194600693D01*
X108915577Y-194592023D01*
X108916865Y-194590576D01*
X109491941Y-194044156D01*
X109500299Y-194040943D01*
X109508059Y-194044157D01*
G37*
%TD.AperFunction*%
%TD*%
%TA.AperFunction,Conductor*%
%TO.N,+5V*%
G36*
X109508059Y-62044157D02*
G01*
X110083129Y-62590572D01*
X110086766Y-62598755D01*
X110086654Y-62600695D01*
X110001425Y-63202441D01*
X109996872Y-63210152D01*
X109989841Y-63212500D01*
X109010159Y-63212500D01*
X109001886Y-63209073D01*
X108998575Y-63202441D01*
X108913345Y-62600693D01*
X108915577Y-62592023D01*
X108916865Y-62590576D01*
X109491941Y-62044156D01*
X109500299Y-62040943D01*
X109508059Y-62044157D01*
G37*
%TD.AperFunction*%
%TD*%
%TA.AperFunction,Conductor*%
%TO.N,+5V*%
G36*
X90508059Y-84044157D02*
G01*
X91083129Y-84590572D01*
X91086766Y-84598755D01*
X91086654Y-84600695D01*
X91001425Y-85202441D01*
X90996872Y-85210152D01*
X90989841Y-85212500D01*
X90010159Y-85212500D01*
X90001886Y-85209073D01*
X89998575Y-85202441D01*
X89913345Y-84600693D01*
X89915577Y-84592023D01*
X89916865Y-84590576D01*
X90491941Y-84044156D01*
X90500299Y-84040943D01*
X90508059Y-84044157D01*
G37*
%TD.AperFunction*%
%TD*%
%TA.AperFunction,Conductor*%
%TO.N,+5V*%
G36*
X111312603Y-64763915D02*
G01*
X111693366Y-64946813D01*
X111699340Y-64953484D01*
X111700000Y-64957359D01*
X111700000Y-65142640D01*
X111696573Y-65150913D01*
X111693366Y-65153186D01*
X111312601Y-65336084D01*
X111303660Y-65336578D01*
X111302257Y-65335980D01*
X110757157Y-65060442D01*
X110751319Y-65053651D01*
X110751993Y-65044722D01*
X110757157Y-65039558D01*
X111302257Y-64764019D01*
X111311186Y-64763345D01*
X111312603Y-64763915D01*
G37*
%TD.AperFunction*%
%TD*%
%TA.AperFunction,Conductor*%
%TO.N,+5V*%
G36*
X112838913Y-64758866D02*
G01*
X112998272Y-64995942D01*
X113000043Y-65004720D01*
X113000030Y-65004789D01*
X112943945Y-65282016D01*
X112938945Y-65289445D01*
X112930157Y-65291164D01*
X112929435Y-65290994D01*
X112414422Y-65152331D01*
X112407324Y-65146871D01*
X112405764Y-65141033D01*
X112405764Y-64957452D01*
X112409191Y-64949179D01*
X112412515Y-64946850D01*
X112824258Y-64754789D01*
X112833203Y-64754398D01*
X112838913Y-64758866D01*
G37*
%TD.AperFunction*%
%TD*%
%TA.AperFunction,Conductor*%
%TO.N,+5V*%
G36*
X88967307Y-113098125D02*
G01*
X89456641Y-113742067D01*
X89458918Y-113750728D01*
X89455085Y-113757903D01*
X88888086Y-114260345D01*
X88879621Y-114263267D01*
X88876447Y-114262626D01*
X88869956Y-114260345D01*
X88013726Y-113959456D01*
X88007058Y-113953481D01*
X88006568Y-113944540D01*
X88009331Y-113940148D01*
X88702301Y-113247178D01*
X88704492Y-113245458D01*
X88951919Y-113095203D01*
X88960768Y-113093838D01*
X88967307Y-113098125D01*
G37*
%TD.AperFunction*%
%TD*%
%TA.AperFunction,Conductor*%
%TO.N,+5V*%
G36*
X106606596Y-83279864D02*
G01*
X106943376Y-83616644D01*
X106946759Y-83623908D01*
X106973334Y-83931052D01*
X106970634Y-83939590D01*
X106963982Y-83943532D01*
X106681602Y-84000243D01*
X106676984Y-84000241D01*
X106398421Y-83944027D01*
X106390989Y-83939031D01*
X106389266Y-83930244D01*
X106389549Y-83929128D01*
X106587137Y-83284706D01*
X106592839Y-83277802D01*
X106601753Y-83276951D01*
X106606596Y-83279864D01*
G37*
%TD.AperFunction*%
%TD*%
%TA.AperFunction,Conductor*%
%TO.N,+5V*%
G36*
X90508059Y-62044157D02*
G01*
X91083129Y-62590572D01*
X91086766Y-62598755D01*
X91086654Y-62600695D01*
X91001425Y-63202441D01*
X90996872Y-63210152D01*
X90989841Y-63212500D01*
X90010159Y-63212500D01*
X90001886Y-63209073D01*
X89998575Y-63202441D01*
X89913345Y-62600693D01*
X89915577Y-62592023D01*
X89916865Y-62590576D01*
X90491941Y-62044156D01*
X90500299Y-62040943D01*
X90508059Y-62044157D01*
G37*
%TD.AperFunction*%
%TD*%
%TA.AperFunction,Conductor*%
%TO.N,+5V*%
G36*
X109508059Y-150044157D02*
G01*
X110083129Y-150590572D01*
X110086766Y-150598755D01*
X110086654Y-150600695D01*
X110001425Y-151202441D01*
X109996872Y-151210152D01*
X109989841Y-151212500D01*
X109010159Y-151212500D01*
X109001886Y-151209073D01*
X108998575Y-151202441D01*
X108913345Y-150600693D01*
X108915577Y-150592023D01*
X108916865Y-150590576D01*
X109491941Y-150044156D01*
X109500299Y-150040943D01*
X109508059Y-150044157D01*
G37*
%TD.AperFunction*%
%TD*%
%TA.AperFunction,Conductor*%
%TO.N,+5V*%
G36*
X104007872Y-61756159D02*
G01*
X104592254Y-62287623D01*
X104596069Y-62295725D01*
X104593855Y-62303145D01*
X104128504Y-62945166D01*
X104120874Y-62949854D01*
X104119031Y-62950000D01*
X103880969Y-62950000D01*
X103872696Y-62946573D01*
X103871496Y-62945166D01*
X103406144Y-62303145D01*
X103404063Y-62294436D01*
X103407743Y-62287625D01*
X103992128Y-61756158D01*
X104000554Y-61753128D01*
X104007872Y-61756159D01*
G37*
%TD.AperFunction*%
%TD*%
%TA.AperFunction,Conductor*%
%TO.N,+5V*%
G36*
X104124699Y-64659191D02*
G01*
X104127583Y-64663940D01*
X104290315Y-65179062D01*
X104289539Y-65187983D01*
X104282682Y-65193743D01*
X104281478Y-65194054D01*
X104002320Y-65250530D01*
X103997680Y-65250530D01*
X103764553Y-65203366D01*
X103718520Y-65194053D01*
X103711092Y-65189054D01*
X103709373Y-65180266D01*
X103709680Y-65179075D01*
X103872417Y-64663939D01*
X103878177Y-64657083D01*
X103883574Y-64655764D01*
X104116426Y-64655764D01*
X104124699Y-64659191D01*
G37*
%TD.AperFunction*%
%TD*%
%TA.AperFunction,Conductor*%
%TO.N,+5V*%
G36*
X111891997Y-55795174D02*
G01*
X112149637Y-55904804D01*
X112938370Y-56240424D01*
X112944640Y-56246816D01*
X112944554Y-56255770D01*
X112942061Y-56259462D01*
X112247275Y-56954249D01*
X112247209Y-56954315D01*
X111893557Y-57302357D01*
X111885256Y-57305718D01*
X111877011Y-57302225D01*
X111876801Y-57302006D01*
X111134788Y-56507850D01*
X111131644Y-56499465D01*
X111135348Y-56491314D01*
X111879437Y-55797382D01*
X111887824Y-55794247D01*
X111891997Y-55795174D01*
G37*
%TD.AperFunction*%
%TD*%
%TA.AperFunction,Conductor*%
%TO.N,+5V*%
G36*
X90508059Y-172044157D02*
G01*
X91083129Y-172590572D01*
X91086766Y-172598755D01*
X91086654Y-172600695D01*
X91001425Y-173202441D01*
X90996872Y-173210152D01*
X90989841Y-173212500D01*
X90010159Y-173212500D01*
X90001886Y-173209073D01*
X89998575Y-173202441D01*
X89913345Y-172600693D01*
X89915577Y-172592023D01*
X89916865Y-172590576D01*
X90491941Y-172044156D01*
X90500299Y-172040943D01*
X90508059Y-172044157D01*
G37*
%TD.AperFunction*%
%TD*%
%TA.AperFunction,Conductor*%
%TO.N,+5V*%
G36*
X90508059Y-194044157D02*
G01*
X91083129Y-194590572D01*
X91086766Y-194598755D01*
X91086654Y-194600695D01*
X91001425Y-195202441D01*
X90996872Y-195210152D01*
X90989841Y-195212500D01*
X90010159Y-195212500D01*
X90001886Y-195209073D01*
X89998575Y-195202441D01*
X89913345Y-194600693D01*
X89915577Y-194592023D01*
X89916865Y-194590576D01*
X90491941Y-194044156D01*
X90500299Y-194040943D01*
X90508059Y-194044157D01*
G37*
%TD.AperFunction*%
%TD*%
%TA.AperFunction,Conductor*%
%TO.N,+5V*%
G36*
X107384701Y-82010651D02*
G01*
X107957045Y-82246751D01*
X107963386Y-82253074D01*
X107964162Y-82255889D01*
X108067114Y-82966474D01*
X108064909Y-82975153D01*
X108060576Y-82978710D01*
X107162482Y-83407472D01*
X107153539Y-83407944D01*
X107149168Y-83405187D01*
X106807655Y-83063674D01*
X106804228Y-83055401D01*
X106805656Y-83049801D01*
X107369972Y-82015862D01*
X107376943Y-82010243D01*
X107384701Y-82010651D01*
G37*
%TD.AperFunction*%
%TD*%
%TA.AperFunction,Conductor*%
%TO.N,+5V*%
G36*
X111708840Y-112973402D02*
G01*
X111712267Y-112981675D01*
X111709682Y-112989009D01*
X111678597Y-113027637D01*
X110880759Y-114019064D01*
X110872903Y-114023361D01*
X110866681Y-114022324D01*
X110293771Y-113753937D01*
X110287733Y-113747324D01*
X110287058Y-113744088D01*
X110241801Y-113036112D01*
X110244693Y-113027637D01*
X110252152Y-113023742D01*
X110724340Y-112970049D01*
X110725662Y-112969975D01*
X111700567Y-112969975D01*
X111708840Y-112973402D01*
G37*
%TD.AperFunction*%
%TD*%
%TA.AperFunction,Conductor*%
%TO.N,+5V*%
G36*
X109508059Y-172044157D02*
G01*
X110083129Y-172590572D01*
X110086766Y-172598755D01*
X110086654Y-172600695D01*
X110001425Y-173202441D01*
X109996872Y-173210152D01*
X109989841Y-173212500D01*
X109010159Y-173212500D01*
X109001886Y-173209073D01*
X108998575Y-173202441D01*
X108913345Y-172600693D01*
X108915577Y-172592023D01*
X108916865Y-172590576D01*
X109491941Y-172044156D01*
X109500299Y-172040943D01*
X109508059Y-172044157D01*
G37*
%TD.AperFunction*%
%TD*%
%TA.AperFunction,Conductor*%
%TO.N,+5V*%
G36*
X90508059Y-216044157D02*
G01*
X91083129Y-216590572D01*
X91086766Y-216598755D01*
X91086654Y-216600695D01*
X91001425Y-217202441D01*
X90996872Y-217210152D01*
X90989841Y-217212500D01*
X90010159Y-217212500D01*
X90001886Y-217209073D01*
X89998575Y-217202441D01*
X89913345Y-216600693D01*
X89915577Y-216592023D01*
X89916865Y-216590576D01*
X90491941Y-216044156D01*
X90500299Y-216040943D01*
X90508059Y-216044157D01*
G37*
%TD.AperFunction*%
%TD*%
%TA.AperFunction,Conductor*%
%TO.N,VDD*%
G36*
X95201994Y-103021681D02*
G01*
X95204563Y-103023257D01*
X95782852Y-103490324D01*
X95787135Y-103498188D01*
X95784603Y-103506777D01*
X95781645Y-103509383D01*
X95120314Y-103917450D01*
X95111474Y-103918878D01*
X95108397Y-103917669D01*
X94441633Y-103539401D01*
X94436128Y-103532338D01*
X94437230Y-103523452D01*
X94439129Y-103520956D01*
X94780052Y-103180033D01*
X94784152Y-103177377D01*
X95193044Y-103021427D01*
X95201994Y-103021681D01*
G37*
%TD.AperFunction*%
%TD*%
%TA.AperFunction,Conductor*%
%TO.N,VDD*%
G36*
X104306822Y-106021201D02*
G01*
X104947195Y-106247244D01*
X104953855Y-106253229D01*
X104955000Y-106258277D01*
X104955000Y-106741722D01*
X104951573Y-106749995D01*
X104947194Y-106752755D01*
X104306825Y-106978797D01*
X104297883Y-106978319D01*
X104295588Y-106976873D01*
X103715300Y-106509109D01*
X103711010Y-106501249D01*
X103713534Y-106492657D01*
X103715300Y-106490891D01*
X104295590Y-106023125D01*
X104304180Y-106020602D01*
X104306822Y-106021201D01*
G37*
%TD.AperFunction*%
%TD*%
%TA.AperFunction,Conductor*%
%TO.N,VDD*%
G36*
X107410930Y-86505981D02*
G01*
X107906688Y-86710505D01*
X107994996Y-86746937D01*
X108001337Y-86753260D01*
X108001982Y-86755338D01*
X108146383Y-87439834D01*
X108144738Y-87448636D01*
X108138686Y-87453331D01*
X107086500Y-87809474D01*
X107077565Y-87808881D01*
X107074476Y-87806665D01*
X106943625Y-87675814D01*
X106940198Y-87667541D01*
X106941015Y-87663244D01*
X107395636Y-86512516D01*
X107401862Y-86506083D01*
X107410816Y-86505935D01*
X107410930Y-86505981D01*
G37*
%TD.AperFunction*%
%TD*%
%TA.AperFunction,Conductor*%
%TO.N,VDD*%
G36*
X92811125Y-82027870D02*
G01*
X93494888Y-82210864D01*
X93501994Y-82216313D01*
X93502977Y-82218508D01*
X93690455Y-82788133D01*
X93689786Y-82797063D01*
X93682999Y-82802905D01*
X93682263Y-82803120D01*
X92448861Y-83121228D01*
X92439994Y-83119976D01*
X92434610Y-83112821D01*
X92434239Y-83109899D01*
X92434239Y-82877242D01*
X92435067Y-82872918D01*
X92462912Y-82802905D01*
X92771155Y-82027868D01*
X92777396Y-82021449D01*
X92785051Y-82020892D01*
X92811125Y-82027870D01*
G37*
%TD.AperFunction*%
%TD*%
%TA.AperFunction,Conductor*%
%TO.N,VDD*%
G36*
X94830175Y-56371541D02*
G01*
X94836342Y-56378033D01*
X94836895Y-56379936D01*
X95000540Y-57197704D01*
X95000540Y-57202296D01*
X94836895Y-58020063D01*
X94831911Y-58027503D01*
X94823126Y-58029240D01*
X94821223Y-58028687D01*
X93323834Y-57452884D01*
X93317342Y-57446717D01*
X93316333Y-57441964D01*
X93316333Y-56958035D01*
X93319760Y-56949762D01*
X93323831Y-56947116D01*
X94821224Y-56371312D01*
X94830175Y-56371541D01*
G37*
%TD.AperFunction*%
%TD*%
%TA.AperFunction,Conductor*%
%TO.N,VDD*%
G36*
X99245634Y-86491261D02*
G01*
X99249484Y-86499346D01*
X99249500Y-86499951D01*
X99249500Y-87383892D01*
X99254095Y-87406992D01*
X99254320Y-87409219D01*
X99254786Y-87508509D01*
X99251398Y-87516798D01*
X99122723Y-87645473D01*
X99114450Y-87648900D01*
X99106177Y-87645473D01*
X99105242Y-87644418D01*
X99005196Y-87516798D01*
X98936127Y-87428692D01*
X98933692Y-87420330D01*
X98935004Y-87406992D01*
X99023307Y-86509309D01*
X99027527Y-86501413D01*
X99034344Y-86498772D01*
X99237197Y-86488267D01*
X99245634Y-86491261D01*
G37*
%TD.AperFunction*%
%TD*%
%TA.AperFunction,Conductor*%
%TO.N,VDD*%
G36*
X97961461Y-56606740D02*
G01*
X98493840Y-57192128D01*
X98496871Y-57200554D01*
X98493840Y-57207872D01*
X97961461Y-57793259D01*
X97953359Y-57797074D01*
X97947293Y-57795707D01*
X97306188Y-57453304D01*
X97300505Y-57446384D01*
X97300000Y-57442984D01*
X97300000Y-56957015D01*
X97303427Y-56948742D01*
X97306188Y-56946695D01*
X97947295Y-56604291D01*
X97956205Y-56603417D01*
X97961461Y-56606740D01*
G37*
%TD.AperFunction*%
%TD*%
%TA.AperFunction,Conductor*%
%TO.N,VDD*%
G36*
X95178771Y-56371310D02*
G01*
X96676167Y-56947115D01*
X96682658Y-56953282D01*
X96683667Y-56958035D01*
X96683667Y-57441964D01*
X96680240Y-57450237D01*
X96676166Y-57452884D01*
X95178776Y-58028687D01*
X95169824Y-58028458D01*
X95163657Y-58021966D01*
X95163106Y-58020070D01*
X94999459Y-57202293D01*
X94999459Y-57197704D01*
X95048371Y-56953282D01*
X95163105Y-56379934D01*
X95168088Y-56372496D01*
X95176873Y-56370759D01*
X95178771Y-56371310D01*
G37*
%TD.AperFunction*%
%TD*%
%TA.AperFunction,Conductor*%
%TO.N,VDD*%
G36*
X91392773Y-55047699D02*
G01*
X92266216Y-55665972D01*
X92270988Y-55673548D01*
X92269006Y-55682281D01*
X92267729Y-55683794D01*
X91924030Y-56027494D01*
X91923986Y-56027538D01*
X91393557Y-56552312D01*
X91385265Y-56555695D01*
X91377011Y-56552224D01*
X91376799Y-56552004D01*
X90634787Y-55757849D01*
X90631644Y-55749465D01*
X90635348Y-55741314D01*
X91378033Y-55048691D01*
X91386421Y-55045556D01*
X91392773Y-55047699D01*
G37*
%TD.AperFunction*%
%TD*%
%TA.AperFunction,Conductor*%
%TO.N,VDD*%
G36*
X96397068Y-103021658D02*
G01*
X97192348Y-103348369D01*
X97198698Y-103354682D01*
X97198724Y-103363637D01*
X97196175Y-103367464D01*
X96856104Y-103707535D01*
X96853750Y-103709354D01*
X96397648Y-103976877D01*
X96388778Y-103978107D01*
X96384378Y-103975887D01*
X95805579Y-103508408D01*
X95801296Y-103500544D01*
X95803828Y-103491955D01*
X95805587Y-103490197D01*
X96385286Y-103023366D01*
X96393877Y-103020847D01*
X96397068Y-103021658D01*
G37*
%TD.AperFunction*%
%TD*%
%TA.AperFunction,Conductor*%
%TO.N,VDD*%
G36*
X89462375Y-87157745D02*
G01*
X89993840Y-87742128D01*
X89996871Y-87750554D01*
X89993840Y-87757872D01*
X89462375Y-88342254D01*
X89454273Y-88346069D01*
X89446853Y-88343855D01*
X88804834Y-87878503D01*
X88800146Y-87870873D01*
X88800000Y-87869030D01*
X88800000Y-87630969D01*
X88803427Y-87622696D01*
X88804834Y-87621496D01*
X89446855Y-87156143D01*
X89455562Y-87154063D01*
X89462375Y-87157745D01*
G37*
%TD.AperFunction*%
%TD*%
%TA.AperFunction,Conductor*%
%TO.N,VDD*%
G36*
X99125704Y-85353427D02*
G01*
X99128103Y-85356903D01*
X99243203Y-85612978D01*
X99243885Y-85620598D01*
X99036354Y-86455331D01*
X99031033Y-86462533D01*
X99022177Y-86463862D01*
X99014975Y-86458541D01*
X99013646Y-86455331D01*
X98971990Y-86287786D01*
X98806114Y-85620595D01*
X98806795Y-85612980D01*
X98921897Y-85356902D01*
X98928415Y-85350762D01*
X98932569Y-85350000D01*
X99117431Y-85350000D01*
X99125704Y-85353427D01*
G37*
%TD.AperFunction*%
%TD*%
%TA.AperFunction,Conductor*%
%TO.N,VDD*%
G36*
X94078552Y-81649007D02*
G01*
X94807047Y-82109056D01*
X94812213Y-82116371D01*
X94812500Y-82118949D01*
X94812500Y-82306050D01*
X94809073Y-82314323D01*
X94807047Y-82315943D01*
X94078555Y-82775991D01*
X94069730Y-82777511D01*
X94064058Y-82774394D01*
X93601396Y-82314323D01*
X93507341Y-82220794D01*
X93503892Y-82212533D01*
X93507296Y-82204250D01*
X94064059Y-81650604D01*
X94072341Y-81647201D01*
X94078552Y-81649007D01*
G37*
%TD.AperFunction*%
%TD*%
%TA.AperFunction,Conductor*%
%TO.N,Net-(D1-DIN)*%
G36*
X104127304Y-58553427D02*
G01*
X104128504Y-58554834D01*
X104593855Y-59196853D01*
X104595936Y-59205562D01*
X104592254Y-59212375D01*
X104007872Y-59743840D01*
X103999446Y-59746871D01*
X103992128Y-59743840D01*
X103407745Y-59212375D01*
X103403930Y-59204273D01*
X103406143Y-59196855D01*
X103871496Y-58554833D01*
X103879126Y-58550146D01*
X103880969Y-58550000D01*
X104119031Y-58550000D01*
X104127304Y-58553427D01*
G37*
%TD.AperFunction*%
%TD*%
%TA.AperFunction,Conductor*%
%TO.N,Net-(D1-DIN)*%
G36*
X104281479Y-55555946D02*
G01*
X104288907Y-55560945D01*
X104290626Y-55569733D01*
X104290315Y-55570937D01*
X104127583Y-56086060D01*
X104121823Y-56092917D01*
X104116426Y-56094236D01*
X103883574Y-56094236D01*
X103875301Y-56090809D01*
X103872417Y-56086060D01*
X103709684Y-55570937D01*
X103710460Y-55562016D01*
X103717317Y-55556256D01*
X103718500Y-55555950D01*
X103997682Y-55499469D01*
X104002318Y-55499469D01*
X104281479Y-55555946D01*
G37*
%TD.AperFunction*%
%TD*%
%TA.AperFunction,Conductor*%
%TO.N,Net-(D1-DIN)*%
G36*
X98803761Y-61423920D02*
G01*
X99544353Y-61871586D01*
X99549660Y-61878798D01*
X99550000Y-61881598D01*
X99550000Y-62118401D01*
X99546573Y-62126674D01*
X99544352Y-62128414D01*
X98803763Y-62576078D01*
X98794911Y-62577425D01*
X98789191Y-62574083D01*
X98256543Y-62008016D01*
X98253370Y-61999644D01*
X98256543Y-61991983D01*
X98789192Y-61425914D01*
X98797355Y-61422239D01*
X98803761Y-61423920D01*
G37*
%TD.AperFunction*%
%TD*%
%TA.AperFunction,Conductor*%
%TO.N,Net-(D1-DIN)*%
G36*
X99960807Y-61425915D02*
G01*
X100277623Y-61762608D01*
X100493455Y-61991982D01*
X100496629Y-62000356D01*
X100493455Y-62008018D01*
X99960809Y-62574083D01*
X99952644Y-62577760D01*
X99946236Y-62576078D01*
X99205648Y-62128414D01*
X99200340Y-62121201D01*
X99200000Y-62118401D01*
X99200000Y-61881598D01*
X99203427Y-61873325D01*
X99205642Y-61871589D01*
X99946238Y-61423920D01*
X99955088Y-61422574D01*
X99960807Y-61425915D01*
G37*
%TD.AperFunction*%
%TD*%
%TA.AperFunction,Conductor*%
%TO.N,Net-(D1-DIN)*%
G36*
X100545749Y-59707295D02*
G01*
X101028351Y-60192614D01*
X101099558Y-60264223D01*
X101102962Y-60272506D01*
X101101304Y-60278476D01*
X100665906Y-61006803D01*
X100658720Y-61012146D01*
X100655864Y-61012500D01*
X100419136Y-61012500D01*
X100410863Y-61009073D01*
X100409094Y-61006803D01*
X99973694Y-60278474D01*
X99972391Y-60269617D01*
X99975439Y-60264225D01*
X100529205Y-59707341D01*
X100537467Y-59703892D01*
X100545749Y-59707295D01*
G37*
%TD.AperFunction*%
%TD*%
%TA.AperFunction,Conductor*%
%TO.N,Net-(D1-DIN)*%
G36*
X100664590Y-60803427D02*
G01*
X100665984Y-60805110D01*
X101111105Y-61458062D01*
X101112934Y-61466828D01*
X101109098Y-61473496D01*
X100508047Y-61994030D01*
X100499549Y-61996856D01*
X100492303Y-61993644D01*
X99924700Y-61451165D01*
X99921087Y-61442972D01*
X99923510Y-61435574D01*
X100408987Y-60804565D01*
X100416748Y-60800098D01*
X100418260Y-60800000D01*
X100656317Y-60800000D01*
X100664590Y-60803427D01*
G37*
%TD.AperFunction*%
%TD*%
%TA.AperFunction,Conductor*%
%TO.N,Net-(D1-DIN)*%
G36*
X103460807Y-59175915D02*
G01*
X103777623Y-59512608D01*
X103993455Y-59741982D01*
X103996629Y-59750356D01*
X103993455Y-59758018D01*
X103460809Y-60324083D01*
X103452644Y-60327760D01*
X103446236Y-60326078D01*
X102705648Y-59878414D01*
X102700340Y-59871201D01*
X102700000Y-59868401D01*
X102700000Y-59631598D01*
X102703427Y-59623325D01*
X102705642Y-59621589D01*
X103446238Y-59173920D01*
X103455088Y-59172574D01*
X103460807Y-59175915D01*
G37*
%TD.AperFunction*%
%TD*%
%TA.AperFunction,Conductor*%
%TO.N,Net-(D1-DIN)*%
G36*
X101115477Y-59142808D02*
G01*
X101708151Y-59621487D01*
X101712434Y-59629351D01*
X101712500Y-59630589D01*
X101712500Y-59868850D01*
X101709073Y-59877123D01*
X101707434Y-59878487D01*
X101087477Y-60305230D01*
X101078719Y-60307099D01*
X101072094Y-60303360D01*
X100543863Y-59708295D01*
X100540935Y-59699834D01*
X100544392Y-59692205D01*
X101099906Y-59143584D01*
X101108199Y-59140210D01*
X101115477Y-59142808D01*
G37*
%TD.AperFunction*%
%TD*%
%TA.AperFunction,Conductor*%
%TO.N,Net-(J1-Pin_5)*%
G36*
X103675704Y-85353427D02*
G01*
X103678103Y-85356903D01*
X103793203Y-85612978D01*
X103793885Y-85620598D01*
X103586354Y-86455331D01*
X103581033Y-86462533D01*
X103572177Y-86463862D01*
X103564975Y-86458541D01*
X103563646Y-86455331D01*
X103521990Y-86287786D01*
X103356114Y-85620595D01*
X103356795Y-85612980D01*
X103471897Y-85356902D01*
X103478415Y-85350762D01*
X103482569Y-85350000D01*
X103667431Y-85350000D01*
X103675704Y-85353427D01*
G37*
%TD.AperFunction*%
%TD*%
%TA.AperFunction,Conductor*%
%TO.N,Net-(J1-Pin_5)*%
G36*
X103866118Y-84767937D02*
G01*
X103873546Y-84772936D01*
X103875265Y-84781724D01*
X103874727Y-84783579D01*
X103677875Y-85298860D01*
X103671721Y-85305366D01*
X103666945Y-85306385D01*
X103483355Y-85306385D01*
X103475082Y-85302958D01*
X103472288Y-85298482D01*
X103295515Y-84783295D01*
X103296072Y-84774358D01*
X103302785Y-84768431D01*
X103304256Y-84768031D01*
X103583103Y-84711618D01*
X103587739Y-84711618D01*
X103866118Y-84767937D01*
G37*
%TD.AperFunction*%
%TD*%
%TA.AperFunction,Conductor*%
%TO.N,Net-(J1-Pin_4)*%
G36*
X104325704Y-85353427D02*
G01*
X104328103Y-85356903D01*
X104443203Y-85612978D01*
X104443885Y-85620598D01*
X104236354Y-86455331D01*
X104231033Y-86462533D01*
X104222177Y-86463862D01*
X104214975Y-86458541D01*
X104213646Y-86455331D01*
X104171990Y-86287786D01*
X104006114Y-85620595D01*
X104006795Y-85612980D01*
X104121897Y-85356902D01*
X104128415Y-85350762D01*
X104132569Y-85350000D01*
X104317431Y-85350000D01*
X104325704Y-85353427D01*
G37*
%TD.AperFunction*%
%TD*%
%TA.AperFunction,Conductor*%
%TO.N,Net-(J1-Pin_4)*%
G36*
X104481479Y-84055946D02*
G01*
X104488907Y-84060945D01*
X104490626Y-84069733D01*
X104490315Y-84070937D01*
X104327583Y-84586060D01*
X104321823Y-84592917D01*
X104316426Y-84594236D01*
X104132853Y-84594236D01*
X104124580Y-84590809D01*
X104122025Y-84586967D01*
X103911122Y-84071620D01*
X103911160Y-84062666D01*
X103917519Y-84056361D01*
X103919622Y-84055723D01*
X104197682Y-83999469D01*
X104202318Y-83999469D01*
X104481479Y-84055946D01*
G37*
%TD.AperFunction*%
%TD*%
%TA.AperFunction,Conductor*%
%TO.N,Net-(J1-Pin_1)*%
G36*
X100626674Y-55903427D02*
G01*
X100628414Y-55905648D01*
X101076078Y-56646236D01*
X101077425Y-56655088D01*
X101074083Y-56660809D01*
X100508018Y-57193455D01*
X100499644Y-57196629D01*
X100491982Y-57193455D01*
X100262608Y-56977623D01*
X99925915Y-56660808D01*
X99922239Y-56652644D01*
X99923920Y-56646238D01*
X100371586Y-55905648D01*
X100378799Y-55900340D01*
X100381599Y-55900000D01*
X100618401Y-55900000D01*
X100626674Y-55903427D01*
G37*
%TD.AperFunction*%
%TD*%
%TA.AperFunction,Conductor*%
%TO.N,Net-(J1-Pin_1)*%
G36*
X95858217Y-53817008D02*
G01*
X96695893Y-54531497D01*
X96699963Y-54539472D01*
X96700000Y-54540398D01*
X96700000Y-54779601D01*
X96696573Y-54787874D01*
X96695893Y-54788503D01*
X95858218Y-55502990D01*
X95849699Y-55505751D01*
X95842357Y-55502366D01*
X95127024Y-54787874D01*
X95007286Y-54668276D01*
X95003855Y-54660007D01*
X95007276Y-54651733D01*
X95842358Y-53817632D01*
X95850632Y-53814211D01*
X95858217Y-53817008D01*
G37*
%TD.AperFunction*%
%TD*%
%TA.AperFunction,Conductor*%
%TO.N,Net-(J1-Pin_1)*%
G36*
X106324699Y-63709191D02*
G01*
X106327583Y-63713940D01*
X106490315Y-64229062D01*
X106489539Y-64237983D01*
X106482682Y-64243743D01*
X106481478Y-64244054D01*
X106202320Y-64300530D01*
X106197680Y-64300530D01*
X105964553Y-64253366D01*
X105918520Y-64244053D01*
X105911092Y-64239054D01*
X105909373Y-64230266D01*
X105909680Y-64229075D01*
X106072417Y-63713939D01*
X106078177Y-63707083D01*
X106083574Y-63705764D01*
X106316426Y-63705764D01*
X106324699Y-63709191D01*
G37*
%TD.AperFunction*%
%TD*%
%TA.AperFunction,Conductor*%
%TO.N,Net-(J1-Pin_1)*%
G36*
X104325704Y-78353427D02*
G01*
X104328103Y-78356903D01*
X104443203Y-78612978D01*
X104443885Y-78620598D01*
X104236354Y-79455331D01*
X104231033Y-79462533D01*
X104222177Y-79463862D01*
X104214975Y-79458541D01*
X104213646Y-79455331D01*
X104171990Y-79287786D01*
X104006114Y-78620595D01*
X104006795Y-78612980D01*
X104121897Y-78356902D01*
X104128415Y-78350762D01*
X104132569Y-78350000D01*
X104317431Y-78350000D01*
X104325704Y-78353427D01*
G37*
%TD.AperFunction*%
%TD*%
%TA.AperFunction,Conductor*%
%TO.N,Net-(J1-Pin_1)*%
G36*
X106137655Y-77207792D02*
G01*
X106143696Y-77214402D01*
X106144165Y-77216070D01*
X106200530Y-77494680D01*
X106200530Y-77499320D01*
X106144165Y-77777929D01*
X106139165Y-77785358D01*
X106130377Y-77787077D01*
X106128709Y-77786608D01*
X105613476Y-77599796D01*
X105606866Y-77593755D01*
X105605764Y-77588797D01*
X105605764Y-77405202D01*
X105609191Y-77396929D01*
X105613473Y-77394204D01*
X106128711Y-77207391D01*
X106137655Y-77207792D01*
G37*
%TD.AperFunction*%
%TD*%
%TA.AperFunction,Conductor*%
%TO.N,Net-(J2-Pin_4)*%
G36*
X104307631Y-103023082D02*
G01*
X104949187Y-103396615D01*
X104954612Y-103403739D01*
X104955000Y-103406726D01*
X104955000Y-103593273D01*
X104951573Y-103601546D01*
X104949187Y-103603384D01*
X104307630Y-103976917D01*
X104298756Y-103978118D01*
X104294400Y-103975915D01*
X103832254Y-103603384D01*
X103715299Y-103509108D01*
X103711010Y-103501249D01*
X103713534Y-103492657D01*
X103715300Y-103490891D01*
X104294401Y-103024083D01*
X104302992Y-103021560D01*
X104307631Y-103023082D01*
G37*
%TD.AperFunction*%
%TD*%
%TA.AperFunction,Conductor*%
%TO.N,Net-(J2-Pin_4)*%
G36*
X103115406Y-103023929D02*
G01*
X103694699Y-103490891D01*
X103698989Y-103498751D01*
X103696465Y-103507343D01*
X103694699Y-103509109D01*
X103115406Y-103976070D01*
X103106814Y-103978594D01*
X103102472Y-103977239D01*
X102461109Y-103628323D01*
X102455479Y-103621359D01*
X102455000Y-103618045D01*
X102455000Y-103381954D01*
X102458427Y-103373681D01*
X102461106Y-103371678D01*
X103102472Y-103022759D01*
X103111377Y-103021817D01*
X103115406Y-103023929D01*
G37*
%TD.AperFunction*%
%TD*%
%TA.AperFunction,Conductor*%
%TO.N,Net-(J2-Pin_4)*%
G36*
X92553145Y-87156143D02*
G01*
X93195166Y-87621496D01*
X93199854Y-87629126D01*
X93200000Y-87630969D01*
X93200000Y-87869030D01*
X93196573Y-87877303D01*
X93195166Y-87878503D01*
X92553146Y-88343855D01*
X92544437Y-88345936D01*
X92537624Y-88342254D01*
X92114775Y-87877303D01*
X92006158Y-87757871D01*
X92003128Y-87749446D01*
X92006159Y-87742128D01*
X92537626Y-87157743D01*
X92545726Y-87153930D01*
X92553145Y-87156143D01*
G37*
%TD.AperFunction*%
%TD*%
%TA.AperFunction,Conductor*%
%TO.N,Net-(J2-Pin_4)*%
G36*
X92008016Y-87756543D02*
G01*
X92574083Y-88289191D01*
X92577760Y-88297355D01*
X92576078Y-88303763D01*
X92128414Y-89044352D01*
X92121201Y-89049660D01*
X92118401Y-89050000D01*
X91881599Y-89050000D01*
X91873326Y-89046573D01*
X91871586Y-89044352D01*
X91423921Y-88303763D01*
X91422574Y-88294911D01*
X91425914Y-88289193D01*
X91991983Y-87756543D01*
X92000356Y-87753370D01*
X92008016Y-87756543D01*
G37*
%TD.AperFunction*%
%TD*%
%TA.AperFunction,Conductor*%
%TO.N,Net-(J2-Pin_4)*%
G36*
X96493402Y-106101862D02*
G01*
X97034874Y-106594276D01*
X97038689Y-106602377D01*
X97035658Y-106610804D01*
X97035275Y-106611205D01*
X96904000Y-106742480D01*
X96900643Y-106744824D01*
X96397275Y-106977911D01*
X96388328Y-106978278D01*
X96385008Y-106976396D01*
X95807505Y-106509964D01*
X95803222Y-106502100D01*
X95805754Y-106493511D01*
X95808971Y-106490750D01*
X96479648Y-106100405D01*
X96488519Y-106099206D01*
X96493402Y-106101862D01*
G37*
%TD.AperFunction*%
%TD*%
%TA.AperFunction,Conductor*%
%TO.N,Net-(J2-Pin_4)*%
G36*
X95555681Y-86280656D02*
G01*
X95767672Y-86491709D01*
X95771117Y-86499974D01*
X95767708Y-86508255D01*
X95767672Y-86508291D01*
X95555681Y-86719343D01*
X95547400Y-86722752D01*
X95542674Y-86721744D01*
X95331948Y-86628088D01*
X95325780Y-86621596D01*
X95325000Y-86617396D01*
X95325000Y-86382604D01*
X95328427Y-86374331D01*
X95331948Y-86371912D01*
X95542676Y-86278254D01*
X95551626Y-86278027D01*
X95555681Y-86280656D01*
G37*
%TD.AperFunction*%
%TD*%
%TA.AperFunction,Conductor*%
%TO.N,Net-(J2-Pin_3)*%
G36*
X110553199Y-86156508D02*
G01*
X111195397Y-86646488D01*
X111199896Y-86654231D01*
X111200000Y-86655790D01*
X111200000Y-86844209D01*
X111196573Y-86852482D01*
X111195397Y-86853511D01*
X110553201Y-87343490D01*
X110544545Y-87345784D01*
X110537448Y-87342060D01*
X110006159Y-86757872D01*
X110003128Y-86749446D01*
X110006159Y-86742128D01*
X110093139Y-86646488D01*
X110537449Y-86157938D01*
X110545550Y-86154124D01*
X110553199Y-86156508D01*
G37*
%TD.AperFunction*%
%TD*%
%TA.AperFunction,Conductor*%
%TO.N,Net-(J2-Pin_3)*%
G36*
X95785025Y-79541458D02*
G01*
X95786354Y-79544668D01*
X95993885Y-80379401D01*
X95993203Y-80387021D01*
X95878103Y-80643097D01*
X95871585Y-80649238D01*
X95867431Y-80650000D01*
X95682569Y-80650000D01*
X95674296Y-80646573D01*
X95671897Y-80643097D01*
X95556795Y-80387019D01*
X95556114Y-80379404D01*
X95763646Y-79544667D01*
X95768967Y-79537466D01*
X95777823Y-79536137D01*
X95785025Y-79541458D01*
G37*
%TD.AperFunction*%
%TD*%
%TA.AperFunction,Conductor*%
%TO.N,Net-(J2-Pin_3)*%
G36*
X104307631Y-104523082D02*
G01*
X104949187Y-104896615D01*
X104954612Y-104903739D01*
X104955000Y-104906726D01*
X104955000Y-105093273D01*
X104951573Y-105101546D01*
X104949187Y-105103384D01*
X104307630Y-105476917D01*
X104298756Y-105478118D01*
X104294400Y-105475915D01*
X103832254Y-105103384D01*
X103715299Y-105009108D01*
X103711010Y-105001249D01*
X103713534Y-104992657D01*
X103715300Y-104990891D01*
X104294401Y-104524083D01*
X104302992Y-104521560D01*
X104307631Y-104523082D01*
G37*
%TD.AperFunction*%
%TD*%
%TA.AperFunction,Conductor*%
%TO.N,Net-(J2-Pin_3)*%
G36*
X95076805Y-104650711D02*
G01*
X95779116Y-104991248D01*
X95785065Y-104997941D01*
X95784539Y-105006881D01*
X95781362Y-105010878D01*
X95204300Y-105476954D01*
X95195711Y-105479486D01*
X95193263Y-105478956D01*
X94722316Y-105322605D01*
X94717729Y-105319774D01*
X94586202Y-105188247D01*
X94582775Y-105179974D01*
X94585865Y-105172053D01*
X95063093Y-104653318D01*
X95071214Y-104649550D01*
X95076805Y-104650711D01*
G37*
%TD.AperFunction*%
%TD*%
%TA.AperFunction,Conductor*%
%TO.N,Net-(J2-Pin_3)*%
G36*
X96545716Y-104841156D02*
G01*
X96549335Y-104844856D01*
X96964425Y-105519973D01*
X96965839Y-105528815D01*
X96962731Y-105534374D01*
X96831994Y-105665111D01*
X96823721Y-105668538D01*
X96822030Y-105668415D01*
X95681475Y-105501870D01*
X95673784Y-105497284D01*
X95671589Y-105488602D01*
X95671815Y-105487459D01*
X95792522Y-105006351D01*
X95797858Y-104999162D01*
X95801405Y-104997763D01*
X96536909Y-104839546D01*
X96545716Y-104841156D01*
G37*
%TD.AperFunction*%
%TD*%
%TA.AperFunction,Conductor*%
%TO.N,Net-(U1-A)*%
G36*
X98257872Y-64006159D02*
G01*
X98842060Y-64537447D01*
X98845875Y-64545549D01*
X98843490Y-64553200D01*
X98353512Y-65195397D01*
X98345769Y-65199896D01*
X98344210Y-65200000D01*
X98155790Y-65200000D01*
X98147517Y-65196573D01*
X98146488Y-65195397D01*
X97656508Y-64553198D01*
X97654215Y-64544544D01*
X97657938Y-64537448D01*
X98242128Y-64006158D01*
X98250554Y-64003128D01*
X98257872Y-64006159D01*
G37*
%TD.AperFunction*%
%TD*%
%TA.AperFunction,Conductor*%
%TO.N,Net-(U1-A)*%
G36*
X109037603Y-65713915D02*
G01*
X109418366Y-65896813D01*
X109424340Y-65903484D01*
X109425000Y-65907359D01*
X109425000Y-66092640D01*
X109421573Y-66100913D01*
X109418366Y-66103186D01*
X109037601Y-66286084D01*
X109028660Y-66286578D01*
X109027257Y-66285980D01*
X108482157Y-66010442D01*
X108476319Y-66003651D01*
X108476993Y-65994722D01*
X108482157Y-65989558D01*
X109027257Y-65714019D01*
X109036186Y-65713345D01*
X109037603Y-65713915D01*
G37*
%TD.AperFunction*%
%TD*%
%TA.AperFunction,Conductor*%
%TO.N,Net-(U1-A)*%
G36*
X96525704Y-78353427D02*
G01*
X96528103Y-78356903D01*
X96643203Y-78612978D01*
X96643885Y-78620598D01*
X96436354Y-79455331D01*
X96431033Y-79462533D01*
X96422177Y-79463862D01*
X96414975Y-79458541D01*
X96413646Y-79455331D01*
X96371990Y-79287786D01*
X96206114Y-78620595D01*
X96206795Y-78612980D01*
X96321897Y-78356902D01*
X96328415Y-78350762D01*
X96332569Y-78350000D01*
X96517431Y-78350000D01*
X96525704Y-78353427D01*
G37*
%TD.AperFunction*%
%TD*%
%TA.AperFunction,Conductor*%
%TO.N,Net-(U1-A)*%
G36*
X108564511Y-65403427D02*
G01*
X108565973Y-65405210D01*
X108757188Y-65692032D01*
X108758926Y-65700817D01*
X108755740Y-65706781D01*
X108470787Y-65992685D01*
X108462519Y-65996126D01*
X108454241Y-65992713D01*
X108454213Y-65992685D01*
X108169259Y-65706781D01*
X108165846Y-65698503D01*
X108167810Y-65692034D01*
X108359027Y-65405210D01*
X108366467Y-65400227D01*
X108368762Y-65400000D01*
X108556238Y-65400000D01*
X108564511Y-65403427D01*
G37*
%TD.AperFunction*%
%TD*%
%TA.AperFunction,Conductor*%
%TO.N,Net-(U1-A)*%
G36*
X108470758Y-65057285D02*
G01*
X108624349Y-65211389D01*
X108755740Y-65343218D01*
X108759153Y-65351496D01*
X108757188Y-65357967D01*
X108565973Y-65644790D01*
X108558533Y-65649773D01*
X108556238Y-65650000D01*
X108368762Y-65650000D01*
X108360489Y-65646573D01*
X108359027Y-65644790D01*
X108167811Y-65357967D01*
X108166073Y-65349182D01*
X108169259Y-65343218D01*
X108454214Y-65057313D01*
X108462481Y-65053873D01*
X108470758Y-65057285D01*
G37*
%TD.AperFunction*%
%TD*%
%TA.AperFunction,Conductor*%
%TO.N,Net-(U1-Y)*%
G36*
X110736726Y-66953418D02*
G01*
X110742390Y-66959473D01*
X110857633Y-67239948D01*
X110857608Y-67248903D01*
X110852043Y-67254860D01*
X110303621Y-67529071D01*
X110294689Y-67529706D01*
X110290116Y-67526879D01*
X110156858Y-67393621D01*
X110153841Y-67388418D01*
X110097075Y-67179637D01*
X110098211Y-67170754D01*
X110104585Y-67165495D01*
X110727791Y-66952847D01*
X110736726Y-66953418D01*
G37*
%TD.AperFunction*%
%TD*%
%TA.AperFunction,Conductor*%
%TO.N,Net-(U1-Y)*%
G36*
X101154468Y-63511093D02*
G01*
X101431521Y-63789007D01*
X101774594Y-64133148D01*
X101778008Y-64141426D01*
X101774581Y-64149681D01*
X101642762Y-64281500D01*
X101639725Y-64283690D01*
X101053466Y-64577068D01*
X101044534Y-64577706D01*
X101039702Y-64574615D01*
X100508158Y-64008731D01*
X100504992Y-64000355D01*
X100508676Y-63992193D01*
X100509573Y-63991431D01*
X101139079Y-63510059D01*
X101147730Y-63507757D01*
X101154468Y-63511093D01*
G37*
%TD.AperFunction*%
%TD*%
%TA.AperFunction,Conductor*%
%TO.N,Net-(U2-RB0)*%
G36*
X99775704Y-85353427D02*
G01*
X99778103Y-85356903D01*
X99893203Y-85612978D01*
X99893885Y-85620598D01*
X99686354Y-86455331D01*
X99681033Y-86462533D01*
X99672177Y-86463862D01*
X99664975Y-86458541D01*
X99663646Y-86455331D01*
X99621990Y-86287786D01*
X99456114Y-85620595D01*
X99456795Y-85612980D01*
X99571897Y-85356902D01*
X99578415Y-85350762D01*
X99582569Y-85350000D01*
X99767431Y-85350000D01*
X99775704Y-85353427D01*
G37*
%TD.AperFunction*%
%TD*%
%TA.AperFunction,Conductor*%
%TO.N,Net-(U2-RB0)*%
G36*
X107411852Y-79799067D02*
G01*
X107895866Y-79963644D01*
X107995054Y-79997371D01*
X108001783Y-80003279D01*
X108002467Y-80004998D01*
X108213957Y-80690338D01*
X108213122Y-80699254D01*
X108207810Y-80704350D01*
X107220499Y-81174827D01*
X107211556Y-81175292D01*
X107207193Y-81172538D01*
X107076375Y-81041720D01*
X107072948Y-81033447D01*
X107073337Y-81030456D01*
X107396795Y-79807158D01*
X107402222Y-79800038D01*
X107411096Y-79798840D01*
X107411852Y-79799067D01*
G37*
%TD.AperFunction*%
%TD*%
%TA.AperFunction,Conductor*%
%TO.N,Net-(U2-RB1)*%
G36*
X107432137Y-83953859D02*
G01*
X107993392Y-84492696D01*
X107996987Y-84500897D01*
X107994521Y-84508322D01*
X107505967Y-85135916D01*
X107498181Y-85140339D01*
X107490472Y-85138611D01*
X107310056Y-85024265D01*
X106805437Y-84704445D01*
X106800283Y-84697122D01*
X106800000Y-84694563D01*
X106800000Y-84506255D01*
X106800141Y-84505914D01*
X106800020Y-84505565D01*
X106801838Y-84501817D01*
X106803427Y-84497982D01*
X106803897Y-84497537D01*
X106822111Y-84481357D01*
X106826843Y-84478809D01*
X106873186Y-84466392D01*
X106987314Y-84400500D01*
X107080500Y-84307314D01*
X107145328Y-84195028D01*
X107147681Y-84192143D01*
X107416265Y-83953551D01*
X107424725Y-83950619D01*
X107432137Y-83953859D01*
G37*
%TD.AperFunction*%
%TD*%
%TA.AperFunction,Conductor*%
%TO.N,Net-(U2-RB1)*%
G36*
X100425704Y-85353427D02*
G01*
X100428103Y-85356903D01*
X100543203Y-85612978D01*
X100543885Y-85620598D01*
X100336354Y-86455331D01*
X100331033Y-86462533D01*
X100322177Y-86463862D01*
X100314975Y-86458541D01*
X100313646Y-86455331D01*
X100271990Y-86287786D01*
X100106114Y-85620595D01*
X100106795Y-85612980D01*
X100221897Y-85356902D01*
X100228415Y-85350762D01*
X100232569Y-85350000D01*
X100417431Y-85350000D01*
X100425704Y-85353427D01*
G37*
%TD.AperFunction*%
%TD*%
%TA.AperFunction,Conductor*%
%TO.N,Net-(U2-RA5)*%
G36*
X100425704Y-78353427D02*
G01*
X100428103Y-78356903D01*
X100543203Y-78612978D01*
X100543885Y-78620598D01*
X100336354Y-79455331D01*
X100331033Y-79462533D01*
X100322177Y-79463862D01*
X100314975Y-79458541D01*
X100313646Y-79455331D01*
X100271990Y-79287786D01*
X100106114Y-78620595D01*
X100106795Y-78612980D01*
X100221897Y-78356902D01*
X100228415Y-78350762D01*
X100232569Y-78350000D01*
X100417431Y-78350000D01*
X100425704Y-78353427D01*
G37*
%TD.AperFunction*%
%TD*%
%TA.AperFunction,Conductor*%
%TO.N,Net-(U2-RA5)*%
G36*
X100355277Y-214519790D02*
G01*
X100485097Y-214649610D01*
X100488524Y-214657883D01*
X100487422Y-214662841D01*
X100255193Y-215159261D01*
X100248583Y-215165302D01*
X100239637Y-215164901D01*
X100238127Y-215164052D01*
X100001265Y-215006903D01*
X99997984Y-215003622D01*
X99840835Y-214766760D01*
X99839116Y-214757972D01*
X99844116Y-214750543D01*
X99845621Y-214749696D01*
X100342048Y-214517464D01*
X100350992Y-214517064D01*
X100355277Y-214519790D01*
G37*
%TD.AperFunction*%
%TD*%
%TA.AperFunction,Conductor*%
%TO.N,Net-(U2-RA4)*%
G36*
X100355277Y-192514902D02*
G01*
X100485097Y-192644722D01*
X100488524Y-192652995D01*
X100487422Y-192657953D01*
X100255193Y-193154373D01*
X100248583Y-193160414D01*
X100239637Y-193160013D01*
X100238127Y-193159164D01*
X100001265Y-193002015D01*
X99997984Y-192998734D01*
X99840835Y-192761872D01*
X99839116Y-192753084D01*
X99844116Y-192745655D01*
X99845621Y-192744808D01*
X100342048Y-192512576D01*
X100350992Y-192512176D01*
X100355277Y-192514902D01*
G37*
%TD.AperFunction*%
%TD*%
%TA.AperFunction,Conductor*%
%TO.N,Net-(U2-RA4)*%
G36*
X101075704Y-78353427D02*
G01*
X101078103Y-78356903D01*
X101193203Y-78612978D01*
X101193885Y-78620598D01*
X100986354Y-79455331D01*
X100981033Y-79462533D01*
X100972177Y-79463862D01*
X100964975Y-79458541D01*
X100963646Y-79455331D01*
X100921990Y-79287786D01*
X100756114Y-78620595D01*
X100756795Y-78612980D01*
X100871897Y-78356902D01*
X100878415Y-78350762D01*
X100882569Y-78350000D01*
X101067431Y-78350000D01*
X101075704Y-78353427D01*
G37*
%TD.AperFunction*%
%TD*%
%TA.AperFunction,Conductor*%
%TO.N,Net-(U2-RA3{slash}Vref+)*%
G36*
X101725704Y-78353427D02*
G01*
X101728103Y-78356903D01*
X101843203Y-78612978D01*
X101843885Y-78620598D01*
X101636354Y-79455331D01*
X101631033Y-79462533D01*
X101622177Y-79463862D01*
X101614975Y-79458541D01*
X101613646Y-79455331D01*
X101571990Y-79287786D01*
X101406114Y-78620595D01*
X101406795Y-78612980D01*
X101521897Y-78356902D01*
X101528415Y-78350762D01*
X101532569Y-78350000D01*
X101717431Y-78350000D01*
X101725704Y-78353427D01*
G37*
%TD.AperFunction*%
%TD*%
%TA.AperFunction,Conductor*%
%TO.N,Net-(U2-RA3{slash}Vref+)*%
G36*
X100355277Y-170514902D02*
G01*
X100485097Y-170644722D01*
X100488524Y-170652995D01*
X100487422Y-170657953D01*
X100255193Y-171154373D01*
X100248583Y-171160414D01*
X100239637Y-171160013D01*
X100238127Y-171159164D01*
X100001265Y-171002015D01*
X99997984Y-170998734D01*
X99840835Y-170761872D01*
X99839116Y-170753084D01*
X99844116Y-170745655D01*
X99845621Y-170744808D01*
X100342048Y-170512576D01*
X100350992Y-170512176D01*
X100355277Y-170514902D01*
G37*
%TD.AperFunction*%
%TD*%
%TA.AperFunction,Conductor*%
%TO.N,Net-(U2-RA2{slash}Vref-)*%
G36*
X100355277Y-148514902D02*
G01*
X100485097Y-148644722D01*
X100488524Y-148652995D01*
X100487422Y-148657953D01*
X100255193Y-149154373D01*
X100248583Y-149160414D01*
X100239637Y-149160013D01*
X100238127Y-149159164D01*
X100001265Y-149002015D01*
X99997984Y-148998734D01*
X99840835Y-148761872D01*
X99839116Y-148753084D01*
X99844116Y-148745655D01*
X99845621Y-148744808D01*
X100342048Y-148512576D01*
X100350992Y-148512176D01*
X100355277Y-148514902D01*
G37*
%TD.AperFunction*%
%TD*%
%TA.AperFunction,Conductor*%
%TO.N,Net-(U2-RA2{slash}Vref-)*%
G36*
X102375704Y-78353427D02*
G01*
X102378103Y-78356903D01*
X102493203Y-78612978D01*
X102493885Y-78620598D01*
X102286354Y-79455331D01*
X102281033Y-79462533D01*
X102272177Y-79463862D01*
X102264975Y-79458541D01*
X102263646Y-79455331D01*
X102221990Y-79287786D01*
X102056114Y-78620595D01*
X102056795Y-78612980D01*
X102171897Y-78356902D01*
X102178415Y-78350762D01*
X102182569Y-78350000D01*
X102367431Y-78350000D01*
X102375704Y-78353427D01*
G37*
%TD.AperFunction*%
%TD*%
%TA.AperFunction,Conductor*%
%TO.N,Net-(U2-RA1)*%
G36*
X103025704Y-78353427D02*
G01*
X103028103Y-78356903D01*
X103143203Y-78612978D01*
X103143885Y-78620598D01*
X102936354Y-79455331D01*
X102931033Y-79462533D01*
X102922177Y-79463862D01*
X102914975Y-79458541D01*
X102913646Y-79455331D01*
X102871990Y-79287786D01*
X102706114Y-78620595D01*
X102706795Y-78612980D01*
X102821897Y-78356902D01*
X102828415Y-78350762D01*
X102832569Y-78350000D01*
X103017431Y-78350000D01*
X103025704Y-78353427D01*
G37*
%TD.AperFunction*%
%TD*%
%TA.AperFunction,Conductor*%
%TO.N,Net-(U2-RA1)*%
G36*
X100355277Y-126514902D02*
G01*
X100485097Y-126644722D01*
X100488524Y-126652995D01*
X100487422Y-126657953D01*
X100255193Y-127154373D01*
X100248583Y-127160414D01*
X100239637Y-127160013D01*
X100238127Y-127159164D01*
X100001265Y-127002015D01*
X99997984Y-126998734D01*
X99840835Y-126761872D01*
X99839116Y-126753084D01*
X99844116Y-126745655D01*
X99845621Y-126744808D01*
X100342048Y-126512576D01*
X100350992Y-126512176D01*
X100355277Y-126514902D01*
G37*
%TD.AperFunction*%
%TD*%
%TA.AperFunction,Conductor*%
%TO.N,Net-(U2-RA0)*%
G36*
X109355277Y-95764902D02*
G01*
X109485097Y-95894722D01*
X109488524Y-95902995D01*
X109487422Y-95907953D01*
X109255193Y-96404373D01*
X109248583Y-96410414D01*
X109239637Y-96410013D01*
X109238127Y-96409164D01*
X109001265Y-96252015D01*
X108997984Y-96248734D01*
X108840835Y-96011872D01*
X108839116Y-96003084D01*
X108844116Y-95995655D01*
X108845621Y-95994808D01*
X109342048Y-95762576D01*
X109350992Y-95762176D01*
X109355277Y-95764902D01*
G37*
%TD.AperFunction*%
%TD*%
%TA.AperFunction,Conductor*%
%TO.N,Net-(U2-RA0)*%
G36*
X103675704Y-78353427D02*
G01*
X103678103Y-78356903D01*
X103793203Y-78612978D01*
X103793885Y-78620598D01*
X103586354Y-79455331D01*
X103581033Y-79462533D01*
X103572177Y-79463862D01*
X103564975Y-79458541D01*
X103563646Y-79455331D01*
X103521990Y-79287786D01*
X103356114Y-78620595D01*
X103356795Y-78612980D01*
X103471897Y-78356902D01*
X103478415Y-78350762D01*
X103482569Y-78350000D01*
X103667431Y-78350000D01*
X103675704Y-78353427D01*
G37*
%TD.AperFunction*%
%TD*%
%TA.AperFunction,Conductor*%
%TO.N,Net-(U2-RA6)*%
G36*
X98385025Y-79541458D02*
G01*
X98386354Y-79544668D01*
X98593885Y-80379401D01*
X98593203Y-80387021D01*
X98478103Y-80643097D01*
X98471585Y-80649238D01*
X98467431Y-80650000D01*
X98282569Y-80650000D01*
X98274296Y-80646573D01*
X98271897Y-80643097D01*
X98156795Y-80387019D01*
X98156114Y-80379404D01*
X98363646Y-79544667D01*
X98368967Y-79537466D01*
X98377823Y-79536137D01*
X98385025Y-79541458D01*
G37*
%TD.AperFunction*%
%TD*%
%TA.AperFunction,Conductor*%
%TO.N,Net-(U2-RA6)*%
G36*
X98475070Y-81134191D02*
G01*
X98477796Y-81138476D01*
X98664608Y-81653709D01*
X98664207Y-81662655D01*
X98657597Y-81668696D01*
X98655929Y-81669165D01*
X98377320Y-81725530D01*
X98372680Y-81725530D01*
X98094070Y-81669165D01*
X98086641Y-81664165D01*
X98084922Y-81655377D01*
X98085387Y-81653720D01*
X98272204Y-81138476D01*
X98278245Y-81131866D01*
X98283203Y-81130764D01*
X98466797Y-81130764D01*
X98475070Y-81134191D01*
G37*
%TD.AperFunction*%
%TD*%
%TA.AperFunction,Conductor*%
%TO.N,Net-(U2-RA7)*%
G36*
X99125704Y-78353427D02*
G01*
X99128103Y-78356903D01*
X99243203Y-78612978D01*
X99243885Y-78620598D01*
X99036354Y-79455331D01*
X99031033Y-79462533D01*
X99022177Y-79463862D01*
X99014975Y-79458541D01*
X99013646Y-79455331D01*
X98971990Y-79287786D01*
X98806114Y-78620595D01*
X98806795Y-78612980D01*
X98921897Y-78356902D01*
X98928415Y-78350762D01*
X98932569Y-78350000D01*
X99117431Y-78350000D01*
X99125704Y-78353427D01*
G37*
%TD.AperFunction*%
%TD*%
%TA.AperFunction,Conductor*%
%TO.N,Net-(U2-RA7)*%
G36*
X97174458Y-66769638D02*
G01*
X97183148Y-66771396D01*
X97451263Y-66825638D01*
X97458692Y-66830638D01*
X97460411Y-66839426D01*
X97460131Y-66840529D01*
X97302532Y-67355628D01*
X97296835Y-67362537D01*
X97291344Y-67363905D01*
X97107772Y-67363905D01*
X97099499Y-67360478D01*
X97096987Y-67356740D01*
X97096519Y-67355628D01*
X96923958Y-66945213D01*
X96923911Y-66936259D01*
X96928215Y-66930970D01*
X97165612Y-66771395D01*
X97174389Y-66769625D01*
X97174458Y-66769638D01*
G37*
%TD.AperFunction*%
%TD*%
M02*
