%TF.GenerationSoftware,KiCad,Pcbnew,9.0.7*%
%TF.CreationDate,2026-04-09T10:36:26+02:00*%
%TF.ProjectId,board2-buttons,626f6172-6432-42d6-9275-74746f6e732e,2*%
%TF.SameCoordinates,Original*%
%TF.FileFunction,Legend,Top*%
%TF.FilePolarity,Positive*%
%FSLAX46Y46*%
G04 Gerber Fmt 4.6, Leading zero omitted, Abs format (unit mm)*
G04 Created by KiCad (PCBNEW 9.0.7) date 2026-04-09 10:36:26*
%MOMM*%
%LPD*%
G01*
G04 APERTURE LIST*
%ADD10C,0.000000*%
%ADD11C,0.160000*%
%ADD12C,0.200000*%
%ADD13C,0.150000*%
%ADD14C,0.120000*%
%ADD15C,0.260000*%
G04 APERTURE END LIST*
D10*
G36*
X108431819Y-139272727D02*
G01*
X108204546Y-139272727D01*
X108204546Y-139045455D01*
X108431819Y-139045455D01*
X108431819Y-139272727D01*
G37*
G36*
X108659091Y-138363636D02*
G01*
X108431819Y-138363636D01*
X108431819Y-138136363D01*
X108659091Y-138136363D01*
X108659091Y-138363636D01*
G37*
G36*
X112295457Y-137909090D02*
G01*
X112068184Y-137909090D01*
X112068184Y-137681818D01*
X112295457Y-137681818D01*
X112295457Y-137909090D01*
G37*
G36*
X110704547Y-141090910D02*
G01*
X110477274Y-141090910D01*
X110477274Y-140863637D01*
X110704547Y-140863637D01*
X110704547Y-141090910D01*
G37*
G36*
X112750003Y-141772729D02*
G01*
X112522730Y-141772729D01*
X112522730Y-141545456D01*
X112750003Y-141545456D01*
X112750003Y-141772729D01*
G37*
G36*
X111159093Y-137454545D02*
G01*
X110931820Y-137454545D01*
X110931820Y-137227272D01*
X111159093Y-137227272D01*
X111159093Y-137454545D01*
G37*
G36*
X105477272Y-136545453D02*
G01*
X105249999Y-136545453D01*
X105249999Y-136318181D01*
X105477272Y-136318181D01*
X105477272Y-136545453D01*
G37*
G36*
X110250001Y-134954544D02*
G01*
X110022728Y-134954544D01*
X110022728Y-134727271D01*
X110250001Y-134727271D01*
X110250001Y-134954544D01*
G37*
G36*
X109568183Y-137227272D02*
G01*
X109340910Y-137227272D01*
X109340910Y-136999999D01*
X109568183Y-136999999D01*
X109568183Y-137227272D01*
G37*
G36*
X109113637Y-140409092D02*
G01*
X108886364Y-140409092D01*
X108886364Y-140181819D01*
X109113637Y-140181819D01*
X109113637Y-140409092D01*
G37*
G36*
X111159093Y-138136363D02*
G01*
X110931820Y-138136363D01*
X110931820Y-137909090D01*
X111159093Y-137909090D01*
X111159093Y-138136363D01*
G37*
G36*
X111840911Y-137454545D02*
G01*
X111613638Y-137454545D01*
X111613638Y-137227272D01*
X111840911Y-137227272D01*
X111840911Y-137454545D01*
G37*
G36*
X108659091Y-141772729D02*
G01*
X108431819Y-141772729D01*
X108431819Y-141545456D01*
X108659091Y-141545456D01*
X108659091Y-141772729D01*
G37*
G36*
X107977273Y-138818182D02*
G01*
X107750000Y-138818182D01*
X107750000Y-138590909D01*
X107977273Y-138590909D01*
X107977273Y-138818182D01*
G37*
G36*
X108204546Y-135863635D02*
G01*
X107977273Y-135863635D01*
X107977273Y-135636362D01*
X108204546Y-135636362D01*
X108204546Y-135863635D01*
G37*
G36*
X107522727Y-139727273D02*
G01*
X107295454Y-139727273D01*
X107295454Y-139500000D01*
X107522727Y-139500000D01*
X107522727Y-139727273D01*
G37*
G36*
X106386363Y-140181819D02*
G01*
X106159090Y-140181819D01*
X106159090Y-139954546D01*
X106386363Y-139954546D01*
X106386363Y-140181819D01*
G37*
G36*
X111386365Y-136545453D02*
G01*
X111159093Y-136545453D01*
X111159093Y-136318181D01*
X111386365Y-136318181D01*
X111386365Y-136545453D01*
G37*
G36*
X107522727Y-141318183D02*
G01*
X107295454Y-141318183D01*
X107295454Y-141090910D01*
X107522727Y-141090910D01*
X107522727Y-141318183D01*
G37*
G36*
X110022728Y-136772726D02*
G01*
X109795456Y-136772726D01*
X109795456Y-136545453D01*
X110022728Y-136545453D01*
X110022728Y-136772726D01*
G37*
G36*
X109340910Y-136545453D02*
G01*
X109113637Y-136545453D01*
X109113637Y-136318181D01*
X109340910Y-136318181D01*
X109340910Y-136545453D01*
G37*
G36*
X109568183Y-137454545D02*
G01*
X109340910Y-137454545D01*
X109340910Y-137227272D01*
X109568183Y-137227272D01*
X109568183Y-137454545D01*
G37*
G36*
X110022728Y-139272727D02*
G01*
X109795456Y-139272727D01*
X109795456Y-139045455D01*
X110022728Y-139045455D01*
X110022728Y-139272727D01*
G37*
G36*
X106159090Y-136545453D02*
G01*
X105931817Y-136545453D01*
X105931817Y-136318181D01*
X106159090Y-136318181D01*
X106159090Y-136545453D01*
G37*
G36*
X112750003Y-138590909D02*
G01*
X112522730Y-138590909D01*
X112522730Y-138363636D01*
X112750003Y-138363636D01*
X112750003Y-138590909D01*
G37*
G36*
X112750003Y-139500000D02*
G01*
X112522730Y-139500000D01*
X112522730Y-139272727D01*
X112750003Y-139272727D01*
X112750003Y-139500000D01*
G37*
G36*
X111840911Y-138590909D02*
G01*
X111613638Y-138590909D01*
X111613638Y-138363636D01*
X111840911Y-138363636D01*
X111840911Y-138590909D01*
G37*
G36*
X109795456Y-141772729D02*
G01*
X109568183Y-141772729D01*
X109568183Y-141545456D01*
X109795456Y-141545456D01*
X109795456Y-141772729D01*
G37*
G36*
X112068184Y-139500000D02*
G01*
X111840911Y-139500000D01*
X111840911Y-139272727D01*
X112068184Y-139272727D01*
X112068184Y-139500000D01*
G37*
G36*
X106613636Y-138590909D02*
G01*
X106386363Y-138590909D01*
X106386363Y-138363636D01*
X106613636Y-138363636D01*
X106613636Y-138590909D01*
G37*
G36*
X108659091Y-136318181D02*
G01*
X108431819Y-136318181D01*
X108431819Y-136090908D01*
X108659091Y-136090908D01*
X108659091Y-136318181D01*
G37*
G36*
X108886364Y-141772729D02*
G01*
X108659091Y-141772729D01*
X108659091Y-141545456D01*
X108886364Y-141545456D01*
X108886364Y-141772729D01*
G37*
G36*
X111613638Y-139727273D02*
G01*
X111386365Y-139727273D01*
X111386365Y-139500000D01*
X111613638Y-139500000D01*
X111613638Y-139727273D01*
G37*
G36*
X106840909Y-138363636D02*
G01*
X106613636Y-138363636D01*
X106613636Y-138136363D01*
X106840909Y-138136363D01*
X106840909Y-138363636D01*
G37*
G36*
X110704547Y-135636362D02*
G01*
X110477274Y-135636362D01*
X110477274Y-135409089D01*
X110704547Y-135409089D01*
X110704547Y-135636362D01*
G37*
G36*
X111159093Y-137681818D02*
G01*
X110931820Y-137681818D01*
X110931820Y-137454545D01*
X111159093Y-137454545D01*
X111159093Y-137681818D01*
G37*
G36*
X109795456Y-141090910D02*
G01*
X109568183Y-141090910D01*
X109568183Y-140863637D01*
X109795456Y-140863637D01*
X109795456Y-141090910D01*
G37*
G36*
X112750003Y-137227272D02*
G01*
X112522730Y-137227272D01*
X112522730Y-136999999D01*
X112750003Y-136999999D01*
X112750003Y-137227272D01*
G37*
G36*
X108204546Y-138363636D02*
G01*
X107977273Y-138363636D01*
X107977273Y-138136363D01*
X108204546Y-138136363D01*
X108204546Y-138363636D01*
G37*
G36*
X110477274Y-140863637D02*
G01*
X110250001Y-140863637D01*
X110250001Y-140636364D01*
X110477274Y-140636364D01*
X110477274Y-140863637D01*
G37*
G36*
X107295454Y-138363636D02*
G01*
X107068182Y-138363636D01*
X107068182Y-138136363D01*
X107295454Y-138136363D01*
X107295454Y-138363636D01*
G37*
G36*
X110931820Y-139954546D02*
G01*
X110704547Y-139954546D01*
X110704547Y-139727273D01*
X110931820Y-139727273D01*
X110931820Y-139954546D01*
G37*
G36*
X110477274Y-136545453D02*
G01*
X110250001Y-136545453D01*
X110250001Y-136318181D01*
X110477274Y-136318181D01*
X110477274Y-136545453D01*
G37*
G36*
X106613636Y-139954546D02*
G01*
X106386363Y-139954546D01*
X106386363Y-139727273D01*
X106613636Y-139727273D01*
X106613636Y-139954546D01*
G37*
G36*
X109113637Y-138136363D02*
G01*
X108886364Y-138136363D01*
X108886364Y-137909090D01*
X109113637Y-137909090D01*
X109113637Y-138136363D01*
G37*
G36*
X110250001Y-138363636D02*
G01*
X110022728Y-138363636D01*
X110022728Y-138136363D01*
X110250001Y-138136363D01*
X110250001Y-138363636D01*
G37*
G36*
X110931820Y-136545453D02*
G01*
X110704547Y-136545453D01*
X110704547Y-136318181D01*
X110931820Y-136318181D01*
X110931820Y-136545453D01*
G37*
G36*
X111613638Y-141090910D02*
G01*
X111386365Y-141090910D01*
X111386365Y-140863637D01*
X111613638Y-140863637D01*
X111613638Y-141090910D01*
G37*
G36*
X107977273Y-139045455D02*
G01*
X107750000Y-139045455D01*
X107750000Y-138818182D01*
X107977273Y-138818182D01*
X107977273Y-139045455D01*
G37*
G36*
X107522727Y-136318181D02*
G01*
X107295454Y-136318181D01*
X107295454Y-136090908D01*
X107522727Y-136090908D01*
X107522727Y-136318181D01*
G37*
G36*
X112295457Y-140863637D02*
G01*
X112068184Y-140863637D01*
X112068184Y-140636364D01*
X112295457Y-140636364D01*
X112295457Y-140863637D01*
G37*
G36*
X112522730Y-137681818D02*
G01*
X112295457Y-137681818D01*
X112295457Y-137454545D01*
X112522730Y-137454545D01*
X112522730Y-137681818D01*
G37*
G36*
X110022728Y-141318183D02*
G01*
X109795456Y-141318183D01*
X109795456Y-141090910D01*
X110022728Y-141090910D01*
X110022728Y-141318183D01*
G37*
G36*
X109795456Y-134727271D02*
G01*
X109568183Y-134727271D01*
X109568183Y-134499998D01*
X109795456Y-134499998D01*
X109795456Y-134727271D01*
G37*
G36*
X108886364Y-142000002D02*
G01*
X108659091Y-142000002D01*
X108659091Y-141772729D01*
X108886364Y-141772729D01*
X108886364Y-142000002D01*
G37*
G36*
X110250001Y-137909090D02*
G01*
X110022728Y-137909090D01*
X110022728Y-137681818D01*
X110250001Y-137681818D01*
X110250001Y-137909090D01*
G37*
G36*
X108659091Y-136090908D02*
G01*
X108431819Y-136090908D01*
X108431819Y-135863635D01*
X108659091Y-135863635D01*
X108659091Y-136090908D01*
G37*
G36*
X110477274Y-141545456D02*
G01*
X110250001Y-141545456D01*
X110250001Y-141318183D01*
X110477274Y-141318183D01*
X110477274Y-141545456D01*
G37*
G36*
X108659091Y-139045455D02*
G01*
X108431819Y-139045455D01*
X108431819Y-138818182D01*
X108659091Y-138818182D01*
X108659091Y-139045455D01*
G37*
G36*
X109795456Y-140409092D02*
G01*
X109568183Y-140409092D01*
X109568183Y-140181819D01*
X109795456Y-140181819D01*
X109795456Y-140409092D01*
G37*
G36*
X110477274Y-141772729D02*
G01*
X110250001Y-141772729D01*
X110250001Y-141545456D01*
X110477274Y-141545456D01*
X110477274Y-141772729D01*
G37*
G36*
X107295454Y-139954546D02*
G01*
X107068182Y-139954546D01*
X107068182Y-139727273D01*
X107295454Y-139727273D01*
X107295454Y-139954546D01*
G37*
G36*
X107295454Y-140636364D02*
G01*
X107068182Y-140636364D01*
X107068182Y-140409092D01*
X107295454Y-140409092D01*
X107295454Y-140636364D01*
G37*
G36*
X107977273Y-137454545D02*
G01*
X107750000Y-137454545D01*
X107750000Y-137227272D01*
X107977273Y-137227272D01*
X107977273Y-137454545D01*
G37*
G36*
X110022728Y-134727271D02*
G01*
X109795456Y-134727271D01*
X109795456Y-134499998D01*
X110022728Y-134499998D01*
X110022728Y-134727271D01*
G37*
G36*
X112295457Y-136772726D02*
G01*
X112068184Y-136772726D01*
X112068184Y-136545453D01*
X112295457Y-136545453D01*
X112295457Y-136772726D01*
G37*
G36*
X107977273Y-141545456D02*
G01*
X107750000Y-141545456D01*
X107750000Y-141318183D01*
X107977273Y-141318183D01*
X107977273Y-141545456D01*
G37*
G36*
X108659091Y-139272727D02*
G01*
X108431819Y-139272727D01*
X108431819Y-139045455D01*
X108659091Y-139045455D01*
X108659091Y-139272727D01*
G37*
G36*
X111386365Y-138136363D02*
G01*
X111159093Y-138136363D01*
X111159093Y-137909090D01*
X111386365Y-137909090D01*
X111386365Y-138136363D01*
G37*
G36*
X105477272Y-139045455D02*
G01*
X105249999Y-139045455D01*
X105249999Y-138818182D01*
X105477272Y-138818182D01*
X105477272Y-139045455D01*
G37*
G36*
X107750000Y-137681818D02*
G01*
X107522727Y-137681818D01*
X107522727Y-137454545D01*
X107750000Y-137454545D01*
X107750000Y-137681818D01*
G37*
G36*
X107977273Y-135409089D02*
G01*
X107750000Y-135409089D01*
X107750000Y-135181816D01*
X107977273Y-135181816D01*
X107977273Y-135409089D01*
G37*
G36*
X112750003Y-136545453D02*
G01*
X112522730Y-136545453D01*
X112522730Y-136318181D01*
X112750003Y-136318181D01*
X112750003Y-136545453D01*
G37*
G36*
X110704547Y-138590909D02*
G01*
X110477274Y-138590909D01*
X110477274Y-138363636D01*
X110704547Y-138363636D01*
X110704547Y-138590909D01*
G37*
G36*
X110704547Y-136772726D02*
G01*
X110477274Y-136772726D01*
X110477274Y-136545453D01*
X110704547Y-136545453D01*
X110704547Y-136772726D01*
G37*
G36*
X105704545Y-137909090D02*
G01*
X105477272Y-137909090D01*
X105477272Y-137681818D01*
X105704545Y-137681818D01*
X105704545Y-137909090D01*
G37*
G36*
X109795456Y-139045455D02*
G01*
X109568183Y-139045455D01*
X109568183Y-138818182D01*
X109795456Y-138818182D01*
X109795456Y-139045455D01*
G37*
G36*
X112068184Y-136545453D02*
G01*
X111840911Y-136545453D01*
X111840911Y-136318181D01*
X112068184Y-136318181D01*
X112068184Y-136545453D01*
G37*
G36*
X108886364Y-135409089D02*
G01*
X108659091Y-135409089D01*
X108659091Y-135181816D01*
X108886364Y-135181816D01*
X108886364Y-135409089D01*
G37*
G36*
X111386365Y-137909090D02*
G01*
X111159093Y-137909090D01*
X111159093Y-137681818D01*
X111386365Y-137681818D01*
X111386365Y-137909090D01*
G37*
G36*
X109568183Y-140409092D02*
G01*
X109340910Y-140409092D01*
X109340910Y-140181819D01*
X109568183Y-140181819D01*
X109568183Y-140409092D01*
G37*
G36*
X107068182Y-136545453D02*
G01*
X106840909Y-136545453D01*
X106840909Y-136318181D01*
X107068182Y-136318181D01*
X107068182Y-136545453D01*
G37*
G36*
X107295454Y-140863637D02*
G01*
X107068182Y-140863637D01*
X107068182Y-140636364D01*
X107295454Y-140636364D01*
X107295454Y-140863637D01*
G37*
G36*
X106840909Y-137454545D02*
G01*
X106613636Y-137454545D01*
X106613636Y-137227272D01*
X106840909Y-137227272D01*
X106840909Y-137454545D01*
G37*
G36*
X107750000Y-141545456D02*
G01*
X107522727Y-141545456D01*
X107522727Y-141318183D01*
X107750000Y-141318183D01*
X107750000Y-141545456D01*
G37*
G36*
X110704547Y-140636364D02*
G01*
X110477274Y-140636364D01*
X110477274Y-140409092D01*
X110704547Y-140409092D01*
X110704547Y-140636364D01*
G37*
G36*
X108659091Y-135409089D02*
G01*
X108431819Y-135409089D01*
X108431819Y-135181816D01*
X108659091Y-135181816D01*
X108659091Y-135409089D01*
G37*
G36*
X107068182Y-137681818D02*
G01*
X106840909Y-137681818D01*
X106840909Y-137454545D01*
X107068182Y-137454545D01*
X107068182Y-137681818D01*
G37*
G36*
X108886364Y-137227272D02*
G01*
X108659091Y-137227272D01*
X108659091Y-136999999D01*
X108886364Y-136999999D01*
X108886364Y-137227272D01*
G37*
G36*
X112068184Y-137227272D02*
G01*
X111840911Y-137227272D01*
X111840911Y-136999999D01*
X112068184Y-136999999D01*
X112068184Y-137227272D01*
G37*
G36*
X109113637Y-134727271D02*
G01*
X108886364Y-134727271D01*
X108886364Y-134499998D01*
X109113637Y-134499998D01*
X109113637Y-134727271D01*
G37*
G36*
X108204546Y-140181819D02*
G01*
X107977273Y-140181819D01*
X107977273Y-139954546D01*
X108204546Y-139954546D01*
X108204546Y-140181819D01*
G37*
G36*
X110250001Y-138136363D02*
G01*
X110022728Y-138136363D01*
X110022728Y-137909090D01*
X110250001Y-137909090D01*
X110250001Y-138136363D01*
G37*
G36*
X109795456Y-138363636D02*
G01*
X109568183Y-138363636D01*
X109568183Y-138136363D01*
X109795456Y-138136363D01*
X109795456Y-138363636D01*
G37*
G36*
X109795456Y-141318183D02*
G01*
X109568183Y-141318183D01*
X109568183Y-141090910D01*
X109795456Y-141090910D01*
X109795456Y-141318183D01*
G37*
G36*
X107068182Y-139272727D02*
G01*
X106840909Y-139272727D01*
X106840909Y-139045455D01*
X107068182Y-139045455D01*
X107068182Y-139272727D01*
G37*
G36*
X110931820Y-140409092D02*
G01*
X110704547Y-140409092D01*
X110704547Y-140181819D01*
X110931820Y-140181819D01*
X110931820Y-140409092D01*
G37*
G36*
X107295454Y-140409092D02*
G01*
X107068182Y-140409092D01*
X107068182Y-140181819D01*
X107295454Y-140181819D01*
X107295454Y-140409092D01*
G37*
G36*
X109113637Y-136772726D02*
G01*
X108886364Y-136772726D01*
X108886364Y-136545453D01*
X109113637Y-136545453D01*
X109113637Y-136772726D01*
G37*
G36*
X108204546Y-134954544D02*
G01*
X107977273Y-134954544D01*
X107977273Y-134727271D01*
X108204546Y-134727271D01*
X108204546Y-134954544D01*
G37*
G36*
X106613636Y-139727273D02*
G01*
X106386363Y-139727273D01*
X106386363Y-139500000D01*
X106613636Y-139500000D01*
X106613636Y-139727273D01*
G37*
G36*
X105477272Y-140181819D02*
G01*
X105249999Y-140181819D01*
X105249999Y-139954546D01*
X105477272Y-139954546D01*
X105477272Y-140181819D01*
G37*
G36*
X111840911Y-138363636D02*
G01*
X111613638Y-138363636D01*
X111613638Y-138136363D01*
X111840911Y-138136363D01*
X111840911Y-138363636D01*
G37*
G36*
X107977273Y-140636364D02*
G01*
X107750000Y-140636364D01*
X107750000Y-140409092D01*
X107977273Y-140409092D01*
X107977273Y-140636364D01*
G37*
G36*
X111386365Y-141090910D02*
G01*
X111159093Y-141090910D01*
X111159093Y-140863637D01*
X111386365Y-140863637D01*
X111386365Y-141090910D01*
G37*
G36*
X110704547Y-136545453D02*
G01*
X110477274Y-136545453D01*
X110477274Y-136318181D01*
X110704547Y-136318181D01*
X110704547Y-136545453D01*
G37*
G36*
X110477274Y-138818182D02*
G01*
X110250001Y-138818182D01*
X110250001Y-138590909D01*
X110477274Y-138590909D01*
X110477274Y-138818182D01*
G37*
G36*
X106159090Y-139272727D02*
G01*
X105931817Y-139272727D01*
X105931817Y-139045455D01*
X106159090Y-139045455D01*
X106159090Y-139272727D01*
G37*
G36*
X107977273Y-137909090D02*
G01*
X107750000Y-137909090D01*
X107750000Y-137681818D01*
X107977273Y-137681818D01*
X107977273Y-137909090D01*
G37*
G36*
X109113637Y-136090908D02*
G01*
X108886364Y-136090908D01*
X108886364Y-135863635D01*
X109113637Y-135863635D01*
X109113637Y-136090908D01*
G37*
G36*
X111840911Y-138818182D02*
G01*
X111613638Y-138818182D01*
X111613638Y-138590909D01*
X111840911Y-138590909D01*
X111840911Y-138818182D01*
G37*
G36*
X110704547Y-139954546D02*
G01*
X110477274Y-139954546D01*
X110477274Y-139727273D01*
X110704547Y-139727273D01*
X110704547Y-139954546D01*
G37*
G36*
X107522727Y-142000002D02*
G01*
X107295454Y-142000002D01*
X107295454Y-141772729D01*
X107522727Y-141772729D01*
X107522727Y-142000002D01*
G37*
G36*
X110931820Y-138590909D02*
G01*
X110704547Y-138590909D01*
X110704547Y-138363636D01*
X110931820Y-138363636D01*
X110931820Y-138590909D01*
G37*
G36*
X110250001Y-137454545D02*
G01*
X110022728Y-137454545D01*
X110022728Y-137227272D01*
X110250001Y-137227272D01*
X110250001Y-137454545D01*
G37*
G36*
X110022728Y-138136363D02*
G01*
X109795456Y-138136363D01*
X109795456Y-137909090D01*
X110022728Y-137909090D01*
X110022728Y-138136363D01*
G37*
G36*
X107295454Y-134954544D02*
G01*
X107068182Y-134954544D01*
X107068182Y-134727271D01*
X107295454Y-134727271D01*
X107295454Y-134954544D01*
G37*
G36*
X109113637Y-140863637D02*
G01*
X108886364Y-140863637D01*
X108886364Y-140636364D01*
X109113637Y-140636364D01*
X109113637Y-140863637D01*
G37*
G36*
X107750000Y-139045455D02*
G01*
X107522727Y-139045455D01*
X107522727Y-138818182D01*
X107750000Y-138818182D01*
X107750000Y-139045455D01*
G37*
G36*
X112295457Y-137681818D02*
G01*
X112068184Y-137681818D01*
X112068184Y-137454545D01*
X112295457Y-137454545D01*
X112295457Y-137681818D01*
G37*
G36*
X108431819Y-135863635D02*
G01*
X108204546Y-135863635D01*
X108204546Y-135636362D01*
X108431819Y-135636362D01*
X108431819Y-135863635D01*
G37*
G36*
X112068184Y-138136363D02*
G01*
X111840911Y-138136363D01*
X111840911Y-137909090D01*
X112068184Y-137909090D01*
X112068184Y-138136363D01*
G37*
G36*
X110931820Y-141772729D02*
G01*
X110704547Y-141772729D01*
X110704547Y-141545456D01*
X110931820Y-141545456D01*
X110931820Y-141772729D01*
G37*
G36*
X110250001Y-136772726D02*
G01*
X110022728Y-136772726D01*
X110022728Y-136545453D01*
X110250001Y-136545453D01*
X110250001Y-136772726D01*
G37*
G36*
X107295454Y-142000002D02*
G01*
X107068182Y-142000002D01*
X107068182Y-141772729D01*
X107295454Y-141772729D01*
X107295454Y-142000002D01*
G37*
G36*
X109340910Y-137909090D02*
G01*
X109113637Y-137909090D01*
X109113637Y-137681818D01*
X109340910Y-137681818D01*
X109340910Y-137909090D01*
G37*
G36*
X108204546Y-138818182D02*
G01*
X107977273Y-138818182D01*
X107977273Y-138590909D01*
X108204546Y-138590909D01*
X108204546Y-138818182D01*
G37*
G36*
X110250001Y-135863635D02*
G01*
X110022728Y-135863635D01*
X110022728Y-135636362D01*
X110250001Y-135636362D01*
X110250001Y-135863635D01*
G37*
G36*
X109340910Y-134727271D02*
G01*
X109113637Y-134727271D01*
X109113637Y-134499998D01*
X109340910Y-134499998D01*
X109340910Y-134727271D01*
G37*
G36*
X110704547Y-137454545D02*
G01*
X110477274Y-137454545D01*
X110477274Y-137227272D01*
X110704547Y-137227272D01*
X110704547Y-137454545D01*
G37*
G36*
X107750000Y-139727273D02*
G01*
X107522727Y-139727273D01*
X107522727Y-139500000D01*
X107750000Y-139500000D01*
X107750000Y-139727273D01*
G37*
G36*
X110250001Y-137681818D02*
G01*
X110022728Y-137681818D01*
X110022728Y-137454545D01*
X110250001Y-137454545D01*
X110250001Y-137681818D01*
G37*
G36*
X107750000Y-141772729D02*
G01*
X107522727Y-141772729D01*
X107522727Y-141545456D01*
X107750000Y-141545456D01*
X107750000Y-141772729D01*
G37*
G36*
X107295454Y-137227272D02*
G01*
X107068182Y-137227272D01*
X107068182Y-136999999D01*
X107295454Y-136999999D01*
X107295454Y-137227272D01*
G37*
G36*
X108886364Y-140409092D02*
G01*
X108659091Y-140409092D01*
X108659091Y-140181819D01*
X108886364Y-140181819D01*
X108886364Y-140409092D01*
G37*
G36*
X108659091Y-140409092D02*
G01*
X108431819Y-140409092D01*
X108431819Y-140181819D01*
X108659091Y-140181819D01*
X108659091Y-140409092D01*
G37*
G36*
X111840911Y-141090910D02*
G01*
X111613638Y-141090910D01*
X111613638Y-140863637D01*
X111840911Y-140863637D01*
X111840911Y-141090910D01*
G37*
G36*
X109113637Y-142000002D02*
G01*
X108886364Y-142000002D01*
X108886364Y-141772729D01*
X109113637Y-141772729D01*
X109113637Y-142000002D01*
G37*
G36*
X105477272Y-137454545D02*
G01*
X105249999Y-137454545D01*
X105249999Y-137227272D01*
X105477272Y-137227272D01*
X105477272Y-137454545D01*
G37*
G36*
X110477274Y-135181816D02*
G01*
X110250001Y-135181816D01*
X110250001Y-134954544D01*
X110477274Y-134954544D01*
X110477274Y-135181816D01*
G37*
G36*
X109568183Y-136545453D02*
G01*
X109340910Y-136545453D01*
X109340910Y-136318181D01*
X109568183Y-136318181D01*
X109568183Y-136545453D01*
G37*
G36*
X106840909Y-136545453D02*
G01*
X106613636Y-136545453D01*
X106613636Y-136318181D01*
X106840909Y-136318181D01*
X106840909Y-136545453D01*
G37*
G36*
X112522730Y-138590909D02*
G01*
X112295457Y-138590909D01*
X112295457Y-138363636D01*
X112522730Y-138363636D01*
X112522730Y-138590909D01*
G37*
G36*
X108659091Y-136999999D02*
G01*
X108431819Y-136999999D01*
X108431819Y-136772726D01*
X108659091Y-136772726D01*
X108659091Y-136999999D01*
G37*
G36*
X112522730Y-137454545D02*
G01*
X112295457Y-137454545D01*
X112295457Y-137227272D01*
X112522730Y-137227272D01*
X112522730Y-137454545D01*
G37*
G36*
X107295454Y-139272727D02*
G01*
X107068182Y-139272727D01*
X107068182Y-139045455D01*
X107295454Y-139045455D01*
X107295454Y-139272727D01*
G37*
G36*
X105477272Y-138363636D02*
G01*
X105249999Y-138363636D01*
X105249999Y-138136363D01*
X105477272Y-138136363D01*
X105477272Y-138363636D01*
G37*
G36*
X107750000Y-134727271D02*
G01*
X107522727Y-134727271D01*
X107522727Y-134499998D01*
X107750000Y-134499998D01*
X107750000Y-134727271D01*
G37*
G36*
X112522730Y-136999999D02*
G01*
X112295457Y-136999999D01*
X112295457Y-136772726D01*
X112522730Y-136772726D01*
X112522730Y-136999999D01*
G37*
G36*
X112295457Y-138363636D02*
G01*
X112068184Y-138363636D01*
X112068184Y-138136363D01*
X112295457Y-138136363D01*
X112295457Y-138363636D01*
G37*
G36*
X107522727Y-136999999D02*
G01*
X107295454Y-136999999D01*
X107295454Y-136772726D01*
X107522727Y-136772726D01*
X107522727Y-136999999D01*
G37*
G36*
X105931817Y-137454545D02*
G01*
X105704545Y-137454545D01*
X105704545Y-137227272D01*
X105931817Y-137227272D01*
X105931817Y-137454545D01*
G37*
G36*
X109568183Y-139954546D02*
G01*
X109340910Y-139954546D01*
X109340910Y-139727273D01*
X109568183Y-139727273D01*
X109568183Y-139954546D01*
G37*
G36*
X107068182Y-140181819D02*
G01*
X106840909Y-140181819D01*
X106840909Y-139954546D01*
X107068182Y-139954546D01*
X107068182Y-140181819D01*
G37*
G36*
X112522730Y-139954546D02*
G01*
X112295457Y-139954546D01*
X112295457Y-139727273D01*
X112522730Y-139727273D01*
X112522730Y-139954546D01*
G37*
G36*
X111159093Y-141090910D02*
G01*
X110931820Y-141090910D01*
X110931820Y-140863637D01*
X111159093Y-140863637D01*
X111159093Y-141090910D01*
G37*
G36*
X107068182Y-137909090D02*
G01*
X106840909Y-137909090D01*
X106840909Y-137681818D01*
X107068182Y-137681818D01*
X107068182Y-137909090D01*
G37*
G36*
X110250001Y-141318183D02*
G01*
X110022728Y-141318183D01*
X110022728Y-141090910D01*
X110250001Y-141090910D01*
X110250001Y-141318183D01*
G37*
G36*
X107750000Y-136318181D02*
G01*
X107522727Y-136318181D01*
X107522727Y-136090908D01*
X107750000Y-136090908D01*
X107750000Y-136318181D01*
G37*
G36*
X107750000Y-139500000D02*
G01*
X107522727Y-139500000D01*
X107522727Y-139272727D01*
X107750000Y-139272727D01*
X107750000Y-139500000D01*
G37*
G36*
X106386363Y-135636362D02*
G01*
X105704545Y-135636362D01*
X105704545Y-134954544D01*
X106386363Y-134954544D01*
X106386363Y-135636362D01*
G37*
G36*
X112750003Y-140181819D02*
G01*
X112522730Y-140181819D01*
X112522730Y-139954546D01*
X112750003Y-139954546D01*
X112750003Y-140181819D01*
G37*
G36*
X110477274Y-140181819D02*
G01*
X110250001Y-140181819D01*
X110250001Y-139954546D01*
X110477274Y-139954546D01*
X110477274Y-140181819D01*
G37*
G36*
X107522727Y-140863637D02*
G01*
X107295454Y-140863637D01*
X107295454Y-140636364D01*
X107522727Y-140636364D01*
X107522727Y-140863637D01*
G37*
G36*
X108886364Y-139045455D02*
G01*
X108659091Y-139045455D01*
X108659091Y-138818182D01*
X108886364Y-138818182D01*
X108886364Y-139045455D01*
G37*
G36*
X110022728Y-135636362D02*
G01*
X109795456Y-135636362D01*
X109795456Y-135409089D01*
X110022728Y-135409089D01*
X110022728Y-135636362D01*
G37*
G36*
X105931817Y-136772726D02*
G01*
X105704545Y-136772726D01*
X105704545Y-136545453D01*
X105931817Y-136545453D01*
X105931817Y-136772726D01*
G37*
G36*
X106613636Y-136545453D02*
G01*
X106386363Y-136545453D01*
X106386363Y-136318181D01*
X106613636Y-136318181D01*
X106613636Y-136545453D01*
G37*
G36*
X112295457Y-138136363D02*
G01*
X112068184Y-138136363D01*
X112068184Y-137909090D01*
X112295457Y-137909090D01*
X112295457Y-138136363D01*
G37*
G36*
X109340910Y-137681818D02*
G01*
X109113637Y-137681818D01*
X109113637Y-137454545D01*
X109340910Y-137454545D01*
X109340910Y-137681818D01*
G37*
G36*
X109340910Y-138590909D02*
G01*
X109113637Y-138590909D01*
X109113637Y-138363636D01*
X109340910Y-138363636D01*
X109340910Y-138590909D01*
G37*
G36*
X110477274Y-135863635D02*
G01*
X110250001Y-135863635D01*
X110250001Y-135636362D01*
X110477274Y-135636362D01*
X110477274Y-135863635D01*
G37*
G36*
X111613638Y-139954546D02*
G01*
X111386365Y-139954546D01*
X111386365Y-139727273D01*
X111613638Y-139727273D01*
X111613638Y-139954546D01*
G37*
G36*
X109340910Y-136999999D02*
G01*
X109113637Y-136999999D01*
X109113637Y-136772726D01*
X109340910Y-136772726D01*
X109340910Y-136999999D01*
G37*
G36*
X110704547Y-139500000D02*
G01*
X110477274Y-139500000D01*
X110477274Y-139272727D01*
X110704547Y-139272727D01*
X110704547Y-139500000D01*
G37*
G36*
X108659091Y-141090910D02*
G01*
X108431819Y-141090910D01*
X108431819Y-140863637D01*
X108659091Y-140863637D01*
X108659091Y-141090910D01*
G37*
G36*
X111613638Y-138818182D02*
G01*
X111386365Y-138818182D01*
X111386365Y-138590909D01*
X111613638Y-138590909D01*
X111613638Y-138818182D01*
G37*
G36*
X106840909Y-137909090D02*
G01*
X106613636Y-137909090D01*
X106613636Y-137681818D01*
X106840909Y-137681818D01*
X106840909Y-137909090D01*
G37*
G36*
X110704547Y-141772729D02*
G01*
X110477274Y-141772729D01*
X110477274Y-141545456D01*
X110704547Y-141545456D01*
X110704547Y-141772729D01*
G37*
G36*
X108204546Y-140863637D02*
G01*
X107977273Y-140863637D01*
X107977273Y-140636364D01*
X108204546Y-140636364D01*
X108204546Y-140863637D01*
G37*
G36*
X109113637Y-137681818D02*
G01*
X108886364Y-137681818D01*
X108886364Y-137454545D01*
X109113637Y-137454545D01*
X109113637Y-137681818D01*
G37*
G36*
X107977273Y-140409092D02*
G01*
X107750000Y-140409092D01*
X107750000Y-140181819D01*
X107977273Y-140181819D01*
X107977273Y-140409092D01*
G37*
G36*
X108431819Y-139045455D02*
G01*
X108204546Y-139045455D01*
X108204546Y-138818182D01*
X108431819Y-138818182D01*
X108431819Y-139045455D01*
G37*
G36*
X110704547Y-136999999D02*
G01*
X110477274Y-136999999D01*
X110477274Y-136772726D01*
X110704547Y-136772726D01*
X110704547Y-136999999D01*
G37*
G36*
X110022728Y-141090910D02*
G01*
X109795456Y-141090910D01*
X109795456Y-140863637D01*
X110022728Y-140863637D01*
X110022728Y-141090910D01*
G37*
G36*
X108659091Y-138136363D02*
G01*
X108431819Y-138136363D01*
X108431819Y-137909090D01*
X108659091Y-137909090D01*
X108659091Y-138136363D01*
G37*
G36*
X111613638Y-141318183D02*
G01*
X111386365Y-141318183D01*
X111386365Y-141090910D01*
X111613638Y-141090910D01*
X111613638Y-141318183D01*
G37*
G36*
X108204546Y-138590909D02*
G01*
X107977273Y-138590909D01*
X107977273Y-138363636D01*
X108204546Y-138363636D01*
X108204546Y-138590909D01*
G37*
G36*
X109113637Y-141772729D02*
G01*
X108886364Y-141772729D01*
X108886364Y-141545456D01*
X109113637Y-141545456D01*
X109113637Y-141772729D01*
G37*
G36*
X110931820Y-136318181D02*
G01*
X110704547Y-136318181D01*
X110704547Y-136090908D01*
X110931820Y-136090908D01*
X110931820Y-136318181D01*
G37*
G36*
X110022728Y-135181816D02*
G01*
X109795456Y-135181816D01*
X109795456Y-134954544D01*
X110022728Y-134954544D01*
X110022728Y-135181816D01*
G37*
G36*
X111159093Y-139727273D02*
G01*
X110931820Y-139727273D01*
X110931820Y-139500000D01*
X111159093Y-139500000D01*
X111159093Y-139727273D01*
G37*
G36*
X110022728Y-138590909D02*
G01*
X109795456Y-138590909D01*
X109795456Y-138363636D01*
X110022728Y-138363636D01*
X110022728Y-138590909D01*
G37*
G36*
X110250001Y-140863637D02*
G01*
X110022728Y-140863637D01*
X110022728Y-140636364D01*
X110250001Y-140636364D01*
X110250001Y-140863637D01*
G37*
G36*
X107522727Y-139500000D02*
G01*
X107295454Y-139500000D01*
X107295454Y-139272727D01*
X107522727Y-139272727D01*
X107522727Y-139500000D01*
G37*
G36*
X107750000Y-136999999D02*
G01*
X107522727Y-136999999D01*
X107522727Y-136772726D01*
X107750000Y-136772726D01*
X107750000Y-136999999D01*
G37*
G36*
X112068184Y-139954546D02*
G01*
X111840911Y-139954546D01*
X111840911Y-139727273D01*
X112068184Y-139727273D01*
X112068184Y-139954546D01*
G37*
G36*
X111840911Y-140636364D02*
G01*
X111613638Y-140636364D01*
X111613638Y-140409092D01*
X111840911Y-140409092D01*
X111840911Y-140636364D01*
G37*
G36*
X106159090Y-138136363D02*
G01*
X105931817Y-138136363D01*
X105931817Y-137909090D01*
X106159090Y-137909090D01*
X106159090Y-138136363D01*
G37*
G36*
X109113637Y-137909090D02*
G01*
X108886364Y-137909090D01*
X108886364Y-137681818D01*
X109113637Y-137681818D01*
X109113637Y-137909090D01*
G37*
G36*
X109340910Y-140181819D02*
G01*
X109113637Y-140181819D01*
X109113637Y-139954546D01*
X109340910Y-139954546D01*
X109340910Y-140181819D01*
G37*
G36*
X107750000Y-136772726D02*
G01*
X107522727Y-136772726D01*
X107522727Y-136545453D01*
X107750000Y-136545453D01*
X107750000Y-136772726D01*
G37*
G36*
X106613636Y-137681818D02*
G01*
X106386363Y-137681818D01*
X106386363Y-137454545D01*
X106613636Y-137454545D01*
X106613636Y-137681818D01*
G37*
G36*
X108204546Y-137681818D02*
G01*
X107977273Y-137681818D01*
X107977273Y-137454545D01*
X108204546Y-137454545D01*
X108204546Y-137681818D01*
G37*
G36*
X106386363Y-137909090D02*
G01*
X106159090Y-137909090D01*
X106159090Y-137681818D01*
X106386363Y-137681818D01*
X106386363Y-137909090D01*
G37*
G36*
X107750000Y-139954546D02*
G01*
X107522727Y-139954546D01*
X107522727Y-139727273D01*
X107750000Y-139727273D01*
X107750000Y-139954546D01*
G37*
G36*
X109795456Y-138590909D02*
G01*
X109568183Y-138590909D01*
X109568183Y-138363636D01*
X109795456Y-138363636D01*
X109795456Y-138590909D01*
G37*
G36*
X109568183Y-138363636D02*
G01*
X109340910Y-138363636D01*
X109340910Y-138136363D01*
X109568183Y-138136363D01*
X109568183Y-138363636D01*
G37*
G36*
X110022728Y-135409089D02*
G01*
X109795456Y-135409089D01*
X109795456Y-135181816D01*
X110022728Y-135181816D01*
X110022728Y-135409089D01*
G37*
G36*
X111613638Y-137454545D02*
G01*
X111386365Y-137454545D01*
X111386365Y-137227272D01*
X111613638Y-137227272D01*
X111613638Y-137454545D01*
G37*
G36*
X107522727Y-138818182D02*
G01*
X107295454Y-138818182D01*
X107295454Y-138590909D01*
X107522727Y-138590909D01*
X107522727Y-138818182D01*
G37*
G36*
X110704547Y-138363636D02*
G01*
X110477274Y-138363636D01*
X110477274Y-138136363D01*
X110704547Y-138136363D01*
X110704547Y-138363636D01*
G37*
G36*
X108204546Y-136090908D02*
G01*
X107977273Y-136090908D01*
X107977273Y-135863635D01*
X108204546Y-135863635D01*
X108204546Y-136090908D01*
G37*
G36*
X107522727Y-141545456D02*
G01*
X107295454Y-141545456D01*
X107295454Y-141318183D01*
X107522727Y-141318183D01*
X107522727Y-141545456D01*
G37*
G36*
X105477272Y-138818182D02*
G01*
X105249999Y-138818182D01*
X105249999Y-138590909D01*
X105477272Y-138590909D01*
X105477272Y-138818182D01*
G37*
G36*
X110477274Y-140636364D02*
G01*
X110250001Y-140636364D01*
X110250001Y-140409092D01*
X110477274Y-140409092D01*
X110477274Y-140636364D01*
G37*
G36*
X105704545Y-139272727D02*
G01*
X105477272Y-139272727D01*
X105477272Y-139045455D01*
X105704545Y-139045455D01*
X105704545Y-139272727D01*
G37*
G36*
X111840911Y-136999999D02*
G01*
X111613638Y-136999999D01*
X111613638Y-136772726D01*
X111840911Y-136772726D01*
X111840911Y-136999999D01*
G37*
G36*
X107977273Y-135636362D02*
G01*
X107750000Y-135636362D01*
X107750000Y-135409089D01*
X107977273Y-135409089D01*
X107977273Y-135636362D01*
G37*
G36*
X112295457Y-139500000D02*
G01*
X112068184Y-139500000D01*
X112068184Y-139272727D01*
X112295457Y-139272727D01*
X112295457Y-139500000D01*
G37*
G36*
X109340910Y-141545456D02*
G01*
X109113637Y-141545456D01*
X109113637Y-141318183D01*
X109340910Y-141318183D01*
X109340910Y-141545456D01*
G37*
G36*
X111840911Y-141772729D02*
G01*
X111613638Y-141772729D01*
X111613638Y-141545456D01*
X111840911Y-141545456D01*
X111840911Y-141772729D01*
G37*
G36*
X111840911Y-139045455D02*
G01*
X111613638Y-139045455D01*
X111613638Y-138818182D01*
X111840911Y-138818182D01*
X111840911Y-139045455D01*
G37*
G36*
X109113637Y-139954546D02*
G01*
X108886364Y-139954546D01*
X108886364Y-139727273D01*
X109113637Y-139727273D01*
X109113637Y-139954546D01*
G37*
G36*
X110022728Y-138818182D02*
G01*
X109795456Y-138818182D01*
X109795456Y-138590909D01*
X110022728Y-138590909D01*
X110022728Y-138818182D01*
G37*
G36*
X108659091Y-134727271D02*
G01*
X108431819Y-134727271D01*
X108431819Y-134499998D01*
X108659091Y-134499998D01*
X108659091Y-134727271D01*
G37*
G36*
X111840911Y-138136363D02*
G01*
X111613638Y-138136363D01*
X111613638Y-137909090D01*
X111840911Y-137909090D01*
X111840911Y-138136363D01*
G37*
G36*
X108886364Y-137909090D02*
G01*
X108659091Y-137909090D01*
X108659091Y-137681818D01*
X108886364Y-137681818D01*
X108886364Y-137909090D01*
G37*
G36*
X107977273Y-139500000D02*
G01*
X107750000Y-139500000D01*
X107750000Y-139272727D01*
X107977273Y-139272727D01*
X107977273Y-139500000D01*
G37*
G36*
X112068184Y-138590909D02*
G01*
X111840911Y-138590909D01*
X111840911Y-138363636D01*
X112068184Y-138363636D01*
X112068184Y-138590909D01*
G37*
G36*
X108431819Y-134727271D02*
G01*
X108204546Y-134727271D01*
X108204546Y-134499998D01*
X108431819Y-134499998D01*
X108431819Y-134727271D01*
G37*
G36*
X111386365Y-141772729D02*
G01*
X111159093Y-141772729D01*
X111159093Y-141545456D01*
X111386365Y-141545456D01*
X111386365Y-141772729D01*
G37*
G36*
X107977273Y-136772726D02*
G01*
X107750000Y-136772726D01*
X107750000Y-136545453D01*
X107977273Y-136545453D01*
X107977273Y-136772726D01*
G37*
G36*
X109568183Y-141545456D02*
G01*
X109340910Y-141545456D01*
X109340910Y-141318183D01*
X109568183Y-141318183D01*
X109568183Y-141545456D01*
G37*
G36*
X107522727Y-139954546D02*
G01*
X107295454Y-139954546D01*
X107295454Y-139727273D01*
X107522727Y-139727273D01*
X107522727Y-139954546D01*
G37*
G36*
X109568183Y-136318181D02*
G01*
X109340910Y-136318181D01*
X109340910Y-136090908D01*
X109568183Y-136090908D01*
X109568183Y-136318181D01*
G37*
G36*
X111613638Y-141772729D02*
G01*
X111386365Y-141772729D01*
X111386365Y-141545456D01*
X111613638Y-141545456D01*
X111613638Y-141772729D01*
G37*
G36*
X111840911Y-140409092D02*
G01*
X111613638Y-140409092D01*
X111613638Y-140181819D01*
X111840911Y-140181819D01*
X111840911Y-140409092D01*
G37*
G36*
X109795456Y-138136363D02*
G01*
X109568183Y-138136363D01*
X109568183Y-137909090D01*
X109795456Y-137909090D01*
X109795456Y-138136363D01*
G37*
G36*
X109340910Y-141772729D02*
G01*
X109113637Y-141772729D01*
X109113637Y-141545456D01*
X109340910Y-141545456D01*
X109340910Y-141772729D01*
G37*
G36*
X107295454Y-138818182D02*
G01*
X107068182Y-138818182D01*
X107068182Y-138590909D01*
X107295454Y-138590909D01*
X107295454Y-138818182D01*
G37*
G36*
X111840911Y-139727273D02*
G01*
X111613638Y-139727273D01*
X111613638Y-139500000D01*
X111840911Y-139500000D01*
X111840911Y-139727273D01*
G37*
G36*
X111613638Y-140181819D02*
G01*
X111386365Y-140181819D01*
X111386365Y-139954546D01*
X111613638Y-139954546D01*
X111613638Y-140181819D01*
G37*
G36*
X107068182Y-139500000D02*
G01*
X106840909Y-139500000D01*
X106840909Y-139272727D01*
X107068182Y-139272727D01*
X107068182Y-139500000D01*
G37*
G36*
X110022728Y-140409092D02*
G01*
X109795456Y-140409092D01*
X109795456Y-140181819D01*
X110022728Y-140181819D01*
X110022728Y-140409092D01*
G37*
G36*
X112522730Y-140181819D02*
G01*
X112295457Y-140181819D01*
X112295457Y-139954546D01*
X112522730Y-139954546D01*
X112522730Y-140181819D01*
G37*
G36*
X107977273Y-134727271D02*
G01*
X107750000Y-134727271D01*
X107750000Y-134499998D01*
X107977273Y-134499998D01*
X107977273Y-134727271D01*
G37*
G36*
X108431819Y-134954544D02*
G01*
X108204546Y-134954544D01*
X108204546Y-134727271D01*
X108431819Y-134727271D01*
X108431819Y-134954544D01*
G37*
G36*
X110477274Y-136090908D02*
G01*
X110250001Y-136090908D01*
X110250001Y-135863635D01*
X110477274Y-135863635D01*
X110477274Y-136090908D01*
G37*
G36*
X111386365Y-136772726D02*
G01*
X111159093Y-136772726D01*
X111159093Y-136545453D01*
X111386365Y-136545453D01*
X111386365Y-136772726D01*
G37*
G36*
X110931820Y-137454545D02*
G01*
X110704547Y-137454545D01*
X110704547Y-137227272D01*
X110931820Y-137227272D01*
X110931820Y-137454545D01*
G37*
G36*
X111840911Y-140181819D02*
G01*
X111613638Y-140181819D01*
X111613638Y-139954546D01*
X111840911Y-139954546D01*
X111840911Y-140181819D01*
G37*
G36*
X112068184Y-139272727D02*
G01*
X111840911Y-139272727D01*
X111840911Y-139045455D01*
X112068184Y-139045455D01*
X112068184Y-139272727D01*
G37*
G36*
X106386363Y-136772726D02*
G01*
X106159090Y-136772726D01*
X106159090Y-136545453D01*
X106386363Y-136545453D01*
X106386363Y-136772726D01*
G37*
G36*
X109113637Y-136999999D02*
G01*
X108886364Y-136999999D01*
X108886364Y-136772726D01*
X109113637Y-136772726D01*
X109113637Y-136999999D01*
G37*
G36*
X109340910Y-138818182D02*
G01*
X109113637Y-138818182D01*
X109113637Y-138590909D01*
X109340910Y-138590909D01*
X109340910Y-138818182D01*
G37*
G36*
X108886364Y-139500000D02*
G01*
X108659091Y-139500000D01*
X108659091Y-139272727D01*
X108886364Y-139272727D01*
X108886364Y-139500000D01*
G37*
G36*
X107977273Y-140863637D02*
G01*
X107750000Y-140863637D01*
X107750000Y-140636364D01*
X107977273Y-140636364D01*
X107977273Y-140863637D01*
G37*
G36*
X108659091Y-140636364D02*
G01*
X108431819Y-140636364D01*
X108431819Y-140409092D01*
X108659091Y-140409092D01*
X108659091Y-140636364D01*
G37*
G36*
X110477274Y-135409089D02*
G01*
X110250001Y-135409089D01*
X110250001Y-135181816D01*
X110477274Y-135181816D01*
X110477274Y-135409089D01*
G37*
G36*
X112522730Y-138818182D02*
G01*
X112295457Y-138818182D01*
X112295457Y-138590909D01*
X112522730Y-138590909D01*
X112522730Y-138818182D01*
G37*
G36*
X105931817Y-137909090D02*
G01*
X105704545Y-137909090D01*
X105704545Y-137681818D01*
X105931817Y-137681818D01*
X105931817Y-137909090D01*
G37*
G36*
X109113637Y-135409089D02*
G01*
X108886364Y-135409089D01*
X108886364Y-135181816D01*
X109113637Y-135181816D01*
X109113637Y-135409089D01*
G37*
G36*
X109340910Y-139727273D02*
G01*
X109113637Y-139727273D01*
X109113637Y-139500000D01*
X109340910Y-139500000D01*
X109340910Y-139727273D01*
G37*
G36*
X111159093Y-140181819D02*
G01*
X110931820Y-140181819D01*
X110931820Y-139954546D01*
X111159093Y-139954546D01*
X111159093Y-140181819D01*
G37*
G36*
X106840909Y-139727273D02*
G01*
X106613636Y-139727273D01*
X106613636Y-139500000D01*
X106840909Y-139500000D01*
X106840909Y-139727273D01*
G37*
G36*
X106840909Y-138818182D02*
G01*
X106613636Y-138818182D01*
X106613636Y-138590909D01*
X106840909Y-138590909D01*
X106840909Y-138818182D01*
G37*
G36*
X108204546Y-140409092D02*
G01*
X107977273Y-140409092D01*
X107977273Y-140181819D01*
X108204546Y-140181819D01*
X108204546Y-140409092D01*
G37*
G36*
X106386363Y-141545456D02*
G01*
X105704545Y-141545456D01*
X105704545Y-140863637D01*
X106386363Y-140863637D01*
X106386363Y-141545456D01*
G37*
G36*
X105704545Y-138136363D02*
G01*
X105477272Y-138136363D01*
X105477272Y-137909090D01*
X105704545Y-137909090D01*
X105704545Y-138136363D01*
G37*
G36*
X112750003Y-137454545D02*
G01*
X112522730Y-137454545D01*
X112522730Y-137227272D01*
X112750003Y-137227272D01*
X112750003Y-137454545D01*
G37*
G36*
X112295457Y-138818182D02*
G01*
X112068184Y-138818182D01*
X112068184Y-138590909D01*
X112295457Y-138590909D01*
X112295457Y-138818182D01*
G37*
G36*
X106840909Y-139272727D02*
G01*
X106613636Y-139272727D01*
X106613636Y-139045455D01*
X106840909Y-139045455D01*
X106840909Y-139272727D01*
G37*
G36*
X112522730Y-139045455D02*
G01*
X112295457Y-139045455D01*
X112295457Y-138818182D01*
X112522730Y-138818182D01*
X112522730Y-139045455D01*
G37*
G36*
X108431819Y-137227272D02*
G01*
X108204546Y-137227272D01*
X108204546Y-136999999D01*
X108431819Y-136999999D01*
X108431819Y-137227272D01*
G37*
G36*
X112068184Y-140409092D02*
G01*
X111840911Y-140409092D01*
X111840911Y-140181819D01*
X112068184Y-140181819D01*
X112068184Y-140409092D01*
G37*
G36*
X106840909Y-136999999D02*
G01*
X106613636Y-136999999D01*
X106613636Y-136772726D01*
X106840909Y-136772726D01*
X106840909Y-136999999D01*
G37*
G36*
X106840909Y-142000002D02*
G01*
X105249999Y-142000002D01*
X105249999Y-141761365D01*
X105249999Y-140647728D01*
X105488635Y-140647728D01*
X105488635Y-141761365D01*
X106602272Y-141761365D01*
X106602272Y-140647728D01*
X105488635Y-140647728D01*
X105249999Y-140647728D01*
X105249999Y-140409092D01*
X106840909Y-140409092D01*
X106840909Y-142000002D01*
G37*
G36*
X106159090Y-138818182D02*
G01*
X105931817Y-138818182D01*
X105931817Y-138590909D01*
X106159090Y-138590909D01*
X106159090Y-138818182D01*
G37*
G36*
X110931820Y-141090910D02*
G01*
X110704547Y-141090910D01*
X110704547Y-140863637D01*
X110931820Y-140863637D01*
X110931820Y-141090910D01*
G37*
G36*
X108886364Y-138818182D02*
G01*
X108659091Y-138818182D01*
X108659091Y-138590909D01*
X108886364Y-138590909D01*
X108886364Y-138818182D01*
G37*
G36*
X105931817Y-136545453D02*
G01*
X105704545Y-136545453D01*
X105704545Y-136318181D01*
X105931817Y-136318181D01*
X105931817Y-136545453D01*
G37*
G36*
X106159090Y-137227272D02*
G01*
X105931817Y-137227272D01*
X105931817Y-136999999D01*
X106159090Y-136999999D01*
X106159090Y-137227272D01*
G37*
G36*
X107750000Y-135181816D02*
G01*
X107522727Y-135181816D01*
X107522727Y-134954544D01*
X107750000Y-134954544D01*
X107750000Y-135181816D01*
G37*
G36*
X112068184Y-140863637D02*
G01*
X111840911Y-140863637D01*
X111840911Y-140636364D01*
X112068184Y-140636364D01*
X112068184Y-140863637D01*
G37*
G36*
X105931817Y-139500000D02*
G01*
X105704545Y-139500000D01*
X105704545Y-139272727D01*
X105931817Y-139272727D01*
X105931817Y-139500000D01*
G37*
G36*
X108659091Y-141545456D02*
G01*
X108431819Y-141545456D01*
X108431819Y-141318183D01*
X108659091Y-141318183D01*
X108659091Y-141545456D01*
G37*
G36*
X108431819Y-138590909D02*
G01*
X108204546Y-138590909D01*
X108204546Y-138363636D01*
X108431819Y-138363636D01*
X108431819Y-138590909D01*
G37*
G36*
X106840909Y-140181819D02*
G01*
X106613636Y-140181819D01*
X106613636Y-139954546D01*
X106840909Y-139954546D01*
X106840909Y-140181819D01*
G37*
G36*
X109340910Y-141318183D02*
G01*
X109113637Y-141318183D01*
X109113637Y-141090910D01*
X109340910Y-141090910D01*
X109340910Y-141318183D01*
G37*
G36*
X110704547Y-140181819D02*
G01*
X110477274Y-140181819D01*
X110477274Y-139954546D01*
X110704547Y-139954546D01*
X110704547Y-140181819D01*
G37*
G36*
X107295454Y-141545456D02*
G01*
X107068182Y-141545456D01*
X107068182Y-141318183D01*
X107295454Y-141318183D01*
X107295454Y-141545456D01*
G37*
G36*
X110704547Y-141318183D02*
G01*
X110477274Y-141318183D01*
X110477274Y-141090910D01*
X110704547Y-141090910D01*
X110704547Y-141318183D01*
G37*
G36*
X106159090Y-136772726D02*
G01*
X105931817Y-136772726D01*
X105931817Y-136545453D01*
X106159090Y-136545453D01*
X106159090Y-136772726D01*
G37*
G36*
X110250001Y-135181816D02*
G01*
X110022728Y-135181816D01*
X110022728Y-134954544D01*
X110250001Y-134954544D01*
X110250001Y-135181816D01*
G37*
G36*
X105477272Y-139500000D02*
G01*
X105249999Y-139500000D01*
X105249999Y-139272727D01*
X105477272Y-139272727D01*
X105477272Y-139500000D01*
G37*
G36*
X107750000Y-138136363D02*
G01*
X107522727Y-138136363D01*
X107522727Y-137909090D01*
X107750000Y-137909090D01*
X107750000Y-138136363D01*
G37*
G36*
X111613638Y-136999999D02*
G01*
X111386365Y-136999999D01*
X111386365Y-136772726D01*
X111613638Y-136772726D01*
X111613638Y-136999999D01*
G37*
G36*
X111613638Y-137227272D02*
G01*
X111386365Y-137227272D01*
X111386365Y-136999999D01*
X111613638Y-136999999D01*
X111613638Y-137227272D01*
G37*
G36*
X110931820Y-136090908D02*
G01*
X110704547Y-136090908D01*
X110704547Y-135863635D01*
X110931820Y-135863635D01*
X110931820Y-136090908D01*
G37*
G36*
X110022728Y-136999999D02*
G01*
X109795456Y-136999999D01*
X109795456Y-136772726D01*
X110022728Y-136772726D01*
X110022728Y-136999999D01*
G37*
G36*
X111613638Y-136772726D02*
G01*
X111386365Y-136772726D01*
X111386365Y-136545453D01*
X111613638Y-136545453D01*
X111613638Y-136772726D01*
G37*
G36*
X110931820Y-140181819D02*
G01*
X110704547Y-140181819D01*
X110704547Y-139954546D01*
X110931820Y-139954546D01*
X110931820Y-140181819D01*
G37*
G36*
X110931820Y-137681818D02*
G01*
X110704547Y-137681818D01*
X110704547Y-137454545D01*
X110931820Y-137454545D01*
X110931820Y-137681818D01*
G37*
G36*
X110704547Y-140863637D02*
G01*
X110477274Y-140863637D01*
X110477274Y-140636364D01*
X110704547Y-140636364D01*
X110704547Y-140863637D01*
G37*
G36*
X106159090Y-138590909D02*
G01*
X105931817Y-138590909D01*
X105931817Y-138363636D01*
X106159090Y-138363636D01*
X106159090Y-138590909D01*
G37*
G36*
X109568183Y-139500000D02*
G01*
X109340910Y-139500000D01*
X109340910Y-139272727D01*
X109568183Y-139272727D01*
X109568183Y-139500000D01*
G37*
G36*
X110477274Y-138363636D02*
G01*
X110250001Y-138363636D01*
X110250001Y-138136363D01*
X110477274Y-138136363D01*
X110477274Y-138363636D01*
G37*
G36*
X110704547Y-139727273D02*
G01*
X110477274Y-139727273D01*
X110477274Y-139500000D01*
X110704547Y-139500000D01*
X110704547Y-139727273D01*
G37*
G36*
X107750000Y-140181819D02*
G01*
X107522727Y-140181819D01*
X107522727Y-139954546D01*
X107750000Y-139954546D01*
X107750000Y-140181819D01*
G37*
G36*
X110704547Y-134954544D02*
G01*
X110477274Y-134954544D01*
X110477274Y-134727271D01*
X110704547Y-134727271D01*
X110704547Y-134954544D01*
G37*
G36*
X112295457Y-135636362D02*
G01*
X111613638Y-135636362D01*
X111613638Y-134954544D01*
X112295457Y-134954544D01*
X112295457Y-135636362D01*
G37*
G36*
X106386363Y-139500000D02*
G01*
X106159090Y-139500000D01*
X106159090Y-139272727D01*
X106386363Y-139272727D01*
X106386363Y-139500000D01*
G37*
G36*
X109113637Y-139727273D02*
G01*
X108886364Y-139727273D01*
X108886364Y-139500000D01*
X109113637Y-139500000D01*
X109113637Y-139727273D01*
G37*
G36*
X112522730Y-141318183D02*
G01*
X112295457Y-141318183D01*
X112295457Y-141090910D01*
X112522730Y-141090910D01*
X112522730Y-141318183D01*
G37*
G36*
X112750003Y-141318183D02*
G01*
X112522730Y-141318183D01*
X112522730Y-141090910D01*
X112750003Y-141090910D01*
X112750003Y-141318183D01*
G37*
G36*
X112295457Y-139272727D02*
G01*
X112068184Y-139272727D01*
X112068184Y-139045455D01*
X112295457Y-139045455D01*
X112295457Y-139272727D01*
G37*
G36*
X112522730Y-139727273D02*
G01*
X112295457Y-139727273D01*
X112295457Y-139500000D01*
X112522730Y-139500000D01*
X112522730Y-139727273D01*
G37*
G36*
X111386365Y-138590909D02*
G01*
X111159093Y-138590909D01*
X111159093Y-138363636D01*
X111386365Y-138363636D01*
X111386365Y-138590909D01*
G37*
G36*
X110931820Y-135409089D02*
G01*
X110704547Y-135409089D01*
X110704547Y-135181816D01*
X110931820Y-135181816D01*
X110931820Y-135409089D01*
G37*
G36*
X106159090Y-139954546D02*
G01*
X105931817Y-139954546D01*
X105931817Y-139727273D01*
X106159090Y-139727273D01*
X106159090Y-139954546D01*
G37*
G36*
X108431819Y-141545456D02*
G01*
X108204546Y-141545456D01*
X108204546Y-141318183D01*
X108431819Y-141318183D01*
X108431819Y-141545456D01*
G37*
G36*
X108659091Y-135863635D02*
G01*
X108431819Y-135863635D01*
X108431819Y-135636362D01*
X108659091Y-135636362D01*
X108659091Y-135863635D01*
G37*
G36*
X108431819Y-137681818D02*
G01*
X108204546Y-137681818D01*
X108204546Y-137454545D01*
X108431819Y-137454545D01*
X108431819Y-137681818D01*
G37*
G36*
X110477274Y-134954544D02*
G01*
X110250001Y-134954544D01*
X110250001Y-134727271D01*
X110477274Y-134727271D01*
X110477274Y-134954544D01*
G37*
G36*
X111386365Y-138363636D02*
G01*
X111159093Y-138363636D01*
X111159093Y-138136363D01*
X111386365Y-138136363D01*
X111386365Y-138363636D01*
G37*
G36*
X110931820Y-134954544D02*
G01*
X110704547Y-134954544D01*
X110704547Y-134727271D01*
X110931820Y-134727271D01*
X110931820Y-134954544D01*
G37*
G36*
X110931820Y-140863637D02*
G01*
X110704547Y-140863637D01*
X110704547Y-140636364D01*
X110931820Y-140636364D01*
X110931820Y-140863637D01*
G37*
G36*
X106386363Y-137681818D02*
G01*
X106159090Y-137681818D01*
X106159090Y-137454545D01*
X106386363Y-137454545D01*
X106386363Y-137681818D01*
G37*
G36*
X107295454Y-136772726D02*
G01*
X107068182Y-136772726D01*
X107068182Y-136545453D01*
X107295454Y-136545453D01*
X107295454Y-136772726D01*
G37*
G36*
X112068184Y-140181819D02*
G01*
X111840911Y-140181819D01*
X111840911Y-139954546D01*
X112068184Y-139954546D01*
X112068184Y-140181819D01*
G37*
G36*
X108659091Y-137227272D02*
G01*
X108431819Y-137227272D01*
X108431819Y-136999999D01*
X108659091Y-136999999D01*
X108659091Y-137227272D01*
G37*
G36*
X111386365Y-139954546D02*
G01*
X111159093Y-139954546D01*
X111159093Y-139727273D01*
X111386365Y-139727273D01*
X111386365Y-139954546D01*
G37*
G36*
X107522727Y-137454545D02*
G01*
X107295454Y-137454545D01*
X107295454Y-137227272D01*
X107522727Y-137227272D01*
X107522727Y-137454545D01*
G37*
G36*
X112068184Y-136999999D02*
G01*
X111840911Y-136999999D01*
X111840911Y-136772726D01*
X112068184Y-136772726D01*
X112068184Y-136999999D01*
G37*
G36*
X110250001Y-135409089D02*
G01*
X110022728Y-135409089D01*
X110022728Y-135181816D01*
X110250001Y-135181816D01*
X110250001Y-135409089D01*
G37*
G36*
X110250001Y-139500000D02*
G01*
X110022728Y-139500000D01*
X110022728Y-139272727D01*
X110250001Y-139272727D01*
X110250001Y-139500000D01*
G37*
G36*
X111613638Y-141545456D02*
G01*
X111386365Y-141545456D01*
X111386365Y-141318183D01*
X111613638Y-141318183D01*
X111613638Y-141545456D01*
G37*
G36*
X110704547Y-134727271D02*
G01*
X110477274Y-134727271D01*
X110477274Y-134499998D01*
X110704547Y-134499998D01*
X110704547Y-134727271D01*
G37*
G36*
X110931820Y-138818182D02*
G01*
X110704547Y-138818182D01*
X110704547Y-138590909D01*
X110931820Y-138590909D01*
X110931820Y-138818182D01*
G37*
G36*
X110022728Y-140863637D02*
G01*
X109795456Y-140863637D01*
X109795456Y-140636364D01*
X110022728Y-140636364D01*
X110022728Y-140863637D01*
G37*
G36*
X108204546Y-138136363D02*
G01*
X107977273Y-138136363D01*
X107977273Y-137909090D01*
X108204546Y-137909090D01*
X108204546Y-138136363D01*
G37*
G36*
X108204546Y-142000002D02*
G01*
X107977273Y-142000002D01*
X107977273Y-141772729D01*
X108204546Y-141772729D01*
X108204546Y-142000002D01*
G37*
G36*
X108204546Y-137909090D02*
G01*
X107977273Y-137909090D01*
X107977273Y-137681818D01*
X108204546Y-137681818D01*
X108204546Y-137909090D01*
G37*
G36*
X107750000Y-140409092D02*
G01*
X107522727Y-140409092D01*
X107522727Y-140181819D01*
X107750000Y-140181819D01*
X107750000Y-140409092D01*
G37*
G36*
X109113637Y-135181816D02*
G01*
X108886364Y-135181816D01*
X108886364Y-134954544D01*
X109113637Y-134954544D01*
X109113637Y-135181816D01*
G37*
G36*
X107977273Y-135863635D02*
G01*
X107750000Y-135863635D01*
X107750000Y-135636362D01*
X107977273Y-135636362D01*
X107977273Y-135863635D01*
G37*
G36*
X110022728Y-140636364D02*
G01*
X109795456Y-140636364D01*
X109795456Y-140409092D01*
X110022728Y-140409092D01*
X110022728Y-140636364D01*
G37*
G36*
X108204546Y-141545456D02*
G01*
X107977273Y-141545456D01*
X107977273Y-141318183D01*
X108204546Y-141318183D01*
X108204546Y-141545456D01*
G37*
G36*
X111386365Y-139045455D02*
G01*
X111159093Y-139045455D01*
X111159093Y-138818182D01*
X111386365Y-138818182D01*
X111386365Y-139045455D01*
G37*
G36*
X108431819Y-137909090D02*
G01*
X108204546Y-137909090D01*
X108204546Y-137681818D01*
X108431819Y-137681818D01*
X108431819Y-137909090D01*
G37*
G36*
X107068182Y-139727273D02*
G01*
X106840909Y-139727273D01*
X106840909Y-139500000D01*
X107068182Y-139500000D01*
X107068182Y-139727273D01*
G37*
G36*
X108204546Y-139500000D02*
G01*
X107977273Y-139500000D01*
X107977273Y-139272727D01*
X108204546Y-139272727D01*
X108204546Y-139500000D01*
G37*
G36*
X111159093Y-136999999D02*
G01*
X110931820Y-136999999D01*
X110931820Y-136772726D01*
X111159093Y-136772726D01*
X111159093Y-136999999D01*
G37*
G36*
X108204546Y-135636362D02*
G01*
X107977273Y-135636362D01*
X107977273Y-135409089D01*
X108204546Y-135409089D01*
X108204546Y-135636362D01*
G37*
G36*
X112068184Y-139727273D02*
G01*
X111840911Y-139727273D01*
X111840911Y-139500000D01*
X112068184Y-139500000D01*
X112068184Y-139727273D01*
G37*
G36*
X108886364Y-138363636D02*
G01*
X108659091Y-138363636D01*
X108659091Y-138136363D01*
X108886364Y-138136363D01*
X108886364Y-138363636D01*
G37*
G36*
X109340910Y-140409092D02*
G01*
X109113637Y-140409092D01*
X109113637Y-140181819D01*
X109340910Y-140181819D01*
X109340910Y-140409092D01*
G37*
G36*
X107295454Y-134727271D02*
G01*
X107068182Y-134727271D01*
X107068182Y-134499998D01*
X107295454Y-134499998D01*
X107295454Y-134727271D01*
G37*
G36*
X107750000Y-137909090D02*
G01*
X107522727Y-137909090D01*
X107522727Y-137681818D01*
X107750000Y-137681818D01*
X107750000Y-137909090D01*
G37*
G36*
X108204546Y-139272727D02*
G01*
X107977273Y-139272727D01*
X107977273Y-139045455D01*
X108204546Y-139045455D01*
X108204546Y-139272727D01*
G37*
G36*
X110477274Y-137681818D02*
G01*
X110250001Y-137681818D01*
X110250001Y-137454545D01*
X110477274Y-137454545D01*
X110477274Y-137681818D01*
G37*
G36*
X108431819Y-141318183D02*
G01*
X108204546Y-141318183D01*
X108204546Y-141090910D01*
X108431819Y-141090910D01*
X108431819Y-141318183D01*
G37*
G36*
X111840911Y-137909090D02*
G01*
X111613638Y-137909090D01*
X111613638Y-137681818D01*
X111840911Y-137681818D01*
X111840911Y-137909090D01*
G37*
G36*
X111159093Y-138363636D02*
G01*
X110931820Y-138363636D01*
X110931820Y-138136363D01*
X111159093Y-138136363D01*
X111159093Y-138363636D01*
G37*
G36*
X109568183Y-141318183D02*
G01*
X109340910Y-141318183D01*
X109340910Y-141090910D01*
X109568183Y-141090910D01*
X109568183Y-141318183D01*
G37*
G36*
X106840909Y-136090908D02*
G01*
X105249999Y-136090908D01*
X105249999Y-135852271D01*
X105249999Y-134738634D01*
X105488635Y-134738634D01*
X105488635Y-135852271D01*
X106602272Y-135852271D01*
X106602272Y-134738634D01*
X105488635Y-134738634D01*
X105249999Y-134738634D01*
X105249999Y-134499998D01*
X106840909Y-134499998D01*
X106840909Y-136090908D01*
G37*
G36*
X112750003Y-139727273D02*
G01*
X112522730Y-139727273D01*
X112522730Y-139500000D01*
X112750003Y-139500000D01*
X112750003Y-139727273D01*
G37*
G36*
X107750000Y-141090910D02*
G01*
X107522727Y-141090910D01*
X107522727Y-140863637D01*
X107750000Y-140863637D01*
X107750000Y-141090910D01*
G37*
G36*
X111159093Y-138590909D02*
G01*
X110931820Y-138590909D01*
X110931820Y-138363636D01*
X111159093Y-138363636D01*
X111159093Y-138590909D01*
G37*
G36*
X112295457Y-141090910D02*
G01*
X112068184Y-141090910D01*
X112068184Y-140863637D01*
X112295457Y-140863637D01*
X112295457Y-141090910D01*
G37*
G36*
X109340910Y-141090910D02*
G01*
X109113637Y-141090910D01*
X109113637Y-140863637D01*
X109340910Y-140863637D01*
X109340910Y-141090910D01*
G37*
G36*
X110022728Y-137227272D02*
G01*
X109795456Y-137227272D01*
X109795456Y-136999999D01*
X110022728Y-136999999D01*
X110022728Y-137227272D01*
G37*
G36*
X107750000Y-142000002D02*
G01*
X107522727Y-142000002D01*
X107522727Y-141772729D01*
X107750000Y-141772729D01*
X107750000Y-142000002D01*
G37*
G36*
X107295454Y-135409089D02*
G01*
X107068182Y-135409089D01*
X107068182Y-135181816D01*
X107295454Y-135181816D01*
X107295454Y-135409089D01*
G37*
G36*
X105477272Y-138590909D02*
G01*
X105249999Y-138590909D01*
X105249999Y-138363636D01*
X105477272Y-138363636D01*
X105477272Y-138590909D01*
G37*
G36*
X108886364Y-140181819D02*
G01*
X108659091Y-140181819D01*
X108659091Y-139954546D01*
X108886364Y-139954546D01*
X108886364Y-140181819D01*
G37*
G36*
X108886364Y-138590909D02*
G01*
X108659091Y-138590909D01*
X108659091Y-138363636D01*
X108886364Y-138363636D01*
X108886364Y-138590909D01*
G37*
G36*
X108204546Y-136772726D02*
G01*
X107977273Y-136772726D01*
X107977273Y-136545453D01*
X108204546Y-136545453D01*
X108204546Y-136772726D01*
G37*
G36*
X107977273Y-141090910D02*
G01*
X107750000Y-141090910D01*
X107750000Y-140863637D01*
X107977273Y-140863637D01*
X107977273Y-141090910D01*
G37*
G36*
X109795456Y-135181816D02*
G01*
X109568183Y-135181816D01*
X109568183Y-134954544D01*
X109795456Y-134954544D01*
X109795456Y-135181816D01*
G37*
G36*
X110022728Y-135863635D02*
G01*
X109795456Y-135863635D01*
X109795456Y-135636362D01*
X110022728Y-135636362D01*
X110022728Y-135863635D01*
G37*
G36*
X110704547Y-142000002D02*
G01*
X110477274Y-142000002D01*
X110477274Y-141772729D01*
X110704547Y-141772729D01*
X110704547Y-142000002D01*
G37*
G36*
X108659091Y-135636362D02*
G01*
X108431819Y-135636362D01*
X108431819Y-135409089D01*
X108659091Y-135409089D01*
X108659091Y-135636362D01*
G37*
G36*
X110931820Y-135181816D02*
G01*
X110704547Y-135181816D01*
X110704547Y-134954544D01*
X110931820Y-134954544D01*
X110931820Y-135181816D01*
G37*
G36*
X111840911Y-140863637D02*
G01*
X111613638Y-140863637D01*
X111613638Y-140636364D01*
X111840911Y-140636364D01*
X111840911Y-140863637D01*
G37*
G36*
X112750003Y-136090908D02*
G01*
X111159093Y-136090908D01*
X111159093Y-135852271D01*
X111159093Y-134738634D01*
X111397729Y-134738634D01*
X111397729Y-135852271D01*
X112511366Y-135852271D01*
X112511366Y-134738634D01*
X111397729Y-134738634D01*
X111159093Y-134738634D01*
X111159093Y-134499998D01*
X112750003Y-134499998D01*
X112750003Y-136090908D01*
G37*
G36*
X109795456Y-141545456D02*
G01*
X109568183Y-141545456D01*
X109568183Y-141318183D01*
X109795456Y-141318183D01*
X109795456Y-141545456D01*
G37*
G36*
X106159090Y-136999999D02*
G01*
X105931817Y-136999999D01*
X105931817Y-136772726D01*
X106159090Y-136772726D01*
X106159090Y-136999999D01*
G37*
G36*
X109568183Y-136090908D02*
G01*
X109340910Y-136090908D01*
X109340910Y-135863635D01*
X109568183Y-135863635D01*
X109568183Y-136090908D01*
G37*
G36*
X110477274Y-138590909D02*
G01*
X110250001Y-138590909D01*
X110250001Y-138363636D01*
X110477274Y-138363636D01*
X110477274Y-138590909D01*
G37*
G36*
X108886364Y-141090910D02*
G01*
X108659091Y-141090910D01*
X108659091Y-140863637D01*
X108886364Y-140863637D01*
X108886364Y-141090910D01*
G37*
G36*
X108431819Y-139954546D02*
G01*
X108204546Y-139954546D01*
X108204546Y-139727273D01*
X108431819Y-139727273D01*
X108431819Y-139954546D01*
G37*
G36*
X107295454Y-138136363D02*
G01*
X107068182Y-138136363D01*
X107068182Y-137909090D01*
X107295454Y-137909090D01*
X107295454Y-138136363D01*
G37*
G36*
X112522730Y-140863637D02*
G01*
X112295457Y-140863637D01*
X112295457Y-140636364D01*
X112522730Y-140636364D01*
X112522730Y-140863637D01*
G37*
G36*
X107522727Y-138590909D02*
G01*
X107295454Y-138590909D01*
X107295454Y-138363636D01*
X107522727Y-138363636D01*
X107522727Y-138590909D01*
G37*
G36*
X107977273Y-139954546D02*
G01*
X107750000Y-139954546D01*
X107750000Y-139727273D01*
X107977273Y-139727273D01*
X107977273Y-139954546D01*
G37*
G36*
X109795456Y-140636364D02*
G01*
X109568183Y-140636364D01*
X109568183Y-140409092D01*
X109795456Y-140409092D01*
X109795456Y-140636364D01*
G37*
G36*
X112522730Y-139272727D02*
G01*
X112295457Y-139272727D01*
X112295457Y-139045455D01*
X112522730Y-139045455D01*
X112522730Y-139272727D01*
G37*
G36*
X105704545Y-138363636D02*
G01*
X105477272Y-138363636D01*
X105477272Y-138136363D01*
X105704545Y-138136363D01*
X105704545Y-138363636D01*
G37*
G36*
X110250001Y-136545453D02*
G01*
X110022728Y-136545453D01*
X110022728Y-136318181D01*
X110250001Y-136318181D01*
X110250001Y-136545453D01*
G37*
G36*
X107750000Y-134954544D02*
G01*
X107522727Y-134954544D01*
X107522727Y-134727271D01*
X107750000Y-134727271D01*
X107750000Y-134954544D01*
G37*
G36*
X107750000Y-136090908D02*
G01*
X107522727Y-136090908D01*
X107522727Y-135863635D01*
X107750000Y-135863635D01*
X107750000Y-136090908D01*
G37*
G36*
X107522727Y-136772726D02*
G01*
X107295454Y-136772726D01*
X107295454Y-136545453D01*
X107522727Y-136545453D01*
X107522727Y-136772726D01*
G37*
G36*
X106613636Y-136999999D02*
G01*
X106386363Y-136999999D01*
X106386363Y-136772726D01*
X106613636Y-136772726D01*
X106613636Y-136999999D01*
G37*
G36*
X112068184Y-136772726D02*
G01*
X111840911Y-136772726D01*
X111840911Y-136545453D01*
X112068184Y-136545453D01*
X112068184Y-136772726D01*
G37*
G36*
X111386365Y-139727273D02*
G01*
X111159093Y-139727273D01*
X111159093Y-139500000D01*
X111386365Y-139500000D01*
X111386365Y-139727273D01*
G37*
G36*
X109795456Y-139954546D02*
G01*
X109568183Y-139954546D01*
X109568183Y-139727273D01*
X109795456Y-139727273D01*
X109795456Y-139954546D01*
G37*
G36*
X107977273Y-137681818D02*
G01*
X107750000Y-137681818D01*
X107750000Y-137454545D01*
X107977273Y-137454545D01*
X107977273Y-137681818D01*
G37*
G36*
X109568183Y-137909090D02*
G01*
X109340910Y-137909090D01*
X109340910Y-137681818D01*
X109568183Y-137681818D01*
X109568183Y-137909090D01*
G37*
G36*
X105931817Y-139954546D02*
G01*
X105704545Y-139954546D01*
X105704545Y-139727273D01*
X105931817Y-139727273D01*
X105931817Y-139954546D01*
G37*
G36*
X109795456Y-137227272D02*
G01*
X109568183Y-137227272D01*
X109568183Y-136999999D01*
X109795456Y-136999999D01*
X109795456Y-137227272D01*
G37*
G36*
X109568183Y-134727271D02*
G01*
X109340910Y-134727271D01*
X109340910Y-134499998D01*
X109568183Y-134499998D01*
X109568183Y-134727271D01*
G37*
G36*
X110250001Y-139727273D02*
G01*
X110022728Y-139727273D01*
X110022728Y-139500000D01*
X110250001Y-139500000D01*
X110250001Y-139727273D01*
G37*
G36*
X107750000Y-135409089D02*
G01*
X107522727Y-135409089D01*
X107522727Y-135181816D01*
X107750000Y-135181816D01*
X107750000Y-135409089D01*
G37*
G36*
X107295454Y-138590909D02*
G01*
X107068182Y-138590909D01*
X107068182Y-138363636D01*
X107295454Y-138363636D01*
X107295454Y-138590909D01*
G37*
G36*
X110704547Y-139045455D02*
G01*
X110477274Y-139045455D01*
X110477274Y-138818182D01*
X110704547Y-138818182D01*
X110704547Y-139045455D01*
G37*
G36*
X109568183Y-139272727D02*
G01*
X109340910Y-139272727D01*
X109340910Y-139045455D01*
X109568183Y-139045455D01*
X109568183Y-139272727D01*
G37*
G36*
X109795456Y-136772726D02*
G01*
X109568183Y-136772726D01*
X109568183Y-136545453D01*
X109795456Y-136545453D01*
X109795456Y-136772726D01*
G37*
G36*
X110022728Y-136090908D02*
G01*
X109795456Y-136090908D01*
X109795456Y-135863635D01*
X110022728Y-135863635D01*
X110022728Y-136090908D01*
G37*
G36*
X108659091Y-139954546D02*
G01*
X108431819Y-139954546D01*
X108431819Y-139727273D01*
X108659091Y-139727273D01*
X108659091Y-139954546D01*
G37*
G36*
X109340910Y-135181816D02*
G01*
X109113637Y-135181816D01*
X109113637Y-134954544D01*
X109340910Y-134954544D01*
X109340910Y-135181816D01*
G37*
G36*
X109340910Y-142000002D02*
G01*
X109113637Y-142000002D01*
X109113637Y-141772729D01*
X109340910Y-141772729D01*
X109340910Y-142000002D01*
G37*
G36*
X109795456Y-136545453D02*
G01*
X109568183Y-136545453D01*
X109568183Y-136318181D01*
X109795456Y-136318181D01*
X109795456Y-136545453D01*
G37*
G36*
X112750003Y-136999999D02*
G01*
X112522730Y-136999999D01*
X112522730Y-136772726D01*
X112750003Y-136772726D01*
X112750003Y-136999999D01*
G37*
G36*
X109568183Y-138136363D02*
G01*
X109340910Y-138136363D01*
X109340910Y-137909090D01*
X109568183Y-137909090D01*
X109568183Y-138136363D01*
G37*
G36*
X108204546Y-135181816D02*
G01*
X107977273Y-135181816D01*
X107977273Y-134954544D01*
X108204546Y-134954544D01*
X108204546Y-135181816D01*
G37*
G36*
X109340910Y-136318181D02*
G01*
X109113637Y-136318181D01*
X109113637Y-136090908D01*
X109340910Y-136090908D01*
X109340910Y-136318181D01*
G37*
G36*
X107522727Y-134954544D02*
G01*
X107295454Y-134954544D01*
X107295454Y-134727271D01*
X107522727Y-134727271D01*
X107522727Y-134954544D01*
G37*
G36*
X109795456Y-135863635D02*
G01*
X109568183Y-135863635D01*
X109568183Y-135636362D01*
X109795456Y-135636362D01*
X109795456Y-135863635D01*
G37*
G36*
X109568183Y-137681818D02*
G01*
X109340910Y-137681818D01*
X109340910Y-137454545D01*
X109568183Y-137454545D01*
X109568183Y-137681818D01*
G37*
G36*
X107295454Y-137681818D02*
G01*
X107068182Y-137681818D01*
X107068182Y-137454545D01*
X107295454Y-137454545D01*
X107295454Y-137681818D01*
G37*
G36*
X110022728Y-136318181D02*
G01*
X109795456Y-136318181D01*
X109795456Y-136090908D01*
X110022728Y-136090908D01*
X110022728Y-136318181D01*
G37*
G36*
X111386365Y-141545456D02*
G01*
X111159093Y-141545456D01*
X111159093Y-141318183D01*
X111386365Y-141318183D01*
X111386365Y-141545456D01*
G37*
G36*
X111386365Y-140181819D02*
G01*
X111159093Y-140181819D01*
X111159093Y-139954546D01*
X111386365Y-139954546D01*
X111386365Y-140181819D01*
G37*
G36*
X112750003Y-136772726D02*
G01*
X112522730Y-136772726D01*
X112522730Y-136545453D01*
X112750003Y-136545453D01*
X112750003Y-136772726D01*
G37*
G36*
X107295454Y-141318183D02*
G01*
X107068182Y-141318183D01*
X107068182Y-141090910D01*
X107295454Y-141090910D01*
X107295454Y-141318183D01*
G37*
G36*
X112068184Y-137454545D02*
G01*
X111840911Y-137454545D01*
X111840911Y-137227272D01*
X112068184Y-137227272D01*
X112068184Y-137454545D01*
G37*
G36*
X109113637Y-136545453D02*
G01*
X108886364Y-136545453D01*
X108886364Y-136318181D01*
X109113637Y-136318181D01*
X109113637Y-136545453D01*
G37*
G36*
X109568183Y-134954544D02*
G01*
X109340910Y-134954544D01*
X109340910Y-134727271D01*
X109568183Y-134727271D01*
X109568183Y-134954544D01*
G37*
G36*
X107295454Y-136090908D02*
G01*
X107068182Y-136090908D01*
X107068182Y-135863635D01*
X107295454Y-135863635D01*
X107295454Y-136090908D01*
G37*
G36*
X105477272Y-137909090D02*
G01*
X105249999Y-137909090D01*
X105249999Y-137681818D01*
X105477272Y-137681818D01*
X105477272Y-137909090D01*
G37*
G36*
X110931820Y-139045455D02*
G01*
X110704547Y-139045455D01*
X110704547Y-138818182D01*
X110931820Y-138818182D01*
X110931820Y-139045455D01*
G37*
G36*
X111386365Y-140636364D02*
G01*
X111159093Y-140636364D01*
X111159093Y-140409092D01*
X111386365Y-140409092D01*
X111386365Y-140636364D01*
G37*
G36*
X110931820Y-140636364D02*
G01*
X110704547Y-140636364D01*
X110704547Y-140409092D01*
X110931820Y-140409092D01*
X110931820Y-140636364D01*
G37*
G36*
X111840911Y-142000002D02*
G01*
X111613638Y-142000002D01*
X111613638Y-141772729D01*
X111840911Y-141772729D01*
X111840911Y-142000002D01*
G37*
G36*
X110250001Y-139045455D02*
G01*
X110022728Y-139045455D01*
X110022728Y-138818182D01*
X110250001Y-138818182D01*
X110250001Y-139045455D01*
G37*
G36*
X110704547Y-136318181D02*
G01*
X110477274Y-136318181D01*
X110477274Y-136090908D01*
X110704547Y-136090908D01*
X110704547Y-136318181D01*
G37*
G36*
X112522730Y-136545453D02*
G01*
X112295457Y-136545453D01*
X112295457Y-136318181D01*
X112522730Y-136318181D01*
X112522730Y-136545453D01*
G37*
G36*
X105477272Y-136999999D02*
G01*
X105249999Y-136999999D01*
X105249999Y-136772726D01*
X105477272Y-136772726D01*
X105477272Y-136999999D01*
G37*
G36*
X112295457Y-142000002D02*
G01*
X112068184Y-142000002D01*
X112068184Y-141772729D01*
X112295457Y-141772729D01*
X112295457Y-142000002D01*
G37*
G36*
X105704545Y-139954546D02*
G01*
X105477272Y-139954546D01*
X105477272Y-139727273D01*
X105704545Y-139727273D01*
X105704545Y-139954546D01*
G37*
G36*
X110250001Y-138590909D02*
G01*
X110022728Y-138590909D01*
X110022728Y-138363636D01*
X110250001Y-138363636D01*
X110250001Y-138590909D01*
G37*
G36*
X111386365Y-139500000D02*
G01*
X111159093Y-139500000D01*
X111159093Y-139272727D01*
X111386365Y-139272727D01*
X111386365Y-139500000D01*
G37*
G36*
X108659091Y-140863637D02*
G01*
X108431819Y-140863637D01*
X108431819Y-140636364D01*
X108659091Y-140636364D01*
X108659091Y-140863637D01*
G37*
G36*
X106613636Y-138136363D02*
G01*
X106386363Y-138136363D01*
X106386363Y-137909090D01*
X106613636Y-137909090D01*
X106613636Y-138136363D01*
G37*
G36*
X105704545Y-137227272D02*
G01*
X105477272Y-137227272D01*
X105477272Y-136999999D01*
X105704545Y-136999999D01*
X105704545Y-137227272D01*
G37*
G36*
X107295454Y-137454545D02*
G01*
X107068182Y-137454545D01*
X107068182Y-137227272D01*
X107295454Y-137227272D01*
X107295454Y-137454545D01*
G37*
G36*
X110931820Y-137909090D02*
G01*
X110704547Y-137909090D01*
X110704547Y-137681818D01*
X110931820Y-137681818D01*
X110931820Y-137909090D01*
G37*
G36*
X112522730Y-141090910D02*
G01*
X112295457Y-141090910D01*
X112295457Y-140863637D01*
X112522730Y-140863637D01*
X112522730Y-141090910D01*
G37*
G36*
X110250001Y-142000002D02*
G01*
X110022728Y-142000002D01*
X110022728Y-141772729D01*
X110250001Y-141772729D01*
X110250001Y-142000002D01*
G37*
G36*
X106386363Y-139045455D02*
G01*
X106159090Y-139045455D01*
X106159090Y-138818182D01*
X106386363Y-138818182D01*
X106386363Y-139045455D01*
G37*
G36*
X107295454Y-136318181D02*
G01*
X107068182Y-136318181D01*
X107068182Y-136090908D01*
X107295454Y-136090908D01*
X107295454Y-136318181D01*
G37*
G36*
X109113637Y-134954544D02*
G01*
X108886364Y-134954544D01*
X108886364Y-134727271D01*
X109113637Y-134727271D01*
X109113637Y-134954544D01*
G37*
G36*
X107295454Y-139727273D02*
G01*
X107068182Y-139727273D01*
X107068182Y-139500000D01*
X107295454Y-139500000D01*
X107295454Y-139727273D01*
G37*
G36*
X105931817Y-137227272D02*
G01*
X105704545Y-137227272D01*
X105704545Y-136999999D01*
X105931817Y-136999999D01*
X105931817Y-137227272D01*
G37*
D11*
X96369299Y-131369048D02*
X97083584Y-131369048D01*
X97083584Y-131369048D02*
X97226441Y-131416667D01*
X97226441Y-131416667D02*
X97321680Y-131511905D01*
X97321680Y-131511905D02*
X97369299Y-131654762D01*
X97369299Y-131654762D02*
X97369299Y-131750000D01*
X97369299Y-130416667D02*
X97369299Y-130892857D01*
X97369299Y-130892857D02*
X96369299Y-130892857D01*
X97274060Y-129511905D02*
X97321680Y-129559524D01*
X97321680Y-129559524D02*
X97369299Y-129702381D01*
X97369299Y-129702381D02*
X97369299Y-129797619D01*
X97369299Y-129797619D02*
X97321680Y-129940476D01*
X97321680Y-129940476D02*
X97226441Y-130035714D01*
X97226441Y-130035714D02*
X97131203Y-130083333D01*
X97131203Y-130083333D02*
X96940727Y-130130952D01*
X96940727Y-130130952D02*
X96797870Y-130130952D01*
X96797870Y-130130952D02*
X96607394Y-130083333D01*
X96607394Y-130083333D02*
X96512156Y-130035714D01*
X96512156Y-130035714D02*
X96416918Y-129940476D01*
X96416918Y-129940476D02*
X96369299Y-129797619D01*
X96369299Y-129797619D02*
X96369299Y-129702381D01*
X96369299Y-129702381D02*
X96416918Y-129559524D01*
X96416918Y-129559524D02*
X96464537Y-129511905D01*
X96369299Y-128797619D02*
X97083584Y-128797619D01*
X97083584Y-128797619D02*
X97226441Y-128845238D01*
X97226441Y-128845238D02*
X97321680Y-128940476D01*
X97321680Y-128940476D02*
X97369299Y-129083333D01*
X97369299Y-129083333D02*
X97369299Y-129178571D01*
X97369299Y-127845238D02*
X97369299Y-128321428D01*
X97369299Y-128321428D02*
X96369299Y-128321428D01*
X97274060Y-126940476D02*
X97321680Y-126988095D01*
X97321680Y-126988095D02*
X97369299Y-127130952D01*
X97369299Y-127130952D02*
X97369299Y-127226190D01*
X97369299Y-127226190D02*
X97321680Y-127369047D01*
X97321680Y-127369047D02*
X97226441Y-127464285D01*
X97226441Y-127464285D02*
X97131203Y-127511904D01*
X97131203Y-127511904D02*
X96940727Y-127559523D01*
X96940727Y-127559523D02*
X96797870Y-127559523D01*
X96797870Y-127559523D02*
X96607394Y-127511904D01*
X96607394Y-127511904D02*
X96512156Y-127464285D01*
X96512156Y-127464285D02*
X96416918Y-127369047D01*
X96416918Y-127369047D02*
X96369299Y-127226190D01*
X96369299Y-127226190D02*
X96369299Y-127130952D01*
X96369299Y-127130952D02*
X96416918Y-126988095D01*
X96416918Y-126988095D02*
X96464537Y-126940476D01*
X96369299Y-126226190D02*
X97083584Y-126226190D01*
X97083584Y-126226190D02*
X97226441Y-126273809D01*
X97226441Y-126273809D02*
X97321680Y-126369047D01*
X97321680Y-126369047D02*
X97369299Y-126511904D01*
X97369299Y-126511904D02*
X97369299Y-126607142D01*
X97369299Y-125273809D02*
X97369299Y-125749999D01*
X97369299Y-125749999D02*
X96369299Y-125749999D01*
X97274060Y-124369047D02*
X97321680Y-124416666D01*
X97321680Y-124416666D02*
X97369299Y-124559523D01*
X97369299Y-124559523D02*
X97369299Y-124654761D01*
X97369299Y-124654761D02*
X97321680Y-124797618D01*
X97321680Y-124797618D02*
X97226441Y-124892856D01*
X97226441Y-124892856D02*
X97131203Y-124940475D01*
X97131203Y-124940475D02*
X96940727Y-124988094D01*
X96940727Y-124988094D02*
X96797870Y-124988094D01*
X96797870Y-124988094D02*
X96607394Y-124940475D01*
X96607394Y-124940475D02*
X96512156Y-124892856D01*
X96512156Y-124892856D02*
X96416918Y-124797618D01*
X96416918Y-124797618D02*
X96369299Y-124654761D01*
X96369299Y-124654761D02*
X96369299Y-124559523D01*
X96369299Y-124559523D02*
X96416918Y-124416666D01*
X96416918Y-124416666D02*
X96464537Y-124369047D01*
X96369299Y-123654761D02*
X97083584Y-123654761D01*
X97083584Y-123654761D02*
X97226441Y-123702380D01*
X97226441Y-123702380D02*
X97321680Y-123797618D01*
X97321680Y-123797618D02*
X97369299Y-123940475D01*
X97369299Y-123940475D02*
X97369299Y-124035713D01*
X97369299Y-122702380D02*
X97369299Y-123178570D01*
X97369299Y-123178570D02*
X96369299Y-123178570D01*
X97274060Y-121797618D02*
X97321680Y-121845237D01*
X97321680Y-121845237D02*
X97369299Y-121988094D01*
X97369299Y-121988094D02*
X97369299Y-122083332D01*
X97369299Y-122083332D02*
X97321680Y-122226189D01*
X97321680Y-122226189D02*
X97226441Y-122321427D01*
X97226441Y-122321427D02*
X97131203Y-122369046D01*
X97131203Y-122369046D02*
X96940727Y-122416665D01*
X96940727Y-122416665D02*
X96797870Y-122416665D01*
X96797870Y-122416665D02*
X96607394Y-122369046D01*
X96607394Y-122369046D02*
X96512156Y-122321427D01*
X96512156Y-122321427D02*
X96416918Y-122226189D01*
X96416918Y-122226189D02*
X96369299Y-122083332D01*
X96369299Y-122083332D02*
X96369299Y-121988094D01*
X96369299Y-121988094D02*
X96416918Y-121845237D01*
X96416918Y-121845237D02*
X96464537Y-121797618D01*
D12*
X86813528Y-145508779D02*
X85313528Y-145508779D01*
X85313528Y-145508779D02*
X85313528Y-144937350D01*
X85313528Y-144937350D02*
X85384957Y-144794493D01*
X85384957Y-144794493D02*
X85456385Y-144723064D01*
X85456385Y-144723064D02*
X85599242Y-144651636D01*
X85599242Y-144651636D02*
X85813528Y-144651636D01*
X85813528Y-144651636D02*
X85956385Y-144723064D01*
X85956385Y-144723064D02*
X86027814Y-144794493D01*
X86027814Y-144794493D02*
X86099242Y-144937350D01*
X86099242Y-144937350D02*
X86099242Y-145508779D01*
X86813528Y-144008779D02*
X85813528Y-144008779D01*
X86099242Y-144008779D02*
X85956385Y-143937350D01*
X85956385Y-143937350D02*
X85884957Y-143865922D01*
X85884957Y-143865922D02*
X85813528Y-143723064D01*
X85813528Y-143723064D02*
X85813528Y-143580207D01*
X86813528Y-142865922D02*
X86742100Y-143008779D01*
X86742100Y-143008779D02*
X86670671Y-143080208D01*
X86670671Y-143080208D02*
X86527814Y-143151636D01*
X86527814Y-143151636D02*
X86099242Y-143151636D01*
X86099242Y-143151636D02*
X85956385Y-143080208D01*
X85956385Y-143080208D02*
X85884957Y-143008779D01*
X85884957Y-143008779D02*
X85813528Y-142865922D01*
X85813528Y-142865922D02*
X85813528Y-142651636D01*
X85813528Y-142651636D02*
X85884957Y-142508779D01*
X85884957Y-142508779D02*
X85956385Y-142437351D01*
X85956385Y-142437351D02*
X86099242Y-142365922D01*
X86099242Y-142365922D02*
X86527814Y-142365922D01*
X86527814Y-142365922D02*
X86670671Y-142437351D01*
X86670671Y-142437351D02*
X86742100Y-142508779D01*
X86742100Y-142508779D02*
X86813528Y-142651636D01*
X86813528Y-142651636D02*
X86813528Y-142865922D01*
X85813528Y-141723065D02*
X87099242Y-141723065D01*
X87099242Y-141723065D02*
X87242100Y-141794493D01*
X87242100Y-141794493D02*
X87313528Y-141937350D01*
X87313528Y-141937350D02*
X87313528Y-142008779D01*
X85313528Y-141723065D02*
X85384957Y-141794493D01*
X85384957Y-141794493D02*
X85456385Y-141723065D01*
X85456385Y-141723065D02*
X85384957Y-141651636D01*
X85384957Y-141651636D02*
X85313528Y-141723065D01*
X85313528Y-141723065D02*
X85456385Y-141723065D01*
X86742100Y-140437350D02*
X86813528Y-140580207D01*
X86813528Y-140580207D02*
X86813528Y-140865922D01*
X86813528Y-140865922D02*
X86742100Y-141008779D01*
X86742100Y-141008779D02*
X86599242Y-141080207D01*
X86599242Y-141080207D02*
X86027814Y-141080207D01*
X86027814Y-141080207D02*
X85884957Y-141008779D01*
X85884957Y-141008779D02*
X85813528Y-140865922D01*
X85813528Y-140865922D02*
X85813528Y-140580207D01*
X85813528Y-140580207D02*
X85884957Y-140437350D01*
X85884957Y-140437350D02*
X86027814Y-140365922D01*
X86027814Y-140365922D02*
X86170671Y-140365922D01*
X86170671Y-140365922D02*
X86313528Y-141080207D01*
X86742100Y-139080208D02*
X86813528Y-139223065D01*
X86813528Y-139223065D02*
X86813528Y-139508779D01*
X86813528Y-139508779D02*
X86742100Y-139651636D01*
X86742100Y-139651636D02*
X86670671Y-139723065D01*
X86670671Y-139723065D02*
X86527814Y-139794493D01*
X86527814Y-139794493D02*
X86099242Y-139794493D01*
X86099242Y-139794493D02*
X85956385Y-139723065D01*
X85956385Y-139723065D02*
X85884957Y-139651636D01*
X85884957Y-139651636D02*
X85813528Y-139508779D01*
X85813528Y-139508779D02*
X85813528Y-139223065D01*
X85813528Y-139223065D02*
X85884957Y-139080208D01*
X85813528Y-138651636D02*
X85813528Y-138080208D01*
X85313528Y-138437351D02*
X86599242Y-138437351D01*
X86599242Y-138437351D02*
X86742100Y-138365922D01*
X86742100Y-138365922D02*
X86813528Y-138223065D01*
X86813528Y-138223065D02*
X86813528Y-138080208D01*
X86670671Y-137580208D02*
X86742100Y-137508779D01*
X86742100Y-137508779D02*
X86813528Y-137580208D01*
X86813528Y-137580208D02*
X86742100Y-137651636D01*
X86742100Y-137651636D02*
X86670671Y-137580208D01*
X86670671Y-137580208D02*
X86813528Y-137580208D01*
X85884957Y-137580208D02*
X85956385Y-137508779D01*
X85956385Y-137508779D02*
X86027814Y-137580208D01*
X86027814Y-137580208D02*
X85956385Y-137651636D01*
X85956385Y-137651636D02*
X85884957Y-137580208D01*
X85884957Y-137580208D02*
X86027814Y-137580208D01*
X86670671Y-134865922D02*
X86742100Y-134937350D01*
X86742100Y-134937350D02*
X86813528Y-135151636D01*
X86813528Y-135151636D02*
X86813528Y-135294493D01*
X86813528Y-135294493D02*
X86742100Y-135508779D01*
X86742100Y-135508779D02*
X86599242Y-135651636D01*
X86599242Y-135651636D02*
X86456385Y-135723065D01*
X86456385Y-135723065D02*
X86170671Y-135794493D01*
X86170671Y-135794493D02*
X85956385Y-135794493D01*
X85956385Y-135794493D02*
X85670671Y-135723065D01*
X85670671Y-135723065D02*
X85527814Y-135651636D01*
X85527814Y-135651636D02*
X85384957Y-135508779D01*
X85384957Y-135508779D02*
X85313528Y-135294493D01*
X85313528Y-135294493D02*
X85313528Y-135151636D01*
X85313528Y-135151636D02*
X85384957Y-134937350D01*
X85384957Y-134937350D02*
X85456385Y-134865922D01*
X86813528Y-134008779D02*
X86742100Y-134151636D01*
X86742100Y-134151636D02*
X86670671Y-134223065D01*
X86670671Y-134223065D02*
X86527814Y-134294493D01*
X86527814Y-134294493D02*
X86099242Y-134294493D01*
X86099242Y-134294493D02*
X85956385Y-134223065D01*
X85956385Y-134223065D02*
X85884957Y-134151636D01*
X85884957Y-134151636D02*
X85813528Y-134008779D01*
X85813528Y-134008779D02*
X85813528Y-133794493D01*
X85813528Y-133794493D02*
X85884957Y-133651636D01*
X85884957Y-133651636D02*
X85956385Y-133580208D01*
X85956385Y-133580208D02*
X86099242Y-133508779D01*
X86099242Y-133508779D02*
X86527814Y-133508779D01*
X86527814Y-133508779D02*
X86670671Y-133580208D01*
X86670671Y-133580208D02*
X86742100Y-133651636D01*
X86742100Y-133651636D02*
X86813528Y-133794493D01*
X86813528Y-133794493D02*
X86813528Y-134008779D01*
X85813528Y-132865922D02*
X86813528Y-132865922D01*
X85956385Y-132865922D02*
X85884957Y-132794493D01*
X85884957Y-132794493D02*
X85813528Y-132651636D01*
X85813528Y-132651636D02*
X85813528Y-132437350D01*
X85813528Y-132437350D02*
X85884957Y-132294493D01*
X85884957Y-132294493D02*
X86027814Y-132223065D01*
X86027814Y-132223065D02*
X86813528Y-132223065D01*
X85813528Y-131723064D02*
X85813528Y-131151636D01*
X85313528Y-131508779D02*
X86599242Y-131508779D01*
X86599242Y-131508779D02*
X86742100Y-131437350D01*
X86742100Y-131437350D02*
X86813528Y-131294493D01*
X86813528Y-131294493D02*
X86813528Y-131151636D01*
X86813528Y-130651636D02*
X85813528Y-130651636D01*
X86099242Y-130651636D02*
X85956385Y-130580207D01*
X85956385Y-130580207D02*
X85884957Y-130508779D01*
X85884957Y-130508779D02*
X85813528Y-130365921D01*
X85813528Y-130365921D02*
X85813528Y-130223064D01*
X86813528Y-129508779D02*
X86742100Y-129651636D01*
X86742100Y-129651636D02*
X86670671Y-129723065D01*
X86670671Y-129723065D02*
X86527814Y-129794493D01*
X86527814Y-129794493D02*
X86099242Y-129794493D01*
X86099242Y-129794493D02*
X85956385Y-129723065D01*
X85956385Y-129723065D02*
X85884957Y-129651636D01*
X85884957Y-129651636D02*
X85813528Y-129508779D01*
X85813528Y-129508779D02*
X85813528Y-129294493D01*
X85813528Y-129294493D02*
X85884957Y-129151636D01*
X85884957Y-129151636D02*
X85956385Y-129080208D01*
X85956385Y-129080208D02*
X86099242Y-129008779D01*
X86099242Y-129008779D02*
X86527814Y-129008779D01*
X86527814Y-129008779D02*
X86670671Y-129080208D01*
X86670671Y-129080208D02*
X86742100Y-129151636D01*
X86742100Y-129151636D02*
X86813528Y-129294493D01*
X86813528Y-129294493D02*
X86813528Y-129508779D01*
X86813528Y-128151636D02*
X86742100Y-128294493D01*
X86742100Y-128294493D02*
X86599242Y-128365922D01*
X86599242Y-128365922D02*
X85313528Y-128365922D01*
X86813528Y-126437351D02*
X85313528Y-126437351D01*
X85313528Y-126437351D02*
X85313528Y-125865922D01*
X85313528Y-125865922D02*
X85384957Y-125723065D01*
X85384957Y-125723065D02*
X85456385Y-125651636D01*
X85456385Y-125651636D02*
X85599242Y-125580208D01*
X85599242Y-125580208D02*
X85813528Y-125580208D01*
X85813528Y-125580208D02*
X85956385Y-125651636D01*
X85956385Y-125651636D02*
X86027814Y-125723065D01*
X86027814Y-125723065D02*
X86099242Y-125865922D01*
X86099242Y-125865922D02*
X86099242Y-126437351D01*
X86813528Y-124294494D02*
X86027814Y-124294494D01*
X86027814Y-124294494D02*
X85884957Y-124365922D01*
X85884957Y-124365922D02*
X85813528Y-124508779D01*
X85813528Y-124508779D02*
X85813528Y-124794494D01*
X85813528Y-124794494D02*
X85884957Y-124937351D01*
X86742100Y-124294494D02*
X86813528Y-124437351D01*
X86813528Y-124437351D02*
X86813528Y-124794494D01*
X86813528Y-124794494D02*
X86742100Y-124937351D01*
X86742100Y-124937351D02*
X86599242Y-125008779D01*
X86599242Y-125008779D02*
X86456385Y-125008779D01*
X86456385Y-125008779D02*
X86313528Y-124937351D01*
X86313528Y-124937351D02*
X86242100Y-124794494D01*
X86242100Y-124794494D02*
X86242100Y-124437351D01*
X86242100Y-124437351D02*
X86170671Y-124294494D01*
X85813528Y-123580208D02*
X86813528Y-123580208D01*
X85956385Y-123580208D02*
X85884957Y-123508779D01*
X85884957Y-123508779D02*
X85813528Y-123365922D01*
X85813528Y-123365922D02*
X85813528Y-123151636D01*
X85813528Y-123151636D02*
X85884957Y-123008779D01*
X85884957Y-123008779D02*
X86027814Y-122937351D01*
X86027814Y-122937351D02*
X86813528Y-122937351D01*
X86742100Y-121651636D02*
X86813528Y-121794493D01*
X86813528Y-121794493D02*
X86813528Y-122080208D01*
X86813528Y-122080208D02*
X86742100Y-122223065D01*
X86742100Y-122223065D02*
X86599242Y-122294493D01*
X86599242Y-122294493D02*
X86027814Y-122294493D01*
X86027814Y-122294493D02*
X85884957Y-122223065D01*
X85884957Y-122223065D02*
X85813528Y-122080208D01*
X85813528Y-122080208D02*
X85813528Y-121794493D01*
X85813528Y-121794493D02*
X85884957Y-121651636D01*
X85884957Y-121651636D02*
X86027814Y-121580208D01*
X86027814Y-121580208D02*
X86170671Y-121580208D01*
X86170671Y-121580208D02*
X86313528Y-122294493D01*
X86813528Y-120723065D02*
X86742100Y-120865922D01*
X86742100Y-120865922D02*
X86599242Y-120937351D01*
X86599242Y-120937351D02*
X85313528Y-120937351D01*
X86813528Y-118223065D02*
X86813528Y-119080208D01*
X86813528Y-118651637D02*
X85313528Y-118651637D01*
X85313528Y-118651637D02*
X85527814Y-118794494D01*
X85527814Y-118794494D02*
X85670671Y-118937351D01*
X85670671Y-118937351D02*
X85742100Y-119080208D01*
X87728444Y-145723064D02*
X87728444Y-144865922D01*
X89228444Y-145294493D02*
X87728444Y-145294493D01*
X89228444Y-144365922D02*
X88228444Y-144365922D01*
X87728444Y-144365922D02*
X87799873Y-144437350D01*
X87799873Y-144437350D02*
X87871301Y-144365922D01*
X87871301Y-144365922D02*
X87799873Y-144294493D01*
X87799873Y-144294493D02*
X87728444Y-144365922D01*
X87728444Y-144365922D02*
X87871301Y-144365922D01*
X88228444Y-143865921D02*
X88228444Y-143294493D01*
X87728444Y-143651636D02*
X89014158Y-143651636D01*
X89014158Y-143651636D02*
X89157016Y-143580207D01*
X89157016Y-143580207D02*
X89228444Y-143437350D01*
X89228444Y-143437350D02*
X89228444Y-143294493D01*
X89228444Y-142580207D02*
X89157016Y-142723064D01*
X89157016Y-142723064D02*
X89014158Y-142794493D01*
X89014158Y-142794493D02*
X87728444Y-142794493D01*
X89157016Y-141437350D02*
X89228444Y-141580207D01*
X89228444Y-141580207D02*
X89228444Y-141865922D01*
X89228444Y-141865922D02*
X89157016Y-142008779D01*
X89157016Y-142008779D02*
X89014158Y-142080207D01*
X89014158Y-142080207D02*
X88442730Y-142080207D01*
X88442730Y-142080207D02*
X88299873Y-142008779D01*
X88299873Y-142008779D02*
X88228444Y-141865922D01*
X88228444Y-141865922D02*
X88228444Y-141580207D01*
X88228444Y-141580207D02*
X88299873Y-141437350D01*
X88299873Y-141437350D02*
X88442730Y-141365922D01*
X88442730Y-141365922D02*
X88585587Y-141365922D01*
X88585587Y-141365922D02*
X88728444Y-142080207D01*
X89085587Y-140723065D02*
X89157016Y-140651636D01*
X89157016Y-140651636D02*
X89228444Y-140723065D01*
X89228444Y-140723065D02*
X89157016Y-140794493D01*
X89157016Y-140794493D02*
X89085587Y-140723065D01*
X89085587Y-140723065D02*
X89228444Y-140723065D01*
X88299873Y-140723065D02*
X88371301Y-140651636D01*
X88371301Y-140651636D02*
X88442730Y-140723065D01*
X88442730Y-140723065D02*
X88371301Y-140794493D01*
X88371301Y-140794493D02*
X88299873Y-140723065D01*
X88299873Y-140723065D02*
X88442730Y-140723065D01*
X88442730Y-138365922D02*
X88514158Y-138151636D01*
X88514158Y-138151636D02*
X88585587Y-138080207D01*
X88585587Y-138080207D02*
X88728444Y-138008779D01*
X88728444Y-138008779D02*
X88942730Y-138008779D01*
X88942730Y-138008779D02*
X89085587Y-138080207D01*
X89085587Y-138080207D02*
X89157016Y-138151636D01*
X89157016Y-138151636D02*
X89228444Y-138294493D01*
X89228444Y-138294493D02*
X89228444Y-138865922D01*
X89228444Y-138865922D02*
X87728444Y-138865922D01*
X87728444Y-138865922D02*
X87728444Y-138365922D01*
X87728444Y-138365922D02*
X87799873Y-138223065D01*
X87799873Y-138223065D02*
X87871301Y-138151636D01*
X87871301Y-138151636D02*
X88014158Y-138080207D01*
X88014158Y-138080207D02*
X88157016Y-138080207D01*
X88157016Y-138080207D02*
X88299873Y-138151636D01*
X88299873Y-138151636D02*
X88371301Y-138223065D01*
X88371301Y-138223065D02*
X88442730Y-138365922D01*
X88442730Y-138365922D02*
X88442730Y-138865922D01*
X89228444Y-137151636D02*
X89157016Y-137294493D01*
X89157016Y-137294493D02*
X89085587Y-137365922D01*
X89085587Y-137365922D02*
X88942730Y-137437350D01*
X88942730Y-137437350D02*
X88514158Y-137437350D01*
X88514158Y-137437350D02*
X88371301Y-137365922D01*
X88371301Y-137365922D02*
X88299873Y-137294493D01*
X88299873Y-137294493D02*
X88228444Y-137151636D01*
X88228444Y-137151636D02*
X88228444Y-136937350D01*
X88228444Y-136937350D02*
X88299873Y-136794493D01*
X88299873Y-136794493D02*
X88371301Y-136723065D01*
X88371301Y-136723065D02*
X88514158Y-136651636D01*
X88514158Y-136651636D02*
X88942730Y-136651636D01*
X88942730Y-136651636D02*
X89085587Y-136723065D01*
X89085587Y-136723065D02*
X89157016Y-136794493D01*
X89157016Y-136794493D02*
X89228444Y-136937350D01*
X89228444Y-136937350D02*
X89228444Y-137151636D01*
X89228444Y-135365922D02*
X88442730Y-135365922D01*
X88442730Y-135365922D02*
X88299873Y-135437350D01*
X88299873Y-135437350D02*
X88228444Y-135580207D01*
X88228444Y-135580207D02*
X88228444Y-135865922D01*
X88228444Y-135865922D02*
X88299873Y-136008779D01*
X89157016Y-135365922D02*
X89228444Y-135508779D01*
X89228444Y-135508779D02*
X89228444Y-135865922D01*
X89228444Y-135865922D02*
X89157016Y-136008779D01*
X89157016Y-136008779D02*
X89014158Y-136080207D01*
X89014158Y-136080207D02*
X88871301Y-136080207D01*
X88871301Y-136080207D02*
X88728444Y-136008779D01*
X88728444Y-136008779D02*
X88657016Y-135865922D01*
X88657016Y-135865922D02*
X88657016Y-135508779D01*
X88657016Y-135508779D02*
X88585587Y-135365922D01*
X89228444Y-134651636D02*
X88228444Y-134651636D01*
X88514158Y-134651636D02*
X88371301Y-134580207D01*
X88371301Y-134580207D02*
X88299873Y-134508779D01*
X88299873Y-134508779D02*
X88228444Y-134365921D01*
X88228444Y-134365921D02*
X88228444Y-134223064D01*
X89228444Y-133080208D02*
X87728444Y-133080208D01*
X89157016Y-133080208D02*
X89228444Y-133223065D01*
X89228444Y-133223065D02*
X89228444Y-133508779D01*
X89228444Y-133508779D02*
X89157016Y-133651636D01*
X89157016Y-133651636D02*
X89085587Y-133723065D01*
X89085587Y-133723065D02*
X88942730Y-133794493D01*
X88942730Y-133794493D02*
X88514158Y-133794493D01*
X88514158Y-133794493D02*
X88371301Y-133723065D01*
X88371301Y-133723065D02*
X88299873Y-133651636D01*
X88299873Y-133651636D02*
X88228444Y-133508779D01*
X88228444Y-133508779D02*
X88228444Y-133223065D01*
X88228444Y-133223065D02*
X88299873Y-133080208D01*
X89228444Y-131580207D02*
X89228444Y-132437350D01*
X89228444Y-132008779D02*
X87728444Y-132008779D01*
X87728444Y-132008779D02*
X87942730Y-132151636D01*
X87942730Y-132151636D02*
X88085587Y-132294493D01*
X88085587Y-132294493D02*
X88157016Y-132437350D01*
X88657016Y-129794494D02*
X88657016Y-128651637D01*
X88442730Y-126294494D02*
X88514158Y-126080208D01*
X88514158Y-126080208D02*
X88585587Y-126008779D01*
X88585587Y-126008779D02*
X88728444Y-125937351D01*
X88728444Y-125937351D02*
X88942730Y-125937351D01*
X88942730Y-125937351D02*
X89085587Y-126008779D01*
X89085587Y-126008779D02*
X89157016Y-126080208D01*
X89157016Y-126080208D02*
X89228444Y-126223065D01*
X89228444Y-126223065D02*
X89228444Y-126794494D01*
X89228444Y-126794494D02*
X87728444Y-126794494D01*
X87728444Y-126794494D02*
X87728444Y-126294494D01*
X87728444Y-126294494D02*
X87799873Y-126151637D01*
X87799873Y-126151637D02*
X87871301Y-126080208D01*
X87871301Y-126080208D02*
X88014158Y-126008779D01*
X88014158Y-126008779D02*
X88157016Y-126008779D01*
X88157016Y-126008779D02*
X88299873Y-126080208D01*
X88299873Y-126080208D02*
X88371301Y-126151637D01*
X88371301Y-126151637D02*
X88442730Y-126294494D01*
X88442730Y-126294494D02*
X88442730Y-126794494D01*
X88228444Y-124651637D02*
X89228444Y-124651637D01*
X88228444Y-125294494D02*
X89014158Y-125294494D01*
X89014158Y-125294494D02*
X89157016Y-125223065D01*
X89157016Y-125223065D02*
X89228444Y-125080208D01*
X89228444Y-125080208D02*
X89228444Y-124865922D01*
X89228444Y-124865922D02*
X89157016Y-124723065D01*
X89157016Y-124723065D02*
X89085587Y-124651637D01*
X88228444Y-124151636D02*
X88228444Y-123580208D01*
X87728444Y-123937351D02*
X89014158Y-123937351D01*
X89014158Y-123937351D02*
X89157016Y-123865922D01*
X89157016Y-123865922D02*
X89228444Y-123723065D01*
X89228444Y-123723065D02*
X89228444Y-123580208D01*
X88228444Y-123294493D02*
X88228444Y-122723065D01*
X87728444Y-123080208D02*
X89014158Y-123080208D01*
X89014158Y-123080208D02*
X89157016Y-123008779D01*
X89157016Y-123008779D02*
X89228444Y-122865922D01*
X89228444Y-122865922D02*
X89228444Y-122723065D01*
X89228444Y-122008779D02*
X89157016Y-122151636D01*
X89157016Y-122151636D02*
X89085587Y-122223065D01*
X89085587Y-122223065D02*
X88942730Y-122294493D01*
X88942730Y-122294493D02*
X88514158Y-122294493D01*
X88514158Y-122294493D02*
X88371301Y-122223065D01*
X88371301Y-122223065D02*
X88299873Y-122151636D01*
X88299873Y-122151636D02*
X88228444Y-122008779D01*
X88228444Y-122008779D02*
X88228444Y-121794493D01*
X88228444Y-121794493D02*
X88299873Y-121651636D01*
X88299873Y-121651636D02*
X88371301Y-121580208D01*
X88371301Y-121580208D02*
X88514158Y-121508779D01*
X88514158Y-121508779D02*
X88942730Y-121508779D01*
X88942730Y-121508779D02*
X89085587Y-121580208D01*
X89085587Y-121580208D02*
X89157016Y-121651636D01*
X89157016Y-121651636D02*
X89228444Y-121794493D01*
X89228444Y-121794493D02*
X89228444Y-122008779D01*
X88228444Y-120865922D02*
X89228444Y-120865922D01*
X88371301Y-120865922D02*
X88299873Y-120794493D01*
X88299873Y-120794493D02*
X88228444Y-120651636D01*
X88228444Y-120651636D02*
X88228444Y-120437350D01*
X88228444Y-120437350D02*
X88299873Y-120294493D01*
X88299873Y-120294493D02*
X88442730Y-120223065D01*
X88442730Y-120223065D02*
X89228444Y-120223065D01*
X89157016Y-119580207D02*
X89228444Y-119437350D01*
X89228444Y-119437350D02*
X89228444Y-119151636D01*
X89228444Y-119151636D02*
X89157016Y-119008779D01*
X89157016Y-119008779D02*
X89014158Y-118937350D01*
X89014158Y-118937350D02*
X88942730Y-118937350D01*
X88942730Y-118937350D02*
X88799873Y-119008779D01*
X88799873Y-119008779D02*
X88728444Y-119151636D01*
X88728444Y-119151636D02*
X88728444Y-119365922D01*
X88728444Y-119365922D02*
X88657016Y-119508779D01*
X88657016Y-119508779D02*
X88514158Y-119580207D01*
X88514158Y-119580207D02*
X88442730Y-119580207D01*
X88442730Y-119580207D02*
X88299873Y-119508779D01*
X88299873Y-119508779D02*
X88228444Y-119365922D01*
X88228444Y-119365922D02*
X88228444Y-119151636D01*
X88228444Y-119151636D02*
X88299873Y-119008779D01*
X91643360Y-144651636D02*
X90929074Y-145151636D01*
X91643360Y-145508779D02*
X90143360Y-145508779D01*
X90143360Y-145508779D02*
X90143360Y-144937350D01*
X90143360Y-144937350D02*
X90214789Y-144794493D01*
X90214789Y-144794493D02*
X90286217Y-144723064D01*
X90286217Y-144723064D02*
X90429074Y-144651636D01*
X90429074Y-144651636D02*
X90643360Y-144651636D01*
X90643360Y-144651636D02*
X90786217Y-144723064D01*
X90786217Y-144723064D02*
X90857646Y-144794493D01*
X90857646Y-144794493D02*
X90929074Y-144937350D01*
X90929074Y-144937350D02*
X90929074Y-145508779D01*
X91571932Y-143437350D02*
X91643360Y-143580207D01*
X91643360Y-143580207D02*
X91643360Y-143865922D01*
X91643360Y-143865922D02*
X91571932Y-144008779D01*
X91571932Y-144008779D02*
X91429074Y-144080207D01*
X91429074Y-144080207D02*
X90857646Y-144080207D01*
X90857646Y-144080207D02*
X90714789Y-144008779D01*
X90714789Y-144008779D02*
X90643360Y-143865922D01*
X90643360Y-143865922D02*
X90643360Y-143580207D01*
X90643360Y-143580207D02*
X90714789Y-143437350D01*
X90714789Y-143437350D02*
X90857646Y-143365922D01*
X90857646Y-143365922D02*
X91000503Y-143365922D01*
X91000503Y-143365922D02*
X91143360Y-144080207D01*
X90643360Y-142865922D02*
X91643360Y-142508779D01*
X91643360Y-142508779D02*
X90643360Y-142151636D01*
X91500503Y-141580208D02*
X91571932Y-141508779D01*
X91571932Y-141508779D02*
X91643360Y-141580208D01*
X91643360Y-141580208D02*
X91571932Y-141651636D01*
X91571932Y-141651636D02*
X91500503Y-141580208D01*
X91500503Y-141580208D02*
X91643360Y-141580208D01*
X90714789Y-141580208D02*
X90786217Y-141508779D01*
X90786217Y-141508779D02*
X90857646Y-141580208D01*
X90857646Y-141580208D02*
X90786217Y-141651636D01*
X90786217Y-141651636D02*
X90714789Y-141580208D01*
X90714789Y-141580208D02*
X90857646Y-141580208D01*
X90286217Y-139794493D02*
X90214789Y-139723065D01*
X90214789Y-139723065D02*
X90143360Y-139580208D01*
X90143360Y-139580208D02*
X90143360Y-139223065D01*
X90143360Y-139223065D02*
X90214789Y-139080208D01*
X90214789Y-139080208D02*
X90286217Y-139008779D01*
X90286217Y-139008779D02*
X90429074Y-138937350D01*
X90429074Y-138937350D02*
X90571932Y-138937350D01*
X90571932Y-138937350D02*
X90786217Y-139008779D01*
X90786217Y-139008779D02*
X91643360Y-139865922D01*
X91643360Y-139865922D02*
X91643360Y-138937350D01*
X94058276Y-145508779D02*
X92558276Y-145508779D01*
X92558276Y-145508779D02*
X92558276Y-145151636D01*
X92558276Y-145151636D02*
X92629705Y-144937350D01*
X92629705Y-144937350D02*
X92772562Y-144794493D01*
X92772562Y-144794493D02*
X92915419Y-144723064D01*
X92915419Y-144723064D02*
X93201133Y-144651636D01*
X93201133Y-144651636D02*
X93415419Y-144651636D01*
X93415419Y-144651636D02*
X93701133Y-144723064D01*
X93701133Y-144723064D02*
X93843990Y-144794493D01*
X93843990Y-144794493D02*
X93986848Y-144937350D01*
X93986848Y-144937350D02*
X94058276Y-145151636D01*
X94058276Y-145151636D02*
X94058276Y-145508779D01*
X94058276Y-143365922D02*
X93272562Y-143365922D01*
X93272562Y-143365922D02*
X93129705Y-143437350D01*
X93129705Y-143437350D02*
X93058276Y-143580207D01*
X93058276Y-143580207D02*
X93058276Y-143865922D01*
X93058276Y-143865922D02*
X93129705Y-144008779D01*
X93986848Y-143365922D02*
X94058276Y-143508779D01*
X94058276Y-143508779D02*
X94058276Y-143865922D01*
X94058276Y-143865922D02*
X93986848Y-144008779D01*
X93986848Y-144008779D02*
X93843990Y-144080207D01*
X93843990Y-144080207D02*
X93701133Y-144080207D01*
X93701133Y-144080207D02*
X93558276Y-144008779D01*
X93558276Y-144008779D02*
X93486848Y-143865922D01*
X93486848Y-143865922D02*
X93486848Y-143508779D01*
X93486848Y-143508779D02*
X93415419Y-143365922D01*
X93058276Y-142865921D02*
X93058276Y-142294493D01*
X92558276Y-142651636D02*
X93843990Y-142651636D01*
X93843990Y-142651636D02*
X93986848Y-142580207D01*
X93986848Y-142580207D02*
X94058276Y-142437350D01*
X94058276Y-142437350D02*
X94058276Y-142294493D01*
X93986848Y-141223064D02*
X94058276Y-141365921D01*
X94058276Y-141365921D02*
X94058276Y-141651636D01*
X94058276Y-141651636D02*
X93986848Y-141794493D01*
X93986848Y-141794493D02*
X93843990Y-141865921D01*
X93843990Y-141865921D02*
X93272562Y-141865921D01*
X93272562Y-141865921D02*
X93129705Y-141794493D01*
X93129705Y-141794493D02*
X93058276Y-141651636D01*
X93058276Y-141651636D02*
X93058276Y-141365921D01*
X93058276Y-141365921D02*
X93129705Y-141223064D01*
X93129705Y-141223064D02*
X93272562Y-141151636D01*
X93272562Y-141151636D02*
X93415419Y-141151636D01*
X93415419Y-141151636D02*
X93558276Y-141865921D01*
X93915419Y-140508779D02*
X93986848Y-140437350D01*
X93986848Y-140437350D02*
X94058276Y-140508779D01*
X94058276Y-140508779D02*
X93986848Y-140580207D01*
X93986848Y-140580207D02*
X93915419Y-140508779D01*
X93915419Y-140508779D02*
X94058276Y-140508779D01*
X93129705Y-140508779D02*
X93201133Y-140437350D01*
X93201133Y-140437350D02*
X93272562Y-140508779D01*
X93272562Y-140508779D02*
X93201133Y-140580207D01*
X93201133Y-140580207D02*
X93129705Y-140508779D01*
X93129705Y-140508779D02*
X93272562Y-140508779D01*
X92701133Y-138723064D02*
X92629705Y-138651636D01*
X92629705Y-138651636D02*
X92558276Y-138508779D01*
X92558276Y-138508779D02*
X92558276Y-138151636D01*
X92558276Y-138151636D02*
X92629705Y-138008779D01*
X92629705Y-138008779D02*
X92701133Y-137937350D01*
X92701133Y-137937350D02*
X92843990Y-137865921D01*
X92843990Y-137865921D02*
X92986848Y-137865921D01*
X92986848Y-137865921D02*
X93201133Y-137937350D01*
X93201133Y-137937350D02*
X94058276Y-138794493D01*
X94058276Y-138794493D02*
X94058276Y-137865921D01*
X92558276Y-136937350D02*
X92558276Y-136794493D01*
X92558276Y-136794493D02*
X92629705Y-136651636D01*
X92629705Y-136651636D02*
X92701133Y-136580208D01*
X92701133Y-136580208D02*
X92843990Y-136508779D01*
X92843990Y-136508779D02*
X93129705Y-136437350D01*
X93129705Y-136437350D02*
X93486848Y-136437350D01*
X93486848Y-136437350D02*
X93772562Y-136508779D01*
X93772562Y-136508779D02*
X93915419Y-136580208D01*
X93915419Y-136580208D02*
X93986848Y-136651636D01*
X93986848Y-136651636D02*
X94058276Y-136794493D01*
X94058276Y-136794493D02*
X94058276Y-136937350D01*
X94058276Y-136937350D02*
X93986848Y-137080208D01*
X93986848Y-137080208D02*
X93915419Y-137151636D01*
X93915419Y-137151636D02*
X93772562Y-137223065D01*
X93772562Y-137223065D02*
X93486848Y-137294493D01*
X93486848Y-137294493D02*
X93129705Y-137294493D01*
X93129705Y-137294493D02*
X92843990Y-137223065D01*
X92843990Y-137223065D02*
X92701133Y-137151636D01*
X92701133Y-137151636D02*
X92629705Y-137080208D01*
X92629705Y-137080208D02*
X92558276Y-136937350D01*
X92701133Y-135865922D02*
X92629705Y-135794494D01*
X92629705Y-135794494D02*
X92558276Y-135651637D01*
X92558276Y-135651637D02*
X92558276Y-135294494D01*
X92558276Y-135294494D02*
X92629705Y-135151637D01*
X92629705Y-135151637D02*
X92701133Y-135080208D01*
X92701133Y-135080208D02*
X92843990Y-135008779D01*
X92843990Y-135008779D02*
X92986848Y-135008779D01*
X92986848Y-135008779D02*
X93201133Y-135080208D01*
X93201133Y-135080208D02*
X94058276Y-135937351D01*
X94058276Y-135937351D02*
X94058276Y-135008779D01*
X92558276Y-133723066D02*
X92558276Y-134008780D01*
X92558276Y-134008780D02*
X92629705Y-134151637D01*
X92629705Y-134151637D02*
X92701133Y-134223066D01*
X92701133Y-134223066D02*
X92915419Y-134365923D01*
X92915419Y-134365923D02*
X93201133Y-134437351D01*
X93201133Y-134437351D02*
X93772562Y-134437351D01*
X93772562Y-134437351D02*
X93915419Y-134365923D01*
X93915419Y-134365923D02*
X93986848Y-134294494D01*
X93986848Y-134294494D02*
X94058276Y-134151637D01*
X94058276Y-134151637D02*
X94058276Y-133865923D01*
X94058276Y-133865923D02*
X93986848Y-133723066D01*
X93986848Y-133723066D02*
X93915419Y-133651637D01*
X93915419Y-133651637D02*
X93772562Y-133580208D01*
X93772562Y-133580208D02*
X93415419Y-133580208D01*
X93415419Y-133580208D02*
X93272562Y-133651637D01*
X93272562Y-133651637D02*
X93201133Y-133723066D01*
X93201133Y-133723066D02*
X93129705Y-133865923D01*
X93129705Y-133865923D02*
X93129705Y-134151637D01*
X93129705Y-134151637D02*
X93201133Y-134294494D01*
X93201133Y-134294494D02*
X93272562Y-134365923D01*
X93272562Y-134365923D02*
X93415419Y-134437351D01*
X93486848Y-132937352D02*
X93486848Y-131794495D01*
X92558276Y-130794494D02*
X92558276Y-130651637D01*
X92558276Y-130651637D02*
X92629705Y-130508780D01*
X92629705Y-130508780D02*
X92701133Y-130437352D01*
X92701133Y-130437352D02*
X92843990Y-130365923D01*
X92843990Y-130365923D02*
X93129705Y-130294494D01*
X93129705Y-130294494D02*
X93486848Y-130294494D01*
X93486848Y-130294494D02*
X93772562Y-130365923D01*
X93772562Y-130365923D02*
X93915419Y-130437352D01*
X93915419Y-130437352D02*
X93986848Y-130508780D01*
X93986848Y-130508780D02*
X94058276Y-130651637D01*
X94058276Y-130651637D02*
X94058276Y-130794494D01*
X94058276Y-130794494D02*
X93986848Y-130937352D01*
X93986848Y-130937352D02*
X93915419Y-131008780D01*
X93915419Y-131008780D02*
X93772562Y-131080209D01*
X93772562Y-131080209D02*
X93486848Y-131151637D01*
X93486848Y-131151637D02*
X93129705Y-131151637D01*
X93129705Y-131151637D02*
X92843990Y-131080209D01*
X92843990Y-131080209D02*
X92701133Y-131008780D01*
X92701133Y-131008780D02*
X92629705Y-130937352D01*
X92629705Y-130937352D02*
X92558276Y-130794494D01*
X93058276Y-129008781D02*
X94058276Y-129008781D01*
X92486848Y-129365923D02*
X93558276Y-129723066D01*
X93558276Y-129723066D02*
X93558276Y-128794495D01*
X93486848Y-128223067D02*
X93486848Y-127080210D01*
X92558276Y-126080209D02*
X92558276Y-125937352D01*
X92558276Y-125937352D02*
X92629705Y-125794495D01*
X92629705Y-125794495D02*
X92701133Y-125723067D01*
X92701133Y-125723067D02*
X92843990Y-125651638D01*
X92843990Y-125651638D02*
X93129705Y-125580209D01*
X93129705Y-125580209D02*
X93486848Y-125580209D01*
X93486848Y-125580209D02*
X93772562Y-125651638D01*
X93772562Y-125651638D02*
X93915419Y-125723067D01*
X93915419Y-125723067D02*
X93986848Y-125794495D01*
X93986848Y-125794495D02*
X94058276Y-125937352D01*
X94058276Y-125937352D02*
X94058276Y-126080209D01*
X94058276Y-126080209D02*
X93986848Y-126223067D01*
X93986848Y-126223067D02*
X93915419Y-126294495D01*
X93915419Y-126294495D02*
X93772562Y-126365924D01*
X93772562Y-126365924D02*
X93486848Y-126437352D01*
X93486848Y-126437352D02*
X93129705Y-126437352D01*
X93129705Y-126437352D02*
X92843990Y-126365924D01*
X92843990Y-126365924D02*
X92701133Y-126294495D01*
X92701133Y-126294495D02*
X92629705Y-126223067D01*
X92629705Y-126223067D02*
X92558276Y-126080209D01*
X94058276Y-124865924D02*
X94058276Y-124580210D01*
X94058276Y-124580210D02*
X93986848Y-124437353D01*
X93986848Y-124437353D02*
X93915419Y-124365924D01*
X93915419Y-124365924D02*
X93701133Y-124223067D01*
X93701133Y-124223067D02*
X93415419Y-124151638D01*
X93415419Y-124151638D02*
X92843990Y-124151638D01*
X92843990Y-124151638D02*
X92701133Y-124223067D01*
X92701133Y-124223067D02*
X92629705Y-124294496D01*
X92629705Y-124294496D02*
X92558276Y-124437353D01*
X92558276Y-124437353D02*
X92558276Y-124723067D01*
X92558276Y-124723067D02*
X92629705Y-124865924D01*
X92629705Y-124865924D02*
X92701133Y-124937353D01*
X92701133Y-124937353D02*
X92843990Y-125008781D01*
X92843990Y-125008781D02*
X93201133Y-125008781D01*
X93201133Y-125008781D02*
X93343990Y-124937353D01*
X93343990Y-124937353D02*
X93415419Y-124865924D01*
X93415419Y-124865924D02*
X93486848Y-124723067D01*
X93486848Y-124723067D02*
X93486848Y-124437353D01*
X93486848Y-124437353D02*
X93415419Y-124294496D01*
X93415419Y-124294496D02*
X93343990Y-124223067D01*
X93343990Y-124223067D02*
X93201133Y-124151638D01*
D11*
X108104206Y-72236666D02*
X107499444Y-72660000D01*
X108104206Y-72962381D02*
X106834206Y-72962381D01*
X106834206Y-72962381D02*
X106834206Y-72478571D01*
X106834206Y-72478571D02*
X106894682Y-72357619D01*
X106894682Y-72357619D02*
X106955158Y-72297142D01*
X106955158Y-72297142D02*
X107076110Y-72236666D01*
X107076110Y-72236666D02*
X107257539Y-72236666D01*
X107257539Y-72236666D02*
X107378491Y-72297142D01*
X107378491Y-72297142D02*
X107438968Y-72357619D01*
X107438968Y-72357619D02*
X107499444Y-72478571D01*
X107499444Y-72478571D02*
X107499444Y-72962381D01*
X106834206Y-71813333D02*
X106834206Y-71027142D01*
X106834206Y-71027142D02*
X107318015Y-71450476D01*
X107318015Y-71450476D02*
X107318015Y-71269047D01*
X107318015Y-71269047D02*
X107378491Y-71148095D01*
X107378491Y-71148095D02*
X107438968Y-71087619D01*
X107438968Y-71087619D02*
X107559920Y-71027142D01*
X107559920Y-71027142D02*
X107862301Y-71027142D01*
X107862301Y-71027142D02*
X107983253Y-71087619D01*
X107983253Y-71087619D02*
X108043730Y-71148095D01*
X108043730Y-71148095D02*
X108104206Y-71269047D01*
X108104206Y-71269047D02*
X108104206Y-71631904D01*
X108104206Y-71631904D02*
X108043730Y-71752857D01*
X108043730Y-71752857D02*
X107983253Y-71813333D01*
X110079206Y-74606904D02*
X110079206Y-75211666D01*
X110079206Y-75211666D02*
X108809206Y-75211666D01*
X109534920Y-72024999D02*
X109595396Y-72085475D01*
X109595396Y-72085475D02*
X109655872Y-72024999D01*
X109655872Y-72024999D02*
X109595396Y-71964523D01*
X109595396Y-71964523D02*
X109534920Y-72024999D01*
X109534920Y-72024999D02*
X109655872Y-72024999D01*
X112054206Y-74606904D02*
X111449444Y-75030238D01*
X112054206Y-75332619D02*
X110784206Y-75332619D01*
X110784206Y-75332619D02*
X110784206Y-74848809D01*
X110784206Y-74848809D02*
X110844682Y-74727857D01*
X110844682Y-74727857D02*
X110905158Y-74667380D01*
X110905158Y-74667380D02*
X111026110Y-74606904D01*
X111026110Y-74606904D02*
X111207539Y-74606904D01*
X111207539Y-74606904D02*
X111328491Y-74667380D01*
X111328491Y-74667380D02*
X111388968Y-74727857D01*
X111388968Y-74727857D02*
X111449444Y-74848809D01*
X111449444Y-74848809D02*
X111449444Y-75332619D01*
X106525000Y-73525000D02*
X108525000Y-73525000D01*
X108525000Y-73525000D02*
X110475000Y-73525000D01*
X110475000Y-73525000D02*
X112475000Y-73525000D01*
X108525000Y-73525000D02*
X108525000Y-76475000D01*
X108525000Y-70525000D02*
X108525000Y-73525000D01*
X110475000Y-73525000D02*
X110475000Y-76475000D01*
X110475000Y-70525000D02*
X110475000Y-73525000D01*
X106525000Y-76475000D02*
X106525000Y-70525000D01*
X106525000Y-70525000D02*
X112475000Y-70525000D01*
X112475000Y-70525000D02*
X112475000Y-76475000D01*
X112475000Y-76475000D02*
X106525000Y-76475000D01*
X92954299Y-51833333D02*
X93668584Y-51833333D01*
X93668584Y-51833333D02*
X93811441Y-51880952D01*
X93811441Y-51880952D02*
X93906680Y-51976190D01*
X93906680Y-51976190D02*
X93954299Y-52119047D01*
X93954299Y-52119047D02*
X93954299Y-52214285D01*
X93954299Y-50833333D02*
X93954299Y-51404761D01*
X93954299Y-51119047D02*
X92954299Y-51119047D01*
X92954299Y-51119047D02*
X93097156Y-51214285D01*
X93097156Y-51214285D02*
X93192394Y-51309523D01*
X93192394Y-51309523D02*
X93240013Y-51404761D01*
D13*
X92609580Y-172642857D02*
X92657200Y-172690476D01*
X92657200Y-172690476D02*
X92704819Y-172833333D01*
X92704819Y-172833333D02*
X92704819Y-172928571D01*
X92704819Y-172928571D02*
X92657200Y-173071428D01*
X92657200Y-173071428D02*
X92561961Y-173166666D01*
X92561961Y-173166666D02*
X92466723Y-173214285D01*
X92466723Y-173214285D02*
X92276247Y-173261904D01*
X92276247Y-173261904D02*
X92133390Y-173261904D01*
X92133390Y-173261904D02*
X91942914Y-173214285D01*
X91942914Y-173214285D02*
X91847676Y-173166666D01*
X91847676Y-173166666D02*
X91752438Y-173071428D01*
X91752438Y-173071428D02*
X91704819Y-172928571D01*
X91704819Y-172928571D02*
X91704819Y-172833333D01*
X91704819Y-172833333D02*
X91752438Y-172690476D01*
X91752438Y-172690476D02*
X91800057Y-172642857D01*
X92704819Y-171690476D02*
X92704819Y-172261904D01*
X92704819Y-171976190D02*
X91704819Y-171976190D01*
X91704819Y-171976190D02*
X91847676Y-172071428D01*
X91847676Y-172071428D02*
X91942914Y-172166666D01*
X91942914Y-172166666D02*
X91990533Y-172261904D01*
X92704819Y-170738095D02*
X92704819Y-171309523D01*
X92704819Y-171023809D02*
X91704819Y-171023809D01*
X91704819Y-171023809D02*
X91847676Y-171119047D01*
X91847676Y-171119047D02*
X91942914Y-171214285D01*
X91942914Y-171214285D02*
X91990533Y-171309523D01*
D11*
X108179060Y-61166666D02*
X108226680Y-61214285D01*
X108226680Y-61214285D02*
X108274299Y-61357142D01*
X108274299Y-61357142D02*
X108274299Y-61452380D01*
X108274299Y-61452380D02*
X108226680Y-61595237D01*
X108226680Y-61595237D02*
X108131441Y-61690475D01*
X108131441Y-61690475D02*
X108036203Y-61738094D01*
X108036203Y-61738094D02*
X107845727Y-61785713D01*
X107845727Y-61785713D02*
X107702870Y-61785713D01*
X107702870Y-61785713D02*
X107512394Y-61738094D01*
X107512394Y-61738094D02*
X107417156Y-61690475D01*
X107417156Y-61690475D02*
X107321918Y-61595237D01*
X107321918Y-61595237D02*
X107274299Y-61452380D01*
X107274299Y-61452380D02*
X107274299Y-61357142D01*
X107274299Y-61357142D02*
X107321918Y-61214285D01*
X107321918Y-61214285D02*
X107369537Y-61166666D01*
X107702870Y-60595237D02*
X107655251Y-60690475D01*
X107655251Y-60690475D02*
X107607632Y-60738094D01*
X107607632Y-60738094D02*
X107512394Y-60785713D01*
X107512394Y-60785713D02*
X107464775Y-60785713D01*
X107464775Y-60785713D02*
X107369537Y-60738094D01*
X107369537Y-60738094D02*
X107321918Y-60690475D01*
X107321918Y-60690475D02*
X107274299Y-60595237D01*
X107274299Y-60595237D02*
X107274299Y-60404761D01*
X107274299Y-60404761D02*
X107321918Y-60309523D01*
X107321918Y-60309523D02*
X107369537Y-60261904D01*
X107369537Y-60261904D02*
X107464775Y-60214285D01*
X107464775Y-60214285D02*
X107512394Y-60214285D01*
X107512394Y-60214285D02*
X107607632Y-60261904D01*
X107607632Y-60261904D02*
X107655251Y-60309523D01*
X107655251Y-60309523D02*
X107702870Y-60404761D01*
X107702870Y-60404761D02*
X107702870Y-60595237D01*
X107702870Y-60595237D02*
X107750489Y-60690475D01*
X107750489Y-60690475D02*
X107798108Y-60738094D01*
X107798108Y-60738094D02*
X107893346Y-60785713D01*
X107893346Y-60785713D02*
X108083822Y-60785713D01*
X108083822Y-60785713D02*
X108179060Y-60738094D01*
X108179060Y-60738094D02*
X108226680Y-60690475D01*
X108226680Y-60690475D02*
X108274299Y-60595237D01*
X108274299Y-60595237D02*
X108274299Y-60404761D01*
X108274299Y-60404761D02*
X108226680Y-60309523D01*
X108226680Y-60309523D02*
X108179060Y-60261904D01*
X108179060Y-60261904D02*
X108083822Y-60214285D01*
X108083822Y-60214285D02*
X107893346Y-60214285D01*
X107893346Y-60214285D02*
X107798108Y-60261904D01*
X107798108Y-60261904D02*
X107750489Y-60309523D01*
X107750489Y-60309523D02*
X107702870Y-60404761D01*
D13*
X91454819Y-90166666D02*
X90978628Y-90499999D01*
X91454819Y-90738094D02*
X90454819Y-90738094D01*
X90454819Y-90738094D02*
X90454819Y-90357142D01*
X90454819Y-90357142D02*
X90502438Y-90261904D01*
X90502438Y-90261904D02*
X90550057Y-90214285D01*
X90550057Y-90214285D02*
X90645295Y-90166666D01*
X90645295Y-90166666D02*
X90788152Y-90166666D01*
X90788152Y-90166666D02*
X90883390Y-90214285D01*
X90883390Y-90214285D02*
X90931009Y-90261904D01*
X90931009Y-90261904D02*
X90978628Y-90357142D01*
X90978628Y-90357142D02*
X90978628Y-90738094D01*
X90454819Y-89833332D02*
X90454819Y-89166666D01*
X90454819Y-89166666D02*
X91454819Y-89595237D01*
D11*
X101454299Y-110333333D02*
X102168584Y-110333333D01*
X102168584Y-110333333D02*
X102311441Y-110380952D01*
X102311441Y-110380952D02*
X102406680Y-110476190D01*
X102406680Y-110476190D02*
X102454299Y-110619047D01*
X102454299Y-110619047D02*
X102454299Y-110714285D01*
X101549537Y-109904761D02*
X101501918Y-109857142D01*
X101501918Y-109857142D02*
X101454299Y-109761904D01*
X101454299Y-109761904D02*
X101454299Y-109523809D01*
X101454299Y-109523809D02*
X101501918Y-109428571D01*
X101501918Y-109428571D02*
X101549537Y-109380952D01*
X101549537Y-109380952D02*
X101644775Y-109333333D01*
X101644775Y-109333333D02*
X101740013Y-109333333D01*
X101740013Y-109333333D02*
X101882870Y-109380952D01*
X101882870Y-109380952D02*
X102454299Y-109952380D01*
X102454299Y-109952380D02*
X102454299Y-109333333D01*
D13*
X92859580Y-216166666D02*
X92907200Y-216214285D01*
X92907200Y-216214285D02*
X92954819Y-216357142D01*
X92954819Y-216357142D02*
X92954819Y-216452380D01*
X92954819Y-216452380D02*
X92907200Y-216595237D01*
X92907200Y-216595237D02*
X92811961Y-216690475D01*
X92811961Y-216690475D02*
X92716723Y-216738094D01*
X92716723Y-216738094D02*
X92526247Y-216785713D01*
X92526247Y-216785713D02*
X92383390Y-216785713D01*
X92383390Y-216785713D02*
X92192914Y-216738094D01*
X92192914Y-216738094D02*
X92097676Y-216690475D01*
X92097676Y-216690475D02*
X92002438Y-216595237D01*
X92002438Y-216595237D02*
X91954819Y-216452380D01*
X91954819Y-216452380D02*
X91954819Y-216357142D01*
X91954819Y-216357142D02*
X92002438Y-216214285D01*
X92002438Y-216214285D02*
X92050057Y-216166666D01*
X92954819Y-215690475D02*
X92954819Y-215499999D01*
X92954819Y-215499999D02*
X92907200Y-215404761D01*
X92907200Y-215404761D02*
X92859580Y-215357142D01*
X92859580Y-215357142D02*
X92716723Y-215261904D01*
X92716723Y-215261904D02*
X92526247Y-215214285D01*
X92526247Y-215214285D02*
X92145295Y-215214285D01*
X92145295Y-215214285D02*
X92050057Y-215261904D01*
X92050057Y-215261904D02*
X92002438Y-215309523D01*
X92002438Y-215309523D02*
X91954819Y-215404761D01*
X91954819Y-215404761D02*
X91954819Y-215595237D01*
X91954819Y-215595237D02*
X92002438Y-215690475D01*
X92002438Y-215690475D02*
X92050057Y-215738094D01*
X92050057Y-215738094D02*
X92145295Y-215785713D01*
X92145295Y-215785713D02*
X92383390Y-215785713D01*
X92383390Y-215785713D02*
X92478628Y-215738094D01*
X92478628Y-215738094D02*
X92526247Y-215690475D01*
X92526247Y-215690475D02*
X92573866Y-215595237D01*
X92573866Y-215595237D02*
X92573866Y-215404761D01*
X92573866Y-215404761D02*
X92526247Y-215309523D01*
X92526247Y-215309523D02*
X92478628Y-215261904D01*
X92478628Y-215261904D02*
X92383390Y-215214285D01*
D11*
X111833333Y-80454299D02*
X111500000Y-79978108D01*
X111261905Y-80454299D02*
X111261905Y-79454299D01*
X111261905Y-79454299D02*
X111642857Y-79454299D01*
X111642857Y-79454299D02*
X111738095Y-79501918D01*
X111738095Y-79501918D02*
X111785714Y-79549537D01*
X111785714Y-79549537D02*
X111833333Y-79644775D01*
X111833333Y-79644775D02*
X111833333Y-79787632D01*
X111833333Y-79787632D02*
X111785714Y-79882870D01*
X111785714Y-79882870D02*
X111738095Y-79930489D01*
X111738095Y-79930489D02*
X111642857Y-79978108D01*
X111642857Y-79978108D02*
X111261905Y-79978108D01*
X112738095Y-79454299D02*
X112261905Y-79454299D01*
X112261905Y-79454299D02*
X112214286Y-79930489D01*
X112214286Y-79930489D02*
X112261905Y-79882870D01*
X112261905Y-79882870D02*
X112357143Y-79835251D01*
X112357143Y-79835251D02*
X112595238Y-79835251D01*
X112595238Y-79835251D02*
X112690476Y-79882870D01*
X112690476Y-79882870D02*
X112738095Y-79930489D01*
X112738095Y-79930489D02*
X112785714Y-80025727D01*
X112785714Y-80025727D02*
X112785714Y-80263822D01*
X112785714Y-80263822D02*
X112738095Y-80359060D01*
X112738095Y-80359060D02*
X112690476Y-80406680D01*
X112690476Y-80406680D02*
X112595238Y-80454299D01*
X112595238Y-80454299D02*
X112357143Y-80454299D01*
X112357143Y-80454299D02*
X112261905Y-80406680D01*
X112261905Y-80406680D02*
X112214286Y-80359060D01*
X111859060Y-193916666D02*
X111906680Y-193964285D01*
X111906680Y-193964285D02*
X111954299Y-194107142D01*
X111954299Y-194107142D02*
X111954299Y-194202380D01*
X111954299Y-194202380D02*
X111906680Y-194345237D01*
X111906680Y-194345237D02*
X111811441Y-194440475D01*
X111811441Y-194440475D02*
X111716203Y-194488094D01*
X111716203Y-194488094D02*
X111525727Y-194535713D01*
X111525727Y-194535713D02*
X111382870Y-194535713D01*
X111382870Y-194535713D02*
X111192394Y-194488094D01*
X111192394Y-194488094D02*
X111097156Y-194440475D01*
X111097156Y-194440475D02*
X111001918Y-194345237D01*
X111001918Y-194345237D02*
X110954299Y-194202380D01*
X110954299Y-194202380D02*
X110954299Y-194107142D01*
X110954299Y-194107142D02*
X111001918Y-193964285D01*
X111001918Y-193964285D02*
X111049537Y-193916666D01*
X111049537Y-193535713D02*
X111001918Y-193488094D01*
X111001918Y-193488094D02*
X110954299Y-193392856D01*
X110954299Y-193392856D02*
X110954299Y-193154761D01*
X110954299Y-193154761D02*
X111001918Y-193059523D01*
X111001918Y-193059523D02*
X111049537Y-193011904D01*
X111049537Y-193011904D02*
X111144775Y-192964285D01*
X111144775Y-192964285D02*
X111240013Y-192964285D01*
X111240013Y-192964285D02*
X111382870Y-193011904D01*
X111382870Y-193011904D02*
X111954299Y-193583332D01*
X111954299Y-193583332D02*
X111954299Y-192964285D01*
X111833333Y-84954299D02*
X111500000Y-84478108D01*
X111261905Y-84954299D02*
X111261905Y-83954299D01*
X111261905Y-83954299D02*
X111642857Y-83954299D01*
X111642857Y-83954299D02*
X111738095Y-84001918D01*
X111738095Y-84001918D02*
X111785714Y-84049537D01*
X111785714Y-84049537D02*
X111833333Y-84144775D01*
X111833333Y-84144775D02*
X111833333Y-84287632D01*
X111833333Y-84287632D02*
X111785714Y-84382870D01*
X111785714Y-84382870D02*
X111738095Y-84430489D01*
X111738095Y-84430489D02*
X111642857Y-84478108D01*
X111642857Y-84478108D02*
X111261905Y-84478108D01*
X112690476Y-83954299D02*
X112500000Y-83954299D01*
X112500000Y-83954299D02*
X112404762Y-84001918D01*
X112404762Y-84001918D02*
X112357143Y-84049537D01*
X112357143Y-84049537D02*
X112261905Y-84192394D01*
X112261905Y-84192394D02*
X112214286Y-84382870D01*
X112214286Y-84382870D02*
X112214286Y-84763822D01*
X112214286Y-84763822D02*
X112261905Y-84859060D01*
X112261905Y-84859060D02*
X112309524Y-84906680D01*
X112309524Y-84906680D02*
X112404762Y-84954299D01*
X112404762Y-84954299D02*
X112595238Y-84954299D01*
X112595238Y-84954299D02*
X112690476Y-84906680D01*
X112690476Y-84906680D02*
X112738095Y-84859060D01*
X112738095Y-84859060D02*
X112785714Y-84763822D01*
X112785714Y-84763822D02*
X112785714Y-84525727D01*
X112785714Y-84525727D02*
X112738095Y-84430489D01*
X112738095Y-84430489D02*
X112690476Y-84382870D01*
X112690476Y-84382870D02*
X112595238Y-84335251D01*
X112595238Y-84335251D02*
X112404762Y-84335251D01*
X112404762Y-84335251D02*
X112309524Y-84382870D01*
X112309524Y-84382870D02*
X112261905Y-84430489D01*
X112261905Y-84430489D02*
X112214286Y-84525727D01*
X111833333Y-82609060D02*
X111785714Y-82656680D01*
X111785714Y-82656680D02*
X111642857Y-82704299D01*
X111642857Y-82704299D02*
X111547619Y-82704299D01*
X111547619Y-82704299D02*
X111404762Y-82656680D01*
X111404762Y-82656680D02*
X111309524Y-82561441D01*
X111309524Y-82561441D02*
X111261905Y-82466203D01*
X111261905Y-82466203D02*
X111214286Y-82275727D01*
X111214286Y-82275727D02*
X111214286Y-82132870D01*
X111214286Y-82132870D02*
X111261905Y-81942394D01*
X111261905Y-81942394D02*
X111309524Y-81847156D01*
X111309524Y-81847156D02*
X111404762Y-81751918D01*
X111404762Y-81751918D02*
X111547619Y-81704299D01*
X111547619Y-81704299D02*
X111642857Y-81704299D01*
X111642857Y-81704299D02*
X111785714Y-81751918D01*
X111785714Y-81751918D02*
X111833333Y-81799537D01*
X112166667Y-81704299D02*
X112833333Y-81704299D01*
X112833333Y-81704299D02*
X112404762Y-82704299D01*
D13*
X104454819Y-63916666D02*
X103978628Y-64249999D01*
X104454819Y-64488094D02*
X103454819Y-64488094D01*
X103454819Y-64488094D02*
X103454819Y-64107142D01*
X103454819Y-64107142D02*
X103502438Y-64011904D01*
X103502438Y-64011904D02*
X103550057Y-63964285D01*
X103550057Y-63964285D02*
X103645295Y-63916666D01*
X103645295Y-63916666D02*
X103788152Y-63916666D01*
X103788152Y-63916666D02*
X103883390Y-63964285D01*
X103883390Y-63964285D02*
X103931009Y-64011904D01*
X103931009Y-64011904D02*
X103978628Y-64107142D01*
X103978628Y-64107142D02*
X103978628Y-64488094D01*
X104454819Y-62964285D02*
X104454819Y-63535713D01*
X104454819Y-63249999D02*
X103454819Y-63249999D01*
X103454819Y-63249999D02*
X103597676Y-63345237D01*
X103597676Y-63345237D02*
X103692914Y-63440475D01*
X103692914Y-63440475D02*
X103740533Y-63535713D01*
X88859580Y-83642857D02*
X88907200Y-83690476D01*
X88907200Y-83690476D02*
X88954819Y-83833333D01*
X88954819Y-83833333D02*
X88954819Y-83928571D01*
X88954819Y-83928571D02*
X88907200Y-84071428D01*
X88907200Y-84071428D02*
X88811961Y-84166666D01*
X88811961Y-84166666D02*
X88716723Y-84214285D01*
X88716723Y-84214285D02*
X88526247Y-84261904D01*
X88526247Y-84261904D02*
X88383390Y-84261904D01*
X88383390Y-84261904D02*
X88192914Y-84214285D01*
X88192914Y-84214285D02*
X88097676Y-84166666D01*
X88097676Y-84166666D02*
X88002438Y-84071428D01*
X88002438Y-84071428D02*
X87954819Y-83928571D01*
X87954819Y-83928571D02*
X87954819Y-83833333D01*
X87954819Y-83833333D02*
X88002438Y-83690476D01*
X88002438Y-83690476D02*
X88050057Y-83642857D01*
X88954819Y-82690476D02*
X88954819Y-83261904D01*
X88954819Y-82976190D02*
X87954819Y-82976190D01*
X87954819Y-82976190D02*
X88097676Y-83071428D01*
X88097676Y-83071428D02*
X88192914Y-83166666D01*
X88192914Y-83166666D02*
X88240533Y-83261904D01*
X87954819Y-81785714D02*
X87954819Y-82261904D01*
X87954819Y-82261904D02*
X88431009Y-82309523D01*
X88431009Y-82309523D02*
X88383390Y-82261904D01*
X88383390Y-82261904D02*
X88335771Y-82166666D01*
X88335771Y-82166666D02*
X88335771Y-81928571D01*
X88335771Y-81928571D02*
X88383390Y-81833333D01*
X88383390Y-81833333D02*
X88431009Y-81785714D01*
X88431009Y-81785714D02*
X88526247Y-81738095D01*
X88526247Y-81738095D02*
X88764342Y-81738095D01*
X88764342Y-81738095D02*
X88859580Y-81785714D01*
X88859580Y-81785714D02*
X88907200Y-81833333D01*
X88907200Y-81833333D02*
X88954819Y-81928571D01*
X88954819Y-81928571D02*
X88954819Y-82166666D01*
X88954819Y-82166666D02*
X88907200Y-82261904D01*
X88907200Y-82261904D02*
X88859580Y-82309523D01*
X92109580Y-122642857D02*
X92157200Y-122690476D01*
X92157200Y-122690476D02*
X92204819Y-122833333D01*
X92204819Y-122833333D02*
X92204819Y-122928571D01*
X92204819Y-122928571D02*
X92157200Y-123071428D01*
X92157200Y-123071428D02*
X92061961Y-123166666D01*
X92061961Y-123166666D02*
X91966723Y-123214285D01*
X91966723Y-123214285D02*
X91776247Y-123261904D01*
X91776247Y-123261904D02*
X91633390Y-123261904D01*
X91633390Y-123261904D02*
X91442914Y-123214285D01*
X91442914Y-123214285D02*
X91347676Y-123166666D01*
X91347676Y-123166666D02*
X91252438Y-123071428D01*
X91252438Y-123071428D02*
X91204819Y-122928571D01*
X91204819Y-122928571D02*
X91204819Y-122833333D01*
X91204819Y-122833333D02*
X91252438Y-122690476D01*
X91252438Y-122690476D02*
X91300057Y-122642857D01*
X92204819Y-121690476D02*
X92204819Y-122261904D01*
X92204819Y-121976190D02*
X91204819Y-121976190D01*
X91204819Y-121976190D02*
X91347676Y-122071428D01*
X91347676Y-122071428D02*
X91442914Y-122166666D01*
X91442914Y-122166666D02*
X91490533Y-122261904D01*
X91204819Y-121357142D02*
X91204819Y-120738095D01*
X91204819Y-120738095D02*
X91585771Y-121071428D01*
X91585771Y-121071428D02*
X91585771Y-120928571D01*
X91585771Y-120928571D02*
X91633390Y-120833333D01*
X91633390Y-120833333D02*
X91681009Y-120785714D01*
X91681009Y-120785714D02*
X91776247Y-120738095D01*
X91776247Y-120738095D02*
X92014342Y-120738095D01*
X92014342Y-120738095D02*
X92109580Y-120785714D01*
X92109580Y-120785714D02*
X92157200Y-120833333D01*
X92157200Y-120833333D02*
X92204819Y-120928571D01*
X92204819Y-120928571D02*
X92204819Y-121214285D01*
X92204819Y-121214285D02*
X92157200Y-121309523D01*
X92157200Y-121309523D02*
X92109580Y-121357142D01*
D11*
X108179060Y-127166666D02*
X108226680Y-127214285D01*
X108226680Y-127214285D02*
X108274299Y-127357142D01*
X108274299Y-127357142D02*
X108274299Y-127452380D01*
X108274299Y-127452380D02*
X108226680Y-127595237D01*
X108226680Y-127595237D02*
X108131441Y-127690475D01*
X108131441Y-127690475D02*
X108036203Y-127738094D01*
X108036203Y-127738094D02*
X107845727Y-127785713D01*
X107845727Y-127785713D02*
X107702870Y-127785713D01*
X107702870Y-127785713D02*
X107512394Y-127738094D01*
X107512394Y-127738094D02*
X107417156Y-127690475D01*
X107417156Y-127690475D02*
X107321918Y-127595237D01*
X107321918Y-127595237D02*
X107274299Y-127452380D01*
X107274299Y-127452380D02*
X107274299Y-127357142D01*
X107274299Y-127357142D02*
X107321918Y-127214285D01*
X107321918Y-127214285D02*
X107369537Y-127166666D01*
X107607632Y-126309523D02*
X108274299Y-126309523D01*
X107226680Y-126547618D02*
X107940965Y-126785713D01*
X107940965Y-126785713D02*
X107940965Y-126166666D01*
X111859060Y-172666666D02*
X111906680Y-172714285D01*
X111906680Y-172714285D02*
X111954299Y-172857142D01*
X111954299Y-172857142D02*
X111954299Y-172952380D01*
X111954299Y-172952380D02*
X111906680Y-173095237D01*
X111906680Y-173095237D02*
X111811441Y-173190475D01*
X111811441Y-173190475D02*
X111716203Y-173238094D01*
X111716203Y-173238094D02*
X111525727Y-173285713D01*
X111525727Y-173285713D02*
X111382870Y-173285713D01*
X111382870Y-173285713D02*
X111192394Y-173238094D01*
X111192394Y-173238094D02*
X111097156Y-173190475D01*
X111097156Y-173190475D02*
X111001918Y-173095237D01*
X111001918Y-173095237D02*
X110954299Y-172952380D01*
X110954299Y-172952380D02*
X110954299Y-172857142D01*
X110954299Y-172857142D02*
X111001918Y-172714285D01*
X111001918Y-172714285D02*
X111049537Y-172666666D01*
X110954299Y-172333332D02*
X110954299Y-171714285D01*
X110954299Y-171714285D02*
X111335251Y-172047618D01*
X111335251Y-172047618D02*
X111335251Y-171904761D01*
X111335251Y-171904761D02*
X111382870Y-171809523D01*
X111382870Y-171809523D02*
X111430489Y-171761904D01*
X111430489Y-171761904D02*
X111525727Y-171714285D01*
X111525727Y-171714285D02*
X111763822Y-171714285D01*
X111763822Y-171714285D02*
X111859060Y-171761904D01*
X111859060Y-171761904D02*
X111906680Y-171809523D01*
X111906680Y-171809523D02*
X111954299Y-171904761D01*
X111954299Y-171904761D02*
X111954299Y-172190475D01*
X111954299Y-172190475D02*
X111906680Y-172285713D01*
X111906680Y-172285713D02*
X111859060Y-172333332D01*
X102554299Y-56966666D02*
X102078108Y-57299999D01*
X102554299Y-57538094D02*
X101554299Y-57538094D01*
X101554299Y-57538094D02*
X101554299Y-57157142D01*
X101554299Y-57157142D02*
X101601918Y-57061904D01*
X101601918Y-57061904D02*
X101649537Y-57014285D01*
X101649537Y-57014285D02*
X101744775Y-56966666D01*
X101744775Y-56966666D02*
X101887632Y-56966666D01*
X101887632Y-56966666D02*
X101982870Y-57014285D01*
X101982870Y-57014285D02*
X102030489Y-57061904D01*
X102030489Y-57061904D02*
X102078108Y-57157142D01*
X102078108Y-57157142D02*
X102078108Y-57538094D01*
X101887632Y-56109523D02*
X102554299Y-56109523D01*
X101506680Y-56347618D02*
X102220965Y-56585713D01*
X102220965Y-56585713D02*
X102220965Y-55966666D01*
X109859060Y-53642857D02*
X109906680Y-53690476D01*
X109906680Y-53690476D02*
X109954299Y-53833333D01*
X109954299Y-53833333D02*
X109954299Y-53928571D01*
X109954299Y-53928571D02*
X109906680Y-54071428D01*
X109906680Y-54071428D02*
X109811441Y-54166666D01*
X109811441Y-54166666D02*
X109716203Y-54214285D01*
X109716203Y-54214285D02*
X109525727Y-54261904D01*
X109525727Y-54261904D02*
X109382870Y-54261904D01*
X109382870Y-54261904D02*
X109192394Y-54214285D01*
X109192394Y-54214285D02*
X109097156Y-54166666D01*
X109097156Y-54166666D02*
X109001918Y-54071428D01*
X109001918Y-54071428D02*
X108954299Y-53928571D01*
X108954299Y-53928571D02*
X108954299Y-53833333D01*
X108954299Y-53833333D02*
X109001918Y-53690476D01*
X109001918Y-53690476D02*
X109049537Y-53642857D01*
X109954299Y-52690476D02*
X109954299Y-53261904D01*
X109954299Y-52976190D02*
X108954299Y-52976190D01*
X108954299Y-52976190D02*
X109097156Y-53071428D01*
X109097156Y-53071428D02*
X109192394Y-53166666D01*
X109192394Y-53166666D02*
X109240013Y-53261904D01*
X109954299Y-52214285D02*
X109954299Y-52023809D01*
X109954299Y-52023809D02*
X109906680Y-51928571D01*
X109906680Y-51928571D02*
X109859060Y-51880952D01*
X109859060Y-51880952D02*
X109716203Y-51785714D01*
X109716203Y-51785714D02*
X109525727Y-51738095D01*
X109525727Y-51738095D02*
X109144775Y-51738095D01*
X109144775Y-51738095D02*
X109049537Y-51785714D01*
X109049537Y-51785714D02*
X109001918Y-51833333D01*
X109001918Y-51833333D02*
X108954299Y-51928571D01*
X108954299Y-51928571D02*
X108954299Y-52119047D01*
X108954299Y-52119047D02*
X109001918Y-52214285D01*
X109001918Y-52214285D02*
X109049537Y-52261904D01*
X109049537Y-52261904D02*
X109144775Y-52309523D01*
X109144775Y-52309523D02*
X109382870Y-52309523D01*
X109382870Y-52309523D02*
X109478108Y-52261904D01*
X109478108Y-52261904D02*
X109525727Y-52214285D01*
X109525727Y-52214285D02*
X109573346Y-52119047D01*
X109573346Y-52119047D02*
X109573346Y-51928571D01*
X109573346Y-51928571D02*
X109525727Y-51833333D01*
X109525727Y-51833333D02*
X109478108Y-51785714D01*
X109478108Y-51785714D02*
X109382870Y-51738095D01*
D13*
X111583333Y-87204819D02*
X111250000Y-86728628D01*
X111011905Y-87204819D02*
X111011905Y-86204819D01*
X111011905Y-86204819D02*
X111392857Y-86204819D01*
X111392857Y-86204819D02*
X111488095Y-86252438D01*
X111488095Y-86252438D02*
X111535714Y-86300057D01*
X111535714Y-86300057D02*
X111583333Y-86395295D01*
X111583333Y-86395295D02*
X111583333Y-86538152D01*
X111583333Y-86538152D02*
X111535714Y-86633390D01*
X111535714Y-86633390D02*
X111488095Y-86681009D01*
X111488095Y-86681009D02*
X111392857Y-86728628D01*
X111392857Y-86728628D02*
X111011905Y-86728628D01*
X112154762Y-86633390D02*
X112059524Y-86585771D01*
X112059524Y-86585771D02*
X112011905Y-86538152D01*
X112011905Y-86538152D02*
X111964286Y-86442914D01*
X111964286Y-86442914D02*
X111964286Y-86395295D01*
X111964286Y-86395295D02*
X112011905Y-86300057D01*
X112011905Y-86300057D02*
X112059524Y-86252438D01*
X112059524Y-86252438D02*
X112154762Y-86204819D01*
X112154762Y-86204819D02*
X112345238Y-86204819D01*
X112345238Y-86204819D02*
X112440476Y-86252438D01*
X112440476Y-86252438D02*
X112488095Y-86300057D01*
X112488095Y-86300057D02*
X112535714Y-86395295D01*
X112535714Y-86395295D02*
X112535714Y-86442914D01*
X112535714Y-86442914D02*
X112488095Y-86538152D01*
X112488095Y-86538152D02*
X112440476Y-86585771D01*
X112440476Y-86585771D02*
X112345238Y-86633390D01*
X112345238Y-86633390D02*
X112154762Y-86633390D01*
X112154762Y-86633390D02*
X112059524Y-86681009D01*
X112059524Y-86681009D02*
X112011905Y-86728628D01*
X112011905Y-86728628D02*
X111964286Y-86823866D01*
X111964286Y-86823866D02*
X111964286Y-87014342D01*
X111964286Y-87014342D02*
X112011905Y-87109580D01*
X112011905Y-87109580D02*
X112059524Y-87157200D01*
X112059524Y-87157200D02*
X112154762Y-87204819D01*
X112154762Y-87204819D02*
X112345238Y-87204819D01*
X112345238Y-87204819D02*
X112440476Y-87157200D01*
X112440476Y-87157200D02*
X112488095Y-87109580D01*
X112488095Y-87109580D02*
X112535714Y-87014342D01*
X112535714Y-87014342D02*
X112535714Y-86823866D01*
X112535714Y-86823866D02*
X112488095Y-86728628D01*
X112488095Y-86728628D02*
X112440476Y-86681009D01*
X112440476Y-86681009D02*
X112345238Y-86633390D01*
X93609580Y-114392857D02*
X93657200Y-114440476D01*
X93657200Y-114440476D02*
X93704819Y-114583333D01*
X93704819Y-114583333D02*
X93704819Y-114678571D01*
X93704819Y-114678571D02*
X93657200Y-114821428D01*
X93657200Y-114821428D02*
X93561961Y-114916666D01*
X93561961Y-114916666D02*
X93466723Y-114964285D01*
X93466723Y-114964285D02*
X93276247Y-115011904D01*
X93276247Y-115011904D02*
X93133390Y-115011904D01*
X93133390Y-115011904D02*
X92942914Y-114964285D01*
X92942914Y-114964285D02*
X92847676Y-114916666D01*
X92847676Y-114916666D02*
X92752438Y-114821428D01*
X92752438Y-114821428D02*
X92704819Y-114678571D01*
X92704819Y-114678571D02*
X92704819Y-114583333D01*
X92704819Y-114583333D02*
X92752438Y-114440476D01*
X92752438Y-114440476D02*
X92800057Y-114392857D01*
X93704819Y-113440476D02*
X93704819Y-114011904D01*
X93704819Y-113726190D02*
X92704819Y-113726190D01*
X92704819Y-113726190D02*
X92847676Y-113821428D01*
X92847676Y-113821428D02*
X92942914Y-113916666D01*
X92942914Y-113916666D02*
X92990533Y-114011904D01*
X93038152Y-112583333D02*
X93704819Y-112583333D01*
X92657200Y-112821428D02*
X93371485Y-113059523D01*
X93371485Y-113059523D02*
X93371485Y-112440476D01*
D11*
X106859060Y-113916666D02*
X106906680Y-113964285D01*
X106906680Y-113964285D02*
X106954299Y-114107142D01*
X106954299Y-114107142D02*
X106954299Y-114202380D01*
X106954299Y-114202380D02*
X106906680Y-114345237D01*
X106906680Y-114345237D02*
X106811441Y-114440475D01*
X106811441Y-114440475D02*
X106716203Y-114488094D01*
X106716203Y-114488094D02*
X106525727Y-114535713D01*
X106525727Y-114535713D02*
X106382870Y-114535713D01*
X106382870Y-114535713D02*
X106192394Y-114488094D01*
X106192394Y-114488094D02*
X106097156Y-114440475D01*
X106097156Y-114440475D02*
X106001918Y-114345237D01*
X106001918Y-114345237D02*
X105954299Y-114202380D01*
X105954299Y-114202380D02*
X105954299Y-114107142D01*
X105954299Y-114107142D02*
X106001918Y-113964285D01*
X106001918Y-113964285D02*
X106049537Y-113916666D01*
X105954299Y-113059523D02*
X105954299Y-113249999D01*
X105954299Y-113249999D02*
X106001918Y-113345237D01*
X106001918Y-113345237D02*
X106049537Y-113392856D01*
X106049537Y-113392856D02*
X106192394Y-113488094D01*
X106192394Y-113488094D02*
X106382870Y-113535713D01*
X106382870Y-113535713D02*
X106763822Y-113535713D01*
X106763822Y-113535713D02*
X106859060Y-113488094D01*
X106859060Y-113488094D02*
X106906680Y-113440475D01*
X106906680Y-113440475D02*
X106954299Y-113345237D01*
X106954299Y-113345237D02*
X106954299Y-113154761D01*
X106954299Y-113154761D02*
X106906680Y-113059523D01*
X106906680Y-113059523D02*
X106859060Y-113011904D01*
X106859060Y-113011904D02*
X106763822Y-112964285D01*
X106763822Y-112964285D02*
X106525727Y-112964285D01*
X106525727Y-112964285D02*
X106430489Y-113011904D01*
X106430489Y-113011904D02*
X106382870Y-113059523D01*
X106382870Y-113059523D02*
X106335251Y-113154761D01*
X106335251Y-113154761D02*
X106335251Y-113345237D01*
X106335251Y-113345237D02*
X106382870Y-113440475D01*
X106382870Y-113440475D02*
X106430489Y-113488094D01*
X106430489Y-113488094D02*
X106525727Y-113535713D01*
X96454299Y-110333333D02*
X97168584Y-110333333D01*
X97168584Y-110333333D02*
X97311441Y-110380952D01*
X97311441Y-110380952D02*
X97406680Y-110476190D01*
X97406680Y-110476190D02*
X97454299Y-110619047D01*
X97454299Y-110619047D02*
X97454299Y-110714285D01*
X96454299Y-109952380D02*
X96454299Y-109333333D01*
X96454299Y-109333333D02*
X96835251Y-109666666D01*
X96835251Y-109666666D02*
X96835251Y-109523809D01*
X96835251Y-109523809D02*
X96882870Y-109428571D01*
X96882870Y-109428571D02*
X96930489Y-109380952D01*
X96930489Y-109380952D02*
X97025727Y-109333333D01*
X97025727Y-109333333D02*
X97263822Y-109333333D01*
X97263822Y-109333333D02*
X97359060Y-109380952D01*
X97359060Y-109380952D02*
X97406680Y-109428571D01*
X97406680Y-109428571D02*
X97454299Y-109523809D01*
X97454299Y-109523809D02*
X97454299Y-109809523D01*
X97454299Y-109809523D02*
X97406680Y-109904761D01*
X97406680Y-109904761D02*
X97359060Y-109952380D01*
X102459060Y-60242857D02*
X102506680Y-60290476D01*
X102506680Y-60290476D02*
X102554299Y-60433333D01*
X102554299Y-60433333D02*
X102554299Y-60528571D01*
X102554299Y-60528571D02*
X102506680Y-60671428D01*
X102506680Y-60671428D02*
X102411441Y-60766666D01*
X102411441Y-60766666D02*
X102316203Y-60814285D01*
X102316203Y-60814285D02*
X102125727Y-60861904D01*
X102125727Y-60861904D02*
X101982870Y-60861904D01*
X101982870Y-60861904D02*
X101792394Y-60814285D01*
X101792394Y-60814285D02*
X101697156Y-60766666D01*
X101697156Y-60766666D02*
X101601918Y-60671428D01*
X101601918Y-60671428D02*
X101554299Y-60528571D01*
X101554299Y-60528571D02*
X101554299Y-60433333D01*
X101554299Y-60433333D02*
X101601918Y-60290476D01*
X101601918Y-60290476D02*
X101649537Y-60242857D01*
X102554299Y-59290476D02*
X102554299Y-59861904D01*
X102554299Y-59576190D02*
X101554299Y-59576190D01*
X101554299Y-59576190D02*
X101697156Y-59671428D01*
X101697156Y-59671428D02*
X101792394Y-59766666D01*
X101792394Y-59766666D02*
X101840013Y-59861904D01*
X101554299Y-58957142D02*
X101554299Y-58290476D01*
X101554299Y-58290476D02*
X102554299Y-58719047D01*
D13*
X98704819Y-66166666D02*
X98228628Y-66499999D01*
X98704819Y-66738094D02*
X97704819Y-66738094D01*
X97704819Y-66738094D02*
X97704819Y-66357142D01*
X97704819Y-66357142D02*
X97752438Y-66261904D01*
X97752438Y-66261904D02*
X97800057Y-66214285D01*
X97800057Y-66214285D02*
X97895295Y-66166666D01*
X97895295Y-66166666D02*
X98038152Y-66166666D01*
X98038152Y-66166666D02*
X98133390Y-66214285D01*
X98133390Y-66214285D02*
X98181009Y-66261904D01*
X98181009Y-66261904D02*
X98228628Y-66357142D01*
X98228628Y-66357142D02*
X98228628Y-66738094D01*
X97800057Y-65785713D02*
X97752438Y-65738094D01*
X97752438Y-65738094D02*
X97704819Y-65642856D01*
X97704819Y-65642856D02*
X97704819Y-65404761D01*
X97704819Y-65404761D02*
X97752438Y-65309523D01*
X97752438Y-65309523D02*
X97800057Y-65261904D01*
X97800057Y-65261904D02*
X97895295Y-65214285D01*
X97895295Y-65214285D02*
X97990533Y-65214285D01*
X97990533Y-65214285D02*
X98133390Y-65261904D01*
X98133390Y-65261904D02*
X98704819Y-65833332D01*
X98704819Y-65833332D02*
X98704819Y-65214285D01*
D11*
X105704299Y-82761904D02*
X106513822Y-82761904D01*
X106513822Y-82761904D02*
X106609060Y-82714285D01*
X106609060Y-82714285D02*
X106656680Y-82666666D01*
X106656680Y-82666666D02*
X106704299Y-82571428D01*
X106704299Y-82571428D02*
X106704299Y-82380952D01*
X106704299Y-82380952D02*
X106656680Y-82285714D01*
X106656680Y-82285714D02*
X106609060Y-82238095D01*
X106609060Y-82238095D02*
X106513822Y-82190476D01*
X106513822Y-82190476D02*
X105704299Y-82190476D01*
X105799537Y-81761904D02*
X105751918Y-81714285D01*
X105751918Y-81714285D02*
X105704299Y-81619047D01*
X105704299Y-81619047D02*
X105704299Y-81380952D01*
X105704299Y-81380952D02*
X105751918Y-81285714D01*
X105751918Y-81285714D02*
X105799537Y-81238095D01*
X105799537Y-81238095D02*
X105894775Y-81190476D01*
X105894775Y-81190476D02*
X105990013Y-81190476D01*
X105990013Y-81190476D02*
X106132870Y-81238095D01*
X106132870Y-81238095D02*
X106704299Y-81809523D01*
X106704299Y-81809523D02*
X106704299Y-81190476D01*
X93859060Y-80142857D02*
X93906680Y-80190476D01*
X93906680Y-80190476D02*
X93954299Y-80333333D01*
X93954299Y-80333333D02*
X93954299Y-80428571D01*
X93954299Y-80428571D02*
X93906680Y-80571428D01*
X93906680Y-80571428D02*
X93811441Y-80666666D01*
X93811441Y-80666666D02*
X93716203Y-80714285D01*
X93716203Y-80714285D02*
X93525727Y-80761904D01*
X93525727Y-80761904D02*
X93382870Y-80761904D01*
X93382870Y-80761904D02*
X93192394Y-80714285D01*
X93192394Y-80714285D02*
X93097156Y-80666666D01*
X93097156Y-80666666D02*
X93001918Y-80571428D01*
X93001918Y-80571428D02*
X92954299Y-80428571D01*
X92954299Y-80428571D02*
X92954299Y-80333333D01*
X92954299Y-80333333D02*
X93001918Y-80190476D01*
X93001918Y-80190476D02*
X93049537Y-80142857D01*
X93954299Y-79190476D02*
X93954299Y-79761904D01*
X93954299Y-79476190D02*
X92954299Y-79476190D01*
X92954299Y-79476190D02*
X93097156Y-79571428D01*
X93097156Y-79571428D02*
X93192394Y-79666666D01*
X93192394Y-79666666D02*
X93240013Y-79761904D01*
X93382870Y-78619047D02*
X93335251Y-78714285D01*
X93335251Y-78714285D02*
X93287632Y-78761904D01*
X93287632Y-78761904D02*
X93192394Y-78809523D01*
X93192394Y-78809523D02*
X93144775Y-78809523D01*
X93144775Y-78809523D02*
X93049537Y-78761904D01*
X93049537Y-78761904D02*
X93001918Y-78714285D01*
X93001918Y-78714285D02*
X92954299Y-78619047D01*
X92954299Y-78619047D02*
X92954299Y-78428571D01*
X92954299Y-78428571D02*
X93001918Y-78333333D01*
X93001918Y-78333333D02*
X93049537Y-78285714D01*
X93049537Y-78285714D02*
X93144775Y-78238095D01*
X93144775Y-78238095D02*
X93192394Y-78238095D01*
X93192394Y-78238095D02*
X93287632Y-78285714D01*
X93287632Y-78285714D02*
X93335251Y-78333333D01*
X93335251Y-78333333D02*
X93382870Y-78428571D01*
X93382870Y-78428571D02*
X93382870Y-78619047D01*
X93382870Y-78619047D02*
X93430489Y-78714285D01*
X93430489Y-78714285D02*
X93478108Y-78761904D01*
X93478108Y-78761904D02*
X93573346Y-78809523D01*
X93573346Y-78809523D02*
X93763822Y-78809523D01*
X93763822Y-78809523D02*
X93859060Y-78761904D01*
X93859060Y-78761904D02*
X93906680Y-78714285D01*
X93906680Y-78714285D02*
X93954299Y-78619047D01*
X93954299Y-78619047D02*
X93954299Y-78428571D01*
X93954299Y-78428571D02*
X93906680Y-78333333D01*
X93906680Y-78333333D02*
X93859060Y-78285714D01*
X93859060Y-78285714D02*
X93763822Y-78238095D01*
X93763822Y-78238095D02*
X93573346Y-78238095D01*
X93573346Y-78238095D02*
X93478108Y-78285714D01*
X93478108Y-78285714D02*
X93430489Y-78333333D01*
X93430489Y-78333333D02*
X93382870Y-78428571D01*
X108179060Y-149166666D02*
X108226680Y-149214285D01*
X108226680Y-149214285D02*
X108274299Y-149357142D01*
X108274299Y-149357142D02*
X108274299Y-149452380D01*
X108274299Y-149452380D02*
X108226680Y-149595237D01*
X108226680Y-149595237D02*
X108131441Y-149690475D01*
X108131441Y-149690475D02*
X108036203Y-149738094D01*
X108036203Y-149738094D02*
X107845727Y-149785713D01*
X107845727Y-149785713D02*
X107702870Y-149785713D01*
X107702870Y-149785713D02*
X107512394Y-149738094D01*
X107512394Y-149738094D02*
X107417156Y-149690475D01*
X107417156Y-149690475D02*
X107321918Y-149595237D01*
X107321918Y-149595237D02*
X107274299Y-149452380D01*
X107274299Y-149452380D02*
X107274299Y-149357142D01*
X107274299Y-149357142D02*
X107321918Y-149214285D01*
X107321918Y-149214285D02*
X107369537Y-149166666D01*
X107274299Y-148261904D02*
X107274299Y-148738094D01*
X107274299Y-148738094D02*
X107750489Y-148785713D01*
X107750489Y-148785713D02*
X107702870Y-148738094D01*
X107702870Y-148738094D02*
X107655251Y-148642856D01*
X107655251Y-148642856D02*
X107655251Y-148404761D01*
X107655251Y-148404761D02*
X107702870Y-148309523D01*
X107702870Y-148309523D02*
X107750489Y-148261904D01*
X107750489Y-148261904D02*
X107845727Y-148214285D01*
X107845727Y-148214285D02*
X108083822Y-148214285D01*
X108083822Y-148214285D02*
X108179060Y-148261904D01*
X108179060Y-148261904D02*
X108226680Y-148309523D01*
X108226680Y-148309523D02*
X108274299Y-148404761D01*
X108274299Y-148404761D02*
X108274299Y-148642856D01*
X108274299Y-148642856D02*
X108226680Y-148738094D01*
X108226680Y-148738094D02*
X108179060Y-148785713D01*
D13*
X89179580Y-61642857D02*
X89227200Y-61690476D01*
X89227200Y-61690476D02*
X89274819Y-61833333D01*
X89274819Y-61833333D02*
X89274819Y-61928571D01*
X89274819Y-61928571D02*
X89227200Y-62071428D01*
X89227200Y-62071428D02*
X89131961Y-62166666D01*
X89131961Y-62166666D02*
X89036723Y-62214285D01*
X89036723Y-62214285D02*
X88846247Y-62261904D01*
X88846247Y-62261904D02*
X88703390Y-62261904D01*
X88703390Y-62261904D02*
X88512914Y-62214285D01*
X88512914Y-62214285D02*
X88417676Y-62166666D01*
X88417676Y-62166666D02*
X88322438Y-62071428D01*
X88322438Y-62071428D02*
X88274819Y-61928571D01*
X88274819Y-61928571D02*
X88274819Y-61833333D01*
X88274819Y-61833333D02*
X88322438Y-61690476D01*
X88322438Y-61690476D02*
X88370057Y-61642857D01*
X89274819Y-60690476D02*
X89274819Y-61261904D01*
X89274819Y-60976190D02*
X88274819Y-60976190D01*
X88274819Y-60976190D02*
X88417676Y-61071428D01*
X88417676Y-61071428D02*
X88512914Y-61166666D01*
X88512914Y-61166666D02*
X88560533Y-61261904D01*
X88274819Y-59833333D02*
X88274819Y-60023809D01*
X88274819Y-60023809D02*
X88322438Y-60119047D01*
X88322438Y-60119047D02*
X88370057Y-60166666D01*
X88370057Y-60166666D02*
X88512914Y-60261904D01*
X88512914Y-60261904D02*
X88703390Y-60309523D01*
X88703390Y-60309523D02*
X89084342Y-60309523D01*
X89084342Y-60309523D02*
X89179580Y-60261904D01*
X89179580Y-60261904D02*
X89227200Y-60214285D01*
X89227200Y-60214285D02*
X89274819Y-60119047D01*
X89274819Y-60119047D02*
X89274819Y-59928571D01*
X89274819Y-59928571D02*
X89227200Y-59833333D01*
X89227200Y-59833333D02*
X89179580Y-59785714D01*
X89179580Y-59785714D02*
X89084342Y-59738095D01*
X89084342Y-59738095D02*
X88846247Y-59738095D01*
X88846247Y-59738095D02*
X88751009Y-59785714D01*
X88751009Y-59785714D02*
X88703390Y-59833333D01*
X88703390Y-59833333D02*
X88655771Y-59928571D01*
X88655771Y-59928571D02*
X88655771Y-60119047D01*
X88655771Y-60119047D02*
X88703390Y-60214285D01*
X88703390Y-60214285D02*
X88751009Y-60261904D01*
X88751009Y-60261904D02*
X88846247Y-60309523D01*
D11*
X100954299Y-66166666D02*
X100478108Y-66499999D01*
X100954299Y-66738094D02*
X99954299Y-66738094D01*
X99954299Y-66738094D02*
X99954299Y-66357142D01*
X99954299Y-66357142D02*
X100001918Y-66261904D01*
X100001918Y-66261904D02*
X100049537Y-66214285D01*
X100049537Y-66214285D02*
X100144775Y-66166666D01*
X100144775Y-66166666D02*
X100287632Y-66166666D01*
X100287632Y-66166666D02*
X100382870Y-66214285D01*
X100382870Y-66214285D02*
X100430489Y-66261904D01*
X100430489Y-66261904D02*
X100478108Y-66357142D01*
X100478108Y-66357142D02*
X100478108Y-66738094D01*
X99954299Y-65833332D02*
X99954299Y-65214285D01*
X99954299Y-65214285D02*
X100335251Y-65547618D01*
X100335251Y-65547618D02*
X100335251Y-65404761D01*
X100335251Y-65404761D02*
X100382870Y-65309523D01*
X100382870Y-65309523D02*
X100430489Y-65261904D01*
X100430489Y-65261904D02*
X100525727Y-65214285D01*
X100525727Y-65214285D02*
X100763822Y-65214285D01*
X100763822Y-65214285D02*
X100859060Y-65261904D01*
X100859060Y-65261904D02*
X100906680Y-65309523D01*
X100906680Y-65309523D02*
X100954299Y-65404761D01*
X100954299Y-65404761D02*
X100954299Y-65690475D01*
X100954299Y-65690475D02*
X100906680Y-65785713D01*
X100906680Y-65785713D02*
X100859060Y-65833332D01*
X111859060Y-215416666D02*
X111906680Y-215464285D01*
X111906680Y-215464285D02*
X111954299Y-215607142D01*
X111954299Y-215607142D02*
X111954299Y-215702380D01*
X111954299Y-215702380D02*
X111906680Y-215845237D01*
X111906680Y-215845237D02*
X111811441Y-215940475D01*
X111811441Y-215940475D02*
X111716203Y-215988094D01*
X111716203Y-215988094D02*
X111525727Y-216035713D01*
X111525727Y-216035713D02*
X111382870Y-216035713D01*
X111382870Y-216035713D02*
X111192394Y-215988094D01*
X111192394Y-215988094D02*
X111097156Y-215940475D01*
X111097156Y-215940475D02*
X111001918Y-215845237D01*
X111001918Y-215845237D02*
X110954299Y-215702380D01*
X110954299Y-215702380D02*
X110954299Y-215607142D01*
X110954299Y-215607142D02*
X111001918Y-215464285D01*
X111001918Y-215464285D02*
X111049537Y-215416666D01*
X111954299Y-214464285D02*
X111954299Y-215035713D01*
X111954299Y-214749999D02*
X110954299Y-214749999D01*
X110954299Y-214749999D02*
X111097156Y-214845237D01*
X111097156Y-214845237D02*
X111192394Y-214940475D01*
X111192394Y-214940475D02*
X111240013Y-215035713D01*
X89359060Y-52892857D02*
X89406680Y-52940476D01*
X89406680Y-52940476D02*
X89454299Y-53083333D01*
X89454299Y-53083333D02*
X89454299Y-53178571D01*
X89454299Y-53178571D02*
X89406680Y-53321428D01*
X89406680Y-53321428D02*
X89311441Y-53416666D01*
X89311441Y-53416666D02*
X89216203Y-53464285D01*
X89216203Y-53464285D02*
X89025727Y-53511904D01*
X89025727Y-53511904D02*
X88882870Y-53511904D01*
X88882870Y-53511904D02*
X88692394Y-53464285D01*
X88692394Y-53464285D02*
X88597156Y-53416666D01*
X88597156Y-53416666D02*
X88501918Y-53321428D01*
X88501918Y-53321428D02*
X88454299Y-53178571D01*
X88454299Y-53178571D02*
X88454299Y-53083333D01*
X88454299Y-53083333D02*
X88501918Y-52940476D01*
X88501918Y-52940476D02*
X88549537Y-52892857D01*
X88549537Y-52511904D02*
X88501918Y-52464285D01*
X88501918Y-52464285D02*
X88454299Y-52369047D01*
X88454299Y-52369047D02*
X88454299Y-52130952D01*
X88454299Y-52130952D02*
X88501918Y-52035714D01*
X88501918Y-52035714D02*
X88549537Y-51988095D01*
X88549537Y-51988095D02*
X88644775Y-51940476D01*
X88644775Y-51940476D02*
X88740013Y-51940476D01*
X88740013Y-51940476D02*
X88882870Y-51988095D01*
X88882870Y-51988095D02*
X89454299Y-52559523D01*
X89454299Y-52559523D02*
X89454299Y-51940476D01*
X88454299Y-51321428D02*
X88454299Y-51226190D01*
X88454299Y-51226190D02*
X88501918Y-51130952D01*
X88501918Y-51130952D02*
X88549537Y-51083333D01*
X88549537Y-51083333D02*
X88644775Y-51035714D01*
X88644775Y-51035714D02*
X88835251Y-50988095D01*
X88835251Y-50988095D02*
X89073346Y-50988095D01*
X89073346Y-50988095D02*
X89263822Y-51035714D01*
X89263822Y-51035714D02*
X89359060Y-51083333D01*
X89359060Y-51083333D02*
X89406680Y-51130952D01*
X89406680Y-51130952D02*
X89454299Y-51226190D01*
X89454299Y-51226190D02*
X89454299Y-51321428D01*
X89454299Y-51321428D02*
X89406680Y-51416666D01*
X89406680Y-51416666D02*
X89359060Y-51464285D01*
X89359060Y-51464285D02*
X89263822Y-51511904D01*
X89263822Y-51511904D02*
X89073346Y-51559523D01*
X89073346Y-51559523D02*
X88835251Y-51559523D01*
X88835251Y-51559523D02*
X88644775Y-51511904D01*
X88644775Y-51511904D02*
X88549537Y-51464285D01*
X88549537Y-51464285D02*
X88501918Y-51416666D01*
X88501918Y-51416666D02*
X88454299Y-51321428D01*
D13*
X92859580Y-151642857D02*
X92907200Y-151690476D01*
X92907200Y-151690476D02*
X92954819Y-151833333D01*
X92954819Y-151833333D02*
X92954819Y-151928571D01*
X92954819Y-151928571D02*
X92907200Y-152071428D01*
X92907200Y-152071428D02*
X92811961Y-152166666D01*
X92811961Y-152166666D02*
X92716723Y-152214285D01*
X92716723Y-152214285D02*
X92526247Y-152261904D01*
X92526247Y-152261904D02*
X92383390Y-152261904D01*
X92383390Y-152261904D02*
X92192914Y-152214285D01*
X92192914Y-152214285D02*
X92097676Y-152166666D01*
X92097676Y-152166666D02*
X92002438Y-152071428D01*
X92002438Y-152071428D02*
X91954819Y-151928571D01*
X91954819Y-151928571D02*
X91954819Y-151833333D01*
X91954819Y-151833333D02*
X92002438Y-151690476D01*
X92002438Y-151690476D02*
X92050057Y-151642857D01*
X92954819Y-150690476D02*
X92954819Y-151261904D01*
X92954819Y-150976190D02*
X91954819Y-150976190D01*
X91954819Y-150976190D02*
X92097676Y-151071428D01*
X92097676Y-151071428D02*
X92192914Y-151166666D01*
X92192914Y-151166666D02*
X92240533Y-151261904D01*
X92050057Y-150309523D02*
X92002438Y-150261904D01*
X92002438Y-150261904D02*
X91954819Y-150166666D01*
X91954819Y-150166666D02*
X91954819Y-149928571D01*
X91954819Y-149928571D02*
X92002438Y-149833333D01*
X92002438Y-149833333D02*
X92050057Y-149785714D01*
X92050057Y-149785714D02*
X92145295Y-149738095D01*
X92145295Y-149738095D02*
X92240533Y-149738095D01*
X92240533Y-149738095D02*
X92383390Y-149785714D01*
X92383390Y-149785714D02*
X92954819Y-150357142D01*
X92954819Y-150357142D02*
X92954819Y-149738095D01*
X92859580Y-194892857D02*
X92907200Y-194940476D01*
X92907200Y-194940476D02*
X92954819Y-195083333D01*
X92954819Y-195083333D02*
X92954819Y-195178571D01*
X92954819Y-195178571D02*
X92907200Y-195321428D01*
X92907200Y-195321428D02*
X92811961Y-195416666D01*
X92811961Y-195416666D02*
X92716723Y-195464285D01*
X92716723Y-195464285D02*
X92526247Y-195511904D01*
X92526247Y-195511904D02*
X92383390Y-195511904D01*
X92383390Y-195511904D02*
X92192914Y-195464285D01*
X92192914Y-195464285D02*
X92097676Y-195416666D01*
X92097676Y-195416666D02*
X92002438Y-195321428D01*
X92002438Y-195321428D02*
X91954819Y-195178571D01*
X91954819Y-195178571D02*
X91954819Y-195083333D01*
X91954819Y-195083333D02*
X92002438Y-194940476D01*
X92002438Y-194940476D02*
X92050057Y-194892857D01*
X92954819Y-193940476D02*
X92954819Y-194511904D01*
X92954819Y-194226190D02*
X91954819Y-194226190D01*
X91954819Y-194226190D02*
X92097676Y-194321428D01*
X92097676Y-194321428D02*
X92192914Y-194416666D01*
X92192914Y-194416666D02*
X92240533Y-194511904D01*
X91954819Y-193321428D02*
X91954819Y-193226190D01*
X91954819Y-193226190D02*
X92002438Y-193130952D01*
X92002438Y-193130952D02*
X92050057Y-193083333D01*
X92050057Y-193083333D02*
X92145295Y-193035714D01*
X92145295Y-193035714D02*
X92335771Y-192988095D01*
X92335771Y-192988095D02*
X92573866Y-192988095D01*
X92573866Y-192988095D02*
X92764342Y-193035714D01*
X92764342Y-193035714D02*
X92859580Y-193083333D01*
X92859580Y-193083333D02*
X92907200Y-193130952D01*
X92907200Y-193130952D02*
X92954819Y-193226190D01*
X92954819Y-193226190D02*
X92954819Y-193321428D01*
X92954819Y-193321428D02*
X92907200Y-193416666D01*
X92907200Y-193416666D02*
X92859580Y-193464285D01*
X92859580Y-193464285D02*
X92764342Y-193511904D01*
X92764342Y-193511904D02*
X92573866Y-193559523D01*
X92573866Y-193559523D02*
X92335771Y-193559523D01*
X92335771Y-193559523D02*
X92145295Y-193511904D01*
X92145295Y-193511904D02*
X92050057Y-193464285D01*
X92050057Y-193464285D02*
X92002438Y-193416666D01*
X92002438Y-193416666D02*
X91954819Y-193321428D01*
X110954819Y-63761904D02*
X111764342Y-63761904D01*
X111764342Y-63761904D02*
X111859580Y-63714285D01*
X111859580Y-63714285D02*
X111907200Y-63666666D01*
X111907200Y-63666666D02*
X111954819Y-63571428D01*
X111954819Y-63571428D02*
X111954819Y-63380952D01*
X111954819Y-63380952D02*
X111907200Y-63285714D01*
X111907200Y-63285714D02*
X111859580Y-63238095D01*
X111859580Y-63238095D02*
X111764342Y-63190476D01*
X111764342Y-63190476D02*
X110954819Y-63190476D01*
X111954819Y-62190476D02*
X111954819Y-62761904D01*
X111954819Y-62476190D02*
X110954819Y-62476190D01*
X110954819Y-62476190D02*
X111097676Y-62571428D01*
X111097676Y-62571428D02*
X111192914Y-62666666D01*
X111192914Y-62666666D02*
X111240533Y-62761904D01*
D14*
%TO.C,J1*%
X93620000Y-53280000D02*
X95000000Y-53280000D01*
X93620000Y-54660000D02*
X93620000Y-53280000D01*
X93620000Y-55930000D02*
X93620000Y-68740000D01*
X93620000Y-55930000D02*
X96380000Y-55930000D01*
X93620000Y-68740000D02*
X96380000Y-68740000D01*
X96380000Y-55930000D02*
X96380000Y-68740000D01*
%TO.C,C11*%
X89765000Y-171261252D02*
X89765000Y-170738748D01*
X91235000Y-171261252D02*
X91235000Y-170738748D01*
%TO.C,C8*%
X108765000Y-61261252D02*
X108765000Y-60738748D01*
X110235000Y-61261252D02*
X110235000Y-60738748D01*
%TO.C,R7*%
X90772936Y-87015000D02*
X91227064Y-87015000D01*
X90772936Y-88485000D02*
X91227064Y-88485000D01*
D12*
%TO.C,J2*%
X104105000Y-99265000D02*
X104105000Y-101000000D01*
X104105000Y-109000000D02*
X103705000Y-109000000D01*
X104105000Y-110735000D02*
X104105000Y-109000000D01*
X108000000Y-99265000D02*
X104105000Y-99265000D01*
X108000000Y-110735000D02*
X104105000Y-110735000D01*
X108425000Y-101435000D02*
X110425000Y-101435000D01*
X108425000Y-108565000D02*
X108425000Y-101435000D01*
X110425000Y-101435000D02*
X110425000Y-100280000D01*
X110425000Y-108565000D02*
X108425000Y-108565000D01*
X110425000Y-109720000D02*
X110425000Y-108565000D01*
D14*
%TO.C,C9*%
X89765000Y-215261252D02*
X89765000Y-214738748D01*
X91235000Y-215261252D02*
X91235000Y-214738748D01*
%TO.C,R5*%
X109227064Y-79265000D02*
X108772936Y-79265000D01*
X109227064Y-80735000D02*
X108772936Y-80735000D01*
%TO.C,C2*%
X108765000Y-193261252D02*
X108765000Y-192738748D01*
X110235000Y-193261252D02*
X110235000Y-192738748D01*
%TO.C,R6*%
X108772936Y-83765000D02*
X109227064Y-83765000D01*
X108772936Y-85235000D02*
X109227064Y-85235000D01*
%TO.C,C7*%
X108738748Y-81515000D02*
X109261252Y-81515000D01*
X108738748Y-82985000D02*
X109261252Y-82985000D01*
%TO.C,R1*%
X103265000Y-60977064D02*
X103265000Y-60522936D01*
X104735000Y-60977064D02*
X104735000Y-60522936D01*
%TO.C,C15*%
X89765000Y-83261252D02*
X89765000Y-82738748D01*
X91235000Y-83261252D02*
X91235000Y-82738748D01*
%TO.C,C13*%
X89765000Y-127261252D02*
X89765000Y-126738748D01*
X91235000Y-127261252D02*
X91235000Y-126738748D01*
%TO.C,C4*%
X108765000Y-127261252D02*
X108765000Y-126738748D01*
X110235000Y-127261252D02*
X110235000Y-126738748D01*
%TO.C,C3*%
X108765000Y-171261252D02*
X108765000Y-170738748D01*
X110235000Y-171261252D02*
X110235000Y-170738748D01*
%TO.C,R4*%
X99272936Y-56465000D02*
X99727064Y-56465000D01*
X99272936Y-57935000D02*
X99727064Y-57935000D01*
%TO.C,C19*%
X107750000Y-58010000D02*
X112145000Y-58010000D01*
X112145000Y-54990000D02*
X107750000Y-54990000D01*
X112145000Y-58010000D02*
X112145000Y-54990000D01*
%TO.C,R8*%
X108772936Y-86015000D02*
X109227064Y-86015000D01*
X108772936Y-87485000D02*
X109227064Y-87485000D01*
%TO.C,C14*%
X90238748Y-113015000D02*
X90761252Y-113015000D01*
X90238748Y-114485000D02*
X90761252Y-114485000D01*
%TO.C,C6*%
X109511252Y-113015000D02*
X108988748Y-113015000D01*
X109511252Y-114485000D02*
X108988748Y-114485000D01*
D12*
%TO.C,J3*%
X89075000Y-100280000D02*
X89075000Y-101435000D01*
X89075000Y-101435000D02*
X91075000Y-101435000D01*
X89075000Y-108565000D02*
X89075000Y-109720000D01*
X91075000Y-101435000D02*
X91075000Y-108565000D01*
X91075000Y-108565000D02*
X89075000Y-108565000D01*
X91500000Y-99265000D02*
X95395000Y-99265000D01*
X91500000Y-110735000D02*
X95395000Y-110735000D01*
X95395000Y-99265000D02*
X95395000Y-101000000D01*
X95395000Y-101000000D02*
X95795000Y-101000000D01*
X95395000Y-110735000D02*
X95395000Y-109000000D01*
D14*
%TO.C,C17*%
X99238748Y-58965000D02*
X99761252Y-58965000D01*
X99238748Y-60435000D02*
X99761252Y-60435000D01*
%TO.C,R2*%
X97515000Y-63227064D02*
X97515000Y-62772936D01*
X98985000Y-63227064D02*
X98985000Y-62772936D01*
D12*
%TO.C,U2*%
X94800000Y-80350000D02*
X94800000Y-85650000D01*
X95200000Y-80350000D02*
X94800000Y-80350000D01*
X95200000Y-85650000D02*
X94800000Y-85650000D01*
X105200000Y-80350000D02*
X104800000Y-80350000D01*
X105200000Y-80350000D02*
X105200000Y-85650000D01*
X105200000Y-85650000D02*
X104800000Y-85650000D01*
D15*
X105330000Y-79400000D02*
G75*
G02*
X105070000Y-79400000I-130000J0D01*
G01*
X105070000Y-79400000D02*
G75*
G02*
X105330000Y-79400000I130000J0D01*
G01*
D14*
%TO.C,C18*%
X92765000Y-82988748D02*
X92765000Y-83511252D01*
X94235000Y-82988748D02*
X94235000Y-83511252D01*
%TO.C,C5*%
X108765000Y-149261252D02*
X108765000Y-148738748D01*
X110235000Y-149261252D02*
X110235000Y-148738748D01*
%TO.C,C16*%
X89765000Y-61261252D02*
X89765000Y-60738748D01*
X91235000Y-61261252D02*
X91235000Y-60738748D01*
%TO.C,R3*%
X99765000Y-62772936D02*
X99765000Y-63227064D01*
X101235000Y-62772936D02*
X101235000Y-63227064D01*
%TO.C,C1*%
X108765000Y-215261252D02*
X108765000Y-214738748D01*
X110235000Y-215261252D02*
X110235000Y-214738748D01*
%TO.C,C20*%
X87250000Y-57260000D02*
X91645000Y-57260000D01*
X91645000Y-54240000D02*
X87250000Y-54240000D01*
X91645000Y-57260000D02*
X91645000Y-54240000D01*
%TO.C,C12*%
X89765000Y-149261252D02*
X89765000Y-148738748D01*
X91235000Y-149261252D02*
X91235000Y-148738748D01*
%TO.C,C10*%
X89765000Y-193261252D02*
X89765000Y-192738748D01*
X91235000Y-193261252D02*
X91235000Y-192738748D01*
%TO.C,U1*%
X108690000Y-64440000D02*
X110510000Y-64440000D01*
X108690000Y-64490000D02*
X108690000Y-64440000D01*
X108690000Y-67560000D02*
X108690000Y-67510000D01*
X110510000Y-64440000D02*
X110510000Y-64490000D01*
X110510000Y-65610000D02*
X110510000Y-66390000D01*
X110510000Y-67510000D02*
X110510000Y-67560000D01*
X110510000Y-67560000D02*
X108690000Y-67560000D01*
X108150000Y-64490000D02*
X107910000Y-64160000D01*
X108390000Y-64160000D01*
X108150000Y-64490000D01*
G36*
X108150000Y-64490000D02*
G01*
X107910000Y-64160000D01*
X108390000Y-64160000D01*
X108150000Y-64490000D01*
G37*
%TD*%
M02*
