M48
; DRILL file {KiCad 9.0.7} date 2026-04-09T03:18:00+0200
; FORMAT={-:-/ absolute / metric / decimal}
; #@! TF.CreationDate,2026-04-09T03:18:00+02:00
; #@! TF.GenerationSoftware,Kicad,Pcbnew,9.0.7
; #@! TF.FileFunction,Plated,1,2,PTH
FMAT,2
METRIC
; #@! TA.AperFunction,Plated,PTH,ViaDrill
T1C0.300
; #@! TA.AperFunction,Plated,PTH,ComponentDrill
T2C0.600
; #@! TA.AperFunction,Plated,PTH,ComponentDrill
T3C0.700
; #@! TA.AperFunction,Plated,PTH,ComponentDrill
T4C1.000
; #@! TA.AperFunction,Plated,PTH,ComponentDrill
T5C1.100
; #@! TA.AperFunction,Plated,PTH,ComponentDrill
T6C1.200
; #@! TA.AperFunction,Plated,PTH,ComponentDrill
T7C1.500
; #@! TA.AperFunction,Plated,PTH,ComponentDrill
T8C1.600
; #@! TA.AperFunction,Plated,PTH,ComponentDrill
T9C1.900
; #@! TA.AperFunction,Plated,PTH,ComponentDrill
T10C4.500
%
G90
G05
T1
X26.0Y-116.0
X26.0Y-117.5
X26.0Y-119.0
X34.0Y-117.0
X39.0Y-117.0
X44.0Y-117.0
X54.0Y-68.0
X56.0Y-37.0
X57.0Y-117.0
X58.0Y-89.977
X63.0Y-117.0
X69.0Y-117.0
X72.0Y-65.0
X75.0Y-80.0
X75.0Y-117.0
X77.0Y-33.0
X80.0Y-35.0
X82.5Y-37.0
X97.0Y-37.0
X112.0Y-37.0
X127.0Y-37.0
X143.0Y-37.0
X157.0Y-37.0
X173.0Y-37.0
X187.0Y-37.0
X203.0Y-37.0
X217.0Y-37.0
X233.0Y-37.0
X247.0Y-37.0
X263.0Y-37.0
X267.0Y-49.75
X274.25Y-33.0
X275.5Y-37.0
X277.0Y-49.75
X280.75Y-101.75
X280.75Y-109.759
X284.0Y-97.0
X285.0Y-33.0
X285.0Y-90.0
X285.0Y-120.0
X286.517Y-91.5
X287.798Y-69.0
X289.057Y-69.0
X289.25Y-112.33
X289.5Y-108.0
X290.327Y-69.0
X291.597Y-91.5
X291.75Y-99.475
X291.775Y-109.79
X292.867Y-91.5
X294.137Y-91.5
X295.407Y-72.5
X295.75Y-106.0
X297.0Y-120.0
X300.0Y-97.75
X300.75Y-112.33
X301.25Y-97.75
X305.0Y-120.0
X308.75Y-86.25
X309.75Y-86.25
X311.155Y-58.5
X311.155Y-66.75
X317.0Y-120.0
X318.0Y-80.0
X318.0Y-90.0
X319.5Y-33.0
X320.992Y-89.0
X321.0Y-73.2
X321.0Y-74.0
X321.0Y-99.0
X322.0Y-73.2
X322.0Y-74.0
X323.0Y-97.5
X324.0Y-45.0
X324.0Y-121.0
X324.3Y-101.0
X325.4Y-73.2
X325.4Y-74.0
X325.626Y-80.0
X326.0Y-45.0
X326.4Y-73.2
X326.4Y-74.0
X326.5Y-35.0
X329.0Y-95.0
X329.0Y-121.0
X330.0Y-49.0
X330.0Y-58.0
X330.0Y-67.0
X330.0Y-109.0
X331.0Y-51.5
X331.0Y-60.5
X331.0Y-69.5
X331.0Y-78.5
X331.0Y-93.5
X332.0Y-80.0
X332.0Y-95.0
X332.8Y-73.2
X332.8Y-74.0
X333.8Y-73.2
X333.8Y-74.0
X334.0Y-42.0
X334.0Y-121.0
X336.0Y-42.0
X336.705Y-84.75
X336.705Y-99.5
X338.0Y-75.25
X338.25Y-84.75
X338.25Y-87.5
X338.25Y-90.25
X338.25Y-99.5
X338.25Y-102.5
X339.0Y-121.0
X344.0Y-121.0
T2
X31.625Y-26.0
X31.625Y-186.0
X32.614Y-23.614
X32.614Y-28.386
X32.614Y-183.614
X32.614Y-188.386
X35.0Y-22.625
X35.0Y-29.375
X35.0Y-182.625
X35.0Y-189.375
X37.386Y-23.614
X37.386Y-28.386
X37.386Y-183.614
X37.386Y-188.386
X38.375Y-26.0
X38.375Y-186.0
X101.625Y-100.0
X102.614Y-97.614
X102.614Y-102.386
X105.0Y-96.625
X105.0Y-103.375
X107.386Y-97.614
X107.386Y-102.386
X108.375Y-100.0
X131.625Y-26.0
X131.625Y-186.0
X132.614Y-23.614
X132.614Y-28.386
X132.614Y-183.614
X132.614Y-188.386
X135.0Y-22.625
X135.0Y-29.375
X135.0Y-182.625
X135.0Y-189.375
X137.386Y-23.614
X137.386Y-28.386
X137.386Y-183.614
X137.386Y-188.386
X138.375Y-26.0
X138.375Y-186.0
X231.625Y-26.0
X231.625Y-186.0
X232.614Y-23.614
X232.614Y-28.386
X232.614Y-183.614
X232.614Y-188.386
X235.0Y-22.625
X235.0Y-29.375
X235.0Y-182.625
X235.0Y-189.375
X237.386Y-23.614
X237.386Y-28.386
X237.386Y-183.614
X237.386Y-188.386
X238.375Y-26.0
X238.375Y-186.0
X251.625Y-100.0
X252.614Y-97.614
X252.614Y-102.386
X255.0Y-96.625
X255.0Y-103.375
X257.386Y-97.614
X257.386Y-102.386
X258.375Y-100.0
X331.625Y-26.0
X331.625Y-186.0
X332.614Y-23.614
X332.614Y-28.386
X332.614Y-183.614
X332.614Y-188.386
X335.0Y-22.625
X335.0Y-29.375
X335.0Y-182.625
X335.0Y-189.375
X337.386Y-23.614
X337.386Y-28.386
X337.386Y-183.614
X337.386Y-188.386
X338.375Y-26.0
X338.375Y-186.0
T3
X86.78Y-68.525
X86.78Y-89.525
X94.28Y-75.125
X94.28Y-96.125
X101.78Y-68.525
X109.28Y-75.125
X116.78Y-68.525
X124.28Y-75.125
X131.78Y-68.525
X139.28Y-75.125
X146.78Y-68.525
X154.28Y-75.125
X161.78Y-68.525
X169.28Y-75.125
X176.78Y-68.525
X184.28Y-75.125
X191.78Y-68.525
X199.28Y-75.125
X206.78Y-68.525
X214.28Y-75.125
X221.78Y-68.525
X229.28Y-75.125
X236.78Y-68.525
X244.28Y-75.125
X251.78Y-68.525
X259.28Y-75.125
X266.78Y-68.525
X266.78Y-90.525
X274.28Y-75.125
X274.28Y-97.125
X306.78Y-90.525
X314.28Y-97.125
T4
X321.92Y-115.75
X324.46Y-115.75
X327.0Y-115.75
X329.54Y-115.75
X332.08Y-115.75
X334.62Y-115.75
T5
X333.73Y-46.46
X333.73Y-49.0
X333.73Y-51.54
X333.73Y-55.46
X333.73Y-58.0
X333.73Y-60.54
X333.73Y-64.46
X333.73Y-67.0
X333.73Y-69.54
X333.73Y-106.46
X333.73Y-109.0
X333.73Y-111.54
X336.27Y-46.46
X336.27Y-49.0
X336.27Y-51.54
X336.27Y-55.46
X336.27Y-58.0
X336.27Y-60.54
X336.27Y-64.46
X336.27Y-67.0
X336.27Y-69.54
X336.27Y-106.46
X336.27Y-109.0
X336.27Y-111.54
T6
X85.78Y-64.925
X85.78Y-85.925
X93.78Y-64.925
X93.78Y-67.925
X93.78Y-85.925
X93.78Y-88.925
X100.78Y-64.925
X108.78Y-64.925
X108.78Y-67.925
X115.78Y-64.925
X123.78Y-64.925
X123.78Y-67.925
X130.78Y-64.925
X138.78Y-64.925
X138.78Y-67.925
X145.78Y-64.925
X153.78Y-64.925
X153.78Y-67.925
X160.78Y-64.925
X168.78Y-64.925
X168.78Y-67.925
X175.78Y-64.925
X183.78Y-64.925
X183.78Y-67.925
X190.78Y-64.925
X198.78Y-64.925
X198.78Y-67.925
X205.78Y-64.925
X213.78Y-64.925
X213.78Y-67.925
X220.78Y-64.925
X228.78Y-64.925
X228.78Y-67.925
X235.78Y-64.925
X243.78Y-64.925
X243.78Y-67.925
X250.78Y-64.925
X258.78Y-64.925
X258.78Y-67.925
X265.78Y-64.925
X265.78Y-86.925
X273.78Y-64.925
X273.78Y-67.925
X273.78Y-86.925
X273.78Y-89.925
X305.78Y-86.925
X313.78Y-86.925
X313.78Y-89.925
T7
X30.0Y-163.8
X30.0Y-172.0
X40.0Y-163.8
X40.0Y-172.0
X50.0Y-163.8
X50.0Y-172.0
X60.0Y-163.8
X60.0Y-172.0
X70.0Y-163.8
X70.0Y-172.0
X80.0Y-163.8
X80.0Y-172.0
X90.0Y-163.8
X90.0Y-172.0
X100.0Y-163.8
X100.0Y-172.0
X110.0Y-163.8
X110.0Y-172.0
X120.0Y-40.0
X120.0Y-48.2
X120.0Y-163.8
X120.0Y-172.0
X130.0Y-40.0
X130.0Y-48.2
X130.0Y-163.8
X130.0Y-172.0
X140.0Y-40.0
X140.0Y-48.2
X140.0Y-163.8
X140.0Y-172.0
X150.0Y-40.0
X150.0Y-48.2
X150.0Y-163.8
X150.0Y-172.0
X160.0Y-40.0
X160.0Y-48.2
X160.0Y-163.8
X160.0Y-172.0
X170.0Y-40.0
X170.0Y-48.2
X170.0Y-163.8
X170.0Y-172.0
X180.0Y-40.0
X180.0Y-48.2
X180.0Y-163.8
X180.0Y-172.0
X190.0Y-40.0
X190.0Y-48.2
X190.0Y-163.8
X190.0Y-172.0
X200.0Y-40.0
X200.0Y-48.2
X200.0Y-163.8
X200.0Y-172.0
X210.0Y-40.0
X210.0Y-48.2
X210.0Y-163.8
X210.0Y-172.0
X220.0Y-40.0
X220.0Y-48.2
X220.0Y-163.8
X220.0Y-172.0
X230.0Y-40.0
X230.0Y-48.2
X230.0Y-163.8
X230.0Y-172.0
X240.0Y-40.0
X240.0Y-48.2
X240.0Y-163.8
X240.0Y-172.0
X250.0Y-40.0
X250.0Y-48.2
X250.0Y-163.8
X250.0Y-172.0
X260.0Y-40.0
X260.0Y-48.2
X260.0Y-163.8
X260.0Y-172.0
X270.0Y-40.0
X270.0Y-48.2
X270.0Y-163.8
X270.0Y-172.0
X280.0Y-40.0
X280.0Y-48.2
X280.0Y-163.8
X280.0Y-172.0
X290.0Y-40.0
X290.0Y-48.2
X290.0Y-163.8
X290.0Y-172.0
X300.0Y-40.0
X300.0Y-48.2
X300.0Y-163.8
X300.0Y-172.0
X310.0Y-40.0
X310.0Y-48.2
X310.0Y-163.8
X310.0Y-172.0
X320.0Y-163.8
X320.0Y-172.0
X330.0Y-163.8
X330.0Y-172.0
X340.0Y-163.8
X340.0Y-172.0
T8
X28.3Y-143.25
X28.3Y-156.75
X31.7Y-143.25
X31.7Y-156.75
X38.3Y-128.25
X38.3Y-141.75
X41.7Y-128.25
X41.7Y-141.75
X48.3Y-113.25
X48.3Y-126.75
X48.3Y-143.5
X48.3Y-157.0
X51.7Y-113.25
X51.7Y-126.75
X51.7Y-143.5
X51.7Y-157.0
X58.3Y-128.25
X58.3Y-141.75
X61.7Y-128.25
X61.7Y-141.75
X68.3Y-143.25
X68.3Y-156.75
X71.7Y-143.25
X71.7Y-156.75
X78.3Y-128.25
X78.3Y-141.75
X81.7Y-128.25
X81.7Y-141.75
X88.3Y-103.25
X88.3Y-116.75
X88.3Y-143.25
X88.3Y-156.75
X91.7Y-103.25
X91.7Y-116.75
X91.7Y-143.25
X91.7Y-156.75
X98.3Y-128.25
X98.3Y-141.75
X101.7Y-128.25
X101.7Y-141.75
X108.3Y-143.25
X108.3Y-156.75
X111.7Y-143.25
X111.7Y-156.75
X118.3Y-88.25
X118.3Y-101.75
X118.3Y-128.25
X118.3Y-141.75
X121.7Y-88.25
X121.7Y-101.75
X121.7Y-128.25
X121.7Y-141.75
X128.3Y-103.25
X128.3Y-116.75
X128.3Y-143.25
X128.3Y-156.75
X131.7Y-103.25
X131.7Y-116.75
X131.7Y-143.25
X131.7Y-156.75
X138.3Y-88.25
X138.3Y-101.75
X138.3Y-128.25
X138.3Y-141.75
X141.7Y-88.25
X141.7Y-101.75
X141.7Y-128.25
X141.7Y-141.75
X148.3Y-103.25
X148.3Y-116.75
X148.3Y-143.25
X148.3Y-156.75
X151.7Y-103.25
X151.7Y-116.75
X151.7Y-143.25
X151.7Y-156.75
X158.3Y-88.25
X158.3Y-101.75
X158.3Y-128.25
X158.3Y-141.75
X161.7Y-88.25
X161.7Y-101.75
X161.7Y-128.25
X161.7Y-141.75
X168.3Y-103.25
X168.3Y-116.75
X168.3Y-143.25
X168.3Y-156.75
X171.7Y-103.25
X171.7Y-116.75
X171.7Y-143.25
X171.7Y-156.75
X178.3Y-88.25
X178.3Y-101.75
X178.3Y-128.25
X178.3Y-141.75
X181.7Y-88.25
X181.7Y-101.75
X181.7Y-128.25
X181.7Y-141.75
X188.3Y-103.25
X188.3Y-116.75
X188.3Y-143.25
X188.3Y-156.75
X191.7Y-103.25
X191.7Y-116.75
X191.7Y-143.25
X191.7Y-156.75
X198.3Y-88.25
X198.3Y-101.75
X198.3Y-128.25
X198.3Y-141.75
X201.7Y-88.25
X201.7Y-101.75
X201.7Y-128.25
X201.7Y-141.75
X208.3Y-103.25
X208.3Y-116.75
X208.3Y-143.25
X208.3Y-156.75
X211.7Y-103.25
X211.7Y-116.75
X211.7Y-143.25
X211.7Y-156.75
X218.3Y-88.25
X218.3Y-101.75
X218.3Y-128.25
X218.3Y-141.75
X221.7Y-88.25
X221.7Y-101.75
X221.7Y-128.25
X221.7Y-141.75
X228.3Y-103.25
X228.3Y-116.75
X228.3Y-143.25
X228.3Y-156.75
X231.7Y-103.25
X231.7Y-116.75
X231.7Y-143.25
X231.7Y-156.75
X238.3Y-88.25
X238.3Y-101.75
X238.3Y-128.25
X238.3Y-141.75
X241.7Y-88.25
X241.7Y-101.75
X241.7Y-128.25
X241.7Y-141.75
X248.3Y-143.25
X248.3Y-156.75
X251.7Y-143.25
X251.7Y-156.75
X258.3Y-128.25
X258.3Y-141.75
X261.7Y-128.25
X261.7Y-141.75
X268.3Y-103.25
X268.3Y-116.75
X268.3Y-143.25
X268.3Y-156.75
X271.7Y-103.25
X271.7Y-116.75
X271.7Y-143.25
X271.7Y-156.75
X278.3Y-128.25
X278.3Y-141.75
X281.7Y-128.25
X281.7Y-141.75
X288.3Y-143.25
X288.3Y-156.75
X291.7Y-143.25
X291.7Y-156.75
X298.3Y-128.25
X298.3Y-141.75
X301.7Y-128.25
X301.7Y-141.75
X308.3Y-103.25
X308.3Y-116.75
X308.3Y-143.25
X308.3Y-156.75
X311.7Y-103.25
X311.7Y-116.75
X311.7Y-143.25
X311.7Y-156.75
X318.3Y-128.25
X318.3Y-141.75
X321.7Y-128.25
X321.7Y-141.75
X328.3Y-143.25
X328.3Y-156.75
X331.7Y-143.25
X331.7Y-156.75
X338.3Y-128.25
X338.3Y-141.75
X341.7Y-128.25
X341.7Y-141.75
T9
X60.235Y-41.0
X69.765Y-41.0
T10
X35.0Y-26.0
X35.0Y-186.0
X105.0Y-100.0
X135.0Y-26.0
X135.0Y-186.0
X235.0Y-26.0
X235.0Y-186.0
X255.0Y-100.0
X335.0Y-26.0
X335.0Y-186.0
M30
