%TF.GenerationSoftware,KiCad,Pcbnew,9.0.7*%
%TF.CreationDate,2026-04-09T03:17:56+02:00*%
%TF.ProjectId,board1-switching,626f6172-6431-42d7-9377-69746368696e,1*%
%TF.SameCoordinates,Original*%
%TF.FileFunction,Soldermask,Top*%
%TF.FilePolarity,Negative*%
%FSLAX46Y46*%
G04 Gerber Fmt 4.6, Leading zero omitted, Abs format (unit mm)*
G04 Created by KiCad (PCBNEW 9.0.7) date 2026-04-09 03:17:56*
%MOMM*%
%LPD*%
G01*
G04 APERTURE LIST*
G04 Aperture macros list*
%AMRoundRect*
0 Rectangle with rounded corners*
0 $1 Rounding radius*
0 $2 $3 $4 $5 $6 $7 $8 $9 X,Y pos of 4 corners*
0 Add a 4 corners polygon primitive as box body*
4,1,4,$2,$3,$4,$5,$6,$7,$8,$9,$2,$3,0*
0 Add four circle primitives for the rounded corners*
1,1,$1+$1,$2,$3*
1,1,$1+$1,$4,$5*
1,1,$1+$1,$6,$7*
1,1,$1+$1,$8,$9*
0 Add four rect primitives between the rounded corners*
20,1,$1+$1,$2,$3,$4,$5,0*
20,1,$1+$1,$4,$5,$6,$7,0*
20,1,$1+$1,$6,$7,$8,$9,0*
20,1,$1+$1,$8,$9,$2,$3,0*%
%AMOutline5P*
0 Free polygon, 5 corners , with rotation*
0 The origin of the aperture is its center*
0 number of corners: always 5*
0 $1 to $10 corner X, Y*
0 $11 Rotation angle, in degrees counterclockwise*
0 create outline with 5 corners*
4,1,5,$1,$2,$3,$4,$5,$6,$7,$8,$9,$10,$1,$2,$11*%
%AMOutline6P*
0 Free polygon, 6 corners , with rotation*
0 The origin of the aperture is its center*
0 number of corners: always 6*
0 $1 to $12 corner X, Y*
0 $13 Rotation angle, in degrees counterclockwise*
0 create outline with 6 corners*
4,1,6,$1,$2,$3,$4,$5,$6,$7,$8,$9,$10,$11,$12,$1,$2,$13*%
%AMOutline7P*
0 Free polygon, 7 corners , with rotation*
0 The origin of the aperture is its center*
0 number of corners: always 7*
0 $1 to $14 corner X, Y*
0 $15 Rotation angle, in degrees counterclockwise*
0 create outline with 7 corners*
4,1,7,$1,$2,$3,$4,$5,$6,$7,$8,$9,$10,$11,$12,$13,$14,$1,$2,$15*%
%AMOutline8P*
0 Free polygon, 8 corners , with rotation*
0 The origin of the aperture is its center*
0 number of corners: always 8*
0 $1 to $16 corner X, Y*
0 $17 Rotation angle, in degrees counterclockwise*
0 create outline with 8 corners*
4,1,8,$1,$2,$3,$4,$5,$6,$7,$8,$9,$10,$11,$12,$13,$14,$15,$16,$1,$2,$17*%
G04 Aperture macros list end*
%ADD10C,3.000000*%
%ADD11C,2.000000*%
%ADD12RoundRect,0.250000X-1.750000X-1.000000X1.750000X-1.000000X1.750000X1.000000X-1.750000X1.000000X0*%
%ADD13C,0.900000*%
%ADD14C,9.000000*%
%ADD15C,3.200000*%
%ADD16R,1.800000X1.800000*%
%ADD17RoundRect,0.250000X-0.350000X-0.450000X0.350000X-0.450000X0.350000X0.450000X-0.350000X0.450000X0*%
%ADD18C,1.400000*%
%ADD19Outline8P,-1.750000X1.800000X-1.050000X2.500000X1.050000X2.500000X1.750000X1.800000X1.750000X-1.800000X1.050000X-2.500000X-1.050000X-2.500000X-1.750000X-1.800000X0.000000*%
%ADD20RoundRect,0.150000X-1.250000X-0.350000X1.250000X-0.350000X1.250000X0.350000X-1.250000X0.350000X0*%
%ADD21R,1.700000X1.700000*%
%ADD22C,1.700000*%
%ADD23RoundRect,0.250000X0.500000X-0.250000X0.500000X0.250000X-0.500000X0.250000X-0.500000X-0.250000X0*%
%ADD24RoundRect,0.354000X0.771000X-0.531000X0.771000X0.531000X-0.771000X0.531000X-0.771000X-0.531000X0*%
G04 APERTURE END LIST*
D10*
%TO.C,F3*%
X131700000Y-143250000D03*
X128300000Y-143250000D03*
X131700000Y-156750000D03*
X128300000Y-156750000D03*
%TD*%
D11*
%TO.C,TP2*%
X314500000Y-66750000D03*
%TD*%
D10*
%TO.C,F33*%
X271700000Y-143250000D03*
X268300000Y-143250000D03*
X271700000Y-156750000D03*
X268300000Y-156750000D03*
%TD*%
%TO.C,F38*%
X321700000Y-128250000D03*
X318300000Y-128250000D03*
X321700000Y-141750000D03*
X318300000Y-141750000D03*
%TD*%
D12*
%TO.C,C6*%
X65900000Y-62000000D03*
X72000000Y-62000000D03*
%TD*%
D10*
%TO.C,F13*%
X181700000Y-128250000D03*
X178300000Y-128250000D03*
X181700000Y-141750000D03*
X178300000Y-141750000D03*
%TD*%
%TO.C,F11*%
X171700000Y-143250000D03*
X168300000Y-143250000D03*
X171700000Y-156750000D03*
X168300000Y-156750000D03*
%TD*%
%TO.C,F34*%
X281700000Y-128250000D03*
X278300000Y-128250000D03*
X281700000Y-141750000D03*
X278300000Y-141750000D03*
%TD*%
D13*
%TO.C,H9*%
X231625000Y-186000000D03*
X232613515Y-183613515D03*
X232613515Y-188386485D03*
X235000000Y-182625000D03*
D14*
X235000000Y-186000000D03*
D13*
X235000000Y-189375000D03*
X237386485Y-183613515D03*
X237386485Y-188386485D03*
X238375000Y-186000000D03*
%TD*%
D10*
%TO.C,F15*%
X191700000Y-143250000D03*
X188300000Y-143250000D03*
X191700000Y-156750000D03*
X188300000Y-156750000D03*
%TD*%
%TO.C,F22*%
X51700000Y-113250000D03*
X48300000Y-113250000D03*
X51700000Y-126750000D03*
X48300000Y-126750000D03*
%TD*%
%TO.C,F14*%
X181700000Y-88250000D03*
X178300000Y-88250000D03*
X181700000Y-101750000D03*
X178300000Y-101750000D03*
%TD*%
D15*
%TO.C,J6*%
X190000000Y-163800000D03*
X200000000Y-163800000D03*
X210000000Y-163800000D03*
X220000000Y-163800000D03*
X230000000Y-163800000D03*
X240000000Y-163800000D03*
X250000000Y-163800000D03*
X260000000Y-163800000D03*
X190000000Y-172000000D03*
X200000000Y-172000000D03*
X210000000Y-172000000D03*
X220000000Y-172000000D03*
X230000000Y-172000000D03*
X240000000Y-172000000D03*
X250000000Y-172000000D03*
X260000000Y-172000000D03*
%TD*%
D16*
%TO.C,J15*%
X333730000Y-51540000D03*
D11*
X333730000Y-49000000D03*
X333730000Y-46460000D03*
X336270000Y-46460000D03*
X336270000Y-49000000D03*
X336270000Y-51540000D03*
%TD*%
D17*
%TO.C,R42*%
X323000000Y-58000000D03*
X325000000Y-58000000D03*
%TD*%
D10*
%TO.C,F39*%
X331700000Y-143250000D03*
X328300000Y-143250000D03*
X331700000Y-156750000D03*
X328300000Y-156750000D03*
%TD*%
D18*
%TO.C,K2*%
X101780000Y-68525000D03*
X109280000Y-75125000D03*
D11*
X108780000Y-64925000D03*
D10*
X100780000Y-64925000D03*
X108780000Y-67925000D03*
%TD*%
D13*
%TO.C,H7*%
X31625000Y-186000000D03*
X32613515Y-183613515D03*
X32613515Y-188386485D03*
X35000000Y-182625000D03*
D14*
X35000000Y-186000000D03*
D13*
X35000000Y-189375000D03*
X37386485Y-183613515D03*
X37386485Y-188386485D03*
X38375000Y-186000000D03*
%TD*%
%TO.C,H2*%
X131625000Y-26000000D03*
X132613515Y-23613515D03*
X132613515Y-28386485D03*
X135000000Y-22625000D03*
D14*
X135000000Y-26000000D03*
D13*
X135000000Y-29375000D03*
X137386485Y-23613515D03*
X137386485Y-28386485D03*
X138375000Y-26000000D03*
%TD*%
D10*
%TO.C,F43*%
X81700000Y-128250000D03*
X78300000Y-128250000D03*
X81700000Y-141750000D03*
X78300000Y-141750000D03*
%TD*%
D18*
%TO.C,K4*%
X131780000Y-68525000D03*
X139280000Y-75125000D03*
D11*
X138780000Y-64925000D03*
D10*
X130780000Y-64925000D03*
X138780000Y-67925000D03*
%TD*%
D13*
%TO.C,H1*%
X31625000Y-26000000D03*
X32613515Y-23613515D03*
X32613515Y-28386485D03*
X35000000Y-22625000D03*
D14*
X35000000Y-26000000D03*
D13*
X35000000Y-29375000D03*
X37386485Y-23613515D03*
X37386485Y-28386485D03*
X38375000Y-26000000D03*
%TD*%
D10*
%TO.C,F16*%
X191700000Y-103250000D03*
X188300000Y-103250000D03*
X191700000Y-116750000D03*
X188300000Y-116750000D03*
%TD*%
%TO.C,F28*%
X231700000Y-103250000D03*
X228300000Y-103250000D03*
X231700000Y-116750000D03*
X228300000Y-116750000D03*
%TD*%
%TO.C,F23*%
X211700000Y-143250000D03*
X208300000Y-143250000D03*
X211700000Y-156750000D03*
X208300000Y-156750000D03*
%TD*%
%TO.C,F9*%
X161700000Y-128250000D03*
X158300000Y-128250000D03*
X161700000Y-141750000D03*
X158300000Y-141750000D03*
%TD*%
%TO.C,F17*%
X201700000Y-128250000D03*
X198300000Y-128250000D03*
X201700000Y-141750000D03*
X198300000Y-141750000D03*
%TD*%
%TO.C,F48*%
X311700000Y-103250000D03*
X308300000Y-103250000D03*
X311700000Y-116750000D03*
X308300000Y-116750000D03*
%TD*%
D18*
%TO.C,K13*%
X266780000Y-68525000D03*
X274280000Y-75125000D03*
D11*
X273780000Y-64925000D03*
D10*
X265780000Y-64925000D03*
X273780000Y-67925000D03*
%TD*%
D13*
%TO.C,H10*%
X331625000Y-186000000D03*
X332613515Y-183613515D03*
X332613515Y-188386485D03*
X335000000Y-182625000D03*
D14*
X335000000Y-186000000D03*
D13*
X335000000Y-189375000D03*
X337386485Y-183613515D03*
X337386485Y-188386485D03*
X338375000Y-186000000D03*
%TD*%
D10*
%TO.C,F29*%
X241700000Y-128250000D03*
X238300000Y-128250000D03*
X241700000Y-141750000D03*
X238300000Y-141750000D03*
%TD*%
%TO.C,F36*%
X301700000Y-128250000D03*
X298300000Y-128250000D03*
X301700000Y-141750000D03*
X298300000Y-141750000D03*
%TD*%
D11*
%TO.C,TP3*%
X302500000Y-67000000D03*
%TD*%
D19*
%TO.C,J8*%
X69765000Y-41000000D03*
X60235000Y-41000000D03*
%TD*%
D15*
%TO.C,J3*%
X310000000Y-48200000D03*
X300000000Y-48200000D03*
X290000000Y-48200000D03*
X280000000Y-48200000D03*
X310000000Y-40000000D03*
X300000000Y-40000000D03*
X290000000Y-40000000D03*
X280000000Y-40000000D03*
%TD*%
D10*
%TO.C,F25*%
X221700000Y-128250000D03*
X218300000Y-128250000D03*
X221700000Y-141750000D03*
X218300000Y-141750000D03*
%TD*%
%TO.C,F24*%
X211700000Y-103250000D03*
X208300000Y-103250000D03*
X211700000Y-116750000D03*
X208300000Y-116750000D03*
%TD*%
D13*
%TO.C,H3*%
X231625000Y-26000000D03*
X232613515Y-23613515D03*
X232613515Y-28386485D03*
X235000000Y-22625000D03*
D14*
X235000000Y-26000000D03*
D13*
X235000000Y-29375000D03*
X237386485Y-23613515D03*
X237386485Y-28386485D03*
X238375000Y-26000000D03*
%TD*%
D20*
%TO.C,SW1*%
X325100000Y-84000000D03*
X325100000Y-88000000D03*
X330900000Y-84000000D03*
X330900000Y-88000000D03*
%TD*%
D21*
%TO.C,J9*%
X321920000Y-115750000D03*
D22*
X324460000Y-115750000D03*
X327000000Y-115750000D03*
X329540000Y-115750000D03*
X332080000Y-115750000D03*
X334620000Y-115750000D03*
%TD*%
D18*
%TO.C,K6*%
X161780000Y-68525000D03*
X169280000Y-75125000D03*
D11*
X168780000Y-64925000D03*
D10*
X160780000Y-64925000D03*
X168780000Y-67925000D03*
%TD*%
%TO.C,F21*%
X51700000Y-143500000D03*
X48300000Y-143500000D03*
X51700000Y-157000000D03*
X48300000Y-157000000D03*
%TD*%
%TO.C,F47*%
X271700000Y-103250000D03*
X268300000Y-103250000D03*
X271700000Y-116750000D03*
X268300000Y-116750000D03*
%TD*%
%TO.C,F26*%
X221700000Y-88250000D03*
X218300000Y-88250000D03*
X221700000Y-101750000D03*
X218300000Y-101750000D03*
%TD*%
D13*
%TO.C,H4*%
X331625000Y-26000000D03*
X332613515Y-23613515D03*
X332613515Y-28386485D03*
X335000000Y-22625000D03*
D14*
X335000000Y-26000000D03*
D13*
X335000000Y-29375000D03*
X337386485Y-23613515D03*
X337386485Y-28386485D03*
X338375000Y-26000000D03*
%TD*%
D10*
%TO.C,F18*%
X201700000Y-88250000D03*
X198300000Y-88250000D03*
X201700000Y-101750000D03*
X198300000Y-101750000D03*
%TD*%
D15*
%TO.C,J5*%
X110000000Y-163800000D03*
X120000000Y-163800000D03*
X130000000Y-163800000D03*
X140000000Y-163800000D03*
X150000000Y-163800000D03*
X160000000Y-163800000D03*
X170000000Y-163800000D03*
X180000000Y-163800000D03*
X110000000Y-172000000D03*
X120000000Y-172000000D03*
X130000000Y-172000000D03*
X140000000Y-172000000D03*
X150000000Y-172000000D03*
X160000000Y-172000000D03*
X170000000Y-172000000D03*
X180000000Y-172000000D03*
%TD*%
D10*
%TO.C,F2*%
X121700000Y-88250000D03*
X118300000Y-88250000D03*
X121700000Y-101750000D03*
X118300000Y-101750000D03*
%TD*%
D18*
%TO.C,K11*%
X236780000Y-68525000D03*
X244280000Y-75125000D03*
D11*
X243780000Y-64925000D03*
D10*
X235780000Y-64925000D03*
X243780000Y-67925000D03*
%TD*%
%TO.C,F7*%
X151700000Y-143250000D03*
X148300000Y-143250000D03*
X151700000Y-156750000D03*
X148300000Y-156750000D03*
%TD*%
D18*
%TO.C,K14*%
X266780000Y-90525000D03*
X274280000Y-97125000D03*
D11*
X273780000Y-86925000D03*
D10*
X265780000Y-86925000D03*
X273780000Y-89925000D03*
%TD*%
%TO.C,F31*%
X251700000Y-143250000D03*
X248300000Y-143250000D03*
X251700000Y-156750000D03*
X248300000Y-156750000D03*
%TD*%
D11*
%TO.C,TP4*%
X309000000Y-72500000D03*
%TD*%
D10*
%TO.C,F40*%
X341700000Y-128250000D03*
X338300000Y-128250000D03*
X341700000Y-141750000D03*
X338300000Y-141750000D03*
%TD*%
%TO.C,F42*%
X71700000Y-143250000D03*
X68300000Y-143250000D03*
X71700000Y-156750000D03*
X68300000Y-156750000D03*
%TD*%
D13*
%TO.C,H6*%
X251625000Y-100000000D03*
X252613515Y-97613515D03*
X252613515Y-102386485D03*
X255000000Y-96625000D03*
D14*
X255000000Y-100000000D03*
D13*
X255000000Y-103375000D03*
X257386485Y-97613515D03*
X257386485Y-102386485D03*
X258375000Y-100000000D03*
%TD*%
D11*
%TO.C,TP1*%
X318000000Y-72500000D03*
%TD*%
D10*
%TO.C,F32*%
X261700000Y-128250000D03*
X258300000Y-128250000D03*
X261700000Y-141750000D03*
X258300000Y-141750000D03*
%TD*%
D15*
%TO.C,J4*%
X30000000Y-163800000D03*
X40000000Y-163800000D03*
X50000000Y-163800000D03*
X60000000Y-163800000D03*
X70000000Y-163800000D03*
X80000000Y-163800000D03*
X90000000Y-163800000D03*
X100000000Y-163800000D03*
X30000000Y-172000000D03*
X40000000Y-172000000D03*
X50000000Y-172000000D03*
X60000000Y-172000000D03*
X70000000Y-172000000D03*
X80000000Y-172000000D03*
X90000000Y-172000000D03*
X100000000Y-172000000D03*
%TD*%
D13*
%TO.C,H5*%
X101625000Y-100000000D03*
X102613515Y-97613515D03*
X102613515Y-102386485D03*
X105000000Y-96625000D03*
D14*
X105000000Y-100000000D03*
D13*
X105000000Y-103375000D03*
X107386485Y-97613515D03*
X107386485Y-102386485D03*
X108375000Y-100000000D03*
%TD*%
D18*
%TO.C,K16*%
X86780000Y-89525000D03*
X94280000Y-96125000D03*
D11*
X93780000Y-85925000D03*
D10*
X85780000Y-85925000D03*
X93780000Y-88925000D03*
%TD*%
%TO.C,F1*%
X121700000Y-128250000D03*
X118300000Y-128250000D03*
X121700000Y-141750000D03*
X118300000Y-141750000D03*
%TD*%
D17*
%TO.C,R41*%
X323000000Y-60500000D03*
X325000000Y-60500000D03*
%TD*%
D10*
%TO.C,F19*%
X31700000Y-143250000D03*
X28300000Y-143250000D03*
X31700000Y-156750000D03*
X28300000Y-156750000D03*
%TD*%
%TO.C,F20*%
X41700000Y-128250000D03*
X38300000Y-128250000D03*
X41700000Y-141750000D03*
X38300000Y-141750000D03*
%TD*%
D18*
%TO.C,K9*%
X206780000Y-68525000D03*
X214280000Y-75125000D03*
D11*
X213780000Y-64925000D03*
D10*
X205780000Y-64925000D03*
X213780000Y-67925000D03*
%TD*%
D15*
%TO.C,J7*%
X270000000Y-163800000D03*
X280000000Y-163800000D03*
X290000000Y-163800000D03*
X300000000Y-163800000D03*
X310000000Y-163800000D03*
X320000000Y-163800000D03*
X330000000Y-163800000D03*
X340000000Y-163800000D03*
X270000000Y-172000000D03*
X280000000Y-172000000D03*
X290000000Y-172000000D03*
X300000000Y-172000000D03*
X310000000Y-172000000D03*
X320000000Y-172000000D03*
X330000000Y-172000000D03*
X340000000Y-172000000D03*
%TD*%
D10*
%TO.C,F12*%
X171700000Y-103250000D03*
X168300000Y-103250000D03*
X171700000Y-116750000D03*
X168300000Y-116750000D03*
%TD*%
%TO.C,F6*%
X141700000Y-88250000D03*
X138300000Y-88250000D03*
X141700000Y-101750000D03*
X138300000Y-101750000D03*
%TD*%
D18*
%TO.C,K12*%
X251780000Y-68525000D03*
X259280000Y-75125000D03*
D11*
X258780000Y-64925000D03*
D10*
X250780000Y-64925000D03*
X258780000Y-67925000D03*
%TD*%
%TO.C,F37*%
X311700000Y-143250000D03*
X308300000Y-143250000D03*
X311700000Y-156750000D03*
X308300000Y-156750000D03*
%TD*%
%TO.C,F5*%
X141700000Y-128250000D03*
X138300000Y-128250000D03*
X141700000Y-141750000D03*
X138300000Y-141750000D03*
%TD*%
%TO.C,F27*%
X231700000Y-143250000D03*
X228300000Y-143250000D03*
X231700000Y-156750000D03*
X228300000Y-156750000D03*
%TD*%
D12*
%TO.C,C5*%
X65900000Y-73500000D03*
X72000000Y-73500000D03*
%TD*%
D15*
%TO.C,J1*%
X190000000Y-48200000D03*
X180000000Y-48200000D03*
X170000000Y-48200000D03*
X160000000Y-48200000D03*
X150000000Y-48200000D03*
X140000000Y-48200000D03*
X130000000Y-48200000D03*
X120000000Y-48200000D03*
X190000000Y-40000000D03*
X180000000Y-40000000D03*
X170000000Y-40000000D03*
X160000000Y-40000000D03*
X150000000Y-40000000D03*
X140000000Y-40000000D03*
X130000000Y-40000000D03*
X120000000Y-40000000D03*
%TD*%
D10*
%TO.C,F41*%
X61700000Y-128250000D03*
X58300000Y-128250000D03*
X61700000Y-141750000D03*
X58300000Y-141750000D03*
%TD*%
D18*
%TO.C,K8*%
X191780000Y-68525000D03*
X199280000Y-75125000D03*
D11*
X198780000Y-64925000D03*
D10*
X190780000Y-64925000D03*
X198780000Y-67925000D03*
%TD*%
%TO.C,F46*%
X111700000Y-143250000D03*
X108300000Y-143250000D03*
X111700000Y-156750000D03*
X108300000Y-156750000D03*
%TD*%
D16*
%TO.C,J14*%
X333730000Y-69540000D03*
D11*
X333730000Y-67000000D03*
X333730000Y-64460000D03*
X336270000Y-64460000D03*
X336270000Y-67000000D03*
X336270000Y-69540000D03*
%TD*%
D10*
%TO.C,F45*%
X101700000Y-128250000D03*
X98300000Y-128250000D03*
X101700000Y-141750000D03*
X98300000Y-141750000D03*
%TD*%
%TO.C,F35*%
X291700000Y-143250000D03*
X288300000Y-143250000D03*
X291700000Y-156750000D03*
X288300000Y-156750000D03*
%TD*%
D15*
%TO.C,J2*%
X270000000Y-48200000D03*
X260000000Y-48200000D03*
X250000000Y-48200000D03*
X240000000Y-48200000D03*
X230000000Y-48200000D03*
X220000000Y-48200000D03*
X210000000Y-48200000D03*
X200000000Y-48200000D03*
X270000000Y-40000000D03*
X260000000Y-40000000D03*
X250000000Y-40000000D03*
X240000000Y-40000000D03*
X230000000Y-40000000D03*
X220000000Y-40000000D03*
X210000000Y-40000000D03*
X200000000Y-40000000D03*
%TD*%
D16*
%TO.C,J11*%
X333730000Y-111540000D03*
D11*
X333730000Y-109000000D03*
X333730000Y-106460000D03*
X336270000Y-106460000D03*
X336270000Y-109000000D03*
X336270000Y-111540000D03*
%TD*%
D18*
%TO.C,K7*%
X176780000Y-68525000D03*
X184280000Y-75125000D03*
D11*
X183780000Y-64925000D03*
D10*
X175780000Y-64925000D03*
X183780000Y-67925000D03*
%TD*%
D18*
%TO.C,K1*%
X86780000Y-68525000D03*
X94280000Y-75125000D03*
D11*
X93780000Y-64925000D03*
D10*
X85780000Y-64925000D03*
X93780000Y-67925000D03*
%TD*%
D18*
%TO.C,K3*%
X116780000Y-68525000D03*
X124280000Y-75125000D03*
D11*
X123780000Y-64925000D03*
D10*
X115780000Y-64925000D03*
X123780000Y-67925000D03*
%TD*%
%TO.C,F44*%
X91700000Y-143250000D03*
X88300000Y-143250000D03*
X91700000Y-156750000D03*
X88300000Y-156750000D03*
%TD*%
D18*
%TO.C,K15*%
X306780000Y-90525000D03*
X314280000Y-97125000D03*
D11*
X313780000Y-86925000D03*
D10*
X305780000Y-86925000D03*
X313780000Y-89925000D03*
%TD*%
%TO.C,F4*%
X131700000Y-103250000D03*
X128300000Y-103250000D03*
X131700000Y-116750000D03*
X128300000Y-116750000D03*
%TD*%
D23*
%TO.C,J13*%
X336705000Y-83000000D03*
X336705000Y-81500000D03*
X336705000Y-80000000D03*
X336705000Y-78500000D03*
X336705000Y-77000000D03*
D24*
X342375000Y-85865000D03*
X342375000Y-74135000D03*
%TD*%
D18*
%TO.C,K5*%
X146780000Y-68525000D03*
X154280000Y-75125000D03*
D11*
X153780000Y-64925000D03*
D10*
X145780000Y-64925000D03*
X153780000Y-67925000D03*
%TD*%
%TO.C,F10*%
X161700000Y-88250000D03*
X158300000Y-88250000D03*
X161700000Y-101750000D03*
X158300000Y-101750000D03*
%TD*%
D13*
%TO.C,H8*%
X131625000Y-186000000D03*
X132613515Y-183613515D03*
X132613515Y-188386485D03*
X135000000Y-182625000D03*
D14*
X135000000Y-186000000D03*
D13*
X135000000Y-189375000D03*
X137386485Y-183613515D03*
X137386485Y-188386485D03*
X138375000Y-186000000D03*
%TD*%
D10*
%TO.C,F30*%
X241700000Y-88250000D03*
X238300000Y-88250000D03*
X241700000Y-101750000D03*
X238300000Y-101750000D03*
%TD*%
D16*
%TO.C,J12*%
X333730000Y-60540000D03*
D11*
X333730000Y-58000000D03*
X333730000Y-55460000D03*
X336270000Y-55460000D03*
X336270000Y-58000000D03*
X336270000Y-60540000D03*
%TD*%
D10*
%TO.C,F8*%
X151700000Y-103250000D03*
X148300000Y-103250000D03*
X151700000Y-116750000D03*
X148300000Y-116750000D03*
%TD*%
D18*
%TO.C,K10*%
X221780000Y-68525000D03*
X229280000Y-75125000D03*
D11*
X228780000Y-64925000D03*
D10*
X220780000Y-64925000D03*
X228780000Y-67925000D03*
%TD*%
%TO.C,F49*%
X91700000Y-103250000D03*
X88300000Y-103250000D03*
X91700000Y-116750000D03*
X88300000Y-116750000D03*
%TD*%
D23*
%TO.C,J10*%
X336705000Y-98000000D03*
X336705000Y-96500000D03*
X336705000Y-95000000D03*
X336705000Y-93500000D03*
X336705000Y-92000000D03*
D24*
X342375000Y-100865000D03*
X342375000Y-89135000D03*
%TD*%
M02*
