<?xml version="1.0" encoding="UTF-8" standalone="no"?>
<!-- Created with Inkscape (http://www.inkscape.org/) -->

<svg
   xmlns:dc="http://purl.org/dc/elements/1.1/"
   xmlns:cc="http://creativecommons.org/ns#"
   xmlns:rdf="http://www.w3.org/1999/02/22-rdf-syntax-ns#"
   xmlns:svg="http://www.w3.org/2000/svg"
   xmlns="http://www.w3.org/2000/svg"
   xmlns:sodipodi="http://sodipodi.sourceforge.net/DTD/sodipodi-0.dtd"
   xmlns:inkscape="http://www.inkscape.org/namespaces/inkscape"
   version="1.1"
   id="svg10"
   xml:space="preserve"
   width="792"
   height="300"
   viewBox="0 0 792 300"
   sodipodi:docname="ACT Block Diagram.svg"
   inkscape:version="0.92.3 (2405546, 2018-03-11)"><metadata
     id="metadata16"><rdf:RDF><cc:Work
         rdf:about=""><dc:format>image/svg+xml</dc:format><dc:type
           rdf:resource="http://purl.org/dc/dcmitype/StillImage" /><dc:title></dc:title></cc:Work></rdf:RDF></metadata><defs
     id="defs14" /><sodipodi:namedview
     pagecolor="#ffffff"
     bordercolor="#666666"
     borderopacity="1"
     objecttolerance="10"
     gridtolerance="10"
     guidetolerance="10"
     inkscape:pageopacity="0"
     inkscape:pageshadow="2"
     inkscape:window-width="1920"
     inkscape:window-height="1001"
     id="namedview12"
     showgrid="false"
     inkscape:zoom="2.260101"
     inkscape:cx="396"
     inkscape:cy="150"
     inkscape:window-x="1911"
     inkscape:window-y="-9"
     inkscape:window-maximized="1"
     inkscape:current-layer="g18" /><g
     id="g18"
     inkscape:groupmode="layer"
     inkscape:label="ACT Block Diagram"
     transform="matrix(1.3333333,0,0,-1.3333333,-132,540)"><path
       d="m 72,511.2 h 468 v 79.2 H 72 Z"
       style="fill:#ffffff;fill-opacity:1;fill-rule:evenodd;stroke:none"
       id="path20"
       inkscape:connector-curvature="0" /><text
       transform="matrix(1,0,0,-1,73.05,582.17)"
       style="font-variant:normal;font-weight:normal;font-size:7.80000019px;font-family:Arial;-inkscape-font-specification:Arial;writing-mode:lr-tb;fill:#000000;fill-opacity:1;fill-rule:nonzero;stroke:none"
       id="text24"><tspan
         x="0 4.7891998 6.5832 8.3772001 12.5736 17.362801 21.5592 28.1502"
         y="0"
         sodipodi:role="line"
         id="tspan22">Filename</tspan></text>
<text
       transform="matrix(1,0,0,-1,105.97,582.17)"
       style="font-variant:normal;font-weight:normal;font-size:7.80000019px;font-family:Arial;-inkscape-font-specification:Arial;writing-mode:lr-tb;fill:#000000;fill-opacity:1;fill-rule:nonzero;stroke:none"
       id="text28"><tspan
         x="0"
         y="0"
         id="tspan26">:</tspan></text>
<text
       transform="matrix(1,0,0,-1,145.1,582.17)"
       style="font-variant:normal;font-weight:normal;font-size:7.80000019px;font-family:Arial;-inkscape-font-specification:Arial;writing-mode:lr-tb;fill:#000000;fill-opacity:1;fill-rule:nonzero;stroke:none"
       id="text32"><tspan
         x="0 5.421 11.4348 16.255199 18.056999 23.478001 25.271999 30.0924 33.695999 37.915798 40.310398 45.739201 47.533199 52.3536 56.5812 59.576401 63.804001"
         y="0"
         sodipodi:role="line"
         id="tspan30">ACT Block Diagram</tspan></text>
<text
       transform="matrix(1,0,0,-1,215.4,582.17)"
       style="font-variant:normal;font-weight:normal;font-size:7.80000019px;font-family:Arial;-inkscape-font-specification:Arial;writing-mode:lr-tb;fill:#000000;fill-opacity:1;fill-rule:nonzero;stroke:none"
       id="text36"><tspan
         x="0"
         y="0"
         id="tspan34">.</tspan></text>
<text
       transform="matrix(1,0,0,-1,217.63,582.17)"
       style="font-variant:normal;font-weight:normal;font-size:7.80000019px;font-family:Arial;-inkscape-font-specification:Arial;writing-mode:lr-tb;fill:#000000;fill-opacity:1;fill-rule:nonzero;stroke:none"
       id="text40"><tspan
         x="0 4.1886001 7.7922001 12.5814"
         y="0"
         sodipodi:role="line"
         id="tspan38">vsdx</tspan></text>
<text
       transform="matrix(1,0,0,-1,73.05,572.55)"
       style="font-variant:normal;font-weight:normal;font-size:7.80000019px;font-family:Arial;-inkscape-font-specification:Arial;writing-mode:lr-tb;fill:#000000;fill-opacity:1;fill-rule:nonzero;stroke:none"
       id="text44"><tspan
         x="0 4.7891998 6.5832 8.9778004 10.7718"
         y="0"
         sodipodi:role="line"
         id="tspan42">Title</tspan></text>
<text
       transform="matrix(1,0,0,-1,88.175,572.55)"
       style="font-variant:normal;font-weight:normal;font-size:7.80000019px;font-family:Arial;-inkscape-font-specification:Arial;writing-mode:lr-tb;fill:#000000;fill-opacity:1;fill-rule:nonzero;stroke:none"
       id="text48"><tspan
         x="0 2.4003999"
         y="0"
         sodipodi:role="line"
         id="tspan46">: </tspan></text>
<text
       transform="matrix(1,0,0,-1,73.05,562.95)"
       style="font-variant:normal;font-weight:normal;font-size:7.80000019px;font-family:Arial;-inkscape-font-specification:Arial;writing-mode:lr-tb;fill:#000000;fill-opacity:1;fill-rule:nonzero;stroke:none"
       id="text52"><tspan
         x="0 4.1964002 8.9856005 12.5892 14.9838 17.378401 22.7682 26.9646 28.7586"
         y="0"
         sodipodi:role="line"
         id="tspan50">Last Edit</tspan></text>
<text
       transform="matrix(1,0,0,-1,104.2,562.95)"
       style="font-variant:normal;font-weight:normal;font-size:7.80000019px;font-family:Arial;-inkscape-font-specification:Arial;writing-mode:lr-tb;fill:#000000;fill-opacity:1;fill-rule:nonzero;stroke:none"
       id="text56"><tspan
         x="0"
         y="0"
         id="tspan54">:</tspan></text>
<text
       transform="matrix(1,0,0,-1,145.1,562.95)"
       style="font-variant:normal;font-weight:normal;font-size:7.80000019px;font-family:Arial;-inkscape-font-specification:Arial;writing-mode:lr-tb;fill:#000000;fill-opacity:1;fill-rule:nonzero;stroke:none"
       id="text60"><tspan
         x="0"
         y="0"
         id="tspan58">2</tspan></text>
<text
       transform="matrix(1,0,0,-1,149.55,562.95)"
       style="font-variant:normal;font-weight:normal;font-size:7.80000019px;font-family:Arial;-inkscape-font-specification:Arial;writing-mode:lr-tb;fill:#000000;fill-opacity:1;fill-rule:nonzero;stroke:none"
       id="text64"><tspan
         x="0"
         y="0"
         id="tspan62">/</tspan></text>
<text
       transform="matrix(1,0,0,-1,151.78,562.95)"
       style="font-variant:normal;font-weight:normal;font-size:7.80000019px;font-family:Arial;-inkscape-font-specification:Arial;writing-mode:lr-tb;fill:#000000;fill-opacity:1;fill-rule:nonzero;stroke:none"
       id="text68"><tspan
         x="0 4.2248001"
         y="0"
         sodipodi:role="line"
         id="tspan66">25</tspan></text>
<text
       transform="matrix(1,0,0,-1,160.7,562.95)"
       style="font-variant:normal;font-weight:normal;font-size:7.80000019px;font-family:Arial;-inkscape-font-specification:Arial;writing-mode:lr-tb;fill:#000000;fill-opacity:1;fill-rule:nonzero;stroke:none"
       id="text72"><tspan
         x="0"
         y="0"
         id="tspan70">/</tspan></text>
<text
       transform="matrix(1,0,0,-1,162.93,562.95)"
       style="font-variant:normal;font-weight:normal;font-size:7.80000019px;font-family:Arial;-inkscape-font-specification:Arial;writing-mode:lr-tb;fill:#000000;fill-opacity:1;fill-rule:nonzero;stroke:none"
       id="text76"><tspan
         x="0 4.1964002 8.9856005 13.182"
         y="0"
         sodipodi:role="line"
         id="tspan74">2019</tspan></text>
<text
       transform="matrix(1,0,0,-1,73.05,553.35)"
       style="font-variant:normal;font-weight:normal;font-size:7.82499981px;font-family:Arial;-inkscape-font-specification:Arial;writing-mode:lr-tb;fill:#000000;fill-opacity:1;fill-rule:nonzero;stroke:none"
       id="text80"><tspan
         x="0 4.781075 6.5886502 9.5777998 13.1773 15.57175 17.9662 23.36545 27.55965 31.761675"
         y="0"
         sodipodi:role="line"
         id="tspan78">First Used</tspan></text>
<text
       transform="matrix(1,0,0,-1,109.52,553.35)"
       style="font-variant:normal;font-weight:normal;font-size:7.82499981px;font-family:Arial;-inkscape-font-specification:Arial;writing-mode:lr-tb;fill:#000000;fill-opacity:1;fill-rule:nonzero;stroke:none"
       id="text84"><tspan
         x="0"
         y="0"
         id="tspan82">:</tspan></text>
<text
       transform="matrix(1,0,0,-1,73.05,543.72)"
       style="font-variant:normal;font-weight:normal;font-size:7.80000019px;font-family:Arial;-inkscape-font-specification:Arial;writing-mode:lr-tb;fill:#000000;fill-opacity:1;fill-rule:nonzero;stroke:none"
       id="text88"><tspan
         x="0 5.9903998 10.1868 12.5814 16.7778"
         y="0"
         sodipodi:role="line"
         id="tspan86">Notes</tspan></text>
<text
       transform="matrix(1,0,0,-1,93.975,543.72)"
       style="font-variant:normal;font-weight:normal;font-size:7.80000019px;font-family:Arial;-inkscape-font-specification:Arial;writing-mode:lr-tb;fill:#000000;fill-opacity:1;fill-rule:nonzero;stroke:none"
       id="text92"><tspan
         x="0"
         y="0"
         id="tspan90">:</tspan></text>
<text
       transform="matrix(1,0,0,-1,647.93,464.15)"
       style="font-variant:normal;font-weight:normal;font-size:3px;font-family:Arial;-inkscape-font-specification:Arial;writing-mode:lr-tb;fill:#000000;fill-opacity:1;fill-rule:nonzero;stroke:none"
       id="text96"><tspan
         x="0 2.3970001 3.5969999"
         y="0"
         sodipodi:role="line"
         id="tspan94">Rev</tspan></text>
<text
       transform="matrix(1,0,0,-1,653.25,464.15)"
       style="font-variant:normal;font-weight:normal;font-size:3px;font-family:Arial;-inkscape-font-specification:Arial;writing-mode:lr-tb;fill:#000000;fill-opacity:1;fill-rule:nonzero;stroke:none"
       id="text100"><tspan
         x="0 0.60000002"
         y="0"
         sodipodi:role="line"
         id="tspan98">. </tspan></text>
<text
       transform="matrix(1,0,0,-1,654.93,464.15)"
       style="font-variant:normal;font-weight:normal;font-size:3px;font-family:Arial;-inkscape-font-specification:Arial;writing-mode:lr-tb;fill:#000000;fill-opacity:1;fill-rule:nonzero;stroke:none"
       id="text104"><tspan
         x="0 1.8 4.197 5.9970002 6.5970001 8.9940004 9.5939999 11.391 12.591 14.388"
         y="0"
         sodipodi:role="line"
         id="tspan102">ACT Block </tspan></text>
<text
       transform="matrix(1,0,0,-1,655.75,460.55)"
       style="font-variant:normal;font-weight:normal;font-size:3px;font-family:Arial;-inkscape-font-specification:Arial;writing-mode:lr-tb;fill:#000000;fill-opacity:1;fill-rule:nonzero;stroke:none"
       id="text108"><tspan
         x="0"
         y="0"
         id="tspan106">2</tspan></text>
<text
       transform="matrix(1,0,0,-1,657.43,460.55)"
       style="font-variant:normal;font-weight:normal;font-size:3px;font-family:Arial;-inkscape-font-specification:Arial;writing-mode:lr-tb;fill:#000000;fill-opacity:1;fill-rule:nonzero;stroke:none"
       id="text112"><tspan
         x="0"
         y="0"
         id="tspan110">/</tspan></text>
<text
       transform="matrix(1,0,0,-1,658.25,460.55)"
       style="font-variant:normal;font-weight:normal;font-size:3px;font-family:Arial;-inkscape-font-specification:Arial;writing-mode:lr-tb;fill:#000000;fill-opacity:1;fill-rule:nonzero;stroke:none"
       id="text116"><tspan
         x="0 1.8"
         y="0"
         sodipodi:role="line"
         id="tspan114">25</tspan></text>
<text
       transform="matrix(1,0,0,-1,661.6,460.55)"
       style="font-variant:normal;font-weight:normal;font-size:3px;font-family:Arial;-inkscape-font-specification:Arial;writing-mode:lr-tb;fill:#000000;fill-opacity:1;fill-rule:nonzero;stroke:none"
       id="text120"><tspan
         x="0"
         y="0"
         id="tspan118">/</tspan></text>
<text
       transform="matrix(1,0,0,-1,662.42,460.55)"
       style="font-variant:normal;font-weight:normal;font-size:3px;font-family:Arial;-inkscape-font-specification:Arial;writing-mode:lr-tb;fill:#000000;fill-opacity:1;fill-rule:nonzero;stroke:none"
       id="text124"><tspan
         x="0 1.7970001 3.5940001 4.7940001"
         y="0"
         sodipodi:role="line"
         id="tspan122">2019</tspan></text>
<path
       d="m 180,338.4 h 93.6"
       style="fill:none;stroke:#000000;stroke-width:1;stroke-linecap:round;stroke-linejoin:round;stroke-miterlimit:10;stroke-dasharray:none;stroke-opacity:1"
       id="path126"
       inkscape:connector-curvature="0" /><path
       d="M 223.2,237.6 V 338.4"
       style="fill:none;stroke:#000000;stroke-width:1;stroke-linecap:round;stroke-linejoin:round;stroke-miterlimit:10;stroke-dasharray:none;stroke-opacity:1"
       id="path128"
       inkscape:connector-curvature="0" /><path
       d="m 224.66,338.4 c 0,0.87 -0.65,1.57 -1.46,1.57 -0.81,0 -1.46,-0.7 -1.46,-1.57 0,-0.87 0.65,-1.57 1.46,-1.57 0.81,0 1.46,0.7 1.46,1.57 z"
       style="fill:#000000;fill-opacity:1;fill-rule:evenodd;stroke:none"
       id="path130"
       inkscape:connector-curvature="0" /><path
       d="m 224.66,338.4 c 0,0.87 -0.65,1.57 -1.46,1.57 -0.81,0 -1.46,-0.7 -1.46,-1.57 0,-0.87 0.65,-1.57 1.46,-1.57 0.81,0 1.46,0.7 1.46,1.57 z"
       style="fill:none;stroke:#000000;stroke-width:0.6006;stroke-linecap:round;stroke-linejoin:round;stroke-miterlimit:10;stroke-dasharray:none;stroke-opacity:1"
       id="path132"
       inkscape:connector-curvature="0" /><path
       d="M 273.6,266.4 H 360 v 86.4 h -86.4 z"
       style="fill:#ffffff;fill-opacity:1;fill-rule:evenodd;stroke:none"
       id="path134"
       inkscape:connector-curvature="0" /><path
       d="M 273.6,266.4 H 360 v 86.4 h -86.4 z"
       style="fill:none;stroke:#000000;stroke-width:1;stroke-linecap:round;stroke-linejoin:round;stroke-miterlimit:10;stroke-dasharray:none;stroke-opacity:1"
       id="path136"
       inkscape:connector-curvature="0" /><text
       transform="matrix(1,0,0,-1,287,312.3)"
       style="font-variant:normal;font-weight:bold;font-size:10.19999981px;font-family:Arial;-inkscape-font-specification:'Arial Bold';writing-mode:lr-tb;fill:#000000;fill-opacity:1;fill-rule:nonzero;stroke:none"
       id="text140"><tspan
         x="0 7.2012 12.597 16.187401 18.5844 24.5718 29.9676 32.9562 40.157398 42.554401 49.1436 54.539398 59.9352"
         y="0"
         sodipodi:role="line"
         id="tspan138">Active Clock </tspan></text>
<text
       transform="matrix(1,0,0,-1,285.35,300.3)"
       style="font-variant:normal;font-weight:bold;font-size:10.22500038px;font-family:Arial;-inkscape-font-specification:'Arial Bold';writing-mode:lr-tb;fill:#000000;fill-opacity:1;fill-rule:nonzero;stroke:none"
       id="text144"><tspan
         x="0 6.0020752 12.00415 18.58905 20.991924 26.993999 33.578899 35.981773 43.180176 46.165874 52.16795 57.56675"
         y="0"
         sodipodi:role="line"
         id="tspan142">Tuning Block</tspan></text>
<path
       d="m 403.2,323.93 h 108 v 28.867 h -108 z"
       style="fill:#ffffff;fill-opacity:1;fill-rule:evenodd;stroke:none"
       id="path146"
       inkscape:connector-curvature="0" /><path
       d="m 403.2,323.93 h 108 v 28.867 h -108 z"
       style="fill:none;stroke:#000000;stroke-width:1;stroke-linecap:round;stroke-linejoin:round;stroke-miterlimit:10;stroke-dasharray:none;stroke-opacity:1"
       id="path148"
       inkscape:connector-curvature="0" /><text
       transform="matrix(1,0,0,-1,431.98,335.1)"
       style="font-variant:normal;font-weight:bold;font-size:10.22500038px;font-family:Arial;-inkscape-font-specification:'Arial Bold';writing-mode:lr-tb;fill:#000000;fill-opacity:1;fill-rule:nonzero;stroke:none"
       id="text152"><tspan
         x="0 7.1984 13.200475 16.186174 23.384575 29.38665 37.188324 43.783451"
         y="0"
         sodipodi:role="line"
         id="tspan150">HFINTOSC</tspan></text>
<path
       d="m 403.35,215.93 h 108 v 28.867 h -108 z"
       style="fill:#ffffff;fill-opacity:1;fill-rule:evenodd;stroke:none"
       id="path154"
       inkscape:connector-curvature="0" /><path
       d="m 403.35,215.93 h 108 v 28.867 h -108 z"
       style="fill:none;stroke:#000000;stroke-width:1;stroke-linecap:round;stroke-linejoin:round;stroke-miterlimit:10;stroke-dasharray:none;stroke-opacity:1"
       id="path156"
       inkscape:connector-curvature="0" /><text
       transform="matrix(1,0,0,-1,436.85,226.98)"
       style="font-variant:normal;font-weight:bold;font-size:10.19999981px;font-family:Arial;-inkscape-font-specification:'Arial Bold';writing-mode:lr-tb;fill:#000000;fill-opacity:1;fill-rule:nonzero;stroke:none"
       id="text160"><tspan
         x="0 5.9976001 13.1988"
         y="0"
         sodipodi:role="line"
         id="tspan158">TUN</tspan></text>
<text
       transform="matrix(1,0,0,-1,457.4,226.98)"
       style="font-variant:normal;font-weight:bold;font-size:10.19999981px;font-family:Arial;-inkscape-font-specification:'Arial Bold';writing-mode:lr-tb;fill:#000000;fill-opacity:1;fill-rule:nonzero;stroke:none"
       id="text164"><tspan
         x="0"
         y="0"
         id="tspan162">[</tspan></text>
<text
       transform="matrix(1,0,0,-1,460.75,226.98)"
       style="font-variant:normal;font-weight:bold;font-size:10.19999981px;font-family:Arial;-inkscape-font-specification:'Arial Bold';writing-mode:lr-tb;fill:#000000;fill-opacity:1;fill-rule:nonzero;stroke:none"
       id="text168"><tspan
         x="0"
         y="0"
         id="tspan166">5</tspan></text>
<text
       transform="matrix(1,0,0,-1,466.3,226.98)"
       style="font-variant:normal;font-weight:bold;font-size:10.19999981px;font-family:Arial;-inkscape-font-specification:'Arial Bold';writing-mode:lr-tb;fill:#000000;fill-opacity:1;fill-rule:nonzero;stroke:none"
       id="text172"><tspan
         x="0"
         y="0"
         id="tspan170">:</tspan></text>
<text
       transform="matrix(1,0,0,-1,469.65,226.98)"
       style="font-variant:normal;font-weight:bold;font-size:10.19999981px;font-family:Arial;-inkscape-font-specification:'Arial Bold';writing-mode:lr-tb;fill:#000000;fill-opacity:1;fill-rule:nonzero;stroke:none"
       id="text176"><tspan
         x="0"
         y="0"
         id="tspan174">0</tspan></text>
<text
       transform="matrix(1,0,0,-1,475.2,226.98)"
       style="font-variant:normal;font-weight:bold;font-size:10.19999981px;font-family:Arial;-inkscape-font-specification:'Arial Bold';writing-mode:lr-tb;fill:#000000;fill-opacity:1;fill-rule:nonzero;stroke:none"
       id="text180"><tspan
         x="0"
         y="0"
         id="tspan178">]</tspan></text>
<path
       d="M 259.2,244.8 V 216"
       style="fill:none;stroke:#000000;stroke-width:1;stroke-linecap:round;stroke-linejoin:round;stroke-miterlimit:10;stroke-dasharray:none;stroke-opacity:1"
       id="path182"
       inkscape:connector-curvature="0" /><path
       d="m 259.2,244.8 h 21.6"
       style="fill:none;stroke:#000000;stroke-width:1;stroke-linecap:round;stroke-linejoin:round;stroke-miterlimit:10;stroke-dasharray:none;stroke-opacity:1"
       id="path184"
       inkscape:connector-curvature="0" /><path
       d="m 259.2,216 h 21.6"
       style="fill:none;stroke:#000000;stroke-width:1;stroke-linecap:round;stroke-linejoin:round;stroke-miterlimit:10;stroke-dasharray:none;stroke-opacity:1"
       id="path186"
       inkscape:connector-curvature="0" /><path
       d="m 280.8,244.8 c 7.95,0 14.4,-6.45 14.4,-14.4 0,-7.95 -6.45,-14.4 -14.4,-14.4"
       style="fill:none;stroke:#000000;stroke-width:1;stroke-linecap:round;stroke-linejoin:round;stroke-miterlimit:10;stroke-dasharray:none;stroke-opacity:1"
       id="path188"
       inkscape:connector-curvature="0" /><path
       d="m 223.2,237.6 h 36"
       style="fill:none;stroke:#000000;stroke-width:1;stroke-linecap:round;stroke-linejoin:round;stroke-miterlimit:10;stroke-dasharray:none;stroke-opacity:1"
       id="path190"
       inkscape:connector-curvature="0" /><path
       d="M 255.6,230.4 H 216"
       style="fill:none;stroke:#000000;stroke-width:1;stroke-linecap:round;stroke-linejoin:round;stroke-miterlimit:10;stroke-dasharray:none;stroke-opacity:1"
       id="path192"
       inkscape:connector-curvature="0" /><path
       d="m 259.2,223.2 h -36"
       style="fill:none;stroke:#000000;stroke-width:1;stroke-linecap:round;stroke-linejoin:round;stroke-miterlimit:10;stroke-dasharray:none;stroke-opacity:1"
       id="path194"
       inkscape:connector-curvature="0" /><path
       d="m 259.2,230.4 c 0,0.87 -0.7,1.57 -1.57,1.57 -0.86,0 -1.57,-0.7 -1.57,-1.57 0,-0.87 0.71,-1.57 1.57,-1.57 0.87,0 1.57,0.7 1.57,1.57 z"
       style="fill:none;stroke:#000000;stroke-width:1;stroke-linecap:round;stroke-linejoin:round;stroke-miterlimit:10;stroke-dasharray:none;stroke-opacity:1"
       id="path196"
       inkscape:connector-curvature="0" /><text
       transform="matrix(1,0,0,-1,177.48,227.23)"
       style="font-variant:normal;font-weight:bold;font-size:10.22500038px;font-family:Arial;-inkscape-font-specification:'Arial Bold';writing-mode:lr-tb;fill:#000000;fill-opacity:1;fill-rule:nonzero;stroke:none"
       id="text200"><tspan
         x="0 7.229075 14.45815 20.460224 27.689301"
         y="0"
         sodipodi:role="line"
         id="tspan198">ACTUD</tspan></text>
<text
       transform="matrix(1,0,0,-1,206.13,197.17)"
       style="font-variant:normal;font-weight:bold;font-size:10.19999981px;font-family:Arial;-inkscape-font-specification:'Arial Bold';writing-mode:lr-tb;fill:#000000;fill-opacity:1;fill-rule:nonzero;stroke:none"
       id="text204"><tspan
         x="0 7.2216001 14.4432 20.4408 27.070801"
         y="0"
         sodipodi:role="line"
         id="tspan202">ACTEN</tspan></text>
<path
       d="M 223.2,223.2 V 208.8"
       style="fill:none;stroke:#000000;stroke-width:1;stroke-linecap:round;stroke-linejoin:round;stroke-miterlimit:10;stroke-dasharray:none;stroke-opacity:1"
       id="path206"
       inkscape:connector-curvature="0" /><path
       d="m 273.6,345.6 7.2,-7.2"
       style="fill:none;stroke:#000000;stroke-width:0.75;stroke-linecap:round;stroke-linejoin:round;stroke-miterlimit:10;stroke-dasharray:none;stroke-opacity:1"
       id="path208"
       inkscape:connector-curvature="0" /><path
       d="m 273.6,331.2 7.2,7.2"
       style="fill:none;stroke:#000000;stroke-width:0.75;stroke-linecap:round;stroke-linejoin:round;stroke-miterlimit:10;stroke-dasharray:none;stroke-opacity:1"
       id="path210"
       inkscape:connector-curvature="0" /><path
       d="m 360,345.6 -7.2,-7.2"
       style="fill:none;stroke:#000000;stroke-width:0.75;stroke-linecap:round;stroke-linejoin:round;stroke-miterlimit:10;stroke-dasharray:none;stroke-opacity:1"
       id="path212"
       inkscape:connector-curvature="0" /><path
       d="m 360,331.2 -7.2,7.2"
       style="fill:none;stroke:#000000;stroke-width:0.75;stroke-linecap:round;stroke-linejoin:round;stroke-miterlimit:10;stroke-dasharray:none;stroke-opacity:1"
       id="path214"
       inkscape:connector-curvature="0" /><path
       d="m 360,338.4 h 43.2"
       style="fill:none;stroke:#000000;stroke-width:1;stroke-linecap:round;stroke-linejoin:round;stroke-miterlimit:10;stroke-dasharray:none;stroke-opacity:1"
       id="path216"
       inkscape:connector-curvature="0" /><text
       transform="matrix(1,0,0,-1,299.8,371.35)"
       style="font-variant:normal;font-weight:bold;font-size:10.19999981px;font-family:Arial;-inkscape-font-specification:'Arial Bold';writing-mode:lr-tb;fill:#000000;fill-opacity:1;fill-rule:nonzero;stroke:none"
       id="text220"><tspan
         x="0 7.2012 14.4024 20.4 26.999399"
         y="0"
         sodipodi:role="line"
         id="tspan218">ACTEN</tspan></text>
<path
       d="m 316.8,352.8 v 14.4"
       style="fill:none;stroke:#000000;stroke-width:1;stroke-linecap:round;stroke-linejoin:round;stroke-miterlimit:10;stroke-dasharray:none;stroke-opacity:1"
       id="path222"
       inkscape:connector-curvature="0" /><path
       d="m 403.2,237.72 7.2,-7.2"
       style="fill:none;stroke:#000000;stroke-width:0.75;stroke-linecap:round;stroke-linejoin:round;stroke-miterlimit:10;stroke-dasharray:none;stroke-opacity:1"
       id="path224"
       inkscape:connector-curvature="0" /><path
       d="m 403.2,223.32 7.2,7.2"
       style="fill:none;stroke:#000000;stroke-width:0.75;stroke-linecap:round;stroke-linejoin:round;stroke-miterlimit:10;stroke-dasharray:none;stroke-opacity:1"
       id="path226"
       inkscape:connector-curvature="0" /><path
       d="m 511.2,237.72 -7.2,-7.2"
       style="fill:none;stroke:#000000;stroke-width:0.75;stroke-linecap:round;stroke-linejoin:round;stroke-miterlimit:10;stroke-dasharray:none;stroke-opacity:1"
       id="path228"
       inkscape:connector-curvature="0" /><path
       d="m 511.2,223.32 -7.05,7.05"
       style="fill:none;stroke:#000000;stroke-width:0.75;stroke-linecap:round;stroke-linejoin:round;stroke-miterlimit:10;stroke-dasharray:none;stroke-opacity:1"
       id="path230"
       inkscape:connector-curvature="0" /><path
       d="m 604.8,216 v 28.8"
       style="fill:none;stroke:#000000;stroke-width:1;stroke-linecap:round;stroke-linejoin:round;stroke-miterlimit:10;stroke-dasharray:none;stroke-opacity:1"
       id="path232"
       inkscape:connector-curvature="0" /><path
       d="M 604.8,216 H 583.2"
       style="fill:none;stroke:#000000;stroke-width:1;stroke-linecap:round;stroke-linejoin:round;stroke-miterlimit:10;stroke-dasharray:none;stroke-opacity:1"
       id="path234"
       inkscape:connector-curvature="0" /><path
       d="M 604.8,244.8 H 583.2"
       style="fill:none;stroke:#000000;stroke-width:1;stroke-linecap:round;stroke-linejoin:round;stroke-miterlimit:10;stroke-dasharray:none;stroke-opacity:1"
       id="path236"
       inkscape:connector-curvature="0" /><path
       d="m 583.2,216 c -7.95,0 -14.4,6.45 -14.4,14.4 0,7.95 6.45,14.4 14.4,14.4"
       style="fill:none;stroke:#000000;stroke-width:1;stroke-linecap:round;stroke-linejoin:round;stroke-miterlimit:10;stroke-dasharray:none;stroke-opacity:1"
       id="path238"
       inkscape:connector-curvature="0" /><path
       d="m 607.94,223.2 c 0,0.87 -0.71,1.57 -1.57,1.57 -0.87,0 -1.57,-0.7 -1.57,-1.57 0,-0.87 0.7,-1.57 1.57,-1.57 0.86,0 1.57,0.7 1.57,1.57 z"
       style="fill:none;stroke:#000000;stroke-width:1;stroke-linecap:round;stroke-linejoin:round;stroke-miterlimit:10;stroke-dasharray:none;stroke-opacity:1"
       id="path240"
       inkscape:connector-curvature="0" /><path
       d="M 295.2,230.4 H 403.35"
       style="fill:none;stroke:#000000;stroke-width:1;stroke-linecap:round;stroke-linejoin:round;stroke-miterlimit:10;stroke-dasharray:none;stroke-opacity:1"
       id="path242"
       inkscape:connector-curvature="0" /><path
       d="M 568.8,230.4 H 511.35"
       style="fill:none;stroke:#000000;stroke-width:1;stroke-linecap:round;stroke-linejoin:round;stroke-miterlimit:10;stroke-dasharray:none;stroke-opacity:1"
       id="path244"
       inkscape:connector-curvature="0" /><text
       transform="matrix(1,0,0,-1,636.2,220)"
       style="font-variant:normal;font-weight:bold;font-size:10.19999981px;font-family:Arial;-inkscape-font-specification:'Arial Bold';writing-mode:lr-tb;fill:#000000;fill-opacity:1;fill-rule:nonzero;stroke:none"
       id="text248"><tspan
         x="0 7.2216001 14.4432 20.4408 27.070801"
         y="0"
         sodipodi:role="line"
         id="tspan246">ACTEN</tspan></text>
<path
       d="m 608.4,223.2 h 25.2"
       style="fill:none;stroke:#000000;stroke-width:1;stroke-linecap:round;stroke-linejoin:round;stroke-miterlimit:10;stroke-dasharray:none;stroke-opacity:1"
       id="path250"
       inkscape:connector-curvature="0" /><path
       d="m 604.8,237.6 h 28.8"
       style="fill:none;stroke:#000000;stroke-width:1;stroke-linecap:round;stroke-linejoin:round;stroke-miterlimit:10;stroke-dasharray:none;stroke-opacity:1"
       id="path252"
       inkscape:connector-curvature="0" /><path
       d="M 633.6,237.6 V 252"
       style="fill:none;stroke:#000000;stroke-width:1;stroke-linecap:round;stroke-linejoin:round;stroke-miterlimit:10;stroke-dasharray:none;stroke-opacity:1"
       id="path254"
       inkscape:connector-curvature="0" /><text
       transform="matrix(1,0,0,-1,598.88,267.13)"
       style="font-variant:normal;font-weight:bold;font-size:10.19999981px;font-family:Arial;-inkscape-font-specification:'Arial Bold';writing-mode:lr-tb;fill:#000000;fill-opacity:1;fill-rule:nonzero;stroke:none"
       id="text258"><tspan
         x="0 6.5994 12.597 16.187401 19.186199 26.989201 32.976601 36.577202 41.973 44.961601 52.764599 56.3652 59.353802 62.944199 68.339996"
         y="0"
         sodipodi:role="line"
         id="tspan256">Software write </tspan></text>
<text
       transform="matrix(1,0,0,-1,602.5,255.13)"
       style="font-variant:normal;font-weight:bold;font-size:10.22500038px;font-family:Arial;-inkscape-font-specification:'Arial Bold';writing-mode:lr-tb;fill:#000000;fill-opacity:1;fill-rule:nonzero;stroke:none"
       id="text262"><tspan
         x="0 3.588975 9.5910501 11.993925 19.795601 26.390724 33.589127 40.174026 47.372425 54.570824"
         y="0"
         sodipodi:role="line"
         id="tspan260">to OSCTUNE</tspan></text>
<path
       d="m 457.35,244.8 -0.14,71.43"
       style="fill:none;stroke:#000000;stroke-width:1;stroke-linecap:round;stroke-linejoin:round;stroke-miterlimit:10;stroke-dasharray:none;stroke-opacity:1"
       id="path264"
       inkscape:connector-curvature="0" /><path
       d="m 454.42,315.53 2.78,8.4 2.82,-8.39 z"
       style="fill:#000000;fill-opacity:1;fill-rule:evenodd;stroke:none"
       id="path266"
       inkscape:connector-curvature="0" /><path
       d="m 360,280.8 h 57.6"
       style="fill:none;stroke:#000000;stroke-width:1;stroke-linecap:round;stroke-linejoin:round;stroke-miterlimit:10;stroke-dasharray:none;stroke-opacity:1"
       id="path268"
       inkscape:connector-curvature="0" /><path
       d="m 417.6,280.8 v -36"
       style="fill:none;stroke:#000000;stroke-width:1;stroke-linecap:round;stroke-linejoin:round;stroke-miterlimit:10;stroke-dasharray:none;stroke-opacity:1"
       id="path270"
       inkscape:connector-curvature="0" /><path
       d="m 496.8,244.8 v 36"
       style="fill:none;stroke:#000000;stroke-width:1;stroke-linecap:round;stroke-linejoin:round;stroke-miterlimit:10;stroke-dasharray:none;stroke-opacity:1"
       id="path272"
       inkscape:connector-curvature="0" /><path
       d="m 496.8,280.8 h 36"
       style="fill:none;stroke:#000000;stroke-width:1;stroke-linecap:round;stroke-linejoin:round;stroke-miterlimit:10;stroke-dasharray:none;stroke-opacity:1"
       id="path274"
       inkscape:connector-curvature="0" /><text
       transform="matrix(1,0,0,-1,375.38,282.9)"
       style="font-variant:normal;font-weight:bold;font-size:7.80000019px;font-family:Arial;-inkscape-font-specification:'Arial Bold';writing-mode:lr-tb;fill:#000000;fill-opacity:1;fill-rule:nonzero;stroke:none"
       id="text278"><tspan
         x="0 5.9903998 11.388 16.1772 18.5718 23.361 28.1502 30.552601"
         y="0"
         sodipodi:role="line"
         id="tspan276">ACT data</tspan></text>
<text
       transform="matrix(1,0,0,-1,498.92,282.9)"
       style="font-variant:normal;font-weight:bold;font-size:7.80000019px;font-family:Arial;-inkscape-font-specification:'Arial Bold';writing-mode:lr-tb;fill:#000000;fill-opacity:1;fill-rule:nonzero;stroke:none"
       id="text282"><tspan
         x="0 5.3898001 10.179 16.169399 17.971201 23.361 27.5574 29.959801"
         y="0"
         sodipodi:role="line"
         id="tspan280">SFR data</tspan></text>
<path
       d="M 122.4,309.6 H 180 v 57.6 h -57.6 z"
       style="fill:#ffffff;fill-opacity:1;fill-rule:evenodd;stroke:none"
       id="path284"
       inkscape:connector-curvature="0" /><path
       d="M 122.4,309.6 H 180 v 57.6 h -57.6 z"
       style="fill:none;stroke:#000000;stroke-width:1;stroke-linecap:round;stroke-linejoin:round;stroke-miterlimit:10;stroke-dasharray:none;stroke-opacity:1"
       id="path286"
       inkscape:connector-curvature="0" /><text
       transform="matrix(1,0,0,-1,137.13,335.13)"
       style="font-variant:normal;font-weight:bold;font-size:10.19999981px;font-family:Arial;-inkscape-font-specification:'Arial Bold';writing-mode:lr-tb;fill:#000000;fill-opacity:1;fill-rule:nonzero;stroke:none"
       id="text290"><tspan
         x="0 6.6300001 14.4534 21.083401"
         y="0"
         sodipodi:role="line"
         id="tspan288">SOSC</tspan></text>
<text
       transform="matrix(1,0,0,-1,219.52,342.52)"
       style="font-variant:normal;font-weight:bold;font-size:10.19999981px;font-family:Arial;-inkscape-font-specification:'Arial Bold';writing-mode:lr-tb;fill:#000000;fill-opacity:1;fill-rule:nonzero;stroke:none"
       id="text294"><tspan
         x="0 7.2012 14.4024 20.4 23.388599 28.784401 31.773001 37.770599 43.166401"
         y="0"
         sodipodi:role="line"
         id="tspan292">ACT clock</tspan></text>
</g></svg>