<?xml version="1.0" encoding="UTF-8" standalone="no"?>
<!-- Created with Inkscape (http://www.inkscape.org/) -->

<svg
   xmlns:dc="http://purl.org/dc/elements/1.1/"
   xmlns:cc="http://creativecommons.org/ns#"
   xmlns:rdf="http://www.w3.org/1999/02/22-rdf-syntax-ns#"
   xmlns:svg="http://www.w3.org/2000/svg"
   xmlns="http://www.w3.org/2000/svg"
   xmlns:sodipodi="http://sodipodi.sourceforge.net/DTD/sodipodi-0.dtd"
   xmlns:inkscape="http://www.inkscape.org/namespaces/inkscape"
   width="127.08208mm"
   height="102.67287mm"
   viewBox="0 0 450.29086 363.80151"
   id="svg4007"
   version="1.1"
   inkscape:version="0.92.2 (5c3e80d, 2017-08-06)"
   sodipodi:docname="30-000100A=GUID-88CA76E2-FC50-4A07-B529-04F80C445A08=2=en-US=Source.svg">
  <defs
     id="defs4009">
    <clipPath
       clipPathUnits="userSpaceOnUse"
       id="clipPath3542">
      <path
         d="m 20.639,508.64 470.76,0 0,-427.44 -470.76,0 0,427.44 z"
         id="path3544"
         inkscape:connector-curvature="0"
         style="clip-rule:evenodd" />
    </clipPath>
    <clipPath
       clipPathUnits="userSpaceOnUse"
       id="clipPath3548">
      <path
         d="m 80.999,369.92 468,0 0,-297.72 -468,0 0,297.72 z"
         id="path3550"
         inkscape:connector-curvature="0"
         style="clip-rule:evenodd" />
    </clipPath>
    <clipPath
       clipPathUnits="userSpaceOnUse"
       id="clipPath3554">
      <path
         d="m 0,792.06 612,0 0,-792 -612,0 0,792 z"
         id="path3556"
         inkscape:connector-curvature="0" />
    </clipPath>
  </defs>
  <sodipodi:namedview
     id="base"
     pagecolor="#ffffff"
     bordercolor="#666666"
     borderopacity="1.0"
     inkscape:pageopacity="0.0"
     inkscape:pageshadow="2"
     inkscape:zoom="2.8"
     inkscape:cx="152.88233"
     inkscape:cy="197.09014"
     inkscape:document-units="px"
     inkscape:current-layer="g3538"
     showgrid="false"
     fit-margin-top="0"
     fit-margin-left="0"
     fit-margin-right="0"
     fit-margin-bottom="0"
     inkscape:window-width="1920"
     inkscape:window-height="1147"
     inkscape:window-x="1672"
     inkscape:window-y="-8"
     inkscape:window-maximized="1" />
  <metadata
     id="metadata4012">
    <rdf:RDF>
      <cc:Work
         rdf:about="">
        <dc:format>image/svg+xml</dc:format>
        <dc:type
           rdf:resource="http://purl.org/dc/dcmitype/StillImage" />
        <dc:title />
      </cc:Work>
    </rdf:RDF>
  </metadata>
  <g
     inkscape:label="Layer 1"
     inkscape:groupmode="layer"
     id="layer1"
     transform="translate(-105.88382,-286.23191)">
    <g
       transform="matrix(1.25,0,0,-1.25,-58.413026,753.10848)"
       id="g3538">
      <g
         transform="translate(194.879,337.16)"
         id="g3558">
        <path
           inkscape:connector-curvature="0"
           id="path3560"
           style="fill:none;stroke:#000000;stroke-width:0.80299997;stroke-linecap:round;stroke-linejoin:round;stroke-miterlimit:10;stroke-dasharray:none;stroke-opacity:1"
           d="m 0,0 h 143.88 v -18.24 h 144" />
        <g
           transform="translate(0,-54.6)"
           id="g3562">
          <path
             inkscape:connector-curvature="0"
             id="path3564"
             style="fill:none;stroke:#000000;stroke-width:0.80299997;stroke-linecap:round;stroke-linejoin:round;stroke-miterlimit:10;stroke-dasharray:none;stroke-opacity:1"
             d="m 0,0 h 143.88 8.52 V 18.24 H 189" />
          <g
             transform="translate(0,-36.24)"
             id="g3566">
            <path
               inkscape:connector-curvature="0"
               id="path3568"
               style="fill:none;stroke:#000000;stroke-width:0.80299997;stroke-linecap:round;stroke-linejoin:round;stroke-miterlimit:10;stroke-dasharray:none;stroke-opacity:1"
               d="m 0,0 h 143.88 v 18.12 h 144" />
            <g
               transform="translate(143.88,-18.24)"
               id="g3570">
              <path
                 inkscape:connector-curvature="0"
                 id="path3572"
                 style="fill:none;stroke:#000000;stroke-width:0.80299997;stroke-linecap:round;stroke-linejoin:round;stroke-miterlimit:10;stroke-dasharray:none;stroke-opacity:1"
                 d="M 0,0 V -18.24" />
              <g
                 id="g3574">
                <path
                   inkscape:connector-curvature="0"
                   id="path3576"
                   style="fill:none;stroke:#000000;stroke-width:0.80299997;stroke-linecap:round;stroke-linejoin:round;stroke-miterlimit:10;stroke-dasharray:none;stroke-opacity:1"
                   d="M 0,0 H -36" />
                <g
                   transform="translate(-143.88,-54.6)"
                   id="g3578">
                  <path
                     inkscape:connector-curvature="0"
                     id="path3580"
                     style="fill:none;stroke:#000000;stroke-width:0.80299997;stroke-linecap:round;stroke-linejoin:round;stroke-miterlimit:10;stroke-dasharray:none;stroke-opacity:1"
                     d="M 0,0 H 162 V 18.24 H 287.88" />
                  <g
                     transform="translate(18,54.6)"
                     id="g3582">
                    <path
                       inkscape:connector-curvature="0"
                       id="path3584"
                       style="fill:none;stroke:#000000;stroke-width:0.80299997;stroke-linecap:round;stroke-linejoin:round;stroke-miterlimit:10;stroke-dasharray:none;stroke-opacity:1"
                       d="M 0,0 V -18.24" />
                    <g
                       transform="translate(260.88,72.72)"
                       id="g3586">
                      <path
                         inkscape:connector-curvature="0"
                         id="path3588"
                         style="fill:none;stroke:#000000;stroke-width:0.80299997;stroke-linecap:round;stroke-linejoin:round;stroke-miterlimit:10;stroke-dasharray:none;stroke-opacity:1"
                         d="M 0,0 V -18.24" />
                      <g
                         transform="translate(-242.88,-163.56)"
                         id="g3590">
                        <path
                           inkscape:connector-curvature="0"
                           id="path3592"
                           style="fill:none;stroke:#000000;stroke-width:0.80299997;stroke-linecap:round;stroke-linejoin:round;stroke-miterlimit:10;stroke-dasharray:none;stroke-opacity:1"
                           d="M 0,0 V 18.12" />
                        <g
                           transform="translate(153,-0.12)"
                           id="g3594">
                          <path
                             inkscape:connector-curvature="0"
                             id="path3596"
                             style="fill:none;stroke:#000000;stroke-width:0.80299997;stroke-linecap:round;stroke-linejoin:round;stroke-miterlimit:10;stroke-dasharray:none;stroke-opacity:1"
                             d="M 0,0 H 98.88" />
                          <g
                             transform="translate(-63.12,18.24)"
                             id="g3598">
                            <path
                               inkscape:connector-curvature="0"
                               id="path3600"
                               style="fill:none;stroke:#000000;stroke-width:0.80299997;stroke-linecap:round;stroke-linejoin:round;stroke-miterlimit:10;stroke-dasharray:none;stroke-opacity:1"
                               d="m 0,0 h 45.12 v -18.12 h 18" />
                            <g
                               transform="translate(18,54.48)"
                               id="g3602">
                              <path
                                 inkscape:connector-curvature="0"
                                 id="path3604"
                                 style="fill:none;stroke:#000000;stroke-width:0.80299997;stroke-linecap:round;stroke-linejoin:round;stroke-miterlimit:10;stroke-dasharray:none;stroke-opacity:1"
                                 d="M 0,0 H 144" />
                              <g
                                 transform="translate(-143.88,-109.08)"
                                 id="g3606">
                                <path
                                   inkscape:connector-curvature="0"
                                   id="path3608"
                                   style="fill:none;stroke:#000000;stroke-width:0.80299997;stroke-linecap:round;stroke-linejoin:round;stroke-miterlimit:10;stroke-dasharray:none;stroke-opacity:1"
                                   d="m 0,0 h 162 v 18.12 h 7.92" />
                                <g
                                   transform="translate(189,200.04)"
                                   id="g3610">
                                <path
                                   inkscape:connector-curvature="0"
                                   id="path3612"
                                   style="fill:none;stroke:#000000;stroke-width:0.80299997;stroke-linecap:round;stroke-linejoin:round;stroke-miterlimit:10;stroke-dasharray:none;stroke-opacity:1"
                                   d="M 0,0 H 89.88" />
                                <g
                                   transform="translate(-171,-72.72)"
                                   id="g3614">
                                <path
                                   inkscape:connector-curvature="0"
                                   id="path3616"
                                   style="fill:none;stroke:#000000;stroke-width:0.80299997;stroke-linecap:round;stroke-linejoin:round;stroke-miterlimit:10;stroke-dasharray:none;stroke-opacity:1"
                                   d="M 0,0 H 89.88" />
                                <g
                                   transform="translate(260.88,54.48)"
                                   id="g3618">
                                <path
                                   inkscape:connector-curvature="0"
                                   id="path3620"
                                   style="fill:none;stroke:#000000;stroke-width:0.80299997;stroke-linecap:round;stroke-linejoin:round;stroke-miterlimit:10;stroke-dasharray:none;stroke-opacity:1"
                                   d="M 0,0 H 9 V 18.24" />
                                <g
                                   transform="translate(-260.88,-72.72)"
                                   id="g3622">
                                <path
                                   inkscape:connector-curvature="0"
                                   id="path3624"
                                   style="fill:none;stroke:#000000;stroke-width:0.80299997;stroke-linecap:round;stroke-linejoin:round;stroke-miterlimit:10;stroke-dasharray:none;stroke-opacity:1"
                                   d="m 0,0 h -9 v 18.24 h -9" />
                                <g
                                   transform="translate(27,-72.6)"
                                   id="g3626">
                                <path
                                   inkscape:connector-curvature="0"
                                   id="path3628"
                                   style="fill:none;stroke:#000000;stroke-width:0.80299997;stroke-linecap:round;stroke-linejoin:round;stroke-miterlimit:10;stroke-dasharray:none;stroke-opacity:1"
                                   d="M 0,0 V 18.12 H 80.88" />
                                <g
                                   id="g3630">
                                <path
                                   inkscape:connector-curvature="0"
                                   id="path3632"
                                   style="fill:none;stroke:#000000;stroke-width:0.80299997;stroke-linecap:round;stroke-linejoin:round;stroke-miterlimit:10;stroke-dasharray:none;stroke-opacity:1"
                                   d="M 0,0 H -9" />
                                <g
                                   transform="translate(-9,18.12)"
                                   id="g3634">
                                <path
                                   inkscape:connector-curvature="0"
                                   id="path3636"
                                   style="fill:none;stroke:#000000;stroke-width:0.80299997;stroke-linecap:round;stroke-linejoin:round;stroke-miterlimit:10;stroke-dasharray:none;stroke-opacity:1"
                                   d="M 0,0 H -36" />
                                </g>
                                </g>
                                </g>
                                </g>
                                </g>
                                </g>
                                </g>
                              </g>
                            </g>
                          </g>
                        </g>
                      </g>
                    </g>
                  </g>
                </g>
              </g>
            </g>
          </g>
        </g>
      </g>
      <g
         transform="translate(203.879,82.64)"
         id="g3638">
        <path
           inkscape:connector-curvature="0"
           id="path3640"
           style="fill:none;stroke:#000000;stroke-width:0.301;stroke-linecap:round;stroke-linejoin:round;stroke-miterlimit:10;stroke-dasharray:none;stroke-opacity:1"
           d="M 0,0 V 272.76" />
        <g
           transform="translate(134.88,272.76)"
           id="g3642">
          <path
             inkscape:connector-curvature="0"
             id="path3644"
             style="fill:none;stroke:#000000;stroke-width:0.301;stroke-linecap:round;stroke-linejoin:round;stroke-miterlimit:10;stroke-dasharray:none;stroke-opacity:1"
             d="M 0,0 V -272.76" />
        </g>
      </g>
      <g
         transform="translate(356.879,209.84)"
         id="g3646">
        <path
           inkscape:connector-curvature="0"
           id="path3648"
           style="fill:#000000;fill-opacity:1;fill-rule:nonzero;stroke:#000000;stroke-width:0.12;stroke-linecap:round;stroke-linejoin:round;stroke-miterlimit:10;stroke-dasharray:none;stroke-opacity:1"
           d="m 0,0 v -1.8 l -0.12,0.12 V 0 L 0,0.24 Z m 0,-3 v -1.8 l -0.12,0.12 V -3 L 0,-2.76 Z M 0,-6 V -7.8 H -0.12 V -6 L 0,-5.88 Z m 0,-3.12 v -1.8 l -0.12,0.12 v 1.68 L 0,-8.88 Z m 0,-3 v -1.8 l -0.12,0.12 v 1.68 L 0,-11.88 Z m 0,-3 v -1.8 l -0.12,0.12 v 1.68 L 0,-14.88 Z m 0,-3 v -0.12 L -0.12,-18.12 0,-18 Z" />
      </g>
      <g
         transform="translate(356.879,191.72)"
         id="g3650">
        <path
           inkscape:connector-curvature="0"
           id="path3652"
           style="fill:#000000;fill-opacity:1;fill-rule:nonzero;stroke:#000000;stroke-width:0.12;stroke-linecap:round;stroke-linejoin:round;stroke-miterlimit:10;stroke-dasharray:none;stroke-opacity:1"
           d="M 0,0 V -1.92 L -0.12,-1.8 V 0.12 H 0 Z M 0,-3 V -4.92 L -0.12,-4.8 V -3 Z M 0,-6.12 V -8.04 L -0.12,-7.8 V -6 H 0 Z m 0,-3 v -1.92 l -0.12,0.24 V -9 H 0 Z m 0,-3 v -1.92 l -0.12,0.24 v 1.68 L 0,-12 Z m 0,-3 v -1.92 l -0.12,0.12 v 1.8 z m 0,-3.12 v -1.92 l -0.12,0.24 v 1.68 L 0,-18.12 Z m 0,-3 v -1.92 l -0.12,0.24 v 1.68 L 0,-21.12 Z m 0,-3 v -1.92 l -0.12,0.24 v 1.68 L 0,-24.12 Z m 0,-3 v -1.92 l -0.12,0.12 v 1.8 L 0,-27.12 Z m 0,-3.12 v -1.92 l -0.12,0.24 v 1.68 L 0,-30.24 Z m 0,-3 v -1.92 l -0.12,0.12 v 1.8 L 0,-33.24 Z m 0,-3 v -1.92 l -0.12,0.12 v 1.8 L 0,-36.24 Z m 0,-3 v -1.92 l -0.12,0.12 v 1.8 L 0,-39.24 Z m 0,-3 v -1.92 l -0.12,0.12 v 1.8 z m 0,-3.12 v -1.8 l -0.12,0.12 v 1.8 L 0,-45.24 Z m 0,-3 v -1.8 l -0.12,0.12 v 1.8 L 0,-48.24 Z m 0,-3 v -1.8 l -0.12,0.12 v 1.8 L 0,-51.24 Z m 0,-3 v -1.8 h -0.12 v 1.8 L 0,-54.36 Z m 0,-3.12 v -1.8 l -0.12,0.12 v 1.68 L 0,-57.36 Z m 0,-3 v -1.8 l -0.12,0.12 v 1.68 L 0,-60.36 Z m 0,-3 v -1.8 l -0.12,0.12 v 1.68 L 0,-63.36 Z m 0,-3 v -1.8 h -0.12 v 1.8 L 0,-66.48 Z m 0,-3 v -1.92 l -0.12,0.12 v 1.8 L 0,-69.48 Z m 0,-3.12 v -1.8 l -0.12,0.12 v 1.68 L 0,-72.48 Z m 0,-3 v -1.8 h -0.12 v 1.8 L 0,-75.48 Z m 0,-3 v -1.8 h -0.12 v 1.8 L 0,-78.48 Z m 0,-3 v -1.92 h -0.12 v 1.92 L 0,-81.6 Z m 0,-3.12 v -1.8 h -0.12 v 1.8 L 0,-84.6 Z m 0,-3 v -1.8 l -0.12,0.12 v 1.68 L 0,-87.6 Z m 0,-2.88 v -1.92 l -0.12,0.12 v 1.8 L 0,-90.6 Z m -0.12,-3 H 0 v -1.92 h -0.12 z m 0.12,0 z m 0,-3.12 v -1.92 l -0.12,0.12 v 1.8 L 0,-96.72 Z m 0,-3 v -1.92 l -0.12,0.12 v 1.8 L 0,-99.72 Z m 0,-3 v -1.92 l -0.12,0.12 v 1.8 l 0.12,0.12 z m 0,-3 v -1.92 l -0.12,0.12 v 1.8 z m 0,-3.12 v -0.24 l -0.12,0.12 v 0.12 l 0.12,0.12 z" />
      </g>
      <g
         transform="translate(365.879,173.48)"
         id="g3654">
        <path
           inkscape:connector-curvature="0"
           id="path3656"
           style="fill:#000000;fill-opacity:1;fill-rule:nonzero;stroke:#000000;stroke-width:0.12;stroke-linecap:round;stroke-linejoin:round;stroke-miterlimit:10;stroke-dasharray:none;stroke-opacity:1"
           d="M 0,0 V -1.92 H -0.12 V 0.12 H 0 Z m 0,-3 v -1.92 h -0.12 v 2.04 H 0 Z m 0,-3 v -1.92 h -0.12 v 2.04 H 0 Z m 0,-3 v -1.92 h -0.12 v 2.04 H 0 Z m 0,-3.12 v -1.92 H -0.12 V -12 H 0 Z m 0,-3 v -1.92 H -0.12 V -15 H 0 Z m 0,-3 v -1.92 H -0.12 V -18 H 0 Z m 0,-3 v -1.92 H -0.12 V -21 H 0 Z m -0.12,-3 H 0 v -1.92 h -0.12 z m 0.12,0 z m 0,-3.12 v -1.92 l -0.12,0.12 v 1.92 H 0 Z m 0,-3 v -1.92 l -0.12,0.12 v 1.92 H 0 Z m 0,-3 v -1.92 l -0.12,0.12 v 1.92 H 0 Z m 0,-3 v -1.92 l -0.12,0.12 v 1.92 H 0 Z m 0,-3.12 v -1.92 l -0.12,0.12 v 1.92 H 0 Z m 0,-3 v -1.92 l -0.12,0.12 v 1.92 H 0 Z m 0,-3 v -1.92 l -0.12,0.12 v 1.92 H 0 Z m 0,-3 v -1.92 l -0.12,0.12 v 1.92 H 0 Z m -0.12,-3 H 0 v -1.92 h -0.12 z m 0.12,0 z m 0,-3.12 v -1.92 l -0.12,0.12 v 1.92 H 0 Z m 0,-3 v -1.92 l -0.12,0.12 v 1.92 H 0 Z m 0,-3 v -1.92 l -0.12,0.12 v 1.92 H 0 Z m -0.12,-3 H 0 v -1.92 h -0.12 z m 0.12,0 z m 0,-3.12 v -1.92 l -0.12,0.12 v 1.92 H 0 Z m 0,-3 v -1.92 l -0.12,0.12 v 1.92 H 0 Z m 0,-3 v -1.92 l -0.12,0.12 v 1.92 H 0 Z m 0,-3 v -1.92 l -0.12,0.12 v 1.92 H 0 Z m 0,-3.12 v -1.8 h -0.12 v 1.92 H 0 Z m 0,-3 v -1.8 h -0.12 v 1.92 L 0,-81.48 Z m 0,-3 v -1.8 h -0.12 v 1.92 L 0,-84.48 Z m 0,-3 v -1.8 h -0.12 v 1.92 H 0 Z m 0,-3 v -0.24 h -0.12 v 0.24 L 0,-90.6 Z" />
      </g>
      <g
         transform="translate(347.879,355.4)"
         id="g3658">
        <path
           inkscape:connector-curvature="0"
           id="path3660"
           style="fill:#000000;fill-opacity:1;fill-rule:nonzero;stroke:#000000;stroke-width:0.12;stroke-linecap:round;stroke-linejoin:round;stroke-miterlimit:10;stroke-dasharray:none;stroke-opacity:1"
           d="M 0,0 V -1.92 L -0.12,-1.8 V 0 L 0,0.12 Z m 0,-3.12 v -1.92 l -0.24,0.12 v 1.8 L 0,-3 Z m 0,-3 v -1.8 l -0.12,-0.12 -0.12,0.24 v 1.68 L 0,-6 Z m 0,-3 v -1.68 l -0.12,-0.24 -0.12,0.24 v 1.68 L -0.12,-9 Z m 0,-3 v -1.8 l -0.12,-0.12 -0.12,0.12 v 1.8 l 0.12,0.12 z m 0,-3 v -1.8 l -0.12,-0.12 -0.12,0.12 v 1.8 z m 0,-3.12 v -1.68 l -0.12,-0.24 -0.24,0.24 v 1.68 l 0.24,0.12 z m 0,-3 v -1.68 l -0.24,-0.24 -0.12,0.24 v 1.68 l 0.12,0.12 z m 0,-3 -0.12,-1.68 -0.12,-0.24 -0.12,0.24 v 1.68 l 0.12,0.12 z m -0.12,-3 v -1.8 l -0.12,-0.12 -0.12,0.12 v 1.8 z m 0,-3.12 v -1.68 l -0.12,-0.24 -0.24,0.24 0.12,1.68 0.12,0.12 z m 0,-3 v -1.68 l -0.12,-0.24 -0.24,0.24 v 1.68 l 0.24,0.12 z m 0,-3 v -1.68 l -0.24,-0.24 -0.12,0.24 v 1.68 l 0.12,0.12 z m -0.12,-3 v -1.8 l -0.12,-0.12 -0.12,0.12 v 1.8 l 0.12,0.12 z m 0,-3.12 v -1.68 l -0.12,-0.12 -0.12,0.12 v 1.68 l 0.12,0.12 z m 0,-3 v -1.68 l -0.12,-0.24 -0.24,0.24 0.12,1.68 0.12,0.12 z m 0,-3 v -1.68 l -0.24,-0.24 -0.12,0.24 v 1.68 l 0.24,0.12 z m 0,-3 v -1.68 l -0.24,-0.12 -0.12,0.12 v 1.68 l 0.12,0.12 z m -0.12,-3 v -1.8 l -0.12,-0.12 -0.12,0.12 v 1.8 l 0.12,0.12 z m 0,-3.12 v -1.68 l -0.12,-0.12 -0.12,0.12 v 1.68 l 0.12,0.24 z m 0,-3 v -1.68 l -0.12,-0.12 -0.12,0.12 v 1.68 l 0.12,0.24 z m 0,-3 v -1.68 L -0.6,-65.4 v 1.8 l 0.12,0.24 z m 0,-3 -0.12,-1.8 H -0.6 v 1.92 z m -0.12,-3.12 v -1.68 l -0.12,-0.12 v 2.04 z m 0,-3 v -0.12 H -0.6 v 0.36 z" />
      </g>
      <g
         transform="translate(272.039,346.28)"
         id="g3662">
        <path
           inkscape:connector-curvature="0"
           id="path3664"
           style="fill:none;stroke:#000000;stroke-width:0.20100001;stroke-linecap:round;stroke-linejoin:round;stroke-miterlimit:10;stroke-dasharray:none;stroke-opacity:1"
           d="M 0,0 H 70.2" />
      </g>
      <g
         transform="translate(341.759,348.32)"
         id="g3666">
        <path
           inkscape:connector-curvature="0"
           id="path3668"
           style="fill:#000000;fill-opacity:1;fill-rule:evenodd;stroke:none"
           d="M 0,0 6.12,-2.04 0,-4.2 V 0" />
      </g>
      <g
         transform="translate(272.039,346.28)"
         id="g3670">
        <path
           inkscape:connector-curvature="0"
           id="path3672"
           style="fill:none;stroke:#000000;stroke-width:0.20100001;stroke-linecap:round;stroke-linejoin:round;stroke-miterlimit:10;stroke-dasharray:none;stroke-opacity:1"
           d="M 0,0 H -62.64" />
      </g>
      <g
         transform="translate(209.999,344.12)"
         id="g3674">
        <path
           inkscape:connector-curvature="0"
           id="path3676"
           style="fill:#000000;fill-opacity:1;fill-rule:evenodd;stroke:none"
           d="M 0,0 -6.12,2.16 0,4.2 V 0" />
      </g>
      <g
         transform="translate(482.759,355.4)"
         id="g3678">
        <path
           inkscape:connector-curvature="0"
           id="path3680"
           style="fill:none;stroke:#000000;stroke-width:0.301;stroke-linecap:round;stroke-linejoin:round;stroke-miterlimit:10;stroke-dasharray:none;stroke-opacity:1"
           d="M 0,0 V -272.76" />
        <g
           transform="translate(-71.04,-9.12)"
           id="g3682">
          <path
             inkscape:connector-curvature="0"
             id="path3684"
             style="fill:none;stroke:#000000;stroke-width:0.301;stroke-linecap:round;stroke-linejoin:round;stroke-miterlimit:10;stroke-dasharray:none;stroke-opacity:1"
             d="M 0,0 H 65.52" />
        </g>
      </g>
      <g
         transform="translate(476.639,348.32)"
         id="g3686">
        <path
           inkscape:connector-curvature="0"
           id="path3688"
           style="fill:#000000;fill-opacity:1;fill-rule:evenodd;stroke:none"
           d="M 0,0 6.12,-2.04 0,-4.2 V 0" />
      </g>
      <g
         transform="translate(411.719,346.28)"
         id="g3690">
        <path
           inkscape:connector-curvature="0"
           id="path3692"
           style="fill:none;stroke:#000000;stroke-width:0.20100001;stroke-linecap:round;stroke-linejoin:round;stroke-miterlimit:10;stroke-dasharray:none;stroke-opacity:1"
           d="M 0,0 H -58.32" />
      </g>
      <g
         transform="translate(353.879,344.12)"
         id="g3694">
        <path
           inkscape:connector-curvature="0"
           id="path3696"
           style="fill:#000000;fill-opacity:1;fill-rule:evenodd;stroke:none"
           d="M 0,0 -6,2.16 0,4.2 V 0" />
      </g>
      <g
         transform="translate(272.519,218.96)"
         id="g3698">
        <path
           inkscape:connector-curvature="0"
           id="path3700"
           style="fill:none;stroke:#000000;stroke-width:0.20100001;stroke-linecap:round;stroke-linejoin:round;stroke-miterlimit:10;stroke-dasharray:none;stroke-opacity:1"
           d="M 0,0 H 60.72" />
      </g>
      <g
         transform="translate(332.759,221)"
         id="g3702">
        <path
           inkscape:connector-curvature="0"
           id="path3704"
           style="fill:#000000;fill-opacity:1;fill-rule:evenodd;stroke:none"
           d="M 0,0 6,-2.04 0,-4.08 V 0" />
      </g>
      <g
         transform="translate(272.519,218.96)"
         id="g3706">
        <path
           inkscape:connector-curvature="0"
           id="path3708"
           style="fill:none;stroke:#000000;stroke-width:0.20100001;stroke-linecap:round;stroke-linejoin:round;stroke-miterlimit:10;stroke-dasharray:none;stroke-opacity:1"
           d="M 0,0 H -54.12" />
      </g>
      <g
         transform="translate(218.999,216.92)"
         id="g3710">
        <path
           inkscape:connector-curvature="0"
           id="path3712"
           style="fill:#000000;fill-opacity:1;fill-rule:evenodd;stroke:none"
           d="M 0,0 -6.12,2.04 0,4.08 V 0" />
      </g>
      <g
         transform="translate(407.519,291.68)"
         id="g3714">
        <path
           inkscape:connector-curvature="0"
           id="path3716"
           style="fill:none;stroke:#000000;stroke-width:0.301;stroke-linecap:round;stroke-linejoin:round;stroke-miterlimit:10;stroke-dasharray:none;stroke-opacity:1"
           d="M 0,0 H 60.72" />
      </g>
      <g
         transform="translate(467.639,293.84)"
         id="g3718">
        <path
           inkscape:connector-curvature="0"
           id="path3720"
           style="fill:#000000;fill-opacity:1;fill-rule:evenodd;stroke:none"
           d="M 0,0 6.12,-2.16 0,-4.2 V 0" />
      </g>
      <g
         transform="translate(407.399,291.68)"
         id="g3722">
        <path
           inkscape:connector-curvature="0"
           id="path3724"
           style="fill:none;stroke:#000000;stroke-width:0.20100001;stroke-linecap:round;stroke-linejoin:round;stroke-miterlimit:10;stroke-dasharray:none;stroke-opacity:1"
           d="M 0,0 H -54" />
      </g>
      <g
         transform="translate(353.879,289.64)"
         id="g3726">
        <path
           inkscape:connector-curvature="0"
           id="path3728"
           style="fill:#000000;fill-opacity:1;fill-rule:evenodd;stroke:none"
           d="M 0,0 -6,2.04 0,4.2 V 0" />
      </g>
      <g
         transform="translate(347.279,200.72)"
         id="g3730">
        <path
           inkscape:connector-curvature="0"
           id="path3732"
           style="fill:none;stroke:#000000;stroke-width:0.20100001;stroke-linecap:round;stroke-linejoin:round;stroke-miterlimit:10;stroke-dasharray:none;stroke-opacity:1"
           d="M 0,0 H 3.96" />
      </g>
      <g
         transform="translate(350.759,202.88)"
         id="g3734">
        <path
           inkscape:connector-curvature="0"
           id="path3736"
           style="fill:#000000;fill-opacity:1;fill-rule:evenodd;stroke:none"
           d="M 0,0 6.12,-2.16 0,-4.08 V 0" />
      </g>
      <g
         transform="translate(347.279,200.72)"
         id="g3738">
        <path
           inkscape:connector-curvature="0"
           id="path3740"
           style="fill:none;stroke:#000000;stroke-width:0.20100001;stroke-linecap:round;stroke-linejoin:round;stroke-miterlimit:10;stroke-dasharray:none;stroke-opacity:1"
           d="M 0,0 H -2.88" />
      </g>
      <g
         transform="translate(344.879,198.8)"
         id="g3742">
        <path
           inkscape:connector-curvature="0"
           id="path3744"
           style="fill:#000000;fill-opacity:1;fill-rule:evenodd;stroke:none"
           d="M 0,0 -6.12,1.92 0,4.08 V 0" />
      </g>
      <g
         transform="translate(351.599,164.48)"
         id="g3746">
        <path
           inkscape:connector-curvature="0"
           id="path3748"
           style="fill:none;stroke:#000000;stroke-width:0.20100001;stroke-linecap:round;stroke-linejoin:round;stroke-miterlimit:10;stroke-dasharray:none;stroke-opacity:1"
           d="M 0,0 H 8.64" />
      </g>
      <g
         transform="translate(359.759,166.52)"
         id="g3750">
        <path
           inkscape:connector-curvature="0"
           id="path3752"
           style="fill:#000000;fill-opacity:1;fill-rule:evenodd;stroke:none"
           d="M 0,0 6.12,-2.04 0,-4.2 V 0" />
      </g>
      <g
         transform="translate(351.599,164.48)"
         id="g3754">
        <path
           inkscape:connector-curvature="0"
           id="path3756"
           style="fill:none;stroke:#000000;stroke-width:0.20100001;stroke-linecap:round;stroke-linejoin:round;stroke-miterlimit:10;stroke-dasharray:none;stroke-opacity:1"
           d="M 0,0 H -7.2" />
      </g>
      <g
         transform="translate(344.879,162.32)"
         id="g3758">
        <path
           inkscape:connector-curvature="0"
           id="path3760"
           style="fill:#000000;fill-opacity:1;fill-rule:evenodd;stroke:none"
           d="M 0,0 -6.12,2.16 0,4.2 V 0" />
      </g>
      <g
         transform="translate(329.759,109.88)"
         id="g3762">
        <path
           inkscape:connector-curvature="0"
           id="path3764"
           style="fill:none;stroke:#000000;stroke-width:0.20100001;stroke-linecap:round;stroke-linejoin:round;stroke-miterlimit:10;stroke-dasharray:none;stroke-opacity:1"
           d="M 0,0 H 21.48" />
      </g>
      <g
         transform="translate(350.759,111.92)"
         id="g3766">
        <path
           inkscape:connector-curvature="0"
           id="path3768"
           style="fill:#000000;fill-opacity:1;fill-rule:evenodd;stroke:none"
           d="M 0,0 6.12,-2.04 0,-4.08 V 0" />
      </g>
      <g
         transform="translate(394.439,109.88)"
         id="g3770">
        <path
           inkscape:connector-curvature="0"
           id="path3772"
           style="fill:none;stroke:#000000;stroke-width:0.20100001;stroke-linecap:round;stroke-linejoin:round;stroke-miterlimit:10;stroke-dasharray:none;stroke-opacity:1"
           d="M 0,0 H -23.04" />
      </g>
      <g
         transform="translate(371.879,107.84)"
         id="g3774">
        <path
           inkscape:connector-curvature="0"
           id="path3776"
           style="fill:#000000;fill-opacity:1;fill-rule:evenodd;stroke:none"
           d="M 0,0 -6,2.04 0,4.08 V 0" />
      </g>
      <text
         id="text3778"
         style="font-variant:normal;font-weight:normal;font-stretch:normal;line-height:0%;font-family:Arial;-inkscape-font-specification:Arial;writing-mode:lr-tb;fill:#000000;fill-opacity:1;fill-rule:nonzero;stroke:none"
         transform="scale(1,-1)"
         x="251.879"
         y="-349.64029">
        <tspan
           style="font-size:8.07240009px;line-height:1.25"
           id="tspan3780"
           sodipodi:role="line"
           y="-349.64029"
           x="251.879 256.79993 261.11868 263.87863 269.63748 274.07648 276.83643 281.15518 283.43643 288.71658 293.03531 295.79529 297.59381 302.03281 391.19168 396.95053 401.38953 405.34985 409.78888 412.42856 416.50833 420.82709 423.10834 428.38849 432.70721 435.46716 437.26572 441.70471">Forward PeriodReverse Period</tspan>
        <tspan
           style="font-size:8.07240009px;line-height:1.25"
           id="tspan3782"
           sodipodi:role="line"
           y="-356.36057"
           x="339.95938 342.24063">t1</tspan>
        <tspan
           style="font-size:8.07240009px;line-height:1.25"
           id="tspan3784"
           sodipodi:role="line"
           y="-210.92096"
           x="254.51949 259.79965 264.11838 265.9169 269.9967 274.42682 276.5878 284.02896 285.82748 290.2576 292.4436">Pulse Width</tspan>
        <tspan
           style="font-size:8.07240009px;line-height:1.25"
           id="tspan3786"
           sodipodi:role="line"
           y="-283.52087"
           x="389.3996 394.80487 399.12363 400.93668 404.99387 409.31259 411.59387 419.035 420.83353 425.27255 427.43353">Pulse Width</tspan>
        <tspan
           id="tspan3788"
           y="-198.32074"
           x="358.31924">T</tspan>
      </text>
      <text
         id="text3790"
         style="font-variant:normal;font-weight:normal;font-stretch:normal;line-height:0%;font-family:Arial;-inkscape-font-specification:Arial;writing-mode:lr-tb;fill:#000000;fill-opacity:1;fill-rule:nonzero;stroke:none"
         transform="scale(1,-1)"
         x="363.23901"
         y="-197.2404">
        <tspan
           style="font-size:5.24679995px;line-height:1.25"
           id="tspan3792"
           sodipodi:role="line"
           y="-197.2404"
           x="363.23901 367.1998">ON</tspan>
      </text>
      <text
         id="text3794"
         style="font-variant:normal;font-weight:normal;font-stretch:normal;font-size:8.07240009px;line-height:0%;font-family:Arial;-inkscape-font-specification:Arial;writing-mode:lr-tb;fill:#000000;fill-opacity:1;fill-rule:nonzero;stroke:none"
         transform="scale(1,-1)"
         x="367.07901"
         y="-162.0804">
        <tspan
           id="tspan3796"
           y="-162.0804"
           x="367.07901">T</tspan>
      </text>
      <text
         id="text3798"
         style="font-variant:normal;font-weight:normal;font-stretch:normal;line-height:0%;font-family:Arial;-inkscape-font-specification:Arial;writing-mode:lr-tb;fill:#000000;fill-opacity:1;fill-rule:nonzero;stroke:none"
         transform="scale(1,-1)"
         x="371.99899"
         y="-160.8804">
        <tspan
           style="font-size:5.24679995px;line-height:1.25"
           id="tspan3800"
           sodipodi:role="line"
           y="-160.8804"
           x="371.99899 376.07996 379.20074">OFF</tspan>
      </text>
      <text
         id="text3802"
         style="font-variant:normal;font-weight:normal;font-stretch:normal;line-height:0%;font-family:Arial;-inkscape-font-specification:Arial;writing-mode:lr-tb;fill:#000000;fill-opacity:1;fill-rule:nonzero;stroke:none"
         transform="scale(1,-1)"
         x="395.99899"
         y="-107.4803">
        <tspan
           style="font-size:8.07240009px;line-height:1.25"
           id="tspan3804"
           sodipodi:role="line"
           y="-107.4803"
           x="395.99899 400.80048 403.08173 407.76212 409.9231">T = T</tspan>
      </text>
      <text
         id="text3806"
         style="font-variant:normal;font-weight:normal;font-stretch:normal;line-height:0%;font-family:Arial;-inkscape-font-specification:Arial;writing-mode:lr-tb;fill:#000000;fill-opacity:1;fill-rule:nonzero;stroke:none"
         transform="scale(1,-1)"
         x="414.83911"
         y="-106.2803">
        <tspan
           style="font-size:5.24679995px;line-height:1.25"
           id="tspan3808"
           sodipodi:role="line"
           y="-106.2803"
           x="414.83911 418.92007 422.04086">OFF</tspan>
      </text>
      <text
         id="text3810"
         style="font-variant:normal;font-weight:normal;font-stretch:normal;line-height:0%;font-family:Arial;-inkscape-font-specification:Arial;writing-mode:lr-tb;fill:#000000;fill-opacity:1;fill-rule:nonzero;stroke:none"
         transform="scale(1,-1)"
         x="427.44009"
         y="-107.4803">
        <tspan
           style="font-size:8.07240009px;line-height:1.25"
           id="tspan3812"
           sodipodi:role="line"
           y="-107.4803"
           x="427.44009 430.20004 432.36102">- T</tspan>
      </text>
      <text
         id="text3814"
         style="font-variant:normal;font-weight:normal;font-stretch:normal;line-height:0%;font-family:Arial;-inkscape-font-specification:Arial;writing-mode:lr-tb;fill:#000000;fill-opacity:1;fill-rule:nonzero;stroke:none"
         transform="scale(1,-1)"
         x="437.27911"
         y="-106.2803">
        <tspan
           style="font-size:5.24679995px;line-height:1.25"
           id="tspan3816"
           sodipodi:role="line"
           y="-106.2803"
           x="437.27911 441.2399">ON</tspan>
      </text>
      <g
         transform="translate(364.799,118.88)"
         id="g3818">
        <path
           inkscape:connector-curvature="0"
           id="path3820"
           style="fill:none;stroke:#000000;stroke-width:0.80299997;stroke-linecap:round;stroke-linejoin:round;stroke-miterlimit:10;stroke-dasharray:none;stroke-opacity:1"
           d="M 0,0 H 1.08 V -18.12 H 117.96" />
      </g>
      <text
         id="text3822"
         style="font-variant:normal;font-weight:normal;font-stretch:normal;line-height:0%;font-family:Arial;-inkscape-font-specification:Arial;writing-mode:lr-tb;fill:#000000;fill-opacity:1;fill-rule:nonzero;stroke:none"
         transform="scale(1,-1)"
         x="164.879"
         y="-324.80029">
        <tspan
           style="font-size:8.07240009px;line-height:1.25"
           id="tspan3824"
           sodipodi:role="line"
           x="164.879"
           y="-324.80029">CWGxA</tspan>
        <tspan
           style="font-size:8.07240009px;line-height:1.25"
           id="tspan3826"
           sodipodi:role="line"
           x="164.879"
           y="-318.672"></tspan>
        <tspan
           style="font-size:8.07240009px;line-height:1.25"
           sodipodi:role="line"
           x="164.879"
           y="-318.672"
           id="tspan5324"></tspan>
        <tspan
           style="font-size:8.07240009px;line-height:1.25"
           sodipodi:role="line"
           x="164.879"
           y="-318.672"
           id="tspan5326"></tspan>
        <tspan
           style="font-size:8.07240009px;line-height:1.25"
           sodipodi:role="line"
           x="164.879"
           y="-318.672"
           id="tspan5328"></tspan>
        <tspan
           style="font-size:8.07240009px;line-height:1.25"
           sodipodi:role="line"
           x="164.879"
           y="-318.672"
           id="tspan5332" />
        <tspan
           style="font-size:8.07240009px;line-height:1.25"
           sodipodi:role="line"
           x="164.879"
           y="-318.672"
           id="tspan5334" />
        <tspan
           style="font-size:8.07240009px;line-height:1.25"
           sodipodi:role="line"
           x="164.879"
           y="-318.672"
           id="tspan5336" />
        <tspan
           style="font-size:8.07240009px;line-height:1.25"
           sodipodi:role="line"
           x="164.879"
           y="-318.672"
           id="tspan5330" />
        <tspan
           style="font-size:8.07240009px;line-height:1.25"
           id="tspan3828"
           sodipodi:role="line"
           x="164.879"
           y="-318.672" />
        <tspan
           style="font-size:8.07240009px;line-height:1.25"
           id="tspan3830"
           sodipodi:role="line"
           x="164.879"
           y="-318.672" />
        <tspan
           style="font-size:8.07240009px;line-height:1.25"
           id="tspan3832"
           sodipodi:role="line"
           y="-175.64011"
           x="130.79893 136.09605 140.17584 142.33279 146.7718 149.41147 153.85049 158.16922 159.96776 162.24901 167.54613 173.28722 175.08574 177.367 181.31602 185.75504 187.91602">External Switch C</tspan>
        <tspan
           style="font-size:8.07240009px;line-height:1.25"
           id="tspan3834"
           sodipodi:role="line"
           y="-142.51985"
           x="130.79893 136.09605 140.17584 142.33279 146.7718 149.41147 153.85049 158.16922 159.96776 162.24901 167.54613 173.28722 175.08574 177.367 181.31602 185.75504 187.91602">External Switch D</tspan>
        <tspan
           style="font-size:8.07240009px;line-height:1.25"
           id="tspan3836"
           sodipodi:role="line"
           y="-109.87992"
           x="135.71907 140.99922 145.43823 147.59923 152.03824 156.47725 158.63823 160.43675 164.87578 166.6743 168.83528 174.11543 178.55446 182.87318 187.31219 190.07376">Potential Shoot-</tspan>
        <tspan
           style="font-size:8.07240009px;line-height:1.25"
           id="tspan3838"
           sodipodi:role="line"
           y="-100.15993"
           x="134.87874 139.76495 144.2072 146.84929 151.29153 155.73378 160.05251 164.49475 166.65573 172.53406 176.8528 179.61275 182.25243 186.69466 191.1369">Through Current</tspan>
      </text>
      <text
         xml:space="preserve"
         style="font-style:normal;font-variant:normal;font-weight:normal;font-stretch:normal;font-size:2.34375024px;line-height:125%;font-family:Arial;-inkscape-font-specification:'Arial, Normal';text-align:end;letter-spacing:0px;word-spacing:0px;writing-mode:lr-tb;text-anchor:end;fill:#000000;fill-opacity:1;stroke:none;stroke-width:0.75000006px;stroke-linecap:butt;stroke-linejoin:miter;stroke-opacity:1"
         x="192.50891"
         y="-283.35291"
         id="text5342"
         transform="scale(1,-1)"><tspan
           sodipodi:role="line"
           id="tspan5340"
           x="192.50891"
           y="-283.35291"
           style="font-size:8.0720005px;stroke-width:0.75000006px">CWGxB</tspan></text>
      <text
         xml:space="preserve"
         style="font-style:normal;font-variant:normal;font-weight:normal;font-stretch:normal;font-size:2.34375024px;line-height:125%;font-family:Arial;-inkscape-font-specification:'Arial, Normal';text-align:end;letter-spacing:0px;word-spacing:0px;writing-mode:lr-tb;text-anchor:end;fill:#000000;fill-opacity:1;stroke:none;stroke-width:0.75000006px;stroke-linecap:butt;stroke-linejoin:miter;stroke-opacity:1"
         x="192.10197"
         y="-227.42815"
         id="text5342-7"
         transform="scale(1,-1)"><tspan
           sodipodi:role="line"
           id="tspan5340-0"
           x="192.10197"
           y="-227.42815"
           style="font-size:8.0720005px;stroke-width:0.75000006px">CWGxD</tspan></text>
      <text
         xml:space="preserve"
         style="font-style:normal;font-variant:normal;font-weight:normal;font-stretch:normal;font-size:2.34375024px;line-height:125%;font-family:Arial;-inkscape-font-specification:'Arial, Normal';text-align:end;letter-spacing:0px;word-spacing:0px;writing-mode:lr-tb;text-anchor:end;fill:#000000;fill-opacity:1;stroke:none;stroke-width:0.75000006px;stroke-linecap:butt;stroke-linejoin:miter;stroke-opacity:1"
         x="192.63768"
         y="-249.12459"
         id="text5342-8"
         transform="scale(1,-1)"><tspan
           sodipodi:role="line"
           id="tspan5340-7"
           x="192.63768"
           y="-249.12459"
           style="font-size:8.0720005px;stroke-width:0.75000006px">CWGxC</tspan></text>
    </g>
    <text
       xml:space="preserve"
       style="font-style:normal;font-variant:normal;font-weight:normal;font-stretch:normal;line-height:0%;font-family:Arial;-inkscape-font-specification:'Arial, Normal';text-align:end;letter-spacing:0px;word-spacing:0px;writing-mode:lr-tb;text-anchor:end;fill:#000000;fill-opacity:1;stroke:none;stroke-width:1px;stroke-linecap:butt;stroke-linejoin:miter;stroke-opacity:1"
       x="554.63385"
       y="290.21198"
       id="text4321"><tspan
         sodipodi:role="line"
         id="tspan4323"
         x="554.63385"
         y="290.21198"
         style="font-size:3.125px;line-height:1.25">Rev. 30-000100A</tspan><tspan
         sodipodi:role="line"
         x="554.63385"
         y="294.61243"
         id="tspan4325"
         style="font-size:3.125px;line-height:1.25">4/14/2017</tspan></text>
  </g>
</svg>
