<?xml version="1.0" encoding="UTF-8" standalone="no"?>
<!-- Created with Inkscape (http://www.inkscape.org/) -->

<svg
   xmlns:dc="http://purl.org/dc/elements/1.1/"
   xmlns:cc="http://creativecommons.org/ns#"
   xmlns:rdf="http://www.w3.org/1999/02/22-rdf-syntax-ns#"
   xmlns:svg="http://www.w3.org/2000/svg"
   xmlns="http://www.w3.org/2000/svg"
   xmlns:sodipodi="http://sodipodi.sourceforge.net/DTD/sodipodi-0.dtd"
   xmlns:inkscape="http://www.inkscape.org/namespaces/inkscape"
   version="1.1"
   id="svg10"
   xml:space="preserve"
   width="6.1604271in"
   height="6.6604271in"
   viewBox="0 0 591.401 639.401"
   sodipodi:docname="Fig 1-2 CAN FD Module Block Diagram.svg"
   inkscape:version="0.92.2 (5c3e80d, 2017-08-06)"><metadata
     id="metadata16"><rdf:RDF><cc:Work
         rdf:about=""><dc:format>image/svg+xml</dc:format><dc:type
           rdf:resource="http://purl.org/dc/dcmitype/StillImage" /><dc:title></dc:title></cc:Work></rdf:RDF></metadata><defs
     id="defs14" /><sodipodi:namedview
     pagecolor="#ffffff"
     bordercolor="#666666"
     borderopacity="1"
     objecttolerance="10"
     gridtolerance="10"
     guidetolerance="10"
     inkscape:pageopacity="0"
     inkscape:pageshadow="2"
     inkscape:window-width="1180"
     inkscape:window-height="819"
     id="namedview12"
     showgrid="false"
     units="in"
     fit-margin-left="0.2"
     fit-margin-top="0.2"
     fit-margin-right="0.2"
     fit-margin-bottom="0.2"
     inkscape:zoom="0.8125"
     inkscape:cx="140.20101"
     inkscape:cy="324.73217"
     inkscape:window-x="230"
     inkscape:window-y="129"
     inkscape:window-maximized="0"
     inkscape:current-layer="g18" /><g
     id="g18"
     inkscape:groupmode="layer"
     inkscape:label="Fig 1-2 CAN FD Module Block Diagram"
     transform="matrix(1.3333333,0,0,-1.3333333,-124.2995,979.70048)"><path
       d="M 162,504 H 522 V 720 H 162 Z"
       style="fill:none;stroke:#000000;stroke-width:0.75075001;stroke-linecap:round;stroke-linejoin:round;stroke-miterlimit:10;stroke-dasharray:none;stroke-opacity:1"
       id="path20"
       inkscape:connector-curvature="0" /><path
       d="M 171,513 H 315 V 711 H 171 Z"
       style="fill:none;stroke:#000000;stroke-width:0.75075001;stroke-linecap:round;stroke-linejoin:round;stroke-miterlimit:10;stroke-dasharray:none;stroke-opacity:1"
       id="path22"
       inkscape:connector-curvature="0" /><path
       d="m 180,621 h 126 v 81 H 180 Z"
       style="fill:none;stroke:#000000;stroke-width:0.75075001;stroke-linecap:round;stroke-linejoin:round;stroke-miterlimit:10;stroke-dasharray:none;stroke-opacity:1"
       id="path24"
       inkscape:connector-curvature="0" /><path
       d="m 189,666 h 108 v 27 H 189 Z"
       style="fill:none;stroke:#000000;stroke-width:0.75075001;stroke-linecap:round;stroke-linejoin:round;stroke-miterlimit:10;stroke-dasharray:none;stroke-opacity:1"
       id="path26"
       inkscape:connector-curvature="0" /><text
       transform="matrix(1,0,0,-1,220.5,676.7)"
       style="font-variant:normal;font-weight:normal;font-size:9.02499962px;font-family:Arial;-inkscape-font-specification:Arial;writing-mode:lr-tb;fill:#000000;fill-opacity:1;fill-rule:nonzero;stroke:none"
       id="text30"><tspan
         x="0 5.2525501 11.272225 14.24145 20.243074 25.486601 30.730125 35.233601 37.471802 42.715324"
         y="0"
         sodipodi:role="line"
         id="tspan28">TX Handler</tspan></text>
<path
       d="m 189,630 h 108 v 27 H 189 Z"
       style="fill:none;stroke:#000000;stroke-width:0.75075001;stroke-linecap:round;stroke-linejoin:round;stroke-miterlimit:10;stroke-dasharray:none;stroke-opacity:1"
       id="path32"
       inkscape:connector-curvature="0" /><text
       transform="matrix(1,0,0,-1,211.5,640.65)"
       style="font-variant:normal;font-weight:normal;font-size:9px;font-family:Arial;-inkscape-font-specification:Arial;writing-mode:lr-tb;fill:#000000;fill-opacity:1;fill-rule:nonzero;stroke:none"
       id="text36"><tspan
         x="0 5.2470002 11.25 14.238 20.240999 23.238001 24.740999 29.979 32.976002 35.216999 37.466999 39.708 44.208 48.708 51.695999 53.199001 58.437"
         y="0"
         sodipodi:role="line"
         id="tspan34">TX Prioritization</tspan></text>
<path
       d="m 378,648 h 126 v 54 H 378 Z"
       style="fill:none;stroke:#000000;stroke-width:0.75075001;stroke-linecap:round;stroke-linejoin:round;stroke-miterlimit:10;stroke-dasharray:none;stroke-opacity:1"
       id="path38"
       inkscape:connector-curvature="0" /><text
       transform="matrix(1,0,0,-1,413.22,672.17)"
       style="font-variant:normal;font-weight:normal;font-size:9px;font-family:Arial;-inkscape-font-specification:Arial;writing-mode:lr-tb;fill:#000000;fill-opacity:1;fill-rule:nonzero;stroke:none"
       id="text42"><tspan
         x="0 5.2740002 7.5149999 15.03 20.295 24.795 27.072001 32.337002 39.852001 44.379002 46.619999 51.884998"
         y="0"
         sodipodi:role="line"
         id="tspan40">Timestamping</tspan></text>
<path
       d="m 315,612 9,9 v -5.94 h 36 V 621 l 9,-9 -9,-9 v 5.94 H 324 V 603 Z"
       style="fill:none;stroke:#000000;stroke-width:0.75075001;stroke-linecap:round;stroke-linejoin:round;stroke-miterlimit:10;stroke-dasharray:none;stroke-opacity:1"
       id="path44"
       inkscape:connector-curvature="0" /><path
       d="m 180,522 h 126 v 81 H 180 Z"
       style="fill:none;stroke:#000000;stroke-width:0.75075001;stroke-linecap:round;stroke-linejoin:round;stroke-miterlimit:10;stroke-dasharray:none;stroke-opacity:1"
       id="path46"
       inkscape:connector-curvature="0" /><path
       d="m 189,567 h 108 v 27 H 189 Z"
       style="fill:none;stroke:#000000;stroke-width:0.75075001;stroke-linecap:round;stroke-linejoin:round;stroke-miterlimit:10;stroke-dasharray:none;stroke-opacity:1"
       id="path48"
       inkscape:connector-curvature="0" /><text
       transform="matrix(1,0,0,-1,220,577.6)"
       style="font-variant:normal;font-weight:normal;font-size:9px;font-family:Arial;-inkscape-font-specification:Arial;writing-mode:lr-tb;fill:#000000;fill-opacity:1;fill-rule:nonzero;stroke:none"
       id="text52"><tspan
         x="0 6.7410002 12.744 14.994 21.735001 26.235001 31.473 36.710999 38.214001 43.452"
         y="0"
         sodipodi:role="line"
         id="tspan50">RX Handler</tspan></text>
<path
       d="m 189,531 h 108 v 27 H 189 Z"
       style="fill:none;stroke:#000000;stroke-width:0.75075001;stroke-linecap:round;stroke-linejoin:round;stroke-miterlimit:10;stroke-dasharray:none;stroke-opacity:1"
       id="path54"
       inkscape:connector-curvature="0" /><text
       transform="matrix(1,0,0,-1,210.25,541.58)"
       style="font-variant:normal;font-weight:normal;font-size:9.02499962px;font-family:Arial;-inkscape-font-specification:Arial;writing-mode:lr-tb;fill:#000000;fill-opacity:1;fill-rule:nonzero;stroke:none"
       id="text58"><tspan
         x="0 5.2525501 7.4907498 9.7289495 11.976175 17.2197 20.225025 22.47225 27.715775 32.21925 37.462776 39.709999 47.227825 52.4533 56.965801 61.478298"
         y="0"
         sodipodi:role="line"
         id="tspan56">Filter and Masks</tspan></text>
<path
       d="M 369,513 H 513 V 711 H 369 Z"
       style="fill:none;stroke:#000000;stroke-width:0.75075001;stroke-linecap:round;stroke-linejoin:round;stroke-miterlimit:10;stroke-dasharray:none;stroke-opacity:1"
       id="path60"
       inkscape:connector-curvature="0" /><path
       d="m 378,585 h 126 v 54 H 378 Z"
       style="fill:none;stroke:#000000;stroke-width:0.75075001;stroke-linecap:round;stroke-linejoin:round;stroke-miterlimit:10;stroke-dasharray:none;stroke-opacity:1"
       id="path62"
       inkscape:connector-curvature="0" /><text
       transform="matrix(1,0,0,-1,408.97,609.13)"
       style="font-variant:normal;font-weight:normal;font-size:9px;font-family:Arial;-inkscape-font-specification:Arial;writing-mode:lr-tb;fill:#000000;fill-opacity:1;fill-rule:nonzero;stroke:none"
       id="text66"><tspan
         x="0 2.25 7.4879999 9.7379999 14.976 17.973 20.969999 26.216999 30.716999 33.705002 35.955002 42.695999 47.195999 52.433998 54.683998 57.681 62.928001"
         y="0"
         sodipodi:role="line"
         id="tspan64">Interrupt Control</tspan></text>
<path
       d="m 378,522 h 126 v 54 H 378 Z"
       style="fill:none;stroke:#000000;stroke-width:0.75075001;stroke-linecap:round;stroke-linejoin:round;stroke-miterlimit:10;stroke-dasharray:none;stroke-opacity:1"
       id="path68"
       inkscape:connector-curvature="0" /><text
       transform="matrix(1,0,0,-1,387.95,546.08)"
       style="font-variant:normal;font-weight:normal;font-size:9.02499962px;font-family:Arial;-inkscape-font-specification:Arial;writing-mode:lr-tb;fill:#000000;fill-opacity:1;fill-rule:nonzero;stroke:none"
       id="text72"><tspan
         x="0 6.0196748 9.0249996 12.00325 17.246775 20.2521 22.499325 29.240999 33.744476 38.987999 44.231525 45.729675 47.967876 53.211399 57.714874 60.702148 66.703773 68.941978 74.185501 78.688972 83.932503 89.176025 93.688522 95.926727 98.164925 102.67742"
         y="0"
         sodipodi:role="line"
         id="tspan70">Error Handling Diagnostics</tspan></text>
<path
       d="M 108,270 H 522 V 468 H 108 Z"
       style="fill:none;stroke:#000000;stroke-width:0.75075001;stroke-linecap:round;stroke-linejoin:round;stroke-miterlimit:10;stroke-dasharray:none;stroke-opacity:1"
       id="path74"
       inkscape:connector-curvature="0" /><path
       d="m 342,504 9,-9 h -5.94 V 478.13 H 351 l -9,-9 -9,9 h 5.94 V 495 H 333 Z"
       style="fill:none;stroke:#000000;stroke-width:0.75075001;stroke-linecap:round;stroke-linejoin:round;stroke-miterlimit:10;stroke-dasharray:none;stroke-opacity:1"
       id="path76"
       inkscape:connector-curvature="0" /><path
       d="m 267.75,445.5 h 94.5 V 459 h -94.5 z"
       style="fill:none;stroke:#000000;stroke-width:0.75075001;stroke-linecap:round;stroke-linejoin:round;stroke-miterlimit:10;stroke-dasharray:none;stroke-opacity:1"
       id="path78"
       inkscape:connector-curvature="0" /><text
       transform="matrix(1,0,0,-1,289.32,449.22)"
       style="font-variant:normal;font-weight:bold;font-size:9px;font-family:Arial;-inkscape-font-specification:'Arial Bold';writing-mode:lr-tb;fill:#000000;fill-opacity:1;fill-rule:nonzero;stroke:none"
       id="text82"><tspan
         x="0 6.7680001 11.295 16.559999 18.837 24.101999 29.367001 31.643999 38.411999 44.432999"
         y="0"
         sodipodi:role="line"
         id="tspan80">Device RAM</tspan></text>
<path
       d="m 135.45,562.5 h 37.38"
       style="fill:none;stroke:#000000;stroke-width:0.75075001;stroke-linecap:round;stroke-linejoin:round;stroke-miterlimit:10;stroke-dasharray:none;stroke-opacity:1"
       id="path84"
       inkscape:connector-curvature="0" /><path
       d="m 172.14,565.27 8.31,-2.77 -8.31,-2.77 z"
       style="fill:#000000;fill-opacity:1;fill-rule:evenodd;stroke:none"
       id="path86"
       inkscape:connector-curvature="0" /><path
       d="M 180,661.5 H 142.62"
       style="fill:none;stroke:#000000;stroke-width:0.75075001;stroke-linecap:round;stroke-linejoin:round;stroke-miterlimit:10;stroke-dasharray:none;stroke-opacity:1"
       id="path88"
       inkscape:connector-curvature="0" /><path
       d="m 143.31,664.27 -8.31,-2.77 8.31,-2.77 z"
       style="fill:#000000;fill-opacity:1;fill-rule:evenodd;stroke:none"
       id="path90"
       inkscape:connector-curvature="0" /><path
       d="m 117.45,553.5 h 18 v 18 h -18 z"
       style="fill:none;stroke:#000000;stroke-width:0.75075001;stroke-linecap:round;stroke-linejoin:round;stroke-miterlimit:10;stroke-dasharray:none;stroke-opacity:1"
       id="path92"
       inkscape:connector-curvature="0" /><path
       d="m 117.45,571.5 18,-18"
       style="fill:none;stroke:#000000;stroke-width:0.75075001;stroke-linecap:round;stroke-linejoin:round;stroke-miterlimit:10;stroke-dasharray:none;stroke-opacity:1"
       id="path94"
       inkscape:connector-curvature="0" /><path
       d="m 135.45,571.5 -18,-18"
       style="fill:none;stroke:#000000;stroke-width:0.75075001;stroke-linecap:round;stroke-linejoin:round;stroke-miterlimit:10;stroke-dasharray:none;stroke-opacity:1"
       id="path96"
       inkscape:connector-curvature="0" /><path
       d="m 117,652.5 h 18 v 18 h -18 z"
       style="fill:none;stroke:#000000;stroke-width:0.75075001;stroke-linecap:round;stroke-linejoin:round;stroke-miterlimit:10;stroke-dasharray:none;stroke-opacity:1"
       id="path98"
       inkscape:connector-curvature="0" /><path
       d="m 117,670.5 18,-18"
       style="fill:none;stroke:#000000;stroke-width:0.75075001;stroke-linecap:round;stroke-linejoin:round;stroke-miterlimit:10;stroke-dasharray:none;stroke-opacity:1"
       id="path100"
       inkscape:connector-curvature="0" /><path
       d="m 135,670.5 -18,-18"
       style="fill:none;stroke:#000000;stroke-width:0.75075001;stroke-linecap:round;stroke-linejoin:round;stroke-miterlimit:10;stroke-dasharray:none;stroke-opacity:1"
       id="path102"
       inkscape:connector-curvature="0" /><path
       d="m 108.45,571.5 h 36 v 18 h -36 z"
       style="fill:none;stroke:#000000;stroke-width:0.75075001;stroke-linecap:round;stroke-linejoin:round;stroke-miterlimit:10;stroke-dasharray:none;stroke-opacity:1"
       id="path104"
       inkscape:connector-curvature="0" /><text
       transform="matrix(1,0,0,-1,112.82,577.6)"
       style="font-variant:normal;font-weight:normal;font-size:9px;font-family:Arial;-inkscape-font-specification:Arial;writing-mode:lr-tb;fill:#000000;fill-opacity:1;fill-rule:nonzero;stroke:none"
       id="text108"><tspan
         x="0 6.7680001 12.771 15.039 21.806999"
         y="0"
         sodipodi:role="line"
         id="tspan106">CX RX</tspan></text>
<path
       d="m 108,670.5 h 36 v 18 h -36 z"
       style="fill:none;stroke:#000000;stroke-width:0.75075001;stroke-linecap:round;stroke-linejoin:round;stroke-miterlimit:10;stroke-dasharray:none;stroke-opacity:1"
       id="path110"
       inkscape:connector-curvature="0" /><text
       transform="matrix(1,0,0,-1,112.87,676.7)"
       style="font-variant:normal;font-weight:normal;font-size:9.02499962px;font-family:Arial;-inkscape-font-specification:Arial;writing-mode:lr-tb;fill:#000000;fill-opacity:1;fill-rule:nonzero;stroke:none"
       id="text114"><tspan
         x="0 6.7687502 12.788425 15.044675 20.315275"
         y="0"
         sodipodi:role="line"
         id="tspan112">CX TX</tspan></text>
<path
       d="m 126,396 h 63 v 27 h -63 z"
       style="fill:none;stroke:#000000;stroke-width:0.75075001;stroke-linecap:round;stroke-linejoin:round;stroke-miterlimit:10;stroke-dasharray:none;stroke-opacity:1"
       id="path116"
       inkscape:connector-curvature="0" /><text
       transform="matrix(1,0,0,-1,139.4,411.85)"
       style="font-variant:normal;font-weight:normal;font-size:9.02499962px;font-family:Arial;-inkscape-font-specification:Arial;writing-mode:lr-tb;fill:#000000;fill-opacity:1;fill-rule:nonzero;stroke:none"
       id="text120"><tspan
         x="0 7.5178251 12.788425 17.300924 21.813425 26.362024 31.6236 36.885174"
         y="0"
         sodipodi:role="line"
         id="tspan118">Message </tspan></text>
<text
       transform="matrix(1,0,0,-1,140.9,401.03)"
       style="font-variant:normal;font-weight:normal;font-size:9px;font-family:Arial;-inkscape-font-specification:Arial;writing-mode:lr-tb;fill:#000000;fill-opacity:1;fill-rule:nonzero;stroke:none"
       id="text124"><tspan
         x="0 6.777 12.042 14.283 18.809999 23.309999 26.351999"
         y="0"
         sodipodi:role="line"
         id="tspan122">Object </tspan></text>
<text
       transform="matrix(1,0,0,-1,169.45,401.03)"
       style="font-variant:normal;font-weight:normal;font-size:9px;font-family:Arial;-inkscape-font-specification:Arial;writing-mode:lr-tb;fill:#000000;fill-opacity:1;fill-rule:nonzero;stroke:none"
       id="text128"><tspan
         x="0"
         y="0"
         id="tspan126">0</tspan></text>
<path
       d="m 126,315 h 63 v 81 h -63 z"
       style="fill:none;stroke:#000000;stroke-width:0.75075001;stroke-linecap:round;stroke-linejoin:round;stroke-miterlimit:10;stroke-dasharray:none;stroke-opacity:1"
       id="path130"
       inkscape:connector-curvature="0" /><path
       d="m 126,288 h 63 v 27 h -63 z"
       style="fill:none;stroke:#000000;stroke-width:0.75075001;stroke-linecap:round;stroke-linejoin:round;stroke-miterlimit:10;stroke-dasharray:none;stroke-opacity:1"
       id="path132"
       inkscape:connector-curvature="0" /><text
       transform="matrix(1,0,0,-1,139.4,303.75)"
       style="font-variant:normal;font-weight:normal;font-size:9.02499962px;font-family:Arial;-inkscape-font-specification:Arial;writing-mode:lr-tb;fill:#000000;fill-opacity:1;fill-rule:nonzero;stroke:none"
       id="text136"><tspan
         x="0 7.5178251 12.788425 17.300924 21.813425 26.362024 31.6236 36.885174"
         y="0"
         sodipodi:role="line"
         id="tspan134">Message </tspan></text>
<text
       transform="matrix(1,0,0,-1,138.4,292.92)"
       style="font-variant:normal;font-weight:normal;font-size:9px;font-family:Arial;-inkscape-font-specification:Arial;writing-mode:lr-tb;fill:#000000;fill-opacity:1;fill-rule:nonzero;stroke:none"
       id="text140"><tspan
         x="0 6.777 12.015 14.256 18.756001 23.256001 26.243999"
         y="0"
         sodipodi:role="line"
         id="tspan138">Object </tspan></text>
<text
       transform="matrix(1,0,0,-1,166.95,292.92)"
       style="font-variant:normal;font-weight:normal;font-size:9px;font-family:Arial;-inkscape-font-specification:Arial;writing-mode:lr-tb;fill:#000000;fill-opacity:1;fill-rule:nonzero;stroke:none"
       id="text144"><tspan
         x="0 5.25"
         y="0"
         sodipodi:role="line"
         id="tspan142">31</tspan></text>
<path
       d="m 126,423 h 63 v 18 h -63 z"
       style="fill:none;stroke:#000000;stroke-width:0.75075001;stroke-linecap:round;stroke-linejoin:round;stroke-miterlimit:10;stroke-dasharray:none;stroke-opacity:1"
       id="path146"
       inkscape:connector-curvature="0" /><text
       transform="matrix(1,0,0,-1,149.18,428.95)"
       style="font-variant:normal;font-weight:normal;font-size:9px;font-family:Arial;-inkscape-font-specification:Arial;writing-mode:lr-tb;fill:#000000;fill-opacity:1;fill-rule:nonzero;stroke:none"
       id="text150"><tspan
         x="0 5.2470002 11.25"
         y="0"
         sodipodi:role="line"
         id="tspan148">TEF</tspan></text>
<path
       d="m 207,396 h 63 v 27 h -63 z"
       style="fill:none;stroke:#000000;stroke-width:0.75075001;stroke-linecap:round;stroke-linejoin:round;stroke-miterlimit:10;stroke-dasharray:none;stroke-opacity:1"
       id="path152"
       inkscape:connector-curvature="0" /><text
       transform="matrix(1,0,0,-1,220.5,411.85)"
       style="font-variant:normal;font-weight:normal;font-size:9.02499962px;font-family:Arial;-inkscape-font-specification:Arial;writing-mode:lr-tb;fill:#000000;fill-opacity:1;fill-rule:nonzero;stroke:none"
       id="text156"><tspan
         x="0 7.5178251 12.770375 17.282875 21.795376 26.271774 31.515301 36.758823"
         y="0"
         sodipodi:role="line"
         id="tspan154">Message </tspan></text>
<text
       transform="matrix(1,0,0,-1,222,401.03)"
       style="font-variant:normal;font-weight:normal;font-size:9px;font-family:Arial;-inkscape-font-specification:Arial;writing-mode:lr-tb;fill:#000000;fill-opacity:1;fill-rule:nonzero;stroke:none"
       id="text160"><tspan
         x="0 6.777 12.042 14.283 18.783001 23.283001 26.271"
         y="0"
         sodipodi:role="line"
         id="tspan158">Object </tspan></text>
<text
       transform="matrix(1,0,0,-1,250.55,401.03)"
       style="font-variant:normal;font-weight:normal;font-size:9px;font-family:Arial;-inkscape-font-specification:Arial;writing-mode:lr-tb;fill:#000000;fill-opacity:1;fill-rule:nonzero;stroke:none"
       id="text164"><tspan
         x="0"
         y="0"
         id="tspan162">0</tspan></text>
<path
       d="m 207,315 h 63 v 81 h -63 z"
       style="fill:none;stroke:#000000;stroke-width:0.75075001;stroke-linecap:round;stroke-linejoin:round;stroke-miterlimit:10;stroke-dasharray:none;stroke-opacity:1"
       id="path166"
       inkscape:connector-curvature="0" /><path
       d="m 207,288 h 63 v 27 h -63 z"
       style="fill:none;stroke:#000000;stroke-width:0.75075001;stroke-linecap:round;stroke-linejoin:round;stroke-miterlimit:10;stroke-dasharray:none;stroke-opacity:1"
       id="path168"
       inkscape:connector-curvature="0" /><text
       transform="matrix(1,0,0,-1,220.5,303.75)"
       style="font-variant:normal;font-weight:normal;font-size:9.02499962px;font-family:Arial;-inkscape-font-specification:Arial;writing-mode:lr-tb;fill:#000000;fill-opacity:1;fill-rule:nonzero;stroke:none"
       id="text172"><tspan
         x="0 7.5178251 12.770375 17.282875 21.795376 26.271774 31.515301 36.758823"
         y="0"
         sodipodi:role="line"
         id="tspan170">Message </tspan></text>
<text
       transform="matrix(1,0,0,-1,219.5,292.92)"
       style="font-variant:normal;font-weight:normal;font-size:9px;font-family:Arial;-inkscape-font-specification:Arial;writing-mode:lr-tb;fill:#000000;fill-opacity:1;fill-rule:nonzero;stroke:none"
       id="text176"><tspan
         x="0 6.75 11.988 14.229 18.729 23.229 26.216999"
         y="0"
         sodipodi:role="line"
         id="tspan174">Object </tspan></text>
<text
       transform="matrix(1,0,0,-1,248.05,292.92)"
       style="font-variant:normal;font-weight:normal;font-size:9px;font-family:Arial;-inkscape-font-specification:Arial;writing-mode:lr-tb;fill:#000000;fill-opacity:1;fill-rule:nonzero;stroke:none"
       id="text180"><tspan
         x="0 5.25"
         y="0"
         sodipodi:role="line"
         id="tspan178">31</tspan></text>
<path
       d="m 207,423 h 63 v 18 h -63 z"
       style="fill:none;stroke:#000000;stroke-width:0.75075001;stroke-linecap:round;stroke-linejoin:round;stroke-miterlimit:10;stroke-dasharray:none;stroke-opacity:1"
       id="path182"
       inkscape:connector-curvature="0" /><text
       transform="matrix(1,0,0,-1,229.52,428.95)"
       style="font-variant:normal;font-weight:normal;font-size:9px;font-family:Arial;-inkscape-font-specification:Arial;writing-mode:lr-tb;fill:#000000;fill-opacity:1;fill-rule:nonzero;stroke:none"
       id="text186"><tspan
         x="0 5.2470002 11.25"
         y="0"
         sodipodi:role="line"
         id="tspan184">TXQ</tspan></text>
<path
       d="m 288,396 h 63 v 27 h -63 z"
       style="fill:none;stroke:#000000;stroke-width:0.75075001;stroke-linecap:round;stroke-linejoin:round;stroke-miterlimit:10;stroke-dasharray:none;stroke-opacity:1"
       id="path188"
       inkscape:connector-curvature="0" /><text
       transform="matrix(1,0,0,-1,301.6,411.85)"
       style="font-variant:normal;font-weight:normal;font-size:9.02499962px;font-family:Arial;-inkscape-font-specification:Arial;writing-mode:lr-tb;fill:#000000;fill-opacity:1;fill-rule:nonzero;stroke:none"
       id="text192"><tspan
         x="0 7.5178251 12.7433 17.2558 21.768299 26.244699 31.488226 36.73175"
         y="0"
         sodipodi:role="line"
         id="tspan190">Message </tspan></text>
<text
       transform="matrix(1,0,0,-1,303.1,401.03)"
       style="font-variant:normal;font-weight:normal;font-size:9px;font-family:Arial;-inkscape-font-specification:Arial;writing-mode:lr-tb;fill:#000000;fill-opacity:1;fill-rule:nonzero;stroke:none"
       id="text196"><tspan
         x="0 6.75 11.988 14.229 18.729 23.229 26.216999"
         y="0"
         sodipodi:role="line"
         id="tspan194">Object </tspan></text>
<text
       transform="matrix(1,0,0,-1,331.65,401.03)"
       style="font-variant:normal;font-weight:normal;font-size:9px;font-family:Arial;-inkscape-font-specification:Arial;writing-mode:lr-tb;fill:#000000;fill-opacity:1;fill-rule:nonzero;stroke:none"
       id="text200"><tspan
         x="0"
         y="0"
         id="tspan198">0</tspan></text>
<path
       d="m 288,315 h 63 v 81 h -63 z"
       style="fill:none;stroke:#000000;stroke-width:0.75075001;stroke-linecap:round;stroke-linejoin:round;stroke-miterlimit:10;stroke-dasharray:none;stroke-opacity:1"
       id="path202"
       inkscape:connector-curvature="0" /><path
       d="m 288,288 h 63 v 27 h -63 z"
       style="fill:none;stroke:#000000;stroke-width:0.75075001;stroke-linecap:round;stroke-linejoin:round;stroke-miterlimit:10;stroke-dasharray:none;stroke-opacity:1"
       id="path204"
       inkscape:connector-curvature="0" /><text
       transform="matrix(1,0,0,-1,301.6,303.75)"
       style="font-variant:normal;font-weight:normal;font-size:9.02499962px;font-family:Arial;-inkscape-font-specification:Arial;writing-mode:lr-tb;fill:#000000;fill-opacity:1;fill-rule:nonzero;stroke:none"
       id="text208"><tspan
         x="0 7.5178251 12.7433 17.2558 21.768299 26.244699 31.488226 36.73175"
         y="0"
         sodipodi:role="line"
         id="tspan206">Message </tspan></text>
<text
       transform="matrix(1,0,0,-1,300.6,292.92)"
       style="font-variant:normal;font-weight:normal;font-size:9px;font-family:Arial;-inkscape-font-specification:Arial;writing-mode:lr-tb;fill:#000000;fill-opacity:1;fill-rule:nonzero;stroke:none"
       id="text212"><tspan
         x="0 6.75 11.988 14.229 18.729 23.229 26.216999"
         y="0"
         sodipodi:role="line"
         id="tspan210">Object </tspan></text>
<text
       transform="matrix(1,0,0,-1,329.15,292.92)"
       style="font-variant:normal;font-weight:normal;font-size:9px;font-family:Arial;-inkscape-font-specification:Arial;writing-mode:lr-tb;fill:#000000;fill-opacity:1;fill-rule:nonzero;stroke:none"
       id="text216"><tspan
         x="0 5.25"
         y="0"
         sodipodi:role="line"
         id="tspan214">31</tspan></text>
<path
       d="m 288,423 h 63 v 18 h -63 z"
       style="fill:none;stroke:#000000;stroke-width:0.75075001;stroke-linecap:round;stroke-linejoin:round;stroke-miterlimit:10;stroke-dasharray:none;stroke-opacity:1"
       id="path218"
       inkscape:connector-curvature="0" /><text
       transform="matrix(1,0,0,-1,305.88,428.95)"
       style="font-variant:normal;font-weight:normal;font-size:9px;font-family:Arial;-inkscape-font-specification:Arial;writing-mode:lr-tb;fill:#000000;fill-opacity:1;fill-rule:nonzero;stroke:none"
       id="text222"><tspan
         x="0 5.2470002 8.2349997 13.482 20.232"
         y="0"
         sodipodi:role="line"
         id="tspan220">FIFO </tspan></text>
<text
       transform="matrix(1,0,0,-1,328.9,428.95)"
       style="font-variant:normal;font-weight:normal;font-size:9px;font-family:Arial;-inkscape-font-specification:Arial;writing-mode:lr-tb;fill:#000000;fill-opacity:1;fill-rule:nonzero;stroke:none"
       id="text226"><tspan
         x="0"
         y="0"
         id="tspan224">1</tspan></text>
<path
       d="m 441,396 h 63 v 27 h -63 z"
       style="fill:none;stroke:#000000;stroke-width:0.75075001;stroke-linecap:round;stroke-linejoin:round;stroke-miterlimit:10;stroke-dasharray:none;stroke-opacity:1"
       id="path228"
       inkscape:connector-curvature="0" /><text
       transform="matrix(1,0,0,-1,454.77,411.85)"
       style="font-variant:normal;font-weight:normal;font-size:9.02499962px;font-family:Arial;-inkscape-font-specification:Arial;writing-mode:lr-tb;fill:#000000;fill-opacity:1;fill-rule:nonzero;stroke:none"
       id="text232"><tspan
         x="0 7.5178251 12.788425 17.300924 21.813425 26.362024 31.6236 36.885174"
         y="0"
         sodipodi:role="line"
         id="tspan230">Message </tspan></text>
<text
       transform="matrix(1,0,0,-1,456.28,401.03)"
       style="font-variant:normal;font-weight:normal;font-size:9px;font-family:Arial;-inkscape-font-specification:Arial;writing-mode:lr-tb;fill:#000000;fill-opacity:1;fill-rule:nonzero;stroke:none"
       id="text236"><tspan
         x="0 6.777 12.042 14.31 18.837 23.337 26.379"
         y="0"
         sodipodi:role="line"
         id="tspan234">Object </tspan></text>
<text
       transform="matrix(1,0,0,-1,484.83,401.03)"
       style="font-variant:normal;font-weight:normal;font-size:9px;font-family:Arial;-inkscape-font-specification:Arial;writing-mode:lr-tb;fill:#000000;fill-opacity:1;fill-rule:nonzero;stroke:none"
       id="text240"><tspan
         x="0"
         y="0"
         id="tspan238">0</tspan></text>
<path
       d="m 441,315 h 63 v 81 h -63 z"
       style="fill:none;stroke:#000000;stroke-width:0.75075001;stroke-linecap:round;stroke-linejoin:round;stroke-miterlimit:10;stroke-dasharray:none;stroke-opacity:1"
       id="path242"
       inkscape:connector-curvature="0" /><path
       d="m 441,288 h 63 v 27 h -63 z"
       style="fill:none;stroke:#000000;stroke-width:0.75075001;stroke-linecap:round;stroke-linejoin:round;stroke-miterlimit:10;stroke-dasharray:none;stroke-opacity:1"
       id="path244"
       inkscape:connector-curvature="0" /><text
       transform="matrix(1,0,0,-1,454.77,303.75)"
       style="font-variant:normal;font-weight:normal;font-size:9.02499962px;font-family:Arial;-inkscape-font-specification:Arial;writing-mode:lr-tb;fill:#000000;fill-opacity:1;fill-rule:nonzero;stroke:none"
       id="text248"><tspan
         x="0 7.5178251 12.788425 17.300924 21.813425 26.362024 31.6236 36.885174"
         y="0"
         sodipodi:role="line"
         id="tspan246">Message </tspan></text>
<text
       transform="matrix(1,0,0,-1,453.77,292.92)"
       style="font-variant:normal;font-weight:normal;font-size:9px;font-family:Arial;-inkscape-font-specification:Arial;writing-mode:lr-tb;fill:#000000;fill-opacity:1;fill-rule:nonzero;stroke:none"
       id="text252"><tspan
         x="0 6.777 12.015 14.256 18.756001 23.256001 26.243999"
         y="0"
         sodipodi:role="line"
         id="tspan250">Object </tspan></text>
<text
       transform="matrix(1,0,0,-1,482.33,292.92)"
       style="font-variant:normal;font-weight:normal;font-size:9px;font-family:Arial;-inkscape-font-specification:Arial;writing-mode:lr-tb;fill:#000000;fill-opacity:1;fill-rule:nonzero;stroke:none"
       id="text256"><tspan
         x="0 5.25"
         y="0"
         sodipodi:role="line"
         id="tspan254">31</tspan></text>
<path
       d="m 441,423 h 63 v 18 h -63 z"
       style="fill:none;stroke:#000000;stroke-width:0.75075001;stroke-linecap:round;stroke-linejoin:round;stroke-miterlimit:10;stroke-dasharray:none;stroke-opacity:1"
       id="path258"
       inkscape:connector-curvature="0" /><text
       transform="matrix(1,0,0,-1,459.05,428.95)"
       style="font-variant:normal;font-weight:normal;font-size:9px;font-family:Arial;-inkscape-font-specification:Arial;writing-mode:lr-tb;fill:#000000;fill-opacity:1;fill-rule:nonzero;stroke:none"
       id="text262"><tspan
         x="0 5.2470002 8.2349997 13.482 20.232"
         y="0"
         sodipodi:role="line"
         id="tspan260">FIFO </tspan></text>
<text
       transform="matrix(1,0,0,-1,482.08,428.95)"
       style="font-variant:normal;font-weight:normal;font-size:9px;font-family:Arial;-inkscape-font-specification:Arial;writing-mode:lr-tb;fill:#000000;fill-opacity:1;fill-rule:nonzero;stroke:none"
       id="text266"><tspan
         x="0"
         y="0"
         id="tspan264">3</tspan></text>
<path
       d="m 157.5,379.13 c 0.62,0 1.13,-0.51 1.13,-1.13 0,-0.62 -0.51,-1.12 -1.13,-1.12 -0.62,0 -1.12,0.5 -1.12,1.12 0,0.62 0.5,1.13 1.12,1.13 z"
       style="fill:none;stroke:#000000;stroke-width:0.75075001;stroke-linecap:round;stroke-linejoin:round;stroke-miterlimit:10;stroke-dasharray:none;stroke-opacity:1"
       id="path268"
       inkscape:connector-curvature="0" /><path
       d="m 157.5,356.63 c 0.62,0 1.13,-0.51 1.13,-1.13 0,-0.62 -0.51,-1.12 -1.13,-1.12 -0.62,0 -1.12,0.5 -1.12,1.12 0,0.62 0.5,1.13 1.12,1.13 z"
       style="fill:none;stroke:#000000;stroke-width:0.75075001;stroke-linecap:round;stroke-linejoin:round;stroke-miterlimit:10;stroke-dasharray:none;stroke-opacity:1"
       id="path270"
       inkscape:connector-curvature="0" /><path
       d="m 157.5,331.61 c 0.62,0 1.13,-0.51 1.13,-1.13 0,-0.62 -0.51,-1.12 -1.13,-1.12 -0.62,0 -1.12,0.5 -1.12,1.12 0,0.62 0.5,1.13 1.12,1.13 z"
       style="fill:none;stroke:#000000;stroke-width:0.75075001;stroke-linecap:round;stroke-linejoin:round;stroke-miterlimit:10;stroke-dasharray:none;stroke-opacity:1"
       id="path272"
       inkscape:connector-curvature="0" /><path
       d="m 238.5,379.13 c 0.62,0 1.13,-0.51 1.13,-1.13 0,-0.62 -0.51,-1.12 -1.13,-1.12 -0.62,0 -1.12,0.5 -1.12,1.12 0,0.62 0.5,1.13 1.12,1.13 z"
       style="fill:none;stroke:#000000;stroke-width:0.75075001;stroke-linecap:round;stroke-linejoin:round;stroke-miterlimit:10;stroke-dasharray:none;stroke-opacity:1"
       id="path274"
       inkscape:connector-curvature="0" /><path
       d="m 238.5,356.63 c 0.62,0 1.13,-0.51 1.13,-1.13 0,-0.62 -0.51,-1.12 -1.13,-1.12 -0.62,0 -1.12,0.5 -1.12,1.12 0,0.62 0.5,1.13 1.12,1.13 z"
       style="fill:none;stroke:#000000;stroke-width:0.75075001;stroke-linecap:round;stroke-linejoin:round;stroke-miterlimit:10;stroke-dasharray:none;stroke-opacity:1"
       id="path276"
       inkscape:connector-curvature="0" /><path
       d="m 238.5,331.61 c 0.62,0 1.13,-0.51 1.13,-1.13 0,-0.62 -0.51,-1.12 -1.13,-1.12 -0.62,0 -1.12,0.5 -1.12,1.12 0,0.62 0.5,1.13 1.12,1.13 z"
       style="fill:none;stroke:#000000;stroke-width:0.75075001;stroke-linecap:round;stroke-linejoin:round;stroke-miterlimit:10;stroke-dasharray:none;stroke-opacity:1"
       id="path278"
       inkscape:connector-curvature="0" /><path
       d="m 319.5,379.13 c 0.62,0 1.13,-0.51 1.13,-1.13 0,-0.62 -0.51,-1.12 -1.13,-1.12 -0.62,0 -1.12,0.5 -1.12,1.12 0,0.62 0.5,1.13 1.12,1.13 z"
       style="fill:none;stroke:#000000;stroke-width:0.75075001;stroke-linecap:round;stroke-linejoin:round;stroke-miterlimit:10;stroke-dasharray:none;stroke-opacity:1"
       id="path280"
       inkscape:connector-curvature="0" /><path
       d="m 319.5,356.63 c 0.62,0 1.13,-0.51 1.13,-1.13 0,-0.62 -0.51,-1.12 -1.13,-1.12 -0.62,0 -1.12,0.5 -1.12,1.12 0,0.62 0.5,1.13 1.12,1.13 z"
       style="fill:none;stroke:#000000;stroke-width:0.75075001;stroke-linecap:round;stroke-linejoin:round;stroke-miterlimit:10;stroke-dasharray:none;stroke-opacity:1"
       id="path282"
       inkscape:connector-curvature="0" /><path
       d="m 319.5,331.61 c 0.62,0 1.13,-0.51 1.13,-1.13 0,-0.62 -0.51,-1.12 -1.13,-1.12 -0.62,0 -1.12,0.5 -1.12,1.12 0,0.62 0.5,1.13 1.12,1.13 z"
       style="fill:none;stroke:#000000;stroke-width:0.75075001;stroke-linecap:round;stroke-linejoin:round;stroke-miterlimit:10;stroke-dasharray:none;stroke-opacity:1"
       id="path284"
       inkscape:connector-curvature="0" /><path
       d="m 472.5,380.39 c 0.62,0 1.13,-0.51 1.13,-1.13 0,-0.62 -0.51,-1.12 -1.13,-1.12 -0.62,0 -1.12,0.5 -1.12,1.12 0,0.62 0.5,1.13 1.12,1.13 z"
       style="fill:none;stroke:#000000;stroke-width:0.75075001;stroke-linecap:round;stroke-linejoin:round;stroke-miterlimit:10;stroke-dasharray:none;stroke-opacity:1"
       id="path286"
       inkscape:connector-curvature="0" /><path
       d="m 472.5,357.89 c 0.62,0 1.13,-0.51 1.13,-1.13 0,-0.62 -0.51,-1.12 -1.13,-1.12 -0.62,0 -1.12,0.5 -1.12,1.12 0,0.62 0.5,1.13 1.12,1.13 z"
       style="fill:none;stroke:#000000;stroke-width:0.75075001;stroke-linecap:round;stroke-linejoin:round;stroke-miterlimit:10;stroke-dasharray:none;stroke-opacity:1"
       id="path288"
       inkscape:connector-curvature="0" /><path
       d="m 472.5,332.87 c 0.62,0 1.13,-0.51 1.13,-1.13 0,-0.62 -0.51,-1.12 -1.13,-1.12 -0.62,0 -1.12,0.5 -1.12,1.12 0,0.62 0.5,1.13 1.12,1.13 z"
       style="fill:none;stroke:#000000;stroke-width:0.75075001;stroke-linecap:round;stroke-linejoin:round;stroke-miterlimit:10;stroke-dasharray:none;stroke-opacity:1"
       id="path290"
       inkscape:connector-curvature="0" /><path
       d="m 371.11,355.5 c 0,0.62 0.51,1.13 1.13,1.13 0.62,0 1.12,-0.51 1.12,-1.13 0,-0.62 -0.5,-1.12 -1.12,-1.12 -0.62,0 -1.13,0.5 -1.13,1.12 z"
       style="fill:none;stroke:#000000;stroke-width:0.75075001;stroke-linecap:round;stroke-linejoin:round;stroke-miterlimit:10;stroke-dasharray:none;stroke-opacity:1"
       id="path292"
       inkscape:connector-curvature="0" /><path
       d="m 393.61,355.5 c 0,0.62 0.51,1.13 1.13,1.13 0.62,0 1.12,-0.51 1.12,-1.13 0,-0.62 -0.5,-1.12 -1.12,-1.12 -0.62,0 -1.13,0.5 -1.13,1.12 z"
       style="fill:none;stroke:#000000;stroke-width:0.75075001;stroke-linecap:round;stroke-linejoin:round;stroke-miterlimit:10;stroke-dasharray:none;stroke-opacity:1"
       id="path294"
       inkscape:connector-curvature="0" /><path
       d="m 418.63,355.5 c 0,0.62 0.51,1.13 1.13,1.13 0.62,0 1.12,-0.51 1.12,-1.13 0,-0.62 -0.5,-1.12 -1.12,-1.12 -0.62,0 -1.13,0.5 -1.13,1.12 z"
       style="fill:none;stroke:#000000;stroke-width:0.75075001;stroke-linecap:round;stroke-linejoin:round;stroke-miterlimit:10;stroke-dasharray:none;stroke-opacity:1"
       id="path296"
       inkscape:connector-curvature="0" /></g></svg>